M48
; DRILL file {KiCad (5.1.6)-1} date 09/13/20 21:54:16
; FORMAT={-:-/ absolute / inch / decimal}
; #@! TF.CreationDate,2020-09-13T21:54:16+02:00
; #@! TF.GenerationSoftware,Kicad,Pcbnew,(5.1.6)-1
; #@! TF.FileFunction,Plated,1,2,PTH
FMAT,2
INCH
T1C0.0394
T2C0.0433
T3C0.0512
%
G90
G05
T1
X3.8335Y-2.2773
X3.8335Y-2.3773
X3.9335Y-2.2773
X3.9335Y-2.3773
X4.0335Y-2.2773
X4.0335Y-2.3773
X4.1335Y-2.2773
X4.1335Y-2.3773
X4.2335Y-2.2773
X4.2335Y-2.3773
X4.3335Y-2.2773
X4.3335Y-2.3773
X4.4335Y-2.2773
X4.4335Y-2.3773
X4.5335Y-2.2773
X4.5335Y-2.3773
X4.6335Y-2.2773
X4.6335Y-2.3773
X4.7335Y-2.2773
X4.7335Y-2.3773
X4.8335Y-2.2773
X4.8335Y-2.3773
X9.0598Y-2.1855
X9.0598Y-2.2855
X9.0598Y-2.3855
X9.0598Y-2.4855
X9.9146Y-1.1615
X9.9146Y-1.2615
X9.9146Y-1.3615
X9.9146Y-1.4615
X9.9146Y-1.5615
X9.9146Y-1.6615
X9.9146Y-1.7615
X9.9146Y-1.8615
X9.9146Y-1.9615
X9.9146Y-2.0615
X9.9146Y-2.1615
X9.9146Y-2.2615
X9.9146Y-2.3615
X9.9146Y-2.4615
X9.9146Y-2.5615
X9.9146Y-2.6615
X9.9146Y-2.7615
X9.9146Y-2.8615
X9.9146Y-2.9615
X9.9146Y-3.0615
X9.9146Y-3.1615
X9.9146Y-3.2615
X9.9146Y-3.3615
X10.0146Y-1.1615
X10.0146Y-1.2615
X10.0146Y-1.3615
X10.0146Y-1.4615
X10.0146Y-1.5615
X10.0146Y-1.6615
X10.0146Y-1.7615
X10.0146Y-1.8615
X10.0146Y-1.9615
X10.0146Y-2.0615
X10.0146Y-2.1615
X10.0146Y-2.2615
X10.0146Y-2.3615
X10.0146Y-2.4615
X10.0146Y-2.5615
X10.0146Y-2.6615
X10.0146Y-2.7615
X10.0146Y-2.8615
X10.0146Y-2.9615
X10.0146Y-3.0615
X10.0146Y-3.1615
X10.0146Y-3.2615
X10.0146Y-3.3615
X8.0146Y-1.1615
X8.0146Y-1.2615
X8.0146Y-1.3615
X8.0146Y-1.4615
X8.0146Y-1.5615
X8.0146Y-1.6615
X8.0146Y-1.7615
X8.0146Y-1.8615
X8.0146Y-1.9615
X8.0146Y-2.0615
X8.0146Y-2.1615
X8.0146Y-2.2615
X8.0146Y-2.3615
X8.0146Y-2.4615
X8.0146Y-2.5615
X8.0146Y-2.6615
X8.0146Y-2.7615
X8.0146Y-2.8615
X8.0146Y-2.9615
X8.0146Y-3.0615
X8.0146Y-3.1615
X8.0146Y-3.2615
X8.0146Y-3.3615
X8.1146Y-1.1615
X8.1146Y-1.2615
X8.1146Y-1.3615
X8.1146Y-1.4615
X8.1146Y-1.5615
X8.1146Y-1.6615
X8.1146Y-1.7615
X8.1146Y-1.8615
X8.1146Y-1.9615
X8.1146Y-2.0615
X8.1146Y-2.1615
X8.1146Y-2.2615
X8.1146Y-2.3615
X8.1146Y-2.4615
X8.1146Y-2.5615
X8.1146Y-2.6615
X8.1146Y-2.7615
X8.1146Y-2.8615
X8.1146Y-2.9615
X8.1146Y-3.0615
X8.1146Y-3.1615
X8.1146Y-3.2615
X8.1146Y-3.3615
T2
X9.4831Y-2.2591
X9.4831Y-2.4363
X9.739Y-2.2591
X9.739Y-2.4363
X1.2154Y-2.2591
X1.2154Y-2.4363
X1.4713Y-2.2591
X1.4713Y-2.4363
T3
X1.2744Y-3.5977
X1.4713Y-3.5977
X1.6681Y-3.5977
X1.865Y-3.5977
X2.0618Y-3.5977
X2.2587Y-3.5977
X2.4555Y-3.5977
X2.6524Y-3.5977
X8.4791Y-1.0387
X8.676Y-1.0387
X8.8728Y-1.0387
X9.0697Y-1.0387
X9.2665Y-1.0387
X9.4634Y-1.0387
X9.6602Y-1.0387
X4.6602Y-1.078
X4.8571Y-1.078
X5.0539Y-1.078
X5.2508Y-1.078
X5.4476Y-1.078
X5.6445Y-1.078
X5.8413Y-1.078
X6.0382Y-1.078
X1.2744Y-1.078
X1.4713Y-1.078
X1.6681Y-1.078
X1.865Y-1.078
X2.0618Y-1.078
X2.2587Y-1.078
X2.4555Y-1.078
X2.6524Y-1.078
X2.9673Y-3.5977
X3.1642Y-3.5977
X3.361Y-3.5977
X3.5579Y-3.5977
X3.7547Y-3.5977
X3.9516Y-3.5977
X4.1484Y-3.5977
X4.3453Y-3.5977
X4.6602Y-3.5977
X4.8571Y-3.5977
X5.0539Y-3.5977
X5.2508Y-3.5977
X5.4476Y-3.5977
X5.6445Y-3.5977
X5.8413Y-3.5977
X6.0382Y-3.5977
X7.3768Y-1.0584
X7.5736Y-1.0584
X2.9673Y-1.078
X3.1642Y-1.078
X3.361Y-1.078
X3.5579Y-1.078
X3.7547Y-1.078
X3.9516Y-1.078
X4.1484Y-1.078
X4.3453Y-1.078
X7.2587Y-3.5584
X7.5539Y-3.5584
X6.3532Y-3.5977
X6.55Y-3.5977
X6.7469Y-3.5977
T0
M30
