%TF.GenerationSoftware,KiCad,Pcbnew,(5.1.6)-1*%
%TF.CreationDate,2020-09-13T21:52:13+02:00*%
%TF.ProjectId,boneIO - input board,626f6e65-494f-4202-9d20-696e70757420,rev?*%
%TF.SameCoordinates,Original*%
%TF.FileFunction,Legend,Top*%
%TF.FilePolarity,Positive*%
%FSLAX46Y46*%
G04 Gerber Fmt 4.6, Leading zero omitted, Abs format (unit mm)*
G04 Created by KiCad (PCBNEW (5.1.6)-1) date 2020-09-13 21:52:14*
%MOMM*%
%LPD*%
G01*
G04 APERTURE LIST*
%ADD10C,0.150000*%
%ADD11C,0.120000*%
G04 APERTURE END LIST*
D10*
X123322480Y-65810971D02*
X122322480Y-65810971D01*
X122322480Y-65430019D01*
X122370100Y-65334780D01*
X122417719Y-65287161D01*
X122512957Y-65239542D01*
X122655814Y-65239542D01*
X122751052Y-65287161D01*
X122798671Y-65334780D01*
X122846290Y-65430019D01*
X122846290Y-65810971D01*
X123322480Y-64763352D02*
X123322480Y-64572876D01*
X123274861Y-64477638D01*
X123227242Y-64430019D01*
X123084385Y-64334780D01*
X122893909Y-64287161D01*
X122512957Y-64287161D01*
X122417719Y-64334780D01*
X122370100Y-64382400D01*
X122322480Y-64477638D01*
X122322480Y-64668114D01*
X122370100Y-64763352D01*
X122417719Y-64810971D01*
X122512957Y-64858590D01*
X122751052Y-64858590D01*
X122846290Y-64810971D01*
X122893909Y-64763352D01*
X122941528Y-64668114D01*
X122941528Y-64477638D01*
X122893909Y-64382400D01*
X122846290Y-64334780D01*
X122751052Y-64287161D01*
X123227242Y-63858590D02*
X123274861Y-63810971D01*
X123322480Y-63858590D01*
X123274861Y-63906209D01*
X123227242Y-63858590D01*
X123322480Y-63858590D01*
X122417719Y-63430019D02*
X122370100Y-63382400D01*
X122322480Y-63287161D01*
X122322480Y-63049066D01*
X122370100Y-62953828D01*
X122417719Y-62906209D01*
X122512957Y-62858590D01*
X122608195Y-62858590D01*
X122751052Y-62906209D01*
X123322480Y-63477638D01*
X123322480Y-62858590D01*
X122417719Y-62477638D02*
X122370100Y-62430019D01*
X122322480Y-62334780D01*
X122322480Y-62096685D01*
X122370100Y-62001447D01*
X122417719Y-61953828D01*
X122512957Y-61906209D01*
X122608195Y-61906209D01*
X122751052Y-61953828D01*
X123322480Y-62525257D01*
X123322480Y-61906209D01*
X120822480Y-65810971D02*
X119822480Y-65810971D01*
X119822480Y-65430019D01*
X119870100Y-65334780D01*
X119917719Y-65287161D01*
X120012957Y-65239542D01*
X120155814Y-65239542D01*
X120251052Y-65287161D01*
X120298671Y-65334780D01*
X120346290Y-65430019D01*
X120346290Y-65810971D01*
X120822480Y-64763352D02*
X120822480Y-64572876D01*
X120774861Y-64477638D01*
X120727242Y-64430019D01*
X120584385Y-64334780D01*
X120393909Y-64287161D01*
X120012957Y-64287161D01*
X119917719Y-64334780D01*
X119870100Y-64382400D01*
X119822480Y-64477638D01*
X119822480Y-64668114D01*
X119870100Y-64763352D01*
X119917719Y-64810971D01*
X120012957Y-64858590D01*
X120251052Y-64858590D01*
X120346290Y-64810971D01*
X120393909Y-64763352D01*
X120441528Y-64668114D01*
X120441528Y-64477638D01*
X120393909Y-64382400D01*
X120346290Y-64334780D01*
X120251052Y-64287161D01*
X120727242Y-63858590D02*
X120774861Y-63810971D01*
X120822480Y-63858590D01*
X120774861Y-63906209D01*
X120727242Y-63858590D01*
X120822480Y-63858590D01*
X119917719Y-63430019D02*
X119870100Y-63382400D01*
X119822480Y-63287161D01*
X119822480Y-63049066D01*
X119870100Y-62953828D01*
X119917719Y-62906209D01*
X120012957Y-62858590D01*
X120108195Y-62858590D01*
X120251052Y-62906209D01*
X120822480Y-63477638D01*
X120822480Y-62858590D01*
X120822480Y-61906209D02*
X120822480Y-62477638D01*
X120822480Y-62191923D02*
X119822480Y-62191923D01*
X119965338Y-62287161D01*
X120060576Y-62382400D01*
X120108195Y-62477638D01*
X118322480Y-65810971D02*
X117322480Y-65810971D01*
X117322480Y-65430019D01*
X117370100Y-65334780D01*
X117417719Y-65287161D01*
X117512957Y-65239542D01*
X117655814Y-65239542D01*
X117751052Y-65287161D01*
X117798671Y-65334780D01*
X117846290Y-65430019D01*
X117846290Y-65810971D01*
X118322480Y-64763352D02*
X118322480Y-64572876D01*
X118274861Y-64477638D01*
X118227242Y-64430019D01*
X118084385Y-64334780D01*
X117893909Y-64287161D01*
X117512957Y-64287161D01*
X117417719Y-64334780D01*
X117370100Y-64382400D01*
X117322480Y-64477638D01*
X117322480Y-64668114D01*
X117370100Y-64763352D01*
X117417719Y-64810971D01*
X117512957Y-64858590D01*
X117751052Y-64858590D01*
X117846290Y-64810971D01*
X117893909Y-64763352D01*
X117941528Y-64668114D01*
X117941528Y-64477638D01*
X117893909Y-64382400D01*
X117846290Y-64334780D01*
X117751052Y-64287161D01*
X118227242Y-63858590D02*
X118274861Y-63810971D01*
X118322480Y-63858590D01*
X118274861Y-63906209D01*
X118227242Y-63858590D01*
X118322480Y-63858590D01*
X118322480Y-62858590D02*
X118322480Y-63430019D01*
X118322480Y-63144304D02*
X117322480Y-63144304D01*
X117465338Y-63239542D01*
X117560576Y-63334780D01*
X117608195Y-63430019D01*
X117751052Y-62287161D02*
X117703433Y-62382400D01*
X117655814Y-62430019D01*
X117560576Y-62477638D01*
X117512957Y-62477638D01*
X117417719Y-62430019D01*
X117370100Y-62382400D01*
X117322480Y-62287161D01*
X117322480Y-62096685D01*
X117370100Y-62001447D01*
X117417719Y-61953828D01*
X117512957Y-61906209D01*
X117560576Y-61906209D01*
X117655814Y-61953828D01*
X117703433Y-62001447D01*
X117751052Y-62096685D01*
X117751052Y-62287161D01*
X117798671Y-62382400D01*
X117846290Y-62430019D01*
X117941528Y-62477638D01*
X118132004Y-62477638D01*
X118227242Y-62430019D01*
X118274861Y-62382400D01*
X118322480Y-62287161D01*
X118322480Y-62096685D01*
X118274861Y-62001447D01*
X118227242Y-61953828D01*
X118132004Y-61906209D01*
X117941528Y-61906209D01*
X117846290Y-61953828D01*
X117798671Y-62001447D01*
X117751052Y-62096685D01*
X115822480Y-65810971D02*
X114822480Y-65810971D01*
X114822480Y-65430019D01*
X114870100Y-65334780D01*
X114917719Y-65287161D01*
X115012957Y-65239542D01*
X115155814Y-65239542D01*
X115251052Y-65287161D01*
X115298671Y-65334780D01*
X115346290Y-65430019D01*
X115346290Y-65810971D01*
X115822480Y-64763352D02*
X115822480Y-64572876D01*
X115774861Y-64477638D01*
X115727242Y-64430019D01*
X115584385Y-64334780D01*
X115393909Y-64287161D01*
X115012957Y-64287161D01*
X114917719Y-64334780D01*
X114870100Y-64382400D01*
X114822480Y-64477638D01*
X114822480Y-64668114D01*
X114870100Y-64763352D01*
X114917719Y-64810971D01*
X115012957Y-64858590D01*
X115251052Y-64858590D01*
X115346290Y-64810971D01*
X115393909Y-64763352D01*
X115441528Y-64668114D01*
X115441528Y-64477638D01*
X115393909Y-64382400D01*
X115346290Y-64334780D01*
X115251052Y-64287161D01*
X115727242Y-63858590D02*
X115774861Y-63810971D01*
X115822480Y-63858590D01*
X115774861Y-63906209D01*
X115727242Y-63858590D01*
X115822480Y-63858590D01*
X115822480Y-62858590D02*
X115822480Y-63430019D01*
X115822480Y-63144304D02*
X114822480Y-63144304D01*
X114965338Y-63239542D01*
X115060576Y-63334780D01*
X115108195Y-63430019D01*
X114822480Y-62525257D02*
X114822480Y-61858590D01*
X115822480Y-62287161D01*
X112822480Y-65810971D02*
X111822480Y-65810971D01*
X111822480Y-65430019D01*
X111870100Y-65334780D01*
X111917719Y-65287161D01*
X112012957Y-65239542D01*
X112155814Y-65239542D01*
X112251052Y-65287161D01*
X112298671Y-65334780D01*
X112346290Y-65430019D01*
X112346290Y-65810971D01*
X112822480Y-64763352D02*
X112822480Y-64572876D01*
X112774861Y-64477638D01*
X112727242Y-64430019D01*
X112584385Y-64334780D01*
X112393909Y-64287161D01*
X112012957Y-64287161D01*
X111917719Y-64334780D01*
X111870100Y-64382400D01*
X111822480Y-64477638D01*
X111822480Y-64668114D01*
X111870100Y-64763352D01*
X111917719Y-64810971D01*
X112012957Y-64858590D01*
X112251052Y-64858590D01*
X112346290Y-64810971D01*
X112393909Y-64763352D01*
X112441528Y-64668114D01*
X112441528Y-64477638D01*
X112393909Y-64382400D01*
X112346290Y-64334780D01*
X112251052Y-64287161D01*
X112727242Y-63858590D02*
X112774861Y-63810971D01*
X112822480Y-63858590D01*
X112774861Y-63906209D01*
X112727242Y-63858590D01*
X112822480Y-63858590D01*
X112822480Y-62858590D02*
X112822480Y-63430019D01*
X112822480Y-63144304D02*
X111822480Y-63144304D01*
X111965338Y-63239542D01*
X112060576Y-63334780D01*
X112108195Y-63430019D01*
X111822480Y-62001447D02*
X111822480Y-62191923D01*
X111870100Y-62287161D01*
X111917719Y-62334780D01*
X112060576Y-62430019D01*
X112251052Y-62477638D01*
X112632004Y-62477638D01*
X112727242Y-62430019D01*
X112774861Y-62382400D01*
X112822480Y-62287161D01*
X112822480Y-62096685D01*
X112774861Y-62001447D01*
X112727242Y-61953828D01*
X112632004Y-61906209D01*
X112393909Y-61906209D01*
X112298671Y-61953828D01*
X112251052Y-62001447D01*
X112203433Y-62096685D01*
X112203433Y-62287161D01*
X112251052Y-62382400D01*
X112298671Y-62430019D01*
X112393909Y-62477638D01*
X110322480Y-65810971D02*
X109322480Y-65810971D01*
X109322480Y-65430019D01*
X109370100Y-65334780D01*
X109417719Y-65287161D01*
X109512957Y-65239542D01*
X109655814Y-65239542D01*
X109751052Y-65287161D01*
X109798671Y-65334780D01*
X109846290Y-65430019D01*
X109846290Y-65810971D01*
X110322480Y-64763352D02*
X110322480Y-64572876D01*
X110274861Y-64477638D01*
X110227242Y-64430019D01*
X110084385Y-64334780D01*
X109893909Y-64287161D01*
X109512957Y-64287161D01*
X109417719Y-64334780D01*
X109370100Y-64382400D01*
X109322480Y-64477638D01*
X109322480Y-64668114D01*
X109370100Y-64763352D01*
X109417719Y-64810971D01*
X109512957Y-64858590D01*
X109751052Y-64858590D01*
X109846290Y-64810971D01*
X109893909Y-64763352D01*
X109941528Y-64668114D01*
X109941528Y-64477638D01*
X109893909Y-64382400D01*
X109846290Y-64334780D01*
X109751052Y-64287161D01*
X110227242Y-63858590D02*
X110274861Y-63810971D01*
X110322480Y-63858590D01*
X110274861Y-63906209D01*
X110227242Y-63858590D01*
X110322480Y-63858590D01*
X110322480Y-62858590D02*
X110322480Y-63430019D01*
X110322480Y-63144304D02*
X109322480Y-63144304D01*
X109465338Y-63239542D01*
X109560576Y-63334780D01*
X109608195Y-63430019D01*
X109322480Y-61953828D02*
X109322480Y-62430019D01*
X109798671Y-62477638D01*
X109751052Y-62430019D01*
X109703433Y-62334780D01*
X109703433Y-62096685D01*
X109751052Y-62001447D01*
X109798671Y-61953828D01*
X109893909Y-61906209D01*
X110132004Y-61906209D01*
X110227242Y-61953828D01*
X110274861Y-62001447D01*
X110322480Y-62096685D01*
X110322480Y-62334780D01*
X110274861Y-62430019D01*
X110227242Y-62477638D01*
X107822480Y-65810971D02*
X106822480Y-65810971D01*
X106822480Y-65430019D01*
X106870100Y-65334780D01*
X106917719Y-65287161D01*
X107012957Y-65239542D01*
X107155814Y-65239542D01*
X107251052Y-65287161D01*
X107298671Y-65334780D01*
X107346290Y-65430019D01*
X107346290Y-65810971D01*
X107822480Y-64763352D02*
X107822480Y-64572876D01*
X107774861Y-64477638D01*
X107727242Y-64430019D01*
X107584385Y-64334780D01*
X107393909Y-64287161D01*
X107012957Y-64287161D01*
X106917719Y-64334780D01*
X106870100Y-64382400D01*
X106822480Y-64477638D01*
X106822480Y-64668114D01*
X106870100Y-64763352D01*
X106917719Y-64810971D01*
X107012957Y-64858590D01*
X107251052Y-64858590D01*
X107346290Y-64810971D01*
X107393909Y-64763352D01*
X107441528Y-64668114D01*
X107441528Y-64477638D01*
X107393909Y-64382400D01*
X107346290Y-64334780D01*
X107251052Y-64287161D01*
X107727242Y-63858590D02*
X107774861Y-63810971D01*
X107822480Y-63858590D01*
X107774861Y-63906209D01*
X107727242Y-63858590D01*
X107822480Y-63858590D01*
X107822480Y-62858590D02*
X107822480Y-63430019D01*
X107822480Y-63144304D02*
X106822480Y-63144304D01*
X106965338Y-63239542D01*
X107060576Y-63334780D01*
X107108195Y-63430019D01*
X107155814Y-62001447D02*
X107822480Y-62001447D01*
X106774861Y-62239542D02*
X107489147Y-62477638D01*
X107489147Y-61858590D01*
X105322480Y-65810971D02*
X104322480Y-65810971D01*
X104322480Y-65430019D01*
X104370100Y-65334780D01*
X104417719Y-65287161D01*
X104512957Y-65239542D01*
X104655814Y-65239542D01*
X104751052Y-65287161D01*
X104798671Y-65334780D01*
X104846290Y-65430019D01*
X104846290Y-65810971D01*
X105322480Y-64763352D02*
X105322480Y-64572876D01*
X105274861Y-64477638D01*
X105227242Y-64430019D01*
X105084385Y-64334780D01*
X104893909Y-64287161D01*
X104512957Y-64287161D01*
X104417719Y-64334780D01*
X104370100Y-64382400D01*
X104322480Y-64477638D01*
X104322480Y-64668114D01*
X104370100Y-64763352D01*
X104417719Y-64810971D01*
X104512957Y-64858590D01*
X104751052Y-64858590D01*
X104846290Y-64810971D01*
X104893909Y-64763352D01*
X104941528Y-64668114D01*
X104941528Y-64477638D01*
X104893909Y-64382400D01*
X104846290Y-64334780D01*
X104751052Y-64287161D01*
X105227242Y-63858590D02*
X105274861Y-63810971D01*
X105322480Y-63858590D01*
X105274861Y-63906209D01*
X105227242Y-63858590D01*
X105322480Y-63858590D01*
X105322480Y-62858590D02*
X105322480Y-63430019D01*
X105322480Y-63144304D02*
X104322480Y-63144304D01*
X104465338Y-63239542D01*
X104560576Y-63334780D01*
X104608195Y-63430019D01*
X104322480Y-62525257D02*
X104322480Y-61906209D01*
X104703433Y-62239542D01*
X104703433Y-62096685D01*
X104751052Y-62001447D01*
X104798671Y-61953828D01*
X104893909Y-61906209D01*
X105132004Y-61906209D01*
X105227242Y-61953828D01*
X105274861Y-62001447D01*
X105322480Y-62096685D01*
X105322480Y-62382400D01*
X105274861Y-62477638D01*
X105227242Y-62525257D01*
X102822480Y-65810971D02*
X101822480Y-65810971D01*
X101822480Y-65430019D01*
X101870100Y-65334780D01*
X101917719Y-65287161D01*
X102012957Y-65239542D01*
X102155814Y-65239542D01*
X102251052Y-65287161D01*
X102298671Y-65334780D01*
X102346290Y-65430019D01*
X102346290Y-65810971D01*
X102822480Y-64763352D02*
X102822480Y-64572876D01*
X102774861Y-64477638D01*
X102727242Y-64430019D01*
X102584385Y-64334780D01*
X102393909Y-64287161D01*
X102012957Y-64287161D01*
X101917719Y-64334780D01*
X101870100Y-64382400D01*
X101822480Y-64477638D01*
X101822480Y-64668114D01*
X101870100Y-64763352D01*
X101917719Y-64810971D01*
X102012957Y-64858590D01*
X102251052Y-64858590D01*
X102346290Y-64810971D01*
X102393909Y-64763352D01*
X102441528Y-64668114D01*
X102441528Y-64477638D01*
X102393909Y-64382400D01*
X102346290Y-64334780D01*
X102251052Y-64287161D01*
X102727242Y-63858590D02*
X102774861Y-63810971D01*
X102822480Y-63858590D01*
X102774861Y-63906209D01*
X102727242Y-63858590D01*
X102822480Y-63858590D01*
X102822480Y-62858590D02*
X102822480Y-63430019D01*
X102822480Y-63144304D02*
X101822480Y-63144304D01*
X101965338Y-63239542D01*
X102060576Y-63334780D01*
X102108195Y-63430019D01*
X101917719Y-62477638D02*
X101870100Y-62430019D01*
X101822480Y-62334780D01*
X101822480Y-62096685D01*
X101870100Y-62001447D01*
X101917719Y-61953828D01*
X102012957Y-61906209D01*
X102108195Y-61906209D01*
X102251052Y-61953828D01*
X102822480Y-62525257D01*
X102822480Y-61906209D01*
X100322480Y-65810971D02*
X99322480Y-65810971D01*
X99322480Y-65430019D01*
X99370100Y-65334780D01*
X99417719Y-65287161D01*
X99512957Y-65239542D01*
X99655814Y-65239542D01*
X99751052Y-65287161D01*
X99798671Y-65334780D01*
X99846290Y-65430019D01*
X99846290Y-65810971D01*
X100322480Y-64763352D02*
X100322480Y-64572876D01*
X100274861Y-64477638D01*
X100227242Y-64430019D01*
X100084385Y-64334780D01*
X99893909Y-64287161D01*
X99512957Y-64287161D01*
X99417719Y-64334780D01*
X99370100Y-64382400D01*
X99322480Y-64477638D01*
X99322480Y-64668114D01*
X99370100Y-64763352D01*
X99417719Y-64810971D01*
X99512957Y-64858590D01*
X99751052Y-64858590D01*
X99846290Y-64810971D01*
X99893909Y-64763352D01*
X99941528Y-64668114D01*
X99941528Y-64477638D01*
X99893909Y-64382400D01*
X99846290Y-64334780D01*
X99751052Y-64287161D01*
X100227242Y-63858590D02*
X100274861Y-63810971D01*
X100322480Y-63858590D01*
X100274861Y-63906209D01*
X100227242Y-63858590D01*
X100322480Y-63858590D01*
X100322480Y-62858590D02*
X100322480Y-63430019D01*
X100322480Y-63144304D02*
X99322480Y-63144304D01*
X99465338Y-63239542D01*
X99560576Y-63334780D01*
X99608195Y-63430019D01*
X100322480Y-61906209D02*
X100322480Y-62477638D01*
X100322480Y-62191923D02*
X99322480Y-62191923D01*
X99465338Y-62287161D01*
X99560576Y-62382400D01*
X99608195Y-62477638D01*
X97441528Y-64668114D02*
X97441528Y-63906209D01*
X97822480Y-64287161D02*
X97060576Y-64287161D01*
X96822480Y-62953828D02*
X96822480Y-63430019D01*
X97298671Y-63477638D01*
X97251052Y-63430019D01*
X97203433Y-63334780D01*
X97203433Y-63096685D01*
X97251052Y-63001447D01*
X97298671Y-62953828D01*
X97393909Y-62906209D01*
X97632004Y-62906209D01*
X97727242Y-62953828D01*
X97774861Y-63001447D01*
X97822480Y-63096685D01*
X97822480Y-63334780D01*
X97774861Y-63430019D01*
X97727242Y-63477638D01*
X96822480Y-62620495D02*
X97822480Y-62287161D01*
X96822480Y-61953828D01*
X96870100Y-55644304D02*
X96822480Y-55739542D01*
X96822480Y-55882400D01*
X96870100Y-56025257D01*
X96965338Y-56120495D01*
X97060576Y-56168114D01*
X97251052Y-56215733D01*
X97393909Y-56215733D01*
X97584385Y-56168114D01*
X97679623Y-56120495D01*
X97774861Y-56025257D01*
X97822480Y-55882400D01*
X97822480Y-55787161D01*
X97774861Y-55644304D01*
X97727242Y-55596685D01*
X97393909Y-55596685D01*
X97393909Y-55787161D01*
X97822480Y-55168114D02*
X96822480Y-55168114D01*
X97822480Y-54596685D01*
X96822480Y-54596685D01*
X97822480Y-54120495D02*
X96822480Y-54120495D01*
X96822480Y-53882400D01*
X96870100Y-53739542D01*
X96965338Y-53644304D01*
X97060576Y-53596685D01*
X97251052Y-53549066D01*
X97393909Y-53549066D01*
X97584385Y-53596685D01*
X97679623Y-53644304D01*
X97774861Y-53739542D01*
X97822480Y-53882400D01*
X97822480Y-54120495D01*
X100322480Y-56310971D02*
X99322480Y-56310971D01*
X99322480Y-55930019D01*
X99370100Y-55834780D01*
X99417719Y-55787161D01*
X99512957Y-55739542D01*
X99655814Y-55739542D01*
X99751052Y-55787161D01*
X99798671Y-55834780D01*
X99846290Y-55930019D01*
X99846290Y-56310971D01*
X100322480Y-55263352D02*
X100322480Y-55072876D01*
X100274861Y-54977638D01*
X100227242Y-54930019D01*
X100084385Y-54834780D01*
X99893909Y-54787161D01*
X99512957Y-54787161D01*
X99417719Y-54834780D01*
X99370100Y-54882400D01*
X99322480Y-54977638D01*
X99322480Y-55168114D01*
X99370100Y-55263352D01*
X99417719Y-55310971D01*
X99512957Y-55358590D01*
X99751052Y-55358590D01*
X99846290Y-55310971D01*
X99893909Y-55263352D01*
X99941528Y-55168114D01*
X99941528Y-54977638D01*
X99893909Y-54882400D01*
X99846290Y-54834780D01*
X99751052Y-54787161D01*
X100227242Y-54358590D02*
X100274861Y-54310971D01*
X100322480Y-54358590D01*
X100274861Y-54406209D01*
X100227242Y-54358590D01*
X100322480Y-54358590D01*
X99655814Y-53453828D02*
X100322480Y-53453828D01*
X99274861Y-53691923D02*
X99989147Y-53930019D01*
X99989147Y-53310971D01*
X99417719Y-52977638D02*
X99370100Y-52930019D01*
X99322480Y-52834780D01*
X99322480Y-52596685D01*
X99370100Y-52501447D01*
X99417719Y-52453828D01*
X99512957Y-52406209D01*
X99608195Y-52406209D01*
X99751052Y-52453828D01*
X100322480Y-53025257D01*
X100322480Y-52406209D01*
X102822480Y-56310971D02*
X101822480Y-56310971D01*
X101822480Y-55930019D01*
X101870100Y-55834780D01*
X101917719Y-55787161D01*
X102012957Y-55739542D01*
X102155814Y-55739542D01*
X102251052Y-55787161D01*
X102298671Y-55834780D01*
X102346290Y-55930019D01*
X102346290Y-56310971D01*
X102822480Y-55263352D02*
X102822480Y-55072876D01*
X102774861Y-54977638D01*
X102727242Y-54930019D01*
X102584385Y-54834780D01*
X102393909Y-54787161D01*
X102012957Y-54787161D01*
X101917719Y-54834780D01*
X101870100Y-54882400D01*
X101822480Y-54977638D01*
X101822480Y-55168114D01*
X101870100Y-55263352D01*
X101917719Y-55310971D01*
X102012957Y-55358590D01*
X102251052Y-55358590D01*
X102346290Y-55310971D01*
X102393909Y-55263352D01*
X102441528Y-55168114D01*
X102441528Y-54977638D01*
X102393909Y-54882400D01*
X102346290Y-54834780D01*
X102251052Y-54787161D01*
X102727242Y-54358590D02*
X102774861Y-54310971D01*
X102822480Y-54358590D01*
X102774861Y-54406209D01*
X102727242Y-54358590D01*
X102822480Y-54358590D01*
X101822480Y-53977638D02*
X101822480Y-53358590D01*
X102203433Y-53691923D01*
X102203433Y-53549066D01*
X102251052Y-53453828D01*
X102298671Y-53406209D01*
X102393909Y-53358590D01*
X102632004Y-53358590D01*
X102727242Y-53406209D01*
X102774861Y-53453828D01*
X102822480Y-53549066D01*
X102822480Y-53834780D01*
X102774861Y-53930019D01*
X102727242Y-53977638D01*
X102822480Y-52406209D02*
X102822480Y-52977638D01*
X102822480Y-52691923D02*
X101822480Y-52691923D01*
X101965338Y-52787161D01*
X102060576Y-52882400D01*
X102108195Y-52977638D01*
X105322480Y-56310971D02*
X104322480Y-56310971D01*
X104322480Y-55930019D01*
X104370100Y-55834780D01*
X104417719Y-55787161D01*
X104512957Y-55739542D01*
X104655814Y-55739542D01*
X104751052Y-55787161D01*
X104798671Y-55834780D01*
X104846290Y-55930019D01*
X104846290Y-56310971D01*
X105322480Y-55263352D02*
X105322480Y-55072876D01*
X105274861Y-54977638D01*
X105227242Y-54930019D01*
X105084385Y-54834780D01*
X104893909Y-54787161D01*
X104512957Y-54787161D01*
X104417719Y-54834780D01*
X104370100Y-54882400D01*
X104322480Y-54977638D01*
X104322480Y-55168114D01*
X104370100Y-55263352D01*
X104417719Y-55310971D01*
X104512957Y-55358590D01*
X104751052Y-55358590D01*
X104846290Y-55310971D01*
X104893909Y-55263352D01*
X104941528Y-55168114D01*
X104941528Y-54977638D01*
X104893909Y-54882400D01*
X104846290Y-54834780D01*
X104751052Y-54787161D01*
X105227242Y-54358590D02*
X105274861Y-54310971D01*
X105322480Y-54358590D01*
X105274861Y-54406209D01*
X105227242Y-54358590D01*
X105322480Y-54358590D01*
X104322480Y-53977638D02*
X104322480Y-53358590D01*
X104703433Y-53691923D01*
X104703433Y-53549066D01*
X104751052Y-53453828D01*
X104798671Y-53406209D01*
X104893909Y-53358590D01*
X105132004Y-53358590D01*
X105227242Y-53406209D01*
X105274861Y-53453828D01*
X105322480Y-53549066D01*
X105322480Y-53834780D01*
X105274861Y-53930019D01*
X105227242Y-53977638D01*
X104322480Y-52739542D02*
X104322480Y-52644304D01*
X104370100Y-52549066D01*
X104417719Y-52501447D01*
X104512957Y-52453828D01*
X104703433Y-52406209D01*
X104941528Y-52406209D01*
X105132004Y-52453828D01*
X105227242Y-52501447D01*
X105274861Y-52549066D01*
X105322480Y-52644304D01*
X105322480Y-52739542D01*
X105274861Y-52834780D01*
X105227242Y-52882400D01*
X105132004Y-52930019D01*
X104941528Y-52977638D01*
X104703433Y-52977638D01*
X104512957Y-52930019D01*
X104417719Y-52882400D01*
X104370100Y-52834780D01*
X104322480Y-52739542D01*
X107822480Y-56310971D02*
X106822480Y-56310971D01*
X106822480Y-55930019D01*
X106870100Y-55834780D01*
X106917719Y-55787161D01*
X107012957Y-55739542D01*
X107155814Y-55739542D01*
X107251052Y-55787161D01*
X107298671Y-55834780D01*
X107346290Y-55930019D01*
X107346290Y-56310971D01*
X107822480Y-55263352D02*
X107822480Y-55072876D01*
X107774861Y-54977638D01*
X107727242Y-54930019D01*
X107584385Y-54834780D01*
X107393909Y-54787161D01*
X107012957Y-54787161D01*
X106917719Y-54834780D01*
X106870100Y-54882400D01*
X106822480Y-54977638D01*
X106822480Y-55168114D01*
X106870100Y-55263352D01*
X106917719Y-55310971D01*
X107012957Y-55358590D01*
X107251052Y-55358590D01*
X107346290Y-55310971D01*
X107393909Y-55263352D01*
X107441528Y-55168114D01*
X107441528Y-54977638D01*
X107393909Y-54882400D01*
X107346290Y-54834780D01*
X107251052Y-54787161D01*
X107727242Y-54358590D02*
X107774861Y-54310971D01*
X107822480Y-54358590D01*
X107774861Y-54406209D01*
X107727242Y-54358590D01*
X107822480Y-54358590D01*
X106917719Y-53930019D02*
X106870100Y-53882400D01*
X106822480Y-53787161D01*
X106822480Y-53549066D01*
X106870100Y-53453828D01*
X106917719Y-53406209D01*
X107012957Y-53358590D01*
X107108195Y-53358590D01*
X107251052Y-53406209D01*
X107822480Y-53977638D01*
X107822480Y-53358590D01*
X107822480Y-52882400D02*
X107822480Y-52691923D01*
X107774861Y-52596685D01*
X107727242Y-52549066D01*
X107584385Y-52453828D01*
X107393909Y-52406209D01*
X107012957Y-52406209D01*
X106917719Y-52453828D01*
X106870100Y-52501447D01*
X106822480Y-52596685D01*
X106822480Y-52787161D01*
X106870100Y-52882400D01*
X106917719Y-52930019D01*
X107012957Y-52977638D01*
X107251052Y-52977638D01*
X107346290Y-52930019D01*
X107393909Y-52882400D01*
X107441528Y-52787161D01*
X107441528Y-52596685D01*
X107393909Y-52501447D01*
X107346290Y-52453828D01*
X107251052Y-52406209D01*
X110322480Y-56310971D02*
X109322480Y-56310971D01*
X109322480Y-55930019D01*
X109370100Y-55834780D01*
X109417719Y-55787161D01*
X109512957Y-55739542D01*
X109655814Y-55739542D01*
X109751052Y-55787161D01*
X109798671Y-55834780D01*
X109846290Y-55930019D01*
X109846290Y-56310971D01*
X110322480Y-55263352D02*
X110322480Y-55072876D01*
X110274861Y-54977638D01*
X110227242Y-54930019D01*
X110084385Y-54834780D01*
X109893909Y-54787161D01*
X109512957Y-54787161D01*
X109417719Y-54834780D01*
X109370100Y-54882400D01*
X109322480Y-54977638D01*
X109322480Y-55168114D01*
X109370100Y-55263352D01*
X109417719Y-55310971D01*
X109512957Y-55358590D01*
X109751052Y-55358590D01*
X109846290Y-55310971D01*
X109893909Y-55263352D01*
X109941528Y-55168114D01*
X109941528Y-54977638D01*
X109893909Y-54882400D01*
X109846290Y-54834780D01*
X109751052Y-54787161D01*
X110227242Y-54358590D02*
X110274861Y-54310971D01*
X110322480Y-54358590D01*
X110274861Y-54406209D01*
X110227242Y-54358590D01*
X110322480Y-54358590D01*
X109417719Y-53930019D02*
X109370100Y-53882400D01*
X109322480Y-53787161D01*
X109322480Y-53549066D01*
X109370100Y-53453828D01*
X109417719Y-53406209D01*
X109512957Y-53358590D01*
X109608195Y-53358590D01*
X109751052Y-53406209D01*
X110322480Y-53977638D01*
X110322480Y-53358590D01*
X109751052Y-52787161D02*
X109703433Y-52882400D01*
X109655814Y-52930019D01*
X109560576Y-52977638D01*
X109512957Y-52977638D01*
X109417719Y-52930019D01*
X109370100Y-52882400D01*
X109322480Y-52787161D01*
X109322480Y-52596685D01*
X109370100Y-52501447D01*
X109417719Y-52453828D01*
X109512957Y-52406209D01*
X109560576Y-52406209D01*
X109655814Y-52453828D01*
X109703433Y-52501447D01*
X109751052Y-52596685D01*
X109751052Y-52787161D01*
X109798671Y-52882400D01*
X109846290Y-52930019D01*
X109941528Y-52977638D01*
X110132004Y-52977638D01*
X110227242Y-52930019D01*
X110274861Y-52882400D01*
X110322480Y-52787161D01*
X110322480Y-52596685D01*
X110274861Y-52501447D01*
X110227242Y-52453828D01*
X110132004Y-52406209D01*
X109941528Y-52406209D01*
X109846290Y-52453828D01*
X109798671Y-52501447D01*
X109751052Y-52596685D01*
X112822480Y-56310971D02*
X111822480Y-56310971D01*
X111822480Y-55930019D01*
X111870100Y-55834780D01*
X111917719Y-55787161D01*
X112012957Y-55739542D01*
X112155814Y-55739542D01*
X112251052Y-55787161D01*
X112298671Y-55834780D01*
X112346290Y-55930019D01*
X112346290Y-56310971D01*
X112822480Y-55263352D02*
X112822480Y-55072876D01*
X112774861Y-54977638D01*
X112727242Y-54930019D01*
X112584385Y-54834780D01*
X112393909Y-54787161D01*
X112012957Y-54787161D01*
X111917719Y-54834780D01*
X111870100Y-54882400D01*
X111822480Y-54977638D01*
X111822480Y-55168114D01*
X111870100Y-55263352D01*
X111917719Y-55310971D01*
X112012957Y-55358590D01*
X112251052Y-55358590D01*
X112346290Y-55310971D01*
X112393909Y-55263352D01*
X112441528Y-55168114D01*
X112441528Y-54977638D01*
X112393909Y-54882400D01*
X112346290Y-54834780D01*
X112251052Y-54787161D01*
X112727242Y-54358590D02*
X112774861Y-54310971D01*
X112822480Y-54358590D01*
X112774861Y-54406209D01*
X112727242Y-54358590D01*
X112822480Y-54358590D01*
X111917719Y-53930019D02*
X111870100Y-53882400D01*
X111822480Y-53787161D01*
X111822480Y-53549066D01*
X111870100Y-53453828D01*
X111917719Y-53406209D01*
X112012957Y-53358590D01*
X112108195Y-53358590D01*
X112251052Y-53406209D01*
X112822480Y-53977638D01*
X112822480Y-53358590D01*
X111822480Y-53025257D02*
X111822480Y-52358590D01*
X112822480Y-52787161D01*
X115822480Y-56310971D02*
X114822480Y-56310971D01*
X114822480Y-55930019D01*
X114870100Y-55834780D01*
X114917719Y-55787161D01*
X115012957Y-55739542D01*
X115155814Y-55739542D01*
X115251052Y-55787161D01*
X115298671Y-55834780D01*
X115346290Y-55930019D01*
X115346290Y-56310971D01*
X115822480Y-55263352D02*
X115822480Y-55072876D01*
X115774861Y-54977638D01*
X115727242Y-54930019D01*
X115584385Y-54834780D01*
X115393909Y-54787161D01*
X115012957Y-54787161D01*
X114917719Y-54834780D01*
X114870100Y-54882400D01*
X114822480Y-54977638D01*
X114822480Y-55168114D01*
X114870100Y-55263352D01*
X114917719Y-55310971D01*
X115012957Y-55358590D01*
X115251052Y-55358590D01*
X115346290Y-55310971D01*
X115393909Y-55263352D01*
X115441528Y-55168114D01*
X115441528Y-54977638D01*
X115393909Y-54882400D01*
X115346290Y-54834780D01*
X115251052Y-54787161D01*
X115727242Y-54358590D02*
X115774861Y-54310971D01*
X115822480Y-54358590D01*
X115774861Y-54406209D01*
X115727242Y-54358590D01*
X115822480Y-54358590D01*
X114917719Y-53930019D02*
X114870100Y-53882400D01*
X114822480Y-53787161D01*
X114822480Y-53549066D01*
X114870100Y-53453828D01*
X114917719Y-53406209D01*
X115012957Y-53358590D01*
X115108195Y-53358590D01*
X115251052Y-53406209D01*
X115822480Y-53977638D01*
X115822480Y-53358590D01*
X114822480Y-52501447D02*
X114822480Y-52691923D01*
X114870100Y-52787161D01*
X114917719Y-52834780D01*
X115060576Y-52930019D01*
X115251052Y-52977638D01*
X115632004Y-52977638D01*
X115727242Y-52930019D01*
X115774861Y-52882400D01*
X115822480Y-52787161D01*
X115822480Y-52596685D01*
X115774861Y-52501447D01*
X115727242Y-52453828D01*
X115632004Y-52406209D01*
X115393909Y-52406209D01*
X115298671Y-52453828D01*
X115251052Y-52501447D01*
X115203433Y-52596685D01*
X115203433Y-52787161D01*
X115251052Y-52882400D01*
X115298671Y-52930019D01*
X115393909Y-52977638D01*
X118322480Y-56310971D02*
X117322480Y-56310971D01*
X117322480Y-55930019D01*
X117370100Y-55834780D01*
X117417719Y-55787161D01*
X117512957Y-55739542D01*
X117655814Y-55739542D01*
X117751052Y-55787161D01*
X117798671Y-55834780D01*
X117846290Y-55930019D01*
X117846290Y-56310971D01*
X118322480Y-55263352D02*
X118322480Y-55072876D01*
X118274861Y-54977638D01*
X118227242Y-54930019D01*
X118084385Y-54834780D01*
X117893909Y-54787161D01*
X117512957Y-54787161D01*
X117417719Y-54834780D01*
X117370100Y-54882400D01*
X117322480Y-54977638D01*
X117322480Y-55168114D01*
X117370100Y-55263352D01*
X117417719Y-55310971D01*
X117512957Y-55358590D01*
X117751052Y-55358590D01*
X117846290Y-55310971D01*
X117893909Y-55263352D01*
X117941528Y-55168114D01*
X117941528Y-54977638D01*
X117893909Y-54882400D01*
X117846290Y-54834780D01*
X117751052Y-54787161D01*
X118227242Y-54358590D02*
X118274861Y-54310971D01*
X118322480Y-54358590D01*
X118274861Y-54406209D01*
X118227242Y-54358590D01*
X118322480Y-54358590D01*
X117417719Y-53930019D02*
X117370100Y-53882400D01*
X117322480Y-53787161D01*
X117322480Y-53549066D01*
X117370100Y-53453828D01*
X117417719Y-53406209D01*
X117512957Y-53358590D01*
X117608195Y-53358590D01*
X117751052Y-53406209D01*
X118322480Y-53977638D01*
X118322480Y-53358590D01*
X117322480Y-52453828D02*
X117322480Y-52930019D01*
X117798671Y-52977638D01*
X117751052Y-52930019D01*
X117703433Y-52834780D01*
X117703433Y-52596685D01*
X117751052Y-52501447D01*
X117798671Y-52453828D01*
X117893909Y-52406209D01*
X118132004Y-52406209D01*
X118227242Y-52453828D01*
X118274861Y-52501447D01*
X118322480Y-52596685D01*
X118322480Y-52834780D01*
X118274861Y-52930019D01*
X118227242Y-52977638D01*
X120822480Y-56310971D02*
X119822480Y-56310971D01*
X119822480Y-55930019D01*
X119870100Y-55834780D01*
X119917719Y-55787161D01*
X120012957Y-55739542D01*
X120155814Y-55739542D01*
X120251052Y-55787161D01*
X120298671Y-55834780D01*
X120346290Y-55930019D01*
X120346290Y-56310971D01*
X120822480Y-55263352D02*
X120822480Y-55072876D01*
X120774861Y-54977638D01*
X120727242Y-54930019D01*
X120584385Y-54834780D01*
X120393909Y-54787161D01*
X120012957Y-54787161D01*
X119917719Y-54834780D01*
X119870100Y-54882400D01*
X119822480Y-54977638D01*
X119822480Y-55168114D01*
X119870100Y-55263352D01*
X119917719Y-55310971D01*
X120012957Y-55358590D01*
X120251052Y-55358590D01*
X120346290Y-55310971D01*
X120393909Y-55263352D01*
X120441528Y-55168114D01*
X120441528Y-54977638D01*
X120393909Y-54882400D01*
X120346290Y-54834780D01*
X120251052Y-54787161D01*
X120727242Y-54358590D02*
X120774861Y-54310971D01*
X120822480Y-54358590D01*
X120774861Y-54406209D01*
X120727242Y-54358590D01*
X120822480Y-54358590D01*
X119917719Y-53930019D02*
X119870100Y-53882400D01*
X119822480Y-53787161D01*
X119822480Y-53549066D01*
X119870100Y-53453828D01*
X119917719Y-53406209D01*
X120012957Y-53358590D01*
X120108195Y-53358590D01*
X120251052Y-53406209D01*
X120822480Y-53977638D01*
X120822480Y-53358590D01*
X120155814Y-52501447D02*
X120822480Y-52501447D01*
X119774861Y-52739542D02*
X120489147Y-52977638D01*
X120489147Y-52358590D01*
X123322480Y-56310971D02*
X122322480Y-56310971D01*
X122322480Y-55930019D01*
X122370100Y-55834780D01*
X122417719Y-55787161D01*
X122512957Y-55739542D01*
X122655814Y-55739542D01*
X122751052Y-55787161D01*
X122798671Y-55834780D01*
X122846290Y-55930019D01*
X122846290Y-56310971D01*
X123322480Y-55263352D02*
X123322480Y-55072876D01*
X123274861Y-54977638D01*
X123227242Y-54930019D01*
X123084385Y-54834780D01*
X122893909Y-54787161D01*
X122512957Y-54787161D01*
X122417719Y-54834780D01*
X122370100Y-54882400D01*
X122322480Y-54977638D01*
X122322480Y-55168114D01*
X122370100Y-55263352D01*
X122417719Y-55310971D01*
X122512957Y-55358590D01*
X122751052Y-55358590D01*
X122846290Y-55310971D01*
X122893909Y-55263352D01*
X122941528Y-55168114D01*
X122941528Y-54977638D01*
X122893909Y-54882400D01*
X122846290Y-54834780D01*
X122751052Y-54787161D01*
X123227242Y-54358590D02*
X123274861Y-54310971D01*
X123322480Y-54358590D01*
X123274861Y-54406209D01*
X123227242Y-54358590D01*
X123322480Y-54358590D01*
X122417719Y-53930019D02*
X122370100Y-53882400D01*
X122322480Y-53787161D01*
X122322480Y-53549066D01*
X122370100Y-53453828D01*
X122417719Y-53406209D01*
X122512957Y-53358590D01*
X122608195Y-53358590D01*
X122751052Y-53406209D01*
X123322480Y-53977638D01*
X123322480Y-53358590D01*
X122322480Y-53025257D02*
X122322480Y-52406209D01*
X122703433Y-52739542D01*
X122703433Y-52596685D01*
X122751052Y-52501447D01*
X122798671Y-52453828D01*
X122893909Y-52406209D01*
X123132004Y-52406209D01*
X123227242Y-52453828D01*
X123274861Y-52501447D01*
X123322480Y-52596685D01*
X123322480Y-52882400D01*
X123274861Y-52977638D01*
X123227242Y-53025257D01*
X237846290Y-91509780D02*
X237846290Y-90509780D01*
X237846290Y-90890733D02*
X237941528Y-90843114D01*
X238132004Y-90843114D01*
X238227242Y-90890733D01*
X238274861Y-90938352D01*
X238322480Y-91033590D01*
X238322480Y-91319304D01*
X238274861Y-91414542D01*
X238227242Y-91462161D01*
X238132004Y-91509780D01*
X237941528Y-91509780D01*
X237846290Y-91462161D01*
X238893909Y-91509780D02*
X238798671Y-91462161D01*
X238751052Y-91414542D01*
X238703433Y-91319304D01*
X238703433Y-91033590D01*
X238751052Y-90938352D01*
X238798671Y-90890733D01*
X238893909Y-90843114D01*
X239036766Y-90843114D01*
X239132004Y-90890733D01*
X239179623Y-90938352D01*
X239227242Y-91033590D01*
X239227242Y-91319304D01*
X239179623Y-91414542D01*
X239132004Y-91462161D01*
X239036766Y-91509780D01*
X238893909Y-91509780D01*
X239655814Y-90843114D02*
X239655814Y-91509780D01*
X239655814Y-90938352D02*
X239703433Y-90890733D01*
X239798671Y-90843114D01*
X239941528Y-90843114D01*
X240036766Y-90890733D01*
X240084385Y-90985971D01*
X240084385Y-91509780D01*
X240941528Y-91462161D02*
X240846290Y-91509780D01*
X240655814Y-91509780D01*
X240560576Y-91462161D01*
X240512957Y-91366923D01*
X240512957Y-90985971D01*
X240560576Y-90890733D01*
X240655814Y-90843114D01*
X240846290Y-90843114D01*
X240941528Y-90890733D01*
X240989147Y-90985971D01*
X240989147Y-91081209D01*
X240512957Y-91176447D01*
X241417719Y-91509780D02*
X241417719Y-90509780D01*
X242084385Y-90509780D02*
X242274861Y-90509780D01*
X242370100Y-90557400D01*
X242465338Y-90652638D01*
X242512957Y-90843114D01*
X242512957Y-91176447D01*
X242465338Y-91366923D01*
X242370100Y-91462161D01*
X242274861Y-91509780D01*
X242084385Y-91509780D01*
X241989147Y-91462161D01*
X241893909Y-91366923D01*
X241846290Y-91176447D01*
X241846290Y-90843114D01*
X241893909Y-90652638D01*
X241989147Y-90557400D01*
X242084385Y-90509780D01*
X243703433Y-91128828D02*
X244465338Y-91128828D01*
X245703433Y-91509780D02*
X245703433Y-90843114D01*
X245703433Y-90509780D02*
X245655814Y-90557400D01*
X245703433Y-90605019D01*
X245751052Y-90557400D01*
X245703433Y-90509780D01*
X245703433Y-90605019D01*
X246179623Y-90843114D02*
X246179623Y-91509780D01*
X246179623Y-90938352D02*
X246227242Y-90890733D01*
X246322480Y-90843114D01*
X246465338Y-90843114D01*
X246560576Y-90890733D01*
X246608195Y-90985971D01*
X246608195Y-91509780D01*
X247084385Y-90843114D02*
X247084385Y-91843114D01*
X247084385Y-90890733D02*
X247179623Y-90843114D01*
X247370100Y-90843114D01*
X247465338Y-90890733D01*
X247512957Y-90938352D01*
X247560576Y-91033590D01*
X247560576Y-91319304D01*
X247512957Y-91414542D01*
X247465338Y-91462161D01*
X247370100Y-91509780D01*
X247179623Y-91509780D01*
X247084385Y-91462161D01*
X248417719Y-90843114D02*
X248417719Y-91509780D01*
X247989147Y-90843114D02*
X247989147Y-91366923D01*
X248036766Y-91462161D01*
X248132004Y-91509780D01*
X248274861Y-91509780D01*
X248370100Y-91462161D01*
X248417719Y-91414542D01*
X248751052Y-90843114D02*
X249132004Y-90843114D01*
X248893909Y-90509780D02*
X248893909Y-91366923D01*
X248941528Y-91462161D01*
X249036766Y-91509780D01*
X249132004Y-91509780D01*
X250227242Y-91509780D02*
X250227242Y-90509780D01*
X250227242Y-90890733D02*
X250322480Y-90843114D01*
X250512957Y-90843114D01*
X250608195Y-90890733D01*
X250655814Y-90938352D01*
X250703433Y-91033590D01*
X250703433Y-91319304D01*
X250655814Y-91414542D01*
X250608195Y-91462161D01*
X250512957Y-91509780D01*
X250322480Y-91509780D01*
X250227242Y-91462161D01*
X251274861Y-91509780D02*
X251179623Y-91462161D01*
X251132004Y-91414542D01*
X251084385Y-91319304D01*
X251084385Y-91033590D01*
X251132004Y-90938352D01*
X251179623Y-90890733D01*
X251274861Y-90843114D01*
X251417719Y-90843114D01*
X251512957Y-90890733D01*
X251560576Y-90938352D01*
X251608195Y-91033590D01*
X251608195Y-91319304D01*
X251560576Y-91414542D01*
X251512957Y-91462161D01*
X251417719Y-91509780D01*
X251274861Y-91509780D01*
X252465338Y-91509780D02*
X252465338Y-90985971D01*
X252417719Y-90890733D01*
X252322480Y-90843114D01*
X252132004Y-90843114D01*
X252036766Y-90890733D01*
X252465338Y-91462161D02*
X252370099Y-91509780D01*
X252132004Y-91509780D01*
X252036766Y-91462161D01*
X251989147Y-91366923D01*
X251989147Y-91271685D01*
X252036766Y-91176447D01*
X252132004Y-91128828D01*
X252370099Y-91128828D01*
X252465338Y-91081209D01*
X252941528Y-91509780D02*
X252941528Y-90843114D01*
X252941528Y-91033590D02*
X252989147Y-90938352D01*
X253036766Y-90890733D01*
X253132004Y-90843114D01*
X253227242Y-90843114D01*
X253989147Y-91509780D02*
X253989147Y-90509780D01*
X253989147Y-91462161D02*
X253893909Y-91509780D01*
X253703433Y-91509780D01*
X253608195Y-91462161D01*
X253560576Y-91414542D01*
X253512957Y-91319304D01*
X253512957Y-91033590D01*
X253560576Y-90938352D01*
X253608195Y-90890733D01*
X253703433Y-90843114D01*
X253893909Y-90843114D01*
X253989147Y-90890733D01*
X255132004Y-90843114D02*
X255370100Y-91509780D01*
X255608195Y-90843114D01*
X256179623Y-90509780D02*
X256274861Y-90509780D01*
X256370100Y-90557400D01*
X256417719Y-90605019D01*
X256465338Y-90700257D01*
X256512957Y-90890733D01*
X256512957Y-91128828D01*
X256465338Y-91319304D01*
X256417719Y-91414542D01*
X256370100Y-91462161D01*
X256274861Y-91509780D01*
X256179623Y-91509780D01*
X256084385Y-91462161D01*
X256036766Y-91414542D01*
X255989147Y-91319304D01*
X255941528Y-91128828D01*
X255941528Y-90890733D01*
X255989147Y-90700257D01*
X256036766Y-90605019D01*
X256084385Y-90557400D01*
X256179623Y-90509780D01*
X256941528Y-91414542D02*
X256989147Y-91462161D01*
X256941528Y-91509780D01*
X256893909Y-91462161D01*
X256941528Y-91414542D01*
X256941528Y-91509780D01*
X257941528Y-91509780D02*
X257370100Y-91509780D01*
X257655814Y-91509780D02*
X257655814Y-90509780D01*
X257560576Y-90652638D01*
X257465338Y-90747876D01*
X257370100Y-90795495D01*
X238393909Y-92874066D02*
X238870100Y-92874066D01*
X238298671Y-93159780D02*
X238632004Y-92159780D01*
X238965338Y-93159780D01*
X239727242Y-92493114D02*
X239727242Y-93159780D01*
X239298671Y-92493114D02*
X239298671Y-93016923D01*
X239346290Y-93112161D01*
X239441528Y-93159780D01*
X239584385Y-93159780D01*
X239679623Y-93112161D01*
X239727242Y-93064542D01*
X240060576Y-92493114D02*
X240441528Y-92493114D01*
X240203433Y-92159780D02*
X240203433Y-93016923D01*
X240251052Y-93112161D01*
X240346290Y-93159780D01*
X240441528Y-93159780D01*
X240774861Y-93159780D02*
X240774861Y-92159780D01*
X241203433Y-93159780D02*
X241203433Y-92635971D01*
X241155814Y-92540733D01*
X241060576Y-92493114D01*
X240917719Y-92493114D01*
X240822480Y-92540733D01*
X240774861Y-92588352D01*
X241822480Y-93159780D02*
X241727242Y-93112161D01*
X241679623Y-93064542D01*
X241632004Y-92969304D01*
X241632004Y-92683590D01*
X241679623Y-92588352D01*
X241727242Y-92540733D01*
X241822480Y-92493114D01*
X241965338Y-92493114D01*
X242060576Y-92540733D01*
X242108195Y-92588352D01*
X242155814Y-92683590D01*
X242155814Y-92969304D01*
X242108195Y-93064542D01*
X242060576Y-93112161D01*
X241965338Y-93159780D01*
X241822480Y-93159780D01*
X242584385Y-93159780D02*
X242584385Y-92493114D01*
X242584385Y-92683590D02*
X242632004Y-92588352D01*
X242679623Y-92540733D01*
X242774861Y-92493114D01*
X242870100Y-92493114D01*
X243965338Y-92778828D02*
X244727242Y-92778828D01*
X245965338Y-93159780D02*
X245965338Y-92159780D01*
X246298671Y-92874066D01*
X246632004Y-92159780D01*
X246632004Y-93159780D01*
X247536766Y-93159780D02*
X247536766Y-92635971D01*
X247489147Y-92540733D01*
X247393909Y-92493114D01*
X247203433Y-92493114D01*
X247108195Y-92540733D01*
X247536766Y-93112161D02*
X247441528Y-93159780D01*
X247203433Y-93159780D01*
X247108195Y-93112161D01*
X247060576Y-93016923D01*
X247060576Y-92921685D01*
X247108195Y-92826447D01*
X247203433Y-92778828D01*
X247441528Y-92778828D01*
X247536766Y-92731209D01*
X248441528Y-93112161D02*
X248346290Y-93159780D01*
X248155814Y-93159780D01*
X248060576Y-93112161D01*
X248012957Y-93064542D01*
X247965338Y-92969304D01*
X247965338Y-92683590D01*
X248012957Y-92588352D01*
X248060576Y-92540733D01*
X248155814Y-92493114D01*
X248346290Y-92493114D01*
X248441528Y-92540733D01*
X248870100Y-93159780D02*
X248870100Y-92493114D01*
X248870100Y-92159780D02*
X248822480Y-92207400D01*
X248870100Y-92255019D01*
X248917719Y-92207400D01*
X248870100Y-92159780D01*
X248870100Y-92255019D01*
X249727242Y-93112161D02*
X249632004Y-93159780D01*
X249441528Y-93159780D01*
X249346290Y-93112161D01*
X249298671Y-93016923D01*
X249298671Y-92635971D01*
X249346290Y-92540733D01*
X249441528Y-92493114D01*
X249632004Y-92493114D01*
X249727242Y-92540733D01*
X249774861Y-92635971D01*
X249774861Y-92731209D01*
X249298671Y-92826447D01*
X250203433Y-92493114D02*
X250203433Y-93350257D01*
X250155814Y-93445495D01*
X250060576Y-93493114D01*
X250012957Y-93493114D01*
X250203433Y-92159780D02*
X250155814Y-92207400D01*
X250203433Y-92255019D01*
X250251052Y-92207400D01*
X250203433Y-92159780D01*
X250203433Y-92255019D01*
X251441528Y-93159780D02*
X251441528Y-92159780D01*
X252012957Y-93159780D02*
X251584385Y-92588352D01*
X252012957Y-92159780D02*
X251441528Y-92731209D01*
X252441528Y-93159780D02*
X252441528Y-92493114D01*
X252441528Y-92683590D02*
X252489147Y-92588352D01*
X252536766Y-92540733D01*
X252632004Y-92493114D01*
X252727242Y-92493114D01*
X253489147Y-93159780D02*
X253489147Y-92635971D01*
X253441528Y-92540733D01*
X253346290Y-92493114D01*
X253155814Y-92493114D01*
X253060576Y-92540733D01*
X253489147Y-93112161D02*
X253393909Y-93159780D01*
X253155814Y-93159780D01*
X253060576Y-93112161D01*
X253012957Y-93016923D01*
X253012957Y-92921685D01*
X253060576Y-92826447D01*
X253155814Y-92778828D01*
X253393909Y-92778828D01*
X253489147Y-92731209D01*
X253917719Y-93112161D02*
X254012957Y-93159780D01*
X254203433Y-93159780D01*
X254298671Y-93112161D01*
X254346290Y-93016923D01*
X254346290Y-92969304D01*
X254298671Y-92874066D01*
X254203433Y-92826447D01*
X254060576Y-92826447D01*
X253965338Y-92778828D01*
X253917719Y-92683590D01*
X253917719Y-92635971D01*
X253965338Y-92540733D01*
X254060576Y-92493114D01*
X254203433Y-92493114D01*
X254298671Y-92540733D01*
X255203433Y-92493114D02*
X255203433Y-93159780D01*
X254774861Y-92493114D02*
X254774861Y-93016923D01*
X254822480Y-93112161D01*
X254917719Y-93159780D01*
X255060576Y-93159780D01*
X255155814Y-93112161D01*
X255203433Y-93064542D01*
X255632004Y-93112161D02*
X255727242Y-93159780D01*
X255917719Y-93159780D01*
X256012957Y-93112161D01*
X256060576Y-93016923D01*
X256060576Y-92969304D01*
X256012957Y-92874066D01*
X255917719Y-92826447D01*
X255774861Y-92826447D01*
X255679623Y-92778828D01*
X255632004Y-92683590D01*
X255632004Y-92635971D01*
X255679623Y-92540733D01*
X255774861Y-92493114D01*
X255917719Y-92493114D01*
X256012957Y-92540733D01*
X256489147Y-93159780D02*
X256489147Y-92159780D01*
X256584385Y-92778828D02*
X256870100Y-93159780D01*
X256870100Y-92493114D02*
X256489147Y-92874066D01*
X257298671Y-93159780D02*
X257298671Y-92493114D01*
X257298671Y-92159780D02*
X257251052Y-92207400D01*
X257298671Y-92255019D01*
X257346290Y-92207400D01*
X257298671Y-92159780D01*
X257298671Y-92255019D01*
X232155814Y-55787161D02*
X232298671Y-55834780D01*
X232536766Y-55834780D01*
X232632004Y-55787161D01*
X232679623Y-55739542D01*
X232727242Y-55644304D01*
X232727242Y-55549066D01*
X232679623Y-55453828D01*
X232632004Y-55406209D01*
X232536766Y-55358590D01*
X232346290Y-55310971D01*
X232251052Y-55263352D01*
X232203433Y-55215733D01*
X232155814Y-55120495D01*
X232155814Y-55025257D01*
X232203433Y-54930019D01*
X232251052Y-54882400D01*
X232346290Y-54834780D01*
X232584385Y-54834780D01*
X232727242Y-54882400D01*
X233155814Y-55834780D02*
X233155814Y-54834780D01*
X233393909Y-54834780D01*
X233536766Y-54882400D01*
X233632004Y-54977638D01*
X233679623Y-55072876D01*
X233727242Y-55263352D01*
X233727242Y-55406209D01*
X233679623Y-55596685D01*
X233632004Y-55691923D01*
X233536766Y-55787161D01*
X233393909Y-55834780D01*
X233155814Y-55834780D01*
X234108195Y-55549066D02*
X234584385Y-55549066D01*
X234012957Y-55834780D02*
X234346290Y-54834780D01*
X234679623Y-55834780D01*
X232179623Y-58287161D02*
X232322480Y-58334780D01*
X232560576Y-58334780D01*
X232655814Y-58287161D01*
X232703433Y-58239542D01*
X232751052Y-58144304D01*
X232751052Y-58049066D01*
X232703433Y-57953828D01*
X232655814Y-57906209D01*
X232560576Y-57858590D01*
X232370100Y-57810971D01*
X232274861Y-57763352D01*
X232227242Y-57715733D01*
X232179623Y-57620495D01*
X232179623Y-57525257D01*
X232227242Y-57430019D01*
X232274861Y-57382400D01*
X232370100Y-57334780D01*
X232608195Y-57334780D01*
X232751052Y-57382400D01*
X233751052Y-58239542D02*
X233703433Y-58287161D01*
X233560576Y-58334780D01*
X233465338Y-58334780D01*
X233322480Y-58287161D01*
X233227242Y-58191923D01*
X233179623Y-58096685D01*
X233132004Y-57906209D01*
X233132004Y-57763352D01*
X233179623Y-57572876D01*
X233227242Y-57477638D01*
X233322480Y-57382400D01*
X233465338Y-57334780D01*
X233560576Y-57334780D01*
X233703433Y-57382400D01*
X233751052Y-57430019D01*
X234655814Y-58334780D02*
X234179623Y-58334780D01*
X234179623Y-57334780D01*
X231870100Y-62953828D02*
X232632004Y-62953828D01*
X232251052Y-63334780D02*
X232251052Y-62572876D01*
X233012957Y-62334780D02*
X233632004Y-62334780D01*
X233298671Y-62715733D01*
X233441528Y-62715733D01*
X233536766Y-62763352D01*
X233584385Y-62810971D01*
X233632004Y-62906209D01*
X233632004Y-63144304D01*
X233584385Y-63239542D01*
X233536766Y-63287161D01*
X233441528Y-63334780D01*
X233155814Y-63334780D01*
X233060576Y-63287161D01*
X233012957Y-63239542D01*
X234060576Y-63239542D02*
X234108195Y-63287161D01*
X234060576Y-63334780D01*
X234012957Y-63287161D01*
X234060576Y-63239542D01*
X234060576Y-63334780D01*
X234441528Y-62334780D02*
X235060576Y-62334780D01*
X234727242Y-62715733D01*
X234870100Y-62715733D01*
X234965338Y-62763352D01*
X235012957Y-62810971D01*
X235060576Y-62906209D01*
X235060576Y-63144304D01*
X235012957Y-63239542D01*
X234965338Y-63287161D01*
X234870100Y-63334780D01*
X234584385Y-63334780D01*
X234489147Y-63287161D01*
X234441528Y-63239542D01*
X235346290Y-62334780D02*
X235679623Y-63334780D01*
X236012957Y-62334780D01*
X232608195Y-59882400D02*
X232512957Y-59834780D01*
X232370100Y-59834780D01*
X232227242Y-59882400D01*
X232132004Y-59977638D01*
X232084385Y-60072876D01*
X232036766Y-60263352D01*
X232036766Y-60406209D01*
X232084385Y-60596685D01*
X232132004Y-60691923D01*
X232227242Y-60787161D01*
X232370100Y-60834780D01*
X232465338Y-60834780D01*
X232608195Y-60787161D01*
X232655814Y-60739542D01*
X232655814Y-60406209D01*
X232465338Y-60406209D01*
X233084385Y-60834780D02*
X233084385Y-59834780D01*
X233655814Y-60834780D01*
X233655814Y-59834780D01*
X234132004Y-60834780D02*
X234132004Y-59834780D01*
X234370100Y-59834780D01*
X234512957Y-59882400D01*
X234608195Y-59977638D01*
X234655814Y-60072876D01*
X234703433Y-60263352D01*
X234703433Y-60406209D01*
X234655814Y-60596685D01*
X234608195Y-60691923D01*
X234512957Y-60787161D01*
X234370100Y-60834780D01*
X234132004Y-60834780D01*
X243893909Y-31549066D02*
X244370100Y-31549066D01*
X243798671Y-31834780D02*
X244132004Y-30834780D01*
X244465338Y-31834780D01*
X244798671Y-31834780D02*
X244798671Y-30834780D01*
X245274861Y-31834780D02*
X245274861Y-30834780D01*
X245846290Y-31834780D01*
X245846290Y-30834780D01*
X246512957Y-30834780D02*
X246608195Y-30834780D01*
X246703433Y-30882400D01*
X246751052Y-30930019D01*
X246798671Y-31025257D01*
X246846290Y-31215733D01*
X246846290Y-31453828D01*
X246798671Y-31644304D01*
X246751052Y-31739542D01*
X246703433Y-31787161D01*
X246608195Y-31834780D01*
X246512957Y-31834780D01*
X246417719Y-31787161D01*
X246370100Y-31739542D01*
X246322480Y-31644304D01*
X246274861Y-31453828D01*
X246274861Y-31215733D01*
X246322480Y-31025257D01*
X246370100Y-30930019D01*
X246417719Y-30882400D01*
X246512957Y-30834780D01*
X238893909Y-31549066D02*
X239370100Y-31549066D01*
X238798671Y-31834780D02*
X239132004Y-30834780D01*
X239465338Y-31834780D01*
X239798671Y-31834780D02*
X239798671Y-30834780D01*
X240274861Y-31834780D02*
X240274861Y-30834780D01*
X240846290Y-31834780D01*
X240846290Y-30834780D01*
X241846290Y-31834780D02*
X241274861Y-31834780D01*
X241560576Y-31834780D02*
X241560576Y-30834780D01*
X241465338Y-30977638D01*
X241370100Y-31072876D01*
X241274861Y-31120495D01*
X233893909Y-31549066D02*
X234370100Y-31549066D01*
X233798671Y-31834780D02*
X234132004Y-30834780D01*
X234465338Y-31834780D01*
X234798671Y-31834780D02*
X234798671Y-30834780D01*
X235274861Y-31834780D02*
X235274861Y-30834780D01*
X235846290Y-31834780D01*
X235846290Y-30834780D01*
X236274861Y-30930019D02*
X236322480Y-30882400D01*
X236417719Y-30834780D01*
X236655814Y-30834780D01*
X236751052Y-30882400D01*
X236798671Y-30930019D01*
X236846290Y-31025257D01*
X236846290Y-31120495D01*
X236798671Y-31263352D01*
X236227242Y-31834780D01*
X236846290Y-31834780D01*
X228893909Y-31549066D02*
X229370100Y-31549066D01*
X228798671Y-31834780D02*
X229132004Y-30834780D01*
X229465338Y-31834780D01*
X229798671Y-31834780D02*
X229798671Y-30834780D01*
X230274861Y-31834780D02*
X230274861Y-30834780D01*
X230846290Y-31834780D01*
X230846290Y-30834780D01*
X231227242Y-30834780D02*
X231846290Y-30834780D01*
X231512957Y-31215733D01*
X231655814Y-31215733D01*
X231751052Y-31263352D01*
X231798671Y-31310971D01*
X231846290Y-31406209D01*
X231846290Y-31644304D01*
X231798671Y-31739542D01*
X231751052Y-31787161D01*
X231655814Y-31834780D01*
X231370100Y-31834780D01*
X231274861Y-31787161D01*
X231227242Y-31739542D01*
X223893909Y-31549066D02*
X224370100Y-31549066D01*
X223798671Y-31834780D02*
X224132004Y-30834780D01*
X224465338Y-31834780D01*
X224798671Y-31834780D02*
X224798671Y-30834780D01*
X225274861Y-31834780D02*
X225274861Y-30834780D01*
X225846290Y-31834780D01*
X225846290Y-30834780D01*
X226751052Y-30834780D02*
X226560576Y-30834780D01*
X226465338Y-30882400D01*
X226417719Y-30930019D01*
X226322480Y-31072876D01*
X226274861Y-31263352D01*
X226274861Y-31644304D01*
X226322480Y-31739542D01*
X226370100Y-31787161D01*
X226465338Y-31834780D01*
X226655814Y-31834780D01*
X226751052Y-31787161D01*
X226798671Y-31739542D01*
X226846290Y-31644304D01*
X226846290Y-31406209D01*
X226798671Y-31310971D01*
X226751052Y-31263352D01*
X226655814Y-31215733D01*
X226465338Y-31215733D01*
X226370100Y-31263352D01*
X226322480Y-31310971D01*
X226274861Y-31406209D01*
X218893909Y-31549066D02*
X219370100Y-31549066D01*
X218798671Y-31834780D02*
X219132004Y-30834780D01*
X219465338Y-31834780D01*
X219798671Y-31834780D02*
X219798671Y-30834780D01*
X220274861Y-31834780D02*
X220274861Y-30834780D01*
X220846290Y-31834780D01*
X220846290Y-30834780D01*
X221798671Y-30834780D02*
X221322480Y-30834780D01*
X221274861Y-31310971D01*
X221322480Y-31263352D01*
X221417719Y-31215733D01*
X221655814Y-31215733D01*
X221751052Y-31263352D01*
X221798671Y-31310971D01*
X221846290Y-31406209D01*
X221846290Y-31644304D01*
X221798671Y-31739542D01*
X221751052Y-31787161D01*
X221655814Y-31834780D01*
X221417719Y-31834780D01*
X221322480Y-31787161D01*
X221274861Y-31739542D01*
X213893909Y-31549066D02*
X214370100Y-31549066D01*
X213798671Y-31834780D02*
X214132004Y-30834780D01*
X214465338Y-31834780D01*
X214798671Y-31834780D02*
X214798671Y-30834780D01*
X215274861Y-31834780D02*
X215274861Y-30834780D01*
X215846290Y-31834780D01*
X215846290Y-30834780D01*
X216751052Y-31168114D02*
X216751052Y-31834780D01*
X216512957Y-30787161D02*
X216274861Y-31501447D01*
X216893909Y-31501447D01*
X185608195Y-32549066D02*
X186084385Y-32549066D01*
X185512957Y-32834780D02*
X185846290Y-31834780D01*
X186179623Y-32834780D01*
X187036766Y-31882400D02*
X186941528Y-31834780D01*
X186798671Y-31834780D01*
X186655814Y-31882400D01*
X186560576Y-31977638D01*
X186512957Y-32072876D01*
X186465338Y-32263352D01*
X186465338Y-32406209D01*
X186512957Y-32596685D01*
X186560576Y-32691923D01*
X186655814Y-32787161D01*
X186798671Y-32834780D01*
X186893909Y-32834780D01*
X187036766Y-32787161D01*
X187084385Y-32739542D01*
X187084385Y-32406209D01*
X186893909Y-32406209D01*
X187512957Y-32834780D02*
X187512957Y-31834780D01*
X188084385Y-32834780D01*
X188084385Y-31834780D01*
X188560576Y-32834780D02*
X188560576Y-31834780D01*
X188798671Y-31834780D01*
X188941528Y-31882400D01*
X189036766Y-31977638D01*
X189084385Y-32072876D01*
X189132004Y-32263352D01*
X189132004Y-32406209D01*
X189084385Y-32596685D01*
X189036766Y-32691923D01*
X188941528Y-32787161D01*
X188798671Y-32834780D01*
X188560576Y-32834780D01*
X190370100Y-32453828D02*
X191132004Y-32453828D01*
X190751052Y-32834780D02*
X190751052Y-32072876D01*
X192132004Y-32834780D02*
X191560576Y-32834780D01*
X191846290Y-32834780D02*
X191846290Y-31834780D01*
X191751052Y-31977638D01*
X191655814Y-32072876D01*
X191560576Y-32120495D01*
X192560576Y-32739542D02*
X192608195Y-32787161D01*
X192560576Y-32834780D01*
X192512957Y-32787161D01*
X192560576Y-32739542D01*
X192560576Y-32834780D01*
X193179623Y-32263352D02*
X193084385Y-32215733D01*
X193036766Y-32168114D01*
X192989147Y-32072876D01*
X192989147Y-32025257D01*
X193036766Y-31930019D01*
X193084385Y-31882400D01*
X193179623Y-31834780D01*
X193370100Y-31834780D01*
X193465338Y-31882400D01*
X193512957Y-31930019D01*
X193560576Y-32025257D01*
X193560576Y-32072876D01*
X193512957Y-32168114D01*
X193465338Y-32215733D01*
X193370100Y-32263352D01*
X193179623Y-32263352D01*
X193084385Y-32310971D01*
X193036766Y-32358590D01*
X192989147Y-32453828D01*
X192989147Y-32644304D01*
X193036766Y-32739542D01*
X193084385Y-32787161D01*
X193179623Y-32834780D01*
X193370100Y-32834780D01*
X193465338Y-32787161D01*
X193512957Y-32739542D01*
X193560576Y-32644304D01*
X193560576Y-32453828D01*
X193512957Y-32358590D01*
X193465338Y-32310971D01*
X193370100Y-32263352D01*
X193846290Y-31834780D02*
X194179623Y-32834780D01*
X194512957Y-31834780D01*
X146441528Y-32834780D02*
X146441528Y-31834780D01*
X146822480Y-31834780D01*
X146917719Y-31882400D01*
X146965338Y-31930019D01*
X147012957Y-32025257D01*
X147012957Y-32168114D01*
X146965338Y-32263352D01*
X146917719Y-32310971D01*
X146822480Y-32358590D01*
X146441528Y-32358590D01*
X147584385Y-32263352D02*
X147489147Y-32215733D01*
X147441528Y-32168114D01*
X147393909Y-32072876D01*
X147393909Y-32025257D01*
X147441528Y-31930019D01*
X147489147Y-31882400D01*
X147584385Y-31834780D01*
X147774861Y-31834780D01*
X147870100Y-31882400D01*
X147917719Y-31930019D01*
X147965338Y-32025257D01*
X147965338Y-32072876D01*
X147917719Y-32168114D01*
X147870100Y-32215733D01*
X147774861Y-32263352D01*
X147584385Y-32263352D01*
X147489147Y-32310971D01*
X147441528Y-32358590D01*
X147393909Y-32453828D01*
X147393909Y-32644304D01*
X147441528Y-32739542D01*
X147489147Y-32787161D01*
X147584385Y-32834780D01*
X147774861Y-32834780D01*
X147870100Y-32787161D01*
X147917719Y-32739542D01*
X147965338Y-32644304D01*
X147965338Y-32453828D01*
X147917719Y-32358590D01*
X147870100Y-32310971D01*
X147774861Y-32263352D01*
X148393909Y-32739542D02*
X148441528Y-32787161D01*
X148393909Y-32834780D01*
X148346290Y-32787161D01*
X148393909Y-32739542D01*
X148393909Y-32834780D01*
X149298671Y-32168114D02*
X149298671Y-32834780D01*
X149060576Y-31787161D02*
X148822480Y-32501447D01*
X149441528Y-32501447D01*
X150251052Y-31834780D02*
X150060576Y-31834780D01*
X149965338Y-31882400D01*
X149917719Y-31930019D01*
X149822480Y-32072876D01*
X149774861Y-32263352D01*
X149774861Y-32644304D01*
X149822480Y-32739542D01*
X149870100Y-32787161D01*
X149965338Y-32834780D01*
X150155814Y-32834780D01*
X150251052Y-32787161D01*
X150298671Y-32739542D01*
X150346290Y-32644304D01*
X150346290Y-32406209D01*
X150298671Y-32310971D01*
X150251052Y-32263352D01*
X150155814Y-32215733D01*
X149965338Y-32215733D01*
X149870100Y-32263352D01*
X149822480Y-32310971D01*
X149774861Y-32406209D01*
X141441528Y-32834780D02*
X141441528Y-31834780D01*
X141822480Y-31834780D01*
X141917719Y-31882400D01*
X141965338Y-31930019D01*
X142012957Y-32025257D01*
X142012957Y-32168114D01*
X141965338Y-32263352D01*
X141917719Y-32310971D01*
X141822480Y-32358590D01*
X141441528Y-32358590D01*
X142584385Y-32263352D02*
X142489147Y-32215733D01*
X142441528Y-32168114D01*
X142393909Y-32072876D01*
X142393909Y-32025257D01*
X142441528Y-31930019D01*
X142489147Y-31882400D01*
X142584385Y-31834780D01*
X142774861Y-31834780D01*
X142870100Y-31882400D01*
X142917719Y-31930019D01*
X142965338Y-32025257D01*
X142965338Y-32072876D01*
X142917719Y-32168114D01*
X142870100Y-32215733D01*
X142774861Y-32263352D01*
X142584385Y-32263352D01*
X142489147Y-32310971D01*
X142441528Y-32358590D01*
X142393909Y-32453828D01*
X142393909Y-32644304D01*
X142441528Y-32739542D01*
X142489147Y-32787161D01*
X142584385Y-32834780D01*
X142774861Y-32834780D01*
X142870100Y-32787161D01*
X142917719Y-32739542D01*
X142965338Y-32644304D01*
X142965338Y-32453828D01*
X142917719Y-32358590D01*
X142870100Y-32310971D01*
X142774861Y-32263352D01*
X143393909Y-32739542D02*
X143441528Y-32787161D01*
X143393909Y-32834780D01*
X143346290Y-32787161D01*
X143393909Y-32739542D01*
X143393909Y-32834780D01*
X144298671Y-32168114D02*
X144298671Y-32834780D01*
X144060576Y-31787161D02*
X143822480Y-32501447D01*
X144441528Y-32501447D01*
X145298671Y-31834780D02*
X144822480Y-31834780D01*
X144774861Y-32310971D01*
X144822480Y-32263352D01*
X144917719Y-32215733D01*
X145155814Y-32215733D01*
X145251052Y-32263352D01*
X145298671Y-32310971D01*
X145346290Y-32406209D01*
X145346290Y-32644304D01*
X145298671Y-32739542D01*
X145251052Y-32787161D01*
X145155814Y-32834780D01*
X144917719Y-32834780D01*
X144822480Y-32787161D01*
X144774861Y-32739542D01*
X136441528Y-32834780D02*
X136441528Y-31834780D01*
X136822480Y-31834780D01*
X136917719Y-31882400D01*
X136965338Y-31930019D01*
X137012957Y-32025257D01*
X137012957Y-32168114D01*
X136965338Y-32263352D01*
X136917719Y-32310971D01*
X136822480Y-32358590D01*
X136441528Y-32358590D01*
X137584385Y-32263352D02*
X137489147Y-32215733D01*
X137441528Y-32168114D01*
X137393909Y-32072876D01*
X137393909Y-32025257D01*
X137441528Y-31930019D01*
X137489147Y-31882400D01*
X137584385Y-31834780D01*
X137774861Y-31834780D01*
X137870100Y-31882400D01*
X137917719Y-31930019D01*
X137965338Y-32025257D01*
X137965338Y-32072876D01*
X137917719Y-32168114D01*
X137870100Y-32215733D01*
X137774861Y-32263352D01*
X137584385Y-32263352D01*
X137489147Y-32310971D01*
X137441528Y-32358590D01*
X137393909Y-32453828D01*
X137393909Y-32644304D01*
X137441528Y-32739542D01*
X137489147Y-32787161D01*
X137584385Y-32834780D01*
X137774861Y-32834780D01*
X137870100Y-32787161D01*
X137917719Y-32739542D01*
X137965338Y-32644304D01*
X137965338Y-32453828D01*
X137917719Y-32358590D01*
X137870100Y-32310971D01*
X137774861Y-32263352D01*
X138393909Y-32739542D02*
X138441528Y-32787161D01*
X138393909Y-32834780D01*
X138346290Y-32787161D01*
X138393909Y-32739542D01*
X138393909Y-32834780D01*
X139298671Y-32168114D02*
X139298671Y-32834780D01*
X139060576Y-31787161D02*
X138822480Y-32501447D01*
X139441528Y-32501447D01*
X140251052Y-32168114D02*
X140251052Y-32834780D01*
X140012957Y-31787161D02*
X139774861Y-32501447D01*
X140393909Y-32501447D01*
X131441528Y-32834780D02*
X131441528Y-31834780D01*
X131822480Y-31834780D01*
X131917719Y-31882400D01*
X131965338Y-31930019D01*
X132012957Y-32025257D01*
X132012957Y-32168114D01*
X131965338Y-32263352D01*
X131917719Y-32310971D01*
X131822480Y-32358590D01*
X131441528Y-32358590D01*
X132584385Y-32263352D02*
X132489147Y-32215733D01*
X132441528Y-32168114D01*
X132393909Y-32072876D01*
X132393909Y-32025257D01*
X132441528Y-31930019D01*
X132489147Y-31882400D01*
X132584385Y-31834780D01*
X132774861Y-31834780D01*
X132870100Y-31882400D01*
X132917719Y-31930019D01*
X132965338Y-32025257D01*
X132965338Y-32072876D01*
X132917719Y-32168114D01*
X132870100Y-32215733D01*
X132774861Y-32263352D01*
X132584385Y-32263352D01*
X132489147Y-32310971D01*
X132441528Y-32358590D01*
X132393909Y-32453828D01*
X132393909Y-32644304D01*
X132441528Y-32739542D01*
X132489147Y-32787161D01*
X132584385Y-32834780D01*
X132774861Y-32834780D01*
X132870100Y-32787161D01*
X132917719Y-32739542D01*
X132965338Y-32644304D01*
X132965338Y-32453828D01*
X132917719Y-32358590D01*
X132870100Y-32310971D01*
X132774861Y-32263352D01*
X133393909Y-32739542D02*
X133441528Y-32787161D01*
X133393909Y-32834780D01*
X133346290Y-32787161D01*
X133393909Y-32739542D01*
X133393909Y-32834780D01*
X134298671Y-32168114D02*
X134298671Y-32834780D01*
X134060576Y-31787161D02*
X133822480Y-32501447D01*
X134441528Y-32501447D01*
X134727242Y-31834780D02*
X135346290Y-31834780D01*
X135012957Y-32215733D01*
X135155814Y-32215733D01*
X135251052Y-32263352D01*
X135298671Y-32310971D01*
X135346290Y-32406209D01*
X135346290Y-32644304D01*
X135298671Y-32739542D01*
X135251052Y-32787161D01*
X135155814Y-32834780D01*
X134870100Y-32834780D01*
X134774861Y-32787161D01*
X134727242Y-32739542D01*
X126441528Y-32834780D02*
X126441528Y-31834780D01*
X126822480Y-31834780D01*
X126917719Y-31882400D01*
X126965338Y-31930019D01*
X127012957Y-32025257D01*
X127012957Y-32168114D01*
X126965338Y-32263352D01*
X126917719Y-32310971D01*
X126822480Y-32358590D01*
X126441528Y-32358590D01*
X127584385Y-32263352D02*
X127489147Y-32215733D01*
X127441528Y-32168114D01*
X127393909Y-32072876D01*
X127393909Y-32025257D01*
X127441528Y-31930019D01*
X127489147Y-31882400D01*
X127584385Y-31834780D01*
X127774861Y-31834780D01*
X127870100Y-31882400D01*
X127917719Y-31930019D01*
X127965338Y-32025257D01*
X127965338Y-32072876D01*
X127917719Y-32168114D01*
X127870100Y-32215733D01*
X127774861Y-32263352D01*
X127584385Y-32263352D01*
X127489147Y-32310971D01*
X127441528Y-32358590D01*
X127393909Y-32453828D01*
X127393909Y-32644304D01*
X127441528Y-32739542D01*
X127489147Y-32787161D01*
X127584385Y-32834780D01*
X127774861Y-32834780D01*
X127870100Y-32787161D01*
X127917719Y-32739542D01*
X127965338Y-32644304D01*
X127965338Y-32453828D01*
X127917719Y-32358590D01*
X127870100Y-32310971D01*
X127774861Y-32263352D01*
X128393909Y-32739542D02*
X128441528Y-32787161D01*
X128393909Y-32834780D01*
X128346290Y-32787161D01*
X128393909Y-32739542D01*
X128393909Y-32834780D01*
X129298671Y-32168114D02*
X129298671Y-32834780D01*
X129060576Y-31787161D02*
X128822480Y-32501447D01*
X129441528Y-32501447D01*
X129774861Y-31930019D02*
X129822480Y-31882400D01*
X129917719Y-31834780D01*
X130155814Y-31834780D01*
X130251052Y-31882400D01*
X130298671Y-31930019D01*
X130346290Y-32025257D01*
X130346290Y-32120495D01*
X130298671Y-32263352D01*
X129727242Y-32834780D01*
X130346290Y-32834780D01*
X121441528Y-32834780D02*
X121441528Y-31834780D01*
X121822480Y-31834780D01*
X121917719Y-31882400D01*
X121965338Y-31930019D01*
X122012957Y-32025257D01*
X122012957Y-32168114D01*
X121965338Y-32263352D01*
X121917719Y-32310971D01*
X121822480Y-32358590D01*
X121441528Y-32358590D01*
X122584385Y-32263352D02*
X122489147Y-32215733D01*
X122441528Y-32168114D01*
X122393909Y-32072876D01*
X122393909Y-32025257D01*
X122441528Y-31930019D01*
X122489147Y-31882400D01*
X122584385Y-31834780D01*
X122774861Y-31834780D01*
X122870100Y-31882400D01*
X122917719Y-31930019D01*
X122965338Y-32025257D01*
X122965338Y-32072876D01*
X122917719Y-32168114D01*
X122870100Y-32215733D01*
X122774861Y-32263352D01*
X122584385Y-32263352D01*
X122489147Y-32310971D01*
X122441528Y-32358590D01*
X122393909Y-32453828D01*
X122393909Y-32644304D01*
X122441528Y-32739542D01*
X122489147Y-32787161D01*
X122584385Y-32834780D01*
X122774861Y-32834780D01*
X122870100Y-32787161D01*
X122917719Y-32739542D01*
X122965338Y-32644304D01*
X122965338Y-32453828D01*
X122917719Y-32358590D01*
X122870100Y-32310971D01*
X122774861Y-32263352D01*
X123393909Y-32739542D02*
X123441528Y-32787161D01*
X123393909Y-32834780D01*
X123346290Y-32787161D01*
X123393909Y-32739542D01*
X123393909Y-32834780D01*
X124298671Y-32168114D02*
X124298671Y-32834780D01*
X124060576Y-31787161D02*
X123822480Y-32501447D01*
X124441528Y-32501447D01*
X125346290Y-32834780D02*
X124774861Y-32834780D01*
X125060576Y-32834780D02*
X125060576Y-31834780D01*
X124965338Y-31977638D01*
X124870100Y-32072876D01*
X124774861Y-32120495D01*
X116441528Y-32834780D02*
X116441528Y-31834780D01*
X116822480Y-31834780D01*
X116917719Y-31882400D01*
X116965338Y-31930019D01*
X117012957Y-32025257D01*
X117012957Y-32168114D01*
X116965338Y-32263352D01*
X116917719Y-32310971D01*
X116822480Y-32358590D01*
X116441528Y-32358590D01*
X117584385Y-32263352D02*
X117489147Y-32215733D01*
X117441528Y-32168114D01*
X117393909Y-32072876D01*
X117393909Y-32025257D01*
X117441528Y-31930019D01*
X117489147Y-31882400D01*
X117584385Y-31834780D01*
X117774861Y-31834780D01*
X117870100Y-31882400D01*
X117917719Y-31930019D01*
X117965338Y-32025257D01*
X117965338Y-32072876D01*
X117917719Y-32168114D01*
X117870100Y-32215733D01*
X117774861Y-32263352D01*
X117584385Y-32263352D01*
X117489147Y-32310971D01*
X117441528Y-32358590D01*
X117393909Y-32453828D01*
X117393909Y-32644304D01*
X117441528Y-32739542D01*
X117489147Y-32787161D01*
X117584385Y-32834780D01*
X117774861Y-32834780D01*
X117870100Y-32787161D01*
X117917719Y-32739542D01*
X117965338Y-32644304D01*
X117965338Y-32453828D01*
X117917719Y-32358590D01*
X117870100Y-32310971D01*
X117774861Y-32263352D01*
X118393909Y-32739542D02*
X118441528Y-32787161D01*
X118393909Y-32834780D01*
X118346290Y-32787161D01*
X118393909Y-32739542D01*
X118393909Y-32834780D01*
X119298671Y-32168114D02*
X119298671Y-32834780D01*
X119060576Y-31787161D02*
X118822480Y-32501447D01*
X119441528Y-32501447D01*
X120012957Y-31834780D02*
X120108195Y-31834780D01*
X120203433Y-31882400D01*
X120251052Y-31930019D01*
X120298671Y-32025257D01*
X120346290Y-32215733D01*
X120346290Y-32453828D01*
X120298671Y-32644304D01*
X120251052Y-32739542D01*
X120203433Y-32787161D01*
X120108195Y-32834780D01*
X120012957Y-32834780D01*
X119917719Y-32787161D01*
X119870100Y-32739542D01*
X119822480Y-32644304D01*
X119774861Y-32453828D01*
X119774861Y-32215733D01*
X119822480Y-32025257D01*
X119870100Y-31930019D01*
X119917719Y-31882400D01*
X120012957Y-31834780D01*
X103441528Y-32834780D02*
X103441528Y-31834780D01*
X103822480Y-31834780D01*
X103917719Y-31882400D01*
X103965338Y-31930019D01*
X104012957Y-32025257D01*
X104012957Y-32168114D01*
X103965338Y-32263352D01*
X103917719Y-32310971D01*
X103822480Y-32358590D01*
X103441528Y-32358590D01*
X104584385Y-32263352D02*
X104489147Y-32215733D01*
X104441528Y-32168114D01*
X104393909Y-32072876D01*
X104393909Y-32025257D01*
X104441528Y-31930019D01*
X104489147Y-31882400D01*
X104584385Y-31834780D01*
X104774861Y-31834780D01*
X104870100Y-31882400D01*
X104917719Y-31930019D01*
X104965338Y-32025257D01*
X104965338Y-32072876D01*
X104917719Y-32168114D01*
X104870100Y-32215733D01*
X104774861Y-32263352D01*
X104584385Y-32263352D01*
X104489147Y-32310971D01*
X104441528Y-32358590D01*
X104393909Y-32453828D01*
X104393909Y-32644304D01*
X104441528Y-32739542D01*
X104489147Y-32787161D01*
X104584385Y-32834780D01*
X104774861Y-32834780D01*
X104870100Y-32787161D01*
X104917719Y-32739542D01*
X104965338Y-32644304D01*
X104965338Y-32453828D01*
X104917719Y-32358590D01*
X104870100Y-32310971D01*
X104774861Y-32263352D01*
X105393909Y-32739542D02*
X105441528Y-32787161D01*
X105393909Y-32834780D01*
X105346290Y-32787161D01*
X105393909Y-32739542D01*
X105393909Y-32834780D01*
X105774861Y-31834780D02*
X106393909Y-31834780D01*
X106060576Y-32215733D01*
X106203433Y-32215733D01*
X106298671Y-32263352D01*
X106346290Y-32310971D01*
X106393909Y-32406209D01*
X106393909Y-32644304D01*
X106346290Y-32739542D01*
X106298671Y-32787161D01*
X106203433Y-32834780D01*
X105917719Y-32834780D01*
X105822480Y-32787161D01*
X105774861Y-32739542D01*
X106870100Y-32834780D02*
X107060576Y-32834780D01*
X107155814Y-32787161D01*
X107203433Y-32739542D01*
X107298671Y-32596685D01*
X107346290Y-32406209D01*
X107346290Y-32025257D01*
X107298671Y-31930019D01*
X107251052Y-31882400D01*
X107155814Y-31834780D01*
X106965338Y-31834780D01*
X106870100Y-31882400D01*
X106822480Y-31930019D01*
X106774861Y-32025257D01*
X106774861Y-32263352D01*
X106822480Y-32358590D01*
X106870100Y-32406209D01*
X106965338Y-32453828D01*
X107155814Y-32453828D01*
X107251052Y-32406209D01*
X107298671Y-32358590D01*
X107346290Y-32263352D01*
X98441528Y-32834780D02*
X98441528Y-31834780D01*
X98822480Y-31834780D01*
X98917719Y-31882400D01*
X98965338Y-31930019D01*
X99012957Y-32025257D01*
X99012957Y-32168114D01*
X98965338Y-32263352D01*
X98917719Y-32310971D01*
X98822480Y-32358590D01*
X98441528Y-32358590D01*
X99584385Y-32263352D02*
X99489147Y-32215733D01*
X99441528Y-32168114D01*
X99393909Y-32072876D01*
X99393909Y-32025257D01*
X99441528Y-31930019D01*
X99489147Y-31882400D01*
X99584385Y-31834780D01*
X99774861Y-31834780D01*
X99870100Y-31882400D01*
X99917719Y-31930019D01*
X99965338Y-32025257D01*
X99965338Y-32072876D01*
X99917719Y-32168114D01*
X99870100Y-32215733D01*
X99774861Y-32263352D01*
X99584385Y-32263352D01*
X99489147Y-32310971D01*
X99441528Y-32358590D01*
X99393909Y-32453828D01*
X99393909Y-32644304D01*
X99441528Y-32739542D01*
X99489147Y-32787161D01*
X99584385Y-32834780D01*
X99774861Y-32834780D01*
X99870100Y-32787161D01*
X99917719Y-32739542D01*
X99965338Y-32644304D01*
X99965338Y-32453828D01*
X99917719Y-32358590D01*
X99870100Y-32310971D01*
X99774861Y-32263352D01*
X100393909Y-32739542D02*
X100441528Y-32787161D01*
X100393909Y-32834780D01*
X100346290Y-32787161D01*
X100393909Y-32739542D01*
X100393909Y-32834780D01*
X100774861Y-31834780D02*
X101393909Y-31834780D01*
X101060576Y-32215733D01*
X101203433Y-32215733D01*
X101298671Y-32263352D01*
X101346290Y-32310971D01*
X101393909Y-32406209D01*
X101393909Y-32644304D01*
X101346290Y-32739542D01*
X101298671Y-32787161D01*
X101203433Y-32834780D01*
X100917719Y-32834780D01*
X100822480Y-32787161D01*
X100774861Y-32739542D01*
X101965338Y-32263352D02*
X101870100Y-32215733D01*
X101822480Y-32168114D01*
X101774861Y-32072876D01*
X101774861Y-32025257D01*
X101822480Y-31930019D01*
X101870100Y-31882400D01*
X101965338Y-31834780D01*
X102155814Y-31834780D01*
X102251052Y-31882400D01*
X102298671Y-31930019D01*
X102346290Y-32025257D01*
X102346290Y-32072876D01*
X102298671Y-32168114D01*
X102251052Y-32215733D01*
X102155814Y-32263352D01*
X101965338Y-32263352D01*
X101870100Y-32310971D01*
X101822480Y-32358590D01*
X101774861Y-32453828D01*
X101774861Y-32644304D01*
X101822480Y-32739542D01*
X101870100Y-32787161D01*
X101965338Y-32834780D01*
X102155814Y-32834780D01*
X102251052Y-32787161D01*
X102298671Y-32739542D01*
X102346290Y-32644304D01*
X102346290Y-32453828D01*
X102298671Y-32358590D01*
X102251052Y-32310971D01*
X102155814Y-32263352D01*
X93441528Y-32834780D02*
X93441528Y-31834780D01*
X93822480Y-31834780D01*
X93917719Y-31882400D01*
X93965338Y-31930019D01*
X94012957Y-32025257D01*
X94012957Y-32168114D01*
X93965338Y-32263352D01*
X93917719Y-32310971D01*
X93822480Y-32358590D01*
X93441528Y-32358590D01*
X94584385Y-32263352D02*
X94489147Y-32215733D01*
X94441528Y-32168114D01*
X94393909Y-32072876D01*
X94393909Y-32025257D01*
X94441528Y-31930019D01*
X94489147Y-31882400D01*
X94584385Y-31834780D01*
X94774861Y-31834780D01*
X94870100Y-31882400D01*
X94917719Y-31930019D01*
X94965338Y-32025257D01*
X94965338Y-32072876D01*
X94917719Y-32168114D01*
X94870100Y-32215733D01*
X94774861Y-32263352D01*
X94584385Y-32263352D01*
X94489147Y-32310971D01*
X94441528Y-32358590D01*
X94393909Y-32453828D01*
X94393909Y-32644304D01*
X94441528Y-32739542D01*
X94489147Y-32787161D01*
X94584385Y-32834780D01*
X94774861Y-32834780D01*
X94870100Y-32787161D01*
X94917719Y-32739542D01*
X94965338Y-32644304D01*
X94965338Y-32453828D01*
X94917719Y-32358590D01*
X94870100Y-32310971D01*
X94774861Y-32263352D01*
X95393909Y-32739542D02*
X95441528Y-32787161D01*
X95393909Y-32834780D01*
X95346290Y-32787161D01*
X95393909Y-32739542D01*
X95393909Y-32834780D01*
X95774861Y-31834780D02*
X96393909Y-31834780D01*
X96060576Y-32215733D01*
X96203433Y-32215733D01*
X96298671Y-32263352D01*
X96346290Y-32310971D01*
X96393909Y-32406209D01*
X96393909Y-32644304D01*
X96346290Y-32739542D01*
X96298671Y-32787161D01*
X96203433Y-32834780D01*
X95917719Y-32834780D01*
X95822480Y-32787161D01*
X95774861Y-32739542D01*
X96727242Y-31834780D02*
X97393909Y-31834780D01*
X96965338Y-32834780D01*
X88441528Y-32834780D02*
X88441528Y-31834780D01*
X88822480Y-31834780D01*
X88917719Y-31882400D01*
X88965338Y-31930019D01*
X89012957Y-32025257D01*
X89012957Y-32168114D01*
X88965338Y-32263352D01*
X88917719Y-32310971D01*
X88822480Y-32358590D01*
X88441528Y-32358590D01*
X89584385Y-32263352D02*
X89489147Y-32215733D01*
X89441528Y-32168114D01*
X89393909Y-32072876D01*
X89393909Y-32025257D01*
X89441528Y-31930019D01*
X89489147Y-31882400D01*
X89584385Y-31834780D01*
X89774861Y-31834780D01*
X89870100Y-31882400D01*
X89917719Y-31930019D01*
X89965338Y-32025257D01*
X89965338Y-32072876D01*
X89917719Y-32168114D01*
X89870100Y-32215733D01*
X89774861Y-32263352D01*
X89584385Y-32263352D01*
X89489147Y-32310971D01*
X89441528Y-32358590D01*
X89393909Y-32453828D01*
X89393909Y-32644304D01*
X89441528Y-32739542D01*
X89489147Y-32787161D01*
X89584385Y-32834780D01*
X89774861Y-32834780D01*
X89870100Y-32787161D01*
X89917719Y-32739542D01*
X89965338Y-32644304D01*
X89965338Y-32453828D01*
X89917719Y-32358590D01*
X89870100Y-32310971D01*
X89774861Y-32263352D01*
X90393909Y-32739542D02*
X90441528Y-32787161D01*
X90393909Y-32834780D01*
X90346290Y-32787161D01*
X90393909Y-32739542D01*
X90393909Y-32834780D01*
X90774861Y-31834780D02*
X91393909Y-31834780D01*
X91060576Y-32215733D01*
X91203433Y-32215733D01*
X91298671Y-32263352D01*
X91346290Y-32310971D01*
X91393909Y-32406209D01*
X91393909Y-32644304D01*
X91346290Y-32739542D01*
X91298671Y-32787161D01*
X91203433Y-32834780D01*
X90917719Y-32834780D01*
X90822480Y-32787161D01*
X90774861Y-32739542D01*
X92251052Y-31834780D02*
X92060576Y-31834780D01*
X91965338Y-31882400D01*
X91917719Y-31930019D01*
X91822480Y-32072876D01*
X91774861Y-32263352D01*
X91774861Y-32644304D01*
X91822480Y-32739542D01*
X91870100Y-32787161D01*
X91965338Y-32834780D01*
X92155814Y-32834780D01*
X92251052Y-32787161D01*
X92298671Y-32739542D01*
X92346290Y-32644304D01*
X92346290Y-32406209D01*
X92298671Y-32310971D01*
X92251052Y-32263352D01*
X92155814Y-32215733D01*
X91965338Y-32215733D01*
X91870100Y-32263352D01*
X91822480Y-32310971D01*
X91774861Y-32406209D01*
X83441528Y-32834780D02*
X83441528Y-31834780D01*
X83822480Y-31834780D01*
X83917719Y-31882400D01*
X83965338Y-31930019D01*
X84012957Y-32025257D01*
X84012957Y-32168114D01*
X83965338Y-32263352D01*
X83917719Y-32310971D01*
X83822480Y-32358590D01*
X83441528Y-32358590D01*
X84584385Y-32263352D02*
X84489147Y-32215733D01*
X84441528Y-32168114D01*
X84393909Y-32072876D01*
X84393909Y-32025257D01*
X84441528Y-31930019D01*
X84489147Y-31882400D01*
X84584385Y-31834780D01*
X84774861Y-31834780D01*
X84870100Y-31882400D01*
X84917719Y-31930019D01*
X84965338Y-32025257D01*
X84965338Y-32072876D01*
X84917719Y-32168114D01*
X84870100Y-32215733D01*
X84774861Y-32263352D01*
X84584385Y-32263352D01*
X84489147Y-32310971D01*
X84441528Y-32358590D01*
X84393909Y-32453828D01*
X84393909Y-32644304D01*
X84441528Y-32739542D01*
X84489147Y-32787161D01*
X84584385Y-32834780D01*
X84774861Y-32834780D01*
X84870100Y-32787161D01*
X84917719Y-32739542D01*
X84965338Y-32644304D01*
X84965338Y-32453828D01*
X84917719Y-32358590D01*
X84870100Y-32310971D01*
X84774861Y-32263352D01*
X85393909Y-32739542D02*
X85441528Y-32787161D01*
X85393909Y-32834780D01*
X85346290Y-32787161D01*
X85393909Y-32739542D01*
X85393909Y-32834780D01*
X85774861Y-31834780D02*
X86393909Y-31834780D01*
X86060576Y-32215733D01*
X86203433Y-32215733D01*
X86298671Y-32263352D01*
X86346290Y-32310971D01*
X86393909Y-32406209D01*
X86393909Y-32644304D01*
X86346290Y-32739542D01*
X86298671Y-32787161D01*
X86203433Y-32834780D01*
X85917719Y-32834780D01*
X85822480Y-32787161D01*
X85774861Y-32739542D01*
X87298671Y-31834780D02*
X86822480Y-31834780D01*
X86774861Y-32310971D01*
X86822480Y-32263352D01*
X86917719Y-32215733D01*
X87155814Y-32215733D01*
X87251052Y-32263352D01*
X87298671Y-32310971D01*
X87346290Y-32406209D01*
X87346290Y-32644304D01*
X87298671Y-32739542D01*
X87251052Y-32787161D01*
X87155814Y-32834780D01*
X86917719Y-32834780D01*
X86822480Y-32787161D01*
X86774861Y-32739542D01*
X78441528Y-32834780D02*
X78441528Y-31834780D01*
X78822480Y-31834780D01*
X78917719Y-31882400D01*
X78965338Y-31930019D01*
X79012957Y-32025257D01*
X79012957Y-32168114D01*
X78965338Y-32263352D01*
X78917719Y-32310971D01*
X78822480Y-32358590D01*
X78441528Y-32358590D01*
X79584385Y-32263352D02*
X79489147Y-32215733D01*
X79441528Y-32168114D01*
X79393909Y-32072876D01*
X79393909Y-32025257D01*
X79441528Y-31930019D01*
X79489147Y-31882400D01*
X79584385Y-31834780D01*
X79774861Y-31834780D01*
X79870100Y-31882400D01*
X79917719Y-31930019D01*
X79965338Y-32025257D01*
X79965338Y-32072876D01*
X79917719Y-32168114D01*
X79870100Y-32215733D01*
X79774861Y-32263352D01*
X79584385Y-32263352D01*
X79489147Y-32310971D01*
X79441528Y-32358590D01*
X79393909Y-32453828D01*
X79393909Y-32644304D01*
X79441528Y-32739542D01*
X79489147Y-32787161D01*
X79584385Y-32834780D01*
X79774861Y-32834780D01*
X79870100Y-32787161D01*
X79917719Y-32739542D01*
X79965338Y-32644304D01*
X79965338Y-32453828D01*
X79917719Y-32358590D01*
X79870100Y-32310971D01*
X79774861Y-32263352D01*
X80393909Y-32739542D02*
X80441528Y-32787161D01*
X80393909Y-32834780D01*
X80346290Y-32787161D01*
X80393909Y-32739542D01*
X80393909Y-32834780D01*
X80774861Y-31834780D02*
X81393909Y-31834780D01*
X81060576Y-32215733D01*
X81203433Y-32215733D01*
X81298671Y-32263352D01*
X81346290Y-32310971D01*
X81393909Y-32406209D01*
X81393909Y-32644304D01*
X81346290Y-32739542D01*
X81298671Y-32787161D01*
X81203433Y-32834780D01*
X80917719Y-32834780D01*
X80822480Y-32787161D01*
X80774861Y-32739542D01*
X82251052Y-32168114D02*
X82251052Y-32834780D01*
X82012957Y-31787161D02*
X81774861Y-32501447D01*
X82393909Y-32501447D01*
X73441528Y-32834780D02*
X73441528Y-31834780D01*
X73822480Y-31834780D01*
X73917719Y-31882400D01*
X73965338Y-31930019D01*
X74012957Y-32025257D01*
X74012957Y-32168114D01*
X73965338Y-32263352D01*
X73917719Y-32310971D01*
X73822480Y-32358590D01*
X73441528Y-32358590D01*
X74584385Y-32263352D02*
X74489147Y-32215733D01*
X74441528Y-32168114D01*
X74393909Y-32072876D01*
X74393909Y-32025257D01*
X74441528Y-31930019D01*
X74489147Y-31882400D01*
X74584385Y-31834780D01*
X74774861Y-31834780D01*
X74870100Y-31882400D01*
X74917719Y-31930019D01*
X74965338Y-32025257D01*
X74965338Y-32072876D01*
X74917719Y-32168114D01*
X74870100Y-32215733D01*
X74774861Y-32263352D01*
X74584385Y-32263352D01*
X74489147Y-32310971D01*
X74441528Y-32358590D01*
X74393909Y-32453828D01*
X74393909Y-32644304D01*
X74441528Y-32739542D01*
X74489147Y-32787161D01*
X74584385Y-32834780D01*
X74774861Y-32834780D01*
X74870100Y-32787161D01*
X74917719Y-32739542D01*
X74965338Y-32644304D01*
X74965338Y-32453828D01*
X74917719Y-32358590D01*
X74870100Y-32310971D01*
X74774861Y-32263352D01*
X75393909Y-32739542D02*
X75441528Y-32787161D01*
X75393909Y-32834780D01*
X75346290Y-32787161D01*
X75393909Y-32739542D01*
X75393909Y-32834780D01*
X75774861Y-31834780D02*
X76393909Y-31834780D01*
X76060576Y-32215733D01*
X76203433Y-32215733D01*
X76298671Y-32263352D01*
X76346290Y-32310971D01*
X76393909Y-32406209D01*
X76393909Y-32644304D01*
X76346290Y-32739542D01*
X76298671Y-32787161D01*
X76203433Y-32834780D01*
X75917719Y-32834780D01*
X75822480Y-32787161D01*
X75774861Y-32739542D01*
X76727242Y-31834780D02*
X77346290Y-31834780D01*
X77012957Y-32215733D01*
X77155814Y-32215733D01*
X77251052Y-32263352D01*
X77298671Y-32310971D01*
X77346290Y-32406209D01*
X77346290Y-32644304D01*
X77298671Y-32739542D01*
X77251052Y-32787161D01*
X77155814Y-32834780D01*
X76870100Y-32834780D01*
X76774861Y-32787161D01*
X76727242Y-32739542D01*
X60441528Y-32834780D02*
X60441528Y-31834780D01*
X60822480Y-31834780D01*
X60917719Y-31882400D01*
X60965338Y-31930019D01*
X61012957Y-32025257D01*
X61012957Y-32168114D01*
X60965338Y-32263352D01*
X60917719Y-32310971D01*
X60822480Y-32358590D01*
X60441528Y-32358590D01*
X61584385Y-32263352D02*
X61489147Y-32215733D01*
X61441528Y-32168114D01*
X61393909Y-32072876D01*
X61393909Y-32025257D01*
X61441528Y-31930019D01*
X61489147Y-31882400D01*
X61584385Y-31834780D01*
X61774861Y-31834780D01*
X61870100Y-31882400D01*
X61917719Y-31930019D01*
X61965338Y-32025257D01*
X61965338Y-32072876D01*
X61917719Y-32168114D01*
X61870100Y-32215733D01*
X61774861Y-32263352D01*
X61584385Y-32263352D01*
X61489147Y-32310971D01*
X61441528Y-32358590D01*
X61393909Y-32453828D01*
X61393909Y-32644304D01*
X61441528Y-32739542D01*
X61489147Y-32787161D01*
X61584385Y-32834780D01*
X61774861Y-32834780D01*
X61870100Y-32787161D01*
X61917719Y-32739542D01*
X61965338Y-32644304D01*
X61965338Y-32453828D01*
X61917719Y-32358590D01*
X61870100Y-32310971D01*
X61774861Y-32263352D01*
X62393909Y-32739542D02*
X62441528Y-32787161D01*
X62393909Y-32834780D01*
X62346290Y-32787161D01*
X62393909Y-32739542D01*
X62393909Y-32834780D01*
X62774861Y-31834780D02*
X63393909Y-31834780D01*
X63060576Y-32215733D01*
X63203433Y-32215733D01*
X63298671Y-32263352D01*
X63346290Y-32310971D01*
X63393909Y-32406209D01*
X63393909Y-32644304D01*
X63346290Y-32739542D01*
X63298671Y-32787161D01*
X63203433Y-32834780D01*
X62917719Y-32834780D01*
X62822480Y-32787161D01*
X62774861Y-32739542D01*
X63774861Y-31930019D02*
X63822480Y-31882400D01*
X63917719Y-31834780D01*
X64155814Y-31834780D01*
X64251052Y-31882400D01*
X64298671Y-31930019D01*
X64346290Y-32025257D01*
X64346290Y-32120495D01*
X64298671Y-32263352D01*
X63727242Y-32834780D01*
X64346290Y-32834780D01*
X55441528Y-32834780D02*
X55441528Y-31834780D01*
X55822480Y-31834780D01*
X55917719Y-31882400D01*
X55965338Y-31930019D01*
X56012957Y-32025257D01*
X56012957Y-32168114D01*
X55965338Y-32263352D01*
X55917719Y-32310971D01*
X55822480Y-32358590D01*
X55441528Y-32358590D01*
X56584385Y-32263352D02*
X56489147Y-32215733D01*
X56441528Y-32168114D01*
X56393909Y-32072876D01*
X56393909Y-32025257D01*
X56441528Y-31930019D01*
X56489147Y-31882400D01*
X56584385Y-31834780D01*
X56774861Y-31834780D01*
X56870100Y-31882400D01*
X56917719Y-31930019D01*
X56965338Y-32025257D01*
X56965338Y-32072876D01*
X56917719Y-32168114D01*
X56870100Y-32215733D01*
X56774861Y-32263352D01*
X56584385Y-32263352D01*
X56489147Y-32310971D01*
X56441528Y-32358590D01*
X56393909Y-32453828D01*
X56393909Y-32644304D01*
X56441528Y-32739542D01*
X56489147Y-32787161D01*
X56584385Y-32834780D01*
X56774861Y-32834780D01*
X56870100Y-32787161D01*
X56917719Y-32739542D01*
X56965338Y-32644304D01*
X56965338Y-32453828D01*
X56917719Y-32358590D01*
X56870100Y-32310971D01*
X56774861Y-32263352D01*
X57393909Y-32739542D02*
X57441528Y-32787161D01*
X57393909Y-32834780D01*
X57346290Y-32787161D01*
X57393909Y-32739542D01*
X57393909Y-32834780D01*
X57774861Y-31834780D02*
X58393909Y-31834780D01*
X58060576Y-32215733D01*
X58203433Y-32215733D01*
X58298671Y-32263352D01*
X58346290Y-32310971D01*
X58393909Y-32406209D01*
X58393909Y-32644304D01*
X58346290Y-32739542D01*
X58298671Y-32787161D01*
X58203433Y-32834780D01*
X57917719Y-32834780D01*
X57822480Y-32787161D01*
X57774861Y-32739542D01*
X59346290Y-32834780D02*
X58774861Y-32834780D01*
X59060576Y-32834780D02*
X59060576Y-31834780D01*
X58965338Y-31977638D01*
X58870100Y-32072876D01*
X58774861Y-32120495D01*
X50441528Y-32834780D02*
X50441528Y-31834780D01*
X50822480Y-31834780D01*
X50917719Y-31882400D01*
X50965338Y-31930019D01*
X51012957Y-32025257D01*
X51012957Y-32168114D01*
X50965338Y-32263352D01*
X50917719Y-32310971D01*
X50822480Y-32358590D01*
X50441528Y-32358590D01*
X51584385Y-32263352D02*
X51489147Y-32215733D01*
X51441528Y-32168114D01*
X51393909Y-32072876D01*
X51393909Y-32025257D01*
X51441528Y-31930019D01*
X51489147Y-31882400D01*
X51584385Y-31834780D01*
X51774861Y-31834780D01*
X51870100Y-31882400D01*
X51917719Y-31930019D01*
X51965338Y-32025257D01*
X51965338Y-32072876D01*
X51917719Y-32168114D01*
X51870100Y-32215733D01*
X51774861Y-32263352D01*
X51584385Y-32263352D01*
X51489147Y-32310971D01*
X51441528Y-32358590D01*
X51393909Y-32453828D01*
X51393909Y-32644304D01*
X51441528Y-32739542D01*
X51489147Y-32787161D01*
X51584385Y-32834780D01*
X51774861Y-32834780D01*
X51870100Y-32787161D01*
X51917719Y-32739542D01*
X51965338Y-32644304D01*
X51965338Y-32453828D01*
X51917719Y-32358590D01*
X51870100Y-32310971D01*
X51774861Y-32263352D01*
X52393909Y-32739542D02*
X52441528Y-32787161D01*
X52393909Y-32834780D01*
X52346290Y-32787161D01*
X52393909Y-32739542D01*
X52393909Y-32834780D01*
X52774861Y-31834780D02*
X53393909Y-31834780D01*
X53060576Y-32215733D01*
X53203433Y-32215733D01*
X53298671Y-32263352D01*
X53346290Y-32310971D01*
X53393909Y-32406209D01*
X53393909Y-32644304D01*
X53346290Y-32739542D01*
X53298671Y-32787161D01*
X53203433Y-32834780D01*
X52917719Y-32834780D01*
X52822480Y-32787161D01*
X52774861Y-32739542D01*
X54012957Y-31834780D02*
X54108195Y-31834780D01*
X54203433Y-31882400D01*
X54251052Y-31930019D01*
X54298671Y-32025257D01*
X54346290Y-32215733D01*
X54346290Y-32453828D01*
X54298671Y-32644304D01*
X54251052Y-32739542D01*
X54203433Y-32787161D01*
X54108195Y-32834780D01*
X54012957Y-32834780D01*
X53917719Y-32787161D01*
X53870100Y-32739542D01*
X53822480Y-32644304D01*
X53774861Y-32453828D01*
X53774861Y-32215733D01*
X53822480Y-32025257D01*
X53870100Y-31930019D01*
X53917719Y-31882400D01*
X54012957Y-31834780D01*
X45441528Y-32834780D02*
X45441528Y-31834780D01*
X45822480Y-31834780D01*
X45917719Y-31882400D01*
X45965338Y-31930019D01*
X46012957Y-32025257D01*
X46012957Y-32168114D01*
X45965338Y-32263352D01*
X45917719Y-32310971D01*
X45822480Y-32358590D01*
X45441528Y-32358590D01*
X46584385Y-32263352D02*
X46489147Y-32215733D01*
X46441528Y-32168114D01*
X46393909Y-32072876D01*
X46393909Y-32025257D01*
X46441528Y-31930019D01*
X46489147Y-31882400D01*
X46584385Y-31834780D01*
X46774861Y-31834780D01*
X46870100Y-31882400D01*
X46917719Y-31930019D01*
X46965338Y-32025257D01*
X46965338Y-32072876D01*
X46917719Y-32168114D01*
X46870100Y-32215733D01*
X46774861Y-32263352D01*
X46584385Y-32263352D01*
X46489147Y-32310971D01*
X46441528Y-32358590D01*
X46393909Y-32453828D01*
X46393909Y-32644304D01*
X46441528Y-32739542D01*
X46489147Y-32787161D01*
X46584385Y-32834780D01*
X46774861Y-32834780D01*
X46870100Y-32787161D01*
X46917719Y-32739542D01*
X46965338Y-32644304D01*
X46965338Y-32453828D01*
X46917719Y-32358590D01*
X46870100Y-32310971D01*
X46774861Y-32263352D01*
X47393909Y-32739542D02*
X47441528Y-32787161D01*
X47393909Y-32834780D01*
X47346290Y-32787161D01*
X47393909Y-32739542D01*
X47393909Y-32834780D01*
X47822480Y-31930019D02*
X47870100Y-31882400D01*
X47965338Y-31834780D01*
X48203433Y-31834780D01*
X48298671Y-31882400D01*
X48346290Y-31930019D01*
X48393909Y-32025257D01*
X48393909Y-32120495D01*
X48346290Y-32263352D01*
X47774861Y-32834780D01*
X48393909Y-32834780D01*
X48870100Y-32834780D02*
X49060576Y-32834780D01*
X49155814Y-32787161D01*
X49203433Y-32739542D01*
X49298671Y-32596685D01*
X49346290Y-32406209D01*
X49346290Y-32025257D01*
X49298671Y-31930019D01*
X49251052Y-31882400D01*
X49155814Y-31834780D01*
X48965338Y-31834780D01*
X48870100Y-31882400D01*
X48822480Y-31930019D01*
X48774861Y-32025257D01*
X48774861Y-32263352D01*
X48822480Y-32358590D01*
X48870100Y-32406209D01*
X48965338Y-32453828D01*
X49155814Y-32453828D01*
X49251052Y-32406209D01*
X49298671Y-32358590D01*
X49346290Y-32263352D01*
X40441528Y-32834780D02*
X40441528Y-31834780D01*
X40822480Y-31834780D01*
X40917719Y-31882400D01*
X40965338Y-31930019D01*
X41012957Y-32025257D01*
X41012957Y-32168114D01*
X40965338Y-32263352D01*
X40917719Y-32310971D01*
X40822480Y-32358590D01*
X40441528Y-32358590D01*
X41584385Y-32263352D02*
X41489147Y-32215733D01*
X41441528Y-32168114D01*
X41393909Y-32072876D01*
X41393909Y-32025257D01*
X41441528Y-31930019D01*
X41489147Y-31882400D01*
X41584385Y-31834780D01*
X41774861Y-31834780D01*
X41870100Y-31882400D01*
X41917719Y-31930019D01*
X41965338Y-32025257D01*
X41965338Y-32072876D01*
X41917719Y-32168114D01*
X41870100Y-32215733D01*
X41774861Y-32263352D01*
X41584385Y-32263352D01*
X41489147Y-32310971D01*
X41441528Y-32358590D01*
X41393909Y-32453828D01*
X41393909Y-32644304D01*
X41441528Y-32739542D01*
X41489147Y-32787161D01*
X41584385Y-32834780D01*
X41774861Y-32834780D01*
X41870100Y-32787161D01*
X41917719Y-32739542D01*
X41965338Y-32644304D01*
X41965338Y-32453828D01*
X41917719Y-32358590D01*
X41870100Y-32310971D01*
X41774861Y-32263352D01*
X42393909Y-32739542D02*
X42441528Y-32787161D01*
X42393909Y-32834780D01*
X42346290Y-32787161D01*
X42393909Y-32739542D01*
X42393909Y-32834780D01*
X42822480Y-31930019D02*
X42870100Y-31882400D01*
X42965338Y-31834780D01*
X43203433Y-31834780D01*
X43298671Y-31882400D01*
X43346290Y-31930019D01*
X43393909Y-32025257D01*
X43393909Y-32120495D01*
X43346290Y-32263352D01*
X42774861Y-32834780D01*
X43393909Y-32834780D01*
X43965338Y-32263352D02*
X43870100Y-32215733D01*
X43822480Y-32168114D01*
X43774861Y-32072876D01*
X43774861Y-32025257D01*
X43822480Y-31930019D01*
X43870100Y-31882400D01*
X43965338Y-31834780D01*
X44155814Y-31834780D01*
X44251052Y-31882400D01*
X44298671Y-31930019D01*
X44346290Y-32025257D01*
X44346290Y-32072876D01*
X44298671Y-32168114D01*
X44251052Y-32215733D01*
X44155814Y-32263352D01*
X43965338Y-32263352D01*
X43870100Y-32310971D01*
X43822480Y-32358590D01*
X43774861Y-32453828D01*
X43774861Y-32644304D01*
X43822480Y-32739542D01*
X43870100Y-32787161D01*
X43965338Y-32834780D01*
X44155814Y-32834780D01*
X44251052Y-32787161D01*
X44298671Y-32739542D01*
X44346290Y-32644304D01*
X44346290Y-32453828D01*
X44298671Y-32358590D01*
X44251052Y-32310971D01*
X44155814Y-32263352D01*
X35441528Y-32834780D02*
X35441528Y-31834780D01*
X35822480Y-31834780D01*
X35917719Y-31882400D01*
X35965338Y-31930019D01*
X36012957Y-32025257D01*
X36012957Y-32168114D01*
X35965338Y-32263352D01*
X35917719Y-32310971D01*
X35822480Y-32358590D01*
X35441528Y-32358590D01*
X36584385Y-32263352D02*
X36489147Y-32215733D01*
X36441528Y-32168114D01*
X36393909Y-32072876D01*
X36393909Y-32025257D01*
X36441528Y-31930019D01*
X36489147Y-31882400D01*
X36584385Y-31834780D01*
X36774861Y-31834780D01*
X36870100Y-31882400D01*
X36917719Y-31930019D01*
X36965338Y-32025257D01*
X36965338Y-32072876D01*
X36917719Y-32168114D01*
X36870100Y-32215733D01*
X36774861Y-32263352D01*
X36584385Y-32263352D01*
X36489147Y-32310971D01*
X36441528Y-32358590D01*
X36393909Y-32453828D01*
X36393909Y-32644304D01*
X36441528Y-32739542D01*
X36489147Y-32787161D01*
X36584385Y-32834780D01*
X36774861Y-32834780D01*
X36870100Y-32787161D01*
X36917719Y-32739542D01*
X36965338Y-32644304D01*
X36965338Y-32453828D01*
X36917719Y-32358590D01*
X36870100Y-32310971D01*
X36774861Y-32263352D01*
X37393909Y-32739542D02*
X37441528Y-32787161D01*
X37393909Y-32834780D01*
X37346290Y-32787161D01*
X37393909Y-32739542D01*
X37393909Y-32834780D01*
X37822480Y-31930019D02*
X37870100Y-31882400D01*
X37965338Y-31834780D01*
X38203433Y-31834780D01*
X38298671Y-31882400D01*
X38346290Y-31930019D01*
X38393909Y-32025257D01*
X38393909Y-32120495D01*
X38346290Y-32263352D01*
X37774861Y-32834780D01*
X38393909Y-32834780D01*
X38727242Y-31834780D02*
X39393909Y-31834780D01*
X38965338Y-32834780D01*
X30441528Y-32834780D02*
X30441528Y-31834780D01*
X30822480Y-31834780D01*
X30917719Y-31882400D01*
X30965338Y-31930019D01*
X31012957Y-32025257D01*
X31012957Y-32168114D01*
X30965338Y-32263352D01*
X30917719Y-32310971D01*
X30822480Y-32358590D01*
X30441528Y-32358590D01*
X31584385Y-32263352D02*
X31489147Y-32215733D01*
X31441528Y-32168114D01*
X31393909Y-32072876D01*
X31393909Y-32025257D01*
X31441528Y-31930019D01*
X31489147Y-31882400D01*
X31584385Y-31834780D01*
X31774861Y-31834780D01*
X31870100Y-31882400D01*
X31917719Y-31930019D01*
X31965338Y-32025257D01*
X31965338Y-32072876D01*
X31917719Y-32168114D01*
X31870100Y-32215733D01*
X31774861Y-32263352D01*
X31584385Y-32263352D01*
X31489147Y-32310971D01*
X31441528Y-32358590D01*
X31393909Y-32453828D01*
X31393909Y-32644304D01*
X31441528Y-32739542D01*
X31489147Y-32787161D01*
X31584385Y-32834780D01*
X31774861Y-32834780D01*
X31870100Y-32787161D01*
X31917719Y-32739542D01*
X31965338Y-32644304D01*
X31965338Y-32453828D01*
X31917719Y-32358590D01*
X31870100Y-32310971D01*
X31774861Y-32263352D01*
X32393909Y-32739542D02*
X32441528Y-32787161D01*
X32393909Y-32834780D01*
X32346290Y-32787161D01*
X32393909Y-32739542D01*
X32393909Y-32834780D01*
X32822480Y-31930019D02*
X32870100Y-31882400D01*
X32965338Y-31834780D01*
X33203433Y-31834780D01*
X33298671Y-31882400D01*
X33346290Y-31930019D01*
X33393909Y-32025257D01*
X33393909Y-32120495D01*
X33346290Y-32263352D01*
X32774861Y-32834780D01*
X33393909Y-32834780D01*
X34251052Y-31834780D02*
X34060576Y-31834780D01*
X33965338Y-31882400D01*
X33917719Y-31930019D01*
X33822480Y-32072876D01*
X33774861Y-32263352D01*
X33774861Y-32644304D01*
X33822480Y-32739542D01*
X33870100Y-32787161D01*
X33965338Y-32834780D01*
X34155814Y-32834780D01*
X34251052Y-32787161D01*
X34298671Y-32739542D01*
X34346290Y-32644304D01*
X34346290Y-32406209D01*
X34298671Y-32310971D01*
X34251052Y-32263352D01*
X34155814Y-32215733D01*
X33965338Y-32215733D01*
X33870100Y-32263352D01*
X33822480Y-32310971D01*
X33774861Y-32406209D01*
X239084385Y-63834780D02*
X239084385Y-64644304D01*
X239132004Y-64739542D01*
X239179623Y-64787161D01*
X239274861Y-64834780D01*
X239465338Y-64834780D01*
X239560576Y-64787161D01*
X239608195Y-64739542D01*
X239655814Y-64644304D01*
X239655814Y-63834780D01*
X240084385Y-64787161D02*
X240227242Y-64834780D01*
X240465338Y-64834780D01*
X240560576Y-64787161D01*
X240608195Y-64739542D01*
X240655814Y-64644304D01*
X240655814Y-64549066D01*
X240608195Y-64453828D01*
X240560576Y-64406209D01*
X240465338Y-64358590D01*
X240274861Y-64310971D01*
X240179623Y-64263352D01*
X240132004Y-64215733D01*
X240084385Y-64120495D01*
X240084385Y-64025257D01*
X240132004Y-63930019D01*
X240179623Y-63882400D01*
X240274861Y-63834780D01*
X240512957Y-63834780D01*
X240655814Y-63882400D01*
X241084385Y-64310971D02*
X241417719Y-64310971D01*
X241560576Y-64834780D02*
X241084385Y-64834780D01*
X241084385Y-63834780D01*
X241560576Y-63834780D01*
X242560576Y-64834780D02*
X242227242Y-64358590D01*
X241989147Y-64834780D02*
X241989147Y-63834780D01*
X242370100Y-63834780D01*
X242465338Y-63882400D01*
X242512957Y-63930019D01*
X242560576Y-64025257D01*
X242560576Y-64168114D01*
X242512957Y-64263352D01*
X242465338Y-64310971D01*
X242370100Y-64358590D01*
X241989147Y-64358590D01*
X243703433Y-64787161D02*
X243846290Y-64834780D01*
X244084385Y-64834780D01*
X244179623Y-64787161D01*
X244227242Y-64739542D01*
X244274861Y-64644304D01*
X244274861Y-64549066D01*
X244227242Y-64453828D01*
X244179623Y-64406209D01*
X244084385Y-64358590D01*
X243893909Y-64310971D01*
X243798671Y-64263352D01*
X243751052Y-64215733D01*
X243703433Y-64120495D01*
X243703433Y-64025257D01*
X243751052Y-63930019D01*
X243798671Y-63882400D01*
X243893909Y-63834780D01*
X244132004Y-63834780D01*
X244274861Y-63882400D01*
X244608195Y-63834780D02*
X244846290Y-64834780D01*
X245036766Y-64120495D01*
X245227242Y-64834780D01*
X245465338Y-63834780D01*
X245846290Y-64834780D02*
X245846290Y-63834780D01*
X246179623Y-63834780D02*
X246751052Y-63834780D01*
X246465338Y-64834780D02*
X246465338Y-63834780D01*
X247655814Y-64739542D02*
X247608195Y-64787161D01*
X247465338Y-64834780D01*
X247370100Y-64834780D01*
X247227242Y-64787161D01*
X247132004Y-64691923D01*
X247084385Y-64596685D01*
X247036766Y-64406209D01*
X247036766Y-64263352D01*
X247084385Y-64072876D01*
X247132004Y-63977638D01*
X247227242Y-63882400D01*
X247370100Y-63834780D01*
X247465338Y-63834780D01*
X247608195Y-63882400D01*
X247655814Y-63930019D01*
X248084385Y-64834780D02*
X248084385Y-63834780D01*
X248084385Y-64310971D02*
X248655814Y-64310971D01*
X248655814Y-64834780D02*
X248655814Y-63834780D01*
X30536766Y-64787161D02*
X30679623Y-64834780D01*
X30917719Y-64834780D01*
X31012957Y-64787161D01*
X31060576Y-64739542D01*
X31108195Y-64644304D01*
X31108195Y-64549066D01*
X31060576Y-64453828D01*
X31012957Y-64406209D01*
X30917719Y-64358590D01*
X30727242Y-64310971D01*
X30632004Y-64263352D01*
X30584385Y-64215733D01*
X30536766Y-64120495D01*
X30536766Y-64025257D01*
X30584385Y-63930019D01*
X30632004Y-63882400D01*
X30727242Y-63834780D01*
X30965338Y-63834780D01*
X31108195Y-63882400D01*
X31727242Y-64358590D02*
X31727242Y-64834780D01*
X31393909Y-63834780D02*
X31727242Y-64358590D01*
X32060576Y-63834780D01*
X32346290Y-64787161D02*
X32489147Y-64834780D01*
X32727242Y-64834780D01*
X32822480Y-64787161D01*
X32870100Y-64739542D01*
X32917719Y-64644304D01*
X32917719Y-64549066D01*
X32870100Y-64453828D01*
X32822480Y-64406209D01*
X32727242Y-64358590D01*
X32536766Y-64310971D01*
X32441528Y-64263352D01*
X32393909Y-64215733D01*
X32346290Y-64120495D01*
X32346290Y-64025257D01*
X32393909Y-63930019D01*
X32441528Y-63882400D01*
X32536766Y-63834780D01*
X32774861Y-63834780D01*
X32917719Y-63882400D01*
X34679623Y-64834780D02*
X34346290Y-64358590D01*
X34108195Y-64834780D02*
X34108195Y-63834780D01*
X34489147Y-63834780D01*
X34584385Y-63882400D01*
X34632004Y-63930019D01*
X34679623Y-64025257D01*
X34679623Y-64168114D01*
X34632004Y-64263352D01*
X34584385Y-64310971D01*
X34489147Y-64358590D01*
X34108195Y-64358590D01*
X35108195Y-64310971D02*
X35441528Y-64310971D01*
X35584385Y-64834780D02*
X35108195Y-64834780D01*
X35108195Y-63834780D01*
X35584385Y-63834780D01*
X35965338Y-64787161D02*
X36108195Y-64834780D01*
X36346290Y-64834780D01*
X36441528Y-64787161D01*
X36489147Y-64739542D01*
X36536766Y-64644304D01*
X36536766Y-64549066D01*
X36489147Y-64453828D01*
X36441528Y-64406209D01*
X36346290Y-64358590D01*
X36155814Y-64310971D01*
X36060576Y-64263352D01*
X36012957Y-64215733D01*
X35965338Y-64120495D01*
X35965338Y-64025257D01*
X36012957Y-63930019D01*
X36060576Y-63882400D01*
X36155814Y-63834780D01*
X36393909Y-63834780D01*
X36536766Y-63882400D01*
X36965338Y-64310971D02*
X37298671Y-64310971D01*
X37441528Y-64834780D02*
X36965338Y-64834780D01*
X36965338Y-63834780D01*
X37441528Y-63834780D01*
X37727242Y-63834780D02*
X38298671Y-63834780D01*
X38012957Y-64834780D02*
X38012957Y-63834780D01*
X191108195Y-84382400D02*
X191012957Y-84334780D01*
X190870100Y-84334780D01*
X190727242Y-84382400D01*
X190632004Y-84477638D01*
X190584385Y-84572876D01*
X190536766Y-84763352D01*
X190536766Y-84906209D01*
X190584385Y-85096685D01*
X190632004Y-85191923D01*
X190727242Y-85287161D01*
X190870100Y-85334780D01*
X190965338Y-85334780D01*
X191108195Y-85287161D01*
X191155814Y-85239542D01*
X191155814Y-84906209D01*
X190965338Y-84906209D01*
X191584385Y-85334780D02*
X191584385Y-84334780D01*
X192155814Y-85334780D01*
X192155814Y-84334780D01*
X192632004Y-85334780D02*
X192632004Y-84334780D01*
X192870100Y-84334780D01*
X193012957Y-84382400D01*
X193108195Y-84477638D01*
X193155814Y-84572876D01*
X193203433Y-84763352D01*
X193203433Y-84906209D01*
X193155814Y-85096685D01*
X193108195Y-85191923D01*
X193012957Y-85287161D01*
X192870100Y-85334780D01*
X192632004Y-85334780D01*
X182584385Y-84953828D02*
X183346290Y-84953828D01*
X182965338Y-85334780D02*
X182965338Y-84572876D01*
X184298671Y-84334780D02*
X183822480Y-84334780D01*
X183774861Y-84810971D01*
X183822480Y-84763352D01*
X183917719Y-84715733D01*
X184155814Y-84715733D01*
X184251052Y-84763352D01*
X184298671Y-84810971D01*
X184346290Y-84906209D01*
X184346290Y-85144304D01*
X184298671Y-85239542D01*
X184251052Y-85287161D01*
X184155814Y-85334780D01*
X183917719Y-85334780D01*
X183822480Y-85287161D01*
X183774861Y-85239542D01*
X184632004Y-84334780D02*
X184965338Y-85334780D01*
X185298671Y-84334780D01*
X169441528Y-86834780D02*
X169441528Y-85834780D01*
X169822480Y-85834780D01*
X169917719Y-85882400D01*
X169965338Y-85930019D01*
X170012957Y-86025257D01*
X170012957Y-86168114D01*
X169965338Y-86263352D01*
X169917719Y-86310971D01*
X169822480Y-86358590D01*
X169441528Y-86358590D01*
X170584385Y-86263352D02*
X170489147Y-86215733D01*
X170441528Y-86168114D01*
X170393909Y-86072876D01*
X170393909Y-86025257D01*
X170441528Y-85930019D01*
X170489147Y-85882400D01*
X170584385Y-85834780D01*
X170774861Y-85834780D01*
X170870100Y-85882400D01*
X170917719Y-85930019D01*
X170965338Y-86025257D01*
X170965338Y-86072876D01*
X170917719Y-86168114D01*
X170870100Y-86215733D01*
X170774861Y-86263352D01*
X170584385Y-86263352D01*
X170489147Y-86310971D01*
X170441528Y-86358590D01*
X170393909Y-86453828D01*
X170393909Y-86644304D01*
X170441528Y-86739542D01*
X170489147Y-86787161D01*
X170584385Y-86834780D01*
X170774861Y-86834780D01*
X170870100Y-86787161D01*
X170917719Y-86739542D01*
X170965338Y-86644304D01*
X170965338Y-86453828D01*
X170917719Y-86358590D01*
X170870100Y-86310971D01*
X170774861Y-86263352D01*
X171393909Y-86739542D02*
X171441528Y-86787161D01*
X171393909Y-86834780D01*
X171346290Y-86787161D01*
X171393909Y-86739542D01*
X171393909Y-86834780D01*
X172060576Y-85834780D02*
X172155814Y-85834780D01*
X172251052Y-85882400D01*
X172298671Y-85930019D01*
X172346290Y-86025257D01*
X172393909Y-86215733D01*
X172393909Y-86453828D01*
X172346290Y-86644304D01*
X172298671Y-86739542D01*
X172251052Y-86787161D01*
X172155814Y-86834780D01*
X172060576Y-86834780D01*
X171965338Y-86787161D01*
X171917719Y-86739542D01*
X171870100Y-86644304D01*
X171822480Y-86453828D01*
X171822480Y-86215733D01*
X171870100Y-86025257D01*
X171917719Y-85930019D01*
X171965338Y-85882400D01*
X172060576Y-85834780D01*
X172727242Y-85834780D02*
X173346290Y-85834780D01*
X173012957Y-86215733D01*
X173155814Y-86215733D01*
X173251052Y-86263352D01*
X173298671Y-86310971D01*
X173346290Y-86406209D01*
X173346290Y-86644304D01*
X173298671Y-86739542D01*
X173251052Y-86787161D01*
X173155814Y-86834780D01*
X172870100Y-86834780D01*
X172774861Y-86787161D01*
X172727242Y-86739542D01*
X164441528Y-86834780D02*
X164441528Y-85834780D01*
X164822480Y-85834780D01*
X164917719Y-85882400D01*
X164965338Y-85930019D01*
X165012957Y-86025257D01*
X165012957Y-86168114D01*
X164965338Y-86263352D01*
X164917719Y-86310971D01*
X164822480Y-86358590D01*
X164441528Y-86358590D01*
X165584385Y-86263352D02*
X165489147Y-86215733D01*
X165441528Y-86168114D01*
X165393909Y-86072876D01*
X165393909Y-86025257D01*
X165441528Y-85930019D01*
X165489147Y-85882400D01*
X165584385Y-85834780D01*
X165774861Y-85834780D01*
X165870100Y-85882400D01*
X165917719Y-85930019D01*
X165965338Y-86025257D01*
X165965338Y-86072876D01*
X165917719Y-86168114D01*
X165870100Y-86215733D01*
X165774861Y-86263352D01*
X165584385Y-86263352D01*
X165489147Y-86310971D01*
X165441528Y-86358590D01*
X165393909Y-86453828D01*
X165393909Y-86644304D01*
X165441528Y-86739542D01*
X165489147Y-86787161D01*
X165584385Y-86834780D01*
X165774861Y-86834780D01*
X165870100Y-86787161D01*
X165917719Y-86739542D01*
X165965338Y-86644304D01*
X165965338Y-86453828D01*
X165917719Y-86358590D01*
X165870100Y-86310971D01*
X165774861Y-86263352D01*
X166393909Y-86739542D02*
X166441528Y-86787161D01*
X166393909Y-86834780D01*
X166346290Y-86787161D01*
X166393909Y-86739542D01*
X166393909Y-86834780D01*
X167060576Y-85834780D02*
X167155814Y-85834780D01*
X167251052Y-85882400D01*
X167298671Y-85930019D01*
X167346290Y-86025257D01*
X167393909Y-86215733D01*
X167393909Y-86453828D01*
X167346290Y-86644304D01*
X167298671Y-86739542D01*
X167251052Y-86787161D01*
X167155814Y-86834780D01*
X167060576Y-86834780D01*
X166965338Y-86787161D01*
X166917719Y-86739542D01*
X166870100Y-86644304D01*
X166822480Y-86453828D01*
X166822480Y-86215733D01*
X166870100Y-86025257D01*
X166917719Y-85930019D01*
X166965338Y-85882400D01*
X167060576Y-85834780D01*
X168251052Y-86168114D02*
X168251052Y-86834780D01*
X168012957Y-85787161D02*
X167774861Y-86501447D01*
X168393909Y-86501447D01*
X151441528Y-86834780D02*
X151441528Y-85834780D01*
X151822480Y-85834780D01*
X151917719Y-85882400D01*
X151965338Y-85930019D01*
X152012957Y-86025257D01*
X152012957Y-86168114D01*
X151965338Y-86263352D01*
X151917719Y-86310971D01*
X151822480Y-86358590D01*
X151441528Y-86358590D01*
X152584385Y-86263352D02*
X152489147Y-86215733D01*
X152441528Y-86168114D01*
X152393909Y-86072876D01*
X152393909Y-86025257D01*
X152441528Y-85930019D01*
X152489147Y-85882400D01*
X152584385Y-85834780D01*
X152774861Y-85834780D01*
X152870100Y-85882400D01*
X152917719Y-85930019D01*
X152965338Y-86025257D01*
X152965338Y-86072876D01*
X152917719Y-86168114D01*
X152870100Y-86215733D01*
X152774861Y-86263352D01*
X152584385Y-86263352D01*
X152489147Y-86310971D01*
X152441528Y-86358590D01*
X152393909Y-86453828D01*
X152393909Y-86644304D01*
X152441528Y-86739542D01*
X152489147Y-86787161D01*
X152584385Y-86834780D01*
X152774861Y-86834780D01*
X152870100Y-86787161D01*
X152917719Y-86739542D01*
X152965338Y-86644304D01*
X152965338Y-86453828D01*
X152917719Y-86358590D01*
X152870100Y-86310971D01*
X152774861Y-86263352D01*
X153393909Y-86739542D02*
X153441528Y-86787161D01*
X153393909Y-86834780D01*
X153346290Y-86787161D01*
X153393909Y-86739542D01*
X153393909Y-86834780D01*
X154060576Y-85834780D02*
X154155814Y-85834780D01*
X154251052Y-85882400D01*
X154298671Y-85930019D01*
X154346290Y-86025257D01*
X154393909Y-86215733D01*
X154393909Y-86453828D01*
X154346290Y-86644304D01*
X154298671Y-86739542D01*
X154251052Y-86787161D01*
X154155814Y-86834780D01*
X154060576Y-86834780D01*
X153965338Y-86787161D01*
X153917719Y-86739542D01*
X153870100Y-86644304D01*
X153822480Y-86453828D01*
X153822480Y-86215733D01*
X153870100Y-86025257D01*
X153917719Y-85930019D01*
X153965338Y-85882400D01*
X154060576Y-85834780D01*
X155298671Y-85834780D02*
X154822480Y-85834780D01*
X154774861Y-86310971D01*
X154822480Y-86263352D01*
X154917719Y-86215733D01*
X155155814Y-86215733D01*
X155251052Y-86263352D01*
X155298671Y-86310971D01*
X155346290Y-86406209D01*
X155346290Y-86644304D01*
X155298671Y-86739542D01*
X155251052Y-86787161D01*
X155155814Y-86834780D01*
X154917719Y-86834780D01*
X154822480Y-86787161D01*
X154774861Y-86739542D01*
X146441528Y-86834780D02*
X146441528Y-85834780D01*
X146822480Y-85834780D01*
X146917719Y-85882400D01*
X146965338Y-85930019D01*
X147012957Y-86025257D01*
X147012957Y-86168114D01*
X146965338Y-86263352D01*
X146917719Y-86310971D01*
X146822480Y-86358590D01*
X146441528Y-86358590D01*
X147584385Y-86263352D02*
X147489147Y-86215733D01*
X147441528Y-86168114D01*
X147393909Y-86072876D01*
X147393909Y-86025257D01*
X147441528Y-85930019D01*
X147489147Y-85882400D01*
X147584385Y-85834780D01*
X147774861Y-85834780D01*
X147870100Y-85882400D01*
X147917719Y-85930019D01*
X147965338Y-86025257D01*
X147965338Y-86072876D01*
X147917719Y-86168114D01*
X147870100Y-86215733D01*
X147774861Y-86263352D01*
X147584385Y-86263352D01*
X147489147Y-86310971D01*
X147441528Y-86358590D01*
X147393909Y-86453828D01*
X147393909Y-86644304D01*
X147441528Y-86739542D01*
X147489147Y-86787161D01*
X147584385Y-86834780D01*
X147774861Y-86834780D01*
X147870100Y-86787161D01*
X147917719Y-86739542D01*
X147965338Y-86644304D01*
X147965338Y-86453828D01*
X147917719Y-86358590D01*
X147870100Y-86310971D01*
X147774861Y-86263352D01*
X148393909Y-86739542D02*
X148441528Y-86787161D01*
X148393909Y-86834780D01*
X148346290Y-86787161D01*
X148393909Y-86739542D01*
X148393909Y-86834780D01*
X149060576Y-85834780D02*
X149155814Y-85834780D01*
X149251052Y-85882400D01*
X149298671Y-85930019D01*
X149346290Y-86025257D01*
X149393909Y-86215733D01*
X149393909Y-86453828D01*
X149346290Y-86644304D01*
X149298671Y-86739542D01*
X149251052Y-86787161D01*
X149155814Y-86834780D01*
X149060576Y-86834780D01*
X148965338Y-86787161D01*
X148917719Y-86739542D01*
X148870100Y-86644304D01*
X148822480Y-86453828D01*
X148822480Y-86215733D01*
X148870100Y-86025257D01*
X148917719Y-85930019D01*
X148965338Y-85882400D01*
X149060576Y-85834780D01*
X150251052Y-85834780D02*
X150060576Y-85834780D01*
X149965338Y-85882400D01*
X149917719Y-85930019D01*
X149822480Y-86072876D01*
X149774861Y-86263352D01*
X149774861Y-86644304D01*
X149822480Y-86739542D01*
X149870100Y-86787161D01*
X149965338Y-86834780D01*
X150155814Y-86834780D01*
X150251052Y-86787161D01*
X150298671Y-86739542D01*
X150346290Y-86644304D01*
X150346290Y-86406209D01*
X150298671Y-86310971D01*
X150251052Y-86263352D01*
X150155814Y-86215733D01*
X149965338Y-86215733D01*
X149870100Y-86263352D01*
X149822480Y-86310971D01*
X149774861Y-86406209D01*
X141441528Y-86834780D02*
X141441528Y-85834780D01*
X141822480Y-85834780D01*
X141917719Y-85882400D01*
X141965338Y-85930019D01*
X142012957Y-86025257D01*
X142012957Y-86168114D01*
X141965338Y-86263352D01*
X141917719Y-86310971D01*
X141822480Y-86358590D01*
X141441528Y-86358590D01*
X142584385Y-86263352D02*
X142489147Y-86215733D01*
X142441528Y-86168114D01*
X142393909Y-86072876D01*
X142393909Y-86025257D01*
X142441528Y-85930019D01*
X142489147Y-85882400D01*
X142584385Y-85834780D01*
X142774861Y-85834780D01*
X142870100Y-85882400D01*
X142917719Y-85930019D01*
X142965338Y-86025257D01*
X142965338Y-86072876D01*
X142917719Y-86168114D01*
X142870100Y-86215733D01*
X142774861Y-86263352D01*
X142584385Y-86263352D01*
X142489147Y-86310971D01*
X142441528Y-86358590D01*
X142393909Y-86453828D01*
X142393909Y-86644304D01*
X142441528Y-86739542D01*
X142489147Y-86787161D01*
X142584385Y-86834780D01*
X142774861Y-86834780D01*
X142870100Y-86787161D01*
X142917719Y-86739542D01*
X142965338Y-86644304D01*
X142965338Y-86453828D01*
X142917719Y-86358590D01*
X142870100Y-86310971D01*
X142774861Y-86263352D01*
X143393909Y-86739542D02*
X143441528Y-86787161D01*
X143393909Y-86834780D01*
X143346290Y-86787161D01*
X143393909Y-86739542D01*
X143393909Y-86834780D01*
X144060576Y-85834780D02*
X144155814Y-85834780D01*
X144251052Y-85882400D01*
X144298671Y-85930019D01*
X144346290Y-86025257D01*
X144393909Y-86215733D01*
X144393909Y-86453828D01*
X144346290Y-86644304D01*
X144298671Y-86739542D01*
X144251052Y-86787161D01*
X144155814Y-86834780D01*
X144060576Y-86834780D01*
X143965338Y-86787161D01*
X143917719Y-86739542D01*
X143870100Y-86644304D01*
X143822480Y-86453828D01*
X143822480Y-86215733D01*
X143870100Y-86025257D01*
X143917719Y-85930019D01*
X143965338Y-85882400D01*
X144060576Y-85834780D01*
X144727242Y-85834780D02*
X145393909Y-85834780D01*
X144965338Y-86834780D01*
X136441528Y-86834780D02*
X136441528Y-85834780D01*
X136822480Y-85834780D01*
X136917719Y-85882400D01*
X136965338Y-85930019D01*
X137012957Y-86025257D01*
X137012957Y-86168114D01*
X136965338Y-86263352D01*
X136917719Y-86310971D01*
X136822480Y-86358590D01*
X136441528Y-86358590D01*
X137584385Y-86263352D02*
X137489147Y-86215733D01*
X137441528Y-86168114D01*
X137393909Y-86072876D01*
X137393909Y-86025257D01*
X137441528Y-85930019D01*
X137489147Y-85882400D01*
X137584385Y-85834780D01*
X137774861Y-85834780D01*
X137870100Y-85882400D01*
X137917719Y-85930019D01*
X137965338Y-86025257D01*
X137965338Y-86072876D01*
X137917719Y-86168114D01*
X137870100Y-86215733D01*
X137774861Y-86263352D01*
X137584385Y-86263352D01*
X137489147Y-86310971D01*
X137441528Y-86358590D01*
X137393909Y-86453828D01*
X137393909Y-86644304D01*
X137441528Y-86739542D01*
X137489147Y-86787161D01*
X137584385Y-86834780D01*
X137774861Y-86834780D01*
X137870100Y-86787161D01*
X137917719Y-86739542D01*
X137965338Y-86644304D01*
X137965338Y-86453828D01*
X137917719Y-86358590D01*
X137870100Y-86310971D01*
X137774861Y-86263352D01*
X138393909Y-86739542D02*
X138441528Y-86787161D01*
X138393909Y-86834780D01*
X138346290Y-86787161D01*
X138393909Y-86739542D01*
X138393909Y-86834780D01*
X139060576Y-85834780D02*
X139155814Y-85834780D01*
X139251052Y-85882400D01*
X139298671Y-85930019D01*
X139346290Y-86025257D01*
X139393909Y-86215733D01*
X139393909Y-86453828D01*
X139346290Y-86644304D01*
X139298671Y-86739542D01*
X139251052Y-86787161D01*
X139155814Y-86834780D01*
X139060576Y-86834780D01*
X138965338Y-86787161D01*
X138917719Y-86739542D01*
X138870100Y-86644304D01*
X138822480Y-86453828D01*
X138822480Y-86215733D01*
X138870100Y-86025257D01*
X138917719Y-85930019D01*
X138965338Y-85882400D01*
X139060576Y-85834780D01*
X139965338Y-86263352D02*
X139870100Y-86215733D01*
X139822480Y-86168114D01*
X139774861Y-86072876D01*
X139774861Y-86025257D01*
X139822480Y-85930019D01*
X139870100Y-85882400D01*
X139965338Y-85834780D01*
X140155814Y-85834780D01*
X140251052Y-85882400D01*
X140298671Y-85930019D01*
X140346290Y-86025257D01*
X140346290Y-86072876D01*
X140298671Y-86168114D01*
X140251052Y-86215733D01*
X140155814Y-86263352D01*
X139965338Y-86263352D01*
X139870100Y-86310971D01*
X139822480Y-86358590D01*
X139774861Y-86453828D01*
X139774861Y-86644304D01*
X139822480Y-86739542D01*
X139870100Y-86787161D01*
X139965338Y-86834780D01*
X140155814Y-86834780D01*
X140251052Y-86787161D01*
X140298671Y-86739542D01*
X140346290Y-86644304D01*
X140346290Y-86453828D01*
X140298671Y-86358590D01*
X140251052Y-86310971D01*
X140155814Y-86263352D01*
X131441528Y-86834780D02*
X131441528Y-85834780D01*
X131822480Y-85834780D01*
X131917719Y-85882400D01*
X131965338Y-85930019D01*
X132012957Y-86025257D01*
X132012957Y-86168114D01*
X131965338Y-86263352D01*
X131917719Y-86310971D01*
X131822480Y-86358590D01*
X131441528Y-86358590D01*
X132584385Y-86263352D02*
X132489147Y-86215733D01*
X132441528Y-86168114D01*
X132393909Y-86072876D01*
X132393909Y-86025257D01*
X132441528Y-85930019D01*
X132489147Y-85882400D01*
X132584385Y-85834780D01*
X132774861Y-85834780D01*
X132870100Y-85882400D01*
X132917719Y-85930019D01*
X132965338Y-86025257D01*
X132965338Y-86072876D01*
X132917719Y-86168114D01*
X132870100Y-86215733D01*
X132774861Y-86263352D01*
X132584385Y-86263352D01*
X132489147Y-86310971D01*
X132441528Y-86358590D01*
X132393909Y-86453828D01*
X132393909Y-86644304D01*
X132441528Y-86739542D01*
X132489147Y-86787161D01*
X132584385Y-86834780D01*
X132774861Y-86834780D01*
X132870100Y-86787161D01*
X132917719Y-86739542D01*
X132965338Y-86644304D01*
X132965338Y-86453828D01*
X132917719Y-86358590D01*
X132870100Y-86310971D01*
X132774861Y-86263352D01*
X133393909Y-86739542D02*
X133441528Y-86787161D01*
X133393909Y-86834780D01*
X133346290Y-86787161D01*
X133393909Y-86739542D01*
X133393909Y-86834780D01*
X134060576Y-85834780D02*
X134155814Y-85834780D01*
X134251052Y-85882400D01*
X134298671Y-85930019D01*
X134346290Y-86025257D01*
X134393909Y-86215733D01*
X134393909Y-86453828D01*
X134346290Y-86644304D01*
X134298671Y-86739542D01*
X134251052Y-86787161D01*
X134155814Y-86834780D01*
X134060576Y-86834780D01*
X133965338Y-86787161D01*
X133917719Y-86739542D01*
X133870100Y-86644304D01*
X133822480Y-86453828D01*
X133822480Y-86215733D01*
X133870100Y-86025257D01*
X133917719Y-85930019D01*
X133965338Y-85882400D01*
X134060576Y-85834780D01*
X134870100Y-86834780D02*
X135060576Y-86834780D01*
X135155814Y-86787161D01*
X135203433Y-86739542D01*
X135298671Y-86596685D01*
X135346290Y-86406209D01*
X135346290Y-86025257D01*
X135298671Y-85930019D01*
X135251052Y-85882400D01*
X135155814Y-85834780D01*
X134965338Y-85834780D01*
X134870100Y-85882400D01*
X134822480Y-85930019D01*
X134774861Y-86025257D01*
X134774861Y-86263352D01*
X134822480Y-86358590D01*
X134870100Y-86406209D01*
X134965338Y-86453828D01*
X135155814Y-86453828D01*
X135251052Y-86406209D01*
X135298671Y-86358590D01*
X135346290Y-86263352D01*
X126441528Y-86834780D02*
X126441528Y-85834780D01*
X126822480Y-85834780D01*
X126917719Y-85882400D01*
X126965338Y-85930019D01*
X127012957Y-86025257D01*
X127012957Y-86168114D01*
X126965338Y-86263352D01*
X126917719Y-86310971D01*
X126822480Y-86358590D01*
X126441528Y-86358590D01*
X127584385Y-86263352D02*
X127489147Y-86215733D01*
X127441528Y-86168114D01*
X127393909Y-86072876D01*
X127393909Y-86025257D01*
X127441528Y-85930019D01*
X127489147Y-85882400D01*
X127584385Y-85834780D01*
X127774861Y-85834780D01*
X127870100Y-85882400D01*
X127917719Y-85930019D01*
X127965338Y-86025257D01*
X127965338Y-86072876D01*
X127917719Y-86168114D01*
X127870100Y-86215733D01*
X127774861Y-86263352D01*
X127584385Y-86263352D01*
X127489147Y-86310971D01*
X127441528Y-86358590D01*
X127393909Y-86453828D01*
X127393909Y-86644304D01*
X127441528Y-86739542D01*
X127489147Y-86787161D01*
X127584385Y-86834780D01*
X127774861Y-86834780D01*
X127870100Y-86787161D01*
X127917719Y-86739542D01*
X127965338Y-86644304D01*
X127965338Y-86453828D01*
X127917719Y-86358590D01*
X127870100Y-86310971D01*
X127774861Y-86263352D01*
X128393909Y-86739542D02*
X128441528Y-86787161D01*
X128393909Y-86834780D01*
X128346290Y-86787161D01*
X128393909Y-86739542D01*
X128393909Y-86834780D01*
X129393909Y-86834780D02*
X128822480Y-86834780D01*
X129108195Y-86834780D02*
X129108195Y-85834780D01*
X129012957Y-85977638D01*
X128917719Y-86072876D01*
X128822480Y-86120495D01*
X130012957Y-85834780D02*
X130108195Y-85834780D01*
X130203433Y-85882400D01*
X130251052Y-85930019D01*
X130298671Y-86025257D01*
X130346290Y-86215733D01*
X130346290Y-86453828D01*
X130298671Y-86644304D01*
X130251052Y-86739542D01*
X130203433Y-86787161D01*
X130108195Y-86834780D01*
X130012957Y-86834780D01*
X129917719Y-86787161D01*
X129870100Y-86739542D01*
X129822480Y-86644304D01*
X129774861Y-86453828D01*
X129774861Y-86215733D01*
X129822480Y-86025257D01*
X129870100Y-85930019D01*
X129917719Y-85882400D01*
X130012957Y-85834780D01*
X121441528Y-86834780D02*
X121441528Y-85834780D01*
X121822480Y-85834780D01*
X121917719Y-85882400D01*
X121965338Y-85930019D01*
X122012957Y-86025257D01*
X122012957Y-86168114D01*
X121965338Y-86263352D01*
X121917719Y-86310971D01*
X121822480Y-86358590D01*
X121441528Y-86358590D01*
X122584385Y-86263352D02*
X122489147Y-86215733D01*
X122441528Y-86168114D01*
X122393909Y-86072876D01*
X122393909Y-86025257D01*
X122441528Y-85930019D01*
X122489147Y-85882400D01*
X122584385Y-85834780D01*
X122774861Y-85834780D01*
X122870100Y-85882400D01*
X122917719Y-85930019D01*
X122965338Y-86025257D01*
X122965338Y-86072876D01*
X122917719Y-86168114D01*
X122870100Y-86215733D01*
X122774861Y-86263352D01*
X122584385Y-86263352D01*
X122489147Y-86310971D01*
X122441528Y-86358590D01*
X122393909Y-86453828D01*
X122393909Y-86644304D01*
X122441528Y-86739542D01*
X122489147Y-86787161D01*
X122584385Y-86834780D01*
X122774861Y-86834780D01*
X122870100Y-86787161D01*
X122917719Y-86739542D01*
X122965338Y-86644304D01*
X122965338Y-86453828D01*
X122917719Y-86358590D01*
X122870100Y-86310971D01*
X122774861Y-86263352D01*
X123393909Y-86739542D02*
X123441528Y-86787161D01*
X123393909Y-86834780D01*
X123346290Y-86787161D01*
X123393909Y-86739542D01*
X123393909Y-86834780D01*
X124393909Y-86834780D02*
X123822480Y-86834780D01*
X124108195Y-86834780D02*
X124108195Y-85834780D01*
X124012957Y-85977638D01*
X123917719Y-86072876D01*
X123822480Y-86120495D01*
X125346290Y-86834780D02*
X124774861Y-86834780D01*
X125060576Y-86834780D02*
X125060576Y-85834780D01*
X124965338Y-85977638D01*
X124870100Y-86072876D01*
X124774861Y-86120495D01*
X108441528Y-86834780D02*
X108441528Y-85834780D01*
X108822480Y-85834780D01*
X108917719Y-85882400D01*
X108965338Y-85930019D01*
X109012957Y-86025257D01*
X109012957Y-86168114D01*
X108965338Y-86263352D01*
X108917719Y-86310971D01*
X108822480Y-86358590D01*
X108441528Y-86358590D01*
X109584385Y-86263352D02*
X109489147Y-86215733D01*
X109441528Y-86168114D01*
X109393909Y-86072876D01*
X109393909Y-86025257D01*
X109441528Y-85930019D01*
X109489147Y-85882400D01*
X109584385Y-85834780D01*
X109774861Y-85834780D01*
X109870100Y-85882400D01*
X109917719Y-85930019D01*
X109965338Y-86025257D01*
X109965338Y-86072876D01*
X109917719Y-86168114D01*
X109870100Y-86215733D01*
X109774861Y-86263352D01*
X109584385Y-86263352D01*
X109489147Y-86310971D01*
X109441528Y-86358590D01*
X109393909Y-86453828D01*
X109393909Y-86644304D01*
X109441528Y-86739542D01*
X109489147Y-86787161D01*
X109584385Y-86834780D01*
X109774861Y-86834780D01*
X109870100Y-86787161D01*
X109917719Y-86739542D01*
X109965338Y-86644304D01*
X109965338Y-86453828D01*
X109917719Y-86358590D01*
X109870100Y-86310971D01*
X109774861Y-86263352D01*
X110393909Y-86739542D02*
X110441528Y-86787161D01*
X110393909Y-86834780D01*
X110346290Y-86787161D01*
X110393909Y-86739542D01*
X110393909Y-86834780D01*
X111393909Y-86834780D02*
X110822480Y-86834780D01*
X111108195Y-86834780D02*
X111108195Y-85834780D01*
X111012957Y-85977638D01*
X110917719Y-86072876D01*
X110822480Y-86120495D01*
X111774861Y-85930019D02*
X111822480Y-85882400D01*
X111917719Y-85834780D01*
X112155814Y-85834780D01*
X112251052Y-85882400D01*
X112298671Y-85930019D01*
X112346290Y-86025257D01*
X112346290Y-86120495D01*
X112298671Y-86263352D01*
X111727242Y-86834780D01*
X112346290Y-86834780D01*
X103441528Y-86834780D02*
X103441528Y-85834780D01*
X103822480Y-85834780D01*
X103917719Y-85882400D01*
X103965338Y-85930019D01*
X104012957Y-86025257D01*
X104012957Y-86168114D01*
X103965338Y-86263352D01*
X103917719Y-86310971D01*
X103822480Y-86358590D01*
X103441528Y-86358590D01*
X104584385Y-86263352D02*
X104489147Y-86215733D01*
X104441528Y-86168114D01*
X104393909Y-86072876D01*
X104393909Y-86025257D01*
X104441528Y-85930019D01*
X104489147Y-85882400D01*
X104584385Y-85834780D01*
X104774861Y-85834780D01*
X104870100Y-85882400D01*
X104917719Y-85930019D01*
X104965338Y-86025257D01*
X104965338Y-86072876D01*
X104917719Y-86168114D01*
X104870100Y-86215733D01*
X104774861Y-86263352D01*
X104584385Y-86263352D01*
X104489147Y-86310971D01*
X104441528Y-86358590D01*
X104393909Y-86453828D01*
X104393909Y-86644304D01*
X104441528Y-86739542D01*
X104489147Y-86787161D01*
X104584385Y-86834780D01*
X104774861Y-86834780D01*
X104870100Y-86787161D01*
X104917719Y-86739542D01*
X104965338Y-86644304D01*
X104965338Y-86453828D01*
X104917719Y-86358590D01*
X104870100Y-86310971D01*
X104774861Y-86263352D01*
X105393909Y-86739542D02*
X105441528Y-86787161D01*
X105393909Y-86834780D01*
X105346290Y-86787161D01*
X105393909Y-86739542D01*
X105393909Y-86834780D01*
X106393909Y-86834780D02*
X105822480Y-86834780D01*
X106108195Y-86834780D02*
X106108195Y-85834780D01*
X106012957Y-85977638D01*
X105917719Y-86072876D01*
X105822480Y-86120495D01*
X106727242Y-85834780D02*
X107346290Y-85834780D01*
X107012957Y-86215733D01*
X107155814Y-86215733D01*
X107251052Y-86263352D01*
X107298671Y-86310971D01*
X107346290Y-86406209D01*
X107346290Y-86644304D01*
X107298671Y-86739542D01*
X107251052Y-86787161D01*
X107155814Y-86834780D01*
X106870100Y-86834780D01*
X106774861Y-86787161D01*
X106727242Y-86739542D01*
X98441528Y-86834780D02*
X98441528Y-85834780D01*
X98822480Y-85834780D01*
X98917719Y-85882400D01*
X98965338Y-85930019D01*
X99012957Y-86025257D01*
X99012957Y-86168114D01*
X98965338Y-86263352D01*
X98917719Y-86310971D01*
X98822480Y-86358590D01*
X98441528Y-86358590D01*
X99584385Y-86263352D02*
X99489147Y-86215733D01*
X99441528Y-86168114D01*
X99393909Y-86072876D01*
X99393909Y-86025257D01*
X99441528Y-85930019D01*
X99489147Y-85882400D01*
X99584385Y-85834780D01*
X99774861Y-85834780D01*
X99870100Y-85882400D01*
X99917719Y-85930019D01*
X99965338Y-86025257D01*
X99965338Y-86072876D01*
X99917719Y-86168114D01*
X99870100Y-86215733D01*
X99774861Y-86263352D01*
X99584385Y-86263352D01*
X99489147Y-86310971D01*
X99441528Y-86358590D01*
X99393909Y-86453828D01*
X99393909Y-86644304D01*
X99441528Y-86739542D01*
X99489147Y-86787161D01*
X99584385Y-86834780D01*
X99774861Y-86834780D01*
X99870100Y-86787161D01*
X99917719Y-86739542D01*
X99965338Y-86644304D01*
X99965338Y-86453828D01*
X99917719Y-86358590D01*
X99870100Y-86310971D01*
X99774861Y-86263352D01*
X100393909Y-86739542D02*
X100441528Y-86787161D01*
X100393909Y-86834780D01*
X100346290Y-86787161D01*
X100393909Y-86739542D01*
X100393909Y-86834780D01*
X101393909Y-86834780D02*
X100822480Y-86834780D01*
X101108195Y-86834780D02*
X101108195Y-85834780D01*
X101012957Y-85977638D01*
X100917719Y-86072876D01*
X100822480Y-86120495D01*
X102251052Y-86168114D02*
X102251052Y-86834780D01*
X102012957Y-85787161D02*
X101774861Y-86501447D01*
X102393909Y-86501447D01*
X93441528Y-86834780D02*
X93441528Y-85834780D01*
X93822480Y-85834780D01*
X93917719Y-85882400D01*
X93965338Y-85930019D01*
X94012957Y-86025257D01*
X94012957Y-86168114D01*
X93965338Y-86263352D01*
X93917719Y-86310971D01*
X93822480Y-86358590D01*
X93441528Y-86358590D01*
X94584385Y-86263352D02*
X94489147Y-86215733D01*
X94441528Y-86168114D01*
X94393909Y-86072876D01*
X94393909Y-86025257D01*
X94441528Y-85930019D01*
X94489147Y-85882400D01*
X94584385Y-85834780D01*
X94774861Y-85834780D01*
X94870100Y-85882400D01*
X94917719Y-85930019D01*
X94965338Y-86025257D01*
X94965338Y-86072876D01*
X94917719Y-86168114D01*
X94870100Y-86215733D01*
X94774861Y-86263352D01*
X94584385Y-86263352D01*
X94489147Y-86310971D01*
X94441528Y-86358590D01*
X94393909Y-86453828D01*
X94393909Y-86644304D01*
X94441528Y-86739542D01*
X94489147Y-86787161D01*
X94584385Y-86834780D01*
X94774861Y-86834780D01*
X94870100Y-86787161D01*
X94917719Y-86739542D01*
X94965338Y-86644304D01*
X94965338Y-86453828D01*
X94917719Y-86358590D01*
X94870100Y-86310971D01*
X94774861Y-86263352D01*
X95393909Y-86739542D02*
X95441528Y-86787161D01*
X95393909Y-86834780D01*
X95346290Y-86787161D01*
X95393909Y-86739542D01*
X95393909Y-86834780D01*
X96393909Y-86834780D02*
X95822480Y-86834780D01*
X96108195Y-86834780D02*
X96108195Y-85834780D01*
X96012957Y-85977638D01*
X95917719Y-86072876D01*
X95822480Y-86120495D01*
X97298671Y-85834780D02*
X96822480Y-85834780D01*
X96774861Y-86310971D01*
X96822480Y-86263352D01*
X96917719Y-86215733D01*
X97155814Y-86215733D01*
X97251052Y-86263352D01*
X97298671Y-86310971D01*
X97346290Y-86406209D01*
X97346290Y-86644304D01*
X97298671Y-86739542D01*
X97251052Y-86787161D01*
X97155814Y-86834780D01*
X96917719Y-86834780D01*
X96822480Y-86787161D01*
X96774861Y-86739542D01*
X88441528Y-86834780D02*
X88441528Y-85834780D01*
X88822480Y-85834780D01*
X88917719Y-85882400D01*
X88965338Y-85930019D01*
X89012957Y-86025257D01*
X89012957Y-86168114D01*
X88965338Y-86263352D01*
X88917719Y-86310971D01*
X88822480Y-86358590D01*
X88441528Y-86358590D01*
X89584385Y-86263352D02*
X89489147Y-86215733D01*
X89441528Y-86168114D01*
X89393909Y-86072876D01*
X89393909Y-86025257D01*
X89441528Y-85930019D01*
X89489147Y-85882400D01*
X89584385Y-85834780D01*
X89774861Y-85834780D01*
X89870100Y-85882400D01*
X89917719Y-85930019D01*
X89965338Y-86025257D01*
X89965338Y-86072876D01*
X89917719Y-86168114D01*
X89870100Y-86215733D01*
X89774861Y-86263352D01*
X89584385Y-86263352D01*
X89489147Y-86310971D01*
X89441528Y-86358590D01*
X89393909Y-86453828D01*
X89393909Y-86644304D01*
X89441528Y-86739542D01*
X89489147Y-86787161D01*
X89584385Y-86834780D01*
X89774861Y-86834780D01*
X89870100Y-86787161D01*
X89917719Y-86739542D01*
X89965338Y-86644304D01*
X89965338Y-86453828D01*
X89917719Y-86358590D01*
X89870100Y-86310971D01*
X89774861Y-86263352D01*
X90393909Y-86739542D02*
X90441528Y-86787161D01*
X90393909Y-86834780D01*
X90346290Y-86787161D01*
X90393909Y-86739542D01*
X90393909Y-86834780D01*
X91393909Y-86834780D02*
X90822480Y-86834780D01*
X91108195Y-86834780D02*
X91108195Y-85834780D01*
X91012957Y-85977638D01*
X90917719Y-86072876D01*
X90822480Y-86120495D01*
X92251052Y-85834780D02*
X92060576Y-85834780D01*
X91965338Y-85882400D01*
X91917719Y-85930019D01*
X91822480Y-86072876D01*
X91774861Y-86263352D01*
X91774861Y-86644304D01*
X91822480Y-86739542D01*
X91870100Y-86787161D01*
X91965338Y-86834780D01*
X92155814Y-86834780D01*
X92251052Y-86787161D01*
X92298671Y-86739542D01*
X92346290Y-86644304D01*
X92346290Y-86406209D01*
X92298671Y-86310971D01*
X92251052Y-86263352D01*
X92155814Y-86215733D01*
X91965338Y-86215733D01*
X91870100Y-86263352D01*
X91822480Y-86310971D01*
X91774861Y-86406209D01*
X83441528Y-86834780D02*
X83441528Y-85834780D01*
X83822480Y-85834780D01*
X83917719Y-85882400D01*
X83965338Y-85930019D01*
X84012957Y-86025257D01*
X84012957Y-86168114D01*
X83965338Y-86263352D01*
X83917719Y-86310971D01*
X83822480Y-86358590D01*
X83441528Y-86358590D01*
X84584385Y-86263352D02*
X84489147Y-86215733D01*
X84441528Y-86168114D01*
X84393909Y-86072876D01*
X84393909Y-86025257D01*
X84441528Y-85930019D01*
X84489147Y-85882400D01*
X84584385Y-85834780D01*
X84774861Y-85834780D01*
X84870100Y-85882400D01*
X84917719Y-85930019D01*
X84965338Y-86025257D01*
X84965338Y-86072876D01*
X84917719Y-86168114D01*
X84870100Y-86215733D01*
X84774861Y-86263352D01*
X84584385Y-86263352D01*
X84489147Y-86310971D01*
X84441528Y-86358590D01*
X84393909Y-86453828D01*
X84393909Y-86644304D01*
X84441528Y-86739542D01*
X84489147Y-86787161D01*
X84584385Y-86834780D01*
X84774861Y-86834780D01*
X84870100Y-86787161D01*
X84917719Y-86739542D01*
X84965338Y-86644304D01*
X84965338Y-86453828D01*
X84917719Y-86358590D01*
X84870100Y-86310971D01*
X84774861Y-86263352D01*
X85393909Y-86739542D02*
X85441528Y-86787161D01*
X85393909Y-86834780D01*
X85346290Y-86787161D01*
X85393909Y-86739542D01*
X85393909Y-86834780D01*
X86393909Y-86834780D02*
X85822480Y-86834780D01*
X86108195Y-86834780D02*
X86108195Y-85834780D01*
X86012957Y-85977638D01*
X85917719Y-86072876D01*
X85822480Y-86120495D01*
X86727242Y-85834780D02*
X87393909Y-85834780D01*
X86965338Y-86834780D01*
X78441528Y-86834780D02*
X78441528Y-85834780D01*
X78822480Y-85834780D01*
X78917719Y-85882400D01*
X78965338Y-85930019D01*
X79012957Y-86025257D01*
X79012957Y-86168114D01*
X78965338Y-86263352D01*
X78917719Y-86310971D01*
X78822480Y-86358590D01*
X78441528Y-86358590D01*
X79584385Y-86263352D02*
X79489147Y-86215733D01*
X79441528Y-86168114D01*
X79393909Y-86072876D01*
X79393909Y-86025257D01*
X79441528Y-85930019D01*
X79489147Y-85882400D01*
X79584385Y-85834780D01*
X79774861Y-85834780D01*
X79870100Y-85882400D01*
X79917719Y-85930019D01*
X79965338Y-86025257D01*
X79965338Y-86072876D01*
X79917719Y-86168114D01*
X79870100Y-86215733D01*
X79774861Y-86263352D01*
X79584385Y-86263352D01*
X79489147Y-86310971D01*
X79441528Y-86358590D01*
X79393909Y-86453828D01*
X79393909Y-86644304D01*
X79441528Y-86739542D01*
X79489147Y-86787161D01*
X79584385Y-86834780D01*
X79774861Y-86834780D01*
X79870100Y-86787161D01*
X79917719Y-86739542D01*
X79965338Y-86644304D01*
X79965338Y-86453828D01*
X79917719Y-86358590D01*
X79870100Y-86310971D01*
X79774861Y-86263352D01*
X80393909Y-86739542D02*
X80441528Y-86787161D01*
X80393909Y-86834780D01*
X80346290Y-86787161D01*
X80393909Y-86739542D01*
X80393909Y-86834780D01*
X81393909Y-86834780D02*
X80822480Y-86834780D01*
X81108195Y-86834780D02*
X81108195Y-85834780D01*
X81012957Y-85977638D01*
X80917719Y-86072876D01*
X80822480Y-86120495D01*
X81965338Y-86263352D02*
X81870100Y-86215733D01*
X81822480Y-86168114D01*
X81774861Y-86072876D01*
X81774861Y-86025257D01*
X81822480Y-85930019D01*
X81870100Y-85882400D01*
X81965338Y-85834780D01*
X82155814Y-85834780D01*
X82251052Y-85882400D01*
X82298671Y-85930019D01*
X82346290Y-86025257D01*
X82346290Y-86072876D01*
X82298671Y-86168114D01*
X82251052Y-86215733D01*
X82155814Y-86263352D01*
X81965338Y-86263352D01*
X81870100Y-86310971D01*
X81822480Y-86358590D01*
X81774861Y-86453828D01*
X81774861Y-86644304D01*
X81822480Y-86739542D01*
X81870100Y-86787161D01*
X81965338Y-86834780D01*
X82155814Y-86834780D01*
X82251052Y-86787161D01*
X82298671Y-86739542D01*
X82346290Y-86644304D01*
X82346290Y-86453828D01*
X82298671Y-86358590D01*
X82251052Y-86310971D01*
X82155814Y-86263352D01*
X65441528Y-86834780D02*
X65441528Y-85834780D01*
X65822480Y-85834780D01*
X65917719Y-85882400D01*
X65965338Y-85930019D01*
X66012957Y-86025257D01*
X66012957Y-86168114D01*
X65965338Y-86263352D01*
X65917719Y-86310971D01*
X65822480Y-86358590D01*
X65441528Y-86358590D01*
X66584385Y-86263352D02*
X66489147Y-86215733D01*
X66441528Y-86168114D01*
X66393909Y-86072876D01*
X66393909Y-86025257D01*
X66441528Y-85930019D01*
X66489147Y-85882400D01*
X66584385Y-85834780D01*
X66774861Y-85834780D01*
X66870100Y-85882400D01*
X66917719Y-85930019D01*
X66965338Y-86025257D01*
X66965338Y-86072876D01*
X66917719Y-86168114D01*
X66870100Y-86215733D01*
X66774861Y-86263352D01*
X66584385Y-86263352D01*
X66489147Y-86310971D01*
X66441528Y-86358590D01*
X66393909Y-86453828D01*
X66393909Y-86644304D01*
X66441528Y-86739542D01*
X66489147Y-86787161D01*
X66584385Y-86834780D01*
X66774861Y-86834780D01*
X66870100Y-86787161D01*
X66917719Y-86739542D01*
X66965338Y-86644304D01*
X66965338Y-86453828D01*
X66917719Y-86358590D01*
X66870100Y-86310971D01*
X66774861Y-86263352D01*
X67393909Y-86739542D02*
X67441528Y-86787161D01*
X67393909Y-86834780D01*
X67346290Y-86787161D01*
X67393909Y-86739542D01*
X67393909Y-86834780D01*
X68393909Y-86834780D02*
X67822480Y-86834780D01*
X68108195Y-86834780D02*
X68108195Y-85834780D01*
X68012957Y-85977638D01*
X67917719Y-86072876D01*
X67822480Y-86120495D01*
X68870100Y-86834780D02*
X69060576Y-86834780D01*
X69155814Y-86787161D01*
X69203433Y-86739542D01*
X69298671Y-86596685D01*
X69346290Y-86406209D01*
X69346290Y-86025257D01*
X69298671Y-85930019D01*
X69251052Y-85882400D01*
X69155814Y-85834780D01*
X68965338Y-85834780D01*
X68870100Y-85882400D01*
X68822480Y-85930019D01*
X68774861Y-86025257D01*
X68774861Y-86263352D01*
X68822480Y-86358590D01*
X68870100Y-86406209D01*
X68965338Y-86453828D01*
X69155814Y-86453828D01*
X69251052Y-86406209D01*
X69298671Y-86358590D01*
X69346290Y-86263352D01*
X60441528Y-86834780D02*
X60441528Y-85834780D01*
X60822480Y-85834780D01*
X60917719Y-85882400D01*
X60965338Y-85930019D01*
X61012957Y-86025257D01*
X61012957Y-86168114D01*
X60965338Y-86263352D01*
X60917719Y-86310971D01*
X60822480Y-86358590D01*
X60441528Y-86358590D01*
X61584385Y-86263352D02*
X61489147Y-86215733D01*
X61441528Y-86168114D01*
X61393909Y-86072876D01*
X61393909Y-86025257D01*
X61441528Y-85930019D01*
X61489147Y-85882400D01*
X61584385Y-85834780D01*
X61774861Y-85834780D01*
X61870100Y-85882400D01*
X61917719Y-85930019D01*
X61965338Y-86025257D01*
X61965338Y-86072876D01*
X61917719Y-86168114D01*
X61870100Y-86215733D01*
X61774861Y-86263352D01*
X61584385Y-86263352D01*
X61489147Y-86310971D01*
X61441528Y-86358590D01*
X61393909Y-86453828D01*
X61393909Y-86644304D01*
X61441528Y-86739542D01*
X61489147Y-86787161D01*
X61584385Y-86834780D01*
X61774861Y-86834780D01*
X61870100Y-86787161D01*
X61917719Y-86739542D01*
X61965338Y-86644304D01*
X61965338Y-86453828D01*
X61917719Y-86358590D01*
X61870100Y-86310971D01*
X61774861Y-86263352D01*
X62393909Y-86739542D02*
X62441528Y-86787161D01*
X62393909Y-86834780D01*
X62346290Y-86787161D01*
X62393909Y-86739542D01*
X62393909Y-86834780D01*
X62822480Y-85930019D02*
X62870100Y-85882400D01*
X62965338Y-85834780D01*
X63203433Y-85834780D01*
X63298671Y-85882400D01*
X63346290Y-85930019D01*
X63393909Y-86025257D01*
X63393909Y-86120495D01*
X63346290Y-86263352D01*
X62774861Y-86834780D01*
X63393909Y-86834780D01*
X64012957Y-85834780D02*
X64108195Y-85834780D01*
X64203433Y-85882400D01*
X64251052Y-85930019D01*
X64298671Y-86025257D01*
X64346290Y-86215733D01*
X64346290Y-86453828D01*
X64298671Y-86644304D01*
X64251052Y-86739542D01*
X64203433Y-86787161D01*
X64108195Y-86834780D01*
X64012957Y-86834780D01*
X63917719Y-86787161D01*
X63870100Y-86739542D01*
X63822480Y-86644304D01*
X63774861Y-86453828D01*
X63774861Y-86215733D01*
X63822480Y-86025257D01*
X63870100Y-85930019D01*
X63917719Y-85882400D01*
X64012957Y-85834780D01*
X55441528Y-86834780D02*
X55441528Y-85834780D01*
X55822480Y-85834780D01*
X55917719Y-85882400D01*
X55965338Y-85930019D01*
X56012957Y-86025257D01*
X56012957Y-86168114D01*
X55965338Y-86263352D01*
X55917719Y-86310971D01*
X55822480Y-86358590D01*
X55441528Y-86358590D01*
X56584385Y-86263352D02*
X56489147Y-86215733D01*
X56441528Y-86168114D01*
X56393909Y-86072876D01*
X56393909Y-86025257D01*
X56441528Y-85930019D01*
X56489147Y-85882400D01*
X56584385Y-85834780D01*
X56774861Y-85834780D01*
X56870100Y-85882400D01*
X56917719Y-85930019D01*
X56965338Y-86025257D01*
X56965338Y-86072876D01*
X56917719Y-86168114D01*
X56870100Y-86215733D01*
X56774861Y-86263352D01*
X56584385Y-86263352D01*
X56489147Y-86310971D01*
X56441528Y-86358590D01*
X56393909Y-86453828D01*
X56393909Y-86644304D01*
X56441528Y-86739542D01*
X56489147Y-86787161D01*
X56584385Y-86834780D01*
X56774861Y-86834780D01*
X56870100Y-86787161D01*
X56917719Y-86739542D01*
X56965338Y-86644304D01*
X56965338Y-86453828D01*
X56917719Y-86358590D01*
X56870100Y-86310971D01*
X56774861Y-86263352D01*
X57393909Y-86739542D02*
X57441528Y-86787161D01*
X57393909Y-86834780D01*
X57346290Y-86787161D01*
X57393909Y-86739542D01*
X57393909Y-86834780D01*
X57822480Y-85930019D02*
X57870100Y-85882400D01*
X57965338Y-85834780D01*
X58203433Y-85834780D01*
X58298671Y-85882400D01*
X58346290Y-85930019D01*
X58393909Y-86025257D01*
X58393909Y-86120495D01*
X58346290Y-86263352D01*
X57774861Y-86834780D01*
X58393909Y-86834780D01*
X59346290Y-86834780D02*
X58774861Y-86834780D01*
X59060576Y-86834780D02*
X59060576Y-85834780D01*
X58965338Y-85977638D01*
X58870100Y-86072876D01*
X58774861Y-86120495D01*
X50441528Y-86834780D02*
X50441528Y-85834780D01*
X50822480Y-85834780D01*
X50917719Y-85882400D01*
X50965338Y-85930019D01*
X51012957Y-86025257D01*
X51012957Y-86168114D01*
X50965338Y-86263352D01*
X50917719Y-86310971D01*
X50822480Y-86358590D01*
X50441528Y-86358590D01*
X51584385Y-86263352D02*
X51489147Y-86215733D01*
X51441528Y-86168114D01*
X51393909Y-86072876D01*
X51393909Y-86025257D01*
X51441528Y-85930019D01*
X51489147Y-85882400D01*
X51584385Y-85834780D01*
X51774861Y-85834780D01*
X51870100Y-85882400D01*
X51917719Y-85930019D01*
X51965338Y-86025257D01*
X51965338Y-86072876D01*
X51917719Y-86168114D01*
X51870100Y-86215733D01*
X51774861Y-86263352D01*
X51584385Y-86263352D01*
X51489147Y-86310971D01*
X51441528Y-86358590D01*
X51393909Y-86453828D01*
X51393909Y-86644304D01*
X51441528Y-86739542D01*
X51489147Y-86787161D01*
X51584385Y-86834780D01*
X51774861Y-86834780D01*
X51870100Y-86787161D01*
X51917719Y-86739542D01*
X51965338Y-86644304D01*
X51965338Y-86453828D01*
X51917719Y-86358590D01*
X51870100Y-86310971D01*
X51774861Y-86263352D01*
X52393909Y-86739542D02*
X52441528Y-86787161D01*
X52393909Y-86834780D01*
X52346290Y-86787161D01*
X52393909Y-86739542D01*
X52393909Y-86834780D01*
X52822480Y-85930019D02*
X52870100Y-85882400D01*
X52965338Y-85834780D01*
X53203433Y-85834780D01*
X53298671Y-85882400D01*
X53346290Y-85930019D01*
X53393909Y-86025257D01*
X53393909Y-86120495D01*
X53346290Y-86263352D01*
X52774861Y-86834780D01*
X53393909Y-86834780D01*
X53774861Y-85930019D02*
X53822480Y-85882400D01*
X53917719Y-85834780D01*
X54155814Y-85834780D01*
X54251052Y-85882400D01*
X54298671Y-85930019D01*
X54346290Y-86025257D01*
X54346290Y-86120495D01*
X54298671Y-86263352D01*
X53727242Y-86834780D01*
X54346290Y-86834780D01*
X45441528Y-86834780D02*
X45441528Y-85834780D01*
X45822480Y-85834780D01*
X45917719Y-85882400D01*
X45965338Y-85930019D01*
X46012957Y-86025257D01*
X46012957Y-86168114D01*
X45965338Y-86263352D01*
X45917719Y-86310971D01*
X45822480Y-86358590D01*
X45441528Y-86358590D01*
X46584385Y-86263352D02*
X46489147Y-86215733D01*
X46441528Y-86168114D01*
X46393909Y-86072876D01*
X46393909Y-86025257D01*
X46441528Y-85930019D01*
X46489147Y-85882400D01*
X46584385Y-85834780D01*
X46774861Y-85834780D01*
X46870100Y-85882400D01*
X46917719Y-85930019D01*
X46965338Y-86025257D01*
X46965338Y-86072876D01*
X46917719Y-86168114D01*
X46870100Y-86215733D01*
X46774861Y-86263352D01*
X46584385Y-86263352D01*
X46489147Y-86310971D01*
X46441528Y-86358590D01*
X46393909Y-86453828D01*
X46393909Y-86644304D01*
X46441528Y-86739542D01*
X46489147Y-86787161D01*
X46584385Y-86834780D01*
X46774861Y-86834780D01*
X46870100Y-86787161D01*
X46917719Y-86739542D01*
X46965338Y-86644304D01*
X46965338Y-86453828D01*
X46917719Y-86358590D01*
X46870100Y-86310971D01*
X46774861Y-86263352D01*
X47393909Y-86739542D02*
X47441528Y-86787161D01*
X47393909Y-86834780D01*
X47346290Y-86787161D01*
X47393909Y-86739542D01*
X47393909Y-86834780D01*
X47822480Y-85930019D02*
X47870100Y-85882400D01*
X47965338Y-85834780D01*
X48203433Y-85834780D01*
X48298671Y-85882400D01*
X48346290Y-85930019D01*
X48393909Y-86025257D01*
X48393909Y-86120495D01*
X48346290Y-86263352D01*
X47774861Y-86834780D01*
X48393909Y-86834780D01*
X48727242Y-85834780D02*
X49346290Y-85834780D01*
X49012957Y-86215733D01*
X49155814Y-86215733D01*
X49251052Y-86263352D01*
X49298671Y-86310971D01*
X49346290Y-86406209D01*
X49346290Y-86644304D01*
X49298671Y-86739542D01*
X49251052Y-86787161D01*
X49155814Y-86834780D01*
X48870100Y-86834780D01*
X48774861Y-86787161D01*
X48727242Y-86739542D01*
X40441528Y-86834780D02*
X40441528Y-85834780D01*
X40822480Y-85834780D01*
X40917719Y-85882400D01*
X40965338Y-85930019D01*
X41012957Y-86025257D01*
X41012957Y-86168114D01*
X40965338Y-86263352D01*
X40917719Y-86310971D01*
X40822480Y-86358590D01*
X40441528Y-86358590D01*
X41584385Y-86263352D02*
X41489147Y-86215733D01*
X41441528Y-86168114D01*
X41393909Y-86072876D01*
X41393909Y-86025257D01*
X41441528Y-85930019D01*
X41489147Y-85882400D01*
X41584385Y-85834780D01*
X41774861Y-85834780D01*
X41870100Y-85882400D01*
X41917719Y-85930019D01*
X41965338Y-86025257D01*
X41965338Y-86072876D01*
X41917719Y-86168114D01*
X41870100Y-86215733D01*
X41774861Y-86263352D01*
X41584385Y-86263352D01*
X41489147Y-86310971D01*
X41441528Y-86358590D01*
X41393909Y-86453828D01*
X41393909Y-86644304D01*
X41441528Y-86739542D01*
X41489147Y-86787161D01*
X41584385Y-86834780D01*
X41774861Y-86834780D01*
X41870100Y-86787161D01*
X41917719Y-86739542D01*
X41965338Y-86644304D01*
X41965338Y-86453828D01*
X41917719Y-86358590D01*
X41870100Y-86310971D01*
X41774861Y-86263352D01*
X42393909Y-86739542D02*
X42441528Y-86787161D01*
X42393909Y-86834780D01*
X42346290Y-86787161D01*
X42393909Y-86739542D01*
X42393909Y-86834780D01*
X42822480Y-85930019D02*
X42870100Y-85882400D01*
X42965338Y-85834780D01*
X43203433Y-85834780D01*
X43298671Y-85882400D01*
X43346290Y-85930019D01*
X43393909Y-86025257D01*
X43393909Y-86120495D01*
X43346290Y-86263352D01*
X42774861Y-86834780D01*
X43393909Y-86834780D01*
X44251052Y-86168114D02*
X44251052Y-86834780D01*
X44012957Y-85787161D02*
X43774861Y-86501447D01*
X44393909Y-86501447D01*
X35441528Y-86834780D02*
X35441528Y-85834780D01*
X35822480Y-85834780D01*
X35917719Y-85882400D01*
X35965338Y-85930019D01*
X36012957Y-86025257D01*
X36012957Y-86168114D01*
X35965338Y-86263352D01*
X35917719Y-86310971D01*
X35822480Y-86358590D01*
X35441528Y-86358590D01*
X36584385Y-86263352D02*
X36489147Y-86215733D01*
X36441528Y-86168114D01*
X36393909Y-86072876D01*
X36393909Y-86025257D01*
X36441528Y-85930019D01*
X36489147Y-85882400D01*
X36584385Y-85834780D01*
X36774861Y-85834780D01*
X36870100Y-85882400D01*
X36917719Y-85930019D01*
X36965338Y-86025257D01*
X36965338Y-86072876D01*
X36917719Y-86168114D01*
X36870100Y-86215733D01*
X36774861Y-86263352D01*
X36584385Y-86263352D01*
X36489147Y-86310971D01*
X36441528Y-86358590D01*
X36393909Y-86453828D01*
X36393909Y-86644304D01*
X36441528Y-86739542D01*
X36489147Y-86787161D01*
X36584385Y-86834780D01*
X36774861Y-86834780D01*
X36870100Y-86787161D01*
X36917719Y-86739542D01*
X36965338Y-86644304D01*
X36965338Y-86453828D01*
X36917719Y-86358590D01*
X36870100Y-86310971D01*
X36774861Y-86263352D01*
X37393909Y-86739542D02*
X37441528Y-86787161D01*
X37393909Y-86834780D01*
X37346290Y-86787161D01*
X37393909Y-86739542D01*
X37393909Y-86834780D01*
X37822480Y-85930019D02*
X37870100Y-85882400D01*
X37965338Y-85834780D01*
X38203433Y-85834780D01*
X38298671Y-85882400D01*
X38346290Y-85930019D01*
X38393909Y-86025257D01*
X38393909Y-86120495D01*
X38346290Y-86263352D01*
X37774861Y-86834780D01*
X38393909Y-86834780D01*
X39298671Y-85834780D02*
X38822480Y-85834780D01*
X38774861Y-86310971D01*
X38822480Y-86263352D01*
X38917719Y-86215733D01*
X39155814Y-86215733D01*
X39251052Y-86263352D01*
X39298671Y-86310971D01*
X39346290Y-86406209D01*
X39346290Y-86644304D01*
X39298671Y-86739542D01*
X39251052Y-86787161D01*
X39155814Y-86834780D01*
X38917719Y-86834780D01*
X38822480Y-86787161D01*
X38774861Y-86739542D01*
X152608195Y-31882400D02*
X152512957Y-31834780D01*
X152370100Y-31834780D01*
X152227242Y-31882400D01*
X152132004Y-31977638D01*
X152084385Y-32072876D01*
X152036766Y-32263352D01*
X152036766Y-32406209D01*
X152084385Y-32596685D01*
X152132004Y-32691923D01*
X152227242Y-32787161D01*
X152370100Y-32834780D01*
X152465338Y-32834780D01*
X152608195Y-32787161D01*
X152655814Y-32739542D01*
X152655814Y-32406209D01*
X152465338Y-32406209D01*
X153084385Y-32834780D02*
X153084385Y-31834780D01*
X153655814Y-32834780D01*
X153655814Y-31834780D01*
X154132004Y-32834780D02*
X154132004Y-31834780D01*
X154370100Y-31834780D01*
X154512957Y-31882400D01*
X154608195Y-31977638D01*
X154655814Y-32072876D01*
X154703433Y-32263352D01*
X154703433Y-32406209D01*
X154655814Y-32596685D01*
X154608195Y-32691923D01*
X154512957Y-32787161D01*
X154370100Y-32834780D01*
X154132004Y-32834780D01*
X109608195Y-31882400D02*
X109512957Y-31834780D01*
X109370100Y-31834780D01*
X109227242Y-31882400D01*
X109132004Y-31977638D01*
X109084385Y-32072876D01*
X109036766Y-32263352D01*
X109036766Y-32406209D01*
X109084385Y-32596685D01*
X109132004Y-32691923D01*
X109227242Y-32787161D01*
X109370100Y-32834780D01*
X109465338Y-32834780D01*
X109608195Y-32787161D01*
X109655814Y-32739542D01*
X109655814Y-32406209D01*
X109465338Y-32406209D01*
X110084385Y-32834780D02*
X110084385Y-31834780D01*
X110655814Y-32834780D01*
X110655814Y-31834780D01*
X111132004Y-32834780D02*
X111132004Y-31834780D01*
X111370100Y-31834780D01*
X111512957Y-31882400D01*
X111608195Y-31977638D01*
X111655814Y-32072876D01*
X111703433Y-32263352D01*
X111703433Y-32406209D01*
X111655814Y-32596685D01*
X111608195Y-32691923D01*
X111512957Y-32787161D01*
X111370100Y-32834780D01*
X111132004Y-32834780D01*
X66608195Y-31882400D02*
X66512957Y-31834780D01*
X66370100Y-31834780D01*
X66227242Y-31882400D01*
X66132004Y-31977638D01*
X66084385Y-32072876D01*
X66036766Y-32263352D01*
X66036766Y-32406209D01*
X66084385Y-32596685D01*
X66132004Y-32691923D01*
X66227242Y-32787161D01*
X66370100Y-32834780D01*
X66465338Y-32834780D01*
X66608195Y-32787161D01*
X66655814Y-32739542D01*
X66655814Y-32406209D01*
X66465338Y-32406209D01*
X67084385Y-32834780D02*
X67084385Y-31834780D01*
X67655814Y-32834780D01*
X67655814Y-31834780D01*
X68132004Y-32834780D02*
X68132004Y-31834780D01*
X68370100Y-31834780D01*
X68512957Y-31882400D01*
X68608195Y-31977638D01*
X68655814Y-32072876D01*
X68703433Y-32263352D01*
X68703433Y-32406209D01*
X68655814Y-32596685D01*
X68608195Y-32691923D01*
X68512957Y-32787161D01*
X68370100Y-32834780D01*
X68132004Y-32834780D01*
X31608195Y-85882400D02*
X31512957Y-85834780D01*
X31370100Y-85834780D01*
X31227242Y-85882400D01*
X31132004Y-85977638D01*
X31084385Y-86072876D01*
X31036766Y-86263352D01*
X31036766Y-86406209D01*
X31084385Y-86596685D01*
X31132004Y-86691923D01*
X31227242Y-86787161D01*
X31370100Y-86834780D01*
X31465338Y-86834780D01*
X31608195Y-86787161D01*
X31655814Y-86739542D01*
X31655814Y-86406209D01*
X31465338Y-86406209D01*
X32084385Y-86834780D02*
X32084385Y-85834780D01*
X32655814Y-86834780D01*
X32655814Y-85834780D01*
X33132004Y-86834780D02*
X33132004Y-85834780D01*
X33370100Y-85834780D01*
X33512957Y-85882400D01*
X33608195Y-85977638D01*
X33655814Y-86072876D01*
X33703433Y-86263352D01*
X33703433Y-86406209D01*
X33655814Y-86596685D01*
X33608195Y-86691923D01*
X33512957Y-86787161D01*
X33370100Y-86834780D01*
X33132004Y-86834780D01*
X74608195Y-85882400D02*
X74512957Y-85834780D01*
X74370100Y-85834780D01*
X74227242Y-85882400D01*
X74132004Y-85977638D01*
X74084385Y-86072876D01*
X74036766Y-86263352D01*
X74036766Y-86406209D01*
X74084385Y-86596685D01*
X74132004Y-86691923D01*
X74227242Y-86787161D01*
X74370100Y-86834780D01*
X74465338Y-86834780D01*
X74608195Y-86787161D01*
X74655814Y-86739542D01*
X74655814Y-86406209D01*
X74465338Y-86406209D01*
X75084385Y-86834780D02*
X75084385Y-85834780D01*
X75655814Y-86834780D01*
X75655814Y-85834780D01*
X76132004Y-86834780D02*
X76132004Y-85834780D01*
X76370100Y-85834780D01*
X76512957Y-85882400D01*
X76608195Y-85977638D01*
X76655814Y-86072876D01*
X76703433Y-86263352D01*
X76703433Y-86406209D01*
X76655814Y-86596685D01*
X76608195Y-86691923D01*
X76512957Y-86787161D01*
X76370100Y-86834780D01*
X76132004Y-86834780D01*
X117608195Y-85882400D02*
X117512957Y-85834780D01*
X117370100Y-85834780D01*
X117227242Y-85882400D01*
X117132004Y-85977638D01*
X117084385Y-86072876D01*
X117036766Y-86263352D01*
X117036766Y-86406209D01*
X117084385Y-86596685D01*
X117132004Y-86691923D01*
X117227242Y-86787161D01*
X117370100Y-86834780D01*
X117465338Y-86834780D01*
X117608195Y-86787161D01*
X117655814Y-86739542D01*
X117655814Y-86406209D01*
X117465338Y-86406209D01*
X118084385Y-86834780D02*
X118084385Y-85834780D01*
X118655814Y-86834780D01*
X118655814Y-85834780D01*
X119132004Y-86834780D02*
X119132004Y-85834780D01*
X119370100Y-85834780D01*
X119512957Y-85882400D01*
X119608195Y-85977638D01*
X119655814Y-86072876D01*
X119703433Y-86263352D01*
X119703433Y-86406209D01*
X119655814Y-86596685D01*
X119608195Y-86691923D01*
X119512957Y-86787161D01*
X119370100Y-86834780D01*
X119132004Y-86834780D01*
X160608195Y-85882400D02*
X160512957Y-85834780D01*
X160370100Y-85834780D01*
X160227242Y-85882400D01*
X160132004Y-85977638D01*
X160084385Y-86072876D01*
X160036766Y-86263352D01*
X160036766Y-86406209D01*
X160084385Y-86596685D01*
X160132004Y-86691923D01*
X160227242Y-86787161D01*
X160370100Y-86834780D01*
X160465338Y-86834780D01*
X160608195Y-86787161D01*
X160655814Y-86739542D01*
X160655814Y-86406209D01*
X160465338Y-86406209D01*
X161084385Y-86834780D02*
X161084385Y-85834780D01*
X161655814Y-86834780D01*
X161655814Y-85834780D01*
X162132004Y-86834780D02*
X162132004Y-85834780D01*
X162370100Y-85834780D01*
X162512957Y-85882400D01*
X162608195Y-85977638D01*
X162655814Y-86072876D01*
X162703433Y-86263352D01*
X162703433Y-86406209D01*
X162655814Y-86596685D01*
X162608195Y-86691923D01*
X162512957Y-86787161D01*
X162370100Y-86834780D01*
X162132004Y-86834780D01*
X182584385Y-93953828D02*
X183346290Y-93953828D01*
X182965338Y-94334780D02*
X182965338Y-93572876D01*
X184298671Y-93334780D02*
X183822480Y-93334780D01*
X183774861Y-93810971D01*
X183822480Y-93763352D01*
X183917719Y-93715733D01*
X184155814Y-93715733D01*
X184251052Y-93763352D01*
X184298671Y-93810971D01*
X184346290Y-93906209D01*
X184346290Y-94144304D01*
X184298671Y-94239542D01*
X184251052Y-94287161D01*
X184155814Y-94334780D01*
X183917719Y-94334780D01*
X183822480Y-94287161D01*
X183774861Y-94239542D01*
X184632004Y-93334780D02*
X184965338Y-94334780D01*
X185298671Y-93334780D01*
X191108195Y-93382400D02*
X191012957Y-93334780D01*
X190870100Y-93334780D01*
X190727242Y-93382400D01*
X190632004Y-93477638D01*
X190584385Y-93572876D01*
X190536766Y-93763352D01*
X190536766Y-93906209D01*
X190584385Y-94096685D01*
X190632004Y-94191923D01*
X190727242Y-94287161D01*
X190870100Y-94334780D01*
X190965338Y-94334780D01*
X191108195Y-94287161D01*
X191155814Y-94239542D01*
X191155814Y-93906209D01*
X190965338Y-93906209D01*
X191584385Y-94334780D02*
X191584385Y-93334780D01*
X192155814Y-94334780D01*
X192155814Y-93334780D01*
X192632004Y-94334780D02*
X192632004Y-93334780D01*
X192870100Y-93334780D01*
X193012957Y-93382400D01*
X193108195Y-93477638D01*
X193155814Y-93572876D01*
X193203433Y-93763352D01*
X193203433Y-93906209D01*
X193155814Y-94096685D01*
X193108195Y-94191923D01*
X193012957Y-94287161D01*
X192870100Y-94334780D01*
X192632004Y-94334780D01*
D11*
%TO.C,P8*%
X207440100Y-86712400D02*
X206110100Y-86712400D01*
X207440100Y-85382400D02*
X207440100Y-86712400D01*
X204840100Y-86712400D02*
X202240100Y-86712400D01*
X204840100Y-84112400D02*
X204840100Y-86712400D01*
X207440100Y-84112400D02*
X204840100Y-84112400D01*
X202240100Y-86712400D02*
X202240100Y-28172400D01*
X207440100Y-84112400D02*
X207440100Y-28172400D01*
X207440100Y-28172400D02*
X202240100Y-28172400D01*
%TO.C,J1*%
X158570100Y-95182400D02*
X159170100Y-95182400D01*
X158570100Y-94342400D02*
X158570100Y-95182400D01*
X170190100Y-92358400D02*
X170096100Y-92451400D01*
X172440100Y-90107400D02*
X172381100Y-90166400D01*
X170360100Y-92598400D02*
X170301100Y-92656400D01*
X172645100Y-90313400D02*
X172551100Y-90406400D01*
X165190100Y-92358400D02*
X165096100Y-92451400D01*
X167440100Y-90107400D02*
X167381100Y-90166400D01*
X165360100Y-92598400D02*
X165301100Y-92656400D01*
X167645100Y-90313400D02*
X167551100Y-90406400D01*
X173930100Y-87222400D02*
X173930100Y-94943400D01*
X158810100Y-87222400D02*
X158810100Y-94943400D01*
X158810100Y-94943400D02*
X173930100Y-94943400D01*
X158810100Y-87222400D02*
X173930100Y-87222400D01*
X158810100Y-88982400D02*
X173930100Y-88982400D01*
X158810100Y-93682400D02*
X173930100Y-93682400D01*
X158810100Y-94282400D02*
X173930100Y-94282400D01*
X171920100Y-88382400D02*
G75*
G03*
X171920100Y-88382400I-550000J0D01*
G01*
X173050100Y-91382400D02*
G75*
G03*
X173050100Y-91382400I-1680000J0D01*
G01*
X166920100Y-88382400D02*
G75*
G03*
X166920100Y-88382400I-550000J0D01*
G01*
X168050100Y-91382400D02*
G75*
G03*
X168050100Y-91382400I-1680000J0D01*
G01*
X161920100Y-88382400D02*
G75*
G03*
X161920100Y-88382400I-550000J0D01*
G01*
X162158812Y-92865752D02*
G75*
G02*
X161370100Y-93062400I-788712J1483352D01*
G01*
X162854053Y-90593312D02*
G75*
G02*
X162854100Y-92171400I-1483953J-789088D01*
G01*
X160581012Y-89898447D02*
G75*
G02*
X162159100Y-89898400I789088J-1483953D01*
G01*
X159886147Y-92171488D02*
G75*
G02*
X159886100Y-90593400I1483953J789088D01*
G01*
X161399483Y-93062850D02*
G75*
G02*
X160581100Y-92866400I-29383J1680450D01*
G01*
%TO.C,VDD1*%
X180320100Y-95182400D02*
X182320100Y-95182400D01*
X180320100Y-92942400D02*
X180320100Y-95182400D01*
X190690100Y-91358400D02*
X190596100Y-91451400D01*
X192940100Y-89107400D02*
X192881100Y-89166400D01*
X190860100Y-91598400D02*
X190801100Y-91656400D01*
X193145100Y-89313400D02*
X193051100Y-89406400D01*
X195680100Y-85822400D02*
X195680100Y-94942400D01*
X180560100Y-85822400D02*
X180560100Y-94942400D01*
X180560100Y-94942400D02*
X195680100Y-94942400D01*
X180560100Y-85822400D02*
X195680100Y-85822400D01*
X180560100Y-87882400D02*
X195680100Y-87882400D01*
X180560100Y-92882400D02*
X195680100Y-92882400D01*
X193550100Y-90382400D02*
G75*
G03*
X193550100Y-90382400I-1680000J0D01*
G01*
X185158812Y-91865752D02*
G75*
G02*
X184370100Y-92062400I-788712J1483352D01*
G01*
X185854053Y-89593312D02*
G75*
G02*
X185854100Y-91171400I-1483953J-789088D01*
G01*
X183581012Y-88898447D02*
G75*
G02*
X185159100Y-88898400I789088J-1483953D01*
G01*
X182886147Y-91171488D02*
G75*
G02*
X182886100Y-89593400I1483953J789088D01*
G01*
X184399483Y-92062850D02*
G75*
G02*
X183581100Y-91866400I-29383J1680450D01*
G01*
%TO.C,I2C1*%
X231390100Y-64402400D02*
X230120100Y-64402400D01*
X231390100Y-63132400D02*
X231390100Y-64402400D01*
X229077171Y-55132400D02*
X228680100Y-55132400D01*
X229077171Y-55892400D02*
X228680100Y-55892400D01*
X220020100Y-55132400D02*
X226020100Y-55132400D01*
X220020100Y-55892400D02*
X220020100Y-55132400D01*
X226020100Y-55892400D02*
X220020100Y-55892400D01*
X228680100Y-56782400D02*
X226020100Y-56782400D01*
X229077171Y-57672400D02*
X228680100Y-57672400D01*
X229077171Y-58432400D02*
X228680100Y-58432400D01*
X220020100Y-57672400D02*
X226020100Y-57672400D01*
X220020100Y-58432400D02*
X220020100Y-57672400D01*
X226020100Y-58432400D02*
X220020100Y-58432400D01*
X228680100Y-59322400D02*
X226020100Y-59322400D01*
X229077171Y-60212400D02*
X228680100Y-60212400D01*
X229077171Y-60972400D02*
X228680100Y-60972400D01*
X220020100Y-60212400D02*
X226020100Y-60212400D01*
X220020100Y-60972400D02*
X220020100Y-60212400D01*
X226020100Y-60972400D02*
X220020100Y-60972400D01*
X228680100Y-61862400D02*
X226020100Y-61862400D01*
X229010100Y-62752400D02*
X228680100Y-62752400D01*
X229010100Y-63512400D02*
X228680100Y-63512400D01*
X226020100Y-62852400D02*
X220020100Y-62852400D01*
X226020100Y-62972400D02*
X220020100Y-62972400D01*
X226020100Y-63092400D02*
X220020100Y-63092400D01*
X226020100Y-63212400D02*
X220020100Y-63212400D01*
X226020100Y-63332400D02*
X220020100Y-63332400D01*
X226020100Y-63452400D02*
X220020100Y-63452400D01*
X220020100Y-62752400D02*
X226020100Y-62752400D01*
X220020100Y-63512400D02*
X220020100Y-62752400D01*
X226020100Y-63512400D02*
X220020100Y-63512400D01*
X226020100Y-64462400D02*
X228680100Y-64462400D01*
X226020100Y-54182400D02*
X226020100Y-64462400D01*
X228680100Y-54182400D02*
X226020100Y-54182400D01*
X228680100Y-64462400D02*
X228680100Y-54182400D01*
%TO.C,J7*%
X156170100Y-23582400D02*
X155570100Y-23582400D01*
X156170100Y-24422400D02*
X156170100Y-23582400D01*
X119550100Y-26406400D02*
X119644100Y-26313400D01*
X117300100Y-28657400D02*
X117359100Y-28598400D01*
X119380100Y-26166400D02*
X119439100Y-26108400D01*
X117095100Y-28451400D02*
X117189100Y-28358400D01*
X124550100Y-26406400D02*
X124644100Y-26313400D01*
X122300100Y-28657400D02*
X122359100Y-28598400D01*
X124380100Y-26166400D02*
X124439100Y-26108400D01*
X122095100Y-28451400D02*
X122189100Y-28358400D01*
X129550100Y-26406400D02*
X129644100Y-26313400D01*
X127300100Y-28657400D02*
X127359100Y-28598400D01*
X129380100Y-26166400D02*
X129439100Y-26108400D01*
X127095100Y-28451400D02*
X127189100Y-28358400D01*
X134550100Y-26406400D02*
X134644100Y-26313400D01*
X132300100Y-28657400D02*
X132359100Y-28598400D01*
X134380100Y-26166400D02*
X134439100Y-26108400D01*
X132095100Y-28451400D02*
X132189100Y-28358400D01*
X139550100Y-26406400D02*
X139644100Y-26313400D01*
X137300100Y-28657400D02*
X137359100Y-28598400D01*
X139380100Y-26166400D02*
X139439100Y-26108400D01*
X137095100Y-28451400D02*
X137189100Y-28358400D01*
X144550100Y-26406400D02*
X144644100Y-26313400D01*
X142300100Y-28657400D02*
X142359100Y-28598400D01*
X144380100Y-26166400D02*
X144439100Y-26108400D01*
X142095100Y-28451400D02*
X142189100Y-28358400D01*
X149550100Y-26406400D02*
X149644100Y-26313400D01*
X147300100Y-28657400D02*
X147359100Y-28598400D01*
X149380100Y-26166400D02*
X149439100Y-26108400D01*
X147095100Y-28451400D02*
X147189100Y-28358400D01*
X115810100Y-31542400D02*
X115810100Y-23821400D01*
X155930100Y-31542400D02*
X155930100Y-23821400D01*
X155930100Y-23821400D02*
X115810100Y-23821400D01*
X155930100Y-31542400D02*
X115810100Y-31542400D01*
X155930100Y-29782400D02*
X115810100Y-29782400D01*
X155930100Y-25082400D02*
X115810100Y-25082400D01*
X155930100Y-24482400D02*
X115810100Y-24482400D01*
X118920100Y-30382400D02*
G75*
G03*
X118920100Y-30382400I-550000J0D01*
G01*
X120050100Y-27382400D02*
G75*
G03*
X120050100Y-27382400I-1680000J0D01*
G01*
X123920100Y-30382400D02*
G75*
G03*
X123920100Y-30382400I-550000J0D01*
G01*
X125050100Y-27382400D02*
G75*
G03*
X125050100Y-27382400I-1680000J0D01*
G01*
X128920100Y-30382400D02*
G75*
G03*
X128920100Y-30382400I-550000J0D01*
G01*
X130050100Y-27382400D02*
G75*
G03*
X130050100Y-27382400I-1680000J0D01*
G01*
X133920100Y-30382400D02*
G75*
G03*
X133920100Y-30382400I-550000J0D01*
G01*
X135050100Y-27382400D02*
G75*
G03*
X135050100Y-27382400I-1680000J0D01*
G01*
X138920100Y-30382400D02*
G75*
G03*
X138920100Y-30382400I-550000J0D01*
G01*
X140050100Y-27382400D02*
G75*
G03*
X140050100Y-27382400I-1680000J0D01*
G01*
X143920100Y-30382400D02*
G75*
G03*
X143920100Y-30382400I-550000J0D01*
G01*
X145050100Y-27382400D02*
G75*
G03*
X145050100Y-27382400I-1680000J0D01*
G01*
X148920100Y-30382400D02*
G75*
G03*
X148920100Y-30382400I-550000J0D01*
G01*
X150050100Y-27382400D02*
G75*
G03*
X150050100Y-27382400I-1680000J0D01*
G01*
X153920100Y-30382400D02*
G75*
G03*
X153920100Y-30382400I-550000J0D01*
G01*
X152581388Y-25899048D02*
G75*
G02*
X153370100Y-25702400I788712J-1483352D01*
G01*
X151886147Y-28171488D02*
G75*
G02*
X151886100Y-26593400I1483953J789088D01*
G01*
X154159188Y-28866353D02*
G75*
G02*
X152581100Y-28866400I-789088J1483953D01*
G01*
X154854053Y-26593312D02*
G75*
G02*
X154854100Y-28171400I-1483953J-789088D01*
G01*
X153340717Y-25701950D02*
G75*
G02*
X154159100Y-25898400I29383J-1680450D01*
G01*
%TO.C,J6*%
X110920100Y-30382400D02*
G75*
G03*
X110920100Y-30382400I-550000J0D01*
G01*
X107050100Y-27382400D02*
G75*
G03*
X107050100Y-27382400I-1680000J0D01*
G01*
X105920100Y-30382400D02*
G75*
G03*
X105920100Y-30382400I-550000J0D01*
G01*
X102050100Y-27382400D02*
G75*
G03*
X102050100Y-27382400I-1680000J0D01*
G01*
X100920100Y-30382400D02*
G75*
G03*
X100920100Y-30382400I-550000J0D01*
G01*
X97050100Y-27382400D02*
G75*
G03*
X97050100Y-27382400I-1680000J0D01*
G01*
X95920100Y-30382400D02*
G75*
G03*
X95920100Y-30382400I-550000J0D01*
G01*
X92050100Y-27382400D02*
G75*
G03*
X92050100Y-27382400I-1680000J0D01*
G01*
X90920100Y-30382400D02*
G75*
G03*
X90920100Y-30382400I-550000J0D01*
G01*
X87050100Y-27382400D02*
G75*
G03*
X87050100Y-27382400I-1680000J0D01*
G01*
X85920100Y-30382400D02*
G75*
G03*
X85920100Y-30382400I-550000J0D01*
G01*
X82050100Y-27382400D02*
G75*
G03*
X82050100Y-27382400I-1680000J0D01*
G01*
X80920100Y-30382400D02*
G75*
G03*
X80920100Y-30382400I-550000J0D01*
G01*
X77050100Y-27382400D02*
G75*
G03*
X77050100Y-27382400I-1680000J0D01*
G01*
X75920100Y-30382400D02*
G75*
G03*
X75920100Y-30382400I-550000J0D01*
G01*
X112930100Y-24482400D02*
X72810100Y-24482400D01*
X112930100Y-25082400D02*
X72810100Y-25082400D01*
X112930100Y-29782400D02*
X72810100Y-29782400D01*
X112930100Y-31542400D02*
X72810100Y-31542400D01*
X112930100Y-23821400D02*
X72810100Y-23821400D01*
X112930100Y-31542400D02*
X112930100Y-23821400D01*
X72810100Y-31542400D02*
X72810100Y-23821400D01*
X104095100Y-28451400D02*
X104189100Y-28358400D01*
X106380100Y-26166400D02*
X106439100Y-26108400D01*
X104300100Y-28657400D02*
X104359100Y-28598400D01*
X106550100Y-26406400D02*
X106644100Y-26313400D01*
X99095100Y-28451400D02*
X99189100Y-28358400D01*
X101380100Y-26166400D02*
X101439100Y-26108400D01*
X99300100Y-28657400D02*
X99359100Y-28598400D01*
X101550100Y-26406400D02*
X101644100Y-26313400D01*
X94095100Y-28451400D02*
X94189100Y-28358400D01*
X96380100Y-26166400D02*
X96439100Y-26108400D01*
X94300100Y-28657400D02*
X94359100Y-28598400D01*
X96550100Y-26406400D02*
X96644100Y-26313400D01*
X89095100Y-28451400D02*
X89189100Y-28358400D01*
X91380100Y-26166400D02*
X91439100Y-26108400D01*
X89300100Y-28657400D02*
X89359100Y-28598400D01*
X91550100Y-26406400D02*
X91644100Y-26313400D01*
X84095100Y-28451400D02*
X84189100Y-28358400D01*
X86380100Y-26166400D02*
X86439100Y-26108400D01*
X84300100Y-28657400D02*
X84359100Y-28598400D01*
X86550100Y-26406400D02*
X86644100Y-26313400D01*
X79095100Y-28451400D02*
X79189100Y-28358400D01*
X81380100Y-26166400D02*
X81439100Y-26108400D01*
X79300100Y-28657400D02*
X79359100Y-28598400D01*
X81550100Y-26406400D02*
X81644100Y-26313400D01*
X74095100Y-28451400D02*
X74189100Y-28358400D01*
X76380100Y-26166400D02*
X76439100Y-26108400D01*
X74300100Y-28657400D02*
X74359100Y-28598400D01*
X76550100Y-26406400D02*
X76644100Y-26313400D01*
X113170100Y-24422400D02*
X113170100Y-23582400D01*
X113170100Y-23582400D02*
X112570100Y-23582400D01*
X110340717Y-25701950D02*
G75*
G02*
X111159100Y-25898400I29383J-1680450D01*
G01*
X111854053Y-26593312D02*
G75*
G02*
X111854100Y-28171400I-1483953J-789088D01*
G01*
X111159188Y-28866353D02*
G75*
G02*
X109581100Y-28866400I-789088J1483953D01*
G01*
X108886147Y-28171488D02*
G75*
G02*
X108886100Y-26593400I1483953J789088D01*
G01*
X109581388Y-25899048D02*
G75*
G02*
X110370100Y-25702400I788712J-1483352D01*
G01*
%TO.C,J5*%
X70170100Y-23582400D02*
X69570100Y-23582400D01*
X70170100Y-24422400D02*
X70170100Y-23582400D01*
X33550100Y-26406400D02*
X33644100Y-26313400D01*
X31300100Y-28657400D02*
X31359100Y-28598400D01*
X33380100Y-26166400D02*
X33439100Y-26108400D01*
X31095100Y-28451400D02*
X31189100Y-28358400D01*
X38550100Y-26406400D02*
X38644100Y-26313400D01*
X36300100Y-28657400D02*
X36359100Y-28598400D01*
X38380100Y-26166400D02*
X38439100Y-26108400D01*
X36095100Y-28451400D02*
X36189100Y-28358400D01*
X43550100Y-26406400D02*
X43644100Y-26313400D01*
X41300100Y-28657400D02*
X41359100Y-28598400D01*
X43380100Y-26166400D02*
X43439100Y-26108400D01*
X41095100Y-28451400D02*
X41189100Y-28358400D01*
X48550100Y-26406400D02*
X48644100Y-26313400D01*
X46300100Y-28657400D02*
X46359100Y-28598400D01*
X48380100Y-26166400D02*
X48439100Y-26108400D01*
X46095100Y-28451400D02*
X46189100Y-28358400D01*
X53550100Y-26406400D02*
X53644100Y-26313400D01*
X51300100Y-28657400D02*
X51359100Y-28598400D01*
X53380100Y-26166400D02*
X53439100Y-26108400D01*
X51095100Y-28451400D02*
X51189100Y-28358400D01*
X58550100Y-26406400D02*
X58644100Y-26313400D01*
X56300100Y-28657400D02*
X56359100Y-28598400D01*
X58380100Y-26166400D02*
X58439100Y-26108400D01*
X56095100Y-28451400D02*
X56189100Y-28358400D01*
X63550100Y-26406400D02*
X63644100Y-26313400D01*
X61300100Y-28657400D02*
X61359100Y-28598400D01*
X63380100Y-26166400D02*
X63439100Y-26108400D01*
X61095100Y-28451400D02*
X61189100Y-28358400D01*
X29810100Y-31542400D02*
X29810100Y-23821400D01*
X69930100Y-31542400D02*
X69930100Y-23821400D01*
X69930100Y-23821400D02*
X29810100Y-23821400D01*
X69930100Y-31542400D02*
X29810100Y-31542400D01*
X69930100Y-29782400D02*
X29810100Y-29782400D01*
X69930100Y-25082400D02*
X29810100Y-25082400D01*
X69930100Y-24482400D02*
X29810100Y-24482400D01*
X32920100Y-30382400D02*
G75*
G03*
X32920100Y-30382400I-550000J0D01*
G01*
X34050100Y-27382400D02*
G75*
G03*
X34050100Y-27382400I-1680000J0D01*
G01*
X37920100Y-30382400D02*
G75*
G03*
X37920100Y-30382400I-550000J0D01*
G01*
X39050100Y-27382400D02*
G75*
G03*
X39050100Y-27382400I-1680000J0D01*
G01*
X42920100Y-30382400D02*
G75*
G03*
X42920100Y-30382400I-550000J0D01*
G01*
X44050100Y-27382400D02*
G75*
G03*
X44050100Y-27382400I-1680000J0D01*
G01*
X47920100Y-30382400D02*
G75*
G03*
X47920100Y-30382400I-550000J0D01*
G01*
X49050100Y-27382400D02*
G75*
G03*
X49050100Y-27382400I-1680000J0D01*
G01*
X52920100Y-30382400D02*
G75*
G03*
X52920100Y-30382400I-550000J0D01*
G01*
X54050100Y-27382400D02*
G75*
G03*
X54050100Y-27382400I-1680000J0D01*
G01*
X57920100Y-30382400D02*
G75*
G03*
X57920100Y-30382400I-550000J0D01*
G01*
X59050100Y-27382400D02*
G75*
G03*
X59050100Y-27382400I-1680000J0D01*
G01*
X62920100Y-30382400D02*
G75*
G03*
X62920100Y-30382400I-550000J0D01*
G01*
X64050100Y-27382400D02*
G75*
G03*
X64050100Y-27382400I-1680000J0D01*
G01*
X67920100Y-30382400D02*
G75*
G03*
X67920100Y-30382400I-550000J0D01*
G01*
X66581388Y-25899048D02*
G75*
G02*
X67370100Y-25702400I788712J-1483352D01*
G01*
X65886147Y-28171488D02*
G75*
G02*
X65886100Y-26593400I1483953J789088D01*
G01*
X68159188Y-28866353D02*
G75*
G02*
X66581100Y-28866400I-789088J1483953D01*
G01*
X68854053Y-26593312D02*
G75*
G02*
X68854100Y-28171400I-1483953J-789088D01*
G01*
X67340717Y-25701950D02*
G75*
G02*
X68159100Y-25898400I29383J-1680450D01*
G01*
%TO.C,J2*%
X118920100Y-88382400D02*
G75*
G03*
X118920100Y-88382400I-550000J0D01*
G01*
X125050100Y-91382400D02*
G75*
G03*
X125050100Y-91382400I-1680000J0D01*
G01*
X123920100Y-88382400D02*
G75*
G03*
X123920100Y-88382400I-550000J0D01*
G01*
X130050100Y-91382400D02*
G75*
G03*
X130050100Y-91382400I-1680000J0D01*
G01*
X128920100Y-88382400D02*
G75*
G03*
X128920100Y-88382400I-550000J0D01*
G01*
X135050100Y-91382400D02*
G75*
G03*
X135050100Y-91382400I-1680000J0D01*
G01*
X133920100Y-88382400D02*
G75*
G03*
X133920100Y-88382400I-550000J0D01*
G01*
X140050100Y-91382400D02*
G75*
G03*
X140050100Y-91382400I-1680000J0D01*
G01*
X138920100Y-88382400D02*
G75*
G03*
X138920100Y-88382400I-550000J0D01*
G01*
X145050100Y-91382400D02*
G75*
G03*
X145050100Y-91382400I-1680000J0D01*
G01*
X143920100Y-88382400D02*
G75*
G03*
X143920100Y-88382400I-550000J0D01*
G01*
X150050100Y-91382400D02*
G75*
G03*
X150050100Y-91382400I-1680000J0D01*
G01*
X148920100Y-88382400D02*
G75*
G03*
X148920100Y-88382400I-550000J0D01*
G01*
X155050100Y-91382400D02*
G75*
G03*
X155050100Y-91382400I-1680000J0D01*
G01*
X153920100Y-88382400D02*
G75*
G03*
X153920100Y-88382400I-550000J0D01*
G01*
X115810100Y-94282400D02*
X155930100Y-94282400D01*
X115810100Y-93682400D02*
X155930100Y-93682400D01*
X115810100Y-88982400D02*
X155930100Y-88982400D01*
X115810100Y-87222400D02*
X155930100Y-87222400D01*
X115810100Y-94943400D02*
X155930100Y-94943400D01*
X115810100Y-87222400D02*
X115810100Y-94943400D01*
X155930100Y-87222400D02*
X155930100Y-94943400D01*
X124645100Y-90313400D02*
X124551100Y-90406400D01*
X122360100Y-92598400D02*
X122301100Y-92656400D01*
X124440100Y-90107400D02*
X124381100Y-90166400D01*
X122190100Y-92358400D02*
X122096100Y-92451400D01*
X129645100Y-90313400D02*
X129551100Y-90406400D01*
X127360100Y-92598400D02*
X127301100Y-92656400D01*
X129440100Y-90107400D02*
X129381100Y-90166400D01*
X127190100Y-92358400D02*
X127096100Y-92451400D01*
X134645100Y-90313400D02*
X134551100Y-90406400D01*
X132360100Y-92598400D02*
X132301100Y-92656400D01*
X134440100Y-90107400D02*
X134381100Y-90166400D01*
X132190100Y-92358400D02*
X132096100Y-92451400D01*
X139645100Y-90313400D02*
X139551100Y-90406400D01*
X137360100Y-92598400D02*
X137301100Y-92656400D01*
X139440100Y-90107400D02*
X139381100Y-90166400D01*
X137190100Y-92358400D02*
X137096100Y-92451400D01*
X144645100Y-90313400D02*
X144551100Y-90406400D01*
X142360100Y-92598400D02*
X142301100Y-92656400D01*
X144440100Y-90107400D02*
X144381100Y-90166400D01*
X142190100Y-92358400D02*
X142096100Y-92451400D01*
X149645100Y-90313400D02*
X149551100Y-90406400D01*
X147360100Y-92598400D02*
X147301100Y-92656400D01*
X149440100Y-90107400D02*
X149381100Y-90166400D01*
X147190100Y-92358400D02*
X147096100Y-92451400D01*
X154645100Y-90313400D02*
X154551100Y-90406400D01*
X152360100Y-92598400D02*
X152301100Y-92656400D01*
X154440100Y-90107400D02*
X154381100Y-90166400D01*
X152190100Y-92358400D02*
X152096100Y-92451400D01*
X115570100Y-94342400D02*
X115570100Y-95182400D01*
X115570100Y-95182400D02*
X116170100Y-95182400D01*
X118399483Y-93062850D02*
G75*
G02*
X117581100Y-92866400I-29383J1680450D01*
G01*
X116886147Y-92171488D02*
G75*
G02*
X116886100Y-90593400I1483953J789088D01*
G01*
X117581012Y-89898447D02*
G75*
G02*
X119159100Y-89898400I789088J-1483953D01*
G01*
X119854053Y-90593312D02*
G75*
G02*
X119854100Y-92171400I-1483953J-789088D01*
G01*
X119158812Y-92865752D02*
G75*
G02*
X118370100Y-93062400I-788712J1483352D01*
G01*
%TO.C,J3*%
X72570100Y-95182400D02*
X73170100Y-95182400D01*
X72570100Y-94342400D02*
X72570100Y-95182400D01*
X109190100Y-92358400D02*
X109096100Y-92451400D01*
X111440100Y-90107400D02*
X111381100Y-90166400D01*
X109360100Y-92598400D02*
X109301100Y-92656400D01*
X111645100Y-90313400D02*
X111551100Y-90406400D01*
X104190100Y-92358400D02*
X104096100Y-92451400D01*
X106440100Y-90107400D02*
X106381100Y-90166400D01*
X104360100Y-92598400D02*
X104301100Y-92656400D01*
X106645100Y-90313400D02*
X106551100Y-90406400D01*
X99190100Y-92358400D02*
X99096100Y-92451400D01*
X101440100Y-90107400D02*
X101381100Y-90166400D01*
X99360100Y-92598400D02*
X99301100Y-92656400D01*
X101645100Y-90313400D02*
X101551100Y-90406400D01*
X94190100Y-92358400D02*
X94096100Y-92451400D01*
X96440100Y-90107400D02*
X96381100Y-90166400D01*
X94360100Y-92598400D02*
X94301100Y-92656400D01*
X96645100Y-90313400D02*
X96551100Y-90406400D01*
X89190100Y-92358400D02*
X89096100Y-92451400D01*
X91440100Y-90107400D02*
X91381100Y-90166400D01*
X89360100Y-92598400D02*
X89301100Y-92656400D01*
X91645100Y-90313400D02*
X91551100Y-90406400D01*
X84190100Y-92358400D02*
X84096100Y-92451400D01*
X86440100Y-90107400D02*
X86381100Y-90166400D01*
X84360100Y-92598400D02*
X84301100Y-92656400D01*
X86645100Y-90313400D02*
X86551100Y-90406400D01*
X79190100Y-92358400D02*
X79096100Y-92451400D01*
X81440100Y-90107400D02*
X81381100Y-90166400D01*
X79360100Y-92598400D02*
X79301100Y-92656400D01*
X81645100Y-90313400D02*
X81551100Y-90406400D01*
X112930100Y-87222400D02*
X112930100Y-94943400D01*
X72810100Y-87222400D02*
X72810100Y-94943400D01*
X72810100Y-94943400D02*
X112930100Y-94943400D01*
X72810100Y-87222400D02*
X112930100Y-87222400D01*
X72810100Y-88982400D02*
X112930100Y-88982400D01*
X72810100Y-93682400D02*
X112930100Y-93682400D01*
X72810100Y-94282400D02*
X112930100Y-94282400D01*
X110920100Y-88382400D02*
G75*
G03*
X110920100Y-88382400I-550000J0D01*
G01*
X112050100Y-91382400D02*
G75*
G03*
X112050100Y-91382400I-1680000J0D01*
G01*
X105920100Y-88382400D02*
G75*
G03*
X105920100Y-88382400I-550000J0D01*
G01*
X107050100Y-91382400D02*
G75*
G03*
X107050100Y-91382400I-1680000J0D01*
G01*
X100920100Y-88382400D02*
G75*
G03*
X100920100Y-88382400I-550000J0D01*
G01*
X102050100Y-91382400D02*
G75*
G03*
X102050100Y-91382400I-1680000J0D01*
G01*
X95920100Y-88382400D02*
G75*
G03*
X95920100Y-88382400I-550000J0D01*
G01*
X97050100Y-91382400D02*
G75*
G03*
X97050100Y-91382400I-1680000J0D01*
G01*
X90920100Y-88382400D02*
G75*
G03*
X90920100Y-88382400I-550000J0D01*
G01*
X92050100Y-91382400D02*
G75*
G03*
X92050100Y-91382400I-1680000J0D01*
G01*
X85920100Y-88382400D02*
G75*
G03*
X85920100Y-88382400I-550000J0D01*
G01*
X87050100Y-91382400D02*
G75*
G03*
X87050100Y-91382400I-1680000J0D01*
G01*
X80920100Y-88382400D02*
G75*
G03*
X80920100Y-88382400I-550000J0D01*
G01*
X82050100Y-91382400D02*
G75*
G03*
X82050100Y-91382400I-1680000J0D01*
G01*
X75920100Y-88382400D02*
G75*
G03*
X75920100Y-88382400I-550000J0D01*
G01*
X76158812Y-92865752D02*
G75*
G02*
X75370100Y-93062400I-788712J1483352D01*
G01*
X76854053Y-90593312D02*
G75*
G02*
X76854100Y-92171400I-1483953J-789088D01*
G01*
X74581012Y-89898447D02*
G75*
G02*
X76159100Y-89898400I789088J-1483953D01*
G01*
X73886147Y-92171488D02*
G75*
G02*
X73886100Y-90593400I1483953J789088D01*
G01*
X75399483Y-93062850D02*
G75*
G02*
X74581100Y-92866400I-29383J1680450D01*
G01*
%TO.C,J4*%
X32920100Y-88382400D02*
G75*
G03*
X32920100Y-88382400I-550000J0D01*
G01*
X39050100Y-91382400D02*
G75*
G03*
X39050100Y-91382400I-1680000J0D01*
G01*
X37920100Y-88382400D02*
G75*
G03*
X37920100Y-88382400I-550000J0D01*
G01*
X44050100Y-91382400D02*
G75*
G03*
X44050100Y-91382400I-1680000J0D01*
G01*
X42920100Y-88382400D02*
G75*
G03*
X42920100Y-88382400I-550000J0D01*
G01*
X49050100Y-91382400D02*
G75*
G03*
X49050100Y-91382400I-1680000J0D01*
G01*
X47920100Y-88382400D02*
G75*
G03*
X47920100Y-88382400I-550000J0D01*
G01*
X54050100Y-91382400D02*
G75*
G03*
X54050100Y-91382400I-1680000J0D01*
G01*
X52920100Y-88382400D02*
G75*
G03*
X52920100Y-88382400I-550000J0D01*
G01*
X59050100Y-91382400D02*
G75*
G03*
X59050100Y-91382400I-1680000J0D01*
G01*
X57920100Y-88382400D02*
G75*
G03*
X57920100Y-88382400I-550000J0D01*
G01*
X64050100Y-91382400D02*
G75*
G03*
X64050100Y-91382400I-1680000J0D01*
G01*
X62920100Y-88382400D02*
G75*
G03*
X62920100Y-88382400I-550000J0D01*
G01*
X69050100Y-91382400D02*
G75*
G03*
X69050100Y-91382400I-1680000J0D01*
G01*
X67920100Y-88382400D02*
G75*
G03*
X67920100Y-88382400I-550000J0D01*
G01*
X29810100Y-94282400D02*
X69930100Y-94282400D01*
X29810100Y-93682400D02*
X69930100Y-93682400D01*
X29810100Y-88982400D02*
X69930100Y-88982400D01*
X29810100Y-87222400D02*
X69930100Y-87222400D01*
X29810100Y-94943400D02*
X69930100Y-94943400D01*
X29810100Y-87222400D02*
X29810100Y-94943400D01*
X69930100Y-87222400D02*
X69930100Y-94943400D01*
X38645100Y-90313400D02*
X38551100Y-90406400D01*
X36360100Y-92598400D02*
X36301100Y-92656400D01*
X38440100Y-90107400D02*
X38381100Y-90166400D01*
X36190100Y-92358400D02*
X36096100Y-92451400D01*
X43645100Y-90313400D02*
X43551100Y-90406400D01*
X41360100Y-92598400D02*
X41301100Y-92656400D01*
X43440100Y-90107400D02*
X43381100Y-90166400D01*
X41190100Y-92358400D02*
X41096100Y-92451400D01*
X48645100Y-90313400D02*
X48551100Y-90406400D01*
X46360100Y-92598400D02*
X46301100Y-92656400D01*
X48440100Y-90107400D02*
X48381100Y-90166400D01*
X46190100Y-92358400D02*
X46096100Y-92451400D01*
X53645100Y-90313400D02*
X53551100Y-90406400D01*
X51360100Y-92598400D02*
X51301100Y-92656400D01*
X53440100Y-90107400D02*
X53381100Y-90166400D01*
X51190100Y-92358400D02*
X51096100Y-92451400D01*
X58645100Y-90313400D02*
X58551100Y-90406400D01*
X56360100Y-92598400D02*
X56301100Y-92656400D01*
X58440100Y-90107400D02*
X58381100Y-90166400D01*
X56190100Y-92358400D02*
X56096100Y-92451400D01*
X63645100Y-90313400D02*
X63551100Y-90406400D01*
X61360100Y-92598400D02*
X61301100Y-92656400D01*
X63440100Y-90107400D02*
X63381100Y-90166400D01*
X61190100Y-92358400D02*
X61096100Y-92451400D01*
X68645100Y-90313400D02*
X68551100Y-90406400D01*
X66360100Y-92598400D02*
X66301100Y-92656400D01*
X68440100Y-90107400D02*
X68381100Y-90166400D01*
X66190100Y-92358400D02*
X66096100Y-92451400D01*
X29570100Y-94342400D02*
X29570100Y-95182400D01*
X29570100Y-95182400D02*
X30170100Y-95182400D01*
X32399483Y-93062850D02*
G75*
G02*
X31581100Y-92866400I-29383J1680450D01*
G01*
X30886147Y-92171488D02*
G75*
G02*
X30886100Y-90593400I1483953J789088D01*
G01*
X31581012Y-89898447D02*
G75*
G02*
X33159100Y-89898400I789088J-1483953D01*
G01*
X33854053Y-90593312D02*
G75*
G02*
X33854100Y-92171400I-1483953J-789088D01*
G01*
X33158812Y-92865752D02*
G75*
G02*
X32370100Y-93062400I-788712J1483352D01*
G01*
%TO.C,AN1*%
X248170100Y-22582400D02*
X247570100Y-22582400D01*
X248170100Y-23422400D02*
X248170100Y-22582400D01*
X216550100Y-25406400D02*
X216644100Y-25313400D01*
X214300100Y-27657400D02*
X214359100Y-27598400D01*
X216380100Y-25166400D02*
X216439100Y-25108400D01*
X214095100Y-27451400D02*
X214189100Y-27358400D01*
X221550100Y-25406400D02*
X221644100Y-25313400D01*
X219300100Y-27657400D02*
X219359100Y-27598400D01*
X221380100Y-25166400D02*
X221439100Y-25108400D01*
X219095100Y-27451400D02*
X219189100Y-27358400D01*
X226550100Y-25406400D02*
X226644100Y-25313400D01*
X224300100Y-27657400D02*
X224359100Y-27598400D01*
X226380100Y-25166400D02*
X226439100Y-25108400D01*
X224095100Y-27451400D02*
X224189100Y-27358400D01*
X231550100Y-25406400D02*
X231644100Y-25313400D01*
X229300100Y-27657400D02*
X229359100Y-27598400D01*
X231380100Y-25166400D02*
X231439100Y-25108400D01*
X229095100Y-27451400D02*
X229189100Y-27358400D01*
X236550100Y-25406400D02*
X236644100Y-25313400D01*
X234300100Y-27657400D02*
X234359100Y-27598400D01*
X236380100Y-25166400D02*
X236439100Y-25108400D01*
X234095100Y-27451400D02*
X234189100Y-27358400D01*
X241550100Y-25406400D02*
X241644100Y-25313400D01*
X239300100Y-27657400D02*
X239359100Y-27598400D01*
X241380100Y-25166400D02*
X241439100Y-25108400D01*
X239095100Y-27451400D02*
X239189100Y-27358400D01*
X212810100Y-30542400D02*
X212810100Y-22821400D01*
X247930100Y-30542400D02*
X247930100Y-22821400D01*
X247930100Y-22821400D02*
X212810100Y-22821400D01*
X247930100Y-30542400D02*
X212810100Y-30542400D01*
X247930100Y-28782400D02*
X212810100Y-28782400D01*
X247930100Y-24082400D02*
X212810100Y-24082400D01*
X247930100Y-23482400D02*
X212810100Y-23482400D01*
X215920100Y-29382400D02*
G75*
G03*
X215920100Y-29382400I-550000J0D01*
G01*
X217050100Y-26382400D02*
G75*
G03*
X217050100Y-26382400I-1680000J0D01*
G01*
X220920100Y-29382400D02*
G75*
G03*
X220920100Y-29382400I-550000J0D01*
G01*
X222050100Y-26382400D02*
G75*
G03*
X222050100Y-26382400I-1680000J0D01*
G01*
X225920100Y-29382400D02*
G75*
G03*
X225920100Y-29382400I-550000J0D01*
G01*
X227050100Y-26382400D02*
G75*
G03*
X227050100Y-26382400I-1680000J0D01*
G01*
X230920100Y-29382400D02*
G75*
G03*
X230920100Y-29382400I-550000J0D01*
G01*
X232050100Y-26382400D02*
G75*
G03*
X232050100Y-26382400I-1680000J0D01*
G01*
X235920100Y-29382400D02*
G75*
G03*
X235920100Y-29382400I-550000J0D01*
G01*
X237050100Y-26382400D02*
G75*
G03*
X237050100Y-26382400I-1680000J0D01*
G01*
X240920100Y-29382400D02*
G75*
G03*
X240920100Y-29382400I-550000J0D01*
G01*
X242050100Y-26382400D02*
G75*
G03*
X242050100Y-26382400I-1680000J0D01*
G01*
X245920100Y-29382400D02*
G75*
G03*
X245920100Y-29382400I-550000J0D01*
G01*
X244581388Y-24899048D02*
G75*
G02*
X245370100Y-24702400I788712J-1483352D01*
G01*
X243886147Y-27171488D02*
G75*
G02*
X243886100Y-25593400I1483953J789088D01*
G01*
X246159188Y-27866353D02*
G75*
G02*
X244581100Y-27866400I-789088J1483953D01*
G01*
X246854053Y-25593312D02*
G75*
G02*
X246854100Y-27171400I-1483953J-789088D01*
G01*
X245340717Y-24701950D02*
G75*
G02*
X246159100Y-24898400I29383J-1680450D01*
G01*
%TO.C,ANVDD1*%
X195170100Y-23082400D02*
X194570100Y-23082400D01*
X195170100Y-23922400D02*
X195170100Y-23082400D01*
X188550100Y-25906400D02*
X188644100Y-25813400D01*
X186300100Y-28157400D02*
X186359100Y-28098400D01*
X188380100Y-25666400D02*
X188439100Y-25608400D01*
X186095100Y-27951400D02*
X186189100Y-27858400D01*
X184810100Y-31042400D02*
X184810100Y-23321400D01*
X194930100Y-31042400D02*
X194930100Y-23321400D01*
X194930100Y-23321400D02*
X184810100Y-23321400D01*
X194930100Y-31042400D02*
X184810100Y-31042400D01*
X194930100Y-29282400D02*
X184810100Y-29282400D01*
X194930100Y-24582400D02*
X184810100Y-24582400D01*
X194930100Y-23982400D02*
X184810100Y-23982400D01*
X187920100Y-29882400D02*
G75*
G03*
X187920100Y-29882400I-550000J0D01*
G01*
X189050100Y-26882400D02*
G75*
G03*
X189050100Y-26882400I-1680000J0D01*
G01*
X192920100Y-29882400D02*
G75*
G03*
X192920100Y-29882400I-550000J0D01*
G01*
X191581388Y-25399048D02*
G75*
G02*
X192370100Y-25202400I788712J-1483352D01*
G01*
X190886147Y-27671488D02*
G75*
G02*
X190886100Y-26093400I1483953J789088D01*
G01*
X193159188Y-28366353D02*
G75*
G02*
X191581100Y-28366400I-789088J1483953D01*
G01*
X193854053Y-26093312D02*
G75*
G02*
X193854100Y-27671400I-1483953J-789088D01*
G01*
X192340717Y-25201950D02*
G75*
G02*
X193159100Y-25398400I29383J-1680450D01*
G01*
%TO.C,P9*%
X255700100Y-28172400D02*
X250500100Y-28172400D01*
X255700100Y-84112400D02*
X255700100Y-28172400D01*
X250500100Y-86712400D02*
X250500100Y-28172400D01*
X255700100Y-84112400D02*
X253100100Y-84112400D01*
X253100100Y-84112400D02*
X253100100Y-86712400D01*
X253100100Y-86712400D02*
X250500100Y-86712400D01*
X255700100Y-85382400D02*
X255700100Y-86712400D01*
X255700100Y-86712400D02*
X254370100Y-86712400D01*
%TO.C,SW1*%
X241870100Y-62882400D02*
X246370100Y-62882400D01*
X240620100Y-58882400D02*
X240620100Y-60382400D01*
X246370100Y-56382400D02*
X241870100Y-56382400D01*
X247620100Y-60382400D02*
X247620100Y-58882400D01*
%TO.C,SW2*%
X37620100Y-60382400D02*
X37620100Y-58882400D01*
X36370100Y-56382400D02*
X31870100Y-56382400D01*
X30620100Y-58882400D02*
X30620100Y-60382400D01*
X31870100Y-62882400D02*
X36370100Y-62882400D01*
%TO.C,P8*%
D10*
X204102004Y-88164780D02*
X204102004Y-87164780D01*
X204482957Y-87164780D01*
X204578195Y-87212400D01*
X204625814Y-87260019D01*
X204673433Y-87355257D01*
X204673433Y-87498114D01*
X204625814Y-87593352D01*
X204578195Y-87640971D01*
X204482957Y-87688590D01*
X204102004Y-87688590D01*
X205244861Y-87593352D02*
X205149623Y-87545733D01*
X205102004Y-87498114D01*
X205054385Y-87402876D01*
X205054385Y-87355257D01*
X205102004Y-87260019D01*
X205149623Y-87212400D01*
X205244861Y-87164780D01*
X205435338Y-87164780D01*
X205530576Y-87212400D01*
X205578195Y-87260019D01*
X205625814Y-87355257D01*
X205625814Y-87402876D01*
X205578195Y-87498114D01*
X205530576Y-87545733D01*
X205435338Y-87593352D01*
X205244861Y-87593352D01*
X205149623Y-87640971D01*
X205102004Y-87688590D01*
X205054385Y-87783828D01*
X205054385Y-87974304D01*
X205102004Y-88069542D01*
X205149623Y-88117161D01*
X205244861Y-88164780D01*
X205435338Y-88164780D01*
X205530576Y-88117161D01*
X205578195Y-88069542D01*
X205625814Y-87974304D01*
X205625814Y-87783828D01*
X205578195Y-87688590D01*
X205530576Y-87640971D01*
X205435338Y-87593352D01*
%TO.C,J1*%
X157322480Y-91715733D02*
X158036766Y-91715733D01*
X158179623Y-91763352D01*
X158274861Y-91858590D01*
X158322480Y-92001447D01*
X158322480Y-92096685D01*
X158322480Y-90715733D02*
X158322480Y-91287161D01*
X158322480Y-91001447D02*
X157322480Y-91001447D01*
X157465338Y-91096685D01*
X157560576Y-91191923D01*
X157608195Y-91287161D01*
%TO.C,VDD1*%
X178822480Y-92191923D02*
X179822480Y-91858590D01*
X178822480Y-91525257D01*
X179822480Y-91191923D02*
X178822480Y-91191923D01*
X178822480Y-90953828D01*
X178870100Y-90810971D01*
X178965338Y-90715733D01*
X179060576Y-90668114D01*
X179251052Y-90620495D01*
X179393909Y-90620495D01*
X179584385Y-90668114D01*
X179679623Y-90715733D01*
X179774861Y-90810971D01*
X179822480Y-90953828D01*
X179822480Y-91191923D01*
X179822480Y-90191923D02*
X178822480Y-90191923D01*
X178822480Y-89953828D01*
X178870100Y-89810971D01*
X178965338Y-89715733D01*
X179060576Y-89668114D01*
X179251052Y-89620495D01*
X179393909Y-89620495D01*
X179584385Y-89668114D01*
X179679623Y-89715733D01*
X179774861Y-89810971D01*
X179822480Y-89953828D01*
X179822480Y-90191923D01*
X179822480Y-88668114D02*
X179822480Y-89239542D01*
X179822480Y-88953828D02*
X178822480Y-88953828D01*
X178965338Y-89049066D01*
X179060576Y-89144304D01*
X179108195Y-89239542D01*
%TO.C,I2C1*%
X224282719Y-65854780D02*
X224282719Y-64854780D01*
X224711290Y-64950019D02*
X224758909Y-64902400D01*
X224854147Y-64854780D01*
X225092242Y-64854780D01*
X225187480Y-64902400D01*
X225235100Y-64950019D01*
X225282719Y-65045257D01*
X225282719Y-65140495D01*
X225235100Y-65283352D01*
X224663671Y-65854780D01*
X225282719Y-65854780D01*
X226282719Y-65759542D02*
X226235100Y-65807161D01*
X226092242Y-65854780D01*
X225997004Y-65854780D01*
X225854147Y-65807161D01*
X225758909Y-65711923D01*
X225711290Y-65616685D01*
X225663671Y-65426209D01*
X225663671Y-65283352D01*
X225711290Y-65092876D01*
X225758909Y-64997638D01*
X225854147Y-64902400D01*
X225997004Y-64854780D01*
X226092242Y-64854780D01*
X226235100Y-64902400D01*
X226282719Y-64950019D01*
X227235100Y-65854780D02*
X226663671Y-65854780D01*
X226949385Y-65854780D02*
X226949385Y-64854780D01*
X226854147Y-64997638D01*
X226758909Y-65092876D01*
X226663671Y-65140495D01*
%TO.C,J7*%
X114322480Y-27715733D02*
X115036766Y-27715733D01*
X115179623Y-27763352D01*
X115274861Y-27858590D01*
X115322480Y-28001447D01*
X115322480Y-28096685D01*
X114322480Y-27334780D02*
X114322480Y-26668114D01*
X115322480Y-27096685D01*
%TO.C,J6*%
X71322480Y-28215733D02*
X72036766Y-28215733D01*
X72179623Y-28263352D01*
X72274861Y-28358590D01*
X72322480Y-28501447D01*
X72322480Y-28596685D01*
X71322480Y-27310971D02*
X71322480Y-27501447D01*
X71370100Y-27596685D01*
X71417719Y-27644304D01*
X71560576Y-27739542D01*
X71751052Y-27787161D01*
X72132004Y-27787161D01*
X72227242Y-27739542D01*
X72274861Y-27691923D01*
X72322480Y-27596685D01*
X72322480Y-27406209D01*
X72274861Y-27310971D01*
X72227242Y-27263352D01*
X72132004Y-27215733D01*
X71893909Y-27215733D01*
X71798671Y-27263352D01*
X71751052Y-27310971D01*
X71703433Y-27406209D01*
X71703433Y-27596685D01*
X71751052Y-27691923D01*
X71798671Y-27739542D01*
X71893909Y-27787161D01*
%TO.C,J5*%
X28322480Y-27715733D02*
X29036766Y-27715733D01*
X29179623Y-27763352D01*
X29274861Y-27858590D01*
X29322480Y-28001447D01*
X29322480Y-28096685D01*
X28322480Y-26763352D02*
X28322480Y-27239542D01*
X28798671Y-27287161D01*
X28751052Y-27239542D01*
X28703433Y-27144304D01*
X28703433Y-26906209D01*
X28751052Y-26810971D01*
X28798671Y-26763352D01*
X28893909Y-26715733D01*
X29132004Y-26715733D01*
X29227242Y-26763352D01*
X29274861Y-26810971D01*
X29322480Y-26906209D01*
X29322480Y-27144304D01*
X29274861Y-27239542D01*
X29227242Y-27287161D01*
%TO.C,J2*%
X114322480Y-91715733D02*
X115036766Y-91715733D01*
X115179623Y-91763352D01*
X115274861Y-91858590D01*
X115322480Y-92001447D01*
X115322480Y-92096685D01*
X114417719Y-91287161D02*
X114370100Y-91239542D01*
X114322480Y-91144304D01*
X114322480Y-90906209D01*
X114370100Y-90810971D01*
X114417719Y-90763352D01*
X114512957Y-90715733D01*
X114608195Y-90715733D01*
X114751052Y-90763352D01*
X115322480Y-91334780D01*
X115322480Y-90715733D01*
%TO.C,J3*%
X71322480Y-91715733D02*
X72036766Y-91715733D01*
X72179623Y-91763352D01*
X72274861Y-91858590D01*
X72322480Y-92001447D01*
X72322480Y-92096685D01*
X71322480Y-91334780D02*
X71322480Y-90715733D01*
X71703433Y-91049066D01*
X71703433Y-90906209D01*
X71751052Y-90810971D01*
X71798671Y-90763352D01*
X71893909Y-90715733D01*
X72132004Y-90715733D01*
X72227242Y-90763352D01*
X72274861Y-90810971D01*
X72322480Y-90906209D01*
X72322480Y-91191923D01*
X72274861Y-91287161D01*
X72227242Y-91334780D01*
%TO.C,J4*%
X28322480Y-91715733D02*
X29036766Y-91715733D01*
X29179623Y-91763352D01*
X29274861Y-91858590D01*
X29322480Y-92001447D01*
X29322480Y-92096685D01*
X28655814Y-90810971D02*
X29322480Y-90810971D01*
X28274861Y-91049066D02*
X28989147Y-91287161D01*
X28989147Y-90668114D01*
%TO.C,AN1*%
X212036766Y-28120495D02*
X212036766Y-27644304D01*
X212322480Y-28215733D02*
X211322480Y-27882400D01*
X212322480Y-27549066D01*
X212322480Y-27215733D02*
X211322480Y-27215733D01*
X212322480Y-26644304D01*
X211322480Y-26644304D01*
X212322480Y-25644304D02*
X212322480Y-26215733D01*
X212322480Y-25930019D02*
X211322480Y-25930019D01*
X211465338Y-26025257D01*
X211560576Y-26120495D01*
X211608195Y-26215733D01*
%TO.C,ANVDD1*%
X184036766Y-30049066D02*
X184036766Y-29572876D01*
X184322480Y-30144304D02*
X183322480Y-29810971D01*
X184322480Y-29477638D01*
X184322480Y-29144304D02*
X183322480Y-29144304D01*
X184322480Y-28572876D01*
X183322480Y-28572876D01*
X183322480Y-28239542D02*
X184322480Y-27906209D01*
X183322480Y-27572876D01*
X184322480Y-27239542D02*
X183322480Y-27239542D01*
X183322480Y-27001447D01*
X183370100Y-26858590D01*
X183465338Y-26763352D01*
X183560576Y-26715733D01*
X183751052Y-26668114D01*
X183893909Y-26668114D01*
X184084385Y-26715733D01*
X184179623Y-26763352D01*
X184274861Y-26858590D01*
X184322480Y-27001447D01*
X184322480Y-27239542D01*
X184322480Y-26239542D02*
X183322480Y-26239542D01*
X183322480Y-26001447D01*
X183370100Y-25858590D01*
X183465338Y-25763352D01*
X183560576Y-25715733D01*
X183751052Y-25668114D01*
X183893909Y-25668114D01*
X184084385Y-25715733D01*
X184179623Y-25763352D01*
X184274861Y-25858590D01*
X184322480Y-26001447D01*
X184322480Y-26239542D01*
X184322480Y-24715733D02*
X184322480Y-25287161D01*
X184322480Y-25001447D02*
X183322480Y-25001447D01*
X183465338Y-25096685D01*
X183560576Y-25191923D01*
X183608195Y-25287161D01*
%TO.C,P9*%
X252362004Y-88164780D02*
X252362004Y-87164780D01*
X252742957Y-87164780D01*
X252838195Y-87212400D01*
X252885814Y-87260019D01*
X252933433Y-87355257D01*
X252933433Y-87498114D01*
X252885814Y-87593352D01*
X252838195Y-87640971D01*
X252742957Y-87688590D01*
X252362004Y-87688590D01*
X253409623Y-88164780D02*
X253600100Y-88164780D01*
X253695338Y-88117161D01*
X253742957Y-88069542D01*
X253838195Y-87926685D01*
X253885814Y-87736209D01*
X253885814Y-87355257D01*
X253838195Y-87260019D01*
X253790576Y-87212400D01*
X253695338Y-87164780D01*
X253504861Y-87164780D01*
X253409623Y-87212400D01*
X253362004Y-87260019D01*
X253314385Y-87355257D01*
X253314385Y-87593352D01*
X253362004Y-87688590D01*
X253409623Y-87736209D01*
X253504861Y-87783828D01*
X253695338Y-87783828D01*
X253790576Y-87736209D01*
X253838195Y-87688590D01*
X253885814Y-87593352D01*
%TO.C,SW1*%
X242786766Y-55787161D02*
X242929623Y-55834780D01*
X243167719Y-55834780D01*
X243262957Y-55787161D01*
X243310576Y-55739542D01*
X243358195Y-55644304D01*
X243358195Y-55549066D01*
X243310576Y-55453828D01*
X243262957Y-55406209D01*
X243167719Y-55358590D01*
X242977242Y-55310971D01*
X242882004Y-55263352D01*
X242834385Y-55215733D01*
X242786766Y-55120495D01*
X242786766Y-55025257D01*
X242834385Y-54930019D01*
X242882004Y-54882400D01*
X242977242Y-54834780D01*
X243215338Y-54834780D01*
X243358195Y-54882400D01*
X243691528Y-54834780D02*
X243929623Y-55834780D01*
X244120100Y-55120495D01*
X244310576Y-55834780D01*
X244548671Y-54834780D01*
X245453433Y-55834780D02*
X244882004Y-55834780D01*
X245167719Y-55834780D02*
X245167719Y-54834780D01*
X245072480Y-54977638D01*
X244977242Y-55072876D01*
X244882004Y-55120495D01*
%TO.C,SW2*%
X32786766Y-55787161D02*
X32929623Y-55834780D01*
X33167719Y-55834780D01*
X33262957Y-55787161D01*
X33310576Y-55739542D01*
X33358195Y-55644304D01*
X33358195Y-55549066D01*
X33310576Y-55453828D01*
X33262957Y-55406209D01*
X33167719Y-55358590D01*
X32977242Y-55310971D01*
X32882004Y-55263352D01*
X32834385Y-55215733D01*
X32786766Y-55120495D01*
X32786766Y-55025257D01*
X32834385Y-54930019D01*
X32882004Y-54882400D01*
X32977242Y-54834780D01*
X33215338Y-54834780D01*
X33358195Y-54882400D01*
X33691528Y-54834780D02*
X33929623Y-55834780D01*
X34120100Y-55120495D01*
X34310576Y-55834780D01*
X34548671Y-54834780D01*
X34882004Y-54930019D02*
X34929623Y-54882400D01*
X35024861Y-54834780D01*
X35262957Y-54834780D01*
X35358195Y-54882400D01*
X35405814Y-54930019D01*
X35453433Y-55025257D01*
X35453433Y-55120495D01*
X35405814Y-55263352D01*
X34834385Y-55834780D01*
X35453433Y-55834780D01*
%TO.C,H1*%
X60608195Y-54534780D02*
X60608195Y-53534780D01*
X60608195Y-54010971D02*
X61179623Y-54010971D01*
X61179623Y-54534780D02*
X61179623Y-53534780D01*
X62179623Y-54534780D02*
X61608195Y-54534780D01*
X61893909Y-54534780D02*
X61893909Y-53534780D01*
X61798671Y-53677638D01*
X61703433Y-53772876D01*
X61608195Y-53820495D01*
%TO.C,H2*%
X159608195Y-54534780D02*
X159608195Y-53534780D01*
X159608195Y-54010971D02*
X160179623Y-54010971D01*
X160179623Y-54534780D02*
X160179623Y-53534780D01*
X160608195Y-53630019D02*
X160655814Y-53582400D01*
X160751052Y-53534780D01*
X160989147Y-53534780D01*
X161084385Y-53582400D01*
X161132004Y-53630019D01*
X161179623Y-53725257D01*
X161179623Y-53820495D01*
X161132004Y-53963352D01*
X160560576Y-54534780D01*
X161179623Y-54534780D01*
%TD*%
M02*
