M48
; DRILL file {KiCad (5.1.6)-1} date 11/09/21 09:23:06
; FORMAT={-:-/ absolute / inch / decimal}
; #@! TF.CreationDate,2021-11-09T09:23:06+01:00
; #@! TF.GenerationSoftware,Kicad,Pcbnew,(5.1.6)-1
; #@! TF.FileFunction,Plated,1,2,PTH
FMAT,2
INCH
T1C0.0157
T2C0.0197
T3C0.0236
T4C0.0394
T5C0.0429
T6C0.0433
T7C0.0551
T8C0.0591
%
G90
G05
T1
X0.9063Y-4.1484
X0.9134Y-3.002
X0.9144Y-3.5591
X0.915Y-2.4157
X1.0226Y-3.5492
X1.0252Y-2.9996
X1.0276Y-3.6506
X1.0325Y-2.7195
X1.1112Y-4.44
X1.1299Y-4.1496
X1.1348Y-3.001
X1.1386Y-2.4157
X1.1398Y-3.5502
X1.1508Y-3.2346
X1.1508Y-3.274
X1.1508Y-3.3134
X1.1762Y-4.2402
X1.1902Y-3.2346
X1.1902Y-3.274
X1.1902Y-3.3134
X1.1939Y-3.6791
X1.2077Y-2.6909
X1.2295Y-3.2346
X1.2295Y-3.274
X1.2295Y-3.3134
X1.2451Y-3.5433
X1.2457Y-2.9984
X1.2689Y-3.2346
X1.2689Y-3.274
X1.2689Y-3.3134
X1.2943Y-4.44
X1.3081Y-4.251
X1.3083Y-3.2346
X1.3083Y-3.274
X1.3083Y-3.3134
X1.3516Y-4.148
X1.3593Y-3.0
X1.3612Y-3.5413
X1.363Y-2.4146
X1.4124Y-2.6732
X1.4518Y-3.7146
X1.4673Y-2.9996
X1.4724Y-3.5433
X1.5768Y-4.148
X1.5797Y-3.001
X1.5797Y-3.5413
X1.585Y-2.4157
X1.6358Y-2.6555
X1.6801Y-3.7146
X1.69Y-3.5433
X1.6906Y-3.0
X1.7969Y-4.148
X1.8012Y-2.999
X1.8051Y-3.5413
X1.8083Y-2.4165
X1.8583Y-2.6378
X1.9114Y-3.5541
X1.9114Y-3.7323
X1.9126Y-3.0008
X2.0209Y-4.1461
X2.0226Y-3.5512
X2.0256Y-2.998
X2.0287Y-2.4165
X2.0817Y-2.6201
X2.127Y-3.75
X2.1346Y-2.9992
X2.1358Y-3.5472
X2.2425Y-4.1453
X2.247Y-2.997
X2.247Y-3.5522
X2.2524Y-2.4161
X2.3031Y-2.6024
X2.3504Y-3.7677
X2.3563Y-3.5443
X2.3567Y-2.998
X2.4124Y-3.8258
X2.4661Y-4.1469
X2.4685Y-3.0
X2.4724Y-3.5463
X2.4744Y-2.4165
X2.5256Y-2.5846
X2.5264Y-4.2618
X2.5272Y-4.3547
X2.5638Y-3.2295
X2.5638Y-3.2689
X2.5638Y-3.3083
X2.5807Y-2.998
X2.5837Y-3.5433
X2.6031Y-3.2295
X2.6031Y-3.2689
X2.6031Y-3.3083
X2.6368Y-3.8258
X2.6425Y-3.2295
X2.6425Y-3.2689
X2.6425Y-3.3083
X2.6819Y-3.2295
X2.6819Y-3.2689
X2.6819Y-3.3083
X2.6874Y-4.1461
X2.689Y-3.5492
X2.6919Y-2.998
X2.6969Y-2.4134
X2.7213Y-3.2295
X2.7213Y-3.2689
X2.7213Y-3.3083
X2.747Y-2.5669
X2.8002Y-3.5512
X2.8028Y-2.9957
X2.8602Y-3.8268
X2.9122Y-4.1461
X2.9144Y-2.9961
X2.9144Y-3.5463
X2.9185Y-2.4138
X2.9705Y-2.5482
X3.0043Y-3.2295
X3.0043Y-3.2689
X3.0043Y-3.3083
X3.0236Y-3.5512
X3.0248Y-2.9949
X3.0437Y-3.2295
X3.0437Y-3.2689
X3.0437Y-3.3083
X3.0827Y-3.8386
X3.0831Y-3.2295
X3.0831Y-3.2689
X3.0831Y-3.3083
X3.1224Y-3.2295
X3.1224Y-3.2689
X3.1224Y-3.3083
X3.1346Y-4.1449
X3.1358Y-2.9961
X3.1368Y-3.5492
X3.1398Y-2.4126
X3.1618Y-3.2295
X3.1618Y-3.2689
X3.1618Y-3.3083
X3.1939Y-2.6358
X3.2465Y-2.9965
X3.248Y-3.5502
X3.3051Y-3.8563
X3.3535Y-4.1488
X3.3593Y-3.5492
X3.3602Y-2.9961
X3.3657Y-2.4094
X3.4163Y-2.6535
X3.4394Y-3.2268
X3.4394Y-3.2661
X3.4394Y-3.3055
X3.4705Y-2.9976
X3.4724Y-3.5522
X3.4787Y-3.2268
X3.4787Y-3.2661
X3.4787Y-3.3055
X3.5181Y-3.2268
X3.5181Y-3.2661
X3.5181Y-3.3055
X3.5256Y-3.874
X3.5575Y-3.2268
X3.5575Y-3.2661
X3.5575Y-3.3055
X3.578Y-4.1433
X3.5837Y-2.997
X3.5837Y-3.5512
X3.5839Y-2.4134
X3.5969Y-3.2268
X3.5969Y-3.2661
X3.5969Y-3.3055
X3.6388Y-2.6713
X3.6909Y-2.9988
X3.6959Y-3.5492
X3.748Y-3.8917
X3.8012Y-4.1417
X3.8051Y-3.5512
X3.8061Y-2.998
X3.8102Y-2.413
X3.8593Y-2.689
X3.8902Y-3.2323
X3.8902Y-3.2717
X3.8902Y-3.311
X3.9163Y-3.5512
X3.9205Y-2.9992
X3.9295Y-3.2323
X3.9295Y-3.2717
X3.9295Y-3.311
X3.9689Y-3.2323
X3.9689Y-3.2717
X3.9689Y-3.311
X3.9715Y-3.9095
X4.0083Y-3.2323
X4.0083Y-3.2717
X4.0083Y-3.311
X4.0181Y-4.1488
X4.0236Y-3.5502
X4.0305Y-2.997
X4.0307Y-2.4146
X4.0476Y-3.2323
X4.0476Y-3.2717
X4.0476Y-3.311
X4.0817Y-2.7067
X4.1368Y-3.5502
X4.139Y-2.9925
X4.1929Y-3.9272
X4.2457Y-4.148
X4.248Y-2.9941
X4.249Y-3.5492
X4.2531Y-2.4154
X4.3041Y-2.7254
X4.3583Y-2.9937
X4.3632Y-3.5541
X4.4154Y-3.9449
X4.4685Y-4.1457
X4.4705Y-2.9961
X4.4715Y-3.5581
X4.4795Y-2.4146
X4.5305Y-4.4941
X4.5797Y-2.7431
X4.5815Y-2.9976
X4.5896Y-3.561
X4.6886Y-4.1484
X4.6978Y-2.9961
X4.6988Y-3.561
X4.7012Y-2.4122
X4.8016Y-2.9969
X4.8071Y-3.56
X4.813Y-2.7608
X4.8972Y-3.2189
X4.8972Y-3.2583
X4.8972Y-3.2976
X4.911Y-4.1472
X4.9163Y-2.997
X4.9203Y-3.5551
X4.9217Y-2.4169
X4.9366Y-3.2189
X4.9366Y-3.2583
X4.9366Y-3.2976
X4.976Y-3.2189
X4.976Y-3.2583
X4.976Y-3.2976
X5.0154Y-3.2189
X5.0154Y-3.2583
X5.0154Y-3.2976
X5.0256Y-2.9953
X5.0276Y-3.5571
X5.0335Y-2.7785
X5.0453Y-2.3691
X5.0547Y-3.2189
X5.0547Y-3.2583
X5.0547Y-3.2976
X5.1339Y-4.1484
X5.1358Y-2.998
X5.1378Y-3.5561
X5.1421Y-2.4189
X5.2449Y-2.9965
X5.252Y-3.5561
X5.2539Y-2.7963
X5.2746Y-2.3632
X5.3059Y-3.2165
X5.3059Y-3.2559
X5.3059Y-3.2953
X5.3453Y-3.2165
X5.3453Y-3.2559
X5.3453Y-3.2953
X5.3539Y-4.1484
X5.3593Y-2.9961
X5.3622Y-3.5512
X5.3654Y-2.4181
X5.3846Y-3.2165
X5.3846Y-3.2559
X5.3846Y-3.2953
X5.424Y-3.2165
X5.424Y-3.2559
X5.424Y-3.2953
X5.4634Y-3.2165
X5.4634Y-3.2559
X5.4634Y-3.2953
X5.4717Y-2.9972
X5.4724Y-3.5512
X5.4783Y-2.814
X5.5835Y-4.1476
X5.5856Y-2.9961
X5.5856Y-3.5522
X5.5894Y-2.4142
X5.6933Y-2.9972
X5.6939Y-3.5502
X5.6998Y-2.8317
X5.7244Y-2.3622
X5.728Y-3.2189
X5.728Y-3.2583
X5.728Y-3.2976
X5.7673Y-3.2189
X5.7673Y-3.2583
X5.7673Y-3.2976
X5.8Y-3.4232
X5.8008Y-4.1469
X5.8051Y-2.998
X5.8067Y-3.2189
X5.8067Y-3.2583
X5.8067Y-3.2976
X5.811Y-3.5522
X5.8142Y-2.415
X5.8378Y-3.4232
X5.8461Y-3.2189
X5.8461Y-3.2583
X5.8461Y-3.2976
X5.8854Y-3.2189
X5.8854Y-3.2583
X5.8854Y-3.2976
X5.9142Y-2.9969
X5.9185Y-3.5488
X5.9281Y-2.8494
X5.9654Y-2.374
X6.0224Y-4.1425
X6.0295Y-2.997
X6.0315Y-3.5508
X6.0343Y-2.413
X6.0795Y-3.6748
X6.1409Y-2.9976
X6.1447Y-2.8671
X6.1496Y-3.122
X6.1811Y-2.3752
X6.253Y-2.9951
X6.2591Y-2.415
X6.3642Y-2.9988
X6.3691Y-2.8848
X6.4012Y-2.3787
X6.424Y-3.2307
X6.4256Y-3.1846
X6.4268Y-3.135
X6.4689Y-3.2319
X6.4705Y-3.1858
X6.4724Y-3.1374
X6.4734Y-2.997
X6.4807Y-2.415
X6.5161Y-3.2346
X6.5177Y-3.1854
X6.5189Y-3.1378
X6.5661Y-3.2331
X6.5669Y-3.1866
X6.5681Y-3.1394
X6.5843Y-3.0004
X6.5866Y-2.9026
X6.6169Y-3.9075
X6.6276Y-2.3728
X6.6902Y-3.9102
X6.6929Y-2.997
X6.7008Y-2.4161
X6.8067Y-3.0008
X6.8091Y-2.9203
X6.8465Y-2.3744
X6.9173Y-2.998
X6.9232Y-2.4154
X6.9921Y-3.8984
X7.0187Y-2.938
X7.1071Y-3.8102
X7.1209Y-3.9028
X7.1354Y-2.9689
X7.1354Y-3.0083
X7.1748Y-2.9689
X7.1748Y-3.0083
X7.2142Y-2.9689
X7.2142Y-3.0083
X7.2185Y-3.5642
X7.2185Y-3.6035
X7.2185Y-3.6429
X7.2185Y-3.6823
X7.2185Y-3.7217
X7.2185Y-3.761
X7.2185Y-3.8004
X7.2185Y-3.8398
X7.2185Y-3.8791
X7.2535Y-2.9689
X7.2535Y-3.0083
X7.2579Y-3.5642
X7.2579Y-3.6035
X7.2579Y-3.6429
X7.2579Y-3.6823
X7.2579Y-3.7217
X7.2579Y-3.761
X7.2579Y-3.8004
X7.2579Y-3.8398
X7.2579Y-3.8791
X7.2929Y-2.9689
X7.2929Y-3.0083
X7.2972Y-3.5642
X7.2972Y-3.6035
X7.2972Y-3.6429
X7.2972Y-3.6823
X7.2972Y-3.7217
X7.2972Y-3.761
X7.2972Y-3.8004
X7.2972Y-3.8398
X7.2972Y-3.8791
X7.3366Y-3.5642
X7.3366Y-3.6035
X7.3366Y-3.6429
X7.3366Y-3.6823
X7.3366Y-3.7217
X7.3366Y-3.761
X7.3366Y-3.8004
X7.3366Y-3.8398
X7.3366Y-3.8791
X7.376Y-3.5642
X7.376Y-3.6035
X7.376Y-3.6429
X7.376Y-3.6823
X7.376Y-3.7217
X7.376Y-3.761
X7.376Y-3.8004
X7.376Y-3.8398
X7.376Y-3.8791
X7.4104Y-2.9941
X7.4154Y-3.5642
X7.4154Y-3.6035
X7.4154Y-3.6429
X7.4154Y-3.6823
X7.4154Y-3.7217
X7.4154Y-3.761
X7.4154Y-3.8004
X7.4154Y-3.8398
X7.4154Y-3.8791
X7.4547Y-3.5642
X7.4547Y-3.6035
X7.4547Y-3.6429
X7.4547Y-3.6823
X7.4547Y-3.7217
X7.4547Y-3.761
X7.4547Y-3.8004
X7.4547Y-3.8398
X7.4547Y-3.8791
X7.4941Y-3.5642
X7.4941Y-3.6035
X7.4941Y-3.6429
X7.4941Y-3.6823
X7.4941Y-3.7217
X7.4941Y-3.761
X7.4941Y-3.8004
X7.4941Y-3.8398
X7.4941Y-3.8791
X7.5335Y-3.5642
X7.5335Y-3.6035
X7.5335Y-3.6429
X7.5335Y-3.6823
X7.5335Y-3.7217
X7.5335Y-3.761
X7.5335Y-3.8004
X7.5335Y-3.8398
X7.5335Y-3.8791
X7.5728Y-3.5642
X7.5728Y-3.6035
X7.5728Y-3.6429
X7.5728Y-3.6823
X7.5728Y-3.7217
X7.5728Y-3.761
X7.5728Y-3.8004
X7.5728Y-3.8398
X7.5728Y-3.8791
X7.5807Y-3.0413
X7.6406Y-4.6835
X7.6701Y-3.1315
X7.6701Y-3.1709
X7.6815Y-3.0476
X7.7035Y-3.4846
X7.7094Y-3.1315
X7.7094Y-3.1709
X7.7094Y-3.2102
X7.7488Y-3.1315
X7.7488Y-3.1709
X7.7488Y-3.2102
X7.7882Y-3.1315
X7.7882Y-3.1709
X7.7882Y-3.2102
X7.811Y-3.0465
X7.8276Y-3.1315
X7.8276Y-3.1709
X7.8276Y-3.2102
X7.8283Y-4.3
X7.8287Y-4.2658
X7.8823Y-4.2661
X7.8827Y-4.3012
X7.9626Y-3.0457
X8.1496Y-3.064
X8.1929Y-3.064
X8.2323Y-3.0653
X8.2814Y-3.068
X8.3248Y-3.0679
X8.3276Y-1.9094
X8.3276Y-1.9488
X8.3276Y-1.9882
X8.3642Y-3.0679
X8.3669Y-1.9094
X8.3669Y-1.9488
X8.3669Y-1.9882
X8.402Y-4.3598
X8.4027Y-4.2811
X8.4031Y-4.3205
X8.4032Y-4.2417
X8.4035Y-4.163
X8.4035Y-3.0728
X8.4036Y-4.2024
X8.4063Y-1.9094
X8.4063Y-1.9488
X8.4063Y-1.9882
X8.4409Y-2.2799
X8.4425Y-3.1996
X8.4429Y-3.1579
X8.4449Y-3.1181
X8.4457Y-1.9094
X8.4457Y-1.9488
X8.4457Y-1.9882
X8.4459Y-3.0659
X8.4634Y-2.3209
X8.4802Y-2.6406
X8.4812Y-2.6012
X8.4818Y-2.5619
X8.485Y-1.9094
X8.485Y-1.9488
X8.485Y-1.9882
X8.4852Y-2.5226
X8.4858Y-2.4417
X8.4861Y-2.4833
X8.4862Y-2.363
X8.4862Y-2.4024
X9.1902Y-1.9783
X9.1902Y-2.0177
X9.1902Y-2.0571
X9.2295Y-1.9783
X9.2295Y-2.0177
X9.2295Y-2.0571
X9.2323Y-2.8159
X9.2689Y-1.9783
X9.2689Y-2.0177
X9.2689Y-2.0571
X9.3022Y-2.4902
X9.3075Y-4.0193
X9.3075Y-4.0587
X9.3075Y-4.098
X9.3083Y-1.9783
X9.3083Y-2.0177
X9.3083Y-2.0571
X9.3209Y-2.8169
X9.3469Y-4.0193
X9.3469Y-4.0587
X9.3469Y-4.098
X9.3476Y-1.9783
X9.3476Y-2.0177
X9.3476Y-2.0571
X9.3819Y-3.5079
X9.3862Y-4.0193
X9.3862Y-4.0587
X9.3862Y-4.098
X9.4256Y-4.0193
X9.4256Y-4.0587
X9.4256Y-4.098
X9.465Y-4.0193
X9.465Y-4.0587
X9.465Y-4.098
X9.5016Y-2.8138
X9.5256Y-4.1461
X9.5374Y-3.2726
X9.561Y-3.2028
X9.6461Y-1.9768
X9.6461Y-2.0161
X9.6461Y-2.0555
X9.6638Y-2.6862
X9.6854Y-1.9768
X9.6854Y-2.0161
X9.6854Y-2.0555
X9.7185Y-3.4537
X9.7248Y-1.9768
X9.7248Y-2.0161
X9.7248Y-2.0555
X9.7606Y-2.6843
X9.7642Y-1.9768
X9.7642Y-2.0161
X9.7642Y-2.0555
X9.7963Y-3.2224
X9.8035Y-1.9768
X9.8035Y-2.0161
X9.8035Y-2.0555
X9.835Y-3.639
X9.8579Y-2.6846
X9.9413Y-2.685
X9.9457Y-3.6382
X9.9791Y-3.7028
X10.0362Y-3.7862
X10.0374Y-3.4028
X10.0394Y-2.6843
X10.086Y-3.1624
X10.115Y-3.4531
X10.1378Y-3.6535
X10.2413Y-3.8622
X10.2587Y-1.9783
X10.2587Y-2.0177
X10.2587Y-2.0571
X10.2961Y-2.6717
X10.298Y-1.9783
X10.298Y-2.0177
X10.298Y-2.0571
X10.3343Y-3.8618
X10.3374Y-1.9783
X10.3374Y-2.0177
X10.3374Y-2.0571
X10.3768Y-1.9783
X10.3768Y-2.0177
X10.3768Y-2.0571
X10.4012Y-2.672
X10.4161Y-1.9783
X10.4161Y-2.0177
X10.4161Y-2.0571
X10.4894Y-2.7154
X10.5315Y-2.5955
T2
X6.0575Y-3.4614
X6.0988Y-3.4622
X7.5094Y-1.952
X7.5598Y-1.9516
X7.8291Y-4.6732
X7.8878Y-4.6768
X9.4035Y-3.4104
X9.4783Y-3.4104
T3
X8.1652Y-3.7837
X8.362Y-3.8348
T4
X4.3167Y-3.2189
X4.3167Y-3.3189
X4.4167Y-3.2189
X4.4167Y-3.3189
X4.5167Y-3.2189
X4.5167Y-3.3189
X4.6167Y-3.2189
X4.6167Y-3.3189
X9.152Y-2.7311
X9.252Y-2.7311
X9.352Y-2.7311
X9.452Y-2.7311
X7.7394Y-2.4819
X7.8394Y-2.4819
X7.9394Y-2.4819
X9.6994Y-2.4902
X9.7982Y-2.4902
X9.8974Y-2.4902
X9.9986Y-2.4902
X10.6518Y-1.9648
X10.6518Y-2.0648
X10.6518Y-2.1648
X10.6518Y-2.2648
X10.6518Y-2.3648
X10.6518Y-2.4648
X10.6518Y-2.5648
X10.6518Y-2.6648
X10.6518Y-2.7648
X10.6518Y-2.8648
X10.6518Y-2.9648
X10.6518Y-3.0648
X10.6518Y-3.1648
X10.6518Y-3.2648
X10.6518Y-3.3648
X10.6518Y-3.4648
X10.6518Y-3.5648
X10.6518Y-3.6648
X10.6518Y-3.7648
X10.6518Y-3.8648
X10.6518Y-3.9648
X10.6518Y-4.0648
X10.6518Y-4.1648
X10.7518Y-1.9648
X10.7518Y-2.0648
X10.7518Y-2.1648
X10.7518Y-2.2648
X10.7518Y-2.3648
X10.7518Y-2.4648
X10.7518Y-2.5648
X10.7518Y-2.6648
X10.7518Y-2.7648
X10.7518Y-2.8648
X10.7518Y-2.9648
X10.7518Y-3.0648
X10.7518Y-3.1648
X10.7518Y-3.2648
X10.7518Y-3.3648
X10.7518Y-3.4648
X10.7518Y-3.5648
X10.7518Y-3.6648
X10.7518Y-3.7648
X10.7518Y-3.8648
X10.7518Y-3.9648
X10.7518Y-4.0648
X10.7518Y-4.1648
X8.0811Y-2.4823
X8.1811Y-2.4823
X8.2811Y-2.4823
X6.3274Y-3.1691
X6.3274Y-3.8691
X7.9274Y-3.1691
X7.9274Y-3.8691
X8.7518Y-1.965
X8.7518Y-2.065
X8.7518Y-2.165
X8.7518Y-2.265
X8.7518Y-2.365
X8.7518Y-2.465
X8.7518Y-2.565
X8.7518Y-2.665
X8.7518Y-2.765
X8.7518Y-2.865
X8.7518Y-2.965
X8.7518Y-3.065
X8.7518Y-3.165
X8.7518Y-3.265
X8.7518Y-3.365
X8.7518Y-3.465
X8.7518Y-3.565
X8.7518Y-3.665
X8.7518Y-3.765
X8.7518Y-3.865
X8.7518Y-3.965
X8.7518Y-4.065
X8.7518Y-4.165
X8.8518Y-1.965
X8.8518Y-2.065
X8.8518Y-2.165
X8.8518Y-2.265
X8.8518Y-2.365
X8.8518Y-2.465
X8.8518Y-2.565
X8.8518Y-2.665
X8.8518Y-2.765
X8.8518Y-2.865
X8.8518Y-2.965
X8.8518Y-3.065
X8.8518Y-3.165
X8.8518Y-3.265
X8.8518Y-3.365
X8.8518Y-3.465
X8.8518Y-3.565
X8.8518Y-3.665
X8.8518Y-3.765
X8.8518Y-3.865
X8.8518Y-3.965
X8.8518Y-4.065
X8.8518Y-4.165
T5
X9.175Y-3.3234
X9.2715Y-3.4514
T6
X10.1697Y-3.1921
X10.1697Y-3.3693
X10.4256Y-3.1921
X10.4256Y-3.3693
T7
X7.3356Y-4.3386
X7.5325Y-4.3386
X2.7047Y-2.2215
X2.9016Y-2.2215
X3.0984Y-2.2215
X3.2953Y-2.2215
X3.4921Y-2.2215
X3.689Y-2.2215
X3.8858Y-2.2215
X4.0827Y-2.2215
X7.9817Y-4.3362
X8.1785Y-4.3362
X0.9785Y-4.3376
X1.1754Y-4.3376
X1.3722Y-4.3376
X1.5691Y-4.3376
X1.7659Y-4.3376
X1.9628Y-4.3376
X2.1596Y-4.3376
X2.3565Y-4.3376
X9.061Y-2.222
X9.2579Y-2.222
X9.4547Y-2.222
X9.6516Y-2.222
X9.8484Y-2.222
X10.0453Y-2.222
X10.2421Y-2.222
X10.439Y-2.222
X2.7053Y-4.3366
X2.9022Y-4.3366
X3.099Y-4.3366
X3.2959Y-4.3366
X3.4927Y-4.3366
X3.6896Y-4.3366
X3.8864Y-4.3366
X4.0833Y-4.3366
X4.4321Y-4.3396
X4.6289Y-4.3396
X4.8258Y-4.3396
X5.0226Y-4.3396
X5.2195Y-4.3396
X5.4163Y-4.3396
X5.6132Y-4.3396
X5.81Y-4.3396
X0.9764Y-2.2215
X1.1732Y-2.2215
X1.3701Y-2.2215
X1.5669Y-2.2215
X1.7638Y-2.2215
X1.9606Y-2.2215
X2.1575Y-2.2215
X2.3543Y-2.2215
X6.1604Y-4.3362
X6.3573Y-4.3362
X6.5541Y-4.3362
X6.751Y-4.3362
X4.4321Y-2.2232
X4.6289Y-2.2232
X4.8258Y-2.2232
X5.0226Y-2.2232
X5.2195Y-2.2232
X5.4163Y-2.2232
X5.6132Y-2.2232
X5.81Y-2.2232
X6.1593Y-2.2217
X6.3561Y-2.2217
X6.553Y-2.2217
X6.7498Y-2.2217
X6.9467Y-2.2217
X7.1435Y-2.2217
X7.3404Y-2.2217
X7.5372Y-2.2217
X9.0614Y-4.337
X9.2583Y-4.337
X9.4551Y-4.337
X9.652Y-4.337
X9.8488Y-4.337
X10.0457Y-4.337
X10.2425Y-4.337
X10.4394Y-4.337
X7.9852Y-2.2228
X8.1821Y-2.2228
T8
X9.636Y-4.0567
X9.8356Y-4.0567
X10.0372Y-4.0567
T0
M30
