%TF.GenerationSoftware,KiCad,Pcbnew,(5.1.6)-1*%
%TF.CreationDate,2021-10-14T08:46:51+02:00*%
%TF.ProjectId,boneIO - relay board,626f6e65-494f-4202-9d20-72656c617920,rev?*%
%TF.SameCoordinates,Original*%
%TF.FileFunction,Soldermask,Top*%
%TF.FilePolarity,Negative*%
%FSLAX46Y46*%
G04 Gerber Fmt 4.6, Leading zero omitted, Abs format (unit mm)*
G04 Created by KiCad (PCBNEW (5.1.6)-1) date 2021-10-14 08:46:51*
%MOMM*%
%LPD*%
G01*
G04 APERTURE LIST*
%ADD10O,1.700000X1.700000*%
%ADD11R,1.700000X1.700000*%
%ADD12C,4.300000*%
%ADD13C,1.950000*%
%ADD14O,2.000000X3.600000*%
G04 APERTURE END LIST*
%TO.C,U4*%
G36*
G01*
X440443000Y-313808000D02*
X440443000Y-313608000D01*
G75*
G02*
X440543000Y-313508000I100000J0D01*
G01*
X441968000Y-313508000D01*
G75*
G02*
X442068000Y-313608000I0J-100000D01*
G01*
X442068000Y-313808000D01*
G75*
G02*
X441968000Y-313908000I-100000J0D01*
G01*
X440543000Y-313908000D01*
G75*
G02*
X440443000Y-313808000I0J100000D01*
G01*
G37*
G36*
G01*
X440443000Y-314458000D02*
X440443000Y-314258000D01*
G75*
G02*
X440543000Y-314158000I100000J0D01*
G01*
X441968000Y-314158000D01*
G75*
G02*
X442068000Y-314258000I0J-100000D01*
G01*
X442068000Y-314458000D01*
G75*
G02*
X441968000Y-314558000I-100000J0D01*
G01*
X440543000Y-314558000D01*
G75*
G02*
X440443000Y-314458000I0J100000D01*
G01*
G37*
G36*
G01*
X440443000Y-315108000D02*
X440443000Y-314908000D01*
G75*
G02*
X440543000Y-314808000I100000J0D01*
G01*
X441968000Y-314808000D01*
G75*
G02*
X442068000Y-314908000I0J-100000D01*
G01*
X442068000Y-315108000D01*
G75*
G02*
X441968000Y-315208000I-100000J0D01*
G01*
X440543000Y-315208000D01*
G75*
G02*
X440443000Y-315108000I0J100000D01*
G01*
G37*
G36*
G01*
X440443000Y-315758000D02*
X440443000Y-315558000D01*
G75*
G02*
X440543000Y-315458000I100000J0D01*
G01*
X441968000Y-315458000D01*
G75*
G02*
X442068000Y-315558000I0J-100000D01*
G01*
X442068000Y-315758000D01*
G75*
G02*
X441968000Y-315858000I-100000J0D01*
G01*
X440543000Y-315858000D01*
G75*
G02*
X440443000Y-315758000I0J100000D01*
G01*
G37*
G36*
G01*
X436218000Y-315758000D02*
X436218000Y-315558000D01*
G75*
G02*
X436318000Y-315458000I100000J0D01*
G01*
X437743000Y-315458000D01*
G75*
G02*
X437843000Y-315558000I0J-100000D01*
G01*
X437843000Y-315758000D01*
G75*
G02*
X437743000Y-315858000I-100000J0D01*
G01*
X436318000Y-315858000D01*
G75*
G02*
X436218000Y-315758000I0J100000D01*
G01*
G37*
G36*
G01*
X436218000Y-315108000D02*
X436218000Y-314908000D01*
G75*
G02*
X436318000Y-314808000I100000J0D01*
G01*
X437743000Y-314808000D01*
G75*
G02*
X437843000Y-314908000I0J-100000D01*
G01*
X437843000Y-315108000D01*
G75*
G02*
X437743000Y-315208000I-100000J0D01*
G01*
X436318000Y-315208000D01*
G75*
G02*
X436218000Y-315108000I0J100000D01*
G01*
G37*
G36*
G01*
X436218000Y-314458000D02*
X436218000Y-314258000D01*
G75*
G02*
X436318000Y-314158000I100000J0D01*
G01*
X437743000Y-314158000D01*
G75*
G02*
X437843000Y-314258000I0J-100000D01*
G01*
X437843000Y-314458000D01*
G75*
G02*
X437743000Y-314558000I-100000J0D01*
G01*
X436318000Y-314558000D01*
G75*
G02*
X436218000Y-314458000I0J100000D01*
G01*
G37*
G36*
G01*
X436218000Y-313808000D02*
X436218000Y-313608000D01*
G75*
G02*
X436318000Y-313508000I100000J0D01*
G01*
X437743000Y-313508000D01*
G75*
G02*
X437843000Y-313608000I0J-100000D01*
G01*
X437843000Y-313808000D01*
G75*
G02*
X437743000Y-313908000I-100000J0D01*
G01*
X436318000Y-313908000D01*
G75*
G02*
X436218000Y-313808000I0J100000D01*
G01*
G37*
%TD*%
%TO.C,R9*%
G36*
G01*
X427946000Y-315108000D02*
X428496000Y-315108000D01*
G75*
G02*
X428696000Y-315308000I0J-200000D01*
G01*
X428696000Y-315708000D01*
G75*
G02*
X428496000Y-315908000I-200000J0D01*
G01*
X427946000Y-315908000D01*
G75*
G02*
X427746000Y-315708000I0J200000D01*
G01*
X427746000Y-315308000D01*
G75*
G02*
X427946000Y-315108000I200000J0D01*
G01*
G37*
G36*
G01*
X427946000Y-313458000D02*
X428496000Y-313458000D01*
G75*
G02*
X428696000Y-313658000I0J-200000D01*
G01*
X428696000Y-314058000D01*
G75*
G02*
X428496000Y-314258000I-200000J0D01*
G01*
X427946000Y-314258000D01*
G75*
G02*
X427746000Y-314058000I0J200000D01*
G01*
X427746000Y-313658000D01*
G75*
G02*
X427946000Y-313458000I200000J0D01*
G01*
G37*
%TD*%
%TO.C,R8*%
G36*
G01*
X433534000Y-315108000D02*
X434084000Y-315108000D01*
G75*
G02*
X434284000Y-315308000I0J-200000D01*
G01*
X434284000Y-315708000D01*
G75*
G02*
X434084000Y-315908000I-200000J0D01*
G01*
X433534000Y-315908000D01*
G75*
G02*
X433334000Y-315708000I0J200000D01*
G01*
X433334000Y-315308000D01*
G75*
G02*
X433534000Y-315108000I200000J0D01*
G01*
G37*
G36*
G01*
X433534000Y-313458000D02*
X434084000Y-313458000D01*
G75*
G02*
X434284000Y-313658000I0J-200000D01*
G01*
X434284000Y-314058000D01*
G75*
G02*
X434084000Y-314258000I-200000J0D01*
G01*
X433534000Y-314258000D01*
G75*
G02*
X433334000Y-314058000I0J200000D01*
G01*
X433334000Y-313658000D01*
G75*
G02*
X433534000Y-313458000I200000J0D01*
G01*
G37*
%TD*%
%TO.C,R7*%
G36*
G01*
X430740000Y-315108000D02*
X431290000Y-315108000D01*
G75*
G02*
X431490000Y-315308000I0J-200000D01*
G01*
X431490000Y-315708000D01*
G75*
G02*
X431290000Y-315908000I-200000J0D01*
G01*
X430740000Y-315908000D01*
G75*
G02*
X430540000Y-315708000I0J200000D01*
G01*
X430540000Y-315308000D01*
G75*
G02*
X430740000Y-315108000I200000J0D01*
G01*
G37*
G36*
G01*
X430740000Y-313458000D02*
X431290000Y-313458000D01*
G75*
G02*
X431490000Y-313658000I0J-200000D01*
G01*
X431490000Y-314058000D01*
G75*
G02*
X431290000Y-314258000I-200000J0D01*
G01*
X430740000Y-314258000D01*
G75*
G02*
X430540000Y-314058000I0J200000D01*
G01*
X430540000Y-313658000D01*
G75*
G02*
X430740000Y-313458000I200000J0D01*
G01*
G37*
%TD*%
%TO.C,R6*%
G36*
G01*
X449917000Y-316886000D02*
X450467000Y-316886000D01*
G75*
G02*
X450667000Y-317086000I0J-200000D01*
G01*
X450667000Y-317486000D01*
G75*
G02*
X450467000Y-317686000I-200000J0D01*
G01*
X449917000Y-317686000D01*
G75*
G02*
X449717000Y-317486000I0J200000D01*
G01*
X449717000Y-317086000D01*
G75*
G02*
X449917000Y-316886000I200000J0D01*
G01*
G37*
G36*
G01*
X449917000Y-315236000D02*
X450467000Y-315236000D01*
G75*
G02*
X450667000Y-315436000I0J-200000D01*
G01*
X450667000Y-315836000D01*
G75*
G02*
X450467000Y-316036000I-200000J0D01*
G01*
X449917000Y-316036000D01*
G75*
G02*
X449717000Y-315836000I0J200000D01*
G01*
X449717000Y-315436000D01*
G75*
G02*
X449917000Y-315236000I200000J0D01*
G01*
G37*
%TD*%
%TO.C,R5*%
G36*
G01*
X449917000Y-313330000D02*
X450467000Y-313330000D01*
G75*
G02*
X450667000Y-313530000I0J-200000D01*
G01*
X450667000Y-313930000D01*
G75*
G02*
X450467000Y-314130000I-200000J0D01*
G01*
X449917000Y-314130000D01*
G75*
G02*
X449717000Y-313930000I0J200000D01*
G01*
X449717000Y-313530000D01*
G75*
G02*
X449917000Y-313330000I200000J0D01*
G01*
G37*
G36*
G01*
X449917000Y-311680000D02*
X450467000Y-311680000D01*
G75*
G02*
X450667000Y-311880000I0J-200000D01*
G01*
X450667000Y-312280000D01*
G75*
G02*
X450467000Y-312480000I-200000J0D01*
G01*
X449917000Y-312480000D01*
G75*
G02*
X449717000Y-312280000I0J200000D01*
G01*
X449717000Y-311880000D01*
G75*
G02*
X449917000Y-311680000I200000J0D01*
G01*
G37*
%TD*%
%TO.C,R4*%
G36*
G01*
X447250000Y-316886000D02*
X447800000Y-316886000D01*
G75*
G02*
X448000000Y-317086000I0J-200000D01*
G01*
X448000000Y-317486000D01*
G75*
G02*
X447800000Y-317686000I-200000J0D01*
G01*
X447250000Y-317686000D01*
G75*
G02*
X447050000Y-317486000I0J200000D01*
G01*
X447050000Y-317086000D01*
G75*
G02*
X447250000Y-316886000I200000J0D01*
G01*
G37*
G36*
G01*
X447250000Y-315236000D02*
X447800000Y-315236000D01*
G75*
G02*
X448000000Y-315436000I0J-200000D01*
G01*
X448000000Y-315836000D01*
G75*
G02*
X447800000Y-316036000I-200000J0D01*
G01*
X447250000Y-316036000D01*
G75*
G02*
X447050000Y-315836000I0J200000D01*
G01*
X447050000Y-315436000D01*
G75*
G02*
X447250000Y-315236000I200000J0D01*
G01*
G37*
%TD*%
%TO.C,R3*%
G36*
G01*
X447250000Y-313330000D02*
X447800000Y-313330000D01*
G75*
G02*
X448000000Y-313530000I0J-200000D01*
G01*
X448000000Y-313930000D01*
G75*
G02*
X447800000Y-314130000I-200000J0D01*
G01*
X447250000Y-314130000D01*
G75*
G02*
X447050000Y-313930000I0J200000D01*
G01*
X447050000Y-313530000D01*
G75*
G02*
X447250000Y-313330000I200000J0D01*
G01*
G37*
G36*
G01*
X447250000Y-311680000D02*
X447800000Y-311680000D01*
G75*
G02*
X448000000Y-311880000I0J-200000D01*
G01*
X448000000Y-312280000D01*
G75*
G02*
X447800000Y-312480000I-200000J0D01*
G01*
X447250000Y-312480000D01*
G75*
G02*
X447050000Y-312280000I0J200000D01*
G01*
X447050000Y-311880000D01*
G75*
G02*
X447250000Y-311680000I200000J0D01*
G01*
G37*
%TD*%
%TO.C,R2*%
G36*
G01*
X444583000Y-316886000D02*
X445133000Y-316886000D01*
G75*
G02*
X445333000Y-317086000I0J-200000D01*
G01*
X445333000Y-317486000D01*
G75*
G02*
X445133000Y-317686000I-200000J0D01*
G01*
X444583000Y-317686000D01*
G75*
G02*
X444383000Y-317486000I0J200000D01*
G01*
X444383000Y-317086000D01*
G75*
G02*
X444583000Y-316886000I200000J0D01*
G01*
G37*
G36*
G01*
X444583000Y-315236000D02*
X445133000Y-315236000D01*
G75*
G02*
X445333000Y-315436000I0J-200000D01*
G01*
X445333000Y-315836000D01*
G75*
G02*
X445133000Y-316036000I-200000J0D01*
G01*
X444583000Y-316036000D01*
G75*
G02*
X444383000Y-315836000I0J200000D01*
G01*
X444383000Y-315436000D01*
G75*
G02*
X444583000Y-315236000I200000J0D01*
G01*
G37*
%TD*%
%TO.C,R1*%
G36*
G01*
X444583000Y-313330000D02*
X445133000Y-313330000D01*
G75*
G02*
X445333000Y-313530000I0J-200000D01*
G01*
X445333000Y-313930000D01*
G75*
G02*
X445133000Y-314130000I-200000J0D01*
G01*
X444583000Y-314130000D01*
G75*
G02*
X444383000Y-313930000I0J200000D01*
G01*
X444383000Y-313530000D01*
G75*
G02*
X444583000Y-313330000I200000J0D01*
G01*
G37*
G36*
G01*
X444583000Y-311680000D02*
X445133000Y-311680000D01*
G75*
G02*
X445333000Y-311880000I0J-200000D01*
G01*
X445333000Y-312280000D01*
G75*
G02*
X445133000Y-312480000I-200000J0D01*
G01*
X444583000Y-312480000D01*
G75*
G02*
X444383000Y-312280000I0J200000D01*
G01*
X444383000Y-311880000D01*
G75*
G02*
X444583000Y-311680000I200000J0D01*
G01*
G37*
%TD*%
D10*
%TO.C,J7*%
X295633000Y-311889000D03*
X295633000Y-314429000D03*
D11*
X295633000Y-316969000D03*
%TD*%
D12*
%TO.C,H2*%
X323140000Y-314708000D03*
%TD*%
D13*
%TO.C,K1*%
X302665000Y-324508000D03*
X295165000Y-324508000D03*
X302665000Y-349708000D03*
X302665000Y-339708000D03*
X302665000Y-344708000D03*
X295165000Y-349708000D03*
X295165000Y-339708000D03*
X295165000Y-344708000D03*
%TD*%
D10*
%TO.C,J12*%
X389620000Y-313168000D03*
X389620000Y-315708000D03*
X387080000Y-313168000D03*
X387080000Y-315708000D03*
X384540000Y-313168000D03*
X384540000Y-315708000D03*
X382000000Y-313168000D03*
X382000000Y-315708000D03*
X379460000Y-313168000D03*
X379460000Y-315708000D03*
X376920000Y-313168000D03*
X376920000Y-315708000D03*
X374380000Y-313168000D03*
X374380000Y-315708000D03*
X371840000Y-313168000D03*
X371840000Y-315708000D03*
X369300000Y-313168000D03*
X369300000Y-315708000D03*
X366760000Y-313168000D03*
X366760000Y-315708000D03*
X364220000Y-313168000D03*
X364220000Y-315708000D03*
X361680000Y-313168000D03*
X361680000Y-315708000D03*
X359140000Y-313168000D03*
D11*
X359140000Y-315708000D03*
%TD*%
D13*
%TO.C,K2*%
X318665000Y-324508000D03*
X311165000Y-324508000D03*
X318665000Y-349708000D03*
X318665000Y-339708000D03*
X318665000Y-344708000D03*
X311165000Y-349708000D03*
X311165000Y-339708000D03*
X311165000Y-344708000D03*
%TD*%
%TO.C,K18*%
X409615000Y-304883000D03*
X417115000Y-304883000D03*
X409615000Y-279683000D03*
X409615000Y-289683000D03*
X409615000Y-284683000D03*
X417115000Y-279683000D03*
X417115000Y-289683000D03*
X417115000Y-284683000D03*
%TD*%
%TO.C,U3*%
G36*
G01*
X400610000Y-310933000D02*
X400310000Y-310933000D01*
G75*
G02*
X400160000Y-310783000I0J150000D01*
G01*
X400160000Y-309033000D01*
G75*
G02*
X400310000Y-308883000I150000J0D01*
G01*
X400610000Y-308883000D01*
G75*
G02*
X400760000Y-309033000I0J-150000D01*
G01*
X400760000Y-310783000D01*
G75*
G02*
X400610000Y-310933000I-150000J0D01*
G01*
G37*
G36*
G01*
X401880000Y-310933000D02*
X401580000Y-310933000D01*
G75*
G02*
X401430000Y-310783000I0J150000D01*
G01*
X401430000Y-309033000D01*
G75*
G02*
X401580000Y-308883000I150000J0D01*
G01*
X401880000Y-308883000D01*
G75*
G02*
X402030000Y-309033000I0J-150000D01*
G01*
X402030000Y-310783000D01*
G75*
G02*
X401880000Y-310933000I-150000J0D01*
G01*
G37*
G36*
G01*
X403150000Y-310933000D02*
X402850000Y-310933000D01*
G75*
G02*
X402700000Y-310783000I0J150000D01*
G01*
X402700000Y-309033000D01*
G75*
G02*
X402850000Y-308883000I150000J0D01*
G01*
X403150000Y-308883000D01*
G75*
G02*
X403300000Y-309033000I0J-150000D01*
G01*
X403300000Y-310783000D01*
G75*
G02*
X403150000Y-310933000I-150000J0D01*
G01*
G37*
G36*
G01*
X404420000Y-310933000D02*
X404120000Y-310933000D01*
G75*
G02*
X403970000Y-310783000I0J150000D01*
G01*
X403970000Y-309033000D01*
G75*
G02*
X404120000Y-308883000I150000J0D01*
G01*
X404420000Y-308883000D01*
G75*
G02*
X404570000Y-309033000I0J-150000D01*
G01*
X404570000Y-310783000D01*
G75*
G02*
X404420000Y-310933000I-150000J0D01*
G01*
G37*
G36*
G01*
X405690000Y-310933000D02*
X405390000Y-310933000D01*
G75*
G02*
X405240000Y-310783000I0J150000D01*
G01*
X405240000Y-309033000D01*
G75*
G02*
X405390000Y-308883000I150000J0D01*
G01*
X405690000Y-308883000D01*
G75*
G02*
X405840000Y-309033000I0J-150000D01*
G01*
X405840000Y-310783000D01*
G75*
G02*
X405690000Y-310933000I-150000J0D01*
G01*
G37*
G36*
G01*
X406960000Y-310933000D02*
X406660000Y-310933000D01*
G75*
G02*
X406510000Y-310783000I0J150000D01*
G01*
X406510000Y-309033000D01*
G75*
G02*
X406660000Y-308883000I150000J0D01*
G01*
X406960000Y-308883000D01*
G75*
G02*
X407110000Y-309033000I0J-150000D01*
G01*
X407110000Y-310783000D01*
G75*
G02*
X406960000Y-310933000I-150000J0D01*
G01*
G37*
G36*
G01*
X408230000Y-310933000D02*
X407930000Y-310933000D01*
G75*
G02*
X407780000Y-310783000I0J150000D01*
G01*
X407780000Y-309033000D01*
G75*
G02*
X407930000Y-308883000I150000J0D01*
G01*
X408230000Y-308883000D01*
G75*
G02*
X408380000Y-309033000I0J-150000D01*
G01*
X408380000Y-310783000D01*
G75*
G02*
X408230000Y-310933000I-150000J0D01*
G01*
G37*
G36*
G01*
X409500000Y-310933000D02*
X409200000Y-310933000D01*
G75*
G02*
X409050000Y-310783000I0J150000D01*
G01*
X409050000Y-309033000D01*
G75*
G02*
X409200000Y-308883000I150000J0D01*
G01*
X409500000Y-308883000D01*
G75*
G02*
X409650000Y-309033000I0J-150000D01*
G01*
X409650000Y-310783000D01*
G75*
G02*
X409500000Y-310933000I-150000J0D01*
G01*
G37*
G36*
G01*
X410770000Y-310933000D02*
X410470000Y-310933000D01*
G75*
G02*
X410320000Y-310783000I0J150000D01*
G01*
X410320000Y-309033000D01*
G75*
G02*
X410470000Y-308883000I150000J0D01*
G01*
X410770000Y-308883000D01*
G75*
G02*
X410920000Y-309033000I0J-150000D01*
G01*
X410920000Y-310783000D01*
G75*
G02*
X410770000Y-310933000I-150000J0D01*
G01*
G37*
G36*
G01*
X410770000Y-320233000D02*
X410470000Y-320233000D01*
G75*
G02*
X410320000Y-320083000I0J150000D01*
G01*
X410320000Y-318333000D01*
G75*
G02*
X410470000Y-318183000I150000J0D01*
G01*
X410770000Y-318183000D01*
G75*
G02*
X410920000Y-318333000I0J-150000D01*
G01*
X410920000Y-320083000D01*
G75*
G02*
X410770000Y-320233000I-150000J0D01*
G01*
G37*
G36*
G01*
X409500000Y-320233000D02*
X409200000Y-320233000D01*
G75*
G02*
X409050000Y-320083000I0J150000D01*
G01*
X409050000Y-318333000D01*
G75*
G02*
X409200000Y-318183000I150000J0D01*
G01*
X409500000Y-318183000D01*
G75*
G02*
X409650000Y-318333000I0J-150000D01*
G01*
X409650000Y-320083000D01*
G75*
G02*
X409500000Y-320233000I-150000J0D01*
G01*
G37*
G36*
G01*
X408230000Y-320233000D02*
X407930000Y-320233000D01*
G75*
G02*
X407780000Y-320083000I0J150000D01*
G01*
X407780000Y-318333000D01*
G75*
G02*
X407930000Y-318183000I150000J0D01*
G01*
X408230000Y-318183000D01*
G75*
G02*
X408380000Y-318333000I0J-150000D01*
G01*
X408380000Y-320083000D01*
G75*
G02*
X408230000Y-320233000I-150000J0D01*
G01*
G37*
G36*
G01*
X406960000Y-320233000D02*
X406660000Y-320233000D01*
G75*
G02*
X406510000Y-320083000I0J150000D01*
G01*
X406510000Y-318333000D01*
G75*
G02*
X406660000Y-318183000I150000J0D01*
G01*
X406960000Y-318183000D01*
G75*
G02*
X407110000Y-318333000I0J-150000D01*
G01*
X407110000Y-320083000D01*
G75*
G02*
X406960000Y-320233000I-150000J0D01*
G01*
G37*
G36*
G01*
X405690000Y-320233000D02*
X405390000Y-320233000D01*
G75*
G02*
X405240000Y-320083000I0J150000D01*
G01*
X405240000Y-318333000D01*
G75*
G02*
X405390000Y-318183000I150000J0D01*
G01*
X405690000Y-318183000D01*
G75*
G02*
X405840000Y-318333000I0J-150000D01*
G01*
X405840000Y-320083000D01*
G75*
G02*
X405690000Y-320233000I-150000J0D01*
G01*
G37*
G36*
G01*
X404420000Y-320233000D02*
X404120000Y-320233000D01*
G75*
G02*
X403970000Y-320083000I0J150000D01*
G01*
X403970000Y-318333000D01*
G75*
G02*
X404120000Y-318183000I150000J0D01*
G01*
X404420000Y-318183000D01*
G75*
G02*
X404570000Y-318333000I0J-150000D01*
G01*
X404570000Y-320083000D01*
G75*
G02*
X404420000Y-320233000I-150000J0D01*
G01*
G37*
G36*
G01*
X403150000Y-320233000D02*
X402850000Y-320233000D01*
G75*
G02*
X402700000Y-320083000I0J150000D01*
G01*
X402700000Y-318333000D01*
G75*
G02*
X402850000Y-318183000I150000J0D01*
G01*
X403150000Y-318183000D01*
G75*
G02*
X403300000Y-318333000I0J-150000D01*
G01*
X403300000Y-320083000D01*
G75*
G02*
X403150000Y-320233000I-150000J0D01*
G01*
G37*
G36*
G01*
X401880000Y-320233000D02*
X401580000Y-320233000D01*
G75*
G02*
X401430000Y-320083000I0J150000D01*
G01*
X401430000Y-318333000D01*
G75*
G02*
X401580000Y-318183000I150000J0D01*
G01*
X401880000Y-318183000D01*
G75*
G02*
X402030000Y-318333000I0J-150000D01*
G01*
X402030000Y-320083000D01*
G75*
G02*
X401880000Y-320233000I-150000J0D01*
G01*
G37*
G36*
G01*
X400610000Y-320233000D02*
X400310000Y-320233000D01*
G75*
G02*
X400160000Y-320083000I0J150000D01*
G01*
X400160000Y-318333000D01*
G75*
G02*
X400310000Y-318183000I150000J0D01*
G01*
X400610000Y-318183000D01*
G75*
G02*
X400760000Y-318333000I0J-150000D01*
G01*
X400760000Y-320083000D01*
G75*
G02*
X400610000Y-320233000I-150000J0D01*
G01*
G37*
%TD*%
%TO.C,U2*%
G36*
G01*
X346470000Y-317933000D02*
X346770000Y-317933000D01*
G75*
G02*
X346920000Y-318083000I0J-150000D01*
G01*
X346920000Y-319833000D01*
G75*
G02*
X346770000Y-319983000I-150000J0D01*
G01*
X346470000Y-319983000D01*
G75*
G02*
X346320000Y-319833000I0J150000D01*
G01*
X346320000Y-318083000D01*
G75*
G02*
X346470000Y-317933000I150000J0D01*
G01*
G37*
G36*
G01*
X345200000Y-317933000D02*
X345500000Y-317933000D01*
G75*
G02*
X345650000Y-318083000I0J-150000D01*
G01*
X345650000Y-319833000D01*
G75*
G02*
X345500000Y-319983000I-150000J0D01*
G01*
X345200000Y-319983000D01*
G75*
G02*
X345050000Y-319833000I0J150000D01*
G01*
X345050000Y-318083000D01*
G75*
G02*
X345200000Y-317933000I150000J0D01*
G01*
G37*
G36*
G01*
X343930000Y-317933000D02*
X344230000Y-317933000D01*
G75*
G02*
X344380000Y-318083000I0J-150000D01*
G01*
X344380000Y-319833000D01*
G75*
G02*
X344230000Y-319983000I-150000J0D01*
G01*
X343930000Y-319983000D01*
G75*
G02*
X343780000Y-319833000I0J150000D01*
G01*
X343780000Y-318083000D01*
G75*
G02*
X343930000Y-317933000I150000J0D01*
G01*
G37*
G36*
G01*
X342660000Y-317933000D02*
X342960000Y-317933000D01*
G75*
G02*
X343110000Y-318083000I0J-150000D01*
G01*
X343110000Y-319833000D01*
G75*
G02*
X342960000Y-319983000I-150000J0D01*
G01*
X342660000Y-319983000D01*
G75*
G02*
X342510000Y-319833000I0J150000D01*
G01*
X342510000Y-318083000D01*
G75*
G02*
X342660000Y-317933000I150000J0D01*
G01*
G37*
G36*
G01*
X341390000Y-317933000D02*
X341690000Y-317933000D01*
G75*
G02*
X341840000Y-318083000I0J-150000D01*
G01*
X341840000Y-319833000D01*
G75*
G02*
X341690000Y-319983000I-150000J0D01*
G01*
X341390000Y-319983000D01*
G75*
G02*
X341240000Y-319833000I0J150000D01*
G01*
X341240000Y-318083000D01*
G75*
G02*
X341390000Y-317933000I150000J0D01*
G01*
G37*
G36*
G01*
X340120000Y-317933000D02*
X340420000Y-317933000D01*
G75*
G02*
X340570000Y-318083000I0J-150000D01*
G01*
X340570000Y-319833000D01*
G75*
G02*
X340420000Y-319983000I-150000J0D01*
G01*
X340120000Y-319983000D01*
G75*
G02*
X339970000Y-319833000I0J150000D01*
G01*
X339970000Y-318083000D01*
G75*
G02*
X340120000Y-317933000I150000J0D01*
G01*
G37*
G36*
G01*
X338850000Y-317933000D02*
X339150000Y-317933000D01*
G75*
G02*
X339300000Y-318083000I0J-150000D01*
G01*
X339300000Y-319833000D01*
G75*
G02*
X339150000Y-319983000I-150000J0D01*
G01*
X338850000Y-319983000D01*
G75*
G02*
X338700000Y-319833000I0J150000D01*
G01*
X338700000Y-318083000D01*
G75*
G02*
X338850000Y-317933000I150000J0D01*
G01*
G37*
G36*
G01*
X337580000Y-317933000D02*
X337880000Y-317933000D01*
G75*
G02*
X338030000Y-318083000I0J-150000D01*
G01*
X338030000Y-319833000D01*
G75*
G02*
X337880000Y-319983000I-150000J0D01*
G01*
X337580000Y-319983000D01*
G75*
G02*
X337430000Y-319833000I0J150000D01*
G01*
X337430000Y-318083000D01*
G75*
G02*
X337580000Y-317933000I150000J0D01*
G01*
G37*
G36*
G01*
X336310000Y-317933000D02*
X336610000Y-317933000D01*
G75*
G02*
X336760000Y-318083000I0J-150000D01*
G01*
X336760000Y-319833000D01*
G75*
G02*
X336610000Y-319983000I-150000J0D01*
G01*
X336310000Y-319983000D01*
G75*
G02*
X336160000Y-319833000I0J150000D01*
G01*
X336160000Y-318083000D01*
G75*
G02*
X336310000Y-317933000I150000J0D01*
G01*
G37*
G36*
G01*
X336310000Y-308633000D02*
X336610000Y-308633000D01*
G75*
G02*
X336760000Y-308783000I0J-150000D01*
G01*
X336760000Y-310533000D01*
G75*
G02*
X336610000Y-310683000I-150000J0D01*
G01*
X336310000Y-310683000D01*
G75*
G02*
X336160000Y-310533000I0J150000D01*
G01*
X336160000Y-308783000D01*
G75*
G02*
X336310000Y-308633000I150000J0D01*
G01*
G37*
G36*
G01*
X337580000Y-308633000D02*
X337880000Y-308633000D01*
G75*
G02*
X338030000Y-308783000I0J-150000D01*
G01*
X338030000Y-310533000D01*
G75*
G02*
X337880000Y-310683000I-150000J0D01*
G01*
X337580000Y-310683000D01*
G75*
G02*
X337430000Y-310533000I0J150000D01*
G01*
X337430000Y-308783000D01*
G75*
G02*
X337580000Y-308633000I150000J0D01*
G01*
G37*
G36*
G01*
X338850000Y-308633000D02*
X339150000Y-308633000D01*
G75*
G02*
X339300000Y-308783000I0J-150000D01*
G01*
X339300000Y-310533000D01*
G75*
G02*
X339150000Y-310683000I-150000J0D01*
G01*
X338850000Y-310683000D01*
G75*
G02*
X338700000Y-310533000I0J150000D01*
G01*
X338700000Y-308783000D01*
G75*
G02*
X338850000Y-308633000I150000J0D01*
G01*
G37*
G36*
G01*
X340120000Y-308633000D02*
X340420000Y-308633000D01*
G75*
G02*
X340570000Y-308783000I0J-150000D01*
G01*
X340570000Y-310533000D01*
G75*
G02*
X340420000Y-310683000I-150000J0D01*
G01*
X340120000Y-310683000D01*
G75*
G02*
X339970000Y-310533000I0J150000D01*
G01*
X339970000Y-308783000D01*
G75*
G02*
X340120000Y-308633000I150000J0D01*
G01*
G37*
G36*
G01*
X341390000Y-308633000D02*
X341690000Y-308633000D01*
G75*
G02*
X341840000Y-308783000I0J-150000D01*
G01*
X341840000Y-310533000D01*
G75*
G02*
X341690000Y-310683000I-150000J0D01*
G01*
X341390000Y-310683000D01*
G75*
G02*
X341240000Y-310533000I0J150000D01*
G01*
X341240000Y-308783000D01*
G75*
G02*
X341390000Y-308633000I150000J0D01*
G01*
G37*
G36*
G01*
X342660000Y-308633000D02*
X342960000Y-308633000D01*
G75*
G02*
X343110000Y-308783000I0J-150000D01*
G01*
X343110000Y-310533000D01*
G75*
G02*
X342960000Y-310683000I-150000J0D01*
G01*
X342660000Y-310683000D01*
G75*
G02*
X342510000Y-310533000I0J150000D01*
G01*
X342510000Y-308783000D01*
G75*
G02*
X342660000Y-308633000I150000J0D01*
G01*
G37*
G36*
G01*
X343930000Y-308633000D02*
X344230000Y-308633000D01*
G75*
G02*
X344380000Y-308783000I0J-150000D01*
G01*
X344380000Y-310533000D01*
G75*
G02*
X344230000Y-310683000I-150000J0D01*
G01*
X343930000Y-310683000D01*
G75*
G02*
X343780000Y-310533000I0J150000D01*
G01*
X343780000Y-308783000D01*
G75*
G02*
X343930000Y-308633000I150000J0D01*
G01*
G37*
G36*
G01*
X345200000Y-308633000D02*
X345500000Y-308633000D01*
G75*
G02*
X345650000Y-308783000I0J-150000D01*
G01*
X345650000Y-310533000D01*
G75*
G02*
X345500000Y-310683000I-150000J0D01*
G01*
X345200000Y-310683000D01*
G75*
G02*
X345050000Y-310533000I0J150000D01*
G01*
X345050000Y-308783000D01*
G75*
G02*
X345200000Y-308633000I150000J0D01*
G01*
G37*
G36*
G01*
X346470000Y-308633000D02*
X346770000Y-308633000D01*
G75*
G02*
X346920000Y-308783000I0J-150000D01*
G01*
X346920000Y-310533000D01*
G75*
G02*
X346770000Y-310683000I-150000J0D01*
G01*
X346470000Y-310683000D01*
G75*
G02*
X346320000Y-310533000I0J150000D01*
G01*
X346320000Y-308783000D01*
G75*
G02*
X346470000Y-308633000I150000J0D01*
G01*
G37*
%TD*%
%TO.C,U1*%
G36*
G01*
X301410000Y-310933000D02*
X301110000Y-310933000D01*
G75*
G02*
X300960000Y-310783000I0J150000D01*
G01*
X300960000Y-309033000D01*
G75*
G02*
X301110000Y-308883000I150000J0D01*
G01*
X301410000Y-308883000D01*
G75*
G02*
X301560000Y-309033000I0J-150000D01*
G01*
X301560000Y-310783000D01*
G75*
G02*
X301410000Y-310933000I-150000J0D01*
G01*
G37*
G36*
G01*
X302680000Y-310933000D02*
X302380000Y-310933000D01*
G75*
G02*
X302230000Y-310783000I0J150000D01*
G01*
X302230000Y-309033000D01*
G75*
G02*
X302380000Y-308883000I150000J0D01*
G01*
X302680000Y-308883000D01*
G75*
G02*
X302830000Y-309033000I0J-150000D01*
G01*
X302830000Y-310783000D01*
G75*
G02*
X302680000Y-310933000I-150000J0D01*
G01*
G37*
G36*
G01*
X303950000Y-310933000D02*
X303650000Y-310933000D01*
G75*
G02*
X303500000Y-310783000I0J150000D01*
G01*
X303500000Y-309033000D01*
G75*
G02*
X303650000Y-308883000I150000J0D01*
G01*
X303950000Y-308883000D01*
G75*
G02*
X304100000Y-309033000I0J-150000D01*
G01*
X304100000Y-310783000D01*
G75*
G02*
X303950000Y-310933000I-150000J0D01*
G01*
G37*
G36*
G01*
X305220000Y-310933000D02*
X304920000Y-310933000D01*
G75*
G02*
X304770000Y-310783000I0J150000D01*
G01*
X304770000Y-309033000D01*
G75*
G02*
X304920000Y-308883000I150000J0D01*
G01*
X305220000Y-308883000D01*
G75*
G02*
X305370000Y-309033000I0J-150000D01*
G01*
X305370000Y-310783000D01*
G75*
G02*
X305220000Y-310933000I-150000J0D01*
G01*
G37*
G36*
G01*
X306490000Y-310933000D02*
X306190000Y-310933000D01*
G75*
G02*
X306040000Y-310783000I0J150000D01*
G01*
X306040000Y-309033000D01*
G75*
G02*
X306190000Y-308883000I150000J0D01*
G01*
X306490000Y-308883000D01*
G75*
G02*
X306640000Y-309033000I0J-150000D01*
G01*
X306640000Y-310783000D01*
G75*
G02*
X306490000Y-310933000I-150000J0D01*
G01*
G37*
G36*
G01*
X307760000Y-310933000D02*
X307460000Y-310933000D01*
G75*
G02*
X307310000Y-310783000I0J150000D01*
G01*
X307310000Y-309033000D01*
G75*
G02*
X307460000Y-308883000I150000J0D01*
G01*
X307760000Y-308883000D01*
G75*
G02*
X307910000Y-309033000I0J-150000D01*
G01*
X307910000Y-310783000D01*
G75*
G02*
X307760000Y-310933000I-150000J0D01*
G01*
G37*
G36*
G01*
X309030000Y-310933000D02*
X308730000Y-310933000D01*
G75*
G02*
X308580000Y-310783000I0J150000D01*
G01*
X308580000Y-309033000D01*
G75*
G02*
X308730000Y-308883000I150000J0D01*
G01*
X309030000Y-308883000D01*
G75*
G02*
X309180000Y-309033000I0J-150000D01*
G01*
X309180000Y-310783000D01*
G75*
G02*
X309030000Y-310933000I-150000J0D01*
G01*
G37*
G36*
G01*
X310300000Y-310933000D02*
X310000000Y-310933000D01*
G75*
G02*
X309850000Y-310783000I0J150000D01*
G01*
X309850000Y-309033000D01*
G75*
G02*
X310000000Y-308883000I150000J0D01*
G01*
X310300000Y-308883000D01*
G75*
G02*
X310450000Y-309033000I0J-150000D01*
G01*
X310450000Y-310783000D01*
G75*
G02*
X310300000Y-310933000I-150000J0D01*
G01*
G37*
G36*
G01*
X311570000Y-310933000D02*
X311270000Y-310933000D01*
G75*
G02*
X311120000Y-310783000I0J150000D01*
G01*
X311120000Y-309033000D01*
G75*
G02*
X311270000Y-308883000I150000J0D01*
G01*
X311570000Y-308883000D01*
G75*
G02*
X311720000Y-309033000I0J-150000D01*
G01*
X311720000Y-310783000D01*
G75*
G02*
X311570000Y-310933000I-150000J0D01*
G01*
G37*
G36*
G01*
X311570000Y-320233000D02*
X311270000Y-320233000D01*
G75*
G02*
X311120000Y-320083000I0J150000D01*
G01*
X311120000Y-318333000D01*
G75*
G02*
X311270000Y-318183000I150000J0D01*
G01*
X311570000Y-318183000D01*
G75*
G02*
X311720000Y-318333000I0J-150000D01*
G01*
X311720000Y-320083000D01*
G75*
G02*
X311570000Y-320233000I-150000J0D01*
G01*
G37*
G36*
G01*
X310300000Y-320233000D02*
X310000000Y-320233000D01*
G75*
G02*
X309850000Y-320083000I0J150000D01*
G01*
X309850000Y-318333000D01*
G75*
G02*
X310000000Y-318183000I150000J0D01*
G01*
X310300000Y-318183000D01*
G75*
G02*
X310450000Y-318333000I0J-150000D01*
G01*
X310450000Y-320083000D01*
G75*
G02*
X310300000Y-320233000I-150000J0D01*
G01*
G37*
G36*
G01*
X309030000Y-320233000D02*
X308730000Y-320233000D01*
G75*
G02*
X308580000Y-320083000I0J150000D01*
G01*
X308580000Y-318333000D01*
G75*
G02*
X308730000Y-318183000I150000J0D01*
G01*
X309030000Y-318183000D01*
G75*
G02*
X309180000Y-318333000I0J-150000D01*
G01*
X309180000Y-320083000D01*
G75*
G02*
X309030000Y-320233000I-150000J0D01*
G01*
G37*
G36*
G01*
X307760000Y-320233000D02*
X307460000Y-320233000D01*
G75*
G02*
X307310000Y-320083000I0J150000D01*
G01*
X307310000Y-318333000D01*
G75*
G02*
X307460000Y-318183000I150000J0D01*
G01*
X307760000Y-318183000D01*
G75*
G02*
X307910000Y-318333000I0J-150000D01*
G01*
X307910000Y-320083000D01*
G75*
G02*
X307760000Y-320233000I-150000J0D01*
G01*
G37*
G36*
G01*
X306490000Y-320233000D02*
X306190000Y-320233000D01*
G75*
G02*
X306040000Y-320083000I0J150000D01*
G01*
X306040000Y-318333000D01*
G75*
G02*
X306190000Y-318183000I150000J0D01*
G01*
X306490000Y-318183000D01*
G75*
G02*
X306640000Y-318333000I0J-150000D01*
G01*
X306640000Y-320083000D01*
G75*
G02*
X306490000Y-320233000I-150000J0D01*
G01*
G37*
G36*
G01*
X305220000Y-320233000D02*
X304920000Y-320233000D01*
G75*
G02*
X304770000Y-320083000I0J150000D01*
G01*
X304770000Y-318333000D01*
G75*
G02*
X304920000Y-318183000I150000J0D01*
G01*
X305220000Y-318183000D01*
G75*
G02*
X305370000Y-318333000I0J-150000D01*
G01*
X305370000Y-320083000D01*
G75*
G02*
X305220000Y-320233000I-150000J0D01*
G01*
G37*
G36*
G01*
X303950000Y-320233000D02*
X303650000Y-320233000D01*
G75*
G02*
X303500000Y-320083000I0J150000D01*
G01*
X303500000Y-318333000D01*
G75*
G02*
X303650000Y-318183000I150000J0D01*
G01*
X303950000Y-318183000D01*
G75*
G02*
X304100000Y-318333000I0J-150000D01*
G01*
X304100000Y-320083000D01*
G75*
G02*
X303950000Y-320233000I-150000J0D01*
G01*
G37*
G36*
G01*
X302680000Y-320233000D02*
X302380000Y-320233000D01*
G75*
G02*
X302230000Y-320083000I0J150000D01*
G01*
X302230000Y-318333000D01*
G75*
G02*
X302380000Y-318183000I150000J0D01*
G01*
X302680000Y-318183000D01*
G75*
G02*
X302830000Y-318333000I0J-150000D01*
G01*
X302830000Y-320083000D01*
G75*
G02*
X302680000Y-320233000I-150000J0D01*
G01*
G37*
G36*
G01*
X301410000Y-320233000D02*
X301110000Y-320233000D01*
G75*
G02*
X300960000Y-320083000I0J150000D01*
G01*
X300960000Y-318333000D01*
G75*
G02*
X301110000Y-318183000I150000J0D01*
G01*
X301410000Y-318183000D01*
G75*
G02*
X301560000Y-318333000I0J-150000D01*
G01*
X301560000Y-320083000D01*
G75*
G02*
X301410000Y-320233000I-150000J0D01*
G01*
G37*
%TD*%
%TO.C,K20*%
X442615000Y-304883000D03*
X450115000Y-304883000D03*
X442615000Y-279683000D03*
X442615000Y-289683000D03*
X442615000Y-284683000D03*
X450115000Y-279683000D03*
X450115000Y-289683000D03*
X450115000Y-284683000D03*
%TD*%
%TO.C,K19*%
X426615000Y-304883000D03*
X434115000Y-304883000D03*
X426615000Y-279683000D03*
X426615000Y-289683000D03*
X426615000Y-284683000D03*
X434115000Y-279683000D03*
X434115000Y-289683000D03*
X434115000Y-284683000D03*
%TD*%
%TO.C,K17*%
X393615000Y-304883000D03*
X401115000Y-304883000D03*
X393615000Y-279683000D03*
X393615000Y-289683000D03*
X393615000Y-284683000D03*
X401115000Y-279683000D03*
X401115000Y-289683000D03*
X401115000Y-284683000D03*
%TD*%
%TO.C,K16*%
X376615000Y-304883000D03*
X384115000Y-304883000D03*
X376615000Y-279683000D03*
X376615000Y-289683000D03*
X376615000Y-284683000D03*
X384115000Y-279683000D03*
X384115000Y-289683000D03*
X384115000Y-284683000D03*
%TD*%
%TO.C,K15*%
X360615000Y-304883000D03*
X368115000Y-304883000D03*
X360615000Y-279683000D03*
X360615000Y-289683000D03*
X360615000Y-284683000D03*
X368115000Y-279683000D03*
X368115000Y-289683000D03*
X368115000Y-284683000D03*
%TD*%
%TO.C,K14*%
X343615000Y-304883000D03*
X351115000Y-304883000D03*
X343615000Y-279683000D03*
X343615000Y-289683000D03*
X343615000Y-284683000D03*
X351115000Y-279683000D03*
X351115000Y-289683000D03*
X351115000Y-284683000D03*
%TD*%
%TO.C,K13*%
X327615000Y-304883000D03*
X335115000Y-304883000D03*
X327615000Y-279683000D03*
X327615000Y-289683000D03*
X327615000Y-284683000D03*
X335115000Y-279683000D03*
X335115000Y-289683000D03*
X335115000Y-284683000D03*
%TD*%
%TO.C,K12*%
X310615000Y-304883000D03*
X318115000Y-304883000D03*
X310615000Y-279683000D03*
X310615000Y-289683000D03*
X310615000Y-284683000D03*
X318115000Y-279683000D03*
X318115000Y-289683000D03*
X318115000Y-284683000D03*
%TD*%
%TO.C,K11*%
X294615000Y-304883000D03*
X302115000Y-304883000D03*
X294615000Y-279683000D03*
X294615000Y-289683000D03*
X294615000Y-284683000D03*
X302115000Y-279683000D03*
X302115000Y-289683000D03*
X302115000Y-284683000D03*
%TD*%
%TO.C,K10*%
X450665000Y-324508000D03*
X443165000Y-324508000D03*
X450665000Y-349708000D03*
X450665000Y-339708000D03*
X450665000Y-344708000D03*
X443165000Y-349708000D03*
X443165000Y-339708000D03*
X443165000Y-344708000D03*
%TD*%
%TO.C,K9*%
X434665000Y-324508000D03*
X427165000Y-324508000D03*
X434665000Y-349708000D03*
X434665000Y-339708000D03*
X434665000Y-344708000D03*
X427165000Y-349708000D03*
X427165000Y-339708000D03*
X427165000Y-344708000D03*
%TD*%
%TO.C,K8*%
X417665000Y-324508000D03*
X410165000Y-324508000D03*
X417665000Y-349708000D03*
X417665000Y-339708000D03*
X417665000Y-344708000D03*
X410165000Y-349708000D03*
X410165000Y-339708000D03*
X410165000Y-344708000D03*
%TD*%
%TO.C,K7*%
X401665000Y-324508000D03*
X394165000Y-324508000D03*
X401665000Y-349708000D03*
X401665000Y-339708000D03*
X401665000Y-344708000D03*
X394165000Y-349708000D03*
X394165000Y-339708000D03*
X394165000Y-344708000D03*
%TD*%
%TO.C,K6*%
X384665000Y-324508000D03*
X377165000Y-324508000D03*
X384665000Y-349708000D03*
X384665000Y-339708000D03*
X384665000Y-344708000D03*
X377165000Y-349708000D03*
X377165000Y-339708000D03*
X377165000Y-344708000D03*
%TD*%
%TO.C,K5*%
X368665000Y-324508000D03*
X361165000Y-324508000D03*
X368665000Y-349708000D03*
X368665000Y-339708000D03*
X368665000Y-344708000D03*
X361165000Y-349708000D03*
X361165000Y-339708000D03*
X361165000Y-344708000D03*
%TD*%
%TO.C,K4*%
X351665000Y-324508000D03*
X344165000Y-324508000D03*
X351665000Y-349708000D03*
X351665000Y-339708000D03*
X351665000Y-344708000D03*
X344165000Y-349708000D03*
X344165000Y-339708000D03*
X344165000Y-344708000D03*
%TD*%
%TO.C,K3*%
X335665000Y-324508000D03*
X328165000Y-324508000D03*
X335665000Y-349708000D03*
X335665000Y-339708000D03*
X335665000Y-344708000D03*
X328165000Y-349708000D03*
X328165000Y-339708000D03*
X328165000Y-344708000D03*
%TD*%
D14*
%TO.C,J1*%
X318190000Y-355683000D03*
X310690000Y-355683000D03*
X303190000Y-355683000D03*
G36*
G01*
X294690000Y-357233000D02*
X294690000Y-354133000D01*
G75*
G02*
X294940000Y-353883000I250000J0D01*
G01*
X296440000Y-353883000D01*
G75*
G02*
X296690000Y-354133000I0J-250000D01*
G01*
X296690000Y-357233000D01*
G75*
G02*
X296440000Y-357483000I-250000J0D01*
G01*
X294940000Y-357483000D01*
G75*
G02*
X294690000Y-357233000I0J250000D01*
G01*
G37*
%TD*%
%TO.C,J11*%
X427190000Y-273783000D03*
X434690000Y-273783000D03*
X442190000Y-273783000D03*
G36*
G01*
X450690000Y-272233000D02*
X450690000Y-275333000D01*
G75*
G02*
X450440000Y-275583000I-250000J0D01*
G01*
X448940000Y-275583000D01*
G75*
G02*
X448690000Y-275333000I0J250000D01*
G01*
X448690000Y-272233000D01*
G75*
G02*
X448940000Y-271983000I250000J0D01*
G01*
X450440000Y-271983000D01*
G75*
G02*
X450690000Y-272233000I0J-250000D01*
G01*
G37*
%TD*%
%TO.C,J10*%
X394190000Y-273758000D03*
X401690000Y-273758000D03*
X409190000Y-273758000D03*
G36*
G01*
X417690000Y-272208000D02*
X417690000Y-275308000D01*
G75*
G02*
X417440000Y-275558000I-250000J0D01*
G01*
X415940000Y-275558000D01*
G75*
G02*
X415690000Y-275308000I0J250000D01*
G01*
X415690000Y-272208000D01*
G75*
G02*
X415940000Y-271958000I250000J0D01*
G01*
X417440000Y-271958000D01*
G75*
G02*
X417690000Y-272208000I0J-250000D01*
G01*
G37*
%TD*%
%TO.C,J9*%
X328190000Y-273758000D03*
X335690000Y-273758000D03*
X343190000Y-273758000D03*
G36*
G01*
X351690000Y-272208000D02*
X351690000Y-275308000D01*
G75*
G02*
X351440000Y-275558000I-250000J0D01*
G01*
X349940000Y-275558000D01*
G75*
G02*
X349690000Y-275308000I0J250000D01*
G01*
X349690000Y-272208000D01*
G75*
G02*
X349940000Y-271958000I250000J0D01*
G01*
X351440000Y-271958000D01*
G75*
G02*
X351690000Y-272208000I0J-250000D01*
G01*
G37*
%TD*%
%TO.C,J8*%
X361190000Y-273758000D03*
X368690000Y-273758000D03*
X376190000Y-273758000D03*
G36*
G01*
X384690000Y-272208000D02*
X384690000Y-275308000D01*
G75*
G02*
X384440000Y-275558000I-250000J0D01*
G01*
X382940000Y-275558000D01*
G75*
G02*
X382690000Y-275308000I0J250000D01*
G01*
X382690000Y-272208000D01*
G75*
G02*
X382940000Y-271958000I250000J0D01*
G01*
X384440000Y-271958000D01*
G75*
G02*
X384690000Y-272208000I0J-250000D01*
G01*
G37*
%TD*%
%TO.C,J6*%
X295215000Y-273758000D03*
X302715000Y-273758000D03*
X310215000Y-273758000D03*
G36*
G01*
X318715000Y-272208000D02*
X318715000Y-275308000D01*
G75*
G02*
X318465000Y-275558000I-250000J0D01*
G01*
X316965000Y-275558000D01*
G75*
G02*
X316715000Y-275308000I0J250000D01*
G01*
X316715000Y-272208000D01*
G75*
G02*
X316965000Y-271958000I250000J0D01*
G01*
X318465000Y-271958000D01*
G75*
G02*
X318715000Y-272208000I0J-250000D01*
G01*
G37*
%TD*%
%TO.C,J5*%
X450190000Y-355683000D03*
X442690000Y-355683000D03*
X435190000Y-355683000D03*
G36*
G01*
X426690000Y-357233000D02*
X426690000Y-354133000D01*
G75*
G02*
X426940000Y-353883000I250000J0D01*
G01*
X428440000Y-353883000D01*
G75*
G02*
X428690000Y-354133000I0J-250000D01*
G01*
X428690000Y-357233000D01*
G75*
G02*
X428440000Y-357483000I-250000J0D01*
G01*
X426940000Y-357483000D01*
G75*
G02*
X426690000Y-357233000I0J250000D01*
G01*
G37*
%TD*%
%TO.C,J4*%
X417190000Y-355683000D03*
X409690000Y-355683000D03*
X402190000Y-355683000D03*
G36*
G01*
X393690000Y-357233000D02*
X393690000Y-354133000D01*
G75*
G02*
X393940000Y-353883000I250000J0D01*
G01*
X395440000Y-353883000D01*
G75*
G02*
X395690000Y-354133000I0J-250000D01*
G01*
X395690000Y-357233000D01*
G75*
G02*
X395440000Y-357483000I-250000J0D01*
G01*
X393940000Y-357483000D01*
G75*
G02*
X393690000Y-357233000I0J250000D01*
G01*
G37*
%TD*%
%TO.C,J3*%
X384190000Y-355683000D03*
X376690000Y-355683000D03*
X369190000Y-355683000D03*
G36*
G01*
X360690000Y-357233000D02*
X360690000Y-354133000D01*
G75*
G02*
X360940000Y-353883000I250000J0D01*
G01*
X362440000Y-353883000D01*
G75*
G02*
X362690000Y-354133000I0J-250000D01*
G01*
X362690000Y-357233000D01*
G75*
G02*
X362440000Y-357483000I-250000J0D01*
G01*
X360940000Y-357483000D01*
G75*
G02*
X360690000Y-357233000I0J250000D01*
G01*
G37*
%TD*%
%TO.C,J2*%
X351190000Y-355683000D03*
X343690000Y-355683000D03*
X336190000Y-355683000D03*
G36*
G01*
X327690000Y-357233000D02*
X327690000Y-354133000D01*
G75*
G02*
X327940000Y-353883000I250000J0D01*
G01*
X329440000Y-353883000D01*
G75*
G02*
X329690000Y-354133000I0J-250000D01*
G01*
X329690000Y-357233000D01*
G75*
G02*
X329440000Y-357483000I-250000J0D01*
G01*
X327940000Y-357483000D01*
G75*
G02*
X327690000Y-357233000I0J250000D01*
G01*
G37*
%TD*%
D12*
%TO.C,H1*%
X422140000Y-314708000D03*
%TD*%
M02*
