%TF.GenerationSoftware,KiCad,Pcbnew,(5.1.6)-1*%
%TF.CreationDate,2021-11-09T09:23:04+01:00*%
%TF.ProjectId,boneIO_input board_v0.3,626f6e65-494f-45f6-996e-70757420626f,rev?*%
%TF.SameCoordinates,Original*%
%TF.FileFunction,Soldermask,Bot*%
%TF.FilePolarity,Negative*%
%FSLAX46Y46*%
G04 Gerber Fmt 4.6, Leading zero omitted, Abs format (unit mm)*
G04 Created by KiCad (PCBNEW (5.1.6)-1) date 2021-11-09 09:23:04*
%MOMM*%
%LPD*%
G01*
G04 APERTURE LIST*
%ADD10R,1.700000X1.700000*%
%ADD11O,1.700000X1.700000*%
%ADD12O,2.000000X3.600000*%
%ADD13C,2.540000*%
%ADD14R,2.540000X2.540000*%
%ADD15C,1.000000*%
%ADD16C,1.600000*%
%ADD17R,1.600000X1.600000*%
%ADD18C,3.000000*%
%ADD19O,1.500000X3.000000*%
%ADD20C,2.000000*%
G04 APERTURE END LIST*
D10*
%TO.C,J15*%
X273095000Y-105785000D03*
D11*
X270555000Y-105785000D03*
X273095000Y-103245000D03*
X270555000Y-103245000D03*
X273095000Y-100705000D03*
X270555000Y-100705000D03*
X273095000Y-98165000D03*
X270555000Y-98165000D03*
X273095000Y-95625000D03*
X270555000Y-95625000D03*
X273095000Y-93085000D03*
X270555000Y-93085000D03*
X273095000Y-90545000D03*
X270555000Y-90545000D03*
X273095000Y-88005000D03*
X270555000Y-88005000D03*
X273095000Y-85465000D03*
X270555000Y-85465000D03*
X273095000Y-82925000D03*
X270555000Y-82925000D03*
X273095000Y-80385000D03*
X270555000Y-80385000D03*
X273095000Y-77845000D03*
X270555000Y-77845000D03*
X273095000Y-75305000D03*
X270555000Y-75305000D03*
X273095000Y-72765000D03*
X270555000Y-72765000D03*
X273095000Y-70225000D03*
X270555000Y-70225000D03*
X273095000Y-67685000D03*
X270555000Y-67685000D03*
X273095000Y-65145000D03*
X270555000Y-65145000D03*
X273095000Y-62605000D03*
X270555000Y-62605000D03*
X273095000Y-60065000D03*
X270555000Y-60065000D03*
X273095000Y-57525000D03*
X270555000Y-57525000D03*
X273095000Y-54985000D03*
X270555000Y-54985000D03*
X273095000Y-52445000D03*
X270555000Y-52445000D03*
X273095000Y-49905000D03*
X270555000Y-49905000D03*
%TD*%
%TO.C,J16*%
X222295000Y-49910000D03*
X224835000Y-49910000D03*
X222295000Y-52450000D03*
X224835000Y-52450000D03*
X222295000Y-54990000D03*
X224835000Y-54990000D03*
X222295000Y-57530000D03*
X224835000Y-57530000D03*
X222295000Y-60070000D03*
X224835000Y-60070000D03*
X222295000Y-62610000D03*
X224835000Y-62610000D03*
X222295000Y-65150000D03*
X224835000Y-65150000D03*
X222295000Y-67690000D03*
X224835000Y-67690000D03*
X222295000Y-70230000D03*
X224835000Y-70230000D03*
X222295000Y-72770000D03*
X224835000Y-72770000D03*
X222295000Y-75310000D03*
X224835000Y-75310000D03*
X222295000Y-77850000D03*
X224835000Y-77850000D03*
X222295000Y-80390000D03*
X224835000Y-80390000D03*
X222295000Y-82930000D03*
X224835000Y-82930000D03*
X222295000Y-85470000D03*
X224835000Y-85470000D03*
X222295000Y-88010000D03*
X224835000Y-88010000D03*
X222295000Y-90550000D03*
X224835000Y-90550000D03*
X222295000Y-93090000D03*
X224835000Y-93090000D03*
X222295000Y-95630000D03*
X224835000Y-95630000D03*
X222295000Y-98170000D03*
X224835000Y-98170000D03*
X222295000Y-100710000D03*
X224835000Y-100710000D03*
X222295000Y-103250000D03*
X224835000Y-103250000D03*
X222295000Y-105790000D03*
D10*
X224835000Y-105790000D03*
%TD*%
D12*
%TO.C,VDD1*%
X207735000Y-110140000D03*
G36*
G01*
X201735000Y-111690000D02*
X201735000Y-108590000D01*
G75*
G02*
X201985000Y-108340000I250000J0D01*
G01*
X203485000Y-108340000D01*
G75*
G02*
X203735000Y-108590000I0J-250000D01*
G01*
X203735000Y-111690000D01*
G75*
G02*
X203485000Y-111940000I-250000J0D01*
G01*
X201985000Y-111940000D01*
G75*
G02*
X201735000Y-111690000I0J250000D01*
G01*
G37*
%TD*%
D13*
%TO.C,REF\u002A\u002A*%
X201355000Y-98275000D03*
X201355000Y-80495000D03*
X160715000Y-98275000D03*
D14*
X160715000Y-80495000D03*
%TD*%
D15*
%TO.C,Y1*%
X238850000Y-86625000D03*
X240750000Y-86625000D03*
%TD*%
D16*
%TO.C,RV1*%
X207395000Y-96105000D03*
X212395000Y-97405000D03*
%TD*%
D12*
%TO.C,J6*%
X142575000Y-110225000D03*
G36*
G01*
X111575000Y-111775000D02*
X111575000Y-108675000D01*
G75*
G02*
X111825000Y-108425000I250000J0D01*
G01*
X113325000Y-108425000D01*
G75*
G02*
X113575000Y-108675000I0J-250000D01*
G01*
X113575000Y-111775000D01*
G75*
G02*
X113325000Y-112025000I-250000J0D01*
G01*
X111825000Y-112025000D01*
G75*
G02*
X111575000Y-111775000I0J250000D01*
G01*
G37*
X122575000Y-110225000D03*
X137575000Y-110225000D03*
X117575000Y-110225000D03*
X127575000Y-110225000D03*
X147575000Y-110225000D03*
X132575000Y-110225000D03*
%TD*%
%TO.C,J1*%
X73700000Y-56425000D03*
G36*
G01*
X104700000Y-54875000D02*
X104700000Y-57975000D01*
G75*
G02*
X104450000Y-58225000I-250000J0D01*
G01*
X102950000Y-58225000D01*
G75*
G02*
X102700000Y-57975000I0J250000D01*
G01*
X102700000Y-54875000D01*
G75*
G02*
X102950000Y-54625000I250000J0D01*
G01*
X104450000Y-54625000D01*
G75*
G02*
X104700000Y-54875000I0J-250000D01*
G01*
G37*
X93700000Y-56425000D03*
X78700000Y-56425000D03*
X98700000Y-56425000D03*
X88700000Y-56425000D03*
X68700000Y-56425000D03*
X83700000Y-56425000D03*
%TD*%
D17*
%TO.C,BT1*%
X233045000Y-84415000D03*
D16*
X235495000Y-87665000D03*
%TD*%
D11*
%TO.C,J12*%
X196580000Y-63040000D03*
X199120000Y-63040000D03*
D10*
X201660000Y-63040000D03*
%TD*%
D11*
%TO.C,J13*%
X205260000Y-63050000D03*
X207800000Y-63050000D03*
D10*
X210340000Y-63050000D03*
%TD*%
D12*
%TO.C,J14*%
X202825000Y-56460000D03*
G36*
G01*
X208825000Y-54910000D02*
X208825000Y-58010000D01*
G75*
G02*
X208575000Y-58260000I-250000J0D01*
G01*
X207075000Y-58260000D01*
G75*
G02*
X206825000Y-58010000I0J250000D01*
G01*
X206825000Y-54910000D01*
G75*
G02*
X207075000Y-54660000I250000J0D01*
G01*
X208575000Y-54660000D01*
G75*
G02*
X208825000Y-54910000I0J-250000D01*
G01*
G37*
%TD*%
%TO.C,ANVDD1*%
X191325000Y-110200000D03*
G36*
G01*
X185325000Y-111750000D02*
X185325000Y-108650000D01*
G75*
G02*
X185575000Y-108400000I250000J0D01*
G01*
X187075000Y-108400000D01*
G75*
G02*
X187325000Y-108650000I0J-250000D01*
G01*
X187325000Y-111750000D01*
G75*
G02*
X187075000Y-112000000I-250000J0D01*
G01*
X185575000Y-112000000D01*
G75*
G02*
X185325000Y-111750000I0J250000D01*
G01*
G37*
%TD*%
D11*
%TO.C,J9*%
X117265000Y-84300000D03*
X117265000Y-81760000D03*
X114725000Y-84300000D03*
X114725000Y-81760000D03*
X112185000Y-84300000D03*
X112185000Y-81760000D03*
X109645000Y-84300000D03*
D10*
X109645000Y-81760000D03*
%TD*%
D18*
%TO.C,U11*%
X249825000Y-103040000D03*
D19*
X253965000Y-63250000D03*
X246365000Y-63250000D03*
X248875000Y-63250000D03*
D18*
X244755000Y-103040000D03*
D19*
X251395000Y-63250000D03*
D18*
X254945000Y-103040000D03*
%TD*%
D12*
%TO.C,J10*%
X250160000Y-110160000D03*
X265160000Y-110160000D03*
X245160000Y-110160000D03*
X235160000Y-110160000D03*
X255160000Y-110160000D03*
X240160000Y-110160000D03*
G36*
G01*
X229160000Y-111710000D02*
X229160000Y-108610000D01*
G75*
G02*
X229410000Y-108360000I250000J0D01*
G01*
X230910000Y-108360000D01*
G75*
G02*
X231160000Y-108610000I0J-250000D01*
G01*
X231160000Y-111710000D01*
G75*
G02*
X230910000Y-111960000I-250000J0D01*
G01*
X229410000Y-111960000D01*
G75*
G02*
X229160000Y-111710000I0J250000D01*
G01*
G37*
X260160000Y-110160000D03*
%TD*%
%TO.C,J11*%
X245150000Y-56440000D03*
X230150000Y-56440000D03*
X250150000Y-56440000D03*
X260150000Y-56440000D03*
X240150000Y-56440000D03*
X255150000Y-56440000D03*
G36*
G01*
X266150000Y-54890000D02*
X266150000Y-57990000D01*
G75*
G02*
X265900000Y-58240000I-250000J0D01*
G01*
X264400000Y-58240000D01*
G75*
G02*
X264150000Y-57990000I0J250000D01*
G01*
X264150000Y-54890000D01*
G75*
G02*
X264400000Y-54640000I250000J0D01*
G01*
X265900000Y-54640000D01*
G75*
G02*
X266150000Y-54890000I0J-250000D01*
G01*
G37*
X235150000Y-56440000D03*
%TD*%
%TO.C,J3*%
X39800000Y-56425000D03*
X24800000Y-56425000D03*
X44800000Y-56425000D03*
X54800000Y-56425000D03*
X34800000Y-56425000D03*
X49800000Y-56425000D03*
G36*
G01*
X60800000Y-54875000D02*
X60800000Y-57975000D01*
G75*
G02*
X60550000Y-58225000I-250000J0D01*
G01*
X59050000Y-58225000D01*
G75*
G02*
X58800000Y-57975000I0J250000D01*
G01*
X58800000Y-54875000D01*
G75*
G02*
X59050000Y-54625000I250000J0D01*
G01*
X60550000Y-54625000D01*
G75*
G02*
X60800000Y-54875000I0J-250000D01*
G01*
G37*
X29800000Y-56425000D03*
%TD*%
D20*
%TO.C,SW1*%
X264810000Y-81080000D03*
X264810000Y-85580000D03*
X258310000Y-81080000D03*
X258310000Y-85580000D03*
%TD*%
D12*
%TO.C,J7*%
X171445000Y-56430000D03*
X156445000Y-56430000D03*
X176445000Y-56430000D03*
X186445000Y-56430000D03*
X166445000Y-56430000D03*
X181445000Y-56430000D03*
G36*
G01*
X192445000Y-54880000D02*
X192445000Y-57980000D01*
G75*
G02*
X192195000Y-58230000I-250000J0D01*
G01*
X190695000Y-58230000D01*
G75*
G02*
X190445000Y-57980000I0J250000D01*
G01*
X190445000Y-54880000D01*
G75*
G02*
X190695000Y-54630000I250000J0D01*
G01*
X192195000Y-54630000D01*
G75*
G02*
X192445000Y-54880000I0J-250000D01*
G01*
G37*
X161445000Y-56430000D03*
%TD*%
%TO.C,J4*%
X88715000Y-110150000D03*
X103715000Y-110150000D03*
X83715000Y-110150000D03*
X73715000Y-110150000D03*
X93715000Y-110150000D03*
X78715000Y-110150000D03*
G36*
G01*
X67715000Y-111700000D02*
X67715000Y-108600000D01*
G75*
G02*
X67965000Y-108350000I250000J0D01*
G01*
X69465000Y-108350000D01*
G75*
G02*
X69715000Y-108600000I0J-250000D01*
G01*
X69715000Y-111700000D01*
G75*
G02*
X69465000Y-111950000I-250000J0D01*
G01*
X67965000Y-111950000D01*
G75*
G02*
X67715000Y-111700000I0J250000D01*
G01*
G37*
X98715000Y-110150000D03*
%TD*%
%TO.C,J2*%
X44855000Y-110175000D03*
X59855000Y-110175000D03*
X39855000Y-110175000D03*
X29855000Y-110175000D03*
X49855000Y-110175000D03*
X34855000Y-110175000D03*
G36*
G01*
X23855000Y-111725000D02*
X23855000Y-108625000D01*
G75*
G02*
X24105000Y-108375000I250000J0D01*
G01*
X25605000Y-108375000D01*
G75*
G02*
X25855000Y-108625000I0J-250000D01*
G01*
X25855000Y-111725000D01*
G75*
G02*
X25605000Y-111975000I-250000J0D01*
G01*
X24105000Y-111975000D01*
G75*
G02*
X23855000Y-111725000I0J250000D01*
G01*
G37*
X54855000Y-110175000D03*
%TD*%
%TO.C,J5*%
X127575000Y-56470000D03*
X112575000Y-56470000D03*
X132575000Y-56470000D03*
X142575000Y-56470000D03*
X122575000Y-56470000D03*
X137575000Y-56470000D03*
G36*
G01*
X148575000Y-54920000D02*
X148575000Y-58020000D01*
G75*
G02*
X148325000Y-58270000I-250000J0D01*
G01*
X146825000Y-58270000D01*
G75*
G02*
X146575000Y-58020000I0J250000D01*
G01*
X146575000Y-54920000D01*
G75*
G02*
X146825000Y-54670000I250000J0D01*
G01*
X148325000Y-54670000D01*
G75*
G02*
X148575000Y-54920000I0J-250000D01*
G01*
G37*
X117575000Y-56470000D03*
%TD*%
D11*
%TO.C,I2C1*%
X240080000Y-69370000D03*
X237540000Y-69370000D03*
X235000000Y-69370000D03*
D10*
X232460000Y-69370000D03*
%TD*%
D12*
%TO.C,J8*%
X171475000Y-110140000D03*
X166475000Y-110140000D03*
X161475000Y-110140000D03*
G36*
G01*
X155475000Y-111690000D02*
X155475000Y-108590000D01*
G75*
G02*
X155725000Y-108340000I250000J0D01*
G01*
X157225000Y-108340000D01*
G75*
G02*
X157475000Y-108590000I0J-250000D01*
G01*
X157475000Y-111690000D01*
G75*
G02*
X157225000Y-111940000I-250000J0D01*
G01*
X155725000Y-111940000D01*
G75*
G02*
X155475000Y-111690000I0J250000D01*
G01*
G37*
%TD*%
M02*
