%TF.GenerationSoftware,KiCad,Pcbnew,(5.1.6)-1*%
%TF.CreationDate,2021-10-14T08:46:51+02:00*%
%TF.ProjectId,boneIO - relay board,626f6e65-494f-4202-9d20-72656c617920,rev?*%
%TF.SameCoordinates,Original*%
%TF.FileFunction,Soldermask,Bot*%
%TF.FilePolarity,Negative*%
%FSLAX46Y46*%
G04 Gerber Fmt 4.6, Leading zero omitted, Abs format (unit mm)*
G04 Created by KiCad (PCBNEW (5.1.6)-1) date 2021-10-14 08:46:51*
%MOMM*%
%LPD*%
G01*
G04 APERTURE LIST*
%ADD10O,1.700000X1.700000*%
%ADD11R,1.700000X1.700000*%
%ADD12C,4.300000*%
%ADD13C,1.950000*%
%ADD14O,2.000000X3.600000*%
G04 APERTURE END LIST*
D10*
%TO.C,J7*%
X295633000Y-311889000D03*
X295633000Y-314429000D03*
D11*
X295633000Y-316969000D03*
%TD*%
D12*
%TO.C,H2*%
X323140000Y-314708000D03*
%TD*%
D13*
%TO.C,K1*%
X302665000Y-324508000D03*
X295165000Y-324508000D03*
X302665000Y-349708000D03*
X302665000Y-339708000D03*
X302665000Y-344708000D03*
X295165000Y-349708000D03*
X295165000Y-339708000D03*
X295165000Y-344708000D03*
%TD*%
D10*
%TO.C,J12*%
X389620000Y-313168000D03*
X389620000Y-315708000D03*
X387080000Y-313168000D03*
X387080000Y-315708000D03*
X384540000Y-313168000D03*
X384540000Y-315708000D03*
X382000000Y-313168000D03*
X382000000Y-315708000D03*
X379460000Y-313168000D03*
X379460000Y-315708000D03*
X376920000Y-313168000D03*
X376920000Y-315708000D03*
X374380000Y-313168000D03*
X374380000Y-315708000D03*
X371840000Y-313168000D03*
X371840000Y-315708000D03*
X369300000Y-313168000D03*
X369300000Y-315708000D03*
X366760000Y-313168000D03*
X366760000Y-315708000D03*
X364220000Y-313168000D03*
X364220000Y-315708000D03*
X361680000Y-313168000D03*
X361680000Y-315708000D03*
X359140000Y-313168000D03*
D11*
X359140000Y-315708000D03*
%TD*%
D13*
%TO.C,K2*%
X318665000Y-324508000D03*
X311165000Y-324508000D03*
X318665000Y-349708000D03*
X318665000Y-339708000D03*
X318665000Y-344708000D03*
X311165000Y-349708000D03*
X311165000Y-339708000D03*
X311165000Y-344708000D03*
%TD*%
%TO.C,K18*%
X409615000Y-304883000D03*
X417115000Y-304883000D03*
X409615000Y-279683000D03*
X409615000Y-289683000D03*
X409615000Y-284683000D03*
X417115000Y-279683000D03*
X417115000Y-289683000D03*
X417115000Y-284683000D03*
%TD*%
%TO.C,K20*%
X442615000Y-304883000D03*
X450115000Y-304883000D03*
X442615000Y-279683000D03*
X442615000Y-289683000D03*
X442615000Y-284683000D03*
X450115000Y-279683000D03*
X450115000Y-289683000D03*
X450115000Y-284683000D03*
%TD*%
%TO.C,K19*%
X426615000Y-304883000D03*
X434115000Y-304883000D03*
X426615000Y-279683000D03*
X426615000Y-289683000D03*
X426615000Y-284683000D03*
X434115000Y-279683000D03*
X434115000Y-289683000D03*
X434115000Y-284683000D03*
%TD*%
%TO.C,K17*%
X393615000Y-304883000D03*
X401115000Y-304883000D03*
X393615000Y-279683000D03*
X393615000Y-289683000D03*
X393615000Y-284683000D03*
X401115000Y-279683000D03*
X401115000Y-289683000D03*
X401115000Y-284683000D03*
%TD*%
%TO.C,K16*%
X376615000Y-304883000D03*
X384115000Y-304883000D03*
X376615000Y-279683000D03*
X376615000Y-289683000D03*
X376615000Y-284683000D03*
X384115000Y-279683000D03*
X384115000Y-289683000D03*
X384115000Y-284683000D03*
%TD*%
%TO.C,K15*%
X360615000Y-304883000D03*
X368115000Y-304883000D03*
X360615000Y-279683000D03*
X360615000Y-289683000D03*
X360615000Y-284683000D03*
X368115000Y-279683000D03*
X368115000Y-289683000D03*
X368115000Y-284683000D03*
%TD*%
%TO.C,K14*%
X343615000Y-304883000D03*
X351115000Y-304883000D03*
X343615000Y-279683000D03*
X343615000Y-289683000D03*
X343615000Y-284683000D03*
X351115000Y-279683000D03*
X351115000Y-289683000D03*
X351115000Y-284683000D03*
%TD*%
%TO.C,K13*%
X327615000Y-304883000D03*
X335115000Y-304883000D03*
X327615000Y-279683000D03*
X327615000Y-289683000D03*
X327615000Y-284683000D03*
X335115000Y-279683000D03*
X335115000Y-289683000D03*
X335115000Y-284683000D03*
%TD*%
%TO.C,K12*%
X310615000Y-304883000D03*
X318115000Y-304883000D03*
X310615000Y-279683000D03*
X310615000Y-289683000D03*
X310615000Y-284683000D03*
X318115000Y-279683000D03*
X318115000Y-289683000D03*
X318115000Y-284683000D03*
%TD*%
%TO.C,K11*%
X294615000Y-304883000D03*
X302115000Y-304883000D03*
X294615000Y-279683000D03*
X294615000Y-289683000D03*
X294615000Y-284683000D03*
X302115000Y-279683000D03*
X302115000Y-289683000D03*
X302115000Y-284683000D03*
%TD*%
%TO.C,K10*%
X450665000Y-324508000D03*
X443165000Y-324508000D03*
X450665000Y-349708000D03*
X450665000Y-339708000D03*
X450665000Y-344708000D03*
X443165000Y-349708000D03*
X443165000Y-339708000D03*
X443165000Y-344708000D03*
%TD*%
%TO.C,K9*%
X434665000Y-324508000D03*
X427165000Y-324508000D03*
X434665000Y-349708000D03*
X434665000Y-339708000D03*
X434665000Y-344708000D03*
X427165000Y-349708000D03*
X427165000Y-339708000D03*
X427165000Y-344708000D03*
%TD*%
%TO.C,K8*%
X417665000Y-324508000D03*
X410165000Y-324508000D03*
X417665000Y-349708000D03*
X417665000Y-339708000D03*
X417665000Y-344708000D03*
X410165000Y-349708000D03*
X410165000Y-339708000D03*
X410165000Y-344708000D03*
%TD*%
%TO.C,K7*%
X401665000Y-324508000D03*
X394165000Y-324508000D03*
X401665000Y-349708000D03*
X401665000Y-339708000D03*
X401665000Y-344708000D03*
X394165000Y-349708000D03*
X394165000Y-339708000D03*
X394165000Y-344708000D03*
%TD*%
%TO.C,K6*%
X384665000Y-324508000D03*
X377165000Y-324508000D03*
X384665000Y-349708000D03*
X384665000Y-339708000D03*
X384665000Y-344708000D03*
X377165000Y-349708000D03*
X377165000Y-339708000D03*
X377165000Y-344708000D03*
%TD*%
%TO.C,K5*%
X368665000Y-324508000D03*
X361165000Y-324508000D03*
X368665000Y-349708000D03*
X368665000Y-339708000D03*
X368665000Y-344708000D03*
X361165000Y-349708000D03*
X361165000Y-339708000D03*
X361165000Y-344708000D03*
%TD*%
%TO.C,K4*%
X351665000Y-324508000D03*
X344165000Y-324508000D03*
X351665000Y-349708000D03*
X351665000Y-339708000D03*
X351665000Y-344708000D03*
X344165000Y-349708000D03*
X344165000Y-339708000D03*
X344165000Y-344708000D03*
%TD*%
%TO.C,K3*%
X335665000Y-324508000D03*
X328165000Y-324508000D03*
X335665000Y-349708000D03*
X335665000Y-339708000D03*
X335665000Y-344708000D03*
X328165000Y-349708000D03*
X328165000Y-339708000D03*
X328165000Y-344708000D03*
%TD*%
D14*
%TO.C,J1*%
X318190000Y-355683000D03*
X310690000Y-355683000D03*
X303190000Y-355683000D03*
G36*
G01*
X294690000Y-357233000D02*
X294690000Y-354133000D01*
G75*
G02*
X294940000Y-353883000I250000J0D01*
G01*
X296440000Y-353883000D01*
G75*
G02*
X296690000Y-354133000I0J-250000D01*
G01*
X296690000Y-357233000D01*
G75*
G02*
X296440000Y-357483000I-250000J0D01*
G01*
X294940000Y-357483000D01*
G75*
G02*
X294690000Y-357233000I0J250000D01*
G01*
G37*
%TD*%
%TO.C,J11*%
X427190000Y-273783000D03*
X434690000Y-273783000D03*
X442190000Y-273783000D03*
G36*
G01*
X450690000Y-272233000D02*
X450690000Y-275333000D01*
G75*
G02*
X450440000Y-275583000I-250000J0D01*
G01*
X448940000Y-275583000D01*
G75*
G02*
X448690000Y-275333000I0J250000D01*
G01*
X448690000Y-272233000D01*
G75*
G02*
X448940000Y-271983000I250000J0D01*
G01*
X450440000Y-271983000D01*
G75*
G02*
X450690000Y-272233000I0J-250000D01*
G01*
G37*
%TD*%
%TO.C,J10*%
X394190000Y-273758000D03*
X401690000Y-273758000D03*
X409190000Y-273758000D03*
G36*
G01*
X417690000Y-272208000D02*
X417690000Y-275308000D01*
G75*
G02*
X417440000Y-275558000I-250000J0D01*
G01*
X415940000Y-275558000D01*
G75*
G02*
X415690000Y-275308000I0J250000D01*
G01*
X415690000Y-272208000D01*
G75*
G02*
X415940000Y-271958000I250000J0D01*
G01*
X417440000Y-271958000D01*
G75*
G02*
X417690000Y-272208000I0J-250000D01*
G01*
G37*
%TD*%
%TO.C,J9*%
X328190000Y-273758000D03*
X335690000Y-273758000D03*
X343190000Y-273758000D03*
G36*
G01*
X351690000Y-272208000D02*
X351690000Y-275308000D01*
G75*
G02*
X351440000Y-275558000I-250000J0D01*
G01*
X349940000Y-275558000D01*
G75*
G02*
X349690000Y-275308000I0J250000D01*
G01*
X349690000Y-272208000D01*
G75*
G02*
X349940000Y-271958000I250000J0D01*
G01*
X351440000Y-271958000D01*
G75*
G02*
X351690000Y-272208000I0J-250000D01*
G01*
G37*
%TD*%
%TO.C,J8*%
X361190000Y-273758000D03*
X368690000Y-273758000D03*
X376190000Y-273758000D03*
G36*
G01*
X384690000Y-272208000D02*
X384690000Y-275308000D01*
G75*
G02*
X384440000Y-275558000I-250000J0D01*
G01*
X382940000Y-275558000D01*
G75*
G02*
X382690000Y-275308000I0J250000D01*
G01*
X382690000Y-272208000D01*
G75*
G02*
X382940000Y-271958000I250000J0D01*
G01*
X384440000Y-271958000D01*
G75*
G02*
X384690000Y-272208000I0J-250000D01*
G01*
G37*
%TD*%
%TO.C,J6*%
X295215000Y-273758000D03*
X302715000Y-273758000D03*
X310215000Y-273758000D03*
G36*
G01*
X318715000Y-272208000D02*
X318715000Y-275308000D01*
G75*
G02*
X318465000Y-275558000I-250000J0D01*
G01*
X316965000Y-275558000D01*
G75*
G02*
X316715000Y-275308000I0J250000D01*
G01*
X316715000Y-272208000D01*
G75*
G02*
X316965000Y-271958000I250000J0D01*
G01*
X318465000Y-271958000D01*
G75*
G02*
X318715000Y-272208000I0J-250000D01*
G01*
G37*
%TD*%
%TO.C,J5*%
X450190000Y-355683000D03*
X442690000Y-355683000D03*
X435190000Y-355683000D03*
G36*
G01*
X426690000Y-357233000D02*
X426690000Y-354133000D01*
G75*
G02*
X426940000Y-353883000I250000J0D01*
G01*
X428440000Y-353883000D01*
G75*
G02*
X428690000Y-354133000I0J-250000D01*
G01*
X428690000Y-357233000D01*
G75*
G02*
X428440000Y-357483000I-250000J0D01*
G01*
X426940000Y-357483000D01*
G75*
G02*
X426690000Y-357233000I0J250000D01*
G01*
G37*
%TD*%
%TO.C,J4*%
X417190000Y-355683000D03*
X409690000Y-355683000D03*
X402190000Y-355683000D03*
G36*
G01*
X393690000Y-357233000D02*
X393690000Y-354133000D01*
G75*
G02*
X393940000Y-353883000I250000J0D01*
G01*
X395440000Y-353883000D01*
G75*
G02*
X395690000Y-354133000I0J-250000D01*
G01*
X395690000Y-357233000D01*
G75*
G02*
X395440000Y-357483000I-250000J0D01*
G01*
X393940000Y-357483000D01*
G75*
G02*
X393690000Y-357233000I0J250000D01*
G01*
G37*
%TD*%
%TO.C,J3*%
X384190000Y-355683000D03*
X376690000Y-355683000D03*
X369190000Y-355683000D03*
G36*
G01*
X360690000Y-357233000D02*
X360690000Y-354133000D01*
G75*
G02*
X360940000Y-353883000I250000J0D01*
G01*
X362440000Y-353883000D01*
G75*
G02*
X362690000Y-354133000I0J-250000D01*
G01*
X362690000Y-357233000D01*
G75*
G02*
X362440000Y-357483000I-250000J0D01*
G01*
X360940000Y-357483000D01*
G75*
G02*
X360690000Y-357233000I0J250000D01*
G01*
G37*
%TD*%
%TO.C,J2*%
X351190000Y-355683000D03*
X343690000Y-355683000D03*
X336190000Y-355683000D03*
G36*
G01*
X327690000Y-357233000D02*
X327690000Y-354133000D01*
G75*
G02*
X327940000Y-353883000I250000J0D01*
G01*
X329440000Y-353883000D01*
G75*
G02*
X329690000Y-354133000I0J-250000D01*
G01*
X329690000Y-357233000D01*
G75*
G02*
X329440000Y-357483000I-250000J0D01*
G01*
X327940000Y-357483000D01*
G75*
G02*
X327690000Y-357233000I0J250000D01*
G01*
G37*
%TD*%
D12*
%TO.C,H1*%
X422140000Y-314708000D03*
%TD*%
M02*
