%TF.GenerationSoftware,KiCad,Pcbnew,(5.1.6)-1*%
%TF.CreationDate,2021-10-14T08:46:51+02:00*%
%TF.ProjectId,boneIO - relay board,626f6e65-494f-4202-9d20-72656c617920,rev?*%
%TF.SameCoordinates,Original*%
%TF.FileFunction,Legend,Top*%
%TF.FilePolarity,Positive*%
%FSLAX46Y46*%
G04 Gerber Fmt 4.6, Leading zero omitted, Abs format (unit mm)*
G04 Created by KiCad (PCBNEW (5.1.6)-1) date 2021-10-14 08:46:51*
%MOMM*%
%LPD*%
G01*
G04 APERTURE LIST*
%ADD10C,0.150000*%
%ADD11C,0.140000*%
%ADD12C,0.120000*%
%ADD13C,0.100000*%
%ADD14C,0.254000*%
G04 APERTURE END LIST*
D10*
X290442095Y-317167428D02*
X291204000Y-317167428D01*
X290823047Y-317548380D02*
X290823047Y-316786476D01*
X291632571Y-316643619D02*
X291680190Y-316596000D01*
X291775428Y-316548380D01*
X292013523Y-316548380D01*
X292108761Y-316596000D01*
X292156380Y-316643619D01*
X292204000Y-316738857D01*
X292204000Y-316834095D01*
X292156380Y-316976952D01*
X291584952Y-317548380D01*
X292204000Y-317548380D01*
X293061142Y-316881714D02*
X293061142Y-317548380D01*
X292823047Y-316500761D02*
X292584952Y-317215047D01*
X293204000Y-317215047D01*
X293442095Y-316548380D02*
X293775428Y-317548380D01*
X294108761Y-316548380D01*
X291338285Y-311967428D02*
X292100190Y-311967428D01*
X291719238Y-312348380D02*
X291719238Y-311586476D01*
X293052571Y-311348380D02*
X292576380Y-311348380D01*
X292528761Y-311824571D01*
X292576380Y-311776952D01*
X292671619Y-311729333D01*
X292909714Y-311729333D01*
X293004952Y-311776952D01*
X293052571Y-311824571D01*
X293100190Y-311919809D01*
X293100190Y-312157904D01*
X293052571Y-312253142D01*
X293004952Y-312300761D01*
X292909714Y-312348380D01*
X292671619Y-312348380D01*
X292576380Y-312300761D01*
X292528761Y-312253142D01*
X293385904Y-311348380D02*
X293719238Y-312348380D01*
X294052571Y-311348380D01*
X387619761Y-311422285D02*
X387667380Y-311279428D01*
X387667380Y-311041333D01*
X387619761Y-310946095D01*
X387572142Y-310898476D01*
X387476904Y-310850857D01*
X387381666Y-310850857D01*
X387286428Y-310898476D01*
X387238809Y-310946095D01*
X387191190Y-311041333D01*
X387143571Y-311231809D01*
X387095952Y-311327047D01*
X387048333Y-311374666D01*
X386953095Y-311422285D01*
X386857857Y-311422285D01*
X386762619Y-311374666D01*
X386715000Y-311327047D01*
X386667380Y-311231809D01*
X386667380Y-310993714D01*
X386715000Y-310850857D01*
X387667380Y-310422285D02*
X386667380Y-310422285D01*
X386667380Y-310184190D01*
X386715000Y-310041333D01*
X386810238Y-309946095D01*
X386905476Y-309898476D01*
X387095952Y-309850857D01*
X387238809Y-309850857D01*
X387429285Y-309898476D01*
X387524523Y-309946095D01*
X387619761Y-310041333D01*
X387667380Y-310184190D01*
X387667380Y-310422285D01*
X387381666Y-309469904D02*
X387381666Y-308993714D01*
X387667380Y-309565142D02*
X386667380Y-309231809D01*
X387667380Y-308898476D01*
X389684428Y-311491904D02*
X389684428Y-310730000D01*
X390065380Y-311110952D02*
X389303476Y-311110952D01*
X389160619Y-310301428D02*
X389113000Y-310253809D01*
X389065380Y-310158571D01*
X389065380Y-309920476D01*
X389113000Y-309825238D01*
X389160619Y-309777619D01*
X389255857Y-309730000D01*
X389351095Y-309730000D01*
X389493952Y-309777619D01*
X390065380Y-310349047D01*
X390065380Y-309730000D01*
X389398714Y-308872857D02*
X390065380Y-308872857D01*
X389017761Y-309110952D02*
X389732047Y-309349047D01*
X389732047Y-308730000D01*
X389065380Y-308491904D02*
X390065380Y-308158571D01*
X389065380Y-307825238D01*
X387594761Y-319798476D02*
X387642380Y-319655619D01*
X387642380Y-319417523D01*
X387594761Y-319322285D01*
X387547142Y-319274666D01*
X387451904Y-319227047D01*
X387356666Y-319227047D01*
X387261428Y-319274666D01*
X387213809Y-319322285D01*
X387166190Y-319417523D01*
X387118571Y-319608000D01*
X387070952Y-319703238D01*
X387023333Y-319750857D01*
X386928095Y-319798476D01*
X386832857Y-319798476D01*
X386737619Y-319750857D01*
X386690000Y-319703238D01*
X386642380Y-319608000D01*
X386642380Y-319369904D01*
X386690000Y-319227047D01*
X387547142Y-318227047D02*
X387594761Y-318274666D01*
X387642380Y-318417523D01*
X387642380Y-318512761D01*
X387594761Y-318655619D01*
X387499523Y-318750857D01*
X387404285Y-318798476D01*
X387213809Y-318846095D01*
X387070952Y-318846095D01*
X386880476Y-318798476D01*
X386785238Y-318750857D01*
X386690000Y-318655619D01*
X386642380Y-318512761D01*
X386642380Y-318417523D01*
X386690000Y-318274666D01*
X386737619Y-318227047D01*
X387642380Y-317322285D02*
X387642380Y-317798476D01*
X386642380Y-317798476D01*
X389786428Y-321458000D02*
X389786428Y-320696095D01*
X390167380Y-321077047D02*
X389405476Y-321077047D01*
X389167380Y-320315142D02*
X389167380Y-319696095D01*
X389548333Y-320029428D01*
X389548333Y-319886571D01*
X389595952Y-319791333D01*
X389643571Y-319743714D01*
X389738809Y-319696095D01*
X389976904Y-319696095D01*
X390072142Y-319743714D01*
X390119761Y-319791333D01*
X390167380Y-319886571D01*
X390167380Y-320172285D01*
X390119761Y-320267523D01*
X390072142Y-320315142D01*
X390072142Y-319267523D02*
X390119761Y-319219904D01*
X390167380Y-319267523D01*
X390119761Y-319315142D01*
X390072142Y-319267523D01*
X390167380Y-319267523D01*
X389167380Y-318886571D02*
X389167380Y-318267523D01*
X389548333Y-318600857D01*
X389548333Y-318458000D01*
X389595952Y-318362761D01*
X389643571Y-318315142D01*
X389738809Y-318267523D01*
X389976904Y-318267523D01*
X390072142Y-318315142D01*
X390119761Y-318362761D01*
X390167380Y-318458000D01*
X390167380Y-318743714D01*
X390119761Y-318838952D01*
X390072142Y-318886571D01*
X389167380Y-317981809D02*
X390167380Y-317648476D01*
X389167380Y-317315142D01*
X297236428Y-367320380D02*
X297236428Y-366320380D01*
X297617380Y-366320380D01*
X297712619Y-366368000D01*
X297760238Y-366415619D01*
X297807857Y-366510857D01*
X297807857Y-366653714D01*
X297760238Y-366748952D01*
X297712619Y-366796571D01*
X297617380Y-366844190D01*
X297236428Y-366844190D01*
X298284047Y-367320380D02*
X298474523Y-367320380D01*
X298569761Y-367272761D01*
X298617380Y-367225142D01*
X298712619Y-367082285D01*
X298760238Y-366891809D01*
X298760238Y-366510857D01*
X298712619Y-366415619D01*
X298665000Y-366368000D01*
X298569761Y-366320380D01*
X298379285Y-366320380D01*
X298284047Y-366368000D01*
X298236428Y-366415619D01*
X298188809Y-366510857D01*
X298188809Y-366748952D01*
X298236428Y-366844190D01*
X298284047Y-366891809D01*
X298379285Y-366939428D01*
X298569761Y-366939428D01*
X298665000Y-366891809D01*
X298712619Y-366844190D01*
X298760238Y-366748952D01*
X299188809Y-367225142D02*
X299236428Y-367272761D01*
X299188809Y-367320380D01*
X299141190Y-367272761D01*
X299188809Y-367225142D01*
X299188809Y-367320380D01*
X300188809Y-367320380D02*
X299617380Y-367320380D01*
X299903095Y-367320380D02*
X299903095Y-366320380D01*
X299807857Y-366463238D01*
X299712619Y-366558476D01*
X299617380Y-366606095D01*
X301141190Y-367320380D02*
X300569761Y-367320380D01*
X300855476Y-367320380D02*
X300855476Y-366320380D01*
X300760238Y-366463238D01*
X300665000Y-366558476D01*
X300569761Y-366606095D01*
X313236428Y-367320380D02*
X313236428Y-366320380D01*
X313617380Y-366320380D01*
X313712619Y-366368000D01*
X313760238Y-366415619D01*
X313807857Y-366510857D01*
X313807857Y-366653714D01*
X313760238Y-366748952D01*
X313712619Y-366796571D01*
X313617380Y-366844190D01*
X313236428Y-366844190D01*
X314284047Y-367320380D02*
X314474523Y-367320380D01*
X314569761Y-367272761D01*
X314617380Y-367225142D01*
X314712619Y-367082285D01*
X314760238Y-366891809D01*
X314760238Y-366510857D01*
X314712619Y-366415619D01*
X314665000Y-366368000D01*
X314569761Y-366320380D01*
X314379285Y-366320380D01*
X314284047Y-366368000D01*
X314236428Y-366415619D01*
X314188809Y-366510857D01*
X314188809Y-366748952D01*
X314236428Y-366844190D01*
X314284047Y-366891809D01*
X314379285Y-366939428D01*
X314569761Y-366939428D01*
X314665000Y-366891809D01*
X314712619Y-366844190D01*
X314760238Y-366748952D01*
X315188809Y-367225142D02*
X315236428Y-367272761D01*
X315188809Y-367320380D01*
X315141190Y-367272761D01*
X315188809Y-367225142D01*
X315188809Y-367320380D01*
X316188809Y-367320380D02*
X315617380Y-367320380D01*
X315903095Y-367320380D02*
X315903095Y-366320380D01*
X315807857Y-366463238D01*
X315712619Y-366558476D01*
X315617380Y-366606095D01*
X316569761Y-366415619D02*
X316617380Y-366368000D01*
X316712619Y-366320380D01*
X316950714Y-366320380D01*
X317045952Y-366368000D01*
X317093571Y-366415619D01*
X317141190Y-366510857D01*
X317141190Y-366606095D01*
X317093571Y-366748952D01*
X316522142Y-367320380D01*
X317141190Y-367320380D01*
X329711428Y-367320380D02*
X329711428Y-366320380D01*
X330092380Y-366320380D01*
X330187619Y-366368000D01*
X330235238Y-366415619D01*
X330282857Y-366510857D01*
X330282857Y-366653714D01*
X330235238Y-366748952D01*
X330187619Y-366796571D01*
X330092380Y-366844190D01*
X329711428Y-366844190D01*
X330759047Y-367320380D02*
X330949523Y-367320380D01*
X331044761Y-367272761D01*
X331092380Y-367225142D01*
X331187619Y-367082285D01*
X331235238Y-366891809D01*
X331235238Y-366510857D01*
X331187619Y-366415619D01*
X331140000Y-366368000D01*
X331044761Y-366320380D01*
X330854285Y-366320380D01*
X330759047Y-366368000D01*
X330711428Y-366415619D01*
X330663809Y-366510857D01*
X330663809Y-366748952D01*
X330711428Y-366844190D01*
X330759047Y-366891809D01*
X330854285Y-366939428D01*
X331044761Y-366939428D01*
X331140000Y-366891809D01*
X331187619Y-366844190D01*
X331235238Y-366748952D01*
X331663809Y-367225142D02*
X331711428Y-367272761D01*
X331663809Y-367320380D01*
X331616190Y-367272761D01*
X331663809Y-367225142D01*
X331663809Y-367320380D01*
X332663809Y-367320380D02*
X332092380Y-367320380D01*
X332378095Y-367320380D02*
X332378095Y-366320380D01*
X332282857Y-366463238D01*
X332187619Y-366558476D01*
X332092380Y-366606095D01*
X332997142Y-366320380D02*
X333616190Y-366320380D01*
X333282857Y-366701333D01*
X333425714Y-366701333D01*
X333520952Y-366748952D01*
X333568571Y-366796571D01*
X333616190Y-366891809D01*
X333616190Y-367129904D01*
X333568571Y-367225142D01*
X333520952Y-367272761D01*
X333425714Y-367320380D01*
X333140000Y-367320380D01*
X333044761Y-367272761D01*
X332997142Y-367225142D01*
X345761428Y-367320380D02*
X345761428Y-366320380D01*
X346142380Y-366320380D01*
X346237619Y-366368000D01*
X346285238Y-366415619D01*
X346332857Y-366510857D01*
X346332857Y-366653714D01*
X346285238Y-366748952D01*
X346237619Y-366796571D01*
X346142380Y-366844190D01*
X345761428Y-366844190D01*
X346809047Y-367320380D02*
X346999523Y-367320380D01*
X347094761Y-367272761D01*
X347142380Y-367225142D01*
X347237619Y-367082285D01*
X347285238Y-366891809D01*
X347285238Y-366510857D01*
X347237619Y-366415619D01*
X347190000Y-366368000D01*
X347094761Y-366320380D01*
X346904285Y-366320380D01*
X346809047Y-366368000D01*
X346761428Y-366415619D01*
X346713809Y-366510857D01*
X346713809Y-366748952D01*
X346761428Y-366844190D01*
X346809047Y-366891809D01*
X346904285Y-366939428D01*
X347094761Y-366939428D01*
X347190000Y-366891809D01*
X347237619Y-366844190D01*
X347285238Y-366748952D01*
X347713809Y-367225142D02*
X347761428Y-367272761D01*
X347713809Y-367320380D01*
X347666190Y-367272761D01*
X347713809Y-367225142D01*
X347713809Y-367320380D01*
X348713809Y-367320380D02*
X348142380Y-367320380D01*
X348428095Y-367320380D02*
X348428095Y-366320380D01*
X348332857Y-366463238D01*
X348237619Y-366558476D01*
X348142380Y-366606095D01*
X349570952Y-366653714D02*
X349570952Y-367320380D01*
X349332857Y-366272761D02*
X349094761Y-366987047D01*
X349713809Y-366987047D01*
X363211428Y-367320380D02*
X363211428Y-366320380D01*
X363592380Y-366320380D01*
X363687619Y-366368000D01*
X363735238Y-366415619D01*
X363782857Y-366510857D01*
X363782857Y-366653714D01*
X363735238Y-366748952D01*
X363687619Y-366796571D01*
X363592380Y-366844190D01*
X363211428Y-366844190D01*
X364259047Y-367320380D02*
X364449523Y-367320380D01*
X364544761Y-367272761D01*
X364592380Y-367225142D01*
X364687619Y-367082285D01*
X364735238Y-366891809D01*
X364735238Y-366510857D01*
X364687619Y-366415619D01*
X364640000Y-366368000D01*
X364544761Y-366320380D01*
X364354285Y-366320380D01*
X364259047Y-366368000D01*
X364211428Y-366415619D01*
X364163809Y-366510857D01*
X364163809Y-366748952D01*
X364211428Y-366844190D01*
X364259047Y-366891809D01*
X364354285Y-366939428D01*
X364544761Y-366939428D01*
X364640000Y-366891809D01*
X364687619Y-366844190D01*
X364735238Y-366748952D01*
X365163809Y-367225142D02*
X365211428Y-367272761D01*
X365163809Y-367320380D01*
X365116190Y-367272761D01*
X365163809Y-367225142D01*
X365163809Y-367320380D01*
X366163809Y-367320380D02*
X365592380Y-367320380D01*
X365878095Y-367320380D02*
X365878095Y-366320380D01*
X365782857Y-366463238D01*
X365687619Y-366558476D01*
X365592380Y-366606095D01*
X367068571Y-366320380D02*
X366592380Y-366320380D01*
X366544761Y-366796571D01*
X366592380Y-366748952D01*
X366687619Y-366701333D01*
X366925714Y-366701333D01*
X367020952Y-366748952D01*
X367068571Y-366796571D01*
X367116190Y-366891809D01*
X367116190Y-367129904D01*
X367068571Y-367225142D01*
X367020952Y-367272761D01*
X366925714Y-367320380D01*
X366687619Y-367320380D01*
X366592380Y-367272761D01*
X366544761Y-367225142D01*
X379211428Y-367320380D02*
X379211428Y-366320380D01*
X379592380Y-366320380D01*
X379687619Y-366368000D01*
X379735238Y-366415619D01*
X379782857Y-366510857D01*
X379782857Y-366653714D01*
X379735238Y-366748952D01*
X379687619Y-366796571D01*
X379592380Y-366844190D01*
X379211428Y-366844190D01*
X380259047Y-367320380D02*
X380449523Y-367320380D01*
X380544761Y-367272761D01*
X380592380Y-367225142D01*
X380687619Y-367082285D01*
X380735238Y-366891809D01*
X380735238Y-366510857D01*
X380687619Y-366415619D01*
X380640000Y-366368000D01*
X380544761Y-366320380D01*
X380354285Y-366320380D01*
X380259047Y-366368000D01*
X380211428Y-366415619D01*
X380163809Y-366510857D01*
X380163809Y-366748952D01*
X380211428Y-366844190D01*
X380259047Y-366891809D01*
X380354285Y-366939428D01*
X380544761Y-366939428D01*
X380640000Y-366891809D01*
X380687619Y-366844190D01*
X380735238Y-366748952D01*
X381163809Y-367225142D02*
X381211428Y-367272761D01*
X381163809Y-367320380D01*
X381116190Y-367272761D01*
X381163809Y-367225142D01*
X381163809Y-367320380D01*
X382163809Y-367320380D02*
X381592380Y-367320380D01*
X381878095Y-367320380D02*
X381878095Y-366320380D01*
X381782857Y-366463238D01*
X381687619Y-366558476D01*
X381592380Y-366606095D01*
X383020952Y-366320380D02*
X382830476Y-366320380D01*
X382735238Y-366368000D01*
X382687619Y-366415619D01*
X382592380Y-366558476D01*
X382544761Y-366748952D01*
X382544761Y-367129904D01*
X382592380Y-367225142D01*
X382640000Y-367272761D01*
X382735238Y-367320380D01*
X382925714Y-367320380D01*
X383020952Y-367272761D01*
X383068571Y-367225142D01*
X383116190Y-367129904D01*
X383116190Y-366891809D01*
X383068571Y-366796571D01*
X383020952Y-366748952D01*
X382925714Y-366701333D01*
X382735238Y-366701333D01*
X382640000Y-366748952D01*
X382592380Y-366796571D01*
X382544761Y-366891809D01*
X395711428Y-367320380D02*
X395711428Y-366320380D01*
X396092380Y-366320380D01*
X396187619Y-366368000D01*
X396235238Y-366415619D01*
X396282857Y-366510857D01*
X396282857Y-366653714D01*
X396235238Y-366748952D01*
X396187619Y-366796571D01*
X396092380Y-366844190D01*
X395711428Y-366844190D01*
X396759047Y-367320380D02*
X396949523Y-367320380D01*
X397044761Y-367272761D01*
X397092380Y-367225142D01*
X397187619Y-367082285D01*
X397235238Y-366891809D01*
X397235238Y-366510857D01*
X397187619Y-366415619D01*
X397140000Y-366368000D01*
X397044761Y-366320380D01*
X396854285Y-366320380D01*
X396759047Y-366368000D01*
X396711428Y-366415619D01*
X396663809Y-366510857D01*
X396663809Y-366748952D01*
X396711428Y-366844190D01*
X396759047Y-366891809D01*
X396854285Y-366939428D01*
X397044761Y-366939428D01*
X397140000Y-366891809D01*
X397187619Y-366844190D01*
X397235238Y-366748952D01*
X397663809Y-367225142D02*
X397711428Y-367272761D01*
X397663809Y-367320380D01*
X397616190Y-367272761D01*
X397663809Y-367225142D01*
X397663809Y-367320380D01*
X398663809Y-367320380D02*
X398092380Y-367320380D01*
X398378095Y-367320380D02*
X398378095Y-366320380D01*
X398282857Y-366463238D01*
X398187619Y-366558476D01*
X398092380Y-366606095D01*
X398997142Y-366320380D02*
X399663809Y-366320380D01*
X399235238Y-367320380D01*
X412211428Y-367345380D02*
X412211428Y-366345380D01*
X412592380Y-366345380D01*
X412687619Y-366393000D01*
X412735238Y-366440619D01*
X412782857Y-366535857D01*
X412782857Y-366678714D01*
X412735238Y-366773952D01*
X412687619Y-366821571D01*
X412592380Y-366869190D01*
X412211428Y-366869190D01*
X413259047Y-367345380D02*
X413449523Y-367345380D01*
X413544761Y-367297761D01*
X413592380Y-367250142D01*
X413687619Y-367107285D01*
X413735238Y-366916809D01*
X413735238Y-366535857D01*
X413687619Y-366440619D01*
X413640000Y-366393000D01*
X413544761Y-366345380D01*
X413354285Y-366345380D01*
X413259047Y-366393000D01*
X413211428Y-366440619D01*
X413163809Y-366535857D01*
X413163809Y-366773952D01*
X413211428Y-366869190D01*
X413259047Y-366916809D01*
X413354285Y-366964428D01*
X413544761Y-366964428D01*
X413640000Y-366916809D01*
X413687619Y-366869190D01*
X413735238Y-366773952D01*
X414163809Y-367250142D02*
X414211428Y-367297761D01*
X414163809Y-367345380D01*
X414116190Y-367297761D01*
X414163809Y-367250142D01*
X414163809Y-367345380D01*
X415163809Y-367345380D02*
X414592380Y-367345380D01*
X414878095Y-367345380D02*
X414878095Y-366345380D01*
X414782857Y-366488238D01*
X414687619Y-366583476D01*
X414592380Y-366631095D01*
X415735238Y-366773952D02*
X415640000Y-366726333D01*
X415592380Y-366678714D01*
X415544761Y-366583476D01*
X415544761Y-366535857D01*
X415592380Y-366440619D01*
X415640000Y-366393000D01*
X415735238Y-366345380D01*
X415925714Y-366345380D01*
X416020952Y-366393000D01*
X416068571Y-366440619D01*
X416116190Y-366535857D01*
X416116190Y-366583476D01*
X416068571Y-366678714D01*
X416020952Y-366726333D01*
X415925714Y-366773952D01*
X415735238Y-366773952D01*
X415640000Y-366821571D01*
X415592380Y-366869190D01*
X415544761Y-366964428D01*
X415544761Y-367154904D01*
X415592380Y-367250142D01*
X415640000Y-367297761D01*
X415735238Y-367345380D01*
X415925714Y-367345380D01*
X416020952Y-367297761D01*
X416068571Y-367250142D01*
X416116190Y-367154904D01*
X416116190Y-366964428D01*
X416068571Y-366869190D01*
X416020952Y-366821571D01*
X415925714Y-366773952D01*
X429186428Y-367345380D02*
X429186428Y-366345380D01*
X429567380Y-366345380D01*
X429662619Y-366393000D01*
X429710238Y-366440619D01*
X429757857Y-366535857D01*
X429757857Y-366678714D01*
X429710238Y-366773952D01*
X429662619Y-366821571D01*
X429567380Y-366869190D01*
X429186428Y-366869190D01*
X430234047Y-367345380D02*
X430424523Y-367345380D01*
X430519761Y-367297761D01*
X430567380Y-367250142D01*
X430662619Y-367107285D01*
X430710238Y-366916809D01*
X430710238Y-366535857D01*
X430662619Y-366440619D01*
X430615000Y-366393000D01*
X430519761Y-366345380D01*
X430329285Y-366345380D01*
X430234047Y-366393000D01*
X430186428Y-366440619D01*
X430138809Y-366535857D01*
X430138809Y-366773952D01*
X430186428Y-366869190D01*
X430234047Y-366916809D01*
X430329285Y-366964428D01*
X430519761Y-366964428D01*
X430615000Y-366916809D01*
X430662619Y-366869190D01*
X430710238Y-366773952D01*
X431138809Y-367250142D02*
X431186428Y-367297761D01*
X431138809Y-367345380D01*
X431091190Y-367297761D01*
X431138809Y-367250142D01*
X431138809Y-367345380D01*
X431567380Y-366440619D02*
X431615000Y-366393000D01*
X431710238Y-366345380D01*
X431948333Y-366345380D01*
X432043571Y-366393000D01*
X432091190Y-366440619D01*
X432138809Y-366535857D01*
X432138809Y-366631095D01*
X432091190Y-366773952D01*
X431519761Y-367345380D01*
X432138809Y-367345380D01*
X433091190Y-367345380D02*
X432519761Y-367345380D01*
X432805476Y-367345380D02*
X432805476Y-366345380D01*
X432710238Y-366488238D01*
X432615000Y-366583476D01*
X432519761Y-366631095D01*
X445211428Y-367295380D02*
X445211428Y-366295380D01*
X445592380Y-366295380D01*
X445687619Y-366343000D01*
X445735238Y-366390619D01*
X445782857Y-366485857D01*
X445782857Y-366628714D01*
X445735238Y-366723952D01*
X445687619Y-366771571D01*
X445592380Y-366819190D01*
X445211428Y-366819190D01*
X446259047Y-367295380D02*
X446449523Y-367295380D01*
X446544761Y-367247761D01*
X446592380Y-367200142D01*
X446687619Y-367057285D01*
X446735238Y-366866809D01*
X446735238Y-366485857D01*
X446687619Y-366390619D01*
X446640000Y-366343000D01*
X446544761Y-366295380D01*
X446354285Y-366295380D01*
X446259047Y-366343000D01*
X446211428Y-366390619D01*
X446163809Y-366485857D01*
X446163809Y-366723952D01*
X446211428Y-366819190D01*
X446259047Y-366866809D01*
X446354285Y-366914428D01*
X446544761Y-366914428D01*
X446640000Y-366866809D01*
X446687619Y-366819190D01*
X446735238Y-366723952D01*
X447163809Y-367200142D02*
X447211428Y-367247761D01*
X447163809Y-367295380D01*
X447116190Y-367247761D01*
X447163809Y-367200142D01*
X447163809Y-367295380D01*
X447592380Y-366390619D02*
X447640000Y-366343000D01*
X447735238Y-366295380D01*
X447973333Y-366295380D01*
X448068571Y-366343000D01*
X448116190Y-366390619D01*
X448163809Y-366485857D01*
X448163809Y-366581095D01*
X448116190Y-366723952D01*
X447544761Y-367295380D01*
X448163809Y-367295380D01*
X448544761Y-366390619D02*
X448592380Y-366343000D01*
X448687619Y-366295380D01*
X448925714Y-366295380D01*
X449020952Y-366343000D01*
X449068571Y-366390619D01*
X449116190Y-366485857D01*
X449116190Y-366581095D01*
X449068571Y-366723952D01*
X448497142Y-367295380D01*
X449116190Y-367295380D01*
X444786428Y-263100380D02*
X444786428Y-262100380D01*
X445167380Y-262100380D01*
X445262619Y-262148000D01*
X445310238Y-262195619D01*
X445357857Y-262290857D01*
X445357857Y-262433714D01*
X445310238Y-262528952D01*
X445262619Y-262576571D01*
X445167380Y-262624190D01*
X444786428Y-262624190D01*
X445834047Y-263100380D02*
X446024523Y-263100380D01*
X446119761Y-263052761D01*
X446167380Y-263005142D01*
X446262619Y-262862285D01*
X446310238Y-262671809D01*
X446310238Y-262290857D01*
X446262619Y-262195619D01*
X446215000Y-262148000D01*
X446119761Y-262100380D01*
X445929285Y-262100380D01*
X445834047Y-262148000D01*
X445786428Y-262195619D01*
X445738809Y-262290857D01*
X445738809Y-262528952D01*
X445786428Y-262624190D01*
X445834047Y-262671809D01*
X445929285Y-262719428D01*
X446119761Y-262719428D01*
X446215000Y-262671809D01*
X446262619Y-262624190D01*
X446310238Y-262528952D01*
X446738809Y-263005142D02*
X446786428Y-263052761D01*
X446738809Y-263100380D01*
X446691190Y-263052761D01*
X446738809Y-263005142D01*
X446738809Y-263100380D01*
X447167380Y-262195619D02*
X447215000Y-262148000D01*
X447310238Y-262100380D01*
X447548333Y-262100380D01*
X447643571Y-262148000D01*
X447691190Y-262195619D01*
X447738809Y-262290857D01*
X447738809Y-262386095D01*
X447691190Y-262528952D01*
X447119761Y-263100380D01*
X447738809Y-263100380D01*
X448072142Y-262100380D02*
X448691190Y-262100380D01*
X448357857Y-262481333D01*
X448500714Y-262481333D01*
X448595952Y-262528952D01*
X448643571Y-262576571D01*
X448691190Y-262671809D01*
X448691190Y-262909904D01*
X448643571Y-263005142D01*
X448595952Y-263052761D01*
X448500714Y-263100380D01*
X448215000Y-263100380D01*
X448119761Y-263052761D01*
X448072142Y-263005142D01*
X428786428Y-263100380D02*
X428786428Y-262100380D01*
X429167380Y-262100380D01*
X429262619Y-262148000D01*
X429310238Y-262195619D01*
X429357857Y-262290857D01*
X429357857Y-262433714D01*
X429310238Y-262528952D01*
X429262619Y-262576571D01*
X429167380Y-262624190D01*
X428786428Y-262624190D01*
X429834047Y-263100380D02*
X430024523Y-263100380D01*
X430119761Y-263052761D01*
X430167380Y-263005142D01*
X430262619Y-262862285D01*
X430310238Y-262671809D01*
X430310238Y-262290857D01*
X430262619Y-262195619D01*
X430215000Y-262148000D01*
X430119761Y-262100380D01*
X429929285Y-262100380D01*
X429834047Y-262148000D01*
X429786428Y-262195619D01*
X429738809Y-262290857D01*
X429738809Y-262528952D01*
X429786428Y-262624190D01*
X429834047Y-262671809D01*
X429929285Y-262719428D01*
X430119761Y-262719428D01*
X430215000Y-262671809D01*
X430262619Y-262624190D01*
X430310238Y-262528952D01*
X430738809Y-263005142D02*
X430786428Y-263052761D01*
X430738809Y-263100380D01*
X430691190Y-263052761D01*
X430738809Y-263005142D01*
X430738809Y-263100380D01*
X431167380Y-262195619D02*
X431215000Y-262148000D01*
X431310238Y-262100380D01*
X431548333Y-262100380D01*
X431643571Y-262148000D01*
X431691190Y-262195619D01*
X431738809Y-262290857D01*
X431738809Y-262386095D01*
X431691190Y-262528952D01*
X431119761Y-263100380D01*
X431738809Y-263100380D01*
X432595952Y-262433714D02*
X432595952Y-263100380D01*
X432357857Y-262052761D02*
X432119761Y-262767047D01*
X432738809Y-262767047D01*
X411286428Y-263100380D02*
X411286428Y-262100380D01*
X411667380Y-262100380D01*
X411762619Y-262148000D01*
X411810238Y-262195619D01*
X411857857Y-262290857D01*
X411857857Y-262433714D01*
X411810238Y-262528952D01*
X411762619Y-262576571D01*
X411667380Y-262624190D01*
X411286428Y-262624190D01*
X412334047Y-263100380D02*
X412524523Y-263100380D01*
X412619761Y-263052761D01*
X412667380Y-263005142D01*
X412762619Y-262862285D01*
X412810238Y-262671809D01*
X412810238Y-262290857D01*
X412762619Y-262195619D01*
X412715000Y-262148000D01*
X412619761Y-262100380D01*
X412429285Y-262100380D01*
X412334047Y-262148000D01*
X412286428Y-262195619D01*
X412238809Y-262290857D01*
X412238809Y-262528952D01*
X412286428Y-262624190D01*
X412334047Y-262671809D01*
X412429285Y-262719428D01*
X412619761Y-262719428D01*
X412715000Y-262671809D01*
X412762619Y-262624190D01*
X412810238Y-262528952D01*
X413238809Y-263005142D02*
X413286428Y-263052761D01*
X413238809Y-263100380D01*
X413191190Y-263052761D01*
X413238809Y-263005142D01*
X413238809Y-263100380D01*
X413667380Y-262195619D02*
X413715000Y-262148000D01*
X413810238Y-262100380D01*
X414048333Y-262100380D01*
X414143571Y-262148000D01*
X414191190Y-262195619D01*
X414238809Y-262290857D01*
X414238809Y-262386095D01*
X414191190Y-262528952D01*
X413619761Y-263100380D01*
X414238809Y-263100380D01*
X415143571Y-262100380D02*
X414667380Y-262100380D01*
X414619761Y-262576571D01*
X414667380Y-262528952D01*
X414762619Y-262481333D01*
X415000714Y-262481333D01*
X415095952Y-262528952D01*
X415143571Y-262576571D01*
X415191190Y-262671809D01*
X415191190Y-262909904D01*
X415143571Y-263005142D01*
X415095952Y-263052761D01*
X415000714Y-263100380D01*
X414762619Y-263100380D01*
X414667380Y-263052761D01*
X414619761Y-263005142D01*
X395286428Y-263100380D02*
X395286428Y-262100380D01*
X395667380Y-262100380D01*
X395762619Y-262148000D01*
X395810238Y-262195619D01*
X395857857Y-262290857D01*
X395857857Y-262433714D01*
X395810238Y-262528952D01*
X395762619Y-262576571D01*
X395667380Y-262624190D01*
X395286428Y-262624190D01*
X396334047Y-263100380D02*
X396524523Y-263100380D01*
X396619761Y-263052761D01*
X396667380Y-263005142D01*
X396762619Y-262862285D01*
X396810238Y-262671809D01*
X396810238Y-262290857D01*
X396762619Y-262195619D01*
X396715000Y-262148000D01*
X396619761Y-262100380D01*
X396429285Y-262100380D01*
X396334047Y-262148000D01*
X396286428Y-262195619D01*
X396238809Y-262290857D01*
X396238809Y-262528952D01*
X396286428Y-262624190D01*
X396334047Y-262671809D01*
X396429285Y-262719428D01*
X396619761Y-262719428D01*
X396715000Y-262671809D01*
X396762619Y-262624190D01*
X396810238Y-262528952D01*
X397238809Y-263005142D02*
X397286428Y-263052761D01*
X397238809Y-263100380D01*
X397191190Y-263052761D01*
X397238809Y-263005142D01*
X397238809Y-263100380D01*
X397667380Y-262195619D02*
X397715000Y-262148000D01*
X397810238Y-262100380D01*
X398048333Y-262100380D01*
X398143571Y-262148000D01*
X398191190Y-262195619D01*
X398238809Y-262290857D01*
X398238809Y-262386095D01*
X398191190Y-262528952D01*
X397619761Y-263100380D01*
X398238809Y-263100380D01*
X399095952Y-262100380D02*
X398905476Y-262100380D01*
X398810238Y-262148000D01*
X398762619Y-262195619D01*
X398667380Y-262338476D01*
X398619761Y-262528952D01*
X398619761Y-262909904D01*
X398667380Y-263005142D01*
X398715000Y-263052761D01*
X398810238Y-263100380D01*
X399000714Y-263100380D01*
X399095952Y-263052761D01*
X399143571Y-263005142D01*
X399191190Y-262909904D01*
X399191190Y-262671809D01*
X399143571Y-262576571D01*
X399095952Y-262528952D01*
X399000714Y-262481333D01*
X398810238Y-262481333D01*
X398715000Y-262528952D01*
X398667380Y-262576571D01*
X398619761Y-262671809D01*
X378286428Y-263100380D02*
X378286428Y-262100380D01*
X378667380Y-262100380D01*
X378762619Y-262148000D01*
X378810238Y-262195619D01*
X378857857Y-262290857D01*
X378857857Y-262433714D01*
X378810238Y-262528952D01*
X378762619Y-262576571D01*
X378667380Y-262624190D01*
X378286428Y-262624190D01*
X379334047Y-263100380D02*
X379524523Y-263100380D01*
X379619761Y-263052761D01*
X379667380Y-263005142D01*
X379762619Y-262862285D01*
X379810238Y-262671809D01*
X379810238Y-262290857D01*
X379762619Y-262195619D01*
X379715000Y-262148000D01*
X379619761Y-262100380D01*
X379429285Y-262100380D01*
X379334047Y-262148000D01*
X379286428Y-262195619D01*
X379238809Y-262290857D01*
X379238809Y-262528952D01*
X379286428Y-262624190D01*
X379334047Y-262671809D01*
X379429285Y-262719428D01*
X379619761Y-262719428D01*
X379715000Y-262671809D01*
X379762619Y-262624190D01*
X379810238Y-262528952D01*
X380238809Y-263005142D02*
X380286428Y-263052761D01*
X380238809Y-263100380D01*
X380191190Y-263052761D01*
X380238809Y-263005142D01*
X380238809Y-263100380D01*
X380667380Y-262195619D02*
X380715000Y-262148000D01*
X380810238Y-262100380D01*
X381048333Y-262100380D01*
X381143571Y-262148000D01*
X381191190Y-262195619D01*
X381238809Y-262290857D01*
X381238809Y-262386095D01*
X381191190Y-262528952D01*
X380619761Y-263100380D01*
X381238809Y-263100380D01*
X381572142Y-262100380D02*
X382238809Y-262100380D01*
X381810238Y-263100380D01*
X362286428Y-263100380D02*
X362286428Y-262100380D01*
X362667380Y-262100380D01*
X362762619Y-262148000D01*
X362810238Y-262195619D01*
X362857857Y-262290857D01*
X362857857Y-262433714D01*
X362810238Y-262528952D01*
X362762619Y-262576571D01*
X362667380Y-262624190D01*
X362286428Y-262624190D01*
X363334047Y-263100380D02*
X363524523Y-263100380D01*
X363619761Y-263052761D01*
X363667380Y-263005142D01*
X363762619Y-262862285D01*
X363810238Y-262671809D01*
X363810238Y-262290857D01*
X363762619Y-262195619D01*
X363715000Y-262148000D01*
X363619761Y-262100380D01*
X363429285Y-262100380D01*
X363334047Y-262148000D01*
X363286428Y-262195619D01*
X363238809Y-262290857D01*
X363238809Y-262528952D01*
X363286428Y-262624190D01*
X363334047Y-262671809D01*
X363429285Y-262719428D01*
X363619761Y-262719428D01*
X363715000Y-262671809D01*
X363762619Y-262624190D01*
X363810238Y-262528952D01*
X364238809Y-263005142D02*
X364286428Y-263052761D01*
X364238809Y-263100380D01*
X364191190Y-263052761D01*
X364238809Y-263005142D01*
X364238809Y-263100380D01*
X364667380Y-262195619D02*
X364715000Y-262148000D01*
X364810238Y-262100380D01*
X365048333Y-262100380D01*
X365143571Y-262148000D01*
X365191190Y-262195619D01*
X365238809Y-262290857D01*
X365238809Y-262386095D01*
X365191190Y-262528952D01*
X364619761Y-263100380D01*
X365238809Y-263100380D01*
X365810238Y-262528952D02*
X365715000Y-262481333D01*
X365667380Y-262433714D01*
X365619761Y-262338476D01*
X365619761Y-262290857D01*
X365667380Y-262195619D01*
X365715000Y-262148000D01*
X365810238Y-262100380D01*
X366000714Y-262100380D01*
X366095952Y-262148000D01*
X366143571Y-262195619D01*
X366191190Y-262290857D01*
X366191190Y-262338476D01*
X366143571Y-262433714D01*
X366095952Y-262481333D01*
X366000714Y-262528952D01*
X365810238Y-262528952D01*
X365715000Y-262576571D01*
X365667380Y-262624190D01*
X365619761Y-262719428D01*
X365619761Y-262909904D01*
X365667380Y-263005142D01*
X365715000Y-263052761D01*
X365810238Y-263100380D01*
X366000714Y-263100380D01*
X366095952Y-263052761D01*
X366143571Y-263005142D01*
X366191190Y-262909904D01*
X366191190Y-262719428D01*
X366143571Y-262624190D01*
X366095952Y-262576571D01*
X366000714Y-262528952D01*
X345786428Y-263100380D02*
X345786428Y-262100380D01*
X346167380Y-262100380D01*
X346262619Y-262148000D01*
X346310238Y-262195619D01*
X346357857Y-262290857D01*
X346357857Y-262433714D01*
X346310238Y-262528952D01*
X346262619Y-262576571D01*
X346167380Y-262624190D01*
X345786428Y-262624190D01*
X346834047Y-263100380D02*
X347024523Y-263100380D01*
X347119761Y-263052761D01*
X347167380Y-263005142D01*
X347262619Y-262862285D01*
X347310238Y-262671809D01*
X347310238Y-262290857D01*
X347262619Y-262195619D01*
X347215000Y-262148000D01*
X347119761Y-262100380D01*
X346929285Y-262100380D01*
X346834047Y-262148000D01*
X346786428Y-262195619D01*
X346738809Y-262290857D01*
X346738809Y-262528952D01*
X346786428Y-262624190D01*
X346834047Y-262671809D01*
X346929285Y-262719428D01*
X347119761Y-262719428D01*
X347215000Y-262671809D01*
X347262619Y-262624190D01*
X347310238Y-262528952D01*
X347738809Y-263005142D02*
X347786428Y-263052761D01*
X347738809Y-263100380D01*
X347691190Y-263052761D01*
X347738809Y-263005142D01*
X347738809Y-263100380D01*
X348167380Y-262195619D02*
X348215000Y-262148000D01*
X348310238Y-262100380D01*
X348548333Y-262100380D01*
X348643571Y-262148000D01*
X348691190Y-262195619D01*
X348738809Y-262290857D01*
X348738809Y-262386095D01*
X348691190Y-262528952D01*
X348119761Y-263100380D01*
X348738809Y-263100380D01*
X349215000Y-263100380D02*
X349405476Y-263100380D01*
X349500714Y-263052761D01*
X349548333Y-263005142D01*
X349643571Y-262862285D01*
X349691190Y-262671809D01*
X349691190Y-262290857D01*
X349643571Y-262195619D01*
X349595952Y-262148000D01*
X349500714Y-262100380D01*
X349310238Y-262100380D01*
X349215000Y-262148000D01*
X349167380Y-262195619D01*
X349119761Y-262290857D01*
X349119761Y-262528952D01*
X349167380Y-262624190D01*
X349215000Y-262671809D01*
X349310238Y-262719428D01*
X349500714Y-262719428D01*
X349595952Y-262671809D01*
X349643571Y-262624190D01*
X349691190Y-262528952D01*
X329286428Y-263100380D02*
X329286428Y-262100380D01*
X329667380Y-262100380D01*
X329762619Y-262148000D01*
X329810238Y-262195619D01*
X329857857Y-262290857D01*
X329857857Y-262433714D01*
X329810238Y-262528952D01*
X329762619Y-262576571D01*
X329667380Y-262624190D01*
X329286428Y-262624190D01*
X330334047Y-263100380D02*
X330524523Y-263100380D01*
X330619761Y-263052761D01*
X330667380Y-263005142D01*
X330762619Y-262862285D01*
X330810238Y-262671809D01*
X330810238Y-262290857D01*
X330762619Y-262195619D01*
X330715000Y-262148000D01*
X330619761Y-262100380D01*
X330429285Y-262100380D01*
X330334047Y-262148000D01*
X330286428Y-262195619D01*
X330238809Y-262290857D01*
X330238809Y-262528952D01*
X330286428Y-262624190D01*
X330334047Y-262671809D01*
X330429285Y-262719428D01*
X330619761Y-262719428D01*
X330715000Y-262671809D01*
X330762619Y-262624190D01*
X330810238Y-262528952D01*
X331238809Y-263005142D02*
X331286428Y-263052761D01*
X331238809Y-263100380D01*
X331191190Y-263052761D01*
X331238809Y-263005142D01*
X331238809Y-263100380D01*
X331619761Y-262100380D02*
X332238809Y-262100380D01*
X331905476Y-262481333D01*
X332048333Y-262481333D01*
X332143571Y-262528952D01*
X332191190Y-262576571D01*
X332238809Y-262671809D01*
X332238809Y-262909904D01*
X332191190Y-263005142D01*
X332143571Y-263052761D01*
X332048333Y-263100380D01*
X331762619Y-263100380D01*
X331667380Y-263052761D01*
X331619761Y-263005142D01*
X332857857Y-262100380D02*
X332953095Y-262100380D01*
X333048333Y-262148000D01*
X333095952Y-262195619D01*
X333143571Y-262290857D01*
X333191190Y-262481333D01*
X333191190Y-262719428D01*
X333143571Y-262909904D01*
X333095952Y-263005142D01*
X333048333Y-263052761D01*
X332953095Y-263100380D01*
X332857857Y-263100380D01*
X332762619Y-263052761D01*
X332715000Y-263005142D01*
X332667380Y-262909904D01*
X332619761Y-262719428D01*
X332619761Y-262481333D01*
X332667380Y-262290857D01*
X332715000Y-262195619D01*
X332762619Y-262148000D01*
X332857857Y-262100380D01*
X312286428Y-263100380D02*
X312286428Y-262100380D01*
X312667380Y-262100380D01*
X312762619Y-262148000D01*
X312810238Y-262195619D01*
X312857857Y-262290857D01*
X312857857Y-262433714D01*
X312810238Y-262528952D01*
X312762619Y-262576571D01*
X312667380Y-262624190D01*
X312286428Y-262624190D01*
X313334047Y-263100380D02*
X313524523Y-263100380D01*
X313619761Y-263052761D01*
X313667380Y-263005142D01*
X313762619Y-262862285D01*
X313810238Y-262671809D01*
X313810238Y-262290857D01*
X313762619Y-262195619D01*
X313715000Y-262148000D01*
X313619761Y-262100380D01*
X313429285Y-262100380D01*
X313334047Y-262148000D01*
X313286428Y-262195619D01*
X313238809Y-262290857D01*
X313238809Y-262528952D01*
X313286428Y-262624190D01*
X313334047Y-262671809D01*
X313429285Y-262719428D01*
X313619761Y-262719428D01*
X313715000Y-262671809D01*
X313762619Y-262624190D01*
X313810238Y-262528952D01*
X314238809Y-263005142D02*
X314286428Y-263052761D01*
X314238809Y-263100380D01*
X314191190Y-263052761D01*
X314238809Y-263005142D01*
X314238809Y-263100380D01*
X314619761Y-262100380D02*
X315238809Y-262100380D01*
X314905476Y-262481333D01*
X315048333Y-262481333D01*
X315143571Y-262528952D01*
X315191190Y-262576571D01*
X315238809Y-262671809D01*
X315238809Y-262909904D01*
X315191190Y-263005142D01*
X315143571Y-263052761D01*
X315048333Y-263100380D01*
X314762619Y-263100380D01*
X314667380Y-263052761D01*
X314619761Y-263005142D01*
X316191190Y-263100380D02*
X315619761Y-263100380D01*
X315905476Y-263100380D02*
X315905476Y-262100380D01*
X315810238Y-262243238D01*
X315715000Y-262338476D01*
X315619761Y-262386095D01*
X296286428Y-263100380D02*
X296286428Y-262100380D01*
X296667380Y-262100380D01*
X296762619Y-262148000D01*
X296810238Y-262195619D01*
X296857857Y-262290857D01*
X296857857Y-262433714D01*
X296810238Y-262528952D01*
X296762619Y-262576571D01*
X296667380Y-262624190D01*
X296286428Y-262624190D01*
X297334047Y-263100380D02*
X297524523Y-263100380D01*
X297619761Y-263052761D01*
X297667380Y-263005142D01*
X297762619Y-262862285D01*
X297810238Y-262671809D01*
X297810238Y-262290857D01*
X297762619Y-262195619D01*
X297715000Y-262148000D01*
X297619761Y-262100380D01*
X297429285Y-262100380D01*
X297334047Y-262148000D01*
X297286428Y-262195619D01*
X297238809Y-262290857D01*
X297238809Y-262528952D01*
X297286428Y-262624190D01*
X297334047Y-262671809D01*
X297429285Y-262719428D01*
X297619761Y-262719428D01*
X297715000Y-262671809D01*
X297762619Y-262624190D01*
X297810238Y-262528952D01*
X298238809Y-263005142D02*
X298286428Y-263052761D01*
X298238809Y-263100380D01*
X298191190Y-263052761D01*
X298238809Y-263005142D01*
X298238809Y-263100380D01*
X299143571Y-262433714D02*
X299143571Y-263100380D01*
X298905476Y-262052761D02*
X298667380Y-262767047D01*
X299286428Y-262767047D01*
X299619761Y-262195619D02*
X299667380Y-262148000D01*
X299762619Y-262100380D01*
X300000714Y-262100380D01*
X300095952Y-262148000D01*
X300143571Y-262195619D01*
X300191190Y-262290857D01*
X300191190Y-262386095D01*
X300143571Y-262528952D01*
X299572142Y-263100380D01*
X300191190Y-263100380D01*
X359211428Y-319993714D02*
X359211428Y-319231809D01*
X359592380Y-319612761D02*
X358830476Y-319612761D01*
X358592380Y-318279428D02*
X358592380Y-318755619D01*
X359068571Y-318803238D01*
X359020952Y-318755619D01*
X358973333Y-318660380D01*
X358973333Y-318422285D01*
X359020952Y-318327047D01*
X359068571Y-318279428D01*
X359163809Y-318231809D01*
X359401904Y-318231809D01*
X359497142Y-318279428D01*
X359544761Y-318327047D01*
X359592380Y-318422285D01*
X359592380Y-318660380D01*
X359544761Y-318755619D01*
X359497142Y-318803238D01*
X358592380Y-317946095D02*
X359592380Y-317612761D01*
X358592380Y-317279428D01*
X358640000Y-310969904D02*
X358592380Y-311065142D01*
X358592380Y-311208000D01*
X358640000Y-311350857D01*
X358735238Y-311446095D01*
X358830476Y-311493714D01*
X359020952Y-311541333D01*
X359163809Y-311541333D01*
X359354285Y-311493714D01*
X359449523Y-311446095D01*
X359544761Y-311350857D01*
X359592380Y-311208000D01*
X359592380Y-311112761D01*
X359544761Y-310969904D01*
X359497142Y-310922285D01*
X359163809Y-310922285D01*
X359163809Y-311112761D01*
X359592380Y-310493714D02*
X358592380Y-310493714D01*
X359592380Y-309922285D01*
X358592380Y-309922285D01*
X359592380Y-309446095D02*
X358592380Y-309446095D01*
X358592380Y-309208000D01*
X358640000Y-309065142D01*
X358735238Y-308969904D01*
X358830476Y-308922285D01*
X359020952Y-308874666D01*
X359163809Y-308874666D01*
X359354285Y-308922285D01*
X359449523Y-308969904D01*
X359544761Y-309065142D01*
X359592380Y-309208000D01*
X359592380Y-309446095D01*
D11*
X453995428Y-320795714D02*
X453395428Y-320795714D01*
X453624000Y-320795714D02*
X453595428Y-320738571D01*
X453595428Y-320624285D01*
X453624000Y-320567142D01*
X453652571Y-320538571D01*
X453709714Y-320510000D01*
X453881142Y-320510000D01*
X453938285Y-320538571D01*
X453966857Y-320567142D01*
X453995428Y-320624285D01*
X453995428Y-320738571D01*
X453966857Y-320795714D01*
X453995428Y-320167142D02*
X453966857Y-320224285D01*
X453938285Y-320252857D01*
X453881142Y-320281428D01*
X453709714Y-320281428D01*
X453652571Y-320252857D01*
X453624000Y-320224285D01*
X453595428Y-320167142D01*
X453595428Y-320081428D01*
X453624000Y-320024285D01*
X453652571Y-319995714D01*
X453709714Y-319967142D01*
X453881142Y-319967142D01*
X453938285Y-319995714D01*
X453966857Y-320024285D01*
X453995428Y-320081428D01*
X453995428Y-320167142D01*
X453595428Y-319710000D02*
X453995428Y-319710000D01*
X453652571Y-319710000D02*
X453624000Y-319681428D01*
X453595428Y-319624285D01*
X453595428Y-319538571D01*
X453624000Y-319481428D01*
X453681142Y-319452857D01*
X453995428Y-319452857D01*
X453966857Y-318938571D02*
X453995428Y-318995714D01*
X453995428Y-319110000D01*
X453966857Y-319167142D01*
X453909714Y-319195714D01*
X453681142Y-319195714D01*
X453624000Y-319167142D01*
X453595428Y-319110000D01*
X453595428Y-318995714D01*
X453624000Y-318938571D01*
X453681142Y-318910000D01*
X453738285Y-318910000D01*
X453795428Y-319195714D01*
X453995428Y-318652857D02*
X453395428Y-318652857D01*
X453395428Y-318252857D02*
X453395428Y-318138571D01*
X453424000Y-318081428D01*
X453481142Y-318024285D01*
X453595428Y-317995714D01*
X453795428Y-317995714D01*
X453909714Y-318024285D01*
X453966857Y-318081428D01*
X453995428Y-318138571D01*
X453995428Y-318252857D01*
X453966857Y-318310000D01*
X453909714Y-318367142D01*
X453795428Y-318395714D01*
X453595428Y-318395714D01*
X453481142Y-318367142D01*
X453424000Y-318310000D01*
X453395428Y-318252857D01*
X453766857Y-317281428D02*
X453766857Y-316824285D01*
X453995428Y-316081428D02*
X453595428Y-316081428D01*
X453709714Y-316081428D02*
X453652571Y-316052857D01*
X453624000Y-316024285D01*
X453595428Y-315967142D01*
X453595428Y-315910000D01*
X453966857Y-315481428D02*
X453995428Y-315538571D01*
X453995428Y-315652857D01*
X453966857Y-315710000D01*
X453909714Y-315738571D01*
X453681142Y-315738571D01*
X453624000Y-315710000D01*
X453595428Y-315652857D01*
X453595428Y-315538571D01*
X453624000Y-315481428D01*
X453681142Y-315452857D01*
X453738285Y-315452857D01*
X453795428Y-315738571D01*
X453995428Y-315110000D02*
X453966857Y-315167142D01*
X453909714Y-315195714D01*
X453395428Y-315195714D01*
X453995428Y-314624285D02*
X453681142Y-314624285D01*
X453624000Y-314652857D01*
X453595428Y-314710000D01*
X453595428Y-314824285D01*
X453624000Y-314881428D01*
X453966857Y-314624285D02*
X453995428Y-314681428D01*
X453995428Y-314824285D01*
X453966857Y-314881428D01*
X453909714Y-314910000D01*
X453852571Y-314910000D01*
X453795428Y-314881428D01*
X453766857Y-314824285D01*
X453766857Y-314681428D01*
X453738285Y-314624285D01*
X453595428Y-314395714D02*
X453995428Y-314252857D01*
X453595428Y-314110000D02*
X453995428Y-314252857D01*
X454138285Y-314310000D01*
X454166857Y-314338571D01*
X454195428Y-314395714D01*
X453995428Y-313424285D02*
X453395428Y-313424285D01*
X453624000Y-313424285D02*
X453595428Y-313367142D01*
X453595428Y-313252857D01*
X453624000Y-313195714D01*
X453652571Y-313167142D01*
X453709714Y-313138571D01*
X453881142Y-313138571D01*
X453938285Y-313167142D01*
X453966857Y-313195714D01*
X453995428Y-313252857D01*
X453995428Y-313367142D01*
X453966857Y-313424285D01*
X453995428Y-312795714D02*
X453966857Y-312852857D01*
X453938285Y-312881428D01*
X453881142Y-312910000D01*
X453709714Y-312910000D01*
X453652571Y-312881428D01*
X453624000Y-312852857D01*
X453595428Y-312795714D01*
X453595428Y-312710000D01*
X453624000Y-312652857D01*
X453652571Y-312624285D01*
X453709714Y-312595714D01*
X453881142Y-312595714D01*
X453938285Y-312624285D01*
X453966857Y-312652857D01*
X453995428Y-312710000D01*
X453995428Y-312795714D01*
X453995428Y-312081428D02*
X453681142Y-312081428D01*
X453624000Y-312110000D01*
X453595428Y-312167142D01*
X453595428Y-312281428D01*
X453624000Y-312338571D01*
X453966857Y-312081428D02*
X453995428Y-312138571D01*
X453995428Y-312281428D01*
X453966857Y-312338571D01*
X453909714Y-312367142D01*
X453852571Y-312367142D01*
X453795428Y-312338571D01*
X453766857Y-312281428D01*
X453766857Y-312138571D01*
X453738285Y-312081428D01*
X453995428Y-311795714D02*
X453595428Y-311795714D01*
X453709714Y-311795714D02*
X453652571Y-311767142D01*
X453624000Y-311738571D01*
X453595428Y-311681428D01*
X453595428Y-311624285D01*
X453995428Y-311167142D02*
X453395428Y-311167142D01*
X453966857Y-311167142D02*
X453995428Y-311224285D01*
X453995428Y-311338571D01*
X453966857Y-311395714D01*
X453938285Y-311424285D01*
X453881142Y-311452857D01*
X453709714Y-311452857D01*
X453652571Y-311424285D01*
X453624000Y-311395714D01*
X453595428Y-311338571D01*
X453595428Y-311224285D01*
X453624000Y-311167142D01*
X453595428Y-310481428D02*
X453995428Y-310338571D01*
X453595428Y-310195714D01*
X453395428Y-309852857D02*
X453395428Y-309795714D01*
X453424000Y-309738571D01*
X453452571Y-309710000D01*
X453509714Y-309681428D01*
X453624000Y-309652857D01*
X453766857Y-309652857D01*
X453881142Y-309681428D01*
X453938285Y-309710000D01*
X453966857Y-309738571D01*
X453995428Y-309795714D01*
X453995428Y-309852857D01*
X453966857Y-309910000D01*
X453938285Y-309938571D01*
X453881142Y-309967142D01*
X453766857Y-309995714D01*
X453624000Y-309995714D01*
X453509714Y-309967142D01*
X453452571Y-309938571D01*
X453424000Y-309910000D01*
X453395428Y-309852857D01*
X453938285Y-309395714D02*
X453966857Y-309367142D01*
X453995428Y-309395714D01*
X453966857Y-309424285D01*
X453938285Y-309395714D01*
X453995428Y-309395714D01*
X453452571Y-309138571D02*
X453424000Y-309110000D01*
X453395428Y-309052857D01*
X453395428Y-308910000D01*
X453424000Y-308852857D01*
X453452571Y-308824285D01*
X453509714Y-308795714D01*
X453566857Y-308795714D01*
X453652571Y-308824285D01*
X453995428Y-309167142D01*
X453995428Y-308795714D01*
X454864000Y-320710000D02*
X454864000Y-320424285D01*
X455035428Y-320767142D02*
X454435428Y-320567142D01*
X455035428Y-320367142D01*
X454635428Y-319910000D02*
X455035428Y-319910000D01*
X454635428Y-320167142D02*
X454949714Y-320167142D01*
X455006857Y-320138571D01*
X455035428Y-320081428D01*
X455035428Y-319995714D01*
X455006857Y-319938571D01*
X454978285Y-319910000D01*
X454635428Y-319710000D02*
X454635428Y-319481428D01*
X454435428Y-319624285D02*
X454949714Y-319624285D01*
X455006857Y-319595714D01*
X455035428Y-319538571D01*
X455035428Y-319481428D01*
X455035428Y-319281428D02*
X454435428Y-319281428D01*
X455035428Y-319024285D02*
X454721142Y-319024285D01*
X454664000Y-319052857D01*
X454635428Y-319110000D01*
X454635428Y-319195714D01*
X454664000Y-319252857D01*
X454692571Y-319281428D01*
X455035428Y-318652857D02*
X455006857Y-318710000D01*
X454978285Y-318738571D01*
X454921142Y-318767142D01*
X454749714Y-318767142D01*
X454692571Y-318738571D01*
X454664000Y-318710000D01*
X454635428Y-318652857D01*
X454635428Y-318567142D01*
X454664000Y-318510000D01*
X454692571Y-318481428D01*
X454749714Y-318452857D01*
X454921142Y-318452857D01*
X454978285Y-318481428D01*
X455006857Y-318510000D01*
X455035428Y-318567142D01*
X455035428Y-318652857D01*
X455035428Y-318195714D02*
X454635428Y-318195714D01*
X454749714Y-318195714D02*
X454692571Y-318167142D01*
X454664000Y-318138571D01*
X454635428Y-318081428D01*
X454635428Y-318024285D01*
X454978285Y-317824285D02*
X455006857Y-317795714D01*
X455035428Y-317824285D01*
X455006857Y-317852857D01*
X454978285Y-317824285D01*
X455035428Y-317824285D01*
X454664000Y-317824285D02*
X454692571Y-317795714D01*
X454721142Y-317824285D01*
X454692571Y-317852857D01*
X454664000Y-317824285D01*
X454721142Y-317824285D01*
X455035428Y-317081428D02*
X454435428Y-317081428D01*
X454664000Y-317081428D02*
X454635428Y-317024285D01*
X454635428Y-316910000D01*
X454664000Y-316852857D01*
X454692571Y-316824285D01*
X454749714Y-316795714D01*
X454921142Y-316795714D01*
X454978285Y-316824285D01*
X455006857Y-316852857D01*
X455035428Y-316910000D01*
X455035428Y-317024285D01*
X455006857Y-317081428D01*
X455035428Y-316452857D02*
X455006857Y-316510000D01*
X454978285Y-316538571D01*
X454921142Y-316567142D01*
X454749714Y-316567142D01*
X454692571Y-316538571D01*
X454664000Y-316510000D01*
X454635428Y-316452857D01*
X454635428Y-316367142D01*
X454664000Y-316310000D01*
X454692571Y-316281428D01*
X454749714Y-316252857D01*
X454921142Y-316252857D01*
X454978285Y-316281428D01*
X455006857Y-316310000D01*
X455035428Y-316367142D01*
X455035428Y-316452857D01*
X454635428Y-315995714D02*
X455035428Y-315995714D01*
X454692571Y-315995714D02*
X454664000Y-315967142D01*
X454635428Y-315910000D01*
X454635428Y-315824285D01*
X454664000Y-315767142D01*
X454721142Y-315738571D01*
X455035428Y-315738571D01*
X455006857Y-315224285D02*
X455035428Y-315281428D01*
X455035428Y-315395714D01*
X455006857Y-315452857D01*
X454949714Y-315481428D01*
X454721142Y-315481428D01*
X454664000Y-315452857D01*
X454635428Y-315395714D01*
X454635428Y-315281428D01*
X454664000Y-315224285D01*
X454721142Y-315195714D01*
X454778285Y-315195714D01*
X454835428Y-315481428D01*
X455035428Y-314938571D02*
X454435428Y-314938571D01*
X454435428Y-314538571D02*
X454435428Y-314424285D01*
X454464000Y-314367142D01*
X454521142Y-314310000D01*
X454635428Y-314281428D01*
X454835428Y-314281428D01*
X454949714Y-314310000D01*
X455006857Y-314367142D01*
X455035428Y-314424285D01*
X455035428Y-314538571D01*
X455006857Y-314595714D01*
X454949714Y-314652857D01*
X454835428Y-314681428D01*
X454635428Y-314681428D01*
X454521142Y-314652857D01*
X454464000Y-314595714D01*
X454435428Y-314538571D01*
X454978285Y-313224285D02*
X455006857Y-313252857D01*
X455035428Y-313338571D01*
X455035428Y-313395714D01*
X455006857Y-313481428D01*
X454949714Y-313538571D01*
X454892571Y-313567142D01*
X454778285Y-313595714D01*
X454692571Y-313595714D01*
X454578285Y-313567142D01*
X454521142Y-313538571D01*
X454464000Y-313481428D01*
X454435428Y-313395714D01*
X454435428Y-313338571D01*
X454464000Y-313252857D01*
X454492571Y-313224285D01*
X455035428Y-312881428D02*
X455006857Y-312938571D01*
X454978285Y-312967142D01*
X454921142Y-312995714D01*
X454749714Y-312995714D01*
X454692571Y-312967142D01*
X454664000Y-312938571D01*
X454635428Y-312881428D01*
X454635428Y-312795714D01*
X454664000Y-312738571D01*
X454692571Y-312710000D01*
X454749714Y-312681428D01*
X454921142Y-312681428D01*
X454978285Y-312710000D01*
X455006857Y-312738571D01*
X455035428Y-312795714D01*
X455035428Y-312881428D01*
X455035428Y-312424285D02*
X454635428Y-312424285D01*
X454692571Y-312424285D02*
X454664000Y-312395714D01*
X454635428Y-312338571D01*
X454635428Y-312252857D01*
X454664000Y-312195714D01*
X454721142Y-312167142D01*
X455035428Y-312167142D01*
X454721142Y-312167142D02*
X454664000Y-312138571D01*
X454635428Y-312081428D01*
X454635428Y-311995714D01*
X454664000Y-311938571D01*
X454721142Y-311910000D01*
X455035428Y-311910000D01*
X455035428Y-311624285D02*
X454635428Y-311624285D01*
X454692571Y-311624285D02*
X454664000Y-311595714D01*
X454635428Y-311538571D01*
X454635428Y-311452857D01*
X454664000Y-311395714D01*
X454721142Y-311367142D01*
X455035428Y-311367142D01*
X454721142Y-311367142D02*
X454664000Y-311338571D01*
X454635428Y-311281428D01*
X454635428Y-311195714D01*
X454664000Y-311138571D01*
X454721142Y-311110000D01*
X455035428Y-311110000D01*
X454635428Y-310567142D02*
X455035428Y-310567142D01*
X454635428Y-310824285D02*
X454949714Y-310824285D01*
X455006857Y-310795714D01*
X455035428Y-310738571D01*
X455035428Y-310652857D01*
X455006857Y-310595714D01*
X454978285Y-310567142D01*
X454635428Y-310281428D02*
X455035428Y-310281428D01*
X454692571Y-310281428D02*
X454664000Y-310252857D01*
X454635428Y-310195714D01*
X454635428Y-310110000D01*
X454664000Y-310052857D01*
X454721142Y-310024285D01*
X455035428Y-310024285D01*
X455035428Y-309738571D02*
X454635428Y-309738571D01*
X454435428Y-309738571D02*
X454464000Y-309767142D01*
X454492571Y-309738571D01*
X454464000Y-309710000D01*
X454435428Y-309738571D01*
X454492571Y-309738571D01*
X454635428Y-309538571D02*
X454635428Y-309310000D01*
X454435428Y-309452857D02*
X454949714Y-309452857D01*
X455006857Y-309424285D01*
X455035428Y-309367142D01*
X455035428Y-309310000D01*
X454635428Y-309167142D02*
X455035428Y-309024285D01*
X454635428Y-308881428D02*
X455035428Y-309024285D01*
X455178285Y-309081428D01*
X455206857Y-309110000D01*
X455235428Y-309167142D01*
X455532571Y-317724285D02*
X455504000Y-317695714D01*
X455475428Y-317638571D01*
X455475428Y-317495714D01*
X455504000Y-317438571D01*
X455532571Y-317410000D01*
X455589714Y-317381428D01*
X455646857Y-317381428D01*
X455732571Y-317410000D01*
X456075428Y-317752857D01*
X456075428Y-317381428D01*
X455475428Y-317010000D02*
X455475428Y-316952857D01*
X455504000Y-316895714D01*
X455532571Y-316867142D01*
X455589714Y-316838571D01*
X455704000Y-316810000D01*
X455846857Y-316810000D01*
X455961142Y-316838571D01*
X456018285Y-316867142D01*
X456046857Y-316895714D01*
X456075428Y-316952857D01*
X456075428Y-317010000D01*
X456046857Y-317067142D01*
X456018285Y-317095714D01*
X455961142Y-317124285D01*
X455846857Y-317152857D01*
X455704000Y-317152857D01*
X455589714Y-317124285D01*
X455532571Y-317095714D01*
X455504000Y-317067142D01*
X455475428Y-317010000D01*
X455532571Y-316581428D02*
X455504000Y-316552857D01*
X455475428Y-316495714D01*
X455475428Y-316352857D01*
X455504000Y-316295714D01*
X455532571Y-316267142D01*
X455589714Y-316238571D01*
X455646857Y-316238571D01*
X455732571Y-316267142D01*
X456075428Y-316610000D01*
X456075428Y-316238571D01*
X456075428Y-315667142D02*
X456075428Y-316010000D01*
X456075428Y-315838571D02*
X455475428Y-315838571D01*
X455561142Y-315895714D01*
X455618285Y-315952857D01*
X455646857Y-316010000D01*
X455846857Y-315410000D02*
X455846857Y-314952857D01*
X456075428Y-314352857D02*
X456075428Y-314695714D01*
X456075428Y-314524285D02*
X455475428Y-314524285D01*
X455561142Y-314581428D01*
X455618285Y-314638571D01*
X455646857Y-314695714D01*
X455475428Y-313981428D02*
X455475428Y-313924285D01*
X455504000Y-313867142D01*
X455532571Y-313838571D01*
X455589714Y-313810000D01*
X455704000Y-313781428D01*
X455846857Y-313781428D01*
X455961142Y-313810000D01*
X456018285Y-313838571D01*
X456046857Y-313867142D01*
X456075428Y-313924285D01*
X456075428Y-313981428D01*
X456046857Y-314038571D01*
X456018285Y-314067142D01*
X455961142Y-314095714D01*
X455846857Y-314124285D01*
X455704000Y-314124285D01*
X455589714Y-314095714D01*
X455532571Y-314067142D01*
X455504000Y-314038571D01*
X455475428Y-313981428D01*
X455846857Y-313524285D02*
X455846857Y-313067142D01*
X456075428Y-312467142D02*
X456075428Y-312810000D01*
X456075428Y-312638571D02*
X455475428Y-312638571D01*
X455561142Y-312695714D01*
X455618285Y-312752857D01*
X455646857Y-312810000D01*
X455475428Y-312267142D02*
X455475428Y-311895714D01*
X455704000Y-312095714D01*
X455704000Y-312010000D01*
X455732571Y-311952857D01*
X455761142Y-311924285D01*
X455818285Y-311895714D01*
X455961142Y-311895714D01*
X456018285Y-311924285D01*
X456046857Y-311952857D01*
X456075428Y-312010000D01*
X456075428Y-312181428D01*
X456046857Y-312238571D01*
X456018285Y-312267142D01*
D12*
%TO.C,U4*%
X439143000Y-316293000D02*
X440643000Y-316293000D01*
X439143000Y-316293000D02*
X437643000Y-316293000D01*
X439143000Y-313073000D02*
X440643000Y-313073000D01*
X439143000Y-313073000D02*
X436218000Y-313073000D01*
%TO.C,R9*%
X428743500Y-314445742D02*
X428743500Y-314920258D01*
X427698500Y-314445742D02*
X427698500Y-314920258D01*
%TO.C,R8*%
X434331500Y-314445742D02*
X434331500Y-314920258D01*
X433286500Y-314445742D02*
X433286500Y-314920258D01*
%TO.C,R7*%
X431537500Y-314445742D02*
X431537500Y-314920258D01*
X430492500Y-314445742D02*
X430492500Y-314920258D01*
%TO.C,R6*%
X450714500Y-316223742D02*
X450714500Y-316698258D01*
X449669500Y-316223742D02*
X449669500Y-316698258D01*
%TO.C,R5*%
X450714500Y-312667742D02*
X450714500Y-313142258D01*
X449669500Y-312667742D02*
X449669500Y-313142258D01*
%TO.C,R4*%
X448047500Y-316223742D02*
X448047500Y-316698258D01*
X447002500Y-316223742D02*
X447002500Y-316698258D01*
%TO.C,R3*%
X448047500Y-312667742D02*
X448047500Y-313142258D01*
X447002500Y-312667742D02*
X447002500Y-313142258D01*
%TO.C,R2*%
X445380500Y-316223742D02*
X445380500Y-316698258D01*
X444335500Y-316223742D02*
X444335500Y-316698258D01*
%TO.C,R1*%
X445380500Y-312667742D02*
X445380500Y-313142258D01*
X444335500Y-312667742D02*
X444335500Y-313142258D01*
%TO.C,J7*%
X296963000Y-310559000D02*
X294303000Y-310559000D01*
X296963000Y-315699000D02*
X296963000Y-310559000D01*
X294303000Y-315699000D02*
X294303000Y-310559000D01*
X296963000Y-315699000D02*
X294303000Y-315699000D01*
X296963000Y-316969000D02*
X296963000Y-318299000D01*
X296963000Y-318299000D02*
X295633000Y-318299000D01*
D13*
%TO.C,K1*%
X305265000Y-351008000D02*
X292565000Y-351008000D01*
X305265000Y-322008000D02*
X305265000Y-351008000D01*
X292565000Y-322008000D02*
X305265000Y-322008000D01*
X292565000Y-351008000D02*
X292565000Y-322008000D01*
D12*
%TO.C,J12*%
X390950000Y-317038000D02*
X390950000Y-311838000D01*
X360410000Y-317038000D02*
X390950000Y-317038000D01*
X357810000Y-311838000D02*
X390950000Y-311838000D01*
X360410000Y-317038000D02*
X360410000Y-314438000D01*
X360410000Y-314438000D02*
X357810000Y-314438000D01*
X357810000Y-314438000D02*
X357810000Y-311838000D01*
X359140000Y-317038000D02*
X357810000Y-317038000D01*
X357810000Y-317038000D02*
X357810000Y-315708000D01*
D13*
%TO.C,K2*%
X321265000Y-351008000D02*
X308565000Y-351008000D01*
X321265000Y-322008000D02*
X321265000Y-351008000D01*
X308565000Y-322008000D02*
X321265000Y-322008000D01*
X308565000Y-351008000D02*
X308565000Y-322008000D01*
%TO.C,K18*%
X407015000Y-278383000D02*
X419715000Y-278383000D01*
X407015000Y-307383000D02*
X407015000Y-278383000D01*
X419715000Y-307383000D02*
X407015000Y-307383000D01*
X419715000Y-278383000D02*
X419715000Y-307383000D01*
D12*
%TO.C,U3*%
X411425000Y-314558000D02*
X411425000Y-310698000D01*
X411425000Y-310698000D02*
X411180000Y-310698000D01*
X411425000Y-314558000D02*
X411425000Y-318418000D01*
X411425000Y-318418000D02*
X411180000Y-318418000D01*
X399655000Y-314558000D02*
X399655000Y-310698000D01*
X399655000Y-310698000D02*
X399900000Y-310698000D01*
X399655000Y-314558000D02*
X399655000Y-318418000D01*
X399655000Y-318418000D02*
X399900000Y-318418000D01*
X399900000Y-318418000D02*
X399900000Y-320233000D01*
%TO.C,U2*%
X335655000Y-314308000D02*
X335655000Y-318168000D01*
X335655000Y-318168000D02*
X335900000Y-318168000D01*
X335655000Y-314308000D02*
X335655000Y-310448000D01*
X335655000Y-310448000D02*
X335900000Y-310448000D01*
X347425000Y-314308000D02*
X347425000Y-318168000D01*
X347425000Y-318168000D02*
X347180000Y-318168000D01*
X347425000Y-314308000D02*
X347425000Y-310448000D01*
X347425000Y-310448000D02*
X347180000Y-310448000D01*
X347180000Y-310448000D02*
X347180000Y-308633000D01*
%TO.C,U1*%
X312225000Y-314558000D02*
X312225000Y-310698000D01*
X312225000Y-310698000D02*
X311980000Y-310698000D01*
X312225000Y-314558000D02*
X312225000Y-318418000D01*
X312225000Y-318418000D02*
X311980000Y-318418000D01*
X300455000Y-314558000D02*
X300455000Y-310698000D01*
X300455000Y-310698000D02*
X300700000Y-310698000D01*
X300455000Y-314558000D02*
X300455000Y-318418000D01*
X300455000Y-318418000D02*
X300700000Y-318418000D01*
X300700000Y-318418000D02*
X300700000Y-320233000D01*
D13*
%TO.C,K20*%
X440015000Y-278383000D02*
X452715000Y-278383000D01*
X440015000Y-307383000D02*
X440015000Y-278383000D01*
X452715000Y-307383000D02*
X440015000Y-307383000D01*
X452715000Y-278383000D02*
X452715000Y-307383000D01*
%TO.C,K19*%
X424015000Y-278383000D02*
X436715000Y-278383000D01*
X424015000Y-307383000D02*
X424015000Y-278383000D01*
X436715000Y-307383000D02*
X424015000Y-307383000D01*
X436715000Y-278383000D02*
X436715000Y-307383000D01*
%TO.C,K17*%
X391015000Y-278383000D02*
X403715000Y-278383000D01*
X391015000Y-307383000D02*
X391015000Y-278383000D01*
X403715000Y-307383000D02*
X391015000Y-307383000D01*
X403715000Y-278383000D02*
X403715000Y-307383000D01*
%TO.C,K16*%
X374015000Y-278383000D02*
X386715000Y-278383000D01*
X374015000Y-307383000D02*
X374015000Y-278383000D01*
X386715000Y-307383000D02*
X374015000Y-307383000D01*
X386715000Y-278383000D02*
X386715000Y-307383000D01*
%TO.C,K15*%
X358015000Y-278383000D02*
X370715000Y-278383000D01*
X358015000Y-307383000D02*
X358015000Y-278383000D01*
X370715000Y-307383000D02*
X358015000Y-307383000D01*
X370715000Y-278383000D02*
X370715000Y-307383000D01*
%TO.C,K14*%
X341015000Y-278383000D02*
X353715000Y-278383000D01*
X341015000Y-307383000D02*
X341015000Y-278383000D01*
X353715000Y-307383000D02*
X341015000Y-307383000D01*
X353715000Y-278383000D02*
X353715000Y-307383000D01*
%TO.C,K13*%
X325015000Y-278383000D02*
X337715000Y-278383000D01*
X325015000Y-307383000D02*
X325015000Y-278383000D01*
X337715000Y-307383000D02*
X325015000Y-307383000D01*
X337715000Y-278383000D02*
X337715000Y-307383000D01*
%TO.C,K12*%
X308015000Y-278383000D02*
X320715000Y-278383000D01*
X308015000Y-307383000D02*
X308015000Y-278383000D01*
X320715000Y-307383000D02*
X308015000Y-307383000D01*
X320715000Y-278383000D02*
X320715000Y-307383000D01*
%TO.C,K11*%
X292015000Y-278383000D02*
X304715000Y-278383000D01*
X292015000Y-307383000D02*
X292015000Y-278383000D01*
X304715000Y-307383000D02*
X292015000Y-307383000D01*
X304715000Y-278383000D02*
X304715000Y-307383000D01*
%TO.C,K10*%
X453265000Y-351008000D02*
X440565000Y-351008000D01*
X453265000Y-322008000D02*
X453265000Y-351008000D01*
X440565000Y-322008000D02*
X453265000Y-322008000D01*
X440565000Y-351008000D02*
X440565000Y-322008000D01*
%TO.C,K9*%
X437265000Y-351008000D02*
X424565000Y-351008000D01*
X437265000Y-322008000D02*
X437265000Y-351008000D01*
X424565000Y-322008000D02*
X437265000Y-322008000D01*
X424565000Y-351008000D02*
X424565000Y-322008000D01*
%TO.C,K8*%
X420265000Y-351008000D02*
X407565000Y-351008000D01*
X420265000Y-322008000D02*
X420265000Y-351008000D01*
X407565000Y-322008000D02*
X420265000Y-322008000D01*
X407565000Y-351008000D02*
X407565000Y-322008000D01*
%TO.C,K7*%
X404265000Y-351008000D02*
X391565000Y-351008000D01*
X404265000Y-322008000D02*
X404265000Y-351008000D01*
X391565000Y-322008000D02*
X404265000Y-322008000D01*
X391565000Y-351008000D02*
X391565000Y-322008000D01*
%TO.C,K6*%
X387265000Y-351008000D02*
X374565000Y-351008000D01*
X387265000Y-322008000D02*
X387265000Y-351008000D01*
X374565000Y-322008000D02*
X387265000Y-322008000D01*
X374565000Y-351008000D02*
X374565000Y-322008000D01*
%TO.C,K5*%
X371265000Y-351008000D02*
X358565000Y-351008000D01*
X371265000Y-322008000D02*
X371265000Y-351008000D01*
X358565000Y-322008000D02*
X371265000Y-322008000D01*
X358565000Y-351008000D02*
X358565000Y-322008000D01*
%TO.C,K4*%
X354265000Y-351008000D02*
X341565000Y-351008000D01*
X354265000Y-322008000D02*
X354265000Y-351008000D01*
X341565000Y-322008000D02*
X354265000Y-322008000D01*
X341565000Y-351008000D02*
X341565000Y-322008000D01*
%TO.C,K3*%
X338265000Y-351008000D02*
X325565000Y-351008000D01*
X338265000Y-322008000D02*
X338265000Y-351008000D01*
X325565000Y-322008000D02*
X338265000Y-322008000D01*
X325565000Y-351008000D02*
X325565000Y-322008000D01*
D12*
%TO.C,J1*%
X291830000Y-353573000D02*
X291830000Y-365793000D01*
X291830000Y-365793000D02*
X322050000Y-365793000D01*
X322050000Y-365793000D02*
X322050000Y-353573000D01*
X322050000Y-353573000D02*
X291830000Y-353573000D01*
X291830000Y-364293000D02*
X291830000Y-362493000D01*
X291830000Y-362493000D02*
X322050000Y-362493000D01*
X322050000Y-362493000D02*
X322050000Y-364293000D01*
X322050000Y-364293000D02*
X291830000Y-364293000D01*
X294690000Y-365793000D02*
X296690000Y-365793000D01*
X296690000Y-365793000D02*
X296440000Y-364293000D01*
X296440000Y-364293000D02*
X294940000Y-364293000D01*
X294940000Y-364293000D02*
X294690000Y-365793000D01*
X302190000Y-365793000D02*
X304190000Y-365793000D01*
X304190000Y-365793000D02*
X303940000Y-364293000D01*
X303940000Y-364293000D02*
X302440000Y-364293000D01*
X302440000Y-364293000D02*
X302190000Y-365793000D01*
X309690000Y-365793000D02*
X311690000Y-365793000D01*
X311690000Y-365793000D02*
X311440000Y-364293000D01*
X311440000Y-364293000D02*
X309940000Y-364293000D01*
X309940000Y-364293000D02*
X309690000Y-365793000D01*
X317190000Y-365793000D02*
X319190000Y-365793000D01*
X319190000Y-365793000D02*
X318940000Y-364293000D01*
X318940000Y-364293000D02*
X317440000Y-364293000D01*
X317440000Y-364293000D02*
X317190000Y-365793000D01*
X295990000Y-352773000D02*
X295690000Y-353373000D01*
X295690000Y-353373000D02*
X295390000Y-352773000D01*
X295390000Y-352773000D02*
X295990000Y-352773000D01*
%TO.C,J11*%
X453550000Y-275893000D02*
X453550000Y-263673000D01*
X453550000Y-263673000D02*
X423330000Y-263673000D01*
X423330000Y-263673000D02*
X423330000Y-275893000D01*
X423330000Y-275893000D02*
X453550000Y-275893000D01*
X453550000Y-265173000D02*
X453550000Y-266973000D01*
X453550000Y-266973000D02*
X423330000Y-266973000D01*
X423330000Y-266973000D02*
X423330000Y-265173000D01*
X423330000Y-265173000D02*
X453550000Y-265173000D01*
X450690000Y-263673000D02*
X448690000Y-263673000D01*
X448690000Y-263673000D02*
X448940000Y-265173000D01*
X448940000Y-265173000D02*
X450440000Y-265173000D01*
X450440000Y-265173000D02*
X450690000Y-263673000D01*
X443190000Y-263673000D02*
X441190000Y-263673000D01*
X441190000Y-263673000D02*
X441440000Y-265173000D01*
X441440000Y-265173000D02*
X442940000Y-265173000D01*
X442940000Y-265173000D02*
X443190000Y-263673000D01*
X435690000Y-263673000D02*
X433690000Y-263673000D01*
X433690000Y-263673000D02*
X433940000Y-265173000D01*
X433940000Y-265173000D02*
X435440000Y-265173000D01*
X435440000Y-265173000D02*
X435690000Y-263673000D01*
X428190000Y-263673000D02*
X426190000Y-263673000D01*
X426190000Y-263673000D02*
X426440000Y-265173000D01*
X426440000Y-265173000D02*
X427940000Y-265173000D01*
X427940000Y-265173000D02*
X428190000Y-263673000D01*
X449390000Y-276693000D02*
X449690000Y-276093000D01*
X449690000Y-276093000D02*
X449990000Y-276693000D01*
X449990000Y-276693000D02*
X449390000Y-276693000D01*
%TO.C,J10*%
X420550000Y-275868000D02*
X420550000Y-263648000D01*
X420550000Y-263648000D02*
X390330000Y-263648000D01*
X390330000Y-263648000D02*
X390330000Y-275868000D01*
X390330000Y-275868000D02*
X420550000Y-275868000D01*
X420550000Y-265148000D02*
X420550000Y-266948000D01*
X420550000Y-266948000D02*
X390330000Y-266948000D01*
X390330000Y-266948000D02*
X390330000Y-265148000D01*
X390330000Y-265148000D02*
X420550000Y-265148000D01*
X417690000Y-263648000D02*
X415690000Y-263648000D01*
X415690000Y-263648000D02*
X415940000Y-265148000D01*
X415940000Y-265148000D02*
X417440000Y-265148000D01*
X417440000Y-265148000D02*
X417690000Y-263648000D01*
X410190000Y-263648000D02*
X408190000Y-263648000D01*
X408190000Y-263648000D02*
X408440000Y-265148000D01*
X408440000Y-265148000D02*
X409940000Y-265148000D01*
X409940000Y-265148000D02*
X410190000Y-263648000D01*
X402690000Y-263648000D02*
X400690000Y-263648000D01*
X400690000Y-263648000D02*
X400940000Y-265148000D01*
X400940000Y-265148000D02*
X402440000Y-265148000D01*
X402440000Y-265148000D02*
X402690000Y-263648000D01*
X395190000Y-263648000D02*
X393190000Y-263648000D01*
X393190000Y-263648000D02*
X393440000Y-265148000D01*
X393440000Y-265148000D02*
X394940000Y-265148000D01*
X394940000Y-265148000D02*
X395190000Y-263648000D01*
X416390000Y-276668000D02*
X416690000Y-276068000D01*
X416690000Y-276068000D02*
X416990000Y-276668000D01*
X416990000Y-276668000D02*
X416390000Y-276668000D01*
%TO.C,J9*%
X354550000Y-275868000D02*
X354550000Y-263648000D01*
X354550000Y-263648000D02*
X324330000Y-263648000D01*
X324330000Y-263648000D02*
X324330000Y-275868000D01*
X324330000Y-275868000D02*
X354550000Y-275868000D01*
X354550000Y-265148000D02*
X354550000Y-266948000D01*
X354550000Y-266948000D02*
X324330000Y-266948000D01*
X324330000Y-266948000D02*
X324330000Y-265148000D01*
X324330000Y-265148000D02*
X354550000Y-265148000D01*
X351690000Y-263648000D02*
X349690000Y-263648000D01*
X349690000Y-263648000D02*
X349940000Y-265148000D01*
X349940000Y-265148000D02*
X351440000Y-265148000D01*
X351440000Y-265148000D02*
X351690000Y-263648000D01*
X344190000Y-263648000D02*
X342190000Y-263648000D01*
X342190000Y-263648000D02*
X342440000Y-265148000D01*
X342440000Y-265148000D02*
X343940000Y-265148000D01*
X343940000Y-265148000D02*
X344190000Y-263648000D01*
X336690000Y-263648000D02*
X334690000Y-263648000D01*
X334690000Y-263648000D02*
X334940000Y-265148000D01*
X334940000Y-265148000D02*
X336440000Y-265148000D01*
X336440000Y-265148000D02*
X336690000Y-263648000D01*
X329190000Y-263648000D02*
X327190000Y-263648000D01*
X327190000Y-263648000D02*
X327440000Y-265148000D01*
X327440000Y-265148000D02*
X328940000Y-265148000D01*
X328940000Y-265148000D02*
X329190000Y-263648000D01*
X350390000Y-276668000D02*
X350690000Y-276068000D01*
X350690000Y-276068000D02*
X350990000Y-276668000D01*
X350990000Y-276668000D02*
X350390000Y-276668000D01*
%TO.C,J8*%
X387550000Y-275868000D02*
X387550000Y-263648000D01*
X387550000Y-263648000D02*
X357330000Y-263648000D01*
X357330000Y-263648000D02*
X357330000Y-275868000D01*
X357330000Y-275868000D02*
X387550000Y-275868000D01*
X387550000Y-265148000D02*
X387550000Y-266948000D01*
X387550000Y-266948000D02*
X357330000Y-266948000D01*
X357330000Y-266948000D02*
X357330000Y-265148000D01*
X357330000Y-265148000D02*
X387550000Y-265148000D01*
X384690000Y-263648000D02*
X382690000Y-263648000D01*
X382690000Y-263648000D02*
X382940000Y-265148000D01*
X382940000Y-265148000D02*
X384440000Y-265148000D01*
X384440000Y-265148000D02*
X384690000Y-263648000D01*
X377190000Y-263648000D02*
X375190000Y-263648000D01*
X375190000Y-263648000D02*
X375440000Y-265148000D01*
X375440000Y-265148000D02*
X376940000Y-265148000D01*
X376940000Y-265148000D02*
X377190000Y-263648000D01*
X369690000Y-263648000D02*
X367690000Y-263648000D01*
X367690000Y-263648000D02*
X367940000Y-265148000D01*
X367940000Y-265148000D02*
X369440000Y-265148000D01*
X369440000Y-265148000D02*
X369690000Y-263648000D01*
X362190000Y-263648000D02*
X360190000Y-263648000D01*
X360190000Y-263648000D02*
X360440000Y-265148000D01*
X360440000Y-265148000D02*
X361940000Y-265148000D01*
X361940000Y-265148000D02*
X362190000Y-263648000D01*
X383390000Y-276668000D02*
X383690000Y-276068000D01*
X383690000Y-276068000D02*
X383990000Y-276668000D01*
X383990000Y-276668000D02*
X383390000Y-276668000D01*
%TO.C,J6*%
X321575000Y-275868000D02*
X321575000Y-263648000D01*
X321575000Y-263648000D02*
X291355000Y-263648000D01*
X291355000Y-263648000D02*
X291355000Y-275868000D01*
X291355000Y-275868000D02*
X321575000Y-275868000D01*
X321575000Y-265148000D02*
X321575000Y-266948000D01*
X321575000Y-266948000D02*
X291355000Y-266948000D01*
X291355000Y-266948000D02*
X291355000Y-265148000D01*
X291355000Y-265148000D02*
X321575000Y-265148000D01*
X318715000Y-263648000D02*
X316715000Y-263648000D01*
X316715000Y-263648000D02*
X316965000Y-265148000D01*
X316965000Y-265148000D02*
X318465000Y-265148000D01*
X318465000Y-265148000D02*
X318715000Y-263648000D01*
X311215000Y-263648000D02*
X309215000Y-263648000D01*
X309215000Y-263648000D02*
X309465000Y-265148000D01*
X309465000Y-265148000D02*
X310965000Y-265148000D01*
X310965000Y-265148000D02*
X311215000Y-263648000D01*
X303715000Y-263648000D02*
X301715000Y-263648000D01*
X301715000Y-263648000D02*
X301965000Y-265148000D01*
X301965000Y-265148000D02*
X303465000Y-265148000D01*
X303465000Y-265148000D02*
X303715000Y-263648000D01*
X296215000Y-263648000D02*
X294215000Y-263648000D01*
X294215000Y-263648000D02*
X294465000Y-265148000D01*
X294465000Y-265148000D02*
X295965000Y-265148000D01*
X295965000Y-265148000D02*
X296215000Y-263648000D01*
X317415000Y-276668000D02*
X317715000Y-276068000D01*
X317715000Y-276068000D02*
X318015000Y-276668000D01*
X318015000Y-276668000D02*
X317415000Y-276668000D01*
%TO.C,J5*%
X423830000Y-353573000D02*
X423830000Y-365793000D01*
X423830000Y-365793000D02*
X454050000Y-365793000D01*
X454050000Y-365793000D02*
X454050000Y-353573000D01*
X454050000Y-353573000D02*
X423830000Y-353573000D01*
X423830000Y-364293000D02*
X423830000Y-362493000D01*
X423830000Y-362493000D02*
X454050000Y-362493000D01*
X454050000Y-362493000D02*
X454050000Y-364293000D01*
X454050000Y-364293000D02*
X423830000Y-364293000D01*
X426690000Y-365793000D02*
X428690000Y-365793000D01*
X428690000Y-365793000D02*
X428440000Y-364293000D01*
X428440000Y-364293000D02*
X426940000Y-364293000D01*
X426940000Y-364293000D02*
X426690000Y-365793000D01*
X434190000Y-365793000D02*
X436190000Y-365793000D01*
X436190000Y-365793000D02*
X435940000Y-364293000D01*
X435940000Y-364293000D02*
X434440000Y-364293000D01*
X434440000Y-364293000D02*
X434190000Y-365793000D01*
X441690000Y-365793000D02*
X443690000Y-365793000D01*
X443690000Y-365793000D02*
X443440000Y-364293000D01*
X443440000Y-364293000D02*
X441940000Y-364293000D01*
X441940000Y-364293000D02*
X441690000Y-365793000D01*
X449190000Y-365793000D02*
X451190000Y-365793000D01*
X451190000Y-365793000D02*
X450940000Y-364293000D01*
X450940000Y-364293000D02*
X449440000Y-364293000D01*
X449440000Y-364293000D02*
X449190000Y-365793000D01*
X427990000Y-352773000D02*
X427690000Y-353373000D01*
X427690000Y-353373000D02*
X427390000Y-352773000D01*
X427390000Y-352773000D02*
X427990000Y-352773000D01*
%TO.C,J4*%
X390830000Y-353573000D02*
X390830000Y-365793000D01*
X390830000Y-365793000D02*
X421050000Y-365793000D01*
X421050000Y-365793000D02*
X421050000Y-353573000D01*
X421050000Y-353573000D02*
X390830000Y-353573000D01*
X390830000Y-364293000D02*
X390830000Y-362493000D01*
X390830000Y-362493000D02*
X421050000Y-362493000D01*
X421050000Y-362493000D02*
X421050000Y-364293000D01*
X421050000Y-364293000D02*
X390830000Y-364293000D01*
X393690000Y-365793000D02*
X395690000Y-365793000D01*
X395690000Y-365793000D02*
X395440000Y-364293000D01*
X395440000Y-364293000D02*
X393940000Y-364293000D01*
X393940000Y-364293000D02*
X393690000Y-365793000D01*
X401190000Y-365793000D02*
X403190000Y-365793000D01*
X403190000Y-365793000D02*
X402940000Y-364293000D01*
X402940000Y-364293000D02*
X401440000Y-364293000D01*
X401440000Y-364293000D02*
X401190000Y-365793000D01*
X408690000Y-365793000D02*
X410690000Y-365793000D01*
X410690000Y-365793000D02*
X410440000Y-364293000D01*
X410440000Y-364293000D02*
X408940000Y-364293000D01*
X408940000Y-364293000D02*
X408690000Y-365793000D01*
X416190000Y-365793000D02*
X418190000Y-365793000D01*
X418190000Y-365793000D02*
X417940000Y-364293000D01*
X417940000Y-364293000D02*
X416440000Y-364293000D01*
X416440000Y-364293000D02*
X416190000Y-365793000D01*
X394990000Y-352773000D02*
X394690000Y-353373000D01*
X394690000Y-353373000D02*
X394390000Y-352773000D01*
X394390000Y-352773000D02*
X394990000Y-352773000D01*
%TO.C,J3*%
X357830000Y-353573000D02*
X357830000Y-365793000D01*
X357830000Y-365793000D02*
X388050000Y-365793000D01*
X388050000Y-365793000D02*
X388050000Y-353573000D01*
X388050000Y-353573000D02*
X357830000Y-353573000D01*
X357830000Y-364293000D02*
X357830000Y-362493000D01*
X357830000Y-362493000D02*
X388050000Y-362493000D01*
X388050000Y-362493000D02*
X388050000Y-364293000D01*
X388050000Y-364293000D02*
X357830000Y-364293000D01*
X360690000Y-365793000D02*
X362690000Y-365793000D01*
X362690000Y-365793000D02*
X362440000Y-364293000D01*
X362440000Y-364293000D02*
X360940000Y-364293000D01*
X360940000Y-364293000D02*
X360690000Y-365793000D01*
X368190000Y-365793000D02*
X370190000Y-365793000D01*
X370190000Y-365793000D02*
X369940000Y-364293000D01*
X369940000Y-364293000D02*
X368440000Y-364293000D01*
X368440000Y-364293000D02*
X368190000Y-365793000D01*
X375690000Y-365793000D02*
X377690000Y-365793000D01*
X377690000Y-365793000D02*
X377440000Y-364293000D01*
X377440000Y-364293000D02*
X375940000Y-364293000D01*
X375940000Y-364293000D02*
X375690000Y-365793000D01*
X383190000Y-365793000D02*
X385190000Y-365793000D01*
X385190000Y-365793000D02*
X384940000Y-364293000D01*
X384940000Y-364293000D02*
X383440000Y-364293000D01*
X383440000Y-364293000D02*
X383190000Y-365793000D01*
X361990000Y-352773000D02*
X361690000Y-353373000D01*
X361690000Y-353373000D02*
X361390000Y-352773000D01*
X361390000Y-352773000D02*
X361990000Y-352773000D01*
%TO.C,J2*%
X324830000Y-353573000D02*
X324830000Y-365793000D01*
X324830000Y-365793000D02*
X355050000Y-365793000D01*
X355050000Y-365793000D02*
X355050000Y-353573000D01*
X355050000Y-353573000D02*
X324830000Y-353573000D01*
X324830000Y-364293000D02*
X324830000Y-362493000D01*
X324830000Y-362493000D02*
X355050000Y-362493000D01*
X355050000Y-362493000D02*
X355050000Y-364293000D01*
X355050000Y-364293000D02*
X324830000Y-364293000D01*
X327690000Y-365793000D02*
X329690000Y-365793000D01*
X329690000Y-365793000D02*
X329440000Y-364293000D01*
X329440000Y-364293000D02*
X327940000Y-364293000D01*
X327940000Y-364293000D02*
X327690000Y-365793000D01*
X335190000Y-365793000D02*
X337190000Y-365793000D01*
X337190000Y-365793000D02*
X336940000Y-364293000D01*
X336940000Y-364293000D02*
X335440000Y-364293000D01*
X335440000Y-364293000D02*
X335190000Y-365793000D01*
X342690000Y-365793000D02*
X344690000Y-365793000D01*
X344690000Y-365793000D02*
X344440000Y-364293000D01*
X344440000Y-364293000D02*
X342940000Y-364293000D01*
X342940000Y-364293000D02*
X342690000Y-365793000D01*
X350190000Y-365793000D02*
X352190000Y-365793000D01*
X352190000Y-365793000D02*
X351940000Y-364293000D01*
X351940000Y-364293000D02*
X350440000Y-364293000D01*
X350440000Y-364293000D02*
X350190000Y-365793000D01*
X328990000Y-352773000D02*
X328690000Y-353373000D01*
X328690000Y-353373000D02*
X328390000Y-352773000D01*
X328390000Y-352773000D02*
X328990000Y-352773000D01*
%TO.C,U4*%
D10*
X438381095Y-311685380D02*
X438381095Y-312494904D01*
X438428714Y-312590142D01*
X438476333Y-312637761D01*
X438571571Y-312685380D01*
X438762047Y-312685380D01*
X438857285Y-312637761D01*
X438904904Y-312590142D01*
X438952523Y-312494904D01*
X438952523Y-311685380D01*
X439857285Y-312018714D02*
X439857285Y-312685380D01*
X439619190Y-311637761D02*
X439381095Y-312352047D01*
X440000142Y-312352047D01*
%TO.C,R9*%
X430103380Y-314849666D02*
X429627190Y-315183000D01*
X430103380Y-315421095D02*
X429103380Y-315421095D01*
X429103380Y-315040142D01*
X429151000Y-314944904D01*
X429198619Y-314897285D01*
X429293857Y-314849666D01*
X429436714Y-314849666D01*
X429531952Y-314897285D01*
X429579571Y-314944904D01*
X429627190Y-315040142D01*
X429627190Y-315421095D01*
X430103380Y-314373476D02*
X430103380Y-314183000D01*
X430055761Y-314087761D01*
X430008142Y-314040142D01*
X429865285Y-313944904D01*
X429674809Y-313897285D01*
X429293857Y-313897285D01*
X429198619Y-313944904D01*
X429151000Y-313992523D01*
X429103380Y-314087761D01*
X429103380Y-314278238D01*
X429151000Y-314373476D01*
X429198619Y-314421095D01*
X429293857Y-314468714D01*
X429531952Y-314468714D01*
X429627190Y-314421095D01*
X429674809Y-314373476D01*
X429722428Y-314278238D01*
X429722428Y-314087761D01*
X429674809Y-313992523D01*
X429627190Y-313944904D01*
X429531952Y-313897285D01*
%TO.C,R8*%
X435691380Y-314849666D02*
X435215190Y-315183000D01*
X435691380Y-315421095D02*
X434691380Y-315421095D01*
X434691380Y-315040142D01*
X434739000Y-314944904D01*
X434786619Y-314897285D01*
X434881857Y-314849666D01*
X435024714Y-314849666D01*
X435119952Y-314897285D01*
X435167571Y-314944904D01*
X435215190Y-315040142D01*
X435215190Y-315421095D01*
X435119952Y-314278238D02*
X435072333Y-314373476D01*
X435024714Y-314421095D01*
X434929476Y-314468714D01*
X434881857Y-314468714D01*
X434786619Y-314421095D01*
X434739000Y-314373476D01*
X434691380Y-314278238D01*
X434691380Y-314087761D01*
X434739000Y-313992523D01*
X434786619Y-313944904D01*
X434881857Y-313897285D01*
X434929476Y-313897285D01*
X435024714Y-313944904D01*
X435072333Y-313992523D01*
X435119952Y-314087761D01*
X435119952Y-314278238D01*
X435167571Y-314373476D01*
X435215190Y-314421095D01*
X435310428Y-314468714D01*
X435500904Y-314468714D01*
X435596142Y-314421095D01*
X435643761Y-314373476D01*
X435691380Y-314278238D01*
X435691380Y-314087761D01*
X435643761Y-313992523D01*
X435596142Y-313944904D01*
X435500904Y-313897285D01*
X435310428Y-313897285D01*
X435215190Y-313944904D01*
X435167571Y-313992523D01*
X435119952Y-314087761D01*
%TO.C,R7*%
X432897380Y-314849666D02*
X432421190Y-315183000D01*
X432897380Y-315421095D02*
X431897380Y-315421095D01*
X431897380Y-315040142D01*
X431945000Y-314944904D01*
X431992619Y-314897285D01*
X432087857Y-314849666D01*
X432230714Y-314849666D01*
X432325952Y-314897285D01*
X432373571Y-314944904D01*
X432421190Y-315040142D01*
X432421190Y-315421095D01*
X431897380Y-314516333D02*
X431897380Y-313849666D01*
X432897380Y-314278238D01*
%TO.C,R6*%
X452074380Y-316627666D02*
X451598190Y-316961000D01*
X452074380Y-317199095D02*
X451074380Y-317199095D01*
X451074380Y-316818142D01*
X451122000Y-316722904D01*
X451169619Y-316675285D01*
X451264857Y-316627666D01*
X451407714Y-316627666D01*
X451502952Y-316675285D01*
X451550571Y-316722904D01*
X451598190Y-316818142D01*
X451598190Y-317199095D01*
X451074380Y-315770523D02*
X451074380Y-315961000D01*
X451122000Y-316056238D01*
X451169619Y-316103857D01*
X451312476Y-316199095D01*
X451502952Y-316246714D01*
X451883904Y-316246714D01*
X451979142Y-316199095D01*
X452026761Y-316151476D01*
X452074380Y-316056238D01*
X452074380Y-315865761D01*
X452026761Y-315770523D01*
X451979142Y-315722904D01*
X451883904Y-315675285D01*
X451645809Y-315675285D01*
X451550571Y-315722904D01*
X451502952Y-315770523D01*
X451455333Y-315865761D01*
X451455333Y-316056238D01*
X451502952Y-316151476D01*
X451550571Y-316199095D01*
X451645809Y-316246714D01*
%TO.C,R5*%
X452074380Y-313071666D02*
X451598190Y-313405000D01*
X452074380Y-313643095D02*
X451074380Y-313643095D01*
X451074380Y-313262142D01*
X451122000Y-313166904D01*
X451169619Y-313119285D01*
X451264857Y-313071666D01*
X451407714Y-313071666D01*
X451502952Y-313119285D01*
X451550571Y-313166904D01*
X451598190Y-313262142D01*
X451598190Y-313643095D01*
X451074380Y-312166904D02*
X451074380Y-312643095D01*
X451550571Y-312690714D01*
X451502952Y-312643095D01*
X451455333Y-312547857D01*
X451455333Y-312309761D01*
X451502952Y-312214523D01*
X451550571Y-312166904D01*
X451645809Y-312119285D01*
X451883904Y-312119285D01*
X451979142Y-312166904D01*
X452026761Y-312214523D01*
X452074380Y-312309761D01*
X452074380Y-312547857D01*
X452026761Y-312643095D01*
X451979142Y-312690714D01*
%TO.C,R4*%
X449407380Y-316627666D02*
X448931190Y-316961000D01*
X449407380Y-317199095D02*
X448407380Y-317199095D01*
X448407380Y-316818142D01*
X448455000Y-316722904D01*
X448502619Y-316675285D01*
X448597857Y-316627666D01*
X448740714Y-316627666D01*
X448835952Y-316675285D01*
X448883571Y-316722904D01*
X448931190Y-316818142D01*
X448931190Y-317199095D01*
X448740714Y-315770523D02*
X449407380Y-315770523D01*
X448359761Y-316008619D02*
X449074047Y-316246714D01*
X449074047Y-315627666D01*
%TO.C,R3*%
X449407380Y-313071666D02*
X448931190Y-313405000D01*
X449407380Y-313643095D02*
X448407380Y-313643095D01*
X448407380Y-313262142D01*
X448455000Y-313166904D01*
X448502619Y-313119285D01*
X448597857Y-313071666D01*
X448740714Y-313071666D01*
X448835952Y-313119285D01*
X448883571Y-313166904D01*
X448931190Y-313262142D01*
X448931190Y-313643095D01*
X448407380Y-312738333D02*
X448407380Y-312119285D01*
X448788333Y-312452619D01*
X448788333Y-312309761D01*
X448835952Y-312214523D01*
X448883571Y-312166904D01*
X448978809Y-312119285D01*
X449216904Y-312119285D01*
X449312142Y-312166904D01*
X449359761Y-312214523D01*
X449407380Y-312309761D01*
X449407380Y-312595476D01*
X449359761Y-312690714D01*
X449312142Y-312738333D01*
%TO.C,R2*%
X446740380Y-316627666D02*
X446264190Y-316961000D01*
X446740380Y-317199095D02*
X445740380Y-317199095D01*
X445740380Y-316818142D01*
X445788000Y-316722904D01*
X445835619Y-316675285D01*
X445930857Y-316627666D01*
X446073714Y-316627666D01*
X446168952Y-316675285D01*
X446216571Y-316722904D01*
X446264190Y-316818142D01*
X446264190Y-317199095D01*
X445835619Y-316246714D02*
X445788000Y-316199095D01*
X445740380Y-316103857D01*
X445740380Y-315865761D01*
X445788000Y-315770523D01*
X445835619Y-315722904D01*
X445930857Y-315675285D01*
X446026095Y-315675285D01*
X446168952Y-315722904D01*
X446740380Y-316294333D01*
X446740380Y-315675285D01*
%TO.C,R1*%
X446740380Y-313071666D02*
X446264190Y-313405000D01*
X446740380Y-313643095D02*
X445740380Y-313643095D01*
X445740380Y-313262142D01*
X445788000Y-313166904D01*
X445835619Y-313119285D01*
X445930857Y-313071666D01*
X446073714Y-313071666D01*
X446168952Y-313119285D01*
X446216571Y-313166904D01*
X446264190Y-313262142D01*
X446264190Y-313643095D01*
X446740380Y-312119285D02*
X446740380Y-312690714D01*
X446740380Y-312405000D02*
X445740380Y-312405000D01*
X445883238Y-312500238D01*
X445978476Y-312595476D01*
X446026095Y-312690714D01*
%TO.C,J7*%
X295299666Y-318751380D02*
X295299666Y-319465666D01*
X295252047Y-319608523D01*
X295156809Y-319703761D01*
X295013952Y-319751380D01*
X294918714Y-319751380D01*
X295680619Y-318751380D02*
X296347285Y-318751380D01*
X295918714Y-319751380D01*
%TO.C,H2*%
X322378095Y-309860380D02*
X322378095Y-308860380D01*
X322378095Y-309336571D02*
X322949523Y-309336571D01*
X322949523Y-309860380D02*
X322949523Y-308860380D01*
X323378095Y-308955619D02*
X323425714Y-308908000D01*
X323520952Y-308860380D01*
X323759047Y-308860380D01*
X323854285Y-308908000D01*
X323901904Y-308955619D01*
X323949523Y-309050857D01*
X323949523Y-309146095D01*
X323901904Y-309288952D01*
X323330476Y-309860380D01*
X323949523Y-309860380D01*
%TO.C,K1*%
D14*
X299489523Y-337445380D02*
X298219523Y-337445380D01*
X299489523Y-336719666D02*
X298763809Y-337263952D01*
X298219523Y-336719666D02*
X298945238Y-337445380D01*
X299489523Y-335510142D02*
X299489523Y-336235857D01*
X299489523Y-335873000D02*
X298219523Y-335873000D01*
X298400952Y-335993952D01*
X298521904Y-336114904D01*
X298582380Y-336235857D01*
%TO.C,J12*%
D10*
X356262380Y-315247523D02*
X356976666Y-315247523D01*
X357119523Y-315295142D01*
X357214761Y-315390380D01*
X357262380Y-315533238D01*
X357262380Y-315628476D01*
X357262380Y-314247523D02*
X357262380Y-314818952D01*
X357262380Y-314533238D02*
X356262380Y-314533238D01*
X356405238Y-314628476D01*
X356500476Y-314723714D01*
X356548095Y-314818952D01*
X356357619Y-313866571D02*
X356310000Y-313818952D01*
X356262380Y-313723714D01*
X356262380Y-313485619D01*
X356310000Y-313390380D01*
X356357619Y-313342761D01*
X356452857Y-313295142D01*
X356548095Y-313295142D01*
X356690952Y-313342761D01*
X357262380Y-313914190D01*
X357262380Y-313295142D01*
%TO.C,K2*%
D14*
X315489523Y-337445380D02*
X314219523Y-337445380D01*
X315489523Y-336719666D02*
X314763809Y-337263952D01*
X314219523Y-336719666D02*
X314945238Y-337445380D01*
X314340476Y-336235857D02*
X314280000Y-336175380D01*
X314219523Y-336054428D01*
X314219523Y-335752047D01*
X314280000Y-335631095D01*
X314340476Y-335570619D01*
X314461428Y-335510142D01*
X314582380Y-335510142D01*
X314763809Y-335570619D01*
X315489523Y-336296333D01*
X315489523Y-335510142D01*
%TO.C,K18*%
X413939523Y-294425142D02*
X412669523Y-294425142D01*
X413939523Y-293699428D02*
X413213809Y-294243714D01*
X412669523Y-293699428D02*
X413395238Y-294425142D01*
X413939523Y-292489904D02*
X413939523Y-293215619D01*
X413939523Y-292852761D02*
X412669523Y-292852761D01*
X412850952Y-292973714D01*
X412971904Y-293094666D01*
X413032380Y-293215619D01*
X413213809Y-291764190D02*
X413153333Y-291885142D01*
X413092857Y-291945619D01*
X412971904Y-292006095D01*
X412911428Y-292006095D01*
X412790476Y-291945619D01*
X412730000Y-291885142D01*
X412669523Y-291764190D01*
X412669523Y-291522285D01*
X412730000Y-291401333D01*
X412790476Y-291340857D01*
X412911428Y-291280380D01*
X412971904Y-291280380D01*
X413092857Y-291340857D01*
X413153333Y-291401333D01*
X413213809Y-291522285D01*
X413213809Y-291764190D01*
X413274285Y-291885142D01*
X413334761Y-291945619D01*
X413455714Y-292006095D01*
X413697619Y-292006095D01*
X413818571Y-291945619D01*
X413879047Y-291885142D01*
X413939523Y-291764190D01*
X413939523Y-291522285D01*
X413879047Y-291401333D01*
X413818571Y-291340857D01*
X413697619Y-291280380D01*
X413455714Y-291280380D01*
X413334761Y-291340857D01*
X413274285Y-291401333D01*
X413213809Y-291522285D01*
%TO.C,U3*%
D10*
X398272380Y-315319904D02*
X399081904Y-315319904D01*
X399177142Y-315272285D01*
X399224761Y-315224666D01*
X399272380Y-315129428D01*
X399272380Y-314938952D01*
X399224761Y-314843714D01*
X399177142Y-314796095D01*
X399081904Y-314748476D01*
X398272380Y-314748476D01*
X398272380Y-314367523D02*
X398272380Y-313748476D01*
X398653333Y-314081809D01*
X398653333Y-313938952D01*
X398700952Y-313843714D01*
X398748571Y-313796095D01*
X398843809Y-313748476D01*
X399081904Y-313748476D01*
X399177142Y-313796095D01*
X399224761Y-313843714D01*
X399272380Y-313938952D01*
X399272380Y-314224666D01*
X399224761Y-314319904D01*
X399177142Y-314367523D01*
%TO.C,U2*%
X347712380Y-315069904D02*
X348521904Y-315069904D01*
X348617142Y-315022285D01*
X348664761Y-314974666D01*
X348712380Y-314879428D01*
X348712380Y-314688952D01*
X348664761Y-314593714D01*
X348617142Y-314546095D01*
X348521904Y-314498476D01*
X347712380Y-314498476D01*
X347807619Y-314069904D02*
X347760000Y-314022285D01*
X347712380Y-313927047D01*
X347712380Y-313688952D01*
X347760000Y-313593714D01*
X347807619Y-313546095D01*
X347902857Y-313498476D01*
X347998095Y-313498476D01*
X348140952Y-313546095D01*
X348712380Y-314117523D01*
X348712380Y-313498476D01*
%TO.C,U1*%
X300492380Y-322469904D02*
X301301904Y-322469904D01*
X301397142Y-322422285D01*
X301444761Y-322374666D01*
X301492380Y-322279428D01*
X301492380Y-322088952D01*
X301444761Y-321993714D01*
X301397142Y-321946095D01*
X301301904Y-321898476D01*
X300492380Y-321898476D01*
X301492380Y-320898476D02*
X301492380Y-321469904D01*
X301492380Y-321184190D02*
X300492380Y-321184190D01*
X300635238Y-321279428D01*
X300730476Y-321374666D01*
X300778095Y-321469904D01*
%TO.C,K20*%
D14*
X446939523Y-294425142D02*
X445669523Y-294425142D01*
X446939523Y-293699428D02*
X446213809Y-294243714D01*
X445669523Y-293699428D02*
X446395238Y-294425142D01*
X445790476Y-293215619D02*
X445730000Y-293155142D01*
X445669523Y-293034190D01*
X445669523Y-292731809D01*
X445730000Y-292610857D01*
X445790476Y-292550380D01*
X445911428Y-292489904D01*
X446032380Y-292489904D01*
X446213809Y-292550380D01*
X446939523Y-293276095D01*
X446939523Y-292489904D01*
X445669523Y-291703714D02*
X445669523Y-291582761D01*
X445730000Y-291461809D01*
X445790476Y-291401333D01*
X445911428Y-291340857D01*
X446153333Y-291280380D01*
X446455714Y-291280380D01*
X446697619Y-291340857D01*
X446818571Y-291401333D01*
X446879047Y-291461809D01*
X446939523Y-291582761D01*
X446939523Y-291703714D01*
X446879047Y-291824666D01*
X446818571Y-291885142D01*
X446697619Y-291945619D01*
X446455714Y-292006095D01*
X446153333Y-292006095D01*
X445911428Y-291945619D01*
X445790476Y-291885142D01*
X445730000Y-291824666D01*
X445669523Y-291703714D01*
%TO.C,K19*%
X430939523Y-294425142D02*
X429669523Y-294425142D01*
X430939523Y-293699428D02*
X430213809Y-294243714D01*
X429669523Y-293699428D02*
X430395238Y-294425142D01*
X430939523Y-292489904D02*
X430939523Y-293215619D01*
X430939523Y-292852761D02*
X429669523Y-292852761D01*
X429850952Y-292973714D01*
X429971904Y-293094666D01*
X430032380Y-293215619D01*
X430939523Y-291885142D02*
X430939523Y-291643238D01*
X430879047Y-291522285D01*
X430818571Y-291461809D01*
X430637142Y-291340857D01*
X430395238Y-291280380D01*
X429911428Y-291280380D01*
X429790476Y-291340857D01*
X429730000Y-291401333D01*
X429669523Y-291522285D01*
X429669523Y-291764190D01*
X429730000Y-291885142D01*
X429790476Y-291945619D01*
X429911428Y-292006095D01*
X430213809Y-292006095D01*
X430334761Y-291945619D01*
X430395238Y-291885142D01*
X430455714Y-291764190D01*
X430455714Y-291522285D01*
X430395238Y-291401333D01*
X430334761Y-291340857D01*
X430213809Y-291280380D01*
%TO.C,K17*%
X397939523Y-294425142D02*
X396669523Y-294425142D01*
X397939523Y-293699428D02*
X397213809Y-294243714D01*
X396669523Y-293699428D02*
X397395238Y-294425142D01*
X397939523Y-292489904D02*
X397939523Y-293215619D01*
X397939523Y-292852761D02*
X396669523Y-292852761D01*
X396850952Y-292973714D01*
X396971904Y-293094666D01*
X397032380Y-293215619D01*
X396669523Y-292066571D02*
X396669523Y-291219904D01*
X397939523Y-291764190D01*
%TO.C,K16*%
X380939523Y-294425142D02*
X379669523Y-294425142D01*
X380939523Y-293699428D02*
X380213809Y-294243714D01*
X379669523Y-293699428D02*
X380395238Y-294425142D01*
X380939523Y-292489904D02*
X380939523Y-293215619D01*
X380939523Y-292852761D02*
X379669523Y-292852761D01*
X379850952Y-292973714D01*
X379971904Y-293094666D01*
X380032380Y-293215619D01*
X379669523Y-291401333D02*
X379669523Y-291643238D01*
X379730000Y-291764190D01*
X379790476Y-291824666D01*
X379971904Y-291945619D01*
X380213809Y-292006095D01*
X380697619Y-292006095D01*
X380818571Y-291945619D01*
X380879047Y-291885142D01*
X380939523Y-291764190D01*
X380939523Y-291522285D01*
X380879047Y-291401333D01*
X380818571Y-291340857D01*
X380697619Y-291280380D01*
X380395238Y-291280380D01*
X380274285Y-291340857D01*
X380213809Y-291401333D01*
X380153333Y-291522285D01*
X380153333Y-291764190D01*
X380213809Y-291885142D01*
X380274285Y-291945619D01*
X380395238Y-292006095D01*
%TO.C,K15*%
X364939523Y-294425142D02*
X363669523Y-294425142D01*
X364939523Y-293699428D02*
X364213809Y-294243714D01*
X363669523Y-293699428D02*
X364395238Y-294425142D01*
X364939523Y-292489904D02*
X364939523Y-293215619D01*
X364939523Y-292852761D02*
X363669523Y-292852761D01*
X363850952Y-292973714D01*
X363971904Y-293094666D01*
X364032380Y-293215619D01*
X363669523Y-291340857D02*
X363669523Y-291945619D01*
X364274285Y-292006095D01*
X364213809Y-291945619D01*
X364153333Y-291824666D01*
X364153333Y-291522285D01*
X364213809Y-291401333D01*
X364274285Y-291340857D01*
X364395238Y-291280380D01*
X364697619Y-291280380D01*
X364818571Y-291340857D01*
X364879047Y-291401333D01*
X364939523Y-291522285D01*
X364939523Y-291824666D01*
X364879047Y-291945619D01*
X364818571Y-292006095D01*
%TO.C,K14*%
X347939523Y-294425142D02*
X346669523Y-294425142D01*
X347939523Y-293699428D02*
X347213809Y-294243714D01*
X346669523Y-293699428D02*
X347395238Y-294425142D01*
X347939523Y-292489904D02*
X347939523Y-293215619D01*
X347939523Y-292852761D02*
X346669523Y-292852761D01*
X346850952Y-292973714D01*
X346971904Y-293094666D01*
X347032380Y-293215619D01*
X347092857Y-291401333D02*
X347939523Y-291401333D01*
X346609047Y-291703714D02*
X347516190Y-292006095D01*
X347516190Y-291219904D01*
%TO.C,K13*%
X331939523Y-294425142D02*
X330669523Y-294425142D01*
X331939523Y-293699428D02*
X331213809Y-294243714D01*
X330669523Y-293699428D02*
X331395238Y-294425142D01*
X331939523Y-292489904D02*
X331939523Y-293215619D01*
X331939523Y-292852761D02*
X330669523Y-292852761D01*
X330850952Y-292973714D01*
X330971904Y-293094666D01*
X331032380Y-293215619D01*
X330669523Y-292066571D02*
X330669523Y-291280380D01*
X331153333Y-291703714D01*
X331153333Y-291522285D01*
X331213809Y-291401333D01*
X331274285Y-291340857D01*
X331395238Y-291280380D01*
X331697619Y-291280380D01*
X331818571Y-291340857D01*
X331879047Y-291401333D01*
X331939523Y-291522285D01*
X331939523Y-291885142D01*
X331879047Y-292006095D01*
X331818571Y-292066571D01*
%TO.C,K12*%
X314939523Y-294425142D02*
X313669523Y-294425142D01*
X314939523Y-293699428D02*
X314213809Y-294243714D01*
X313669523Y-293699428D02*
X314395238Y-294425142D01*
X314939523Y-292489904D02*
X314939523Y-293215619D01*
X314939523Y-292852761D02*
X313669523Y-292852761D01*
X313850952Y-292973714D01*
X313971904Y-293094666D01*
X314032380Y-293215619D01*
X313790476Y-292006095D02*
X313730000Y-291945619D01*
X313669523Y-291824666D01*
X313669523Y-291522285D01*
X313730000Y-291401333D01*
X313790476Y-291340857D01*
X313911428Y-291280380D01*
X314032380Y-291280380D01*
X314213809Y-291340857D01*
X314939523Y-292066571D01*
X314939523Y-291280380D01*
%TO.C,K11*%
X298939523Y-294425142D02*
X297669523Y-294425142D01*
X298939523Y-293699428D02*
X298213809Y-294243714D01*
X297669523Y-293699428D02*
X298395238Y-294425142D01*
X298939523Y-292489904D02*
X298939523Y-293215619D01*
X298939523Y-292852761D02*
X297669523Y-292852761D01*
X297850952Y-292973714D01*
X297971904Y-293094666D01*
X298032380Y-293215619D01*
X298939523Y-291280380D02*
X298939523Y-292006095D01*
X298939523Y-291643238D02*
X297669523Y-291643238D01*
X297850952Y-291764190D01*
X297971904Y-291885142D01*
X298032380Y-292006095D01*
%TO.C,K10*%
X447489523Y-338050142D02*
X446219523Y-338050142D01*
X447489523Y-337324428D02*
X446763809Y-337868714D01*
X446219523Y-337324428D02*
X446945238Y-338050142D01*
X447489523Y-336114904D02*
X447489523Y-336840619D01*
X447489523Y-336477761D02*
X446219523Y-336477761D01*
X446400952Y-336598714D01*
X446521904Y-336719666D01*
X446582380Y-336840619D01*
X446219523Y-335328714D02*
X446219523Y-335207761D01*
X446280000Y-335086809D01*
X446340476Y-335026333D01*
X446461428Y-334965857D01*
X446703333Y-334905380D01*
X447005714Y-334905380D01*
X447247619Y-334965857D01*
X447368571Y-335026333D01*
X447429047Y-335086809D01*
X447489523Y-335207761D01*
X447489523Y-335328714D01*
X447429047Y-335449666D01*
X447368571Y-335510142D01*
X447247619Y-335570619D01*
X447005714Y-335631095D01*
X446703333Y-335631095D01*
X446461428Y-335570619D01*
X446340476Y-335510142D01*
X446280000Y-335449666D01*
X446219523Y-335328714D01*
%TO.C,K9*%
X431489523Y-337445380D02*
X430219523Y-337445380D01*
X431489523Y-336719666D02*
X430763809Y-337263952D01*
X430219523Y-336719666D02*
X430945238Y-337445380D01*
X431489523Y-336114904D02*
X431489523Y-335873000D01*
X431429047Y-335752047D01*
X431368571Y-335691571D01*
X431187142Y-335570619D01*
X430945238Y-335510142D01*
X430461428Y-335510142D01*
X430340476Y-335570619D01*
X430280000Y-335631095D01*
X430219523Y-335752047D01*
X430219523Y-335993952D01*
X430280000Y-336114904D01*
X430340476Y-336175380D01*
X430461428Y-336235857D01*
X430763809Y-336235857D01*
X430884761Y-336175380D01*
X430945238Y-336114904D01*
X431005714Y-335993952D01*
X431005714Y-335752047D01*
X430945238Y-335631095D01*
X430884761Y-335570619D01*
X430763809Y-335510142D01*
%TO.C,K8*%
X414489523Y-337445380D02*
X413219523Y-337445380D01*
X414489523Y-336719666D02*
X413763809Y-337263952D01*
X413219523Y-336719666D02*
X413945238Y-337445380D01*
X413763809Y-335993952D02*
X413703333Y-336114904D01*
X413642857Y-336175380D01*
X413521904Y-336235857D01*
X413461428Y-336235857D01*
X413340476Y-336175380D01*
X413280000Y-336114904D01*
X413219523Y-335993952D01*
X413219523Y-335752047D01*
X413280000Y-335631095D01*
X413340476Y-335570619D01*
X413461428Y-335510142D01*
X413521904Y-335510142D01*
X413642857Y-335570619D01*
X413703333Y-335631095D01*
X413763809Y-335752047D01*
X413763809Y-335993952D01*
X413824285Y-336114904D01*
X413884761Y-336175380D01*
X414005714Y-336235857D01*
X414247619Y-336235857D01*
X414368571Y-336175380D01*
X414429047Y-336114904D01*
X414489523Y-335993952D01*
X414489523Y-335752047D01*
X414429047Y-335631095D01*
X414368571Y-335570619D01*
X414247619Y-335510142D01*
X414005714Y-335510142D01*
X413884761Y-335570619D01*
X413824285Y-335631095D01*
X413763809Y-335752047D01*
%TO.C,K7*%
X398489523Y-337445380D02*
X397219523Y-337445380D01*
X398489523Y-336719666D02*
X397763809Y-337263952D01*
X397219523Y-336719666D02*
X397945238Y-337445380D01*
X397219523Y-336296333D02*
X397219523Y-335449666D01*
X398489523Y-335993952D01*
%TO.C,K6*%
X381489523Y-337445380D02*
X380219523Y-337445380D01*
X381489523Y-336719666D02*
X380763809Y-337263952D01*
X380219523Y-336719666D02*
X380945238Y-337445380D01*
X380219523Y-335631095D02*
X380219523Y-335873000D01*
X380280000Y-335993952D01*
X380340476Y-336054428D01*
X380521904Y-336175380D01*
X380763809Y-336235857D01*
X381247619Y-336235857D01*
X381368571Y-336175380D01*
X381429047Y-336114904D01*
X381489523Y-335993952D01*
X381489523Y-335752047D01*
X381429047Y-335631095D01*
X381368571Y-335570619D01*
X381247619Y-335510142D01*
X380945238Y-335510142D01*
X380824285Y-335570619D01*
X380763809Y-335631095D01*
X380703333Y-335752047D01*
X380703333Y-335993952D01*
X380763809Y-336114904D01*
X380824285Y-336175380D01*
X380945238Y-336235857D01*
%TO.C,K5*%
X365489523Y-337445380D02*
X364219523Y-337445380D01*
X365489523Y-336719666D02*
X364763809Y-337263952D01*
X364219523Y-336719666D02*
X364945238Y-337445380D01*
X364219523Y-335570619D02*
X364219523Y-336175380D01*
X364824285Y-336235857D01*
X364763809Y-336175380D01*
X364703333Y-336054428D01*
X364703333Y-335752047D01*
X364763809Y-335631095D01*
X364824285Y-335570619D01*
X364945238Y-335510142D01*
X365247619Y-335510142D01*
X365368571Y-335570619D01*
X365429047Y-335631095D01*
X365489523Y-335752047D01*
X365489523Y-336054428D01*
X365429047Y-336175380D01*
X365368571Y-336235857D01*
%TO.C,K4*%
X348489523Y-337445380D02*
X347219523Y-337445380D01*
X348489523Y-336719666D02*
X347763809Y-337263952D01*
X347219523Y-336719666D02*
X347945238Y-337445380D01*
X347642857Y-335631095D02*
X348489523Y-335631095D01*
X347159047Y-335933476D02*
X348066190Y-336235857D01*
X348066190Y-335449666D01*
%TO.C,K3*%
X332489523Y-337445380D02*
X331219523Y-337445380D01*
X332489523Y-336719666D02*
X331763809Y-337263952D01*
X331219523Y-336719666D02*
X331945238Y-337445380D01*
X331219523Y-336296333D02*
X331219523Y-335510142D01*
X331703333Y-335933476D01*
X331703333Y-335752047D01*
X331763809Y-335631095D01*
X331824285Y-335570619D01*
X331945238Y-335510142D01*
X332247619Y-335510142D01*
X332368571Y-335570619D01*
X332429047Y-335631095D01*
X332489523Y-335752047D01*
X332489523Y-336114904D01*
X332429047Y-336235857D01*
X332368571Y-336296333D01*
%TO.C,J1*%
D10*
X306606666Y-351935380D02*
X306606666Y-352649666D01*
X306559047Y-352792523D01*
X306463809Y-352887761D01*
X306320952Y-352935380D01*
X306225714Y-352935380D01*
X307606666Y-352935380D02*
X307035238Y-352935380D01*
X307320952Y-352935380D02*
X307320952Y-351935380D01*
X307225714Y-352078238D01*
X307130476Y-352173476D01*
X307035238Y-352221095D01*
%TO.C,J11*%
X437630476Y-276435380D02*
X437630476Y-277149666D01*
X437582857Y-277292523D01*
X437487619Y-277387761D01*
X437344761Y-277435380D01*
X437249523Y-277435380D01*
X438630476Y-277435380D02*
X438059047Y-277435380D01*
X438344761Y-277435380D02*
X438344761Y-276435380D01*
X438249523Y-276578238D01*
X438154285Y-276673476D01*
X438059047Y-276721095D01*
X439582857Y-277435380D02*
X439011428Y-277435380D01*
X439297142Y-277435380D02*
X439297142Y-276435380D01*
X439201904Y-276578238D01*
X439106666Y-276673476D01*
X439011428Y-276721095D01*
%TO.C,J10*%
X404630476Y-276410380D02*
X404630476Y-277124666D01*
X404582857Y-277267523D01*
X404487619Y-277362761D01*
X404344761Y-277410380D01*
X404249523Y-277410380D01*
X405630476Y-277410380D02*
X405059047Y-277410380D01*
X405344761Y-277410380D02*
X405344761Y-276410380D01*
X405249523Y-276553238D01*
X405154285Y-276648476D01*
X405059047Y-276696095D01*
X406249523Y-276410380D02*
X406344761Y-276410380D01*
X406440000Y-276458000D01*
X406487619Y-276505619D01*
X406535238Y-276600857D01*
X406582857Y-276791333D01*
X406582857Y-277029428D01*
X406535238Y-277219904D01*
X406487619Y-277315142D01*
X406440000Y-277362761D01*
X406344761Y-277410380D01*
X406249523Y-277410380D01*
X406154285Y-277362761D01*
X406106666Y-277315142D01*
X406059047Y-277219904D01*
X406011428Y-277029428D01*
X406011428Y-276791333D01*
X406059047Y-276600857D01*
X406106666Y-276505619D01*
X406154285Y-276458000D01*
X406249523Y-276410380D01*
%TO.C,J9*%
X339106666Y-276410380D02*
X339106666Y-277124666D01*
X339059047Y-277267523D01*
X338963809Y-277362761D01*
X338820952Y-277410380D01*
X338725714Y-277410380D01*
X339630476Y-277410380D02*
X339820952Y-277410380D01*
X339916190Y-277362761D01*
X339963809Y-277315142D01*
X340059047Y-277172285D01*
X340106666Y-276981809D01*
X340106666Y-276600857D01*
X340059047Y-276505619D01*
X340011428Y-276458000D01*
X339916190Y-276410380D01*
X339725714Y-276410380D01*
X339630476Y-276458000D01*
X339582857Y-276505619D01*
X339535238Y-276600857D01*
X339535238Y-276838952D01*
X339582857Y-276934190D01*
X339630476Y-276981809D01*
X339725714Y-277029428D01*
X339916190Y-277029428D01*
X340011428Y-276981809D01*
X340059047Y-276934190D01*
X340106666Y-276838952D01*
%TO.C,J8*%
X372106666Y-276410380D02*
X372106666Y-277124666D01*
X372059047Y-277267523D01*
X371963809Y-277362761D01*
X371820952Y-277410380D01*
X371725714Y-277410380D01*
X372725714Y-276838952D02*
X372630476Y-276791333D01*
X372582857Y-276743714D01*
X372535238Y-276648476D01*
X372535238Y-276600857D01*
X372582857Y-276505619D01*
X372630476Y-276458000D01*
X372725714Y-276410380D01*
X372916190Y-276410380D01*
X373011428Y-276458000D01*
X373059047Y-276505619D01*
X373106666Y-276600857D01*
X373106666Y-276648476D01*
X373059047Y-276743714D01*
X373011428Y-276791333D01*
X372916190Y-276838952D01*
X372725714Y-276838952D01*
X372630476Y-276886571D01*
X372582857Y-276934190D01*
X372535238Y-277029428D01*
X372535238Y-277219904D01*
X372582857Y-277315142D01*
X372630476Y-277362761D01*
X372725714Y-277410380D01*
X372916190Y-277410380D01*
X373011428Y-277362761D01*
X373059047Y-277315142D01*
X373106666Y-277219904D01*
X373106666Y-277029428D01*
X373059047Y-276934190D01*
X373011428Y-276886571D01*
X372916190Y-276838952D01*
%TO.C,J6*%
X306131666Y-276410380D02*
X306131666Y-277124666D01*
X306084047Y-277267523D01*
X305988809Y-277362761D01*
X305845952Y-277410380D01*
X305750714Y-277410380D01*
X307036428Y-276410380D02*
X306845952Y-276410380D01*
X306750714Y-276458000D01*
X306703095Y-276505619D01*
X306607857Y-276648476D01*
X306560238Y-276838952D01*
X306560238Y-277219904D01*
X306607857Y-277315142D01*
X306655476Y-277362761D01*
X306750714Y-277410380D01*
X306941190Y-277410380D01*
X307036428Y-277362761D01*
X307084047Y-277315142D01*
X307131666Y-277219904D01*
X307131666Y-276981809D01*
X307084047Y-276886571D01*
X307036428Y-276838952D01*
X306941190Y-276791333D01*
X306750714Y-276791333D01*
X306655476Y-276838952D01*
X306607857Y-276886571D01*
X306560238Y-276981809D01*
%TO.C,J5*%
X438606666Y-351935380D02*
X438606666Y-352649666D01*
X438559047Y-352792523D01*
X438463809Y-352887761D01*
X438320952Y-352935380D01*
X438225714Y-352935380D01*
X439559047Y-351935380D02*
X439082857Y-351935380D01*
X439035238Y-352411571D01*
X439082857Y-352363952D01*
X439178095Y-352316333D01*
X439416190Y-352316333D01*
X439511428Y-352363952D01*
X439559047Y-352411571D01*
X439606666Y-352506809D01*
X439606666Y-352744904D01*
X439559047Y-352840142D01*
X439511428Y-352887761D01*
X439416190Y-352935380D01*
X439178095Y-352935380D01*
X439082857Y-352887761D01*
X439035238Y-352840142D01*
%TO.C,J4*%
X405606666Y-351935380D02*
X405606666Y-352649666D01*
X405559047Y-352792523D01*
X405463809Y-352887761D01*
X405320952Y-352935380D01*
X405225714Y-352935380D01*
X406511428Y-352268714D02*
X406511428Y-352935380D01*
X406273333Y-351887761D02*
X406035238Y-352602047D01*
X406654285Y-352602047D01*
%TO.C,J3*%
X372606666Y-351935380D02*
X372606666Y-352649666D01*
X372559047Y-352792523D01*
X372463809Y-352887761D01*
X372320952Y-352935380D01*
X372225714Y-352935380D01*
X372987619Y-351935380D02*
X373606666Y-351935380D01*
X373273333Y-352316333D01*
X373416190Y-352316333D01*
X373511428Y-352363952D01*
X373559047Y-352411571D01*
X373606666Y-352506809D01*
X373606666Y-352744904D01*
X373559047Y-352840142D01*
X373511428Y-352887761D01*
X373416190Y-352935380D01*
X373130476Y-352935380D01*
X373035238Y-352887761D01*
X372987619Y-352840142D01*
%TO.C,J2*%
X339606666Y-351935380D02*
X339606666Y-352649666D01*
X339559047Y-352792523D01*
X339463809Y-352887761D01*
X339320952Y-352935380D01*
X339225714Y-352935380D01*
X340035238Y-352030619D02*
X340082857Y-351983000D01*
X340178095Y-351935380D01*
X340416190Y-351935380D01*
X340511428Y-351983000D01*
X340559047Y-352030619D01*
X340606666Y-352125857D01*
X340606666Y-352221095D01*
X340559047Y-352363952D01*
X339987619Y-352935380D01*
X340606666Y-352935380D01*
%TO.C,H1*%
X421378095Y-309860380D02*
X421378095Y-308860380D01*
X421378095Y-309336571D02*
X421949523Y-309336571D01*
X421949523Y-309860380D02*
X421949523Y-308860380D01*
X422949523Y-309860380D02*
X422378095Y-309860380D01*
X422663809Y-309860380D02*
X422663809Y-308860380D01*
X422568571Y-309003238D01*
X422473333Y-309098476D01*
X422378095Y-309146095D01*
%TD*%
M02*
