%TF.GenerationSoftware,KiCad,Pcbnew,(5.1.6)-1*%
%TF.CreationDate,2021-11-09T09:23:04+01:00*%
%TF.ProjectId,boneIO_input board_v0.3,626f6e65-494f-45f6-996e-70757420626f,rev?*%
%TF.SameCoordinates,Original*%
%TF.FileFunction,Legend,Bot*%
%TF.FilePolarity,Positive*%
%FSLAX46Y46*%
G04 Gerber Fmt 4.6, Leading zero omitted, Abs format (unit mm)*
G04 Created by KiCad (PCBNEW (5.1.6)-1) date 2021-11-09 09:23:04*
%MOMM*%
%LPD*%
G01*
G04 APERTURE LIST*
%ADD10C,0.300000*%
%ADD11C,0.120000*%
%ADD12C,0.150000*%
G04 APERTURE END LIST*
D10*
X251292142Y-76554285D02*
X249863571Y-75554285D01*
X251292142Y-74840000D02*
X248292142Y-74840000D01*
X248292142Y-75982857D01*
X248435000Y-76268571D01*
X248577857Y-76411428D01*
X248863571Y-76554285D01*
X249292142Y-76554285D01*
X249577857Y-76411428D01*
X249720714Y-76268571D01*
X249863571Y-75982857D01*
X249863571Y-74840000D01*
X251149285Y-77697142D02*
X251292142Y-78125714D01*
X251292142Y-78840000D01*
X251149285Y-79125714D01*
X251006428Y-79268571D01*
X250720714Y-79411428D01*
X250435000Y-79411428D01*
X250149285Y-79268571D01*
X250006428Y-79125714D01*
X249863571Y-78840000D01*
X249720714Y-78268571D01*
X249577857Y-77982857D01*
X249435000Y-77840000D01*
X249149285Y-77697142D01*
X248863571Y-77697142D01*
X248577857Y-77840000D01*
X248435000Y-77982857D01*
X248292142Y-78268571D01*
X248292142Y-78982857D01*
X248435000Y-79411428D01*
X249292142Y-81982857D02*
X251292142Y-81982857D01*
X248149285Y-81268571D02*
X250292142Y-80554285D01*
X250292142Y-82411428D01*
X249577857Y-83982857D02*
X249435000Y-83697142D01*
X249292142Y-83554285D01*
X249006428Y-83411428D01*
X248863571Y-83411428D01*
X248577857Y-83554285D01*
X248435000Y-83697142D01*
X248292142Y-83982857D01*
X248292142Y-84554285D01*
X248435000Y-84840000D01*
X248577857Y-84982857D01*
X248863571Y-85125714D01*
X249006428Y-85125714D01*
X249292142Y-84982857D01*
X249435000Y-84840000D01*
X249577857Y-84554285D01*
X249577857Y-83982857D01*
X249720714Y-83697142D01*
X249863571Y-83554285D01*
X250149285Y-83411428D01*
X250720714Y-83411428D01*
X251006428Y-83554285D01*
X251149285Y-83697142D01*
X251292142Y-83982857D01*
X251292142Y-84554285D01*
X251149285Y-84840000D01*
X251006428Y-84982857D01*
X250720714Y-85125714D01*
X250149285Y-85125714D01*
X249863571Y-84982857D01*
X249720714Y-84840000D01*
X249577857Y-84554285D01*
X248292142Y-87840000D02*
X248292142Y-86411428D01*
X249720714Y-86268571D01*
X249577857Y-86411428D01*
X249435000Y-86697142D01*
X249435000Y-87411428D01*
X249577857Y-87697142D01*
X249720714Y-87840000D01*
X250006428Y-87982857D01*
X250720714Y-87982857D01*
X251006428Y-87840000D01*
X251149285Y-87697142D01*
X251292142Y-87411428D01*
X251292142Y-86697142D01*
X251149285Y-86411428D01*
X251006428Y-86268571D01*
D11*
%TO.C,J9*%
X108315000Y-80430000D02*
X108315000Y-81760000D01*
X109645000Y-80430000D02*
X108315000Y-80430000D01*
X108315000Y-83030000D02*
X108315000Y-85630000D01*
X110915000Y-83030000D02*
X108315000Y-83030000D01*
X110915000Y-80430000D02*
X110915000Y-83030000D01*
X108315000Y-85630000D02*
X118595000Y-85630000D01*
X110915000Y-80430000D02*
X118595000Y-80430000D01*
X118595000Y-80430000D02*
X118595000Y-85630000D01*
%TO.C,U11*%
X257505000Y-61750000D02*
X257505000Y-104550000D01*
X242285000Y-61750000D02*
X257505000Y-61750000D01*
X242285000Y-104550000D02*
X257505000Y-104550000D01*
X242285000Y-61750000D02*
X242285000Y-104550000D01*
%TO.C,J9*%
D12*
X106767380Y-82696666D02*
X107481666Y-82696666D01*
X107624523Y-82649047D01*
X107719761Y-82553809D01*
X107767380Y-82410952D01*
X107767380Y-82315714D01*
X107767380Y-83220476D02*
X107767380Y-83410952D01*
X107719761Y-83506190D01*
X107672142Y-83553809D01*
X107529285Y-83649047D01*
X107338809Y-83696666D01*
X106957857Y-83696666D01*
X106862619Y-83649047D01*
X106815000Y-83601428D01*
X106767380Y-83506190D01*
X106767380Y-83315714D01*
X106815000Y-83220476D01*
X106862619Y-83172857D01*
X106957857Y-83125238D01*
X107195952Y-83125238D01*
X107291190Y-83172857D01*
X107338809Y-83220476D01*
X107386428Y-83315714D01*
X107386428Y-83506190D01*
X107338809Y-83601428D01*
X107291190Y-83649047D01*
X107195952Y-83696666D01*
%TO.C,U11*%
X239847380Y-59601904D02*
X240656904Y-59601904D01*
X240752142Y-59649523D01*
X240799761Y-59697142D01*
X240847380Y-59792380D01*
X240847380Y-59982857D01*
X240799761Y-60078095D01*
X240752142Y-60125714D01*
X240656904Y-60173333D01*
X239847380Y-60173333D01*
X240847380Y-61173333D02*
X240847380Y-60601904D01*
X240847380Y-60887619D02*
X239847380Y-60887619D01*
X239990238Y-60792380D01*
X240085476Y-60697142D01*
X240133095Y-60601904D01*
X240847380Y-62125714D02*
X240847380Y-61554285D01*
X240847380Y-61840000D02*
X239847380Y-61840000D01*
X239990238Y-61744761D01*
X240085476Y-61649523D01*
X240133095Y-61554285D01*
%TD*%
M02*
