%TF.GenerationSoftware,KiCad,Pcbnew,(5.1.6)-1*%
%TF.CreationDate,2020-09-13T22:12:52+02:00*%
%TF.ProjectId,boneIO - relay board,626f6e65-494f-4202-9d20-72656c617920,rev?*%
%TF.SameCoordinates,Original*%
%TF.FileFunction,Soldermask,Top*%
%TF.FilePolarity,Negative*%
%FSLAX46Y46*%
G04 Gerber Fmt 4.6, Leading zero omitted, Abs format (unit mm)*
G04 Created by KiCad (PCBNEW (5.1.6)-1) date 2020-09-13 22:12:53*
%MOMM*%
%LPD*%
G01*
G04 APERTURE LIST*
%ADD10R,0.900000X0.800000*%
%ADD11C,1.950000*%
%ADD12R,1.700000X1.700000*%
%ADD13O,1.700000X1.700000*%
%ADD14R,2.500000X2.500000*%
%ADD15C,2.500000*%
%ADD16C,4.300000*%
G04 APERTURE END LIST*
D10*
%TO.C,Q13*%
X330200000Y-305532000D03*
X332200000Y-304582000D03*
X332200000Y-306482000D03*
%TD*%
D11*
%TO.C,K1*%
X302640000Y-329508000D03*
X295140000Y-329508000D03*
X302640000Y-354708000D03*
X302640000Y-344708000D03*
X302640000Y-349708000D03*
X295140000Y-354708000D03*
X295140000Y-344708000D03*
X295140000Y-349708000D03*
%TD*%
%TO.C,K5*%
X368640000Y-329508000D03*
X361140000Y-329508000D03*
X368640000Y-354708000D03*
X368640000Y-344708000D03*
X368640000Y-349708000D03*
X361140000Y-354708000D03*
X361140000Y-344708000D03*
X361140000Y-349708000D03*
%TD*%
%TO.C,K2*%
X311140000Y-349708000D03*
X311140000Y-344708000D03*
X311140000Y-354708000D03*
X318640000Y-349708000D03*
X318640000Y-344708000D03*
X318640000Y-354708000D03*
X311140000Y-329508000D03*
X318640000Y-329508000D03*
%TD*%
%TO.C,K3*%
X335640000Y-329508000D03*
X328140000Y-329508000D03*
X335640000Y-354708000D03*
X335640000Y-344708000D03*
X335640000Y-349708000D03*
X328140000Y-354708000D03*
X328140000Y-344708000D03*
X328140000Y-349708000D03*
%TD*%
%TO.C,K4*%
X351640000Y-329508000D03*
X344140000Y-329508000D03*
X351640000Y-354708000D03*
X351640000Y-344708000D03*
X351640000Y-349708000D03*
X344140000Y-354708000D03*
X344140000Y-344708000D03*
X344140000Y-349708000D03*
%TD*%
%TO.C,K6*%
X384640000Y-329508000D03*
X377140000Y-329508000D03*
X384640000Y-354708000D03*
X384640000Y-344708000D03*
X384640000Y-349708000D03*
X377140000Y-354708000D03*
X377140000Y-344708000D03*
X377140000Y-349708000D03*
%TD*%
%TO.C,K7*%
X394140000Y-349708000D03*
X394140000Y-344708000D03*
X394140000Y-354708000D03*
X401640000Y-349708000D03*
X401640000Y-344708000D03*
X401640000Y-354708000D03*
X394140000Y-329508000D03*
X401640000Y-329508000D03*
%TD*%
%TO.C,K8*%
X410140000Y-349708000D03*
X410140000Y-344708000D03*
X410140000Y-354708000D03*
X417640000Y-349708000D03*
X417640000Y-344708000D03*
X417640000Y-354708000D03*
X410140000Y-329508000D03*
X417640000Y-329508000D03*
%TD*%
%TO.C,K10*%
X443140000Y-349708000D03*
X443140000Y-344708000D03*
X443140000Y-354708000D03*
X450640000Y-349708000D03*
X450640000Y-344708000D03*
X450640000Y-354708000D03*
X443140000Y-329508000D03*
X450640000Y-329508000D03*
%TD*%
%TO.C,K9*%
X427140000Y-349708000D03*
X427140000Y-344708000D03*
X427140000Y-354708000D03*
X434640000Y-349708000D03*
X434640000Y-344708000D03*
X434640000Y-354708000D03*
X427140000Y-329508000D03*
X434640000Y-329508000D03*
%TD*%
%TO.C,K19*%
X426640000Y-299908000D03*
X434140000Y-299908000D03*
X426640000Y-274708000D03*
X426640000Y-284708000D03*
X426640000Y-279708000D03*
X434140000Y-274708000D03*
X434140000Y-284708000D03*
X434140000Y-279708000D03*
%TD*%
%TO.C,K13*%
X327640000Y-299908000D03*
X335140000Y-299908000D03*
X327640000Y-274708000D03*
X327640000Y-284708000D03*
X327640000Y-279708000D03*
X335140000Y-274708000D03*
X335140000Y-284708000D03*
X335140000Y-279708000D03*
%TD*%
%TO.C,D1*%
G36*
G01*
X303377000Y-322061000D02*
X302127000Y-322061000D01*
G75*
G02*
X301877000Y-321811000I0J250000D01*
G01*
X301877000Y-321061000D01*
G75*
G02*
X302127000Y-320811000I250000J0D01*
G01*
X303377000Y-320811000D01*
G75*
G02*
X303627000Y-321061000I0J-250000D01*
G01*
X303627000Y-321811000D01*
G75*
G02*
X303377000Y-322061000I-250000J0D01*
G01*
G37*
G36*
G01*
X303377000Y-324861000D02*
X302127000Y-324861000D01*
G75*
G02*
X301877000Y-324611000I0J250000D01*
G01*
X301877000Y-323861000D01*
G75*
G02*
X302127000Y-323611000I250000J0D01*
G01*
X303377000Y-323611000D01*
G75*
G02*
X303627000Y-323861000I0J-250000D01*
G01*
X303627000Y-324611000D01*
G75*
G02*
X303377000Y-324861000I-250000J0D01*
G01*
G37*
%TD*%
%TO.C,D2*%
G36*
G01*
X319125000Y-324861000D02*
X317875000Y-324861000D01*
G75*
G02*
X317625000Y-324611000I0J250000D01*
G01*
X317625000Y-323861000D01*
G75*
G02*
X317875000Y-323611000I250000J0D01*
G01*
X319125000Y-323611000D01*
G75*
G02*
X319375000Y-323861000I0J-250000D01*
G01*
X319375000Y-324611000D01*
G75*
G02*
X319125000Y-324861000I-250000J0D01*
G01*
G37*
G36*
G01*
X319125000Y-322061000D02*
X317875000Y-322061000D01*
G75*
G02*
X317625000Y-321811000I0J250000D01*
G01*
X317625000Y-321061000D01*
G75*
G02*
X317875000Y-320811000I250000J0D01*
G01*
X319125000Y-320811000D01*
G75*
G02*
X319375000Y-321061000I0J-250000D01*
G01*
X319375000Y-321811000D01*
G75*
G02*
X319125000Y-322061000I-250000J0D01*
G01*
G37*
%TD*%
%TO.C,D3*%
G36*
G01*
X336397000Y-322061000D02*
X335147000Y-322061000D01*
G75*
G02*
X334897000Y-321811000I0J250000D01*
G01*
X334897000Y-321061000D01*
G75*
G02*
X335147000Y-320811000I250000J0D01*
G01*
X336397000Y-320811000D01*
G75*
G02*
X336647000Y-321061000I0J-250000D01*
G01*
X336647000Y-321811000D01*
G75*
G02*
X336397000Y-322061000I-250000J0D01*
G01*
G37*
G36*
G01*
X336397000Y-324861000D02*
X335147000Y-324861000D01*
G75*
G02*
X334897000Y-324611000I0J250000D01*
G01*
X334897000Y-323861000D01*
G75*
G02*
X335147000Y-323611000I250000J0D01*
G01*
X336397000Y-323611000D01*
G75*
G02*
X336647000Y-323861000I0J-250000D01*
G01*
X336647000Y-324611000D01*
G75*
G02*
X336397000Y-324861000I-250000J0D01*
G01*
G37*
%TD*%
%TO.C,D4*%
G36*
G01*
X352145000Y-322061000D02*
X350895000Y-322061000D01*
G75*
G02*
X350645000Y-321811000I0J250000D01*
G01*
X350645000Y-321061000D01*
G75*
G02*
X350895000Y-320811000I250000J0D01*
G01*
X352145000Y-320811000D01*
G75*
G02*
X352395000Y-321061000I0J-250000D01*
G01*
X352395000Y-321811000D01*
G75*
G02*
X352145000Y-322061000I-250000J0D01*
G01*
G37*
G36*
G01*
X352145000Y-324861000D02*
X350895000Y-324861000D01*
G75*
G02*
X350645000Y-324611000I0J250000D01*
G01*
X350645000Y-323861000D01*
G75*
G02*
X350895000Y-323611000I250000J0D01*
G01*
X352145000Y-323611000D01*
G75*
G02*
X352395000Y-323861000I0J-250000D01*
G01*
X352395000Y-324611000D01*
G75*
G02*
X352145000Y-324861000I-250000J0D01*
G01*
G37*
%TD*%
%TO.C,D5*%
G36*
G01*
X369417000Y-324861000D02*
X368167000Y-324861000D01*
G75*
G02*
X367917000Y-324611000I0J250000D01*
G01*
X367917000Y-323861000D01*
G75*
G02*
X368167000Y-323611000I250000J0D01*
G01*
X369417000Y-323611000D01*
G75*
G02*
X369667000Y-323861000I0J-250000D01*
G01*
X369667000Y-324611000D01*
G75*
G02*
X369417000Y-324861000I-250000J0D01*
G01*
G37*
G36*
G01*
X369417000Y-322061000D02*
X368167000Y-322061000D01*
G75*
G02*
X367917000Y-321811000I0J250000D01*
G01*
X367917000Y-321061000D01*
G75*
G02*
X368167000Y-320811000I250000J0D01*
G01*
X369417000Y-320811000D01*
G75*
G02*
X369667000Y-321061000I0J-250000D01*
G01*
X369667000Y-321811000D01*
G75*
G02*
X369417000Y-322061000I-250000J0D01*
G01*
G37*
%TD*%
%TO.C,D6*%
G36*
G01*
X385165000Y-322061000D02*
X383915000Y-322061000D01*
G75*
G02*
X383665000Y-321811000I0J250000D01*
G01*
X383665000Y-321061000D01*
G75*
G02*
X383915000Y-320811000I250000J0D01*
G01*
X385165000Y-320811000D01*
G75*
G02*
X385415000Y-321061000I0J-250000D01*
G01*
X385415000Y-321811000D01*
G75*
G02*
X385165000Y-322061000I-250000J0D01*
G01*
G37*
G36*
G01*
X385165000Y-324861000D02*
X383915000Y-324861000D01*
G75*
G02*
X383665000Y-324611000I0J250000D01*
G01*
X383665000Y-323861000D01*
G75*
G02*
X383915000Y-323611000I250000J0D01*
G01*
X385165000Y-323611000D01*
G75*
G02*
X385415000Y-323861000I0J-250000D01*
G01*
X385415000Y-324611000D01*
G75*
G02*
X385165000Y-324861000I-250000J0D01*
G01*
G37*
%TD*%
%TO.C,D7*%
G36*
G01*
X402437000Y-322061000D02*
X401187000Y-322061000D01*
G75*
G02*
X400937000Y-321811000I0J250000D01*
G01*
X400937000Y-321061000D01*
G75*
G02*
X401187000Y-320811000I250000J0D01*
G01*
X402437000Y-320811000D01*
G75*
G02*
X402687000Y-321061000I0J-250000D01*
G01*
X402687000Y-321811000D01*
G75*
G02*
X402437000Y-322061000I-250000J0D01*
G01*
G37*
G36*
G01*
X402437000Y-324861000D02*
X401187000Y-324861000D01*
G75*
G02*
X400937000Y-324611000I0J250000D01*
G01*
X400937000Y-323861000D01*
G75*
G02*
X401187000Y-323611000I250000J0D01*
G01*
X402437000Y-323611000D01*
G75*
G02*
X402687000Y-323861000I0J-250000D01*
G01*
X402687000Y-324611000D01*
G75*
G02*
X402437000Y-324861000I-250000J0D01*
G01*
G37*
%TD*%
%TO.C,D8*%
G36*
G01*
X418185000Y-324861000D02*
X416935000Y-324861000D01*
G75*
G02*
X416685000Y-324611000I0J250000D01*
G01*
X416685000Y-323861000D01*
G75*
G02*
X416935000Y-323611000I250000J0D01*
G01*
X418185000Y-323611000D01*
G75*
G02*
X418435000Y-323861000I0J-250000D01*
G01*
X418435000Y-324611000D01*
G75*
G02*
X418185000Y-324861000I-250000J0D01*
G01*
G37*
G36*
G01*
X418185000Y-322061000D02*
X416935000Y-322061000D01*
G75*
G02*
X416685000Y-321811000I0J250000D01*
G01*
X416685000Y-321061000D01*
G75*
G02*
X416935000Y-320811000I250000J0D01*
G01*
X418185000Y-320811000D01*
G75*
G02*
X418435000Y-321061000I0J-250000D01*
G01*
X418435000Y-321811000D01*
G75*
G02*
X418185000Y-322061000I-250000J0D01*
G01*
G37*
%TD*%
%TO.C,D9*%
G36*
G01*
X435457000Y-322061000D02*
X434207000Y-322061000D01*
G75*
G02*
X433957000Y-321811000I0J250000D01*
G01*
X433957000Y-321061000D01*
G75*
G02*
X434207000Y-320811000I250000J0D01*
G01*
X435457000Y-320811000D01*
G75*
G02*
X435707000Y-321061000I0J-250000D01*
G01*
X435707000Y-321811000D01*
G75*
G02*
X435457000Y-322061000I-250000J0D01*
G01*
G37*
G36*
G01*
X435457000Y-324861000D02*
X434207000Y-324861000D01*
G75*
G02*
X433957000Y-324611000I0J250000D01*
G01*
X433957000Y-323861000D01*
G75*
G02*
X434207000Y-323611000I250000J0D01*
G01*
X435457000Y-323611000D01*
G75*
G02*
X435707000Y-323861000I0J-250000D01*
G01*
X435707000Y-324611000D01*
G75*
G02*
X435457000Y-324861000I-250000J0D01*
G01*
G37*
%TD*%
%TO.C,D10*%
G36*
G01*
X451205000Y-322061000D02*
X449955000Y-322061000D01*
G75*
G02*
X449705000Y-321811000I0J250000D01*
G01*
X449705000Y-321061000D01*
G75*
G02*
X449955000Y-320811000I250000J0D01*
G01*
X451205000Y-320811000D01*
G75*
G02*
X451455000Y-321061000I0J-250000D01*
G01*
X451455000Y-321811000D01*
G75*
G02*
X451205000Y-322061000I-250000J0D01*
G01*
G37*
G36*
G01*
X451205000Y-324861000D02*
X449955000Y-324861000D01*
G75*
G02*
X449705000Y-324611000I0J250000D01*
G01*
X449705000Y-323861000D01*
G75*
G02*
X449955000Y-323611000I250000J0D01*
G01*
X451205000Y-323611000D01*
G75*
G02*
X451455000Y-323861000I0J-250000D01*
G01*
X451455000Y-324611000D01*
G75*
G02*
X451205000Y-324861000I-250000J0D01*
G01*
G37*
%TD*%
%TO.C,D11*%
G36*
G01*
X292475000Y-304015000D02*
X293725000Y-304015000D01*
G75*
G02*
X293975000Y-304265000I0J-250000D01*
G01*
X293975000Y-305015000D01*
G75*
G02*
X293725000Y-305265000I-250000J0D01*
G01*
X292475000Y-305265000D01*
G75*
G02*
X292225000Y-305015000I0J250000D01*
G01*
X292225000Y-304265000D01*
G75*
G02*
X292475000Y-304015000I250000J0D01*
G01*
G37*
G36*
G01*
X292475000Y-306815000D02*
X293725000Y-306815000D01*
G75*
G02*
X293975000Y-307065000I0J-250000D01*
G01*
X293975000Y-307815000D01*
G75*
G02*
X293725000Y-308065000I-250000J0D01*
G01*
X292475000Y-308065000D01*
G75*
G02*
X292225000Y-307815000I0J250000D01*
G01*
X292225000Y-307065000D01*
G75*
G02*
X292475000Y-306815000I250000J0D01*
G01*
G37*
%TD*%
%TO.C,D12*%
G36*
G01*
X308223000Y-304015000D02*
X309473000Y-304015000D01*
G75*
G02*
X309723000Y-304265000I0J-250000D01*
G01*
X309723000Y-305015000D01*
G75*
G02*
X309473000Y-305265000I-250000J0D01*
G01*
X308223000Y-305265000D01*
G75*
G02*
X307973000Y-305015000I0J250000D01*
G01*
X307973000Y-304265000D01*
G75*
G02*
X308223000Y-304015000I250000J0D01*
G01*
G37*
G36*
G01*
X308223000Y-306815000D02*
X309473000Y-306815000D01*
G75*
G02*
X309723000Y-307065000I0J-250000D01*
G01*
X309723000Y-307815000D01*
G75*
G02*
X309473000Y-308065000I-250000J0D01*
G01*
X308223000Y-308065000D01*
G75*
G02*
X307973000Y-307815000I0J250000D01*
G01*
X307973000Y-307065000D01*
G75*
G02*
X308223000Y-306815000I250000J0D01*
G01*
G37*
%TD*%
%TO.C,D13*%
G36*
G01*
X325495000Y-304015000D02*
X326745000Y-304015000D01*
G75*
G02*
X326995000Y-304265000I0J-250000D01*
G01*
X326995000Y-305015000D01*
G75*
G02*
X326745000Y-305265000I-250000J0D01*
G01*
X325495000Y-305265000D01*
G75*
G02*
X325245000Y-305015000I0J250000D01*
G01*
X325245000Y-304265000D01*
G75*
G02*
X325495000Y-304015000I250000J0D01*
G01*
G37*
G36*
G01*
X325495000Y-306815000D02*
X326745000Y-306815000D01*
G75*
G02*
X326995000Y-307065000I0J-250000D01*
G01*
X326995000Y-307815000D01*
G75*
G02*
X326745000Y-308065000I-250000J0D01*
G01*
X325495000Y-308065000D01*
G75*
G02*
X325245000Y-307815000I0J250000D01*
G01*
X325245000Y-307065000D01*
G75*
G02*
X325495000Y-306815000I250000J0D01*
G01*
G37*
%TD*%
%TO.C,D14*%
G36*
G01*
X341243000Y-304015000D02*
X342493000Y-304015000D01*
G75*
G02*
X342743000Y-304265000I0J-250000D01*
G01*
X342743000Y-305015000D01*
G75*
G02*
X342493000Y-305265000I-250000J0D01*
G01*
X341243000Y-305265000D01*
G75*
G02*
X340993000Y-305015000I0J250000D01*
G01*
X340993000Y-304265000D01*
G75*
G02*
X341243000Y-304015000I250000J0D01*
G01*
G37*
G36*
G01*
X341243000Y-306815000D02*
X342493000Y-306815000D01*
G75*
G02*
X342743000Y-307065000I0J-250000D01*
G01*
X342743000Y-307815000D01*
G75*
G02*
X342493000Y-308065000I-250000J0D01*
G01*
X341243000Y-308065000D01*
G75*
G02*
X340993000Y-307815000I0J250000D01*
G01*
X340993000Y-307065000D01*
G75*
G02*
X341243000Y-306815000I250000J0D01*
G01*
G37*
%TD*%
%TO.C,D15*%
G36*
G01*
X358515000Y-304015000D02*
X359765000Y-304015000D01*
G75*
G02*
X360015000Y-304265000I0J-250000D01*
G01*
X360015000Y-305015000D01*
G75*
G02*
X359765000Y-305265000I-250000J0D01*
G01*
X358515000Y-305265000D01*
G75*
G02*
X358265000Y-305015000I0J250000D01*
G01*
X358265000Y-304265000D01*
G75*
G02*
X358515000Y-304015000I250000J0D01*
G01*
G37*
G36*
G01*
X358515000Y-306815000D02*
X359765000Y-306815000D01*
G75*
G02*
X360015000Y-307065000I0J-250000D01*
G01*
X360015000Y-307815000D01*
G75*
G02*
X359765000Y-308065000I-250000J0D01*
G01*
X358515000Y-308065000D01*
G75*
G02*
X358265000Y-307815000I0J250000D01*
G01*
X358265000Y-307065000D01*
G75*
G02*
X358515000Y-306815000I250000J0D01*
G01*
G37*
%TD*%
%TO.C,D16*%
G36*
G01*
X374263000Y-304015000D02*
X375513000Y-304015000D01*
G75*
G02*
X375763000Y-304265000I0J-250000D01*
G01*
X375763000Y-305015000D01*
G75*
G02*
X375513000Y-305265000I-250000J0D01*
G01*
X374263000Y-305265000D01*
G75*
G02*
X374013000Y-305015000I0J250000D01*
G01*
X374013000Y-304265000D01*
G75*
G02*
X374263000Y-304015000I250000J0D01*
G01*
G37*
G36*
G01*
X374263000Y-306815000D02*
X375513000Y-306815000D01*
G75*
G02*
X375763000Y-307065000I0J-250000D01*
G01*
X375763000Y-307815000D01*
G75*
G02*
X375513000Y-308065000I-250000J0D01*
G01*
X374263000Y-308065000D01*
G75*
G02*
X374013000Y-307815000I0J250000D01*
G01*
X374013000Y-307065000D01*
G75*
G02*
X374263000Y-306815000I250000J0D01*
G01*
G37*
%TD*%
%TO.C,D17*%
G36*
G01*
X391535000Y-306815000D02*
X392785000Y-306815000D01*
G75*
G02*
X393035000Y-307065000I0J-250000D01*
G01*
X393035000Y-307815000D01*
G75*
G02*
X392785000Y-308065000I-250000J0D01*
G01*
X391535000Y-308065000D01*
G75*
G02*
X391285000Y-307815000I0J250000D01*
G01*
X391285000Y-307065000D01*
G75*
G02*
X391535000Y-306815000I250000J0D01*
G01*
G37*
G36*
G01*
X391535000Y-304015000D02*
X392785000Y-304015000D01*
G75*
G02*
X393035000Y-304265000I0J-250000D01*
G01*
X393035000Y-305015000D01*
G75*
G02*
X392785000Y-305265000I-250000J0D01*
G01*
X391535000Y-305265000D01*
G75*
G02*
X391285000Y-305015000I0J250000D01*
G01*
X391285000Y-304265000D01*
G75*
G02*
X391535000Y-304015000I250000J0D01*
G01*
G37*
%TD*%
%TO.C,D18*%
G36*
G01*
X407283000Y-306815000D02*
X408533000Y-306815000D01*
G75*
G02*
X408783000Y-307065000I0J-250000D01*
G01*
X408783000Y-307815000D01*
G75*
G02*
X408533000Y-308065000I-250000J0D01*
G01*
X407283000Y-308065000D01*
G75*
G02*
X407033000Y-307815000I0J250000D01*
G01*
X407033000Y-307065000D01*
G75*
G02*
X407283000Y-306815000I250000J0D01*
G01*
G37*
G36*
G01*
X407283000Y-304015000D02*
X408533000Y-304015000D01*
G75*
G02*
X408783000Y-304265000I0J-250000D01*
G01*
X408783000Y-305015000D01*
G75*
G02*
X408533000Y-305265000I-250000J0D01*
G01*
X407283000Y-305265000D01*
G75*
G02*
X407033000Y-305015000I0J250000D01*
G01*
X407033000Y-304265000D01*
G75*
G02*
X407283000Y-304015000I250000J0D01*
G01*
G37*
%TD*%
%TO.C,D19*%
G36*
G01*
X424555000Y-306815000D02*
X425805000Y-306815000D01*
G75*
G02*
X426055000Y-307065000I0J-250000D01*
G01*
X426055000Y-307815000D01*
G75*
G02*
X425805000Y-308065000I-250000J0D01*
G01*
X424555000Y-308065000D01*
G75*
G02*
X424305000Y-307815000I0J250000D01*
G01*
X424305000Y-307065000D01*
G75*
G02*
X424555000Y-306815000I250000J0D01*
G01*
G37*
G36*
G01*
X424555000Y-304015000D02*
X425805000Y-304015000D01*
G75*
G02*
X426055000Y-304265000I0J-250000D01*
G01*
X426055000Y-305015000D01*
G75*
G02*
X425805000Y-305265000I-250000J0D01*
G01*
X424555000Y-305265000D01*
G75*
G02*
X424305000Y-305015000I0J250000D01*
G01*
X424305000Y-304265000D01*
G75*
G02*
X424555000Y-304015000I250000J0D01*
G01*
G37*
%TD*%
%TO.C,D20*%
G36*
G01*
X440303000Y-304015000D02*
X441553000Y-304015000D01*
G75*
G02*
X441803000Y-304265000I0J-250000D01*
G01*
X441803000Y-305015000D01*
G75*
G02*
X441553000Y-305265000I-250000J0D01*
G01*
X440303000Y-305265000D01*
G75*
G02*
X440053000Y-305015000I0J250000D01*
G01*
X440053000Y-304265000D01*
G75*
G02*
X440303000Y-304015000I250000J0D01*
G01*
G37*
G36*
G01*
X440303000Y-306815000D02*
X441553000Y-306815000D01*
G75*
G02*
X441803000Y-307065000I0J-250000D01*
G01*
X441803000Y-307815000D01*
G75*
G02*
X441553000Y-308065000I-250000J0D01*
G01*
X440303000Y-308065000D01*
G75*
G02*
X440053000Y-307815000I0J250000D01*
G01*
X440053000Y-307065000D01*
G75*
G02*
X440303000Y-306815000I250000J0D01*
G01*
G37*
%TD*%
D12*
%TO.C,J6*%
X359140000Y-315708000D03*
D13*
X359140000Y-313168000D03*
X361680000Y-315708000D03*
X361680000Y-313168000D03*
X364220000Y-315708000D03*
X364220000Y-313168000D03*
X366760000Y-315708000D03*
X366760000Y-313168000D03*
X369300000Y-315708000D03*
X369300000Y-313168000D03*
X371840000Y-315708000D03*
X371840000Y-313168000D03*
X374380000Y-315708000D03*
X374380000Y-313168000D03*
X376920000Y-315708000D03*
X376920000Y-313168000D03*
X379460000Y-315708000D03*
X379460000Y-313168000D03*
X382000000Y-315708000D03*
X382000000Y-313168000D03*
X384540000Y-315708000D03*
X384540000Y-313168000D03*
%TD*%
D11*
%TO.C,K11*%
X302140000Y-279708000D03*
X302140000Y-284708000D03*
X302140000Y-274708000D03*
X294640000Y-279708000D03*
X294640000Y-284708000D03*
X294640000Y-274708000D03*
X302140000Y-299908000D03*
X294640000Y-299908000D03*
%TD*%
%TO.C,K12*%
X318140000Y-279708000D03*
X318140000Y-284708000D03*
X318140000Y-274708000D03*
X310640000Y-279708000D03*
X310640000Y-284708000D03*
X310640000Y-274708000D03*
X318140000Y-299908000D03*
X310640000Y-299908000D03*
%TD*%
%TO.C,K14*%
X343640000Y-299908000D03*
X351140000Y-299908000D03*
X343640000Y-274708000D03*
X343640000Y-284708000D03*
X343640000Y-279708000D03*
X351140000Y-274708000D03*
X351140000Y-284708000D03*
X351140000Y-279708000D03*
%TD*%
%TO.C,K15*%
X368140000Y-279708000D03*
X368140000Y-284708000D03*
X368140000Y-274708000D03*
X360640000Y-279708000D03*
X360640000Y-284708000D03*
X360640000Y-274708000D03*
X368140000Y-299908000D03*
X360640000Y-299908000D03*
%TD*%
%TO.C,K16*%
X384140000Y-279708000D03*
X384140000Y-284708000D03*
X384140000Y-274708000D03*
X376640000Y-279708000D03*
X376640000Y-284708000D03*
X376640000Y-274708000D03*
X384140000Y-299908000D03*
X376640000Y-299908000D03*
%TD*%
%TO.C,K17*%
X401140000Y-279708000D03*
X401140000Y-284708000D03*
X401140000Y-274708000D03*
X393640000Y-279708000D03*
X393640000Y-284708000D03*
X393640000Y-274708000D03*
X401140000Y-299908000D03*
X393640000Y-299908000D03*
%TD*%
%TO.C,K18*%
X409640000Y-299908000D03*
X417140000Y-299908000D03*
X409640000Y-274708000D03*
X409640000Y-284708000D03*
X409640000Y-279708000D03*
X417140000Y-274708000D03*
X417140000Y-284708000D03*
X417140000Y-279708000D03*
%TD*%
%TO.C,K20*%
X442640000Y-299908000D03*
X450140000Y-299908000D03*
X442640000Y-274708000D03*
X442640000Y-284708000D03*
X442640000Y-279708000D03*
X450140000Y-274708000D03*
X450140000Y-284708000D03*
X450140000Y-279708000D03*
%TD*%
D10*
%TO.C,Q1*%
X299180000Y-323344000D03*
X297180000Y-324294000D03*
X297180000Y-322394000D03*
%TD*%
%TO.C,Q2*%
X312928000Y-322394000D03*
X312928000Y-324294000D03*
X314928000Y-323344000D03*
%TD*%
%TO.C,Q3*%
X330200000Y-322394000D03*
X330200000Y-324294000D03*
X332200000Y-323344000D03*
%TD*%
%TO.C,Q4*%
X345948000Y-322394000D03*
X345948000Y-324294000D03*
X347948000Y-323344000D03*
%TD*%
%TO.C,Q5*%
X363220000Y-322394000D03*
X363220000Y-324294000D03*
X365220000Y-323344000D03*
%TD*%
%TO.C,Q6*%
X378968000Y-322394000D03*
X378968000Y-324294000D03*
X380968000Y-323344000D03*
%TD*%
%TO.C,Q7*%
X398240000Y-323344000D03*
X396240000Y-324294000D03*
X396240000Y-322394000D03*
%TD*%
%TO.C,Q8*%
X411988000Y-322394000D03*
X411988000Y-324294000D03*
X413988000Y-323344000D03*
%TD*%
%TO.C,Q9*%
X429260000Y-322394000D03*
X429260000Y-324294000D03*
X431260000Y-323344000D03*
%TD*%
%TO.C,Q10*%
X445008000Y-322394000D03*
X445008000Y-324294000D03*
X447008000Y-323344000D03*
%TD*%
%TO.C,Q11*%
X297180000Y-305532000D03*
X299180000Y-304582000D03*
X299180000Y-306482000D03*
%TD*%
%TO.C,Q12*%
X312928000Y-305532000D03*
X314928000Y-304582000D03*
X314928000Y-306482000D03*
%TD*%
%TO.C,Q14*%
X345948000Y-305532000D03*
X347948000Y-304582000D03*
X347948000Y-306482000D03*
%TD*%
%TO.C,Q15*%
X363220000Y-305532000D03*
X365220000Y-304582000D03*
X365220000Y-306482000D03*
%TD*%
%TO.C,Q16*%
X380968000Y-306482000D03*
X380968000Y-304582000D03*
X378968000Y-305532000D03*
%TD*%
%TO.C,Q17*%
X396240000Y-305532000D03*
X398240000Y-304582000D03*
X398240000Y-306482000D03*
%TD*%
%TO.C,Q18*%
X411988000Y-305532000D03*
X413988000Y-304582000D03*
X413988000Y-306482000D03*
%TD*%
%TO.C,Q19*%
X429260000Y-305532000D03*
X431260000Y-304582000D03*
X431260000Y-306482000D03*
%TD*%
%TO.C,Q20*%
X447008000Y-306482000D03*
X447008000Y-304582000D03*
X445008000Y-305532000D03*
%TD*%
%TO.C,R1*%
G36*
G01*
X293725000Y-324861000D02*
X292475000Y-324861000D01*
G75*
G02*
X292225000Y-324611000I0J250000D01*
G01*
X292225000Y-323861000D01*
G75*
G02*
X292475000Y-323611000I250000J0D01*
G01*
X293725000Y-323611000D01*
G75*
G02*
X293975000Y-323861000I0J-250000D01*
G01*
X293975000Y-324611000D01*
G75*
G02*
X293725000Y-324861000I-250000J0D01*
G01*
G37*
G36*
G01*
X293725000Y-322061000D02*
X292475000Y-322061000D01*
G75*
G02*
X292225000Y-321811000I0J250000D01*
G01*
X292225000Y-321061000D01*
G75*
G02*
X292475000Y-320811000I250000J0D01*
G01*
X293725000Y-320811000D01*
G75*
G02*
X293975000Y-321061000I0J-250000D01*
G01*
X293975000Y-321811000D01*
G75*
G02*
X293725000Y-322061000I-250000J0D01*
G01*
G37*
%TD*%
%TO.C,R2*%
G36*
G01*
X309473000Y-324861000D02*
X308223000Y-324861000D01*
G75*
G02*
X307973000Y-324611000I0J250000D01*
G01*
X307973000Y-323861000D01*
G75*
G02*
X308223000Y-323611000I250000J0D01*
G01*
X309473000Y-323611000D01*
G75*
G02*
X309723000Y-323861000I0J-250000D01*
G01*
X309723000Y-324611000D01*
G75*
G02*
X309473000Y-324861000I-250000J0D01*
G01*
G37*
G36*
G01*
X309473000Y-322061000D02*
X308223000Y-322061000D01*
G75*
G02*
X307973000Y-321811000I0J250000D01*
G01*
X307973000Y-321061000D01*
G75*
G02*
X308223000Y-320811000I250000J0D01*
G01*
X309473000Y-320811000D01*
G75*
G02*
X309723000Y-321061000I0J-250000D01*
G01*
X309723000Y-321811000D01*
G75*
G02*
X309473000Y-322061000I-250000J0D01*
G01*
G37*
%TD*%
%TO.C,R3*%
G36*
G01*
X326745000Y-324861000D02*
X325495000Y-324861000D01*
G75*
G02*
X325245000Y-324611000I0J250000D01*
G01*
X325245000Y-323861000D01*
G75*
G02*
X325495000Y-323611000I250000J0D01*
G01*
X326745000Y-323611000D01*
G75*
G02*
X326995000Y-323861000I0J-250000D01*
G01*
X326995000Y-324611000D01*
G75*
G02*
X326745000Y-324861000I-250000J0D01*
G01*
G37*
G36*
G01*
X326745000Y-322061000D02*
X325495000Y-322061000D01*
G75*
G02*
X325245000Y-321811000I0J250000D01*
G01*
X325245000Y-321061000D01*
G75*
G02*
X325495000Y-320811000I250000J0D01*
G01*
X326745000Y-320811000D01*
G75*
G02*
X326995000Y-321061000I0J-250000D01*
G01*
X326995000Y-321811000D01*
G75*
G02*
X326745000Y-322061000I-250000J0D01*
G01*
G37*
%TD*%
%TO.C,R4*%
G36*
G01*
X342493000Y-322061000D02*
X341243000Y-322061000D01*
G75*
G02*
X340993000Y-321811000I0J250000D01*
G01*
X340993000Y-321061000D01*
G75*
G02*
X341243000Y-320811000I250000J0D01*
G01*
X342493000Y-320811000D01*
G75*
G02*
X342743000Y-321061000I0J-250000D01*
G01*
X342743000Y-321811000D01*
G75*
G02*
X342493000Y-322061000I-250000J0D01*
G01*
G37*
G36*
G01*
X342493000Y-324861000D02*
X341243000Y-324861000D01*
G75*
G02*
X340993000Y-324611000I0J250000D01*
G01*
X340993000Y-323861000D01*
G75*
G02*
X341243000Y-323611000I250000J0D01*
G01*
X342493000Y-323611000D01*
G75*
G02*
X342743000Y-323861000I0J-250000D01*
G01*
X342743000Y-324611000D01*
G75*
G02*
X342493000Y-324861000I-250000J0D01*
G01*
G37*
%TD*%
%TO.C,R5*%
G36*
G01*
X359765000Y-322061000D02*
X358515000Y-322061000D01*
G75*
G02*
X358265000Y-321811000I0J250000D01*
G01*
X358265000Y-321061000D01*
G75*
G02*
X358515000Y-320811000I250000J0D01*
G01*
X359765000Y-320811000D01*
G75*
G02*
X360015000Y-321061000I0J-250000D01*
G01*
X360015000Y-321811000D01*
G75*
G02*
X359765000Y-322061000I-250000J0D01*
G01*
G37*
G36*
G01*
X359765000Y-324861000D02*
X358515000Y-324861000D01*
G75*
G02*
X358265000Y-324611000I0J250000D01*
G01*
X358265000Y-323861000D01*
G75*
G02*
X358515000Y-323611000I250000J0D01*
G01*
X359765000Y-323611000D01*
G75*
G02*
X360015000Y-323861000I0J-250000D01*
G01*
X360015000Y-324611000D01*
G75*
G02*
X359765000Y-324861000I-250000J0D01*
G01*
G37*
%TD*%
%TO.C,R6*%
G36*
G01*
X375513000Y-324861000D02*
X374263000Y-324861000D01*
G75*
G02*
X374013000Y-324611000I0J250000D01*
G01*
X374013000Y-323861000D01*
G75*
G02*
X374263000Y-323611000I250000J0D01*
G01*
X375513000Y-323611000D01*
G75*
G02*
X375763000Y-323861000I0J-250000D01*
G01*
X375763000Y-324611000D01*
G75*
G02*
X375513000Y-324861000I-250000J0D01*
G01*
G37*
G36*
G01*
X375513000Y-322061000D02*
X374263000Y-322061000D01*
G75*
G02*
X374013000Y-321811000I0J250000D01*
G01*
X374013000Y-321061000D01*
G75*
G02*
X374263000Y-320811000I250000J0D01*
G01*
X375513000Y-320811000D01*
G75*
G02*
X375763000Y-321061000I0J-250000D01*
G01*
X375763000Y-321811000D01*
G75*
G02*
X375513000Y-322061000I-250000J0D01*
G01*
G37*
%TD*%
%TO.C,R7*%
G36*
G01*
X392785000Y-322061000D02*
X391535000Y-322061000D01*
G75*
G02*
X391285000Y-321811000I0J250000D01*
G01*
X391285000Y-321061000D01*
G75*
G02*
X391535000Y-320811000I250000J0D01*
G01*
X392785000Y-320811000D01*
G75*
G02*
X393035000Y-321061000I0J-250000D01*
G01*
X393035000Y-321811000D01*
G75*
G02*
X392785000Y-322061000I-250000J0D01*
G01*
G37*
G36*
G01*
X392785000Y-324861000D02*
X391535000Y-324861000D01*
G75*
G02*
X391285000Y-324611000I0J250000D01*
G01*
X391285000Y-323861000D01*
G75*
G02*
X391535000Y-323611000I250000J0D01*
G01*
X392785000Y-323611000D01*
G75*
G02*
X393035000Y-323861000I0J-250000D01*
G01*
X393035000Y-324611000D01*
G75*
G02*
X392785000Y-324861000I-250000J0D01*
G01*
G37*
%TD*%
%TO.C,R8*%
G36*
G01*
X408533000Y-324861000D02*
X407283000Y-324861000D01*
G75*
G02*
X407033000Y-324611000I0J250000D01*
G01*
X407033000Y-323861000D01*
G75*
G02*
X407283000Y-323611000I250000J0D01*
G01*
X408533000Y-323611000D01*
G75*
G02*
X408783000Y-323861000I0J-250000D01*
G01*
X408783000Y-324611000D01*
G75*
G02*
X408533000Y-324861000I-250000J0D01*
G01*
G37*
G36*
G01*
X408533000Y-322061000D02*
X407283000Y-322061000D01*
G75*
G02*
X407033000Y-321811000I0J250000D01*
G01*
X407033000Y-321061000D01*
G75*
G02*
X407283000Y-320811000I250000J0D01*
G01*
X408533000Y-320811000D01*
G75*
G02*
X408783000Y-321061000I0J-250000D01*
G01*
X408783000Y-321811000D01*
G75*
G02*
X408533000Y-322061000I-250000J0D01*
G01*
G37*
%TD*%
%TO.C,R9*%
G36*
G01*
X425805000Y-322061000D02*
X424555000Y-322061000D01*
G75*
G02*
X424305000Y-321811000I0J250000D01*
G01*
X424305000Y-321061000D01*
G75*
G02*
X424555000Y-320811000I250000J0D01*
G01*
X425805000Y-320811000D01*
G75*
G02*
X426055000Y-321061000I0J-250000D01*
G01*
X426055000Y-321811000D01*
G75*
G02*
X425805000Y-322061000I-250000J0D01*
G01*
G37*
G36*
G01*
X425805000Y-324861000D02*
X424555000Y-324861000D01*
G75*
G02*
X424305000Y-324611000I0J250000D01*
G01*
X424305000Y-323861000D01*
G75*
G02*
X424555000Y-323611000I250000J0D01*
G01*
X425805000Y-323611000D01*
G75*
G02*
X426055000Y-323861000I0J-250000D01*
G01*
X426055000Y-324611000D01*
G75*
G02*
X425805000Y-324861000I-250000J0D01*
G01*
G37*
%TD*%
%TO.C,R10*%
G36*
G01*
X441553000Y-324861000D02*
X440303000Y-324861000D01*
G75*
G02*
X440053000Y-324611000I0J250000D01*
G01*
X440053000Y-323861000D01*
G75*
G02*
X440303000Y-323611000I250000J0D01*
G01*
X441553000Y-323611000D01*
G75*
G02*
X441803000Y-323861000I0J-250000D01*
G01*
X441803000Y-324611000D01*
G75*
G02*
X441553000Y-324861000I-250000J0D01*
G01*
G37*
G36*
G01*
X441553000Y-322061000D02*
X440303000Y-322061000D01*
G75*
G02*
X440053000Y-321811000I0J250000D01*
G01*
X440053000Y-321061000D01*
G75*
G02*
X440303000Y-320811000I250000J0D01*
G01*
X441553000Y-320811000D01*
G75*
G02*
X441803000Y-321061000I0J-250000D01*
G01*
X441803000Y-321811000D01*
G75*
G02*
X441553000Y-322061000I-250000J0D01*
G01*
G37*
%TD*%
%TO.C,R11*%
G36*
G01*
X302127000Y-306815000D02*
X303377000Y-306815000D01*
G75*
G02*
X303627000Y-307065000I0J-250000D01*
G01*
X303627000Y-307815000D01*
G75*
G02*
X303377000Y-308065000I-250000J0D01*
G01*
X302127000Y-308065000D01*
G75*
G02*
X301877000Y-307815000I0J250000D01*
G01*
X301877000Y-307065000D01*
G75*
G02*
X302127000Y-306815000I250000J0D01*
G01*
G37*
G36*
G01*
X302127000Y-304015000D02*
X303377000Y-304015000D01*
G75*
G02*
X303627000Y-304265000I0J-250000D01*
G01*
X303627000Y-305015000D01*
G75*
G02*
X303377000Y-305265000I-250000J0D01*
G01*
X302127000Y-305265000D01*
G75*
G02*
X301877000Y-305015000I0J250000D01*
G01*
X301877000Y-304265000D01*
G75*
G02*
X302127000Y-304015000I250000J0D01*
G01*
G37*
%TD*%
%TO.C,R12*%
G36*
G01*
X317875000Y-306815000D02*
X319125000Y-306815000D01*
G75*
G02*
X319375000Y-307065000I0J-250000D01*
G01*
X319375000Y-307815000D01*
G75*
G02*
X319125000Y-308065000I-250000J0D01*
G01*
X317875000Y-308065000D01*
G75*
G02*
X317625000Y-307815000I0J250000D01*
G01*
X317625000Y-307065000D01*
G75*
G02*
X317875000Y-306815000I250000J0D01*
G01*
G37*
G36*
G01*
X317875000Y-304015000D02*
X319125000Y-304015000D01*
G75*
G02*
X319375000Y-304265000I0J-250000D01*
G01*
X319375000Y-305015000D01*
G75*
G02*
X319125000Y-305265000I-250000J0D01*
G01*
X317875000Y-305265000D01*
G75*
G02*
X317625000Y-305015000I0J250000D01*
G01*
X317625000Y-304265000D01*
G75*
G02*
X317875000Y-304015000I250000J0D01*
G01*
G37*
%TD*%
%TO.C,R13*%
G36*
G01*
X335147000Y-304015000D02*
X336397000Y-304015000D01*
G75*
G02*
X336647000Y-304265000I0J-250000D01*
G01*
X336647000Y-305015000D01*
G75*
G02*
X336397000Y-305265000I-250000J0D01*
G01*
X335147000Y-305265000D01*
G75*
G02*
X334897000Y-305015000I0J250000D01*
G01*
X334897000Y-304265000D01*
G75*
G02*
X335147000Y-304015000I250000J0D01*
G01*
G37*
G36*
G01*
X335147000Y-306815000D02*
X336397000Y-306815000D01*
G75*
G02*
X336647000Y-307065000I0J-250000D01*
G01*
X336647000Y-307815000D01*
G75*
G02*
X336397000Y-308065000I-250000J0D01*
G01*
X335147000Y-308065000D01*
G75*
G02*
X334897000Y-307815000I0J250000D01*
G01*
X334897000Y-307065000D01*
G75*
G02*
X335147000Y-306815000I250000J0D01*
G01*
G37*
%TD*%
%TO.C,R14*%
G36*
G01*
X350895000Y-304015000D02*
X352145000Y-304015000D01*
G75*
G02*
X352395000Y-304265000I0J-250000D01*
G01*
X352395000Y-305015000D01*
G75*
G02*
X352145000Y-305265000I-250000J0D01*
G01*
X350895000Y-305265000D01*
G75*
G02*
X350645000Y-305015000I0J250000D01*
G01*
X350645000Y-304265000D01*
G75*
G02*
X350895000Y-304015000I250000J0D01*
G01*
G37*
G36*
G01*
X350895000Y-306815000D02*
X352145000Y-306815000D01*
G75*
G02*
X352395000Y-307065000I0J-250000D01*
G01*
X352395000Y-307815000D01*
G75*
G02*
X352145000Y-308065000I-250000J0D01*
G01*
X350895000Y-308065000D01*
G75*
G02*
X350645000Y-307815000I0J250000D01*
G01*
X350645000Y-307065000D01*
G75*
G02*
X350895000Y-306815000I250000J0D01*
G01*
G37*
%TD*%
%TO.C,R15*%
G36*
G01*
X368167000Y-306815000D02*
X369417000Y-306815000D01*
G75*
G02*
X369667000Y-307065000I0J-250000D01*
G01*
X369667000Y-307815000D01*
G75*
G02*
X369417000Y-308065000I-250000J0D01*
G01*
X368167000Y-308065000D01*
G75*
G02*
X367917000Y-307815000I0J250000D01*
G01*
X367917000Y-307065000D01*
G75*
G02*
X368167000Y-306815000I250000J0D01*
G01*
G37*
G36*
G01*
X368167000Y-304015000D02*
X369417000Y-304015000D01*
G75*
G02*
X369667000Y-304265000I0J-250000D01*
G01*
X369667000Y-305015000D01*
G75*
G02*
X369417000Y-305265000I-250000J0D01*
G01*
X368167000Y-305265000D01*
G75*
G02*
X367917000Y-305015000I0J250000D01*
G01*
X367917000Y-304265000D01*
G75*
G02*
X368167000Y-304015000I250000J0D01*
G01*
G37*
%TD*%
%TO.C,R16*%
G36*
G01*
X383915000Y-306815000D02*
X385165000Y-306815000D01*
G75*
G02*
X385415000Y-307065000I0J-250000D01*
G01*
X385415000Y-307815000D01*
G75*
G02*
X385165000Y-308065000I-250000J0D01*
G01*
X383915000Y-308065000D01*
G75*
G02*
X383665000Y-307815000I0J250000D01*
G01*
X383665000Y-307065000D01*
G75*
G02*
X383915000Y-306815000I250000J0D01*
G01*
G37*
G36*
G01*
X383915000Y-304015000D02*
X385165000Y-304015000D01*
G75*
G02*
X385415000Y-304265000I0J-250000D01*
G01*
X385415000Y-305015000D01*
G75*
G02*
X385165000Y-305265000I-250000J0D01*
G01*
X383915000Y-305265000D01*
G75*
G02*
X383665000Y-305015000I0J250000D01*
G01*
X383665000Y-304265000D01*
G75*
G02*
X383915000Y-304015000I250000J0D01*
G01*
G37*
%TD*%
%TO.C,R17*%
G36*
G01*
X401187000Y-304015000D02*
X402437000Y-304015000D01*
G75*
G02*
X402687000Y-304265000I0J-250000D01*
G01*
X402687000Y-305015000D01*
G75*
G02*
X402437000Y-305265000I-250000J0D01*
G01*
X401187000Y-305265000D01*
G75*
G02*
X400937000Y-305015000I0J250000D01*
G01*
X400937000Y-304265000D01*
G75*
G02*
X401187000Y-304015000I250000J0D01*
G01*
G37*
G36*
G01*
X401187000Y-306815000D02*
X402437000Y-306815000D01*
G75*
G02*
X402687000Y-307065000I0J-250000D01*
G01*
X402687000Y-307815000D01*
G75*
G02*
X402437000Y-308065000I-250000J0D01*
G01*
X401187000Y-308065000D01*
G75*
G02*
X400937000Y-307815000I0J250000D01*
G01*
X400937000Y-307065000D01*
G75*
G02*
X401187000Y-306815000I250000J0D01*
G01*
G37*
%TD*%
%TO.C,R18*%
G36*
G01*
X416935000Y-304015000D02*
X418185000Y-304015000D01*
G75*
G02*
X418435000Y-304265000I0J-250000D01*
G01*
X418435000Y-305015000D01*
G75*
G02*
X418185000Y-305265000I-250000J0D01*
G01*
X416935000Y-305265000D01*
G75*
G02*
X416685000Y-305015000I0J250000D01*
G01*
X416685000Y-304265000D01*
G75*
G02*
X416935000Y-304015000I250000J0D01*
G01*
G37*
G36*
G01*
X416935000Y-306815000D02*
X418185000Y-306815000D01*
G75*
G02*
X418435000Y-307065000I0J-250000D01*
G01*
X418435000Y-307815000D01*
G75*
G02*
X418185000Y-308065000I-250000J0D01*
G01*
X416935000Y-308065000D01*
G75*
G02*
X416685000Y-307815000I0J250000D01*
G01*
X416685000Y-307065000D01*
G75*
G02*
X416935000Y-306815000I250000J0D01*
G01*
G37*
%TD*%
%TO.C,R19*%
G36*
G01*
X434207000Y-306815000D02*
X435457000Y-306815000D01*
G75*
G02*
X435707000Y-307065000I0J-250000D01*
G01*
X435707000Y-307815000D01*
G75*
G02*
X435457000Y-308065000I-250000J0D01*
G01*
X434207000Y-308065000D01*
G75*
G02*
X433957000Y-307815000I0J250000D01*
G01*
X433957000Y-307065000D01*
G75*
G02*
X434207000Y-306815000I250000J0D01*
G01*
G37*
G36*
G01*
X434207000Y-304015000D02*
X435457000Y-304015000D01*
G75*
G02*
X435707000Y-304265000I0J-250000D01*
G01*
X435707000Y-305015000D01*
G75*
G02*
X435457000Y-305265000I-250000J0D01*
G01*
X434207000Y-305265000D01*
G75*
G02*
X433957000Y-305015000I0J250000D01*
G01*
X433957000Y-304265000D01*
G75*
G02*
X434207000Y-304015000I250000J0D01*
G01*
G37*
%TD*%
%TO.C,R20*%
G36*
G01*
X449955000Y-306815000D02*
X451205000Y-306815000D01*
G75*
G02*
X451455000Y-307065000I0J-250000D01*
G01*
X451455000Y-307815000D01*
G75*
G02*
X451205000Y-308065000I-250000J0D01*
G01*
X449955000Y-308065000D01*
G75*
G02*
X449705000Y-307815000I0J250000D01*
G01*
X449705000Y-307065000D01*
G75*
G02*
X449955000Y-306815000I250000J0D01*
G01*
G37*
G36*
G01*
X449955000Y-304015000D02*
X451205000Y-304015000D01*
G75*
G02*
X451455000Y-304265000I0J-250000D01*
G01*
X451455000Y-305015000D01*
G75*
G02*
X451205000Y-305265000I-250000J0D01*
G01*
X449955000Y-305265000D01*
G75*
G02*
X449705000Y-305015000I0J250000D01*
G01*
X449705000Y-304265000D01*
G75*
G02*
X449955000Y-304015000I250000J0D01*
G01*
G37*
%TD*%
D14*
%TO.C,J1*%
X318140000Y-362708000D03*
D15*
X310640000Y-362708000D03*
X303140000Y-362708000D03*
X295640000Y-362708000D03*
%TD*%
%TO.C,J2*%
X328640000Y-362708000D03*
X336140000Y-362708000D03*
X343640000Y-362708000D03*
D14*
X351140000Y-362708000D03*
%TD*%
%TO.C,J3*%
X384140000Y-362708000D03*
D15*
X376640000Y-362708000D03*
X369140000Y-362708000D03*
X361640000Y-362708000D03*
%TD*%
%TO.C,J4*%
X394640000Y-362708000D03*
X402140000Y-362708000D03*
X409640000Y-362708000D03*
D14*
X417140000Y-362708000D03*
%TD*%
%TO.C,J5*%
X450140000Y-362708000D03*
D15*
X442640000Y-362708000D03*
X435140000Y-362708000D03*
X427640000Y-362708000D03*
%TD*%
D14*
%TO.C,J10*%
X394140000Y-266708000D03*
D15*
X401640000Y-266708000D03*
X409140000Y-266708000D03*
X416640000Y-266708000D03*
%TD*%
%TO.C,J11*%
X449640000Y-266708000D03*
X442140000Y-266708000D03*
X434640000Y-266708000D03*
D14*
X427140000Y-266708000D03*
%TD*%
%TO.C,J9*%
X361140000Y-266708000D03*
D15*
X368640000Y-266708000D03*
X376140000Y-266708000D03*
X383640000Y-266708000D03*
%TD*%
%TO.C,J8*%
X350640000Y-266708000D03*
X343140000Y-266708000D03*
X335640000Y-266708000D03*
D14*
X328140000Y-266708000D03*
%TD*%
D15*
%TO.C,J7*%
X317640000Y-266708000D03*
X310140000Y-266708000D03*
X302640000Y-266708000D03*
D14*
X295140000Y-266708000D03*
%TD*%
D16*
%TO.C,H1*%
X323140000Y-314708000D03*
%TD*%
%TO.C,H2*%
X422140000Y-314708000D03*
%TD*%
M02*
