M48
; DRILL file {KiCad (5.1.6)-1} date 10/14/21 08:46:47
; FORMAT={-:-/ absolute / inch / decimal}
; #@! TF.CreationDate,2021-10-14T08:46:47+02:00
; #@! TF.GenerationSoftware,Kicad,Pcbnew,(5.1.6)-1
; #@! TF.FileFunction,Plated,1,2,PTH
FMAT,2
INCH
T1C0.0157
T2C0.0394
T3C0.0512
T4C0.0551
%
G90
G05
T1
X11.415Y-11.7247
X11.415Y-11.768
X11.4209Y-13.0377
X11.4209Y-13.081
X11.4642Y-11.7247
X11.4642Y-11.768
X11.4701Y-13.0377
X11.4701Y-13.081
X11.5154Y-11.7247
X11.5154Y-11.768
X11.5213Y-13.0377
X11.5213Y-13.081
X11.5685Y-11.7247
X11.5685Y-11.768
X11.5744Y-13.0377
X11.5744Y-13.081
X11.6177Y-11.7247
X11.6177Y-11.768
X11.6236Y-13.0377
X11.6236Y-13.081
X11.6669Y-11.7247
X11.6669Y-11.768
X11.6728Y-13.0377
X11.6728Y-13.081
X12.3191Y-12.1991
X13.1691Y-12.5591
X13.9791Y-12.4291
X16.2191Y-12.1991
X16.8591Y-12.2741
X16.9691Y-12.4641
X17.0241Y-12.4241
X17.4541Y-12.4441
X17.4741Y-12.3891
X17.6191Y-12.3891
X17.7241Y-12.3891
X17.8815Y-12.8231
X17.8815Y-12.8724
X17.8815Y-12.9235
X17.8815Y-12.9767
X17.8815Y-13.0259
X17.8815Y-13.0751
X17.8835Y-11.7129
X17.8835Y-11.7621
X17.8835Y-11.8133
X17.8835Y-11.8665
X17.8835Y-11.9157
X17.8835Y-11.9649
X17.9248Y-12.8231
X17.9248Y-12.8724
X17.9248Y-12.9235
X17.9248Y-12.9767
X17.9248Y-13.0259
X17.9248Y-13.0751
X17.9268Y-11.7129
X17.9268Y-11.7621
X17.9268Y-11.8133
X17.9268Y-11.8665
X17.9268Y-11.9157
X17.9268Y-11.9649
T2
X14.1394Y-12.3294
X14.1394Y-12.4294
X14.2394Y-12.3294
X14.2394Y-12.4294
X14.3394Y-12.3294
X14.3394Y-12.4294
X14.4394Y-12.3294
X14.4394Y-12.4294
X14.5394Y-12.3294
X14.5394Y-12.4294
X14.6394Y-12.3294
X14.6394Y-12.4294
X14.7394Y-12.3294
X14.7394Y-12.4294
X14.8394Y-12.3294
X14.8394Y-12.4294
X14.9394Y-12.3294
X14.9394Y-12.4294
X15.0394Y-12.3294
X15.0394Y-12.4294
X15.1394Y-12.3294
X15.1394Y-12.4294
X15.2394Y-12.3294
X15.2394Y-12.4294
X15.3394Y-12.3294
X15.3394Y-12.4294
X11.6391Y-12.2791
X11.6391Y-12.3791
X11.6391Y-12.4791
T3
X15.5183Y-12.7759
X15.5183Y-13.3743
X15.5183Y-13.5712
X15.5183Y-13.768
X15.8136Y-12.7759
X15.8136Y-13.3743
X15.8136Y-13.5712
X15.8136Y-13.768
X13.5281Y-11.0111
X13.5281Y-11.208
X13.5281Y-11.4048
X13.5281Y-12.0033
X13.8234Y-11.0111
X13.8234Y-11.208
X13.8234Y-11.4048
X13.8234Y-12.0033
X12.2289Y-11.0111
X12.2289Y-11.208
X12.2289Y-11.4048
X12.2289Y-12.0033
X12.5242Y-11.0111
X12.5242Y-11.208
X12.5242Y-11.4048
X12.5242Y-12.0033
X17.4258Y-11.0111
X17.4258Y-11.208
X17.4258Y-11.4048
X17.4258Y-12.0033
X17.7211Y-11.0111
X17.7211Y-11.208
X17.7211Y-11.4048
X17.7211Y-12.0033
X14.2191Y-12.7759
X14.2191Y-13.3743
X14.2191Y-13.5712
X14.2191Y-13.768
X14.5144Y-12.7759
X14.5144Y-13.3743
X14.5144Y-13.5712
X14.5144Y-13.768
X17.4474Y-12.7759
X17.4474Y-13.3743
X17.4474Y-13.5712
X17.4474Y-13.768
X17.7427Y-12.7759
X17.7427Y-13.3743
X17.7427Y-13.5712
X17.7427Y-13.768
X15.4967Y-11.0111
X15.4967Y-11.208
X15.4967Y-11.4048
X15.4967Y-12.0033
X15.7919Y-11.0111
X15.7919Y-11.208
X15.7919Y-11.4048
X15.7919Y-12.0033
X12.9199Y-12.7759
X12.9199Y-13.3743
X12.9199Y-13.5712
X12.9199Y-13.768
X13.2152Y-12.7759
X13.2152Y-13.3743
X13.2152Y-13.5712
X13.2152Y-13.768
X16.1482Y-12.7759
X16.1482Y-13.3743
X16.1482Y-13.5712
X16.1482Y-13.768
X16.4435Y-12.7759
X16.4435Y-13.3743
X16.4435Y-13.5712
X16.4435Y-13.768
X14.1974Y-11.0111
X14.1974Y-11.208
X14.1974Y-11.4048
X14.1974Y-12.0033
X14.4927Y-11.0111
X14.4927Y-11.208
X14.4927Y-11.4048
X14.4927Y-12.0033
X12.8982Y-11.0111
X12.8982Y-11.208
X12.8982Y-11.4048
X12.8982Y-12.0033
X13.1935Y-11.0111
X13.1935Y-11.208
X13.1935Y-11.4048
X13.1935Y-12.0033
X14.849Y-12.7759
X14.849Y-13.3743
X14.849Y-13.5712
X14.849Y-13.768
X15.1443Y-12.7759
X15.1443Y-13.3743
X15.1443Y-13.5712
X15.1443Y-13.768
X11.599Y-11.0111
X11.599Y-11.208
X11.599Y-11.4048
X11.599Y-12.0033
X11.8943Y-11.0111
X11.8943Y-11.208
X11.8943Y-11.4048
X11.8943Y-12.0033
X16.7959Y-11.0111
X16.7959Y-11.208
X16.7959Y-11.4048
X16.7959Y-12.0033
X17.0911Y-11.0111
X17.0911Y-11.208
X17.0911Y-11.4048
X17.0911Y-12.0033
X13.5498Y-12.7759
X13.5498Y-13.3743
X13.5498Y-13.5712
X13.5498Y-13.768
X13.8451Y-12.7759
X13.8451Y-13.3743
X13.8451Y-13.5712
X13.8451Y-13.768
X11.6207Y-12.7759
X11.6207Y-13.3743
X11.6207Y-13.5712
X11.6207Y-13.768
X11.9159Y-12.7759
X11.9159Y-13.3743
X11.9159Y-13.5712
X11.9159Y-13.768
X16.8175Y-12.7759
X16.8175Y-13.3743
X16.8175Y-13.5712
X16.8175Y-13.768
X17.1128Y-12.7759
X17.1128Y-13.3743
X17.1128Y-13.5712
X17.1128Y-13.768
X14.8274Y-11.0111
X14.8274Y-11.208
X14.8274Y-11.4048
X14.8274Y-12.0033
X15.1226Y-11.0111
X15.1226Y-11.208
X15.1226Y-11.4048
X15.1226Y-12.0033
X12.2506Y-12.7759
X12.2506Y-13.3743
X12.2506Y-13.5712
X12.2506Y-13.768
X12.5459Y-12.7759
X12.5459Y-13.3743
X12.5459Y-13.5712
X12.5459Y-13.768
X16.1266Y-11.0111
X16.1266Y-11.208
X16.1266Y-11.4048
X16.1266Y-12.0033
X16.4219Y-11.0111
X16.4219Y-11.208
X16.4219Y-11.4048
X16.4219Y-12.0033
T4
X14.2201Y-10.7779
X14.5154Y-10.7779
X14.8106Y-10.7779
X15.1059Y-10.7779
X16.8382Y-14.0033
X17.1335Y-14.0033
X17.4287Y-14.0033
X17.724Y-14.0033
X14.2398Y-14.0033
X14.535Y-14.0033
X14.8303Y-14.0033
X15.1256Y-14.0033
X16.8185Y-10.7789
X17.1138Y-10.7789
X17.4091Y-10.7789
X17.7043Y-10.7789
X12.9209Y-10.7779
X13.2161Y-10.7779
X13.5114Y-10.7779
X13.8067Y-10.7779
X11.6226Y-10.7779
X11.9179Y-10.7779
X12.2132Y-10.7779
X12.5085Y-10.7779
X15.539Y-14.0033
X15.8343Y-14.0033
X16.1295Y-14.0033
X16.4248Y-14.0033
X11.6413Y-14.0033
X11.9366Y-14.0033
X12.2319Y-14.0033
X12.5272Y-14.0033
X12.9406Y-14.0033
X13.2358Y-14.0033
X13.5311Y-14.0033
X13.8264Y-14.0033
X15.5193Y-10.7779
X15.8146Y-10.7779
X16.1098Y-10.7779
X16.4051Y-10.7779
T0
M30
