%TF.GenerationSoftware,KiCad,Pcbnew,(5.1.6)-1*%
%TF.CreationDate,2021-10-14T08:46:51+02:00*%
%TF.ProjectId,boneIO - relay board,626f6e65-494f-4202-9d20-72656c617920,rev?*%
%TF.SameCoordinates,Original*%
%TF.FileFunction,Copper,L2,Bot*%
%TF.FilePolarity,Positive*%
%FSLAX46Y46*%
G04 Gerber Fmt 4.6, Leading zero omitted, Abs format (unit mm)*
G04 Created by KiCad (PCBNEW (5.1.6)-1) date 2021-10-14 08:46:51*
%MOMM*%
%LPD*%
G01*
G04 APERTURE LIST*
%TA.AperFunction,ComponentPad*%
%ADD10O,1.700000X1.700000*%
%TD*%
%TA.AperFunction,ComponentPad*%
%ADD11R,1.700000X1.700000*%
%TD*%
%TA.AperFunction,ComponentPad*%
%ADD12C,1.950000*%
%TD*%
%TA.AperFunction,ComponentPad*%
%ADD13O,2.000000X3.600000*%
%TD*%
%TA.AperFunction,ViaPad*%
%ADD14C,0.800000*%
%TD*%
%TA.AperFunction,Conductor*%
%ADD15C,0.700000*%
%TD*%
%TA.AperFunction,Conductor*%
%ADD16C,2.000000*%
%TD*%
%TA.AperFunction,Conductor*%
%ADD17C,0.300000*%
%TD*%
%TA.AperFunction,Conductor*%
%ADD18C,0.250000*%
%TD*%
%TA.AperFunction,Conductor*%
%ADD19C,0.254000*%
%TD*%
G04 APERTURE END LIST*
D10*
%TO.P,J7,3*%
%TO.N,+5V*%
X295633000Y-311889000D03*
%TO.P,J7,2*%
%TO.N,VCC*%
X295633000Y-314429000D03*
D11*
%TO.P,J7,1*%
%TO.N,+24V*%
X295633000Y-316969000D03*
%TD*%
D12*
%TO.P,K1,A2*%
%TO.N,VCC*%
X302665000Y-324508000D03*
%TO.P,K1,A1*%
%TO.N,RELAY1*%
X295165000Y-324508000D03*
%TO.P,K1,24*%
%TO.N,Net-(J1-Pad2)*%
X302665000Y-349708000D03*
%TO.P,K1,22*%
%TO.N,Net-(K1-Pad22)*%
X302665000Y-339708000D03*
%TO.P,K1,21*%
%TO.N,Net-(K1-Pad21)*%
X302665000Y-344708000D03*
%TO.P,K1,14*%
%TO.N,Net-(K1-Pad14)*%
X295165000Y-349708000D03*
%TO.P,K1,12*%
%TO.N,Net-(K1-Pad12)*%
X295165000Y-339708000D03*
%TO.P,K1,11*%
%TO.N,Net-(J1-Pad1)*%
X295165000Y-344708000D03*
%TD*%
D10*
%TO.P,J12,26*%
%TO.N,+24V*%
X389620000Y-313168000D03*
%TO.P,J12,25*%
%TO.N,+3V3*%
X389620000Y-315708000D03*
%TO.P,J12,24*%
%TO.N,SDA*%
X387080000Y-313168000D03*
%TO.P,J12,23*%
%TO.N,SCL*%
X387080000Y-315708000D03*
%TO.P,J12,22*%
%TO.N,K20*%
X384540000Y-313168000D03*
%TO.P,J12,21*%
%TO.N,K10*%
X384540000Y-315708000D03*
%TO.P,J12,20*%
%TO.N,K19*%
X382000000Y-313168000D03*
%TO.P,J12,19*%
%TO.N,K9*%
X382000000Y-315708000D03*
%TO.P,J12,18*%
%TO.N,K18*%
X379460000Y-313168000D03*
%TO.P,J12,17*%
%TO.N,K8*%
X379460000Y-315708000D03*
%TO.P,J12,16*%
%TO.N,K17*%
X376920000Y-313168000D03*
%TO.P,J12,15*%
%TO.N,K7*%
X376920000Y-315708000D03*
%TO.P,J12,14*%
%TO.N,K16*%
X374380000Y-313168000D03*
%TO.P,J12,13*%
%TO.N,K6*%
X374380000Y-315708000D03*
%TO.P,J12,12*%
%TO.N,K15*%
X371840000Y-313168000D03*
%TO.P,J12,11*%
%TO.N,K5*%
X371840000Y-315708000D03*
%TO.P,J12,10*%
%TO.N,K14*%
X369300000Y-313168000D03*
%TO.P,J12,9*%
%TO.N,K4*%
X369300000Y-315708000D03*
%TO.P,J12,8*%
%TO.N,K13*%
X366760000Y-313168000D03*
%TO.P,J12,7*%
%TO.N,K3*%
X366760000Y-315708000D03*
%TO.P,J12,6*%
%TO.N,K12*%
X364220000Y-313168000D03*
%TO.P,J12,5*%
%TO.N,K2*%
X364220000Y-315708000D03*
%TO.P,J12,4*%
%TO.N,K11*%
X361680000Y-313168000D03*
%TO.P,J12,3*%
%TO.N,K1*%
X361680000Y-315708000D03*
%TO.P,J12,2*%
%TO.N,GND*%
X359140000Y-313168000D03*
D11*
%TO.P,J12,1*%
%TO.N,+5V*%
X359140000Y-315708000D03*
%TD*%
D12*
%TO.P,K2,A2*%
%TO.N,VCC*%
X318665000Y-324508000D03*
%TO.P,K2,A1*%
%TO.N,RELAY2*%
X311165000Y-324508000D03*
%TO.P,K2,24*%
%TO.N,Net-(J1-Pad4)*%
X318665000Y-349708000D03*
%TO.P,K2,22*%
%TO.N,Net-(K2-Pad22)*%
X318665000Y-339708000D03*
%TO.P,K2,21*%
%TO.N,Net-(K2-Pad21)*%
X318665000Y-344708000D03*
%TO.P,K2,14*%
%TO.N,Net-(K2-Pad14)*%
X311165000Y-349708000D03*
%TO.P,K2,12*%
%TO.N,Net-(K2-Pad12)*%
X311165000Y-339708000D03*
%TO.P,K2,11*%
%TO.N,Net-(J1-Pad3)*%
X311165000Y-344708000D03*
%TD*%
%TO.P,K18,A2*%
%TO.N,VCC*%
X409615000Y-304883000D03*
%TO.P,K18,A1*%
%TO.N,RELAY18*%
X417115000Y-304883000D03*
%TO.P,K18,24*%
%TO.N,Net-(J10-Pad2)*%
X409615000Y-279683000D03*
%TO.P,K18,22*%
%TO.N,Net-(K18-Pad22)*%
X409615000Y-289683000D03*
%TO.P,K18,21*%
%TO.N,Net-(K18-Pad21)*%
X409615000Y-284683000D03*
%TO.P,K18,14*%
%TO.N,Net-(K18-Pad14)*%
X417115000Y-279683000D03*
%TO.P,K18,12*%
%TO.N,Net-(K18-Pad12)*%
X417115000Y-289683000D03*
%TO.P,K18,11*%
%TO.N,Net-(J10-Pad1)*%
X417115000Y-284683000D03*
%TD*%
%TO.P,K20,A2*%
%TO.N,VCC*%
X442615000Y-304883000D03*
%TO.P,K20,A1*%
%TO.N,RELAY20*%
X450115000Y-304883000D03*
%TO.P,K20,24*%
%TO.N,Net-(J11-Pad2)*%
X442615000Y-279683000D03*
%TO.P,K20,22*%
%TO.N,Net-(K20-Pad22)*%
X442615000Y-289683000D03*
%TO.P,K20,21*%
%TO.N,Net-(K20-Pad21)*%
X442615000Y-284683000D03*
%TO.P,K20,14*%
%TO.N,Net-(K20-Pad14)*%
X450115000Y-279683000D03*
%TO.P,K20,12*%
%TO.N,Net-(K20-Pad12)*%
X450115000Y-289683000D03*
%TO.P,K20,11*%
%TO.N,Net-(J11-Pad1)*%
X450115000Y-284683000D03*
%TD*%
%TO.P,K19,A2*%
%TO.N,VCC*%
X426615000Y-304883000D03*
%TO.P,K19,A1*%
%TO.N,RELAY19*%
X434115000Y-304883000D03*
%TO.P,K19,24*%
%TO.N,Net-(J11-Pad4)*%
X426615000Y-279683000D03*
%TO.P,K19,22*%
%TO.N,Net-(K19-Pad22)*%
X426615000Y-289683000D03*
%TO.P,K19,21*%
%TO.N,Net-(K19-Pad21)*%
X426615000Y-284683000D03*
%TO.P,K19,14*%
%TO.N,Net-(K19-Pad14)*%
X434115000Y-279683000D03*
%TO.P,K19,12*%
%TO.N,Net-(K19-Pad12)*%
X434115000Y-289683000D03*
%TO.P,K19,11*%
%TO.N,Net-(J11-Pad3)*%
X434115000Y-284683000D03*
%TD*%
%TO.P,K17,A2*%
%TO.N,VCC*%
X393615000Y-304883000D03*
%TO.P,K17,A1*%
%TO.N,RELAY17*%
X401115000Y-304883000D03*
%TO.P,K17,24*%
%TO.N,Net-(J10-Pad4)*%
X393615000Y-279683000D03*
%TO.P,K17,22*%
%TO.N,Net-(K17-Pad22)*%
X393615000Y-289683000D03*
%TO.P,K17,21*%
%TO.N,Net-(K17-Pad21)*%
X393615000Y-284683000D03*
%TO.P,K17,14*%
%TO.N,Net-(K17-Pad14)*%
X401115000Y-279683000D03*
%TO.P,K17,12*%
%TO.N,Net-(K17-Pad12)*%
X401115000Y-289683000D03*
%TO.P,K17,11*%
%TO.N,Net-(J10-Pad3)*%
X401115000Y-284683000D03*
%TD*%
%TO.P,K16,A2*%
%TO.N,VCC*%
X376615000Y-304883000D03*
%TO.P,K16,A1*%
%TO.N,RELAY16*%
X384115000Y-304883000D03*
%TO.P,K16,24*%
%TO.N,Net-(J8-Pad2)*%
X376615000Y-279683000D03*
%TO.P,K16,22*%
%TO.N,Net-(K16-Pad22)*%
X376615000Y-289683000D03*
%TO.P,K16,21*%
%TO.N,Net-(K16-Pad21)*%
X376615000Y-284683000D03*
%TO.P,K16,14*%
%TO.N,Net-(K16-Pad14)*%
X384115000Y-279683000D03*
%TO.P,K16,12*%
%TO.N,Net-(K16-Pad12)*%
X384115000Y-289683000D03*
%TO.P,K16,11*%
%TO.N,Net-(J8-Pad1)*%
X384115000Y-284683000D03*
%TD*%
%TO.P,K15,A2*%
%TO.N,VCC*%
X360615000Y-304883000D03*
%TO.P,K15,A1*%
%TO.N,RELAY15*%
X368115000Y-304883000D03*
%TO.P,K15,24*%
%TO.N,Net-(J8-Pad4)*%
X360615000Y-279683000D03*
%TO.P,K15,22*%
%TO.N,Net-(K15-Pad22)*%
X360615000Y-289683000D03*
%TO.P,K15,21*%
%TO.N,Net-(K15-Pad21)*%
X360615000Y-284683000D03*
%TO.P,K15,14*%
%TO.N,Net-(K15-Pad14)*%
X368115000Y-279683000D03*
%TO.P,K15,12*%
%TO.N,Net-(K15-Pad12)*%
X368115000Y-289683000D03*
%TO.P,K15,11*%
%TO.N,Net-(J8-Pad3)*%
X368115000Y-284683000D03*
%TD*%
%TO.P,K14,A2*%
%TO.N,VCC*%
X343615000Y-304883000D03*
%TO.P,K14,A1*%
%TO.N,RELAY14*%
X351115000Y-304883000D03*
%TO.P,K14,24*%
%TO.N,Net-(J9-Pad2)*%
X343615000Y-279683000D03*
%TO.P,K14,22*%
%TO.N,Net-(K14-Pad22)*%
X343615000Y-289683000D03*
%TO.P,K14,21*%
%TO.N,Net-(K14-Pad21)*%
X343615000Y-284683000D03*
%TO.P,K14,14*%
%TO.N,Net-(K14-Pad14)*%
X351115000Y-279683000D03*
%TO.P,K14,12*%
%TO.N,Net-(K14-Pad12)*%
X351115000Y-289683000D03*
%TO.P,K14,11*%
%TO.N,Net-(J9-Pad1)*%
X351115000Y-284683000D03*
%TD*%
%TO.P,K13,A2*%
%TO.N,VCC*%
X327615000Y-304883000D03*
%TO.P,K13,A1*%
%TO.N,RELAY13*%
X335115000Y-304883000D03*
%TO.P,K13,24*%
%TO.N,Net-(J9-Pad4)*%
X327615000Y-279683000D03*
%TO.P,K13,22*%
%TO.N,Net-(K13-Pad22)*%
X327615000Y-289683000D03*
%TO.P,K13,21*%
%TO.N,Net-(K13-Pad21)*%
X327615000Y-284683000D03*
%TO.P,K13,14*%
%TO.N,Net-(K13-Pad14)*%
X335115000Y-279683000D03*
%TO.P,K13,12*%
%TO.N,Net-(K13-Pad12)*%
X335115000Y-289683000D03*
%TO.P,K13,11*%
%TO.N,Net-(J9-Pad3)*%
X335115000Y-284683000D03*
%TD*%
%TO.P,K12,A2*%
%TO.N,VCC*%
X310615000Y-304883000D03*
%TO.P,K12,A1*%
%TO.N,RELAY12*%
X318115000Y-304883000D03*
%TO.P,K12,24*%
%TO.N,Net-(J6-Pad2)*%
X310615000Y-279683000D03*
%TO.P,K12,22*%
%TO.N,Net-(K12-Pad22)*%
X310615000Y-289683000D03*
%TO.P,K12,21*%
%TO.N,Net-(K12-Pad21)*%
X310615000Y-284683000D03*
%TO.P,K12,14*%
%TO.N,Net-(K12-Pad14)*%
X318115000Y-279683000D03*
%TO.P,K12,12*%
%TO.N,Net-(K12-Pad12)*%
X318115000Y-289683000D03*
%TO.P,K12,11*%
%TO.N,Net-(J6-Pad1)*%
X318115000Y-284683000D03*
%TD*%
%TO.P,K11,A2*%
%TO.N,VCC*%
X294615000Y-304883000D03*
%TO.P,K11,A1*%
%TO.N,RELAY11*%
X302115000Y-304883000D03*
%TO.P,K11,24*%
%TO.N,Net-(J6-Pad4)*%
X294615000Y-279683000D03*
%TO.P,K11,22*%
%TO.N,Net-(K11-Pad22)*%
X294615000Y-289683000D03*
%TO.P,K11,21*%
%TO.N,Net-(K11-Pad21)*%
X294615000Y-284683000D03*
%TO.P,K11,14*%
%TO.N,Net-(K11-Pad14)*%
X302115000Y-279683000D03*
%TO.P,K11,12*%
%TO.N,Net-(K11-Pad12)*%
X302115000Y-289683000D03*
%TO.P,K11,11*%
%TO.N,Net-(J6-Pad3)*%
X302115000Y-284683000D03*
%TD*%
%TO.P,K10,A2*%
%TO.N,VCC*%
X450665000Y-324508000D03*
%TO.P,K10,A1*%
%TO.N,RELAY10*%
X443165000Y-324508000D03*
%TO.P,K10,24*%
%TO.N,Net-(J5-Pad4)*%
X450665000Y-349708000D03*
%TO.P,K10,22*%
%TO.N,Net-(K10-Pad22)*%
X450665000Y-339708000D03*
%TO.P,K10,21*%
%TO.N,Net-(K10-Pad21)*%
X450665000Y-344708000D03*
%TO.P,K10,14*%
%TO.N,Net-(K10-Pad14)*%
X443165000Y-349708000D03*
%TO.P,K10,12*%
%TO.N,Net-(K10-Pad12)*%
X443165000Y-339708000D03*
%TO.P,K10,11*%
%TO.N,Net-(J5-Pad3)*%
X443165000Y-344708000D03*
%TD*%
%TO.P,K9,A2*%
%TO.N,VCC*%
X434665000Y-324508000D03*
%TO.P,K9,A1*%
%TO.N,RELAY9*%
X427165000Y-324508000D03*
%TO.P,K9,24*%
%TO.N,Net-(J5-Pad2)*%
X434665000Y-349708000D03*
%TO.P,K9,22*%
%TO.N,Net-(K9-Pad22)*%
X434665000Y-339708000D03*
%TO.P,K9,21*%
%TO.N,Net-(K9-Pad21)*%
X434665000Y-344708000D03*
%TO.P,K9,14*%
%TO.N,Net-(K9-Pad14)*%
X427165000Y-349708000D03*
%TO.P,K9,12*%
%TO.N,Net-(K9-Pad12)*%
X427165000Y-339708000D03*
%TO.P,K9,11*%
%TO.N,Net-(J5-Pad1)*%
X427165000Y-344708000D03*
%TD*%
%TO.P,K8,A2*%
%TO.N,VCC*%
X417665000Y-324508000D03*
%TO.P,K8,A1*%
%TO.N,RELAY8*%
X410165000Y-324508000D03*
%TO.P,K8,24*%
%TO.N,Net-(J4-Pad4)*%
X417665000Y-349708000D03*
%TO.P,K8,22*%
%TO.N,Net-(K8-Pad22)*%
X417665000Y-339708000D03*
%TO.P,K8,21*%
%TO.N,Net-(K8-Pad21)*%
X417665000Y-344708000D03*
%TO.P,K8,14*%
%TO.N,Net-(K8-Pad14)*%
X410165000Y-349708000D03*
%TO.P,K8,12*%
%TO.N,Net-(K8-Pad12)*%
X410165000Y-339708000D03*
%TO.P,K8,11*%
%TO.N,Net-(J4-Pad3)*%
X410165000Y-344708000D03*
%TD*%
%TO.P,K7,A2*%
%TO.N,VCC*%
X401665000Y-324508000D03*
%TO.P,K7,A1*%
%TO.N,RELAY7*%
X394165000Y-324508000D03*
%TO.P,K7,24*%
%TO.N,Net-(J4-Pad2)*%
X401665000Y-349708000D03*
%TO.P,K7,22*%
%TO.N,Net-(K7-Pad22)*%
X401665000Y-339708000D03*
%TO.P,K7,21*%
%TO.N,Net-(K7-Pad21)*%
X401665000Y-344708000D03*
%TO.P,K7,14*%
%TO.N,Net-(K7-Pad14)*%
X394165000Y-349708000D03*
%TO.P,K7,12*%
%TO.N,Net-(K7-Pad12)*%
X394165000Y-339708000D03*
%TO.P,K7,11*%
%TO.N,Net-(J4-Pad1)*%
X394165000Y-344708000D03*
%TD*%
%TO.P,K6,A2*%
%TO.N,VCC*%
X384665000Y-324508000D03*
%TO.P,K6,A1*%
%TO.N,RELAY6*%
X377165000Y-324508000D03*
%TO.P,K6,24*%
%TO.N,Net-(J3-Pad4)*%
X384665000Y-349708000D03*
%TO.P,K6,22*%
%TO.N,Net-(K6-Pad22)*%
X384665000Y-339708000D03*
%TO.P,K6,21*%
%TO.N,Net-(K6-Pad21)*%
X384665000Y-344708000D03*
%TO.P,K6,14*%
%TO.N,Net-(K6-Pad14)*%
X377165000Y-349708000D03*
%TO.P,K6,12*%
%TO.N,Net-(K6-Pad12)*%
X377165000Y-339708000D03*
%TO.P,K6,11*%
%TO.N,Net-(J3-Pad3)*%
X377165000Y-344708000D03*
%TD*%
%TO.P,K5,A2*%
%TO.N,VCC*%
X368665000Y-324508000D03*
%TO.P,K5,A1*%
%TO.N,RELAY5*%
X361165000Y-324508000D03*
%TO.P,K5,24*%
%TO.N,Net-(J3-Pad2)*%
X368665000Y-349708000D03*
%TO.P,K5,22*%
%TO.N,Net-(K5-Pad22)*%
X368665000Y-339708000D03*
%TO.P,K5,21*%
%TO.N,Net-(K5-Pad21)*%
X368665000Y-344708000D03*
%TO.P,K5,14*%
%TO.N,Net-(K5-Pad14)*%
X361165000Y-349708000D03*
%TO.P,K5,12*%
%TO.N,Net-(K5-Pad12)*%
X361165000Y-339708000D03*
%TO.P,K5,11*%
%TO.N,Net-(J3-Pad1)*%
X361165000Y-344708000D03*
%TD*%
%TO.P,K4,A2*%
%TO.N,VCC*%
X351665000Y-324508000D03*
%TO.P,K4,A1*%
%TO.N,RELAY4*%
X344165000Y-324508000D03*
%TO.P,K4,24*%
%TO.N,Net-(J2-Pad4)*%
X351665000Y-349708000D03*
%TO.P,K4,22*%
%TO.N,Net-(K4-Pad22)*%
X351665000Y-339708000D03*
%TO.P,K4,21*%
%TO.N,Net-(K4-Pad21)*%
X351665000Y-344708000D03*
%TO.P,K4,14*%
%TO.N,Net-(K4-Pad14)*%
X344165000Y-349708000D03*
%TO.P,K4,12*%
%TO.N,Net-(K4-Pad12)*%
X344165000Y-339708000D03*
%TO.P,K4,11*%
%TO.N,Net-(J2-Pad3)*%
X344165000Y-344708000D03*
%TD*%
%TO.P,K3,A2*%
%TO.N,VCC*%
X335665000Y-324508000D03*
%TO.P,K3,A1*%
%TO.N,RELAY3*%
X328165000Y-324508000D03*
%TO.P,K3,24*%
%TO.N,Net-(J2-Pad2)*%
X335665000Y-349708000D03*
%TO.P,K3,22*%
%TO.N,Net-(K3-Pad22)*%
X335665000Y-339708000D03*
%TO.P,K3,21*%
%TO.N,Net-(K3-Pad21)*%
X335665000Y-344708000D03*
%TO.P,K3,14*%
%TO.N,Net-(K3-Pad14)*%
X328165000Y-349708000D03*
%TO.P,K3,12*%
%TO.N,Net-(K3-Pad12)*%
X328165000Y-339708000D03*
%TO.P,K3,11*%
%TO.N,Net-(J2-Pad1)*%
X328165000Y-344708000D03*
%TD*%
D13*
%TO.P,J1,4*%
%TO.N,Net-(J1-Pad4)*%
X318190000Y-355683000D03*
%TO.P,J1,3*%
%TO.N,Net-(J1-Pad3)*%
X310690000Y-355683000D03*
%TO.P,J1,2*%
%TO.N,Net-(J1-Pad2)*%
X303190000Y-355683000D03*
%TO.P,J1,1*%
%TO.N,Net-(J1-Pad1)*%
%TA.AperFunction,ComponentPad*%
G36*
G01*
X294690000Y-357233000D02*
X294690000Y-354133000D01*
G75*
G02*
X294940000Y-353883000I250000J0D01*
G01*
X296440000Y-353883000D01*
G75*
G02*
X296690000Y-354133000I0J-250000D01*
G01*
X296690000Y-357233000D01*
G75*
G02*
X296440000Y-357483000I-250000J0D01*
G01*
X294940000Y-357483000D01*
G75*
G02*
X294690000Y-357233000I0J250000D01*
G01*
G37*
%TD.AperFunction*%
%TD*%
%TO.P,J11,4*%
%TO.N,Net-(J11-Pad4)*%
X427190000Y-273783000D03*
%TO.P,J11,3*%
%TO.N,Net-(J11-Pad3)*%
X434690000Y-273783000D03*
%TO.P,J11,2*%
%TO.N,Net-(J11-Pad2)*%
X442190000Y-273783000D03*
%TO.P,J11,1*%
%TO.N,Net-(J11-Pad1)*%
%TA.AperFunction,ComponentPad*%
G36*
G01*
X450690000Y-272233000D02*
X450690000Y-275333000D01*
G75*
G02*
X450440000Y-275583000I-250000J0D01*
G01*
X448940000Y-275583000D01*
G75*
G02*
X448690000Y-275333000I0J250000D01*
G01*
X448690000Y-272233000D01*
G75*
G02*
X448940000Y-271983000I250000J0D01*
G01*
X450440000Y-271983000D01*
G75*
G02*
X450690000Y-272233000I0J-250000D01*
G01*
G37*
%TD.AperFunction*%
%TD*%
%TO.P,J10,4*%
%TO.N,Net-(J10-Pad4)*%
X394190000Y-273758000D03*
%TO.P,J10,3*%
%TO.N,Net-(J10-Pad3)*%
X401690000Y-273758000D03*
%TO.P,J10,2*%
%TO.N,Net-(J10-Pad2)*%
X409190000Y-273758000D03*
%TO.P,J10,1*%
%TO.N,Net-(J10-Pad1)*%
%TA.AperFunction,ComponentPad*%
G36*
G01*
X417690000Y-272208000D02*
X417690000Y-275308000D01*
G75*
G02*
X417440000Y-275558000I-250000J0D01*
G01*
X415940000Y-275558000D01*
G75*
G02*
X415690000Y-275308000I0J250000D01*
G01*
X415690000Y-272208000D01*
G75*
G02*
X415940000Y-271958000I250000J0D01*
G01*
X417440000Y-271958000D01*
G75*
G02*
X417690000Y-272208000I0J-250000D01*
G01*
G37*
%TD.AperFunction*%
%TD*%
%TO.P,J9,4*%
%TO.N,Net-(J9-Pad4)*%
X328190000Y-273758000D03*
%TO.P,J9,3*%
%TO.N,Net-(J9-Pad3)*%
X335690000Y-273758000D03*
%TO.P,J9,2*%
%TO.N,Net-(J9-Pad2)*%
X343190000Y-273758000D03*
%TO.P,J9,1*%
%TO.N,Net-(J9-Pad1)*%
%TA.AperFunction,ComponentPad*%
G36*
G01*
X351690000Y-272208000D02*
X351690000Y-275308000D01*
G75*
G02*
X351440000Y-275558000I-250000J0D01*
G01*
X349940000Y-275558000D01*
G75*
G02*
X349690000Y-275308000I0J250000D01*
G01*
X349690000Y-272208000D01*
G75*
G02*
X349940000Y-271958000I250000J0D01*
G01*
X351440000Y-271958000D01*
G75*
G02*
X351690000Y-272208000I0J-250000D01*
G01*
G37*
%TD.AperFunction*%
%TD*%
%TO.P,J8,4*%
%TO.N,Net-(J8-Pad4)*%
X361190000Y-273758000D03*
%TO.P,J8,3*%
%TO.N,Net-(J8-Pad3)*%
X368690000Y-273758000D03*
%TO.P,J8,2*%
%TO.N,Net-(J8-Pad2)*%
X376190000Y-273758000D03*
%TO.P,J8,1*%
%TO.N,Net-(J8-Pad1)*%
%TA.AperFunction,ComponentPad*%
G36*
G01*
X384690000Y-272208000D02*
X384690000Y-275308000D01*
G75*
G02*
X384440000Y-275558000I-250000J0D01*
G01*
X382940000Y-275558000D01*
G75*
G02*
X382690000Y-275308000I0J250000D01*
G01*
X382690000Y-272208000D01*
G75*
G02*
X382940000Y-271958000I250000J0D01*
G01*
X384440000Y-271958000D01*
G75*
G02*
X384690000Y-272208000I0J-250000D01*
G01*
G37*
%TD.AperFunction*%
%TD*%
%TO.P,J6,4*%
%TO.N,Net-(J6-Pad4)*%
X295215000Y-273758000D03*
%TO.P,J6,3*%
%TO.N,Net-(J6-Pad3)*%
X302715000Y-273758000D03*
%TO.P,J6,2*%
%TO.N,Net-(J6-Pad2)*%
X310215000Y-273758000D03*
%TO.P,J6,1*%
%TO.N,Net-(J6-Pad1)*%
%TA.AperFunction,ComponentPad*%
G36*
G01*
X318715000Y-272208000D02*
X318715000Y-275308000D01*
G75*
G02*
X318465000Y-275558000I-250000J0D01*
G01*
X316965000Y-275558000D01*
G75*
G02*
X316715000Y-275308000I0J250000D01*
G01*
X316715000Y-272208000D01*
G75*
G02*
X316965000Y-271958000I250000J0D01*
G01*
X318465000Y-271958000D01*
G75*
G02*
X318715000Y-272208000I0J-250000D01*
G01*
G37*
%TD.AperFunction*%
%TD*%
%TO.P,J5,4*%
%TO.N,Net-(J5-Pad4)*%
X450190000Y-355683000D03*
%TO.P,J5,3*%
%TO.N,Net-(J5-Pad3)*%
X442690000Y-355683000D03*
%TO.P,J5,2*%
%TO.N,Net-(J5-Pad2)*%
X435190000Y-355683000D03*
%TO.P,J5,1*%
%TO.N,Net-(J5-Pad1)*%
%TA.AperFunction,ComponentPad*%
G36*
G01*
X426690000Y-357233000D02*
X426690000Y-354133000D01*
G75*
G02*
X426940000Y-353883000I250000J0D01*
G01*
X428440000Y-353883000D01*
G75*
G02*
X428690000Y-354133000I0J-250000D01*
G01*
X428690000Y-357233000D01*
G75*
G02*
X428440000Y-357483000I-250000J0D01*
G01*
X426940000Y-357483000D01*
G75*
G02*
X426690000Y-357233000I0J250000D01*
G01*
G37*
%TD.AperFunction*%
%TD*%
%TO.P,J4,4*%
%TO.N,Net-(J4-Pad4)*%
X417190000Y-355683000D03*
%TO.P,J4,3*%
%TO.N,Net-(J4-Pad3)*%
X409690000Y-355683000D03*
%TO.P,J4,2*%
%TO.N,Net-(J4-Pad2)*%
X402190000Y-355683000D03*
%TO.P,J4,1*%
%TO.N,Net-(J4-Pad1)*%
%TA.AperFunction,ComponentPad*%
G36*
G01*
X393690000Y-357233000D02*
X393690000Y-354133000D01*
G75*
G02*
X393940000Y-353883000I250000J0D01*
G01*
X395440000Y-353883000D01*
G75*
G02*
X395690000Y-354133000I0J-250000D01*
G01*
X395690000Y-357233000D01*
G75*
G02*
X395440000Y-357483000I-250000J0D01*
G01*
X393940000Y-357483000D01*
G75*
G02*
X393690000Y-357233000I0J250000D01*
G01*
G37*
%TD.AperFunction*%
%TD*%
%TO.P,J3,4*%
%TO.N,Net-(J3-Pad4)*%
X384190000Y-355683000D03*
%TO.P,J3,3*%
%TO.N,Net-(J3-Pad3)*%
X376690000Y-355683000D03*
%TO.P,J3,2*%
%TO.N,Net-(J3-Pad2)*%
X369190000Y-355683000D03*
%TO.P,J3,1*%
%TO.N,Net-(J3-Pad1)*%
%TA.AperFunction,ComponentPad*%
G36*
G01*
X360690000Y-357233000D02*
X360690000Y-354133000D01*
G75*
G02*
X360940000Y-353883000I250000J0D01*
G01*
X362440000Y-353883000D01*
G75*
G02*
X362690000Y-354133000I0J-250000D01*
G01*
X362690000Y-357233000D01*
G75*
G02*
X362440000Y-357483000I-250000J0D01*
G01*
X360940000Y-357483000D01*
G75*
G02*
X360690000Y-357233000I0J250000D01*
G01*
G37*
%TD.AperFunction*%
%TD*%
%TO.P,J2,4*%
%TO.N,Net-(J2-Pad4)*%
X351190000Y-355683000D03*
%TO.P,J2,3*%
%TO.N,Net-(J2-Pad3)*%
X343690000Y-355683000D03*
%TO.P,J2,2*%
%TO.N,Net-(J2-Pad2)*%
X336190000Y-355683000D03*
%TO.P,J2,1*%
%TO.N,Net-(J2-Pad1)*%
%TA.AperFunction,ComponentPad*%
G36*
G01*
X327690000Y-357233000D02*
X327690000Y-354133000D01*
G75*
G02*
X327940000Y-353883000I250000J0D01*
G01*
X329440000Y-353883000D01*
G75*
G02*
X329690000Y-354133000I0J-250000D01*
G01*
X329690000Y-357233000D01*
G75*
G02*
X329440000Y-357483000I-250000J0D01*
G01*
X327940000Y-357483000D01*
G75*
G02*
X327690000Y-357233000I0J250000D01*
G01*
G37*
%TD.AperFunction*%
%TD*%
D14*
%TO.N,GND*%
X296490000Y-331158000D03*
X293990000Y-331158000D03*
X290090000Y-331158000D03*
X290090000Y-332258000D03*
X296490000Y-332258000D03*
X291340000Y-332258000D03*
X292640000Y-332258000D03*
X295240000Y-332258000D03*
X291340000Y-331158000D03*
X292640000Y-331158000D03*
X295240000Y-331158000D03*
X293990000Y-332258000D03*
X296340000Y-297808000D03*
X293840000Y-297808000D03*
X289940000Y-297808000D03*
X289940000Y-298908000D03*
X296340000Y-298908000D03*
X291190000Y-298908000D03*
X292490000Y-298908000D03*
X295090000Y-298908000D03*
X291190000Y-297808000D03*
X292490000Y-297808000D03*
X295090000Y-297808000D03*
X293840000Y-298908000D03*
X455340000Y-303908000D03*
X455340000Y-301408000D03*
X455340000Y-297508000D03*
X454240000Y-297508000D03*
X454240000Y-303908000D03*
X454240000Y-298758000D03*
X454240000Y-300058000D03*
X454240000Y-302658000D03*
X455340000Y-298758000D03*
X455340000Y-300058000D03*
X455340000Y-302658000D03*
X454240000Y-301408000D03*
X454190000Y-332108000D03*
X454190000Y-329608000D03*
X454190000Y-325708000D03*
X454190000Y-326958000D03*
X454190000Y-328258000D03*
X454190000Y-330858000D03*
%TO.N,+5V*%
X312905000Y-309857000D03*
X334495000Y-319001000D03*
X411965000Y-309857000D03*
X355069000Y-315699000D03*
%TO.N,GND*%
X455290000Y-332108000D03*
X455290000Y-330858000D03*
X455290000Y-329608000D03*
X455290000Y-328258000D03*
X455290000Y-326958000D03*
X455290000Y-325708000D03*
%TO.N,+3V3*%
X428221000Y-311762000D03*
%TO.N,SDA*%
X432412000Y-315572000D03*
%TO.N,SCL*%
X431015000Y-316588000D03*
%TO.N,Net-(R3-Pad2)*%
X447525000Y-314683000D03*
X443842000Y-314683000D03*
%TO.N,Net-(R5-Pad2)*%
X450192000Y-314683000D03*
X443334000Y-316080000D03*
%TD*%
D15*
%TO.N,+5V*%
X310873000Y-311889000D02*
X312905000Y-309857000D01*
X295633000Y-311889000D02*
X310873000Y-311889000D01*
X325351000Y-309857000D02*
X334495000Y-319001000D01*
X334495000Y-319001000D02*
X349100000Y-319001000D01*
X351767000Y-319001000D02*
X355069000Y-315699000D01*
X349100000Y-319001000D02*
X351767000Y-319001000D01*
X355069000Y-315699000D02*
X355069000Y-311635000D01*
X356847000Y-309857000D02*
X358879000Y-309857000D01*
X355069000Y-311635000D02*
X356847000Y-309857000D01*
X358879000Y-309857000D02*
X411965000Y-309857000D01*
X358371000Y-309857000D02*
X358879000Y-309857000D01*
X312905000Y-309857000D02*
X325351000Y-309857000D01*
D16*
%TO.N,Net-(J1-Pad1)*%
X295165000Y-344708000D02*
X297090000Y-344708000D01*
X297090000Y-344708000D02*
X298840000Y-346458000D01*
X298840000Y-346458000D02*
X298840000Y-354558000D01*
X297715000Y-355683000D02*
X295690000Y-355683000D01*
X298840000Y-354558000D02*
X297715000Y-355683000D01*
%TO.N,Net-(J1-Pad2)*%
X303190000Y-355683000D02*
X303190000Y-352908000D01*
X302665000Y-352383000D02*
X302665000Y-349708000D01*
X303190000Y-352908000D02*
X302665000Y-352383000D01*
%TO.N,Net-(J2-Pad1)*%
X328165000Y-344708000D02*
X330690000Y-344708000D01*
X330690000Y-344708000D02*
X332140000Y-346158000D01*
X332140000Y-346158000D02*
X332140000Y-354858000D01*
X331315000Y-355683000D02*
X328690000Y-355683000D01*
X332140000Y-354858000D02*
X331315000Y-355683000D01*
%TO.N,Net-(J2-Pad2)*%
X335665000Y-349708000D02*
X335665000Y-351783000D01*
X336190000Y-352308000D02*
X336190000Y-355683000D01*
X335665000Y-351783000D02*
X336190000Y-352308000D01*
%TO.N,Net-(J3-Pad1)*%
X361165000Y-344708000D02*
X363190000Y-344708000D01*
X363190000Y-344708000D02*
X364490000Y-346008000D01*
X364490000Y-346008000D02*
X364490000Y-354608000D01*
X363415000Y-355683000D02*
X361690000Y-355683000D01*
X364490000Y-354608000D02*
X363415000Y-355683000D01*
%TO.N,Net-(J3-Pad2)*%
X368665000Y-349708000D02*
X368665000Y-352333000D01*
X369190000Y-352858000D02*
X369190000Y-355683000D01*
X368665000Y-352333000D02*
X369190000Y-352858000D01*
%TO.N,Net-(J4-Pad2)*%
X401665000Y-349708000D02*
X401665000Y-351433000D01*
X402190000Y-351958000D02*
X402190000Y-354633000D01*
X401665000Y-351433000D02*
X402190000Y-351958000D01*
%TO.N,Net-(J4-Pad1)*%
X398140000Y-353308000D02*
X396815000Y-354633000D01*
X396815000Y-354633000D02*
X394690000Y-354633000D01*
X398140000Y-346758000D02*
X398140000Y-353308000D01*
X394165000Y-344708000D02*
X396090000Y-344708000D01*
X396090000Y-344708000D02*
X398140000Y-346758000D01*
%TO.N,Net-(J5-Pad2)*%
X434665000Y-349708000D02*
X434665000Y-351533000D01*
X435190000Y-352058000D02*
X435190000Y-355683000D01*
X434665000Y-351533000D02*
X435190000Y-352058000D01*
%TO.N,Net-(J5-Pad1)*%
X427165000Y-344708000D02*
X428890000Y-344708000D01*
X428890000Y-344708000D02*
X430840000Y-346658000D01*
X430840000Y-346658000D02*
X430840000Y-354558000D01*
X429715000Y-355683000D02*
X427690000Y-355683000D01*
X430840000Y-354558000D02*
X429715000Y-355683000D01*
%TO.N,Net-(J8-Pad2)*%
X376615000Y-279683000D02*
X376615000Y-277533000D01*
X376190000Y-277108000D02*
X376190000Y-273758000D01*
X376615000Y-277533000D02*
X376190000Y-277108000D01*
%TO.N,Net-(J8-Pad1)*%
X384115000Y-284683000D02*
X382265000Y-284683000D01*
X382265000Y-284683000D02*
X380490000Y-282908000D01*
X380490000Y-282908000D02*
X380490000Y-274958000D01*
X381690000Y-273758000D02*
X383690000Y-273758000D01*
X380490000Y-274958000D02*
X381690000Y-273758000D01*
%TO.N,Net-(J9-Pad2)*%
X343190000Y-274758000D02*
X343190000Y-277150000D01*
X343615000Y-277575000D02*
X343615000Y-279683000D01*
X343190000Y-277150000D02*
X343615000Y-277575000D01*
%TO.N,Net-(J9-Pad1)*%
X350965000Y-284658000D02*
X349040000Y-284658000D01*
X346990000Y-282608000D02*
X346990000Y-276058000D01*
X348315000Y-274733000D02*
X350440000Y-274733000D01*
X346990000Y-276058000D02*
X348315000Y-274733000D01*
X349040000Y-284658000D02*
X346990000Y-282608000D01*
%TO.N,Net-(J10-Pad2)*%
X409615000Y-279683000D02*
X409615000Y-277933000D01*
X409190000Y-277508000D02*
X409190000Y-273758000D01*
X409615000Y-277933000D02*
X409190000Y-277508000D01*
%TO.N,Net-(J10-Pad1)*%
X414740000Y-273758000D02*
X416690000Y-273758000D01*
X413340000Y-275158000D02*
X414740000Y-273758000D01*
X413340000Y-283258000D02*
X413340000Y-275158000D01*
X414765000Y-284683000D02*
X413340000Y-283258000D01*
X417115000Y-284683000D02*
X414765000Y-284683000D01*
%TO.N,Net-(J11-Pad2)*%
X442615000Y-279683000D02*
X442615000Y-277733000D01*
X442190000Y-277308000D02*
X442190000Y-273783000D01*
X442615000Y-277733000D02*
X442190000Y-277308000D01*
%TO.N,Net-(J11-Pad3)*%
X434115000Y-284683000D02*
X432065000Y-284683000D01*
X432065000Y-284683000D02*
X430640000Y-283258000D01*
X430640000Y-283258000D02*
X430640000Y-275508000D01*
X432365000Y-273783000D02*
X434690000Y-273783000D01*
X430640000Y-275508000D02*
X432365000Y-273783000D01*
%TO.N,Net-(J11-Pad4)*%
X426615000Y-279683000D02*
X426615000Y-277983000D01*
X427190000Y-277408000D02*
X427190000Y-273783000D01*
X426615000Y-277983000D02*
X427190000Y-277408000D01*
%TO.N,Net-(J5-Pad3)*%
X443165000Y-344708000D02*
X444840000Y-344708000D01*
X446140001Y-346008001D02*
X446140001Y-354357999D01*
X444840000Y-344708000D02*
X446140001Y-346008001D01*
X444815000Y-355683000D02*
X442690000Y-355683000D01*
X446140001Y-354357999D02*
X444815000Y-355683000D01*
%TO.N,Net-(J5-Pad4)*%
X450665000Y-349708000D02*
X450665000Y-351483000D01*
X450190000Y-351958000D02*
X450190000Y-355683000D01*
X450665000Y-351483000D02*
X450190000Y-351958000D01*
%TO.N,Net-(J11-Pad1)*%
X450115000Y-284683000D02*
X447815000Y-284683000D01*
X447815000Y-284683000D02*
X446290000Y-283158000D01*
X446290000Y-283158000D02*
X446290000Y-274758000D01*
X447265000Y-273783000D02*
X449690000Y-273783000D01*
X446290000Y-274758000D02*
X447265000Y-273783000D01*
%TO.N,Net-(J1-Pad3)*%
X311165000Y-344708000D02*
X313590000Y-344708000D01*
X313590000Y-344708000D02*
X314590000Y-345708000D01*
X314590000Y-345708000D02*
X314590000Y-354658000D01*
X313565000Y-355683000D02*
X310690000Y-355683000D01*
X313565000Y-355683000D02*
X314590000Y-354658000D01*
%TO.N,Net-(J1-Pad4)*%
X318665000Y-349708000D02*
X318665000Y-352383000D01*
X318190000Y-352858000D02*
X318190000Y-355683000D01*
X318665000Y-352383000D02*
X318190000Y-352858000D01*
%TO.N,Net-(J2-Pad4)*%
X351665000Y-349708000D02*
X351665000Y-351283000D01*
X351190000Y-351758000D02*
X351190000Y-355683000D01*
X351665000Y-351283000D02*
X351190000Y-351758000D01*
%TO.N,Net-(J2-Pad3)*%
X344165000Y-344708000D02*
X345590000Y-344708000D01*
X347140001Y-346258001D02*
X347140001Y-354107999D01*
X345590000Y-344708000D02*
X347140001Y-346258001D01*
X345565000Y-355683000D02*
X343690000Y-355683000D01*
X347140001Y-354107999D02*
X345565000Y-355683000D01*
%TO.N,Net-(J3-Pad3)*%
X377165000Y-344708000D02*
X379690000Y-344708000D01*
X379690000Y-344708000D02*
X380440000Y-345458000D01*
X380440000Y-345458000D02*
X380440000Y-354558000D01*
X379315000Y-355683000D02*
X376690000Y-355683000D01*
X380440000Y-354558000D02*
X379315000Y-355683000D01*
%TO.N,Net-(J3-Pad4)*%
X384190010Y-354632990D02*
X384190000Y-354633000D01*
X384665000Y-349708000D02*
X384665000Y-352583000D01*
X384190000Y-353058000D02*
X384190000Y-355683000D01*
X384665000Y-352583000D02*
X384190000Y-353058000D01*
%TO.N,Net-(J4-Pad4)*%
X417665000Y-349708000D02*
X417665000Y-351683000D01*
X417190000Y-352158000D02*
X417190000Y-355683000D01*
X417665000Y-351683000D02*
X417190000Y-352158000D01*
%TO.N,Net-(J4-Pad3)*%
X410165000Y-344708000D02*
X412390000Y-344708000D01*
X413140001Y-345458001D02*
X413140001Y-354557999D01*
X412390000Y-344708000D02*
X413140001Y-345458001D01*
X412015000Y-355683000D02*
X409690000Y-355683000D01*
X413140001Y-354557999D02*
X412015000Y-355683000D01*
%TO.N,Net-(J6-Pad3)*%
X302115000Y-284683000D02*
X299865000Y-284683000D01*
X299865000Y-284683000D02*
X298990000Y-283808000D01*
X298990000Y-283808000D02*
X298990000Y-274958000D01*
X300190000Y-273758000D02*
X302715000Y-273758000D01*
X298990000Y-274958000D02*
X300190000Y-273758000D01*
%TO.N,Net-(J6-Pad4)*%
X294615000Y-279683000D02*
X294615000Y-277633000D01*
X295215000Y-277033000D02*
X295215000Y-273758000D01*
X294615000Y-277633000D02*
X295215000Y-277033000D01*
%TO.N,Net-(J8-Pad3)*%
X368115000Y-284683000D02*
X366165000Y-284683000D01*
X366165000Y-284683000D02*
X364940000Y-283458000D01*
X364940000Y-283458000D02*
X364940000Y-274958000D01*
X366140000Y-273758000D02*
X368690000Y-273758000D01*
X364940000Y-274958000D02*
X366140000Y-273758000D01*
%TO.N,Net-(J8-Pad4)*%
X360615000Y-279683000D02*
X360615000Y-277883000D01*
X361190000Y-277308000D02*
X361190000Y-273758000D01*
X360615000Y-277883000D02*
X361190000Y-277308000D01*
%TO.N,Net-(J9-Pad4)*%
X327615000Y-279683000D02*
X327615000Y-277633000D01*
X328190000Y-277058000D02*
X328190000Y-273758000D01*
X327615000Y-277633000D02*
X328190000Y-277058000D01*
%TO.N,Net-(J9-Pad3)*%
X335665000Y-274733000D02*
X335690000Y-274758000D01*
X333490000Y-273758000D02*
X335690000Y-273758000D01*
X331940000Y-275308000D02*
X333490000Y-273758000D01*
X331940000Y-283608000D02*
X331940000Y-275308000D01*
X333015000Y-284683000D02*
X331940000Y-283608000D01*
X335115000Y-284683000D02*
X333015000Y-284683000D01*
%TO.N,Net-(J10-Pad3)*%
X401115000Y-284683000D02*
X399415000Y-284683000D01*
X399415000Y-284683000D02*
X397840000Y-283108000D01*
X397840000Y-283108000D02*
X397840000Y-274758000D01*
X398840000Y-273758000D02*
X401690000Y-273758000D01*
X397840000Y-274758000D02*
X398840000Y-273758000D01*
%TO.N,Net-(J10-Pad4)*%
X393615000Y-279683000D02*
X393615000Y-277833000D01*
X394190000Y-277258000D02*
X394190000Y-273758000D01*
X393615000Y-277833000D02*
X394190000Y-277258000D01*
%TO.N,Net-(J6-Pad1)*%
X314540000Y-274608000D02*
X315390000Y-273758000D01*
X314540000Y-283058000D02*
X314540000Y-274608000D01*
X316165000Y-284683000D02*
X314540000Y-283058000D01*
X315390000Y-273758000D02*
X317715000Y-273758000D01*
X318115000Y-284683000D02*
X316165000Y-284683000D01*
%TO.N,Net-(J6-Pad2)*%
X310615000Y-279683000D02*
X310615000Y-277483000D01*
X310215000Y-277083000D02*
X310215000Y-273758000D01*
X310615000Y-277483000D02*
X310215000Y-277083000D01*
D17*
%TO.N,+3V3*%
X389620000Y-315708000D02*
X392525000Y-315708000D01*
X392525000Y-315708000D02*
X397614000Y-310619000D01*
X427078000Y-310619000D02*
X428221000Y-311762000D01*
X397614000Y-310619000D02*
X427078000Y-310619000D01*
D18*
%TO.N,SDA*%
X430761000Y-315572000D02*
X432412000Y-315572000D01*
X430126000Y-317477000D02*
X430126000Y-316207000D01*
X429433010Y-318169990D02*
X430126000Y-317477000D01*
X430126000Y-316207000D02*
X430761000Y-315572000D01*
X389543990Y-318169990D02*
X429433010Y-318169990D01*
X388343000Y-316969000D02*
X389543990Y-318169990D01*
X388343000Y-314431000D02*
X388343000Y-316969000D01*
X387080000Y-313168000D02*
X388343000Y-314431000D01*
%TO.N,SCL*%
X431015000Y-317731000D02*
X431015000Y-316588000D01*
X430126000Y-318620000D02*
X431015000Y-317731000D01*
X388470000Y-318620000D02*
X430126000Y-318620000D01*
X387080000Y-317230000D02*
X388470000Y-318620000D01*
X387080000Y-315708000D02*
X387080000Y-317230000D01*
D15*
%TO.N,VCC*%
X442665000Y-305058000D02*
X442665000Y-303133000D01*
X361740000Y-301858000D02*
X344690000Y-301858000D01*
X442665000Y-303133000D02*
X441390000Y-301858000D01*
X377590000Y-301858000D02*
X376665000Y-302783000D01*
X343665000Y-302883000D02*
X343665000Y-305058000D01*
X360665000Y-302933000D02*
X360665000Y-305058000D01*
X295690000Y-301858000D02*
X294665000Y-302883000D01*
X361740000Y-301858000D02*
X360665000Y-302933000D01*
X328990000Y-301858000D02*
X327665000Y-303183000D01*
X344690000Y-301858000D02*
X343665000Y-302883000D01*
X427590000Y-301858000D02*
X426665000Y-302783000D01*
X393665000Y-303033000D02*
X393665000Y-305058000D01*
X377590000Y-301858000D02*
X361740000Y-301858000D01*
X426665000Y-302783000D02*
X426665000Y-305058000D01*
X344690000Y-301858000D02*
X329540000Y-301858000D01*
X394840000Y-301858000D02*
X377590000Y-301858000D01*
X394840000Y-301858000D02*
X393665000Y-303033000D01*
X294665000Y-302883000D02*
X294665000Y-305058000D01*
X327665000Y-303183000D02*
X327665000Y-305058000D01*
X427590000Y-301858000D02*
X411690000Y-301858000D01*
X411690000Y-301858000D02*
X410140000Y-301858000D01*
X409665000Y-303033000D02*
X409665000Y-305058000D01*
X410140000Y-301858000D02*
X394840000Y-301858000D01*
X411690000Y-301858000D02*
X410840000Y-301858000D01*
X410840000Y-301858000D02*
X409665000Y-303033000D01*
X376665000Y-302783000D02*
X376665000Y-305058000D01*
X302665000Y-324508000D02*
X302665000Y-326433000D01*
X302665000Y-326433000D02*
X303940000Y-327708000D01*
X303940000Y-327708000D02*
X317740000Y-327708000D01*
X318665000Y-326783000D02*
X318665000Y-324508000D01*
X317740000Y-327708000D02*
X318665000Y-326783000D01*
X335190000Y-327708000D02*
X350490000Y-327708000D01*
X351665000Y-326533000D02*
X351665000Y-324508000D01*
X350490000Y-327708000D02*
X351665000Y-326533000D01*
X350490000Y-327708000D02*
X367740000Y-327708000D01*
X368665000Y-326783000D02*
X368665000Y-324508000D01*
X367740000Y-327708000D02*
X368665000Y-326783000D01*
X333640000Y-327708000D02*
X334490000Y-327708000D01*
X317740000Y-327708000D02*
X333640000Y-327708000D01*
X333640000Y-327708000D02*
X335190000Y-327708000D01*
X335665000Y-326533000D02*
X335665000Y-324508000D01*
X334490000Y-327708000D02*
X335665000Y-326533000D01*
X384665000Y-326633000D02*
X384665000Y-324508000D01*
X383590000Y-327708000D02*
X384665000Y-326633000D01*
X367740000Y-327708000D02*
X383590000Y-327708000D01*
X383590000Y-327708000D02*
X400640000Y-327708000D01*
X401665000Y-326683000D02*
X401665000Y-324508000D01*
X400640000Y-327708000D02*
X401665000Y-326683000D01*
X417665000Y-326383000D02*
X417665000Y-324508000D01*
X416340000Y-327708000D02*
X417665000Y-326383000D01*
X415790000Y-327708000D02*
X416340000Y-327708000D01*
X400640000Y-327708000D02*
X415790000Y-327708000D01*
X450665000Y-326683000D02*
X450665000Y-324508000D01*
X449640000Y-327708000D02*
X450665000Y-326683000D01*
X310615000Y-304883000D02*
X310615000Y-303333000D01*
X312090000Y-301858000D02*
X312340000Y-301858000D01*
X310615000Y-303333000D02*
X312090000Y-301858000D01*
X329540000Y-301858000D02*
X312340000Y-301858000D01*
X434665000Y-324508000D02*
X434665000Y-326483000D01*
X434665000Y-326483000D02*
X433440000Y-327708000D01*
X415790000Y-327708000D02*
X433440000Y-327708000D01*
X433440000Y-327708000D02*
X449640000Y-327708000D01*
X303940000Y-327708000D02*
X293418000Y-327708000D01*
X293418000Y-327708000D02*
X290172000Y-324462000D01*
X292202000Y-301858000D02*
X296270000Y-301858000D01*
X290172000Y-303888000D02*
X292202000Y-301858000D01*
X296270000Y-301858000D02*
X295690000Y-301858000D01*
X312340000Y-301858000D02*
X296270000Y-301858000D01*
X441390000Y-301858000D02*
X427590000Y-301858000D01*
X291696000Y-314429000D02*
X290172000Y-315953000D01*
X295633000Y-314429000D02*
X291696000Y-314429000D01*
X290172000Y-315953000D02*
X290172000Y-303888000D01*
X290172000Y-324462000D02*
X290172000Y-315953000D01*
%TO.N,+24V*%
X299570000Y-316969000D02*
X295633000Y-316969000D01*
X302552001Y-319951001D02*
X299570000Y-316969000D01*
X352467999Y-319951001D02*
X302552001Y-319951001D01*
X356212000Y-316207000D02*
X352467999Y-319951001D01*
X356212000Y-311889000D02*
X356212000Y-316207000D01*
X357343990Y-310757010D02*
X356212000Y-311889000D01*
X387209010Y-310757010D02*
X357343990Y-310757010D01*
X389620000Y-313168000D02*
X387209010Y-310757010D01*
D18*
%TO.N,Net-(R3-Pad2)*%
X443842000Y-314683000D02*
X447525000Y-314683000D01*
%TO.N,Net-(R5-Pad2)*%
X448795000Y-316080000D02*
X450192000Y-314683000D01*
X443334000Y-316080000D02*
X448795000Y-316080000D01*
%TD*%
D19*
%TO.N,GND*%
G36*
X291377273Y-296915184D02*
G01*
X291417872Y-297049020D01*
X291483800Y-297172363D01*
X291572525Y-297280475D01*
X291680637Y-297369200D01*
X291803980Y-297435128D01*
X291937816Y-297475727D01*
X292077000Y-297489435D01*
X292111877Y-297486000D01*
X320744123Y-297486000D01*
X320779000Y-297489435D01*
X320813877Y-297486000D01*
X320918184Y-297475727D01*
X321052020Y-297435128D01*
X321175363Y-297369200D01*
X321283475Y-297280475D01*
X321372200Y-297172363D01*
X321438128Y-297049020D01*
X321478727Y-296915184D01*
X321486624Y-296835000D01*
X324262376Y-296835000D01*
X324270273Y-296915184D01*
X324310872Y-297049020D01*
X324376800Y-297172363D01*
X324465525Y-297280475D01*
X324573637Y-297369200D01*
X324696980Y-297435128D01*
X324830816Y-297475727D01*
X324970000Y-297489435D01*
X325004877Y-297486000D01*
X353637123Y-297486000D01*
X353672000Y-297489435D01*
X353706877Y-297486000D01*
X353811184Y-297475727D01*
X353945020Y-297435128D01*
X354068363Y-297369200D01*
X354176475Y-297280475D01*
X354265200Y-297172363D01*
X354331128Y-297049020D01*
X354371727Y-296915184D01*
X354379624Y-296835000D01*
X357282376Y-296835000D01*
X357290273Y-296915184D01*
X357330872Y-297049020D01*
X357396800Y-297172363D01*
X357485525Y-297280475D01*
X357593637Y-297369200D01*
X357716980Y-297435128D01*
X357850816Y-297475727D01*
X357990000Y-297489435D01*
X358024877Y-297486000D01*
X386657123Y-297486000D01*
X386692000Y-297489435D01*
X386726877Y-297486000D01*
X386831184Y-297475727D01*
X386965020Y-297435128D01*
X387088363Y-297369200D01*
X387196475Y-297280475D01*
X387285200Y-297172363D01*
X387351128Y-297049020D01*
X387391727Y-296915184D01*
X387399624Y-296835000D01*
X390302376Y-296835000D01*
X390310273Y-296915184D01*
X390350872Y-297049020D01*
X390416800Y-297172363D01*
X390505525Y-297280475D01*
X390613637Y-297369200D01*
X390736980Y-297435128D01*
X390870816Y-297475727D01*
X391010000Y-297489435D01*
X391044877Y-297486000D01*
X419677123Y-297486000D01*
X419712000Y-297489435D01*
X419746877Y-297486000D01*
X419851184Y-297475727D01*
X419985020Y-297435128D01*
X420108363Y-297369200D01*
X420216475Y-297280475D01*
X420305200Y-297172363D01*
X420371128Y-297049020D01*
X420411727Y-296915184D01*
X420419624Y-296835000D01*
X423322376Y-296835000D01*
X423330273Y-296915184D01*
X423370872Y-297049020D01*
X423436800Y-297172363D01*
X423525525Y-297280475D01*
X423633637Y-297369200D01*
X423756980Y-297435128D01*
X423890816Y-297475727D01*
X424030000Y-297489435D01*
X424064877Y-297486000D01*
X452697123Y-297486000D01*
X452732000Y-297489435D01*
X452766877Y-297486000D01*
X452871184Y-297475727D01*
X453005020Y-297435128D01*
X453128363Y-297369200D01*
X453236475Y-297280475D01*
X453325200Y-297172363D01*
X453391128Y-297049020D01*
X453431727Y-296915184D01*
X453439624Y-296835000D01*
X456029480Y-296835000D01*
X456033984Y-332844386D01*
X453941592Y-332850751D01*
X453939727Y-332831816D01*
X453899128Y-332697980D01*
X453833200Y-332574637D01*
X453744475Y-332466525D01*
X453636363Y-332377800D01*
X453513020Y-332311872D01*
X453379184Y-332271273D01*
X453274877Y-332261000D01*
X453240000Y-332257565D01*
X453205123Y-332261000D01*
X424572877Y-332261000D01*
X424538000Y-332257565D01*
X424503123Y-332261000D01*
X424398816Y-332271273D01*
X424264980Y-332311872D01*
X424141637Y-332377800D01*
X424033525Y-332466525D01*
X423944800Y-332574637D01*
X423878872Y-332697980D01*
X423838273Y-332831816D01*
X423827386Y-332942353D01*
X420917418Y-332951205D01*
X420879128Y-332824980D01*
X420813200Y-332701637D01*
X420724475Y-332593525D01*
X420616363Y-332504800D01*
X420493020Y-332438872D01*
X420359184Y-332398273D01*
X420254877Y-332388000D01*
X420220000Y-332384565D01*
X420185123Y-332388000D01*
X391552877Y-332388000D01*
X391518000Y-332384565D01*
X391483123Y-332388000D01*
X391378816Y-332398273D01*
X391244980Y-332438872D01*
X391121637Y-332504800D01*
X391013525Y-332593525D01*
X390924800Y-332701637D01*
X390858872Y-332824980D01*
X390818273Y-332958816D01*
X390810003Y-333042787D01*
X387889369Y-333051671D01*
X387859128Y-332951980D01*
X387793200Y-332828637D01*
X387704475Y-332720525D01*
X387596363Y-332631800D01*
X387473020Y-332565872D01*
X387339184Y-332525273D01*
X387234877Y-332515000D01*
X387200000Y-332511565D01*
X387165123Y-332515000D01*
X358532877Y-332515000D01*
X358498000Y-332511565D01*
X358463123Y-332515000D01*
X358358816Y-332525273D01*
X358224980Y-332565872D01*
X358101637Y-332631800D01*
X357993525Y-332720525D01*
X357904800Y-332828637D01*
X357838872Y-332951980D01*
X357798273Y-333085816D01*
X357792619Y-333143220D01*
X354988203Y-333151751D01*
X354966128Y-333078980D01*
X354900200Y-332955637D01*
X354811475Y-332847525D01*
X354703363Y-332758800D01*
X354580020Y-332692872D01*
X354446184Y-332652273D01*
X354341877Y-332642000D01*
X354307000Y-332638565D01*
X354272123Y-332642000D01*
X325639877Y-332642000D01*
X325605000Y-332638565D01*
X325570123Y-332642000D01*
X325465816Y-332652273D01*
X325331980Y-332692872D01*
X325208637Y-332758800D01*
X325100525Y-332847525D01*
X325011800Y-332955637D01*
X324945872Y-333078980D01*
X324905273Y-333212816D01*
X324902274Y-333243267D01*
X321960154Y-333252217D01*
X321946128Y-333205980D01*
X321880200Y-333082637D01*
X321791475Y-332974525D01*
X321683363Y-332885800D01*
X321560020Y-332819872D01*
X321426184Y-332779273D01*
X321321877Y-332769000D01*
X321287000Y-332765565D01*
X321252123Y-332769000D01*
X292619877Y-332769000D01*
X292585000Y-332765565D01*
X292550123Y-332769000D01*
X292445816Y-332779273D01*
X292311980Y-332819872D01*
X292188637Y-332885800D01*
X292080525Y-332974525D01*
X291991800Y-333082637D01*
X291925872Y-333205980D01*
X291885273Y-333339816D01*
X291884890Y-333343701D01*
X289283464Y-333351614D01*
X289283464Y-324889199D01*
X289349040Y-325011884D01*
X289472130Y-325161870D01*
X289509716Y-325192716D01*
X292687284Y-328370284D01*
X292718130Y-328407870D01*
X292868116Y-328530960D01*
X293039233Y-328622424D01*
X293181691Y-328665638D01*
X293224905Y-328678747D01*
X293417999Y-328697765D01*
X293466379Y-328693000D01*
X303891619Y-328693000D01*
X303939999Y-328697765D01*
X303988379Y-328693000D01*
X317691620Y-328693000D01*
X317740000Y-328697765D01*
X317788380Y-328693000D01*
X334441620Y-328693000D01*
X334490000Y-328697765D01*
X334538380Y-328693000D01*
X350441620Y-328693000D01*
X350490000Y-328697765D01*
X350538380Y-328693000D01*
X367691620Y-328693000D01*
X367740000Y-328697765D01*
X367788380Y-328693000D01*
X383541620Y-328693000D01*
X383590000Y-328697765D01*
X383638380Y-328693000D01*
X400591620Y-328693000D01*
X400640000Y-328697765D01*
X400688380Y-328693000D01*
X416291620Y-328693000D01*
X416340000Y-328697765D01*
X416388380Y-328693000D01*
X433391620Y-328693000D01*
X433440000Y-328697765D01*
X433488380Y-328693000D01*
X449591620Y-328693000D01*
X449640000Y-328697765D01*
X449688380Y-328693000D01*
X449833094Y-328678747D01*
X450018767Y-328622424D01*
X450189884Y-328530960D01*
X450339870Y-328407870D01*
X450370715Y-328370285D01*
X451327290Y-327413711D01*
X451364870Y-327382870D01*
X451487960Y-327232884D01*
X451579424Y-327061767D01*
X451635747Y-326876094D01*
X451650000Y-326731380D01*
X451650000Y-326731379D01*
X451654765Y-326683000D01*
X451650000Y-326634620D01*
X451650000Y-325786175D01*
X451691315Y-325758569D01*
X451915569Y-325534315D01*
X452091763Y-325270621D01*
X452213129Y-324977620D01*
X452275000Y-324666571D01*
X452275000Y-324349429D01*
X452213129Y-324038380D01*
X452091763Y-323745379D01*
X451915569Y-323481685D01*
X451691315Y-323257431D01*
X451427621Y-323081237D01*
X451134620Y-322959871D01*
X450823571Y-322898000D01*
X450506429Y-322898000D01*
X450195380Y-322959871D01*
X449902379Y-323081237D01*
X449638685Y-323257431D01*
X449414431Y-323481685D01*
X449238237Y-323745379D01*
X449116871Y-324038380D01*
X449055000Y-324349429D01*
X449055000Y-324666571D01*
X449116871Y-324977620D01*
X449238237Y-325270621D01*
X449414431Y-325534315D01*
X449638685Y-325758569D01*
X449680000Y-325786175D01*
X449680000Y-326274999D01*
X449232000Y-326723000D01*
X435621518Y-326723000D01*
X435635747Y-326676094D01*
X435650000Y-326531380D01*
X435654765Y-326483000D01*
X435650000Y-326434620D01*
X435650000Y-325786175D01*
X435691315Y-325758569D01*
X435915569Y-325534315D01*
X436091763Y-325270621D01*
X436213129Y-324977620D01*
X436275000Y-324666571D01*
X436275000Y-324349429D01*
X441555000Y-324349429D01*
X441555000Y-324666571D01*
X441616871Y-324977620D01*
X441738237Y-325270621D01*
X441914431Y-325534315D01*
X442138685Y-325758569D01*
X442402379Y-325934763D01*
X442695380Y-326056129D01*
X443006429Y-326118000D01*
X443323571Y-326118000D01*
X443634620Y-326056129D01*
X443927621Y-325934763D01*
X444191315Y-325758569D01*
X444415569Y-325534315D01*
X444591763Y-325270621D01*
X444713129Y-324977620D01*
X444775000Y-324666571D01*
X444775000Y-324349429D01*
X444713129Y-324038380D01*
X444591763Y-323745379D01*
X444415569Y-323481685D01*
X444191315Y-323257431D01*
X443927621Y-323081237D01*
X443634620Y-322959871D01*
X443323571Y-322898000D01*
X443006429Y-322898000D01*
X442695380Y-322959871D01*
X442402379Y-323081237D01*
X442138685Y-323257431D01*
X441914431Y-323481685D01*
X441738237Y-323745379D01*
X441616871Y-324038380D01*
X441555000Y-324349429D01*
X436275000Y-324349429D01*
X436213129Y-324038380D01*
X436091763Y-323745379D01*
X435915569Y-323481685D01*
X435691315Y-323257431D01*
X435427621Y-323081237D01*
X435134620Y-322959871D01*
X434823571Y-322898000D01*
X434506429Y-322898000D01*
X434195380Y-322959871D01*
X433902379Y-323081237D01*
X433638685Y-323257431D01*
X433414431Y-323481685D01*
X433238237Y-323745379D01*
X433116871Y-324038380D01*
X433055000Y-324349429D01*
X433055000Y-324666571D01*
X433116871Y-324977620D01*
X433238237Y-325270621D01*
X433414431Y-325534315D01*
X433638685Y-325758569D01*
X433680001Y-325786175D01*
X433680001Y-326074998D01*
X433032000Y-326723000D01*
X418591184Y-326723000D01*
X418635747Y-326576094D01*
X418650000Y-326431380D01*
X418650000Y-326431379D01*
X418654765Y-326383000D01*
X418650000Y-326334620D01*
X418650000Y-325786175D01*
X418691315Y-325758569D01*
X418915569Y-325534315D01*
X419091763Y-325270621D01*
X419213129Y-324977620D01*
X419275000Y-324666571D01*
X419275000Y-324349429D01*
X425555000Y-324349429D01*
X425555000Y-324666571D01*
X425616871Y-324977620D01*
X425738237Y-325270621D01*
X425914431Y-325534315D01*
X426138685Y-325758569D01*
X426402379Y-325934763D01*
X426695380Y-326056129D01*
X427006429Y-326118000D01*
X427323571Y-326118000D01*
X427634620Y-326056129D01*
X427927621Y-325934763D01*
X428191315Y-325758569D01*
X428415569Y-325534315D01*
X428591763Y-325270621D01*
X428713129Y-324977620D01*
X428775000Y-324666571D01*
X428775000Y-324349429D01*
X428713129Y-324038380D01*
X428591763Y-323745379D01*
X428415569Y-323481685D01*
X428191315Y-323257431D01*
X427927621Y-323081237D01*
X427634620Y-322959871D01*
X427323571Y-322898000D01*
X427006429Y-322898000D01*
X426695380Y-322959871D01*
X426402379Y-323081237D01*
X426138685Y-323257431D01*
X425914431Y-323481685D01*
X425738237Y-323745379D01*
X425616871Y-324038380D01*
X425555000Y-324349429D01*
X419275000Y-324349429D01*
X419213129Y-324038380D01*
X419091763Y-323745379D01*
X418915569Y-323481685D01*
X418691315Y-323257431D01*
X418427621Y-323081237D01*
X418134620Y-322959871D01*
X417823571Y-322898000D01*
X417506429Y-322898000D01*
X417195380Y-322959871D01*
X416902379Y-323081237D01*
X416638685Y-323257431D01*
X416414431Y-323481685D01*
X416238237Y-323745379D01*
X416116871Y-324038380D01*
X416055000Y-324349429D01*
X416055000Y-324666571D01*
X416116871Y-324977620D01*
X416238237Y-325270621D01*
X416414431Y-325534315D01*
X416638685Y-325758569D01*
X416680000Y-325786175D01*
X416680000Y-325974999D01*
X415932000Y-326723000D01*
X402650825Y-326723000D01*
X402654765Y-326683000D01*
X402650000Y-326634620D01*
X402650000Y-325786175D01*
X402691315Y-325758569D01*
X402915569Y-325534315D01*
X403091763Y-325270621D01*
X403213129Y-324977620D01*
X403275000Y-324666571D01*
X403275000Y-324349429D01*
X408555000Y-324349429D01*
X408555000Y-324666571D01*
X408616871Y-324977620D01*
X408738237Y-325270621D01*
X408914431Y-325534315D01*
X409138685Y-325758569D01*
X409402379Y-325934763D01*
X409695380Y-326056129D01*
X410006429Y-326118000D01*
X410323571Y-326118000D01*
X410634620Y-326056129D01*
X410927621Y-325934763D01*
X411191315Y-325758569D01*
X411415569Y-325534315D01*
X411591763Y-325270621D01*
X411713129Y-324977620D01*
X411775000Y-324666571D01*
X411775000Y-324349429D01*
X411713129Y-324038380D01*
X411591763Y-323745379D01*
X411415569Y-323481685D01*
X411191315Y-323257431D01*
X410927621Y-323081237D01*
X410634620Y-322959871D01*
X410323571Y-322898000D01*
X410006429Y-322898000D01*
X409695380Y-322959871D01*
X409402379Y-323081237D01*
X409138685Y-323257431D01*
X408914431Y-323481685D01*
X408738237Y-323745379D01*
X408616871Y-324038380D01*
X408555000Y-324349429D01*
X403275000Y-324349429D01*
X403213129Y-324038380D01*
X403091763Y-323745379D01*
X402915569Y-323481685D01*
X402691315Y-323257431D01*
X402427621Y-323081237D01*
X402134620Y-322959871D01*
X401823571Y-322898000D01*
X401506429Y-322898000D01*
X401195380Y-322959871D01*
X400902379Y-323081237D01*
X400638685Y-323257431D01*
X400414431Y-323481685D01*
X400238237Y-323745379D01*
X400116871Y-324038380D01*
X400055000Y-324349429D01*
X400055000Y-324666571D01*
X400116871Y-324977620D01*
X400238237Y-325270621D01*
X400414431Y-325534315D01*
X400638685Y-325758569D01*
X400680000Y-325786175D01*
X400680000Y-326274999D01*
X400232000Y-326723000D01*
X385645901Y-326723000D01*
X385650000Y-326681380D01*
X385650000Y-326681379D01*
X385654765Y-326633000D01*
X385650000Y-326584620D01*
X385650000Y-325786175D01*
X385691315Y-325758569D01*
X385915569Y-325534315D01*
X386091763Y-325270621D01*
X386213129Y-324977620D01*
X386275000Y-324666571D01*
X386275000Y-324349429D01*
X392555000Y-324349429D01*
X392555000Y-324666571D01*
X392616871Y-324977620D01*
X392738237Y-325270621D01*
X392914431Y-325534315D01*
X393138685Y-325758569D01*
X393402379Y-325934763D01*
X393695380Y-326056129D01*
X394006429Y-326118000D01*
X394323571Y-326118000D01*
X394634620Y-326056129D01*
X394927621Y-325934763D01*
X395191315Y-325758569D01*
X395415569Y-325534315D01*
X395591763Y-325270621D01*
X395713129Y-324977620D01*
X395775000Y-324666571D01*
X395775000Y-324349429D01*
X395713129Y-324038380D01*
X395591763Y-323745379D01*
X395415569Y-323481685D01*
X395191315Y-323257431D01*
X394927621Y-323081237D01*
X394634620Y-322959871D01*
X394323571Y-322898000D01*
X394006429Y-322898000D01*
X393695380Y-322959871D01*
X393402379Y-323081237D01*
X393138685Y-323257431D01*
X392914431Y-323481685D01*
X392738237Y-323745379D01*
X392616871Y-324038380D01*
X392555000Y-324349429D01*
X386275000Y-324349429D01*
X386213129Y-324038380D01*
X386091763Y-323745379D01*
X385915569Y-323481685D01*
X385691315Y-323257431D01*
X385427621Y-323081237D01*
X385134620Y-322959871D01*
X384823571Y-322898000D01*
X384506429Y-322898000D01*
X384195380Y-322959871D01*
X383902379Y-323081237D01*
X383638685Y-323257431D01*
X383414431Y-323481685D01*
X383238237Y-323745379D01*
X383116871Y-324038380D01*
X383055000Y-324349429D01*
X383055000Y-324666571D01*
X383116871Y-324977620D01*
X383238237Y-325270621D01*
X383414431Y-325534315D01*
X383638685Y-325758569D01*
X383680000Y-325786175D01*
X383680000Y-326224999D01*
X383182000Y-326723000D01*
X369650000Y-326723000D01*
X369650000Y-325786175D01*
X369691315Y-325758569D01*
X369915569Y-325534315D01*
X370091763Y-325270621D01*
X370213129Y-324977620D01*
X370275000Y-324666571D01*
X370275000Y-324349429D01*
X375555000Y-324349429D01*
X375555000Y-324666571D01*
X375616871Y-324977620D01*
X375738237Y-325270621D01*
X375914431Y-325534315D01*
X376138685Y-325758569D01*
X376402379Y-325934763D01*
X376695380Y-326056129D01*
X377006429Y-326118000D01*
X377323571Y-326118000D01*
X377634620Y-326056129D01*
X377927621Y-325934763D01*
X378191315Y-325758569D01*
X378415569Y-325534315D01*
X378591763Y-325270621D01*
X378713129Y-324977620D01*
X378775000Y-324666571D01*
X378775000Y-324349429D01*
X378713129Y-324038380D01*
X378591763Y-323745379D01*
X378415569Y-323481685D01*
X378191315Y-323257431D01*
X377927621Y-323081237D01*
X377634620Y-322959871D01*
X377323571Y-322898000D01*
X377006429Y-322898000D01*
X376695380Y-322959871D01*
X376402379Y-323081237D01*
X376138685Y-323257431D01*
X375914431Y-323481685D01*
X375738237Y-323745379D01*
X375616871Y-324038380D01*
X375555000Y-324349429D01*
X370275000Y-324349429D01*
X370213129Y-324038380D01*
X370091763Y-323745379D01*
X369915569Y-323481685D01*
X369691315Y-323257431D01*
X369427621Y-323081237D01*
X369134620Y-322959871D01*
X368823571Y-322898000D01*
X368506429Y-322898000D01*
X368195380Y-322959871D01*
X367902379Y-323081237D01*
X367638685Y-323257431D01*
X367414431Y-323481685D01*
X367238237Y-323745379D01*
X367116871Y-324038380D01*
X367055000Y-324349429D01*
X367055000Y-324666571D01*
X367116871Y-324977620D01*
X367238237Y-325270621D01*
X367414431Y-325534315D01*
X367638685Y-325758569D01*
X367680000Y-325786175D01*
X367680000Y-326374999D01*
X367332000Y-326723000D01*
X352636052Y-326723000D01*
X352650000Y-326581380D01*
X352650000Y-326581379D01*
X352654765Y-326533000D01*
X352650000Y-326484620D01*
X352650000Y-325786175D01*
X352691315Y-325758569D01*
X352915569Y-325534315D01*
X353091763Y-325270621D01*
X353213129Y-324977620D01*
X353275000Y-324666571D01*
X353275000Y-324349429D01*
X359555000Y-324349429D01*
X359555000Y-324666571D01*
X359616871Y-324977620D01*
X359738237Y-325270621D01*
X359914431Y-325534315D01*
X360138685Y-325758569D01*
X360402379Y-325934763D01*
X360695380Y-326056129D01*
X361006429Y-326118000D01*
X361323571Y-326118000D01*
X361634620Y-326056129D01*
X361927621Y-325934763D01*
X362191315Y-325758569D01*
X362415569Y-325534315D01*
X362591763Y-325270621D01*
X362713129Y-324977620D01*
X362775000Y-324666571D01*
X362775000Y-324349429D01*
X362713129Y-324038380D01*
X362591763Y-323745379D01*
X362415569Y-323481685D01*
X362191315Y-323257431D01*
X361927621Y-323081237D01*
X361634620Y-322959871D01*
X361323571Y-322898000D01*
X361006429Y-322898000D01*
X360695380Y-322959871D01*
X360402379Y-323081237D01*
X360138685Y-323257431D01*
X359914431Y-323481685D01*
X359738237Y-323745379D01*
X359616871Y-324038380D01*
X359555000Y-324349429D01*
X353275000Y-324349429D01*
X353213129Y-324038380D01*
X353091763Y-323745379D01*
X352915569Y-323481685D01*
X352691315Y-323257431D01*
X352427621Y-323081237D01*
X352134620Y-322959871D01*
X351823571Y-322898000D01*
X351506429Y-322898000D01*
X351195380Y-322959871D01*
X350902379Y-323081237D01*
X350638685Y-323257431D01*
X350414431Y-323481685D01*
X350238237Y-323745379D01*
X350116871Y-324038380D01*
X350055000Y-324349429D01*
X350055000Y-324666571D01*
X350116871Y-324977620D01*
X350238237Y-325270621D01*
X350414431Y-325534315D01*
X350638685Y-325758569D01*
X350680000Y-325786175D01*
X350680000Y-326124999D01*
X350082000Y-326723000D01*
X336636052Y-326723000D01*
X336650000Y-326581380D01*
X336650000Y-326581379D01*
X336654765Y-326533000D01*
X336650000Y-326484620D01*
X336650000Y-325786175D01*
X336691315Y-325758569D01*
X336915569Y-325534315D01*
X337091763Y-325270621D01*
X337213129Y-324977620D01*
X337275000Y-324666571D01*
X337275000Y-324349429D01*
X342555000Y-324349429D01*
X342555000Y-324666571D01*
X342616871Y-324977620D01*
X342738237Y-325270621D01*
X342914431Y-325534315D01*
X343138685Y-325758569D01*
X343402379Y-325934763D01*
X343695380Y-326056129D01*
X344006429Y-326118000D01*
X344323571Y-326118000D01*
X344634620Y-326056129D01*
X344927621Y-325934763D01*
X345191315Y-325758569D01*
X345415569Y-325534315D01*
X345591763Y-325270621D01*
X345713129Y-324977620D01*
X345775000Y-324666571D01*
X345775000Y-324349429D01*
X345713129Y-324038380D01*
X345591763Y-323745379D01*
X345415569Y-323481685D01*
X345191315Y-323257431D01*
X344927621Y-323081237D01*
X344634620Y-322959871D01*
X344323571Y-322898000D01*
X344006429Y-322898000D01*
X343695380Y-322959871D01*
X343402379Y-323081237D01*
X343138685Y-323257431D01*
X342914431Y-323481685D01*
X342738237Y-323745379D01*
X342616871Y-324038380D01*
X342555000Y-324349429D01*
X337275000Y-324349429D01*
X337213129Y-324038380D01*
X337091763Y-323745379D01*
X336915569Y-323481685D01*
X336691315Y-323257431D01*
X336427621Y-323081237D01*
X336134620Y-322959871D01*
X335823571Y-322898000D01*
X335506429Y-322898000D01*
X335195380Y-322959871D01*
X334902379Y-323081237D01*
X334638685Y-323257431D01*
X334414431Y-323481685D01*
X334238237Y-323745379D01*
X334116871Y-324038380D01*
X334055000Y-324349429D01*
X334055000Y-324666571D01*
X334116871Y-324977620D01*
X334238237Y-325270621D01*
X334414431Y-325534315D01*
X334638685Y-325758569D01*
X334680000Y-325786175D01*
X334680000Y-326124999D01*
X334082000Y-326723000D01*
X319650000Y-326723000D01*
X319650000Y-325786175D01*
X319691315Y-325758569D01*
X319915569Y-325534315D01*
X320091763Y-325270621D01*
X320213129Y-324977620D01*
X320275000Y-324666571D01*
X320275000Y-324349429D01*
X326555000Y-324349429D01*
X326555000Y-324666571D01*
X326616871Y-324977620D01*
X326738237Y-325270621D01*
X326914431Y-325534315D01*
X327138685Y-325758569D01*
X327402379Y-325934763D01*
X327695380Y-326056129D01*
X328006429Y-326118000D01*
X328323571Y-326118000D01*
X328634620Y-326056129D01*
X328927621Y-325934763D01*
X329191315Y-325758569D01*
X329415569Y-325534315D01*
X329591763Y-325270621D01*
X329713129Y-324977620D01*
X329775000Y-324666571D01*
X329775000Y-324349429D01*
X329713129Y-324038380D01*
X329591763Y-323745379D01*
X329415569Y-323481685D01*
X329191315Y-323257431D01*
X328927621Y-323081237D01*
X328634620Y-322959871D01*
X328323571Y-322898000D01*
X328006429Y-322898000D01*
X327695380Y-322959871D01*
X327402379Y-323081237D01*
X327138685Y-323257431D01*
X326914431Y-323481685D01*
X326738237Y-323745379D01*
X326616871Y-324038380D01*
X326555000Y-324349429D01*
X320275000Y-324349429D01*
X320213129Y-324038380D01*
X320091763Y-323745379D01*
X319915569Y-323481685D01*
X319691315Y-323257431D01*
X319427621Y-323081237D01*
X319134620Y-322959871D01*
X318823571Y-322898000D01*
X318506429Y-322898000D01*
X318195380Y-322959871D01*
X317902379Y-323081237D01*
X317638685Y-323257431D01*
X317414431Y-323481685D01*
X317238237Y-323745379D01*
X317116871Y-324038380D01*
X317055000Y-324349429D01*
X317055000Y-324666571D01*
X317116871Y-324977620D01*
X317238237Y-325270621D01*
X317414431Y-325534315D01*
X317638685Y-325758569D01*
X317680000Y-325786175D01*
X317680000Y-326374999D01*
X317332000Y-326723000D01*
X304348000Y-326723000D01*
X303650000Y-326025000D01*
X303650000Y-325786175D01*
X303691315Y-325758569D01*
X303915569Y-325534315D01*
X304091763Y-325270621D01*
X304213129Y-324977620D01*
X304275000Y-324666571D01*
X304275000Y-324349429D01*
X309555000Y-324349429D01*
X309555000Y-324666571D01*
X309616871Y-324977620D01*
X309738237Y-325270621D01*
X309914431Y-325534315D01*
X310138685Y-325758569D01*
X310402379Y-325934763D01*
X310695380Y-326056129D01*
X311006429Y-326118000D01*
X311323571Y-326118000D01*
X311634620Y-326056129D01*
X311927621Y-325934763D01*
X312191315Y-325758569D01*
X312415569Y-325534315D01*
X312591763Y-325270621D01*
X312713129Y-324977620D01*
X312775000Y-324666571D01*
X312775000Y-324349429D01*
X312713129Y-324038380D01*
X312591763Y-323745379D01*
X312415569Y-323481685D01*
X312191315Y-323257431D01*
X311927621Y-323081237D01*
X311634620Y-322959871D01*
X311323571Y-322898000D01*
X311006429Y-322898000D01*
X310695380Y-322959871D01*
X310402379Y-323081237D01*
X310138685Y-323257431D01*
X309914431Y-323481685D01*
X309738237Y-323745379D01*
X309616871Y-324038380D01*
X309555000Y-324349429D01*
X304275000Y-324349429D01*
X304213129Y-324038380D01*
X304091763Y-323745379D01*
X303915569Y-323481685D01*
X303691315Y-323257431D01*
X303427621Y-323081237D01*
X303134620Y-322959871D01*
X302823571Y-322898000D01*
X302506429Y-322898000D01*
X302195380Y-322959871D01*
X301902379Y-323081237D01*
X301638685Y-323257431D01*
X301414431Y-323481685D01*
X301238237Y-323745379D01*
X301116871Y-324038380D01*
X301055000Y-324349429D01*
X301055000Y-324666571D01*
X301116871Y-324977620D01*
X301238237Y-325270621D01*
X301414431Y-325534315D01*
X301638685Y-325758569D01*
X301680001Y-325786175D01*
X301680001Y-326384610D01*
X301675235Y-326433000D01*
X301694253Y-326626093D01*
X301723649Y-326723000D01*
X293826000Y-326723000D01*
X291452429Y-324349429D01*
X293555000Y-324349429D01*
X293555000Y-324666571D01*
X293616871Y-324977620D01*
X293738237Y-325270621D01*
X293914431Y-325534315D01*
X294138685Y-325758569D01*
X294402379Y-325934763D01*
X294695380Y-326056129D01*
X295006429Y-326118000D01*
X295323571Y-326118000D01*
X295634620Y-326056129D01*
X295927621Y-325934763D01*
X296191315Y-325758569D01*
X296415569Y-325534315D01*
X296591763Y-325270621D01*
X296713129Y-324977620D01*
X296775000Y-324666571D01*
X296775000Y-324349429D01*
X296713129Y-324038380D01*
X296591763Y-323745379D01*
X296415569Y-323481685D01*
X296191315Y-323257431D01*
X295927621Y-323081237D01*
X295634620Y-322959871D01*
X295323571Y-322898000D01*
X295006429Y-322898000D01*
X294695380Y-322959871D01*
X294402379Y-323081237D01*
X294138685Y-323257431D01*
X293914431Y-323481685D01*
X293738237Y-323745379D01*
X293616871Y-324038380D01*
X293555000Y-324349429D01*
X291452429Y-324349429D01*
X291157000Y-324054000D01*
X291157000Y-316361000D01*
X292104000Y-315414000D01*
X294517893Y-315414000D01*
X294611380Y-315507487D01*
X294538820Y-315529498D01*
X294428506Y-315588463D01*
X294331815Y-315667815D01*
X294252463Y-315764506D01*
X294193498Y-315874820D01*
X294157188Y-315994518D01*
X294144928Y-316119000D01*
X294144928Y-317819000D01*
X294157188Y-317943482D01*
X294193498Y-318063180D01*
X294252463Y-318173494D01*
X294331815Y-318270185D01*
X294428506Y-318349537D01*
X294538820Y-318408502D01*
X294658518Y-318444812D01*
X294783000Y-318457072D01*
X296483000Y-318457072D01*
X296607482Y-318444812D01*
X296727180Y-318408502D01*
X296837494Y-318349537D01*
X296934185Y-318270185D01*
X297013537Y-318173494D01*
X297072502Y-318063180D01*
X297105621Y-317954000D01*
X299162000Y-317954000D01*
X301821285Y-320613285D01*
X301852131Y-320650871D01*
X302002117Y-320773961D01*
X302173234Y-320865425D01*
X302315692Y-320908639D01*
X302358906Y-320921748D01*
X302552000Y-320940766D01*
X302600380Y-320936001D01*
X352419619Y-320936001D01*
X352467999Y-320940766D01*
X352516379Y-320936001D01*
X352661093Y-320921748D01*
X352846766Y-320865425D01*
X353017883Y-320773961D01*
X353167869Y-320650871D01*
X353198715Y-320613285D01*
X356874290Y-316937711D01*
X356911870Y-316906870D01*
X357034960Y-316756884D01*
X357126424Y-316585767D01*
X357182747Y-316400094D01*
X357197000Y-316255380D01*
X357201765Y-316207000D01*
X357197000Y-316158620D01*
X357197000Y-312297000D01*
X357751991Y-311742010D01*
X358732055Y-311742010D01*
X358635901Y-311771175D01*
X358373080Y-311896359D01*
X358139731Y-312070412D01*
X357944822Y-312286645D01*
X357795843Y-312536748D01*
X357698519Y-312811109D01*
X357819186Y-313041000D01*
X359013000Y-313041000D01*
X359013000Y-313021000D01*
X359267000Y-313021000D01*
X359267000Y-313041000D01*
X359287000Y-313041000D01*
X359287000Y-313295000D01*
X359267000Y-313295000D01*
X359267000Y-313315000D01*
X359013000Y-313315000D01*
X359013000Y-313295000D01*
X357819186Y-313295000D01*
X357698519Y-313524891D01*
X357795843Y-313799252D01*
X357944822Y-314049355D01*
X358121626Y-314245502D01*
X358045820Y-314268498D01*
X357935506Y-314327463D01*
X357838815Y-314406815D01*
X357759463Y-314503506D01*
X357700498Y-314613820D01*
X357664188Y-314733518D01*
X357651928Y-314858000D01*
X357651928Y-316558000D01*
X357664188Y-316682482D01*
X357700498Y-316802180D01*
X357759463Y-316912494D01*
X357838815Y-317009185D01*
X357935506Y-317088537D01*
X358045820Y-317147502D01*
X358165518Y-317183812D01*
X358290000Y-317196072D01*
X359990000Y-317196072D01*
X360114482Y-317183812D01*
X360234180Y-317147502D01*
X360344494Y-317088537D01*
X360441185Y-317009185D01*
X360520537Y-316912494D01*
X360579502Y-316802180D01*
X360601513Y-316729620D01*
X360733368Y-316861475D01*
X360976589Y-317023990D01*
X361246842Y-317135932D01*
X361533740Y-317193000D01*
X361826260Y-317193000D01*
X362113158Y-317135932D01*
X362383411Y-317023990D01*
X362626632Y-316861475D01*
X362833475Y-316654632D01*
X362950000Y-316480240D01*
X363066525Y-316654632D01*
X363273368Y-316861475D01*
X363516589Y-317023990D01*
X363786842Y-317135932D01*
X364073740Y-317193000D01*
X364366260Y-317193000D01*
X364653158Y-317135932D01*
X364923411Y-317023990D01*
X365166632Y-316861475D01*
X365373475Y-316654632D01*
X365490000Y-316480240D01*
X365606525Y-316654632D01*
X365813368Y-316861475D01*
X366056589Y-317023990D01*
X366326842Y-317135932D01*
X366613740Y-317193000D01*
X366906260Y-317193000D01*
X367193158Y-317135932D01*
X367463411Y-317023990D01*
X367706632Y-316861475D01*
X367913475Y-316654632D01*
X368030000Y-316480240D01*
X368146525Y-316654632D01*
X368353368Y-316861475D01*
X368596589Y-317023990D01*
X368866842Y-317135932D01*
X369153740Y-317193000D01*
X369446260Y-317193000D01*
X369733158Y-317135932D01*
X370003411Y-317023990D01*
X370246632Y-316861475D01*
X370453475Y-316654632D01*
X370570000Y-316480240D01*
X370686525Y-316654632D01*
X370893368Y-316861475D01*
X371136589Y-317023990D01*
X371406842Y-317135932D01*
X371693740Y-317193000D01*
X371986260Y-317193000D01*
X372273158Y-317135932D01*
X372543411Y-317023990D01*
X372786632Y-316861475D01*
X372993475Y-316654632D01*
X373110000Y-316480240D01*
X373226525Y-316654632D01*
X373433368Y-316861475D01*
X373676589Y-317023990D01*
X373946842Y-317135932D01*
X374233740Y-317193000D01*
X374526260Y-317193000D01*
X374813158Y-317135932D01*
X375083411Y-317023990D01*
X375326632Y-316861475D01*
X375533475Y-316654632D01*
X375650000Y-316480240D01*
X375766525Y-316654632D01*
X375973368Y-316861475D01*
X376216589Y-317023990D01*
X376486842Y-317135932D01*
X376773740Y-317193000D01*
X377066260Y-317193000D01*
X377353158Y-317135932D01*
X377623411Y-317023990D01*
X377866632Y-316861475D01*
X378073475Y-316654632D01*
X378190000Y-316480240D01*
X378306525Y-316654632D01*
X378513368Y-316861475D01*
X378756589Y-317023990D01*
X379026842Y-317135932D01*
X379313740Y-317193000D01*
X379606260Y-317193000D01*
X379893158Y-317135932D01*
X380163411Y-317023990D01*
X380406632Y-316861475D01*
X380613475Y-316654632D01*
X380730000Y-316480240D01*
X380846525Y-316654632D01*
X381053368Y-316861475D01*
X381296589Y-317023990D01*
X381566842Y-317135932D01*
X381853740Y-317193000D01*
X382146260Y-317193000D01*
X382433158Y-317135932D01*
X382703411Y-317023990D01*
X382946632Y-316861475D01*
X383153475Y-316654632D01*
X383270000Y-316480240D01*
X383386525Y-316654632D01*
X383593368Y-316861475D01*
X383836589Y-317023990D01*
X384106842Y-317135932D01*
X384393740Y-317193000D01*
X384686260Y-317193000D01*
X384973158Y-317135932D01*
X385243411Y-317023990D01*
X385486632Y-316861475D01*
X385693475Y-316654632D01*
X385810000Y-316480240D01*
X385926525Y-316654632D01*
X386133368Y-316861475D01*
X386320001Y-316986179D01*
X386320001Y-317192668D01*
X386316324Y-317230000D01*
X386330998Y-317378985D01*
X386374454Y-317522246D01*
X386445026Y-317654276D01*
X386509369Y-317732677D01*
X386540000Y-317770001D01*
X386568998Y-317793799D01*
X387906201Y-319131003D01*
X387929999Y-319160001D01*
X388045724Y-319254974D01*
X388177753Y-319325546D01*
X388321014Y-319369003D01*
X388432667Y-319380000D01*
X388432677Y-319380000D01*
X388470000Y-319383676D01*
X388507323Y-319380000D01*
X430088678Y-319380000D01*
X430126000Y-319383676D01*
X430163322Y-319380000D01*
X430163333Y-319380000D01*
X430274986Y-319369003D01*
X430418247Y-319325546D01*
X430550276Y-319254974D01*
X430666001Y-319160001D01*
X430689803Y-319130998D01*
X431526004Y-318294798D01*
X431555001Y-318271001D01*
X431649974Y-318155276D01*
X431720546Y-318023247D01*
X431764003Y-317879986D01*
X431775000Y-317768333D01*
X431775000Y-317768323D01*
X431778676Y-317731000D01*
X431775000Y-317693677D01*
X431775000Y-317291711D01*
X431818937Y-317247774D01*
X431932205Y-317078256D01*
X432010226Y-316889898D01*
X432050000Y-316689939D01*
X432050000Y-316542331D01*
X432110102Y-316567226D01*
X432310061Y-316607000D01*
X432513939Y-316607000D01*
X432713898Y-316567226D01*
X432902256Y-316489205D01*
X433071774Y-316375937D01*
X433215937Y-316231774D01*
X433329205Y-316062256D01*
X433364079Y-315978061D01*
X442299000Y-315978061D01*
X442299000Y-316181939D01*
X442338774Y-316381898D01*
X442416795Y-316570256D01*
X442530063Y-316739774D01*
X442674226Y-316883937D01*
X442843744Y-316997205D01*
X443032102Y-317075226D01*
X443232061Y-317115000D01*
X443435939Y-317115000D01*
X443635898Y-317075226D01*
X443824256Y-316997205D01*
X443993774Y-316883937D01*
X444037711Y-316840000D01*
X448757678Y-316840000D01*
X448795000Y-316843676D01*
X448832322Y-316840000D01*
X448832333Y-316840000D01*
X448943986Y-316829003D01*
X449087247Y-316785546D01*
X449219276Y-316714974D01*
X449335001Y-316620001D01*
X449358804Y-316590997D01*
X450231802Y-315718000D01*
X450293939Y-315718000D01*
X450493898Y-315678226D01*
X450682256Y-315600205D01*
X450851774Y-315486937D01*
X450995937Y-315342774D01*
X451109205Y-315173256D01*
X451187226Y-314984898D01*
X451227000Y-314784939D01*
X451227000Y-314581061D01*
X451187226Y-314381102D01*
X451109205Y-314192744D01*
X450995937Y-314023226D01*
X450851774Y-313879063D01*
X450682256Y-313765795D01*
X450493898Y-313687774D01*
X450293939Y-313648000D01*
X450090061Y-313648000D01*
X449890102Y-313687774D01*
X449701744Y-313765795D01*
X449532226Y-313879063D01*
X449388063Y-314023226D01*
X449274795Y-314192744D01*
X449196774Y-314381102D01*
X449157000Y-314581061D01*
X449157000Y-314643198D01*
X448480199Y-315320000D01*
X448344154Y-315320000D01*
X448442205Y-315173256D01*
X448520226Y-314984898D01*
X448560000Y-314784939D01*
X448560000Y-314581061D01*
X448520226Y-314381102D01*
X448442205Y-314192744D01*
X448328937Y-314023226D01*
X448184774Y-313879063D01*
X448015256Y-313765795D01*
X447826898Y-313687774D01*
X447626939Y-313648000D01*
X447423061Y-313648000D01*
X447223102Y-313687774D01*
X447034744Y-313765795D01*
X446865226Y-313879063D01*
X446821289Y-313923000D01*
X444545711Y-313923000D01*
X444501774Y-313879063D01*
X444332256Y-313765795D01*
X444143898Y-313687774D01*
X443943939Y-313648000D01*
X443740061Y-313648000D01*
X443540102Y-313687774D01*
X443351744Y-313765795D01*
X443182226Y-313879063D01*
X443038063Y-314023226D01*
X442924795Y-314192744D01*
X442846774Y-314381102D01*
X442807000Y-314581061D01*
X442807000Y-314784939D01*
X442846774Y-314984898D01*
X442909227Y-315135671D01*
X442843744Y-315162795D01*
X442674226Y-315276063D01*
X442530063Y-315420226D01*
X442416795Y-315589744D01*
X442338774Y-315778102D01*
X442299000Y-315978061D01*
X433364079Y-315978061D01*
X433407226Y-315873898D01*
X433447000Y-315673939D01*
X433447000Y-315470061D01*
X433407226Y-315270102D01*
X433329205Y-315081744D01*
X433215937Y-314912226D01*
X433071774Y-314768063D01*
X432902256Y-314654795D01*
X432713898Y-314576774D01*
X432513939Y-314537000D01*
X432310061Y-314537000D01*
X432110102Y-314576774D01*
X431921744Y-314654795D01*
X431752226Y-314768063D01*
X431708289Y-314812000D01*
X430798333Y-314812000D01*
X430761000Y-314808323D01*
X430723667Y-314812000D01*
X430612014Y-314822997D01*
X430468753Y-314866454D01*
X430336724Y-314937026D01*
X430220999Y-315031999D01*
X430197200Y-315060998D01*
X429614998Y-315643201D01*
X429586000Y-315666999D01*
X429562202Y-315695997D01*
X429562201Y-315695998D01*
X429491026Y-315782724D01*
X429420454Y-315914754D01*
X429396259Y-315994518D01*
X429376998Y-316058014D01*
X429374833Y-316080000D01*
X429362324Y-316207000D01*
X429366001Y-316244332D01*
X429366000Y-317162198D01*
X429118209Y-317409990D01*
X422831618Y-317409990D01*
X422952354Y-317385974D01*
X423459192Y-317176035D01*
X423915334Y-316871250D01*
X424303250Y-316483334D01*
X424608035Y-316027192D01*
X424817974Y-315520354D01*
X424925000Y-314982299D01*
X424925000Y-314433701D01*
X424817974Y-313895646D01*
X424608035Y-313388808D01*
X424303250Y-312932666D01*
X423915334Y-312544750D01*
X423459192Y-312239965D01*
X422952354Y-312030026D01*
X422414299Y-311923000D01*
X421865701Y-311923000D01*
X421327646Y-312030026D01*
X420820808Y-312239965D01*
X420364666Y-312544750D01*
X419976750Y-312932666D01*
X419671965Y-313388808D01*
X419462026Y-313895646D01*
X419355000Y-314433701D01*
X419355000Y-314982299D01*
X419462026Y-315520354D01*
X419671965Y-316027192D01*
X419976750Y-316483334D01*
X420364666Y-316871250D01*
X420820808Y-317176035D01*
X421327646Y-317385974D01*
X421448382Y-317409990D01*
X389858792Y-317409990D01*
X389641802Y-317193000D01*
X389766260Y-317193000D01*
X390053158Y-317135932D01*
X390323411Y-317023990D01*
X390566632Y-316861475D01*
X390773475Y-316654632D01*
X390881474Y-316493000D01*
X392486447Y-316493000D01*
X392525000Y-316496797D01*
X392563553Y-316493000D01*
X392563561Y-316493000D01*
X392678887Y-316481641D01*
X392826860Y-316436754D01*
X392963233Y-316363862D01*
X393082764Y-316265764D01*
X393107347Y-316235810D01*
X397939157Y-311404000D01*
X426752843Y-311404000D01*
X427186000Y-311837158D01*
X427186000Y-311863939D01*
X427225774Y-312063898D01*
X427303795Y-312252256D01*
X427417063Y-312421774D01*
X427561226Y-312565937D01*
X427730744Y-312679205D01*
X427919102Y-312757226D01*
X428119061Y-312797000D01*
X428322939Y-312797000D01*
X428522898Y-312757226D01*
X428711256Y-312679205D01*
X428880774Y-312565937D01*
X429024937Y-312421774D01*
X429138205Y-312252256D01*
X429216226Y-312063898D01*
X429256000Y-311863939D01*
X429256000Y-311660061D01*
X429216226Y-311460102D01*
X429138205Y-311271744D01*
X429024937Y-311102226D01*
X428880774Y-310958063D01*
X428711256Y-310844795D01*
X428522898Y-310766774D01*
X428322939Y-310727000D01*
X428296158Y-310727000D01*
X427660347Y-310091190D01*
X427635764Y-310061236D01*
X427516233Y-309963138D01*
X427379860Y-309890246D01*
X427231887Y-309845359D01*
X427116561Y-309834000D01*
X427116553Y-309834000D01*
X427078000Y-309830203D01*
X427039447Y-309834000D01*
X413000000Y-309834000D01*
X413000000Y-309755061D01*
X412960226Y-309555102D01*
X412882205Y-309366744D01*
X412768937Y-309197226D01*
X412624774Y-309053063D01*
X412455256Y-308939795D01*
X412266898Y-308861774D01*
X412066939Y-308822000D01*
X411863061Y-308822000D01*
X411663102Y-308861774D01*
X411638414Y-308872000D01*
X356895380Y-308872000D01*
X356847000Y-308867235D01*
X356798620Y-308872000D01*
X356653906Y-308886253D01*
X356468233Y-308942576D01*
X356297116Y-309034040D01*
X356147130Y-309157130D01*
X356116289Y-309194710D01*
X354406711Y-310904289D01*
X354369131Y-310935130D01*
X354246041Y-311085116D01*
X354236896Y-311102226D01*
X354154576Y-311256234D01*
X354098253Y-311441907D01*
X354079235Y-311635000D01*
X354084001Y-311683390D01*
X354084000Y-315291000D01*
X351359000Y-318016000D01*
X334903001Y-318016000D01*
X326081716Y-309194716D01*
X326050870Y-309157130D01*
X325900884Y-309034040D01*
X325729767Y-308942576D01*
X325544094Y-308886253D01*
X325399380Y-308872000D01*
X325351000Y-308867235D01*
X325302620Y-308872000D01*
X313231586Y-308872000D01*
X313206898Y-308861774D01*
X313006939Y-308822000D01*
X312803061Y-308822000D01*
X312603102Y-308861774D01*
X312414744Y-308939795D01*
X312245226Y-309053063D01*
X312101063Y-309197226D01*
X311987795Y-309366744D01*
X311977570Y-309391429D01*
X310465000Y-310904000D01*
X296748107Y-310904000D01*
X296579632Y-310735525D01*
X296336411Y-310573010D01*
X296066158Y-310461068D01*
X295779260Y-310404000D01*
X295486740Y-310404000D01*
X295199842Y-310461068D01*
X294929589Y-310573010D01*
X294686368Y-310735525D01*
X294479525Y-310942368D01*
X294317010Y-311185589D01*
X294205068Y-311455842D01*
X294148000Y-311742740D01*
X294148000Y-312035260D01*
X294205068Y-312322158D01*
X294317010Y-312592411D01*
X294479525Y-312835632D01*
X294686368Y-313042475D01*
X294860760Y-313159000D01*
X294686368Y-313275525D01*
X294517893Y-313444000D01*
X291744377Y-313444000D01*
X291695999Y-313439235D01*
X291647621Y-313444000D01*
X291647620Y-313444000D01*
X291502906Y-313458253D01*
X291317233Y-313514576D01*
X291157000Y-313600222D01*
X291157000Y-304296000D01*
X292610001Y-302843000D01*
X293679175Y-302843000D01*
X293675235Y-302883000D01*
X293680000Y-302931380D01*
X293680000Y-303571416D01*
X293588685Y-303632431D01*
X293364431Y-303856685D01*
X293188237Y-304120379D01*
X293066871Y-304413380D01*
X293005000Y-304724429D01*
X293005000Y-305041571D01*
X293066871Y-305352620D01*
X293188237Y-305645621D01*
X293364431Y-305909315D01*
X293588685Y-306133569D01*
X293852379Y-306309763D01*
X294145380Y-306431129D01*
X294456429Y-306493000D01*
X294773571Y-306493000D01*
X295084620Y-306431129D01*
X295377621Y-306309763D01*
X295641315Y-306133569D01*
X295865569Y-305909315D01*
X296041763Y-305645621D01*
X296163129Y-305352620D01*
X296225000Y-305041571D01*
X296225000Y-304724429D01*
X300505000Y-304724429D01*
X300505000Y-305041571D01*
X300566871Y-305352620D01*
X300688237Y-305645621D01*
X300864431Y-305909315D01*
X301088685Y-306133569D01*
X301352379Y-306309763D01*
X301645380Y-306431129D01*
X301956429Y-306493000D01*
X302273571Y-306493000D01*
X302584620Y-306431129D01*
X302877621Y-306309763D01*
X303141315Y-306133569D01*
X303365569Y-305909315D01*
X303541763Y-305645621D01*
X303663129Y-305352620D01*
X303725000Y-305041571D01*
X303725000Y-304724429D01*
X303663129Y-304413380D01*
X303541763Y-304120379D01*
X303365569Y-303856685D01*
X303141315Y-303632431D01*
X302877621Y-303456237D01*
X302584620Y-303334871D01*
X302273571Y-303273000D01*
X301956429Y-303273000D01*
X301645380Y-303334871D01*
X301352379Y-303456237D01*
X301088685Y-303632431D01*
X300864431Y-303856685D01*
X300688237Y-304120379D01*
X300566871Y-304413380D01*
X300505000Y-304724429D01*
X296225000Y-304724429D01*
X296163129Y-304413380D01*
X296041763Y-304120379D01*
X295865569Y-303856685D01*
X295650000Y-303641116D01*
X295650000Y-303291000D01*
X296098001Y-302843000D01*
X309760032Y-302843000D01*
X309700576Y-302954234D01*
X309644253Y-303139907D01*
X309625235Y-303333000D01*
X309630001Y-303381389D01*
X309630001Y-303604825D01*
X309588685Y-303632431D01*
X309364431Y-303856685D01*
X309188237Y-304120379D01*
X309066871Y-304413380D01*
X309005000Y-304724429D01*
X309005000Y-305041571D01*
X309066871Y-305352620D01*
X309188237Y-305645621D01*
X309364431Y-305909315D01*
X309588685Y-306133569D01*
X309852379Y-306309763D01*
X310145380Y-306431129D01*
X310456429Y-306493000D01*
X310773571Y-306493000D01*
X311084620Y-306431129D01*
X311377621Y-306309763D01*
X311641315Y-306133569D01*
X311865569Y-305909315D01*
X312041763Y-305645621D01*
X312163129Y-305352620D01*
X312225000Y-305041571D01*
X312225000Y-304724429D01*
X316505000Y-304724429D01*
X316505000Y-305041571D01*
X316566871Y-305352620D01*
X316688237Y-305645621D01*
X316864431Y-305909315D01*
X317088685Y-306133569D01*
X317352379Y-306309763D01*
X317645380Y-306431129D01*
X317956429Y-306493000D01*
X318273571Y-306493000D01*
X318584620Y-306431129D01*
X318877621Y-306309763D01*
X319141315Y-306133569D01*
X319365569Y-305909315D01*
X319541763Y-305645621D01*
X319663129Y-305352620D01*
X319725000Y-305041571D01*
X319725000Y-304724429D01*
X319663129Y-304413380D01*
X319541763Y-304120379D01*
X319365569Y-303856685D01*
X319141315Y-303632431D01*
X318877621Y-303456237D01*
X318584620Y-303334871D01*
X318273571Y-303273000D01*
X317956429Y-303273000D01*
X317645380Y-303334871D01*
X317352379Y-303456237D01*
X317088685Y-303632431D01*
X316864431Y-303856685D01*
X316688237Y-304120379D01*
X316566871Y-304413380D01*
X316505000Y-304724429D01*
X312225000Y-304724429D01*
X312163129Y-304413380D01*
X312041763Y-304120379D01*
X311865569Y-303856685D01*
X311674942Y-303666058D01*
X312498001Y-302843000D01*
X326738817Y-302843000D01*
X326694253Y-302989907D01*
X326675235Y-303183000D01*
X326680000Y-303231380D01*
X326680000Y-303571416D01*
X326588685Y-303632431D01*
X326364431Y-303856685D01*
X326188237Y-304120379D01*
X326066871Y-304413380D01*
X326005000Y-304724429D01*
X326005000Y-305041571D01*
X326066871Y-305352620D01*
X326188237Y-305645621D01*
X326364431Y-305909315D01*
X326588685Y-306133569D01*
X326852379Y-306309763D01*
X327145380Y-306431129D01*
X327456429Y-306493000D01*
X327773571Y-306493000D01*
X328084620Y-306431129D01*
X328377621Y-306309763D01*
X328641315Y-306133569D01*
X328865569Y-305909315D01*
X329041763Y-305645621D01*
X329163129Y-305352620D01*
X329225000Y-305041571D01*
X329225000Y-304724429D01*
X333505000Y-304724429D01*
X333505000Y-305041571D01*
X333566871Y-305352620D01*
X333688237Y-305645621D01*
X333864431Y-305909315D01*
X334088685Y-306133569D01*
X334352379Y-306309763D01*
X334645380Y-306431129D01*
X334956429Y-306493000D01*
X335273571Y-306493000D01*
X335584620Y-306431129D01*
X335877621Y-306309763D01*
X336141315Y-306133569D01*
X336365569Y-305909315D01*
X336541763Y-305645621D01*
X336663129Y-305352620D01*
X336725000Y-305041571D01*
X336725000Y-304724429D01*
X336663129Y-304413380D01*
X336541763Y-304120379D01*
X336365569Y-303856685D01*
X336141315Y-303632431D01*
X335877621Y-303456237D01*
X335584620Y-303334871D01*
X335273571Y-303273000D01*
X334956429Y-303273000D01*
X334645380Y-303334871D01*
X334352379Y-303456237D01*
X334088685Y-303632431D01*
X333864431Y-303856685D01*
X333688237Y-304120379D01*
X333566871Y-304413380D01*
X333505000Y-304724429D01*
X329225000Y-304724429D01*
X329163129Y-304413380D01*
X329041763Y-304120379D01*
X328865569Y-303856685D01*
X328650000Y-303641116D01*
X328650000Y-303591000D01*
X329398001Y-302843000D01*
X342679175Y-302843000D01*
X342675235Y-302883000D01*
X342680000Y-302931380D01*
X342680000Y-303571416D01*
X342588685Y-303632431D01*
X342364431Y-303856685D01*
X342188237Y-304120379D01*
X342066871Y-304413380D01*
X342005000Y-304724429D01*
X342005000Y-305041571D01*
X342066871Y-305352620D01*
X342188237Y-305645621D01*
X342364431Y-305909315D01*
X342588685Y-306133569D01*
X342852379Y-306309763D01*
X343145380Y-306431129D01*
X343456429Y-306493000D01*
X343773571Y-306493000D01*
X344084620Y-306431129D01*
X344377621Y-306309763D01*
X344641315Y-306133569D01*
X344865569Y-305909315D01*
X345041763Y-305645621D01*
X345163129Y-305352620D01*
X345225000Y-305041571D01*
X345225000Y-304724429D01*
X349505000Y-304724429D01*
X349505000Y-305041571D01*
X349566871Y-305352620D01*
X349688237Y-305645621D01*
X349864431Y-305909315D01*
X350088685Y-306133569D01*
X350352379Y-306309763D01*
X350645380Y-306431129D01*
X350956429Y-306493000D01*
X351273571Y-306493000D01*
X351584620Y-306431129D01*
X351877621Y-306309763D01*
X352141315Y-306133569D01*
X352365569Y-305909315D01*
X352541763Y-305645621D01*
X352663129Y-305352620D01*
X352725000Y-305041571D01*
X352725000Y-304724429D01*
X352663129Y-304413380D01*
X352541763Y-304120379D01*
X352365569Y-303856685D01*
X352141315Y-303632431D01*
X351877621Y-303456237D01*
X351584620Y-303334871D01*
X351273571Y-303273000D01*
X350956429Y-303273000D01*
X350645380Y-303334871D01*
X350352379Y-303456237D01*
X350088685Y-303632431D01*
X349864431Y-303856685D01*
X349688237Y-304120379D01*
X349566871Y-304413380D01*
X349505000Y-304724429D01*
X345225000Y-304724429D01*
X345163129Y-304413380D01*
X345041763Y-304120379D01*
X344865569Y-303856685D01*
X344650000Y-303641116D01*
X344650000Y-303291000D01*
X345098001Y-302843000D01*
X359684099Y-302843000D01*
X359675235Y-302933000D01*
X359680000Y-302981380D01*
X359680000Y-303571416D01*
X359588685Y-303632431D01*
X359364431Y-303856685D01*
X359188237Y-304120379D01*
X359066871Y-304413380D01*
X359005000Y-304724429D01*
X359005000Y-305041571D01*
X359066871Y-305352620D01*
X359188237Y-305645621D01*
X359364431Y-305909315D01*
X359588685Y-306133569D01*
X359852379Y-306309763D01*
X360145380Y-306431129D01*
X360456429Y-306493000D01*
X360773571Y-306493000D01*
X361084620Y-306431129D01*
X361377621Y-306309763D01*
X361641315Y-306133569D01*
X361865569Y-305909315D01*
X362041763Y-305645621D01*
X362163129Y-305352620D01*
X362225000Y-305041571D01*
X362225000Y-304724429D01*
X366505000Y-304724429D01*
X366505000Y-305041571D01*
X366566871Y-305352620D01*
X366688237Y-305645621D01*
X366864431Y-305909315D01*
X367088685Y-306133569D01*
X367352379Y-306309763D01*
X367645380Y-306431129D01*
X367956429Y-306493000D01*
X368273571Y-306493000D01*
X368584620Y-306431129D01*
X368877621Y-306309763D01*
X369141315Y-306133569D01*
X369365569Y-305909315D01*
X369541763Y-305645621D01*
X369663129Y-305352620D01*
X369725000Y-305041571D01*
X369725000Y-304724429D01*
X369663129Y-304413380D01*
X369541763Y-304120379D01*
X369365569Y-303856685D01*
X369141315Y-303632431D01*
X368877621Y-303456237D01*
X368584620Y-303334871D01*
X368273571Y-303273000D01*
X367956429Y-303273000D01*
X367645380Y-303334871D01*
X367352379Y-303456237D01*
X367088685Y-303632431D01*
X366864431Y-303856685D01*
X366688237Y-304120379D01*
X366566871Y-304413380D01*
X366505000Y-304724429D01*
X362225000Y-304724429D01*
X362163129Y-304413380D01*
X362041763Y-304120379D01*
X361865569Y-303856685D01*
X361650000Y-303641116D01*
X361650000Y-303341000D01*
X362148001Y-302843000D01*
X375680000Y-302843000D01*
X375680000Y-303571416D01*
X375588685Y-303632431D01*
X375364431Y-303856685D01*
X375188237Y-304120379D01*
X375066871Y-304413380D01*
X375005000Y-304724429D01*
X375005000Y-305041571D01*
X375066871Y-305352620D01*
X375188237Y-305645621D01*
X375364431Y-305909315D01*
X375588685Y-306133569D01*
X375852379Y-306309763D01*
X376145380Y-306431129D01*
X376456429Y-306493000D01*
X376773571Y-306493000D01*
X377084620Y-306431129D01*
X377377621Y-306309763D01*
X377641315Y-306133569D01*
X377865569Y-305909315D01*
X378041763Y-305645621D01*
X378163129Y-305352620D01*
X378225000Y-305041571D01*
X378225000Y-304724429D01*
X382505000Y-304724429D01*
X382505000Y-305041571D01*
X382566871Y-305352620D01*
X382688237Y-305645621D01*
X382864431Y-305909315D01*
X383088685Y-306133569D01*
X383352379Y-306309763D01*
X383645380Y-306431129D01*
X383956429Y-306493000D01*
X384273571Y-306493000D01*
X384584620Y-306431129D01*
X384877621Y-306309763D01*
X385141315Y-306133569D01*
X385365569Y-305909315D01*
X385541763Y-305645621D01*
X385663129Y-305352620D01*
X385725000Y-305041571D01*
X385725000Y-304724429D01*
X385663129Y-304413380D01*
X385541763Y-304120379D01*
X385365569Y-303856685D01*
X385141315Y-303632431D01*
X384877621Y-303456237D01*
X384584620Y-303334871D01*
X384273571Y-303273000D01*
X383956429Y-303273000D01*
X383645380Y-303334871D01*
X383352379Y-303456237D01*
X383088685Y-303632431D01*
X382864431Y-303856685D01*
X382688237Y-304120379D01*
X382566871Y-304413380D01*
X382505000Y-304724429D01*
X378225000Y-304724429D01*
X378163129Y-304413380D01*
X378041763Y-304120379D01*
X377865569Y-303856685D01*
X377650000Y-303641116D01*
X377650000Y-303191000D01*
X377998001Y-302843000D01*
X392693948Y-302843000D01*
X392675235Y-303033000D01*
X392680000Y-303081380D01*
X392680000Y-303571416D01*
X392588685Y-303632431D01*
X392364431Y-303856685D01*
X392188237Y-304120379D01*
X392066871Y-304413380D01*
X392005000Y-304724429D01*
X392005000Y-305041571D01*
X392066871Y-305352620D01*
X392188237Y-305645621D01*
X392364431Y-305909315D01*
X392588685Y-306133569D01*
X392852379Y-306309763D01*
X393145380Y-306431129D01*
X393456429Y-306493000D01*
X393773571Y-306493000D01*
X394084620Y-306431129D01*
X394377621Y-306309763D01*
X394641315Y-306133569D01*
X394865569Y-305909315D01*
X395041763Y-305645621D01*
X395163129Y-305352620D01*
X395225000Y-305041571D01*
X395225000Y-304724429D01*
X399505000Y-304724429D01*
X399505000Y-305041571D01*
X399566871Y-305352620D01*
X399688237Y-305645621D01*
X399864431Y-305909315D01*
X400088685Y-306133569D01*
X400352379Y-306309763D01*
X400645380Y-306431129D01*
X400956429Y-306493000D01*
X401273571Y-306493000D01*
X401584620Y-306431129D01*
X401877621Y-306309763D01*
X402141315Y-306133569D01*
X402365569Y-305909315D01*
X402541763Y-305645621D01*
X402663129Y-305352620D01*
X402725000Y-305041571D01*
X402725000Y-304724429D01*
X402663129Y-304413380D01*
X402541763Y-304120379D01*
X402365569Y-303856685D01*
X402141315Y-303632431D01*
X401877621Y-303456237D01*
X401584620Y-303334871D01*
X401273571Y-303273000D01*
X400956429Y-303273000D01*
X400645380Y-303334871D01*
X400352379Y-303456237D01*
X400088685Y-303632431D01*
X399864431Y-303856685D01*
X399688237Y-304120379D01*
X399566871Y-304413380D01*
X399505000Y-304724429D01*
X395225000Y-304724429D01*
X395163129Y-304413380D01*
X395041763Y-304120379D01*
X394865569Y-303856685D01*
X394650000Y-303641116D01*
X394650000Y-303441000D01*
X395248001Y-302843000D01*
X408693948Y-302843000D01*
X408675235Y-303033000D01*
X408680000Y-303081380D01*
X408680000Y-303571416D01*
X408588685Y-303632431D01*
X408364431Y-303856685D01*
X408188237Y-304120379D01*
X408066871Y-304413380D01*
X408005000Y-304724429D01*
X408005000Y-305041571D01*
X408066871Y-305352620D01*
X408188237Y-305645621D01*
X408364431Y-305909315D01*
X408588685Y-306133569D01*
X408852379Y-306309763D01*
X409145380Y-306431129D01*
X409456429Y-306493000D01*
X409773571Y-306493000D01*
X410084620Y-306431129D01*
X410377621Y-306309763D01*
X410641315Y-306133569D01*
X410865569Y-305909315D01*
X411041763Y-305645621D01*
X411163129Y-305352620D01*
X411225000Y-305041571D01*
X411225000Y-304724429D01*
X415505000Y-304724429D01*
X415505000Y-305041571D01*
X415566871Y-305352620D01*
X415688237Y-305645621D01*
X415864431Y-305909315D01*
X416088685Y-306133569D01*
X416352379Y-306309763D01*
X416645380Y-306431129D01*
X416956429Y-306493000D01*
X417273571Y-306493000D01*
X417584620Y-306431129D01*
X417877621Y-306309763D01*
X418141315Y-306133569D01*
X418365569Y-305909315D01*
X418541763Y-305645621D01*
X418663129Y-305352620D01*
X418725000Y-305041571D01*
X418725000Y-304724429D01*
X418663129Y-304413380D01*
X418541763Y-304120379D01*
X418365569Y-303856685D01*
X418141315Y-303632431D01*
X417877621Y-303456237D01*
X417584620Y-303334871D01*
X417273571Y-303273000D01*
X416956429Y-303273000D01*
X416645380Y-303334871D01*
X416352379Y-303456237D01*
X416088685Y-303632431D01*
X415864431Y-303856685D01*
X415688237Y-304120379D01*
X415566871Y-304413380D01*
X415505000Y-304724429D01*
X411225000Y-304724429D01*
X411163129Y-304413380D01*
X411041763Y-304120379D01*
X410865569Y-303856685D01*
X410650000Y-303641116D01*
X410650000Y-303441000D01*
X411248001Y-302843000D01*
X425680000Y-302843000D01*
X425680000Y-303571416D01*
X425588685Y-303632431D01*
X425364431Y-303856685D01*
X425188237Y-304120379D01*
X425066871Y-304413380D01*
X425005000Y-304724429D01*
X425005000Y-305041571D01*
X425066871Y-305352620D01*
X425188237Y-305645621D01*
X425364431Y-305909315D01*
X425588685Y-306133569D01*
X425852379Y-306309763D01*
X426145380Y-306431129D01*
X426456429Y-306493000D01*
X426773571Y-306493000D01*
X427084620Y-306431129D01*
X427377621Y-306309763D01*
X427641315Y-306133569D01*
X427865569Y-305909315D01*
X428041763Y-305645621D01*
X428163129Y-305352620D01*
X428225000Y-305041571D01*
X428225000Y-304724429D01*
X432505000Y-304724429D01*
X432505000Y-305041571D01*
X432566871Y-305352620D01*
X432688237Y-305645621D01*
X432864431Y-305909315D01*
X433088685Y-306133569D01*
X433352379Y-306309763D01*
X433645380Y-306431129D01*
X433956429Y-306493000D01*
X434273571Y-306493000D01*
X434584620Y-306431129D01*
X434877621Y-306309763D01*
X435141315Y-306133569D01*
X435365569Y-305909315D01*
X435541763Y-305645621D01*
X435663129Y-305352620D01*
X435725000Y-305041571D01*
X435725000Y-304724429D01*
X435663129Y-304413380D01*
X435541763Y-304120379D01*
X435365569Y-303856685D01*
X435141315Y-303632431D01*
X434877621Y-303456237D01*
X434584620Y-303334871D01*
X434273571Y-303273000D01*
X433956429Y-303273000D01*
X433645380Y-303334871D01*
X433352379Y-303456237D01*
X433088685Y-303632431D01*
X432864431Y-303856685D01*
X432688237Y-304120379D01*
X432566871Y-304413380D01*
X432505000Y-304724429D01*
X428225000Y-304724429D01*
X428163129Y-304413380D01*
X428041763Y-304120379D01*
X427865569Y-303856685D01*
X427650000Y-303641116D01*
X427650000Y-303191000D01*
X427998001Y-302843000D01*
X440982000Y-302843000D01*
X441680001Y-303541001D01*
X441680001Y-303571416D01*
X441588685Y-303632431D01*
X441364431Y-303856685D01*
X441188237Y-304120379D01*
X441066871Y-304413380D01*
X441005000Y-304724429D01*
X441005000Y-305041571D01*
X441066871Y-305352620D01*
X441188237Y-305645621D01*
X441364431Y-305909315D01*
X441588685Y-306133569D01*
X441852379Y-306309763D01*
X442145380Y-306431129D01*
X442456429Y-306493000D01*
X442773571Y-306493000D01*
X443084620Y-306431129D01*
X443377621Y-306309763D01*
X443641315Y-306133569D01*
X443865569Y-305909315D01*
X444041763Y-305645621D01*
X444163129Y-305352620D01*
X444225000Y-305041571D01*
X444225000Y-304724429D01*
X448505000Y-304724429D01*
X448505000Y-305041571D01*
X448566871Y-305352620D01*
X448688237Y-305645621D01*
X448864431Y-305909315D01*
X449088685Y-306133569D01*
X449352379Y-306309763D01*
X449645380Y-306431129D01*
X449956429Y-306493000D01*
X450273571Y-306493000D01*
X450584620Y-306431129D01*
X450877621Y-306309763D01*
X451141315Y-306133569D01*
X451365569Y-305909315D01*
X451541763Y-305645621D01*
X451663129Y-305352620D01*
X451725000Y-305041571D01*
X451725000Y-304724429D01*
X451663129Y-304413380D01*
X451541763Y-304120379D01*
X451365569Y-303856685D01*
X451141315Y-303632431D01*
X450877621Y-303456237D01*
X450584620Y-303334871D01*
X450273571Y-303273000D01*
X449956429Y-303273000D01*
X449645380Y-303334871D01*
X449352379Y-303456237D01*
X449088685Y-303632431D01*
X448864431Y-303856685D01*
X448688237Y-304120379D01*
X448566871Y-304413380D01*
X448505000Y-304724429D01*
X444225000Y-304724429D01*
X444163129Y-304413380D01*
X444041763Y-304120379D01*
X443865569Y-303856685D01*
X443650000Y-303641116D01*
X443650000Y-303181379D01*
X443654765Y-303132999D01*
X443635747Y-302939905D01*
X443622638Y-302896691D01*
X443579424Y-302754233D01*
X443487960Y-302583116D01*
X443364870Y-302433130D01*
X443327284Y-302402284D01*
X442120716Y-301195716D01*
X442089870Y-301158130D01*
X441939884Y-301035040D01*
X441768767Y-300943576D01*
X441583094Y-300887253D01*
X441438380Y-300873000D01*
X441390000Y-300868235D01*
X441341620Y-300873000D01*
X427638380Y-300873000D01*
X427590000Y-300868235D01*
X427541620Y-300873000D01*
X410888380Y-300873000D01*
X410840000Y-300868235D01*
X410791620Y-300873000D01*
X394888380Y-300873000D01*
X394840000Y-300868235D01*
X394791620Y-300873000D01*
X377638380Y-300873000D01*
X377590000Y-300868235D01*
X377541620Y-300873000D01*
X361788380Y-300873000D01*
X361740000Y-300868235D01*
X361691620Y-300873000D01*
X344738380Y-300873000D01*
X344690000Y-300868235D01*
X344641620Y-300873000D01*
X329038380Y-300873000D01*
X328990000Y-300868235D01*
X328941620Y-300873000D01*
X312138379Y-300873000D01*
X312089999Y-300868235D01*
X312041619Y-300873000D01*
X295738380Y-300873000D01*
X295690000Y-300868235D01*
X295641620Y-300873000D01*
X292250380Y-300873000D01*
X292202000Y-300868235D01*
X292153620Y-300873000D01*
X292008906Y-300887253D01*
X291823233Y-300943576D01*
X291652116Y-301035040D01*
X291502130Y-301158130D01*
X291471289Y-301195710D01*
X289509711Y-303157289D01*
X289472131Y-303188130D01*
X289349041Y-303338116D01*
X289328742Y-303376093D01*
X289283464Y-303460801D01*
X289283464Y-296835000D01*
X291369376Y-296835000D01*
X291377273Y-296915184D01*
G37*
X291377273Y-296915184D02*
X291417872Y-297049020D01*
X291483800Y-297172363D01*
X291572525Y-297280475D01*
X291680637Y-297369200D01*
X291803980Y-297435128D01*
X291937816Y-297475727D01*
X292077000Y-297489435D01*
X292111877Y-297486000D01*
X320744123Y-297486000D01*
X320779000Y-297489435D01*
X320813877Y-297486000D01*
X320918184Y-297475727D01*
X321052020Y-297435128D01*
X321175363Y-297369200D01*
X321283475Y-297280475D01*
X321372200Y-297172363D01*
X321438128Y-297049020D01*
X321478727Y-296915184D01*
X321486624Y-296835000D01*
X324262376Y-296835000D01*
X324270273Y-296915184D01*
X324310872Y-297049020D01*
X324376800Y-297172363D01*
X324465525Y-297280475D01*
X324573637Y-297369200D01*
X324696980Y-297435128D01*
X324830816Y-297475727D01*
X324970000Y-297489435D01*
X325004877Y-297486000D01*
X353637123Y-297486000D01*
X353672000Y-297489435D01*
X353706877Y-297486000D01*
X353811184Y-297475727D01*
X353945020Y-297435128D01*
X354068363Y-297369200D01*
X354176475Y-297280475D01*
X354265200Y-297172363D01*
X354331128Y-297049020D01*
X354371727Y-296915184D01*
X354379624Y-296835000D01*
X357282376Y-296835000D01*
X357290273Y-296915184D01*
X357330872Y-297049020D01*
X357396800Y-297172363D01*
X357485525Y-297280475D01*
X357593637Y-297369200D01*
X357716980Y-297435128D01*
X357850816Y-297475727D01*
X357990000Y-297489435D01*
X358024877Y-297486000D01*
X386657123Y-297486000D01*
X386692000Y-297489435D01*
X386726877Y-297486000D01*
X386831184Y-297475727D01*
X386965020Y-297435128D01*
X387088363Y-297369200D01*
X387196475Y-297280475D01*
X387285200Y-297172363D01*
X387351128Y-297049020D01*
X387391727Y-296915184D01*
X387399624Y-296835000D01*
X390302376Y-296835000D01*
X390310273Y-296915184D01*
X390350872Y-297049020D01*
X390416800Y-297172363D01*
X390505525Y-297280475D01*
X390613637Y-297369200D01*
X390736980Y-297435128D01*
X390870816Y-297475727D01*
X391010000Y-297489435D01*
X391044877Y-297486000D01*
X419677123Y-297486000D01*
X419712000Y-297489435D01*
X419746877Y-297486000D01*
X419851184Y-297475727D01*
X419985020Y-297435128D01*
X420108363Y-297369200D01*
X420216475Y-297280475D01*
X420305200Y-297172363D01*
X420371128Y-297049020D01*
X420411727Y-296915184D01*
X420419624Y-296835000D01*
X423322376Y-296835000D01*
X423330273Y-296915184D01*
X423370872Y-297049020D01*
X423436800Y-297172363D01*
X423525525Y-297280475D01*
X423633637Y-297369200D01*
X423756980Y-297435128D01*
X423890816Y-297475727D01*
X424030000Y-297489435D01*
X424064877Y-297486000D01*
X452697123Y-297486000D01*
X452732000Y-297489435D01*
X452766877Y-297486000D01*
X452871184Y-297475727D01*
X453005020Y-297435128D01*
X453128363Y-297369200D01*
X453236475Y-297280475D01*
X453325200Y-297172363D01*
X453391128Y-297049020D01*
X453431727Y-296915184D01*
X453439624Y-296835000D01*
X456029480Y-296835000D01*
X456033984Y-332844386D01*
X453941592Y-332850751D01*
X453939727Y-332831816D01*
X453899128Y-332697980D01*
X453833200Y-332574637D01*
X453744475Y-332466525D01*
X453636363Y-332377800D01*
X453513020Y-332311872D01*
X453379184Y-332271273D01*
X453274877Y-332261000D01*
X453240000Y-332257565D01*
X453205123Y-332261000D01*
X424572877Y-332261000D01*
X424538000Y-332257565D01*
X424503123Y-332261000D01*
X424398816Y-332271273D01*
X424264980Y-332311872D01*
X424141637Y-332377800D01*
X424033525Y-332466525D01*
X423944800Y-332574637D01*
X423878872Y-332697980D01*
X423838273Y-332831816D01*
X423827386Y-332942353D01*
X420917418Y-332951205D01*
X420879128Y-332824980D01*
X420813200Y-332701637D01*
X420724475Y-332593525D01*
X420616363Y-332504800D01*
X420493020Y-332438872D01*
X420359184Y-332398273D01*
X420254877Y-332388000D01*
X420220000Y-332384565D01*
X420185123Y-332388000D01*
X391552877Y-332388000D01*
X391518000Y-332384565D01*
X391483123Y-332388000D01*
X391378816Y-332398273D01*
X391244980Y-332438872D01*
X391121637Y-332504800D01*
X391013525Y-332593525D01*
X390924800Y-332701637D01*
X390858872Y-332824980D01*
X390818273Y-332958816D01*
X390810003Y-333042787D01*
X387889369Y-333051671D01*
X387859128Y-332951980D01*
X387793200Y-332828637D01*
X387704475Y-332720525D01*
X387596363Y-332631800D01*
X387473020Y-332565872D01*
X387339184Y-332525273D01*
X387234877Y-332515000D01*
X387200000Y-332511565D01*
X387165123Y-332515000D01*
X358532877Y-332515000D01*
X358498000Y-332511565D01*
X358463123Y-332515000D01*
X358358816Y-332525273D01*
X358224980Y-332565872D01*
X358101637Y-332631800D01*
X357993525Y-332720525D01*
X357904800Y-332828637D01*
X357838872Y-332951980D01*
X357798273Y-333085816D01*
X357792619Y-333143220D01*
X354988203Y-333151751D01*
X354966128Y-333078980D01*
X354900200Y-332955637D01*
X354811475Y-332847525D01*
X354703363Y-332758800D01*
X354580020Y-332692872D01*
X354446184Y-332652273D01*
X354341877Y-332642000D01*
X354307000Y-332638565D01*
X354272123Y-332642000D01*
X325639877Y-332642000D01*
X325605000Y-332638565D01*
X325570123Y-332642000D01*
X325465816Y-332652273D01*
X325331980Y-332692872D01*
X325208637Y-332758800D01*
X325100525Y-332847525D01*
X325011800Y-332955637D01*
X324945872Y-333078980D01*
X324905273Y-333212816D01*
X324902274Y-333243267D01*
X321960154Y-333252217D01*
X321946128Y-333205980D01*
X321880200Y-333082637D01*
X321791475Y-332974525D01*
X321683363Y-332885800D01*
X321560020Y-332819872D01*
X321426184Y-332779273D01*
X321321877Y-332769000D01*
X321287000Y-332765565D01*
X321252123Y-332769000D01*
X292619877Y-332769000D01*
X292585000Y-332765565D01*
X292550123Y-332769000D01*
X292445816Y-332779273D01*
X292311980Y-332819872D01*
X292188637Y-332885800D01*
X292080525Y-332974525D01*
X291991800Y-333082637D01*
X291925872Y-333205980D01*
X291885273Y-333339816D01*
X291884890Y-333343701D01*
X289283464Y-333351614D01*
X289283464Y-324889199D01*
X289349040Y-325011884D01*
X289472130Y-325161870D01*
X289509716Y-325192716D01*
X292687284Y-328370284D01*
X292718130Y-328407870D01*
X292868116Y-328530960D01*
X293039233Y-328622424D01*
X293181691Y-328665638D01*
X293224905Y-328678747D01*
X293417999Y-328697765D01*
X293466379Y-328693000D01*
X303891619Y-328693000D01*
X303939999Y-328697765D01*
X303988379Y-328693000D01*
X317691620Y-328693000D01*
X317740000Y-328697765D01*
X317788380Y-328693000D01*
X334441620Y-328693000D01*
X334490000Y-328697765D01*
X334538380Y-328693000D01*
X350441620Y-328693000D01*
X350490000Y-328697765D01*
X350538380Y-328693000D01*
X367691620Y-328693000D01*
X367740000Y-328697765D01*
X367788380Y-328693000D01*
X383541620Y-328693000D01*
X383590000Y-328697765D01*
X383638380Y-328693000D01*
X400591620Y-328693000D01*
X400640000Y-328697765D01*
X400688380Y-328693000D01*
X416291620Y-328693000D01*
X416340000Y-328697765D01*
X416388380Y-328693000D01*
X433391620Y-328693000D01*
X433440000Y-328697765D01*
X433488380Y-328693000D01*
X449591620Y-328693000D01*
X449640000Y-328697765D01*
X449688380Y-328693000D01*
X449833094Y-328678747D01*
X450018767Y-328622424D01*
X450189884Y-328530960D01*
X450339870Y-328407870D01*
X450370715Y-328370285D01*
X451327290Y-327413711D01*
X451364870Y-327382870D01*
X451487960Y-327232884D01*
X451579424Y-327061767D01*
X451635747Y-326876094D01*
X451650000Y-326731380D01*
X451650000Y-326731379D01*
X451654765Y-326683000D01*
X451650000Y-326634620D01*
X451650000Y-325786175D01*
X451691315Y-325758569D01*
X451915569Y-325534315D01*
X452091763Y-325270621D01*
X452213129Y-324977620D01*
X452275000Y-324666571D01*
X452275000Y-324349429D01*
X452213129Y-324038380D01*
X452091763Y-323745379D01*
X451915569Y-323481685D01*
X451691315Y-323257431D01*
X451427621Y-323081237D01*
X451134620Y-322959871D01*
X450823571Y-322898000D01*
X450506429Y-322898000D01*
X450195380Y-322959871D01*
X449902379Y-323081237D01*
X449638685Y-323257431D01*
X449414431Y-323481685D01*
X449238237Y-323745379D01*
X449116871Y-324038380D01*
X449055000Y-324349429D01*
X449055000Y-324666571D01*
X449116871Y-324977620D01*
X449238237Y-325270621D01*
X449414431Y-325534315D01*
X449638685Y-325758569D01*
X449680000Y-325786175D01*
X449680000Y-326274999D01*
X449232000Y-326723000D01*
X435621518Y-326723000D01*
X435635747Y-326676094D01*
X435650000Y-326531380D01*
X435654765Y-326483000D01*
X435650000Y-326434620D01*
X435650000Y-325786175D01*
X435691315Y-325758569D01*
X435915569Y-325534315D01*
X436091763Y-325270621D01*
X436213129Y-324977620D01*
X436275000Y-324666571D01*
X436275000Y-324349429D01*
X441555000Y-324349429D01*
X441555000Y-324666571D01*
X441616871Y-324977620D01*
X441738237Y-325270621D01*
X441914431Y-325534315D01*
X442138685Y-325758569D01*
X442402379Y-325934763D01*
X442695380Y-326056129D01*
X443006429Y-326118000D01*
X443323571Y-326118000D01*
X443634620Y-326056129D01*
X443927621Y-325934763D01*
X444191315Y-325758569D01*
X444415569Y-325534315D01*
X444591763Y-325270621D01*
X444713129Y-324977620D01*
X444775000Y-324666571D01*
X444775000Y-324349429D01*
X444713129Y-324038380D01*
X444591763Y-323745379D01*
X444415569Y-323481685D01*
X444191315Y-323257431D01*
X443927621Y-323081237D01*
X443634620Y-322959871D01*
X443323571Y-322898000D01*
X443006429Y-322898000D01*
X442695380Y-322959871D01*
X442402379Y-323081237D01*
X442138685Y-323257431D01*
X441914431Y-323481685D01*
X441738237Y-323745379D01*
X441616871Y-324038380D01*
X441555000Y-324349429D01*
X436275000Y-324349429D01*
X436213129Y-324038380D01*
X436091763Y-323745379D01*
X435915569Y-323481685D01*
X435691315Y-323257431D01*
X435427621Y-323081237D01*
X435134620Y-322959871D01*
X434823571Y-322898000D01*
X434506429Y-322898000D01*
X434195380Y-322959871D01*
X433902379Y-323081237D01*
X433638685Y-323257431D01*
X433414431Y-323481685D01*
X433238237Y-323745379D01*
X433116871Y-324038380D01*
X433055000Y-324349429D01*
X433055000Y-324666571D01*
X433116871Y-324977620D01*
X433238237Y-325270621D01*
X433414431Y-325534315D01*
X433638685Y-325758569D01*
X433680001Y-325786175D01*
X433680001Y-326074998D01*
X433032000Y-326723000D01*
X418591184Y-326723000D01*
X418635747Y-326576094D01*
X418650000Y-326431380D01*
X418650000Y-326431379D01*
X418654765Y-326383000D01*
X418650000Y-326334620D01*
X418650000Y-325786175D01*
X418691315Y-325758569D01*
X418915569Y-325534315D01*
X419091763Y-325270621D01*
X419213129Y-324977620D01*
X419275000Y-324666571D01*
X419275000Y-324349429D01*
X425555000Y-324349429D01*
X425555000Y-324666571D01*
X425616871Y-324977620D01*
X425738237Y-325270621D01*
X425914431Y-325534315D01*
X426138685Y-325758569D01*
X426402379Y-325934763D01*
X426695380Y-326056129D01*
X427006429Y-326118000D01*
X427323571Y-326118000D01*
X427634620Y-326056129D01*
X427927621Y-325934763D01*
X428191315Y-325758569D01*
X428415569Y-325534315D01*
X428591763Y-325270621D01*
X428713129Y-324977620D01*
X428775000Y-324666571D01*
X428775000Y-324349429D01*
X428713129Y-324038380D01*
X428591763Y-323745379D01*
X428415569Y-323481685D01*
X428191315Y-323257431D01*
X427927621Y-323081237D01*
X427634620Y-322959871D01*
X427323571Y-322898000D01*
X427006429Y-322898000D01*
X426695380Y-322959871D01*
X426402379Y-323081237D01*
X426138685Y-323257431D01*
X425914431Y-323481685D01*
X425738237Y-323745379D01*
X425616871Y-324038380D01*
X425555000Y-324349429D01*
X419275000Y-324349429D01*
X419213129Y-324038380D01*
X419091763Y-323745379D01*
X418915569Y-323481685D01*
X418691315Y-323257431D01*
X418427621Y-323081237D01*
X418134620Y-322959871D01*
X417823571Y-322898000D01*
X417506429Y-322898000D01*
X417195380Y-322959871D01*
X416902379Y-323081237D01*
X416638685Y-323257431D01*
X416414431Y-323481685D01*
X416238237Y-323745379D01*
X416116871Y-324038380D01*
X416055000Y-324349429D01*
X416055000Y-324666571D01*
X416116871Y-324977620D01*
X416238237Y-325270621D01*
X416414431Y-325534315D01*
X416638685Y-325758569D01*
X416680000Y-325786175D01*
X416680000Y-325974999D01*
X415932000Y-326723000D01*
X402650825Y-326723000D01*
X402654765Y-326683000D01*
X402650000Y-326634620D01*
X402650000Y-325786175D01*
X402691315Y-325758569D01*
X402915569Y-325534315D01*
X403091763Y-325270621D01*
X403213129Y-324977620D01*
X403275000Y-324666571D01*
X403275000Y-324349429D01*
X408555000Y-324349429D01*
X408555000Y-324666571D01*
X408616871Y-324977620D01*
X408738237Y-325270621D01*
X408914431Y-325534315D01*
X409138685Y-325758569D01*
X409402379Y-325934763D01*
X409695380Y-326056129D01*
X410006429Y-326118000D01*
X410323571Y-326118000D01*
X410634620Y-326056129D01*
X410927621Y-325934763D01*
X411191315Y-325758569D01*
X411415569Y-325534315D01*
X411591763Y-325270621D01*
X411713129Y-324977620D01*
X411775000Y-324666571D01*
X411775000Y-324349429D01*
X411713129Y-324038380D01*
X411591763Y-323745379D01*
X411415569Y-323481685D01*
X411191315Y-323257431D01*
X410927621Y-323081237D01*
X410634620Y-322959871D01*
X410323571Y-322898000D01*
X410006429Y-322898000D01*
X409695380Y-322959871D01*
X409402379Y-323081237D01*
X409138685Y-323257431D01*
X408914431Y-323481685D01*
X408738237Y-323745379D01*
X408616871Y-324038380D01*
X408555000Y-324349429D01*
X403275000Y-324349429D01*
X403213129Y-324038380D01*
X403091763Y-323745379D01*
X402915569Y-323481685D01*
X402691315Y-323257431D01*
X402427621Y-323081237D01*
X402134620Y-322959871D01*
X401823571Y-322898000D01*
X401506429Y-322898000D01*
X401195380Y-322959871D01*
X400902379Y-323081237D01*
X400638685Y-323257431D01*
X400414431Y-323481685D01*
X400238237Y-323745379D01*
X400116871Y-324038380D01*
X400055000Y-324349429D01*
X400055000Y-324666571D01*
X400116871Y-324977620D01*
X400238237Y-325270621D01*
X400414431Y-325534315D01*
X400638685Y-325758569D01*
X400680000Y-325786175D01*
X400680000Y-326274999D01*
X400232000Y-326723000D01*
X385645901Y-326723000D01*
X385650000Y-326681380D01*
X385650000Y-326681379D01*
X385654765Y-326633000D01*
X385650000Y-326584620D01*
X385650000Y-325786175D01*
X385691315Y-325758569D01*
X385915569Y-325534315D01*
X386091763Y-325270621D01*
X386213129Y-324977620D01*
X386275000Y-324666571D01*
X386275000Y-324349429D01*
X392555000Y-324349429D01*
X392555000Y-324666571D01*
X392616871Y-324977620D01*
X392738237Y-325270621D01*
X392914431Y-325534315D01*
X393138685Y-325758569D01*
X393402379Y-325934763D01*
X393695380Y-326056129D01*
X394006429Y-326118000D01*
X394323571Y-326118000D01*
X394634620Y-326056129D01*
X394927621Y-325934763D01*
X395191315Y-325758569D01*
X395415569Y-325534315D01*
X395591763Y-325270621D01*
X395713129Y-324977620D01*
X395775000Y-324666571D01*
X395775000Y-324349429D01*
X395713129Y-324038380D01*
X395591763Y-323745379D01*
X395415569Y-323481685D01*
X395191315Y-323257431D01*
X394927621Y-323081237D01*
X394634620Y-322959871D01*
X394323571Y-322898000D01*
X394006429Y-322898000D01*
X393695380Y-322959871D01*
X393402379Y-323081237D01*
X393138685Y-323257431D01*
X392914431Y-323481685D01*
X392738237Y-323745379D01*
X392616871Y-324038380D01*
X392555000Y-324349429D01*
X386275000Y-324349429D01*
X386213129Y-324038380D01*
X386091763Y-323745379D01*
X385915569Y-323481685D01*
X385691315Y-323257431D01*
X385427621Y-323081237D01*
X385134620Y-322959871D01*
X384823571Y-322898000D01*
X384506429Y-322898000D01*
X384195380Y-322959871D01*
X383902379Y-323081237D01*
X383638685Y-323257431D01*
X383414431Y-323481685D01*
X383238237Y-323745379D01*
X383116871Y-324038380D01*
X383055000Y-324349429D01*
X383055000Y-324666571D01*
X383116871Y-324977620D01*
X383238237Y-325270621D01*
X383414431Y-325534315D01*
X383638685Y-325758569D01*
X383680000Y-325786175D01*
X383680000Y-326224999D01*
X383182000Y-326723000D01*
X369650000Y-326723000D01*
X369650000Y-325786175D01*
X369691315Y-325758569D01*
X369915569Y-325534315D01*
X370091763Y-325270621D01*
X370213129Y-324977620D01*
X370275000Y-324666571D01*
X370275000Y-324349429D01*
X375555000Y-324349429D01*
X375555000Y-324666571D01*
X375616871Y-324977620D01*
X375738237Y-325270621D01*
X375914431Y-325534315D01*
X376138685Y-325758569D01*
X376402379Y-325934763D01*
X376695380Y-326056129D01*
X377006429Y-326118000D01*
X377323571Y-326118000D01*
X377634620Y-326056129D01*
X377927621Y-325934763D01*
X378191315Y-325758569D01*
X378415569Y-325534315D01*
X378591763Y-325270621D01*
X378713129Y-324977620D01*
X378775000Y-324666571D01*
X378775000Y-324349429D01*
X378713129Y-324038380D01*
X378591763Y-323745379D01*
X378415569Y-323481685D01*
X378191315Y-323257431D01*
X377927621Y-323081237D01*
X377634620Y-322959871D01*
X377323571Y-322898000D01*
X377006429Y-322898000D01*
X376695380Y-322959871D01*
X376402379Y-323081237D01*
X376138685Y-323257431D01*
X375914431Y-323481685D01*
X375738237Y-323745379D01*
X375616871Y-324038380D01*
X375555000Y-324349429D01*
X370275000Y-324349429D01*
X370213129Y-324038380D01*
X370091763Y-323745379D01*
X369915569Y-323481685D01*
X369691315Y-323257431D01*
X369427621Y-323081237D01*
X369134620Y-322959871D01*
X368823571Y-322898000D01*
X368506429Y-322898000D01*
X368195380Y-322959871D01*
X367902379Y-323081237D01*
X367638685Y-323257431D01*
X367414431Y-323481685D01*
X367238237Y-323745379D01*
X367116871Y-324038380D01*
X367055000Y-324349429D01*
X367055000Y-324666571D01*
X367116871Y-324977620D01*
X367238237Y-325270621D01*
X367414431Y-325534315D01*
X367638685Y-325758569D01*
X367680000Y-325786175D01*
X367680000Y-326374999D01*
X367332000Y-326723000D01*
X352636052Y-326723000D01*
X352650000Y-326581380D01*
X352650000Y-326581379D01*
X352654765Y-326533000D01*
X352650000Y-326484620D01*
X352650000Y-325786175D01*
X352691315Y-325758569D01*
X352915569Y-325534315D01*
X353091763Y-325270621D01*
X353213129Y-324977620D01*
X353275000Y-324666571D01*
X353275000Y-324349429D01*
X359555000Y-324349429D01*
X359555000Y-324666571D01*
X359616871Y-324977620D01*
X359738237Y-325270621D01*
X359914431Y-325534315D01*
X360138685Y-325758569D01*
X360402379Y-325934763D01*
X360695380Y-326056129D01*
X361006429Y-326118000D01*
X361323571Y-326118000D01*
X361634620Y-326056129D01*
X361927621Y-325934763D01*
X362191315Y-325758569D01*
X362415569Y-325534315D01*
X362591763Y-325270621D01*
X362713129Y-324977620D01*
X362775000Y-324666571D01*
X362775000Y-324349429D01*
X362713129Y-324038380D01*
X362591763Y-323745379D01*
X362415569Y-323481685D01*
X362191315Y-323257431D01*
X361927621Y-323081237D01*
X361634620Y-322959871D01*
X361323571Y-322898000D01*
X361006429Y-322898000D01*
X360695380Y-322959871D01*
X360402379Y-323081237D01*
X360138685Y-323257431D01*
X359914431Y-323481685D01*
X359738237Y-323745379D01*
X359616871Y-324038380D01*
X359555000Y-324349429D01*
X353275000Y-324349429D01*
X353213129Y-324038380D01*
X353091763Y-323745379D01*
X352915569Y-323481685D01*
X352691315Y-323257431D01*
X352427621Y-323081237D01*
X352134620Y-322959871D01*
X351823571Y-322898000D01*
X351506429Y-322898000D01*
X351195380Y-322959871D01*
X350902379Y-323081237D01*
X350638685Y-323257431D01*
X350414431Y-323481685D01*
X350238237Y-323745379D01*
X350116871Y-324038380D01*
X350055000Y-324349429D01*
X350055000Y-324666571D01*
X350116871Y-324977620D01*
X350238237Y-325270621D01*
X350414431Y-325534315D01*
X350638685Y-325758569D01*
X350680000Y-325786175D01*
X350680000Y-326124999D01*
X350082000Y-326723000D01*
X336636052Y-326723000D01*
X336650000Y-326581380D01*
X336650000Y-326581379D01*
X336654765Y-326533000D01*
X336650000Y-326484620D01*
X336650000Y-325786175D01*
X336691315Y-325758569D01*
X336915569Y-325534315D01*
X337091763Y-325270621D01*
X337213129Y-324977620D01*
X337275000Y-324666571D01*
X337275000Y-324349429D01*
X342555000Y-324349429D01*
X342555000Y-324666571D01*
X342616871Y-324977620D01*
X342738237Y-325270621D01*
X342914431Y-325534315D01*
X343138685Y-325758569D01*
X343402379Y-325934763D01*
X343695380Y-326056129D01*
X344006429Y-326118000D01*
X344323571Y-326118000D01*
X344634620Y-326056129D01*
X344927621Y-325934763D01*
X345191315Y-325758569D01*
X345415569Y-325534315D01*
X345591763Y-325270621D01*
X345713129Y-324977620D01*
X345775000Y-324666571D01*
X345775000Y-324349429D01*
X345713129Y-324038380D01*
X345591763Y-323745379D01*
X345415569Y-323481685D01*
X345191315Y-323257431D01*
X344927621Y-323081237D01*
X344634620Y-322959871D01*
X344323571Y-322898000D01*
X344006429Y-322898000D01*
X343695380Y-322959871D01*
X343402379Y-323081237D01*
X343138685Y-323257431D01*
X342914431Y-323481685D01*
X342738237Y-323745379D01*
X342616871Y-324038380D01*
X342555000Y-324349429D01*
X337275000Y-324349429D01*
X337213129Y-324038380D01*
X337091763Y-323745379D01*
X336915569Y-323481685D01*
X336691315Y-323257431D01*
X336427621Y-323081237D01*
X336134620Y-322959871D01*
X335823571Y-322898000D01*
X335506429Y-322898000D01*
X335195380Y-322959871D01*
X334902379Y-323081237D01*
X334638685Y-323257431D01*
X334414431Y-323481685D01*
X334238237Y-323745379D01*
X334116871Y-324038380D01*
X334055000Y-324349429D01*
X334055000Y-324666571D01*
X334116871Y-324977620D01*
X334238237Y-325270621D01*
X334414431Y-325534315D01*
X334638685Y-325758569D01*
X334680000Y-325786175D01*
X334680000Y-326124999D01*
X334082000Y-326723000D01*
X319650000Y-326723000D01*
X319650000Y-325786175D01*
X319691315Y-325758569D01*
X319915569Y-325534315D01*
X320091763Y-325270621D01*
X320213129Y-324977620D01*
X320275000Y-324666571D01*
X320275000Y-324349429D01*
X326555000Y-324349429D01*
X326555000Y-324666571D01*
X326616871Y-324977620D01*
X326738237Y-325270621D01*
X326914431Y-325534315D01*
X327138685Y-325758569D01*
X327402379Y-325934763D01*
X327695380Y-326056129D01*
X328006429Y-326118000D01*
X328323571Y-326118000D01*
X328634620Y-326056129D01*
X328927621Y-325934763D01*
X329191315Y-325758569D01*
X329415569Y-325534315D01*
X329591763Y-325270621D01*
X329713129Y-324977620D01*
X329775000Y-324666571D01*
X329775000Y-324349429D01*
X329713129Y-324038380D01*
X329591763Y-323745379D01*
X329415569Y-323481685D01*
X329191315Y-323257431D01*
X328927621Y-323081237D01*
X328634620Y-322959871D01*
X328323571Y-322898000D01*
X328006429Y-322898000D01*
X327695380Y-322959871D01*
X327402379Y-323081237D01*
X327138685Y-323257431D01*
X326914431Y-323481685D01*
X326738237Y-323745379D01*
X326616871Y-324038380D01*
X326555000Y-324349429D01*
X320275000Y-324349429D01*
X320213129Y-324038380D01*
X320091763Y-323745379D01*
X319915569Y-323481685D01*
X319691315Y-323257431D01*
X319427621Y-323081237D01*
X319134620Y-322959871D01*
X318823571Y-322898000D01*
X318506429Y-322898000D01*
X318195380Y-322959871D01*
X317902379Y-323081237D01*
X317638685Y-323257431D01*
X317414431Y-323481685D01*
X317238237Y-323745379D01*
X317116871Y-324038380D01*
X317055000Y-324349429D01*
X317055000Y-324666571D01*
X317116871Y-324977620D01*
X317238237Y-325270621D01*
X317414431Y-325534315D01*
X317638685Y-325758569D01*
X317680000Y-325786175D01*
X317680000Y-326374999D01*
X317332000Y-326723000D01*
X304348000Y-326723000D01*
X303650000Y-326025000D01*
X303650000Y-325786175D01*
X303691315Y-325758569D01*
X303915569Y-325534315D01*
X304091763Y-325270621D01*
X304213129Y-324977620D01*
X304275000Y-324666571D01*
X304275000Y-324349429D01*
X309555000Y-324349429D01*
X309555000Y-324666571D01*
X309616871Y-324977620D01*
X309738237Y-325270621D01*
X309914431Y-325534315D01*
X310138685Y-325758569D01*
X310402379Y-325934763D01*
X310695380Y-326056129D01*
X311006429Y-326118000D01*
X311323571Y-326118000D01*
X311634620Y-326056129D01*
X311927621Y-325934763D01*
X312191315Y-325758569D01*
X312415569Y-325534315D01*
X312591763Y-325270621D01*
X312713129Y-324977620D01*
X312775000Y-324666571D01*
X312775000Y-324349429D01*
X312713129Y-324038380D01*
X312591763Y-323745379D01*
X312415569Y-323481685D01*
X312191315Y-323257431D01*
X311927621Y-323081237D01*
X311634620Y-322959871D01*
X311323571Y-322898000D01*
X311006429Y-322898000D01*
X310695380Y-322959871D01*
X310402379Y-323081237D01*
X310138685Y-323257431D01*
X309914431Y-323481685D01*
X309738237Y-323745379D01*
X309616871Y-324038380D01*
X309555000Y-324349429D01*
X304275000Y-324349429D01*
X304213129Y-324038380D01*
X304091763Y-323745379D01*
X303915569Y-323481685D01*
X303691315Y-323257431D01*
X303427621Y-323081237D01*
X303134620Y-322959871D01*
X302823571Y-322898000D01*
X302506429Y-322898000D01*
X302195380Y-322959871D01*
X301902379Y-323081237D01*
X301638685Y-323257431D01*
X301414431Y-323481685D01*
X301238237Y-323745379D01*
X301116871Y-324038380D01*
X301055000Y-324349429D01*
X301055000Y-324666571D01*
X301116871Y-324977620D01*
X301238237Y-325270621D01*
X301414431Y-325534315D01*
X301638685Y-325758569D01*
X301680001Y-325786175D01*
X301680001Y-326384610D01*
X301675235Y-326433000D01*
X301694253Y-326626093D01*
X301723649Y-326723000D01*
X293826000Y-326723000D01*
X291452429Y-324349429D01*
X293555000Y-324349429D01*
X293555000Y-324666571D01*
X293616871Y-324977620D01*
X293738237Y-325270621D01*
X293914431Y-325534315D01*
X294138685Y-325758569D01*
X294402379Y-325934763D01*
X294695380Y-326056129D01*
X295006429Y-326118000D01*
X295323571Y-326118000D01*
X295634620Y-326056129D01*
X295927621Y-325934763D01*
X296191315Y-325758569D01*
X296415569Y-325534315D01*
X296591763Y-325270621D01*
X296713129Y-324977620D01*
X296775000Y-324666571D01*
X296775000Y-324349429D01*
X296713129Y-324038380D01*
X296591763Y-323745379D01*
X296415569Y-323481685D01*
X296191315Y-323257431D01*
X295927621Y-323081237D01*
X295634620Y-322959871D01*
X295323571Y-322898000D01*
X295006429Y-322898000D01*
X294695380Y-322959871D01*
X294402379Y-323081237D01*
X294138685Y-323257431D01*
X293914431Y-323481685D01*
X293738237Y-323745379D01*
X293616871Y-324038380D01*
X293555000Y-324349429D01*
X291452429Y-324349429D01*
X291157000Y-324054000D01*
X291157000Y-316361000D01*
X292104000Y-315414000D01*
X294517893Y-315414000D01*
X294611380Y-315507487D01*
X294538820Y-315529498D01*
X294428506Y-315588463D01*
X294331815Y-315667815D01*
X294252463Y-315764506D01*
X294193498Y-315874820D01*
X294157188Y-315994518D01*
X294144928Y-316119000D01*
X294144928Y-317819000D01*
X294157188Y-317943482D01*
X294193498Y-318063180D01*
X294252463Y-318173494D01*
X294331815Y-318270185D01*
X294428506Y-318349537D01*
X294538820Y-318408502D01*
X294658518Y-318444812D01*
X294783000Y-318457072D01*
X296483000Y-318457072D01*
X296607482Y-318444812D01*
X296727180Y-318408502D01*
X296837494Y-318349537D01*
X296934185Y-318270185D01*
X297013537Y-318173494D01*
X297072502Y-318063180D01*
X297105621Y-317954000D01*
X299162000Y-317954000D01*
X301821285Y-320613285D01*
X301852131Y-320650871D01*
X302002117Y-320773961D01*
X302173234Y-320865425D01*
X302315692Y-320908639D01*
X302358906Y-320921748D01*
X302552000Y-320940766D01*
X302600380Y-320936001D01*
X352419619Y-320936001D01*
X352467999Y-320940766D01*
X352516379Y-320936001D01*
X352661093Y-320921748D01*
X352846766Y-320865425D01*
X353017883Y-320773961D01*
X353167869Y-320650871D01*
X353198715Y-320613285D01*
X356874290Y-316937711D01*
X356911870Y-316906870D01*
X357034960Y-316756884D01*
X357126424Y-316585767D01*
X357182747Y-316400094D01*
X357197000Y-316255380D01*
X357201765Y-316207000D01*
X357197000Y-316158620D01*
X357197000Y-312297000D01*
X357751991Y-311742010D01*
X358732055Y-311742010D01*
X358635901Y-311771175D01*
X358373080Y-311896359D01*
X358139731Y-312070412D01*
X357944822Y-312286645D01*
X357795843Y-312536748D01*
X357698519Y-312811109D01*
X357819186Y-313041000D01*
X359013000Y-313041000D01*
X359013000Y-313021000D01*
X359267000Y-313021000D01*
X359267000Y-313041000D01*
X359287000Y-313041000D01*
X359287000Y-313295000D01*
X359267000Y-313295000D01*
X359267000Y-313315000D01*
X359013000Y-313315000D01*
X359013000Y-313295000D01*
X357819186Y-313295000D01*
X357698519Y-313524891D01*
X357795843Y-313799252D01*
X357944822Y-314049355D01*
X358121626Y-314245502D01*
X358045820Y-314268498D01*
X357935506Y-314327463D01*
X357838815Y-314406815D01*
X357759463Y-314503506D01*
X357700498Y-314613820D01*
X357664188Y-314733518D01*
X357651928Y-314858000D01*
X357651928Y-316558000D01*
X357664188Y-316682482D01*
X357700498Y-316802180D01*
X357759463Y-316912494D01*
X357838815Y-317009185D01*
X357935506Y-317088537D01*
X358045820Y-317147502D01*
X358165518Y-317183812D01*
X358290000Y-317196072D01*
X359990000Y-317196072D01*
X360114482Y-317183812D01*
X360234180Y-317147502D01*
X360344494Y-317088537D01*
X360441185Y-317009185D01*
X360520537Y-316912494D01*
X360579502Y-316802180D01*
X360601513Y-316729620D01*
X360733368Y-316861475D01*
X360976589Y-317023990D01*
X361246842Y-317135932D01*
X361533740Y-317193000D01*
X361826260Y-317193000D01*
X362113158Y-317135932D01*
X362383411Y-317023990D01*
X362626632Y-316861475D01*
X362833475Y-316654632D01*
X362950000Y-316480240D01*
X363066525Y-316654632D01*
X363273368Y-316861475D01*
X363516589Y-317023990D01*
X363786842Y-317135932D01*
X364073740Y-317193000D01*
X364366260Y-317193000D01*
X364653158Y-317135932D01*
X364923411Y-317023990D01*
X365166632Y-316861475D01*
X365373475Y-316654632D01*
X365490000Y-316480240D01*
X365606525Y-316654632D01*
X365813368Y-316861475D01*
X366056589Y-317023990D01*
X366326842Y-317135932D01*
X366613740Y-317193000D01*
X366906260Y-317193000D01*
X367193158Y-317135932D01*
X367463411Y-317023990D01*
X367706632Y-316861475D01*
X367913475Y-316654632D01*
X368030000Y-316480240D01*
X368146525Y-316654632D01*
X368353368Y-316861475D01*
X368596589Y-317023990D01*
X368866842Y-317135932D01*
X369153740Y-317193000D01*
X369446260Y-317193000D01*
X369733158Y-317135932D01*
X370003411Y-317023990D01*
X370246632Y-316861475D01*
X370453475Y-316654632D01*
X370570000Y-316480240D01*
X370686525Y-316654632D01*
X370893368Y-316861475D01*
X371136589Y-317023990D01*
X371406842Y-317135932D01*
X371693740Y-317193000D01*
X371986260Y-317193000D01*
X372273158Y-317135932D01*
X372543411Y-317023990D01*
X372786632Y-316861475D01*
X372993475Y-316654632D01*
X373110000Y-316480240D01*
X373226525Y-316654632D01*
X373433368Y-316861475D01*
X373676589Y-317023990D01*
X373946842Y-317135932D01*
X374233740Y-317193000D01*
X374526260Y-317193000D01*
X374813158Y-317135932D01*
X375083411Y-317023990D01*
X375326632Y-316861475D01*
X375533475Y-316654632D01*
X375650000Y-316480240D01*
X375766525Y-316654632D01*
X375973368Y-316861475D01*
X376216589Y-317023990D01*
X376486842Y-317135932D01*
X376773740Y-317193000D01*
X377066260Y-317193000D01*
X377353158Y-317135932D01*
X377623411Y-317023990D01*
X377866632Y-316861475D01*
X378073475Y-316654632D01*
X378190000Y-316480240D01*
X378306525Y-316654632D01*
X378513368Y-316861475D01*
X378756589Y-317023990D01*
X379026842Y-317135932D01*
X379313740Y-317193000D01*
X379606260Y-317193000D01*
X379893158Y-317135932D01*
X380163411Y-317023990D01*
X380406632Y-316861475D01*
X380613475Y-316654632D01*
X380730000Y-316480240D01*
X380846525Y-316654632D01*
X381053368Y-316861475D01*
X381296589Y-317023990D01*
X381566842Y-317135932D01*
X381853740Y-317193000D01*
X382146260Y-317193000D01*
X382433158Y-317135932D01*
X382703411Y-317023990D01*
X382946632Y-316861475D01*
X383153475Y-316654632D01*
X383270000Y-316480240D01*
X383386525Y-316654632D01*
X383593368Y-316861475D01*
X383836589Y-317023990D01*
X384106842Y-317135932D01*
X384393740Y-317193000D01*
X384686260Y-317193000D01*
X384973158Y-317135932D01*
X385243411Y-317023990D01*
X385486632Y-316861475D01*
X385693475Y-316654632D01*
X385810000Y-316480240D01*
X385926525Y-316654632D01*
X386133368Y-316861475D01*
X386320001Y-316986179D01*
X386320001Y-317192668D01*
X386316324Y-317230000D01*
X386330998Y-317378985D01*
X386374454Y-317522246D01*
X386445026Y-317654276D01*
X386509369Y-317732677D01*
X386540000Y-317770001D01*
X386568998Y-317793799D01*
X387906201Y-319131003D01*
X387929999Y-319160001D01*
X388045724Y-319254974D01*
X388177753Y-319325546D01*
X388321014Y-319369003D01*
X388432667Y-319380000D01*
X388432677Y-319380000D01*
X388470000Y-319383676D01*
X388507323Y-319380000D01*
X430088678Y-319380000D01*
X430126000Y-319383676D01*
X430163322Y-319380000D01*
X430163333Y-319380000D01*
X430274986Y-319369003D01*
X430418247Y-319325546D01*
X430550276Y-319254974D01*
X430666001Y-319160001D01*
X430689803Y-319130998D01*
X431526004Y-318294798D01*
X431555001Y-318271001D01*
X431649974Y-318155276D01*
X431720546Y-318023247D01*
X431764003Y-317879986D01*
X431775000Y-317768333D01*
X431775000Y-317768323D01*
X431778676Y-317731000D01*
X431775000Y-317693677D01*
X431775000Y-317291711D01*
X431818937Y-317247774D01*
X431932205Y-317078256D01*
X432010226Y-316889898D01*
X432050000Y-316689939D01*
X432050000Y-316542331D01*
X432110102Y-316567226D01*
X432310061Y-316607000D01*
X432513939Y-316607000D01*
X432713898Y-316567226D01*
X432902256Y-316489205D01*
X433071774Y-316375937D01*
X433215937Y-316231774D01*
X433329205Y-316062256D01*
X433364079Y-315978061D01*
X442299000Y-315978061D01*
X442299000Y-316181939D01*
X442338774Y-316381898D01*
X442416795Y-316570256D01*
X442530063Y-316739774D01*
X442674226Y-316883937D01*
X442843744Y-316997205D01*
X443032102Y-317075226D01*
X443232061Y-317115000D01*
X443435939Y-317115000D01*
X443635898Y-317075226D01*
X443824256Y-316997205D01*
X443993774Y-316883937D01*
X444037711Y-316840000D01*
X448757678Y-316840000D01*
X448795000Y-316843676D01*
X448832322Y-316840000D01*
X448832333Y-316840000D01*
X448943986Y-316829003D01*
X449087247Y-316785546D01*
X449219276Y-316714974D01*
X449335001Y-316620001D01*
X449358804Y-316590997D01*
X450231802Y-315718000D01*
X450293939Y-315718000D01*
X450493898Y-315678226D01*
X450682256Y-315600205D01*
X450851774Y-315486937D01*
X450995937Y-315342774D01*
X451109205Y-315173256D01*
X451187226Y-314984898D01*
X451227000Y-314784939D01*
X451227000Y-314581061D01*
X451187226Y-314381102D01*
X451109205Y-314192744D01*
X450995937Y-314023226D01*
X450851774Y-313879063D01*
X450682256Y-313765795D01*
X450493898Y-313687774D01*
X450293939Y-313648000D01*
X450090061Y-313648000D01*
X449890102Y-313687774D01*
X449701744Y-313765795D01*
X449532226Y-313879063D01*
X449388063Y-314023226D01*
X449274795Y-314192744D01*
X449196774Y-314381102D01*
X449157000Y-314581061D01*
X449157000Y-314643198D01*
X448480199Y-315320000D01*
X448344154Y-315320000D01*
X448442205Y-315173256D01*
X448520226Y-314984898D01*
X448560000Y-314784939D01*
X448560000Y-314581061D01*
X448520226Y-314381102D01*
X448442205Y-314192744D01*
X448328937Y-314023226D01*
X448184774Y-313879063D01*
X448015256Y-313765795D01*
X447826898Y-313687774D01*
X447626939Y-313648000D01*
X447423061Y-313648000D01*
X447223102Y-313687774D01*
X447034744Y-313765795D01*
X446865226Y-313879063D01*
X446821289Y-313923000D01*
X444545711Y-313923000D01*
X444501774Y-313879063D01*
X444332256Y-313765795D01*
X444143898Y-313687774D01*
X443943939Y-313648000D01*
X443740061Y-313648000D01*
X443540102Y-313687774D01*
X443351744Y-313765795D01*
X443182226Y-313879063D01*
X443038063Y-314023226D01*
X442924795Y-314192744D01*
X442846774Y-314381102D01*
X442807000Y-314581061D01*
X442807000Y-314784939D01*
X442846774Y-314984898D01*
X442909227Y-315135671D01*
X442843744Y-315162795D01*
X442674226Y-315276063D01*
X442530063Y-315420226D01*
X442416795Y-315589744D01*
X442338774Y-315778102D01*
X442299000Y-315978061D01*
X433364079Y-315978061D01*
X433407226Y-315873898D01*
X433447000Y-315673939D01*
X433447000Y-315470061D01*
X433407226Y-315270102D01*
X433329205Y-315081744D01*
X433215937Y-314912226D01*
X433071774Y-314768063D01*
X432902256Y-314654795D01*
X432713898Y-314576774D01*
X432513939Y-314537000D01*
X432310061Y-314537000D01*
X432110102Y-314576774D01*
X431921744Y-314654795D01*
X431752226Y-314768063D01*
X431708289Y-314812000D01*
X430798333Y-314812000D01*
X430761000Y-314808323D01*
X430723667Y-314812000D01*
X430612014Y-314822997D01*
X430468753Y-314866454D01*
X430336724Y-314937026D01*
X430220999Y-315031999D01*
X430197200Y-315060998D01*
X429614998Y-315643201D01*
X429586000Y-315666999D01*
X429562202Y-315695997D01*
X429562201Y-315695998D01*
X429491026Y-315782724D01*
X429420454Y-315914754D01*
X429396259Y-315994518D01*
X429376998Y-316058014D01*
X429374833Y-316080000D01*
X429362324Y-316207000D01*
X429366001Y-316244332D01*
X429366000Y-317162198D01*
X429118209Y-317409990D01*
X422831618Y-317409990D01*
X422952354Y-317385974D01*
X423459192Y-317176035D01*
X423915334Y-316871250D01*
X424303250Y-316483334D01*
X424608035Y-316027192D01*
X424817974Y-315520354D01*
X424925000Y-314982299D01*
X424925000Y-314433701D01*
X424817974Y-313895646D01*
X424608035Y-313388808D01*
X424303250Y-312932666D01*
X423915334Y-312544750D01*
X423459192Y-312239965D01*
X422952354Y-312030026D01*
X422414299Y-311923000D01*
X421865701Y-311923000D01*
X421327646Y-312030026D01*
X420820808Y-312239965D01*
X420364666Y-312544750D01*
X419976750Y-312932666D01*
X419671965Y-313388808D01*
X419462026Y-313895646D01*
X419355000Y-314433701D01*
X419355000Y-314982299D01*
X419462026Y-315520354D01*
X419671965Y-316027192D01*
X419976750Y-316483334D01*
X420364666Y-316871250D01*
X420820808Y-317176035D01*
X421327646Y-317385974D01*
X421448382Y-317409990D01*
X389858792Y-317409990D01*
X389641802Y-317193000D01*
X389766260Y-317193000D01*
X390053158Y-317135932D01*
X390323411Y-317023990D01*
X390566632Y-316861475D01*
X390773475Y-316654632D01*
X390881474Y-316493000D01*
X392486447Y-316493000D01*
X392525000Y-316496797D01*
X392563553Y-316493000D01*
X392563561Y-316493000D01*
X392678887Y-316481641D01*
X392826860Y-316436754D01*
X392963233Y-316363862D01*
X393082764Y-316265764D01*
X393107347Y-316235810D01*
X397939157Y-311404000D01*
X426752843Y-311404000D01*
X427186000Y-311837158D01*
X427186000Y-311863939D01*
X427225774Y-312063898D01*
X427303795Y-312252256D01*
X427417063Y-312421774D01*
X427561226Y-312565937D01*
X427730744Y-312679205D01*
X427919102Y-312757226D01*
X428119061Y-312797000D01*
X428322939Y-312797000D01*
X428522898Y-312757226D01*
X428711256Y-312679205D01*
X428880774Y-312565937D01*
X429024937Y-312421774D01*
X429138205Y-312252256D01*
X429216226Y-312063898D01*
X429256000Y-311863939D01*
X429256000Y-311660061D01*
X429216226Y-311460102D01*
X429138205Y-311271744D01*
X429024937Y-311102226D01*
X428880774Y-310958063D01*
X428711256Y-310844795D01*
X428522898Y-310766774D01*
X428322939Y-310727000D01*
X428296158Y-310727000D01*
X427660347Y-310091190D01*
X427635764Y-310061236D01*
X427516233Y-309963138D01*
X427379860Y-309890246D01*
X427231887Y-309845359D01*
X427116561Y-309834000D01*
X427116553Y-309834000D01*
X427078000Y-309830203D01*
X427039447Y-309834000D01*
X413000000Y-309834000D01*
X413000000Y-309755061D01*
X412960226Y-309555102D01*
X412882205Y-309366744D01*
X412768937Y-309197226D01*
X412624774Y-309053063D01*
X412455256Y-308939795D01*
X412266898Y-308861774D01*
X412066939Y-308822000D01*
X411863061Y-308822000D01*
X411663102Y-308861774D01*
X411638414Y-308872000D01*
X356895380Y-308872000D01*
X356847000Y-308867235D01*
X356798620Y-308872000D01*
X356653906Y-308886253D01*
X356468233Y-308942576D01*
X356297116Y-309034040D01*
X356147130Y-309157130D01*
X356116289Y-309194710D01*
X354406711Y-310904289D01*
X354369131Y-310935130D01*
X354246041Y-311085116D01*
X354236896Y-311102226D01*
X354154576Y-311256234D01*
X354098253Y-311441907D01*
X354079235Y-311635000D01*
X354084001Y-311683390D01*
X354084000Y-315291000D01*
X351359000Y-318016000D01*
X334903001Y-318016000D01*
X326081716Y-309194716D01*
X326050870Y-309157130D01*
X325900884Y-309034040D01*
X325729767Y-308942576D01*
X325544094Y-308886253D01*
X325399380Y-308872000D01*
X325351000Y-308867235D01*
X325302620Y-308872000D01*
X313231586Y-308872000D01*
X313206898Y-308861774D01*
X313006939Y-308822000D01*
X312803061Y-308822000D01*
X312603102Y-308861774D01*
X312414744Y-308939795D01*
X312245226Y-309053063D01*
X312101063Y-309197226D01*
X311987795Y-309366744D01*
X311977570Y-309391429D01*
X310465000Y-310904000D01*
X296748107Y-310904000D01*
X296579632Y-310735525D01*
X296336411Y-310573010D01*
X296066158Y-310461068D01*
X295779260Y-310404000D01*
X295486740Y-310404000D01*
X295199842Y-310461068D01*
X294929589Y-310573010D01*
X294686368Y-310735525D01*
X294479525Y-310942368D01*
X294317010Y-311185589D01*
X294205068Y-311455842D01*
X294148000Y-311742740D01*
X294148000Y-312035260D01*
X294205068Y-312322158D01*
X294317010Y-312592411D01*
X294479525Y-312835632D01*
X294686368Y-313042475D01*
X294860760Y-313159000D01*
X294686368Y-313275525D01*
X294517893Y-313444000D01*
X291744377Y-313444000D01*
X291695999Y-313439235D01*
X291647621Y-313444000D01*
X291647620Y-313444000D01*
X291502906Y-313458253D01*
X291317233Y-313514576D01*
X291157000Y-313600222D01*
X291157000Y-304296000D01*
X292610001Y-302843000D01*
X293679175Y-302843000D01*
X293675235Y-302883000D01*
X293680000Y-302931380D01*
X293680000Y-303571416D01*
X293588685Y-303632431D01*
X293364431Y-303856685D01*
X293188237Y-304120379D01*
X293066871Y-304413380D01*
X293005000Y-304724429D01*
X293005000Y-305041571D01*
X293066871Y-305352620D01*
X293188237Y-305645621D01*
X293364431Y-305909315D01*
X293588685Y-306133569D01*
X293852379Y-306309763D01*
X294145380Y-306431129D01*
X294456429Y-306493000D01*
X294773571Y-306493000D01*
X295084620Y-306431129D01*
X295377621Y-306309763D01*
X295641315Y-306133569D01*
X295865569Y-305909315D01*
X296041763Y-305645621D01*
X296163129Y-305352620D01*
X296225000Y-305041571D01*
X296225000Y-304724429D01*
X300505000Y-304724429D01*
X300505000Y-305041571D01*
X300566871Y-305352620D01*
X300688237Y-305645621D01*
X300864431Y-305909315D01*
X301088685Y-306133569D01*
X301352379Y-306309763D01*
X301645380Y-306431129D01*
X301956429Y-306493000D01*
X302273571Y-306493000D01*
X302584620Y-306431129D01*
X302877621Y-306309763D01*
X303141315Y-306133569D01*
X303365569Y-305909315D01*
X303541763Y-305645621D01*
X303663129Y-305352620D01*
X303725000Y-305041571D01*
X303725000Y-304724429D01*
X303663129Y-304413380D01*
X303541763Y-304120379D01*
X303365569Y-303856685D01*
X303141315Y-303632431D01*
X302877621Y-303456237D01*
X302584620Y-303334871D01*
X302273571Y-303273000D01*
X301956429Y-303273000D01*
X301645380Y-303334871D01*
X301352379Y-303456237D01*
X301088685Y-303632431D01*
X300864431Y-303856685D01*
X300688237Y-304120379D01*
X300566871Y-304413380D01*
X300505000Y-304724429D01*
X296225000Y-304724429D01*
X296163129Y-304413380D01*
X296041763Y-304120379D01*
X295865569Y-303856685D01*
X295650000Y-303641116D01*
X295650000Y-303291000D01*
X296098001Y-302843000D01*
X309760032Y-302843000D01*
X309700576Y-302954234D01*
X309644253Y-303139907D01*
X309625235Y-303333000D01*
X309630001Y-303381389D01*
X309630001Y-303604825D01*
X309588685Y-303632431D01*
X309364431Y-303856685D01*
X309188237Y-304120379D01*
X309066871Y-304413380D01*
X309005000Y-304724429D01*
X309005000Y-305041571D01*
X309066871Y-305352620D01*
X309188237Y-305645621D01*
X309364431Y-305909315D01*
X309588685Y-306133569D01*
X309852379Y-306309763D01*
X310145380Y-306431129D01*
X310456429Y-306493000D01*
X310773571Y-306493000D01*
X311084620Y-306431129D01*
X311377621Y-306309763D01*
X311641315Y-306133569D01*
X311865569Y-305909315D01*
X312041763Y-305645621D01*
X312163129Y-305352620D01*
X312225000Y-305041571D01*
X312225000Y-304724429D01*
X316505000Y-304724429D01*
X316505000Y-305041571D01*
X316566871Y-305352620D01*
X316688237Y-305645621D01*
X316864431Y-305909315D01*
X317088685Y-306133569D01*
X317352379Y-306309763D01*
X317645380Y-306431129D01*
X317956429Y-306493000D01*
X318273571Y-306493000D01*
X318584620Y-306431129D01*
X318877621Y-306309763D01*
X319141315Y-306133569D01*
X319365569Y-305909315D01*
X319541763Y-305645621D01*
X319663129Y-305352620D01*
X319725000Y-305041571D01*
X319725000Y-304724429D01*
X319663129Y-304413380D01*
X319541763Y-304120379D01*
X319365569Y-303856685D01*
X319141315Y-303632431D01*
X318877621Y-303456237D01*
X318584620Y-303334871D01*
X318273571Y-303273000D01*
X317956429Y-303273000D01*
X317645380Y-303334871D01*
X317352379Y-303456237D01*
X317088685Y-303632431D01*
X316864431Y-303856685D01*
X316688237Y-304120379D01*
X316566871Y-304413380D01*
X316505000Y-304724429D01*
X312225000Y-304724429D01*
X312163129Y-304413380D01*
X312041763Y-304120379D01*
X311865569Y-303856685D01*
X311674942Y-303666058D01*
X312498001Y-302843000D01*
X326738817Y-302843000D01*
X326694253Y-302989907D01*
X326675235Y-303183000D01*
X326680000Y-303231380D01*
X326680000Y-303571416D01*
X326588685Y-303632431D01*
X326364431Y-303856685D01*
X326188237Y-304120379D01*
X326066871Y-304413380D01*
X326005000Y-304724429D01*
X326005000Y-305041571D01*
X326066871Y-305352620D01*
X326188237Y-305645621D01*
X326364431Y-305909315D01*
X326588685Y-306133569D01*
X326852379Y-306309763D01*
X327145380Y-306431129D01*
X327456429Y-306493000D01*
X327773571Y-306493000D01*
X328084620Y-306431129D01*
X328377621Y-306309763D01*
X328641315Y-306133569D01*
X328865569Y-305909315D01*
X329041763Y-305645621D01*
X329163129Y-305352620D01*
X329225000Y-305041571D01*
X329225000Y-304724429D01*
X333505000Y-304724429D01*
X333505000Y-305041571D01*
X333566871Y-305352620D01*
X333688237Y-305645621D01*
X333864431Y-305909315D01*
X334088685Y-306133569D01*
X334352379Y-306309763D01*
X334645380Y-306431129D01*
X334956429Y-306493000D01*
X335273571Y-306493000D01*
X335584620Y-306431129D01*
X335877621Y-306309763D01*
X336141315Y-306133569D01*
X336365569Y-305909315D01*
X336541763Y-305645621D01*
X336663129Y-305352620D01*
X336725000Y-305041571D01*
X336725000Y-304724429D01*
X336663129Y-304413380D01*
X336541763Y-304120379D01*
X336365569Y-303856685D01*
X336141315Y-303632431D01*
X335877621Y-303456237D01*
X335584620Y-303334871D01*
X335273571Y-303273000D01*
X334956429Y-303273000D01*
X334645380Y-303334871D01*
X334352379Y-303456237D01*
X334088685Y-303632431D01*
X333864431Y-303856685D01*
X333688237Y-304120379D01*
X333566871Y-304413380D01*
X333505000Y-304724429D01*
X329225000Y-304724429D01*
X329163129Y-304413380D01*
X329041763Y-304120379D01*
X328865569Y-303856685D01*
X328650000Y-303641116D01*
X328650000Y-303591000D01*
X329398001Y-302843000D01*
X342679175Y-302843000D01*
X342675235Y-302883000D01*
X342680000Y-302931380D01*
X342680000Y-303571416D01*
X342588685Y-303632431D01*
X342364431Y-303856685D01*
X342188237Y-304120379D01*
X342066871Y-304413380D01*
X342005000Y-304724429D01*
X342005000Y-305041571D01*
X342066871Y-305352620D01*
X342188237Y-305645621D01*
X342364431Y-305909315D01*
X342588685Y-306133569D01*
X342852379Y-306309763D01*
X343145380Y-306431129D01*
X343456429Y-306493000D01*
X343773571Y-306493000D01*
X344084620Y-306431129D01*
X344377621Y-306309763D01*
X344641315Y-306133569D01*
X344865569Y-305909315D01*
X345041763Y-305645621D01*
X345163129Y-305352620D01*
X345225000Y-305041571D01*
X345225000Y-304724429D01*
X349505000Y-304724429D01*
X349505000Y-305041571D01*
X349566871Y-305352620D01*
X349688237Y-305645621D01*
X349864431Y-305909315D01*
X350088685Y-306133569D01*
X350352379Y-306309763D01*
X350645380Y-306431129D01*
X350956429Y-306493000D01*
X351273571Y-306493000D01*
X351584620Y-306431129D01*
X351877621Y-306309763D01*
X352141315Y-306133569D01*
X352365569Y-305909315D01*
X352541763Y-305645621D01*
X352663129Y-305352620D01*
X352725000Y-305041571D01*
X352725000Y-304724429D01*
X352663129Y-304413380D01*
X352541763Y-304120379D01*
X352365569Y-303856685D01*
X352141315Y-303632431D01*
X351877621Y-303456237D01*
X351584620Y-303334871D01*
X351273571Y-303273000D01*
X350956429Y-303273000D01*
X350645380Y-303334871D01*
X350352379Y-303456237D01*
X350088685Y-303632431D01*
X349864431Y-303856685D01*
X349688237Y-304120379D01*
X349566871Y-304413380D01*
X349505000Y-304724429D01*
X345225000Y-304724429D01*
X345163129Y-304413380D01*
X345041763Y-304120379D01*
X344865569Y-303856685D01*
X344650000Y-303641116D01*
X344650000Y-303291000D01*
X345098001Y-302843000D01*
X359684099Y-302843000D01*
X359675235Y-302933000D01*
X359680000Y-302981380D01*
X359680000Y-303571416D01*
X359588685Y-303632431D01*
X359364431Y-303856685D01*
X359188237Y-304120379D01*
X359066871Y-304413380D01*
X359005000Y-304724429D01*
X359005000Y-305041571D01*
X359066871Y-305352620D01*
X359188237Y-305645621D01*
X359364431Y-305909315D01*
X359588685Y-306133569D01*
X359852379Y-306309763D01*
X360145380Y-306431129D01*
X360456429Y-306493000D01*
X360773571Y-306493000D01*
X361084620Y-306431129D01*
X361377621Y-306309763D01*
X361641315Y-306133569D01*
X361865569Y-305909315D01*
X362041763Y-305645621D01*
X362163129Y-305352620D01*
X362225000Y-305041571D01*
X362225000Y-304724429D01*
X366505000Y-304724429D01*
X366505000Y-305041571D01*
X366566871Y-305352620D01*
X366688237Y-305645621D01*
X366864431Y-305909315D01*
X367088685Y-306133569D01*
X367352379Y-306309763D01*
X367645380Y-306431129D01*
X367956429Y-306493000D01*
X368273571Y-306493000D01*
X368584620Y-306431129D01*
X368877621Y-306309763D01*
X369141315Y-306133569D01*
X369365569Y-305909315D01*
X369541763Y-305645621D01*
X369663129Y-305352620D01*
X369725000Y-305041571D01*
X369725000Y-304724429D01*
X369663129Y-304413380D01*
X369541763Y-304120379D01*
X369365569Y-303856685D01*
X369141315Y-303632431D01*
X368877621Y-303456237D01*
X368584620Y-303334871D01*
X368273571Y-303273000D01*
X367956429Y-303273000D01*
X367645380Y-303334871D01*
X367352379Y-303456237D01*
X367088685Y-303632431D01*
X366864431Y-303856685D01*
X366688237Y-304120379D01*
X366566871Y-304413380D01*
X366505000Y-304724429D01*
X362225000Y-304724429D01*
X362163129Y-304413380D01*
X362041763Y-304120379D01*
X361865569Y-303856685D01*
X361650000Y-303641116D01*
X361650000Y-303341000D01*
X362148001Y-302843000D01*
X375680000Y-302843000D01*
X375680000Y-303571416D01*
X375588685Y-303632431D01*
X375364431Y-303856685D01*
X375188237Y-304120379D01*
X375066871Y-304413380D01*
X375005000Y-304724429D01*
X375005000Y-305041571D01*
X375066871Y-305352620D01*
X375188237Y-305645621D01*
X375364431Y-305909315D01*
X375588685Y-306133569D01*
X375852379Y-306309763D01*
X376145380Y-306431129D01*
X376456429Y-306493000D01*
X376773571Y-306493000D01*
X377084620Y-306431129D01*
X377377621Y-306309763D01*
X377641315Y-306133569D01*
X377865569Y-305909315D01*
X378041763Y-305645621D01*
X378163129Y-305352620D01*
X378225000Y-305041571D01*
X378225000Y-304724429D01*
X382505000Y-304724429D01*
X382505000Y-305041571D01*
X382566871Y-305352620D01*
X382688237Y-305645621D01*
X382864431Y-305909315D01*
X383088685Y-306133569D01*
X383352379Y-306309763D01*
X383645380Y-306431129D01*
X383956429Y-306493000D01*
X384273571Y-306493000D01*
X384584620Y-306431129D01*
X384877621Y-306309763D01*
X385141315Y-306133569D01*
X385365569Y-305909315D01*
X385541763Y-305645621D01*
X385663129Y-305352620D01*
X385725000Y-305041571D01*
X385725000Y-304724429D01*
X385663129Y-304413380D01*
X385541763Y-304120379D01*
X385365569Y-303856685D01*
X385141315Y-303632431D01*
X384877621Y-303456237D01*
X384584620Y-303334871D01*
X384273571Y-303273000D01*
X383956429Y-303273000D01*
X383645380Y-303334871D01*
X383352379Y-303456237D01*
X383088685Y-303632431D01*
X382864431Y-303856685D01*
X382688237Y-304120379D01*
X382566871Y-304413380D01*
X382505000Y-304724429D01*
X378225000Y-304724429D01*
X378163129Y-304413380D01*
X378041763Y-304120379D01*
X377865569Y-303856685D01*
X377650000Y-303641116D01*
X377650000Y-303191000D01*
X377998001Y-302843000D01*
X392693948Y-302843000D01*
X392675235Y-303033000D01*
X392680000Y-303081380D01*
X392680000Y-303571416D01*
X392588685Y-303632431D01*
X392364431Y-303856685D01*
X392188237Y-304120379D01*
X392066871Y-304413380D01*
X392005000Y-304724429D01*
X392005000Y-305041571D01*
X392066871Y-305352620D01*
X392188237Y-305645621D01*
X392364431Y-305909315D01*
X392588685Y-306133569D01*
X392852379Y-306309763D01*
X393145380Y-306431129D01*
X393456429Y-306493000D01*
X393773571Y-306493000D01*
X394084620Y-306431129D01*
X394377621Y-306309763D01*
X394641315Y-306133569D01*
X394865569Y-305909315D01*
X395041763Y-305645621D01*
X395163129Y-305352620D01*
X395225000Y-305041571D01*
X395225000Y-304724429D01*
X399505000Y-304724429D01*
X399505000Y-305041571D01*
X399566871Y-305352620D01*
X399688237Y-305645621D01*
X399864431Y-305909315D01*
X400088685Y-306133569D01*
X400352379Y-306309763D01*
X400645380Y-306431129D01*
X400956429Y-306493000D01*
X401273571Y-306493000D01*
X401584620Y-306431129D01*
X401877621Y-306309763D01*
X402141315Y-306133569D01*
X402365569Y-305909315D01*
X402541763Y-305645621D01*
X402663129Y-305352620D01*
X402725000Y-305041571D01*
X402725000Y-304724429D01*
X402663129Y-304413380D01*
X402541763Y-304120379D01*
X402365569Y-303856685D01*
X402141315Y-303632431D01*
X401877621Y-303456237D01*
X401584620Y-303334871D01*
X401273571Y-303273000D01*
X400956429Y-303273000D01*
X400645380Y-303334871D01*
X400352379Y-303456237D01*
X400088685Y-303632431D01*
X399864431Y-303856685D01*
X399688237Y-304120379D01*
X399566871Y-304413380D01*
X399505000Y-304724429D01*
X395225000Y-304724429D01*
X395163129Y-304413380D01*
X395041763Y-304120379D01*
X394865569Y-303856685D01*
X394650000Y-303641116D01*
X394650000Y-303441000D01*
X395248001Y-302843000D01*
X408693948Y-302843000D01*
X408675235Y-303033000D01*
X408680000Y-303081380D01*
X408680000Y-303571416D01*
X408588685Y-303632431D01*
X408364431Y-303856685D01*
X408188237Y-304120379D01*
X408066871Y-304413380D01*
X408005000Y-304724429D01*
X408005000Y-305041571D01*
X408066871Y-305352620D01*
X408188237Y-305645621D01*
X408364431Y-305909315D01*
X408588685Y-306133569D01*
X408852379Y-306309763D01*
X409145380Y-306431129D01*
X409456429Y-306493000D01*
X409773571Y-306493000D01*
X410084620Y-306431129D01*
X410377621Y-306309763D01*
X410641315Y-306133569D01*
X410865569Y-305909315D01*
X411041763Y-305645621D01*
X411163129Y-305352620D01*
X411225000Y-305041571D01*
X411225000Y-304724429D01*
X415505000Y-304724429D01*
X415505000Y-305041571D01*
X415566871Y-305352620D01*
X415688237Y-305645621D01*
X415864431Y-305909315D01*
X416088685Y-306133569D01*
X416352379Y-306309763D01*
X416645380Y-306431129D01*
X416956429Y-306493000D01*
X417273571Y-306493000D01*
X417584620Y-306431129D01*
X417877621Y-306309763D01*
X418141315Y-306133569D01*
X418365569Y-305909315D01*
X418541763Y-305645621D01*
X418663129Y-305352620D01*
X418725000Y-305041571D01*
X418725000Y-304724429D01*
X418663129Y-304413380D01*
X418541763Y-304120379D01*
X418365569Y-303856685D01*
X418141315Y-303632431D01*
X417877621Y-303456237D01*
X417584620Y-303334871D01*
X417273571Y-303273000D01*
X416956429Y-303273000D01*
X416645380Y-303334871D01*
X416352379Y-303456237D01*
X416088685Y-303632431D01*
X415864431Y-303856685D01*
X415688237Y-304120379D01*
X415566871Y-304413380D01*
X415505000Y-304724429D01*
X411225000Y-304724429D01*
X411163129Y-304413380D01*
X411041763Y-304120379D01*
X410865569Y-303856685D01*
X410650000Y-303641116D01*
X410650000Y-303441000D01*
X411248001Y-302843000D01*
X425680000Y-302843000D01*
X425680000Y-303571416D01*
X425588685Y-303632431D01*
X425364431Y-303856685D01*
X425188237Y-304120379D01*
X425066871Y-304413380D01*
X425005000Y-304724429D01*
X425005000Y-305041571D01*
X425066871Y-305352620D01*
X425188237Y-305645621D01*
X425364431Y-305909315D01*
X425588685Y-306133569D01*
X425852379Y-306309763D01*
X426145380Y-306431129D01*
X426456429Y-306493000D01*
X426773571Y-306493000D01*
X427084620Y-306431129D01*
X427377621Y-306309763D01*
X427641315Y-306133569D01*
X427865569Y-305909315D01*
X428041763Y-305645621D01*
X428163129Y-305352620D01*
X428225000Y-305041571D01*
X428225000Y-304724429D01*
X432505000Y-304724429D01*
X432505000Y-305041571D01*
X432566871Y-305352620D01*
X432688237Y-305645621D01*
X432864431Y-305909315D01*
X433088685Y-306133569D01*
X433352379Y-306309763D01*
X433645380Y-306431129D01*
X433956429Y-306493000D01*
X434273571Y-306493000D01*
X434584620Y-306431129D01*
X434877621Y-306309763D01*
X435141315Y-306133569D01*
X435365569Y-305909315D01*
X435541763Y-305645621D01*
X435663129Y-305352620D01*
X435725000Y-305041571D01*
X435725000Y-304724429D01*
X435663129Y-304413380D01*
X435541763Y-304120379D01*
X435365569Y-303856685D01*
X435141315Y-303632431D01*
X434877621Y-303456237D01*
X434584620Y-303334871D01*
X434273571Y-303273000D01*
X433956429Y-303273000D01*
X433645380Y-303334871D01*
X433352379Y-303456237D01*
X433088685Y-303632431D01*
X432864431Y-303856685D01*
X432688237Y-304120379D01*
X432566871Y-304413380D01*
X432505000Y-304724429D01*
X428225000Y-304724429D01*
X428163129Y-304413380D01*
X428041763Y-304120379D01*
X427865569Y-303856685D01*
X427650000Y-303641116D01*
X427650000Y-303191000D01*
X427998001Y-302843000D01*
X440982000Y-302843000D01*
X441680001Y-303541001D01*
X441680001Y-303571416D01*
X441588685Y-303632431D01*
X441364431Y-303856685D01*
X441188237Y-304120379D01*
X441066871Y-304413380D01*
X441005000Y-304724429D01*
X441005000Y-305041571D01*
X441066871Y-305352620D01*
X441188237Y-305645621D01*
X441364431Y-305909315D01*
X441588685Y-306133569D01*
X441852379Y-306309763D01*
X442145380Y-306431129D01*
X442456429Y-306493000D01*
X442773571Y-306493000D01*
X443084620Y-306431129D01*
X443377621Y-306309763D01*
X443641315Y-306133569D01*
X443865569Y-305909315D01*
X444041763Y-305645621D01*
X444163129Y-305352620D01*
X444225000Y-305041571D01*
X444225000Y-304724429D01*
X448505000Y-304724429D01*
X448505000Y-305041571D01*
X448566871Y-305352620D01*
X448688237Y-305645621D01*
X448864431Y-305909315D01*
X449088685Y-306133569D01*
X449352379Y-306309763D01*
X449645380Y-306431129D01*
X449956429Y-306493000D01*
X450273571Y-306493000D01*
X450584620Y-306431129D01*
X450877621Y-306309763D01*
X451141315Y-306133569D01*
X451365569Y-305909315D01*
X451541763Y-305645621D01*
X451663129Y-305352620D01*
X451725000Y-305041571D01*
X451725000Y-304724429D01*
X451663129Y-304413380D01*
X451541763Y-304120379D01*
X451365569Y-303856685D01*
X451141315Y-303632431D01*
X450877621Y-303456237D01*
X450584620Y-303334871D01*
X450273571Y-303273000D01*
X449956429Y-303273000D01*
X449645380Y-303334871D01*
X449352379Y-303456237D01*
X449088685Y-303632431D01*
X448864431Y-303856685D01*
X448688237Y-304120379D01*
X448566871Y-304413380D01*
X448505000Y-304724429D01*
X444225000Y-304724429D01*
X444163129Y-304413380D01*
X444041763Y-304120379D01*
X443865569Y-303856685D01*
X443650000Y-303641116D01*
X443650000Y-303181379D01*
X443654765Y-303132999D01*
X443635747Y-302939905D01*
X443622638Y-302896691D01*
X443579424Y-302754233D01*
X443487960Y-302583116D01*
X443364870Y-302433130D01*
X443327284Y-302402284D01*
X442120716Y-301195716D01*
X442089870Y-301158130D01*
X441939884Y-301035040D01*
X441768767Y-300943576D01*
X441583094Y-300887253D01*
X441438380Y-300873000D01*
X441390000Y-300868235D01*
X441341620Y-300873000D01*
X427638380Y-300873000D01*
X427590000Y-300868235D01*
X427541620Y-300873000D01*
X410888380Y-300873000D01*
X410840000Y-300868235D01*
X410791620Y-300873000D01*
X394888380Y-300873000D01*
X394840000Y-300868235D01*
X394791620Y-300873000D01*
X377638380Y-300873000D01*
X377590000Y-300868235D01*
X377541620Y-300873000D01*
X361788380Y-300873000D01*
X361740000Y-300868235D01*
X361691620Y-300873000D01*
X344738380Y-300873000D01*
X344690000Y-300868235D01*
X344641620Y-300873000D01*
X329038380Y-300873000D01*
X328990000Y-300868235D01*
X328941620Y-300873000D01*
X312138379Y-300873000D01*
X312089999Y-300868235D01*
X312041619Y-300873000D01*
X295738380Y-300873000D01*
X295690000Y-300868235D01*
X295641620Y-300873000D01*
X292250380Y-300873000D01*
X292202000Y-300868235D01*
X292153620Y-300873000D01*
X292008906Y-300887253D01*
X291823233Y-300943576D01*
X291652116Y-301035040D01*
X291502130Y-301158130D01*
X291471289Y-301195710D01*
X289509711Y-303157289D01*
X289472131Y-303188130D01*
X289349041Y-303338116D01*
X289328742Y-303376093D01*
X289283464Y-303460801D01*
X289283464Y-296835000D01*
X291369376Y-296835000D01*
X291377273Y-296915184D01*
%TD*%
M02*
