%TF.GenerationSoftware,KiCad,Pcbnew,(5.1.6)-1*%
%TF.CreationDate,2020-09-13T22:12:45+02:00*%
%TF.ProjectId,boneIO - relay board,626f6e65-494f-4202-9d20-72656c617920,rev?*%
%TF.SameCoordinates,Original*%
%TF.FileFunction,Copper,L2,Bot*%
%TF.FilePolarity,Positive*%
%FSLAX46Y46*%
G04 Gerber Fmt 4.6, Leading zero omitted, Abs format (unit mm)*
G04 Created by KiCad (PCBNEW (5.1.6)-1) date 2020-09-13 22:12:46*
%MOMM*%
%LPD*%
G01*
G04 APERTURE LIST*
%TA.AperFunction,ComponentPad*%
%ADD10C,1.950000*%
%TD*%
%TA.AperFunction,ComponentPad*%
%ADD11R,1.700000X1.700000*%
%TD*%
%TA.AperFunction,ComponentPad*%
%ADD12O,1.700000X1.700000*%
%TD*%
%TA.AperFunction,ComponentPad*%
%ADD13R,2.500000X2.500000*%
%TD*%
%TA.AperFunction,ComponentPad*%
%ADD14C,2.500000*%
%TD*%
%TA.AperFunction,Conductor*%
%ADD15C,0.500000*%
%TD*%
%TA.AperFunction,Conductor*%
%ADD16C,1.000000*%
%TD*%
G04 APERTURE END LIST*
D10*
%TO.P,K1,A2*%
%TO.N,+5V*%
X302640000Y-329508000D03*
%TO.P,K1,A1*%
%TO.N,Net-(D1-Pad2)*%
X295140000Y-329508000D03*
%TO.P,K1,24*%
%TO.N,Net-(J1-Pad3)*%
X302640000Y-354708000D03*
%TO.P,K1,22*%
%TO.N,Net-(K1-Pad22)*%
X302640000Y-344708000D03*
%TO.P,K1,21*%
%TO.N,Net-(K1-Pad21)*%
X302640000Y-349708000D03*
%TO.P,K1,14*%
%TO.N,Net-(K1-Pad14)*%
X295140000Y-354708000D03*
%TO.P,K1,12*%
%TO.N,Net-(K1-Pad12)*%
X295140000Y-344708000D03*
%TO.P,K1,11*%
%TO.N,Net-(J1-Pad4)*%
X295140000Y-349708000D03*
%TD*%
%TO.P,K5,A2*%
%TO.N,+5V*%
X368640000Y-329508000D03*
%TO.P,K5,A1*%
%TO.N,Net-(D5-Pad2)*%
X361140000Y-329508000D03*
%TO.P,K5,24*%
%TO.N,Net-(J3-Pad3)*%
X368640000Y-354708000D03*
%TO.P,K5,22*%
%TO.N,Net-(K5-Pad22)*%
X368640000Y-344708000D03*
%TO.P,K5,21*%
%TO.N,Net-(K5-Pad21)*%
X368640000Y-349708000D03*
%TO.P,K5,14*%
%TO.N,Net-(K5-Pad14)*%
X361140000Y-354708000D03*
%TO.P,K5,12*%
%TO.N,Net-(K5-Pad12)*%
X361140000Y-344708000D03*
%TO.P,K5,11*%
%TO.N,Net-(J3-Pad4)*%
X361140000Y-349708000D03*
%TD*%
%TO.P,K2,11*%
%TO.N,Net-(J1-Pad2)*%
X311140000Y-349708000D03*
%TO.P,K2,12*%
%TO.N,Net-(K2-Pad12)*%
X311140000Y-344708000D03*
%TO.P,K2,14*%
%TO.N,Net-(K2-Pad14)*%
X311140000Y-354708000D03*
%TO.P,K2,21*%
%TO.N,Net-(K2-Pad21)*%
X318640000Y-349708000D03*
%TO.P,K2,22*%
%TO.N,Net-(K2-Pad22)*%
X318640000Y-344708000D03*
%TO.P,K2,24*%
%TO.N,Net-(J1-Pad1)*%
X318640000Y-354708000D03*
%TO.P,K2,A1*%
%TO.N,Net-(D2-Pad2)*%
X311140000Y-329508000D03*
%TO.P,K2,A2*%
%TO.N,+5V*%
X318640000Y-329508000D03*
%TD*%
%TO.P,K3,A2*%
%TO.N,+5V*%
X335640000Y-329508000D03*
%TO.P,K3,A1*%
%TO.N,Net-(D3-Pad2)*%
X328140000Y-329508000D03*
%TO.P,K3,24*%
%TO.N,Net-(J2-Pad3)*%
X335640000Y-354708000D03*
%TO.P,K3,22*%
%TO.N,Net-(K3-Pad22)*%
X335640000Y-344708000D03*
%TO.P,K3,21*%
%TO.N,Net-(K3-Pad21)*%
X335640000Y-349708000D03*
%TO.P,K3,14*%
%TO.N,Net-(K3-Pad14)*%
X328140000Y-354708000D03*
%TO.P,K3,12*%
%TO.N,Net-(K3-Pad12)*%
X328140000Y-344708000D03*
%TO.P,K3,11*%
%TO.N,Net-(J2-Pad4)*%
X328140000Y-349708000D03*
%TD*%
%TO.P,K4,A2*%
%TO.N,+5V*%
X351640000Y-329508000D03*
%TO.P,K4,A1*%
%TO.N,Net-(D4-Pad2)*%
X344140000Y-329508000D03*
%TO.P,K4,24*%
%TO.N,Net-(J2-Pad1)*%
X351640000Y-354708000D03*
%TO.P,K4,22*%
%TO.N,Net-(K4-Pad22)*%
X351640000Y-344708000D03*
%TO.P,K4,21*%
%TO.N,Net-(K4-Pad21)*%
X351640000Y-349708000D03*
%TO.P,K4,14*%
%TO.N,Net-(K4-Pad14)*%
X344140000Y-354708000D03*
%TO.P,K4,12*%
%TO.N,Net-(K4-Pad12)*%
X344140000Y-344708000D03*
%TO.P,K4,11*%
%TO.N,Net-(J2-Pad2)*%
X344140000Y-349708000D03*
%TD*%
%TO.P,K6,A2*%
%TO.N,+5V*%
X384640000Y-329508000D03*
%TO.P,K6,A1*%
%TO.N,Net-(D6-Pad2)*%
X377140000Y-329508000D03*
%TO.P,K6,24*%
%TO.N,Net-(J3-Pad1)*%
X384640000Y-354708000D03*
%TO.P,K6,22*%
%TO.N,Net-(K6-Pad22)*%
X384640000Y-344708000D03*
%TO.P,K6,21*%
%TO.N,Net-(K6-Pad21)*%
X384640000Y-349708000D03*
%TO.P,K6,14*%
%TO.N,Net-(K6-Pad14)*%
X377140000Y-354708000D03*
%TO.P,K6,12*%
%TO.N,Net-(K6-Pad12)*%
X377140000Y-344708000D03*
%TO.P,K6,11*%
%TO.N,Net-(J3-Pad2)*%
X377140000Y-349708000D03*
%TD*%
%TO.P,K7,11*%
%TO.N,Net-(J4-Pad4)*%
X394140000Y-349708000D03*
%TO.P,K7,12*%
%TO.N,Net-(K7-Pad12)*%
X394140000Y-344708000D03*
%TO.P,K7,14*%
%TO.N,Net-(K7-Pad14)*%
X394140000Y-354708000D03*
%TO.P,K7,21*%
%TO.N,Net-(K7-Pad21)*%
X401640000Y-349708000D03*
%TO.P,K7,22*%
%TO.N,Net-(K7-Pad22)*%
X401640000Y-344708000D03*
%TO.P,K7,24*%
%TO.N,Net-(J4-Pad3)*%
X401640000Y-354708000D03*
%TO.P,K7,A1*%
%TO.N,Net-(D7-Pad2)*%
X394140000Y-329508000D03*
%TO.P,K7,A2*%
%TO.N,+5V*%
X401640000Y-329508000D03*
%TD*%
%TO.P,K8,11*%
%TO.N,Net-(J4-Pad2)*%
X410140000Y-349708000D03*
%TO.P,K8,12*%
%TO.N,Net-(K8-Pad12)*%
X410140000Y-344708000D03*
%TO.P,K8,14*%
%TO.N,Net-(K8-Pad14)*%
X410140000Y-354708000D03*
%TO.P,K8,21*%
%TO.N,Net-(K8-Pad21)*%
X417640000Y-349708000D03*
%TO.P,K8,22*%
%TO.N,Net-(K8-Pad22)*%
X417640000Y-344708000D03*
%TO.P,K8,24*%
%TO.N,Net-(J4-Pad1)*%
X417640000Y-354708000D03*
%TO.P,K8,A1*%
%TO.N,Net-(D8-Pad2)*%
X410140000Y-329508000D03*
%TO.P,K8,A2*%
%TO.N,+5V*%
X417640000Y-329508000D03*
%TD*%
%TO.P,K10,11*%
%TO.N,Net-(J5-Pad2)*%
X443140000Y-349708000D03*
%TO.P,K10,12*%
%TO.N,Net-(K10-Pad12)*%
X443140000Y-344708000D03*
%TO.P,K10,14*%
%TO.N,Net-(K10-Pad14)*%
X443140000Y-354708000D03*
%TO.P,K10,21*%
%TO.N,Net-(K10-Pad21)*%
X450640000Y-349708000D03*
%TO.P,K10,22*%
%TO.N,Net-(K10-Pad22)*%
X450640000Y-344708000D03*
%TO.P,K10,24*%
%TO.N,Net-(J5-Pad1)*%
X450640000Y-354708000D03*
%TO.P,K10,A1*%
%TO.N,Net-(D10-Pad2)*%
X443140000Y-329508000D03*
%TO.P,K10,A2*%
%TO.N,+5V*%
X450640000Y-329508000D03*
%TD*%
%TO.P,K9,11*%
%TO.N,Net-(J5-Pad4)*%
X427140000Y-349708000D03*
%TO.P,K9,12*%
%TO.N,Net-(K9-Pad12)*%
X427140000Y-344708000D03*
%TO.P,K9,14*%
%TO.N,Net-(K9-Pad14)*%
X427140000Y-354708000D03*
%TO.P,K9,21*%
%TO.N,Net-(K9-Pad21)*%
X434640000Y-349708000D03*
%TO.P,K9,22*%
%TO.N,Net-(K9-Pad22)*%
X434640000Y-344708000D03*
%TO.P,K9,24*%
%TO.N,Net-(J5-Pad3)*%
X434640000Y-354708000D03*
%TO.P,K9,A1*%
%TO.N,Net-(D9-Pad2)*%
X427140000Y-329508000D03*
%TO.P,K9,A2*%
%TO.N,+5V*%
X434640000Y-329508000D03*
%TD*%
%TO.P,K19,A2*%
%TO.N,+5V*%
X426640000Y-299908000D03*
%TO.P,K19,A1*%
%TO.N,Net-(D19-Pad2)*%
X434140000Y-299908000D03*
%TO.P,K19,24*%
%TO.N,Net-(J11-Pad1)*%
X426640000Y-274708000D03*
%TO.P,K19,22*%
%TO.N,Net-(K19-Pad22)*%
X426640000Y-284708000D03*
%TO.P,K19,21*%
%TO.N,Net-(K19-Pad21)*%
X426640000Y-279708000D03*
%TO.P,K19,14*%
%TO.N,Net-(K19-Pad14)*%
X434140000Y-274708000D03*
%TO.P,K19,12*%
%TO.N,Net-(K19-Pad12)*%
X434140000Y-284708000D03*
%TO.P,K19,11*%
%TO.N,Net-(J11-Pad2)*%
X434140000Y-279708000D03*
%TD*%
%TO.P,K13,A2*%
%TO.N,+5V*%
X327640000Y-299908000D03*
%TO.P,K13,A1*%
%TO.N,Net-(D13-Pad2)*%
X335140000Y-299908000D03*
%TO.P,K13,24*%
%TO.N,Net-(J8-Pad1)*%
X327640000Y-274708000D03*
%TO.P,K13,22*%
%TO.N,Net-(K13-Pad22)*%
X327640000Y-284708000D03*
%TO.P,K13,21*%
%TO.N,Net-(K13-Pad21)*%
X327640000Y-279708000D03*
%TO.P,K13,14*%
%TO.N,Net-(K13-Pad14)*%
X335140000Y-274708000D03*
%TO.P,K13,12*%
%TO.N,Net-(K13-Pad12)*%
X335140000Y-284708000D03*
%TO.P,K13,11*%
%TO.N,Net-(J8-Pad2)*%
X335140000Y-279708000D03*
%TD*%
D11*
%TO.P,J6,1*%
%TO.N,+5V*%
X359140000Y-315708000D03*
D12*
%TO.P,J6,2*%
%TO.N,GND*%
X359140000Y-313168000D03*
%TO.P,J6,3*%
%TO.N,Net-(J6-Pad3)*%
X361680000Y-315708000D03*
%TO.P,J6,4*%
%TO.N,Net-(J6-Pad4)*%
X361680000Y-313168000D03*
%TO.P,J6,5*%
%TO.N,Net-(J6-Pad5)*%
X364220000Y-315708000D03*
%TO.P,J6,6*%
%TO.N,Net-(J6-Pad6)*%
X364220000Y-313168000D03*
%TO.P,J6,7*%
%TO.N,Net-(J6-Pad7)*%
X366760000Y-315708000D03*
%TO.P,J6,8*%
%TO.N,Net-(J6-Pad8)*%
X366760000Y-313168000D03*
%TO.P,J6,9*%
%TO.N,Net-(J6-Pad9)*%
X369300000Y-315708000D03*
%TO.P,J6,10*%
%TO.N,Net-(J6-Pad10)*%
X369300000Y-313168000D03*
%TO.P,J6,11*%
%TO.N,Net-(J6-Pad11)*%
X371840000Y-315708000D03*
%TO.P,J6,12*%
%TO.N,Net-(J6-Pad12)*%
X371840000Y-313168000D03*
%TO.P,J6,13*%
%TO.N,Net-(J6-Pad13)*%
X374380000Y-315708000D03*
%TO.P,J6,14*%
%TO.N,Net-(J6-Pad14)*%
X374380000Y-313168000D03*
%TO.P,J6,15*%
%TO.N,Net-(J6-Pad15)*%
X376920000Y-315708000D03*
%TO.P,J6,16*%
%TO.N,Net-(J6-Pad16)*%
X376920000Y-313168000D03*
%TO.P,J6,17*%
%TO.N,Net-(J6-Pad17)*%
X379460000Y-315708000D03*
%TO.P,J6,18*%
%TO.N,Net-(J6-Pad18)*%
X379460000Y-313168000D03*
%TO.P,J6,19*%
%TO.N,Net-(J6-Pad19)*%
X382000000Y-315708000D03*
%TO.P,J6,20*%
%TO.N,Net-(J6-Pad20)*%
X382000000Y-313168000D03*
%TO.P,J6,21*%
%TO.N,Net-(J6-Pad21)*%
X384540000Y-315708000D03*
%TO.P,J6,22*%
%TO.N,Net-(J6-Pad22)*%
X384540000Y-313168000D03*
%TD*%
D10*
%TO.P,K11,11*%
%TO.N,Net-(J7-Pad2)*%
X302140000Y-279708000D03*
%TO.P,K11,12*%
%TO.N,Net-(K11-Pad12)*%
X302140000Y-284708000D03*
%TO.P,K11,14*%
%TO.N,Net-(K11-Pad14)*%
X302140000Y-274708000D03*
%TO.P,K11,21*%
%TO.N,Net-(K11-Pad21)*%
X294640000Y-279708000D03*
%TO.P,K11,22*%
%TO.N,Net-(K11-Pad22)*%
X294640000Y-284708000D03*
%TO.P,K11,24*%
%TO.N,Net-(J7-Pad1)*%
X294640000Y-274708000D03*
%TO.P,K11,A1*%
%TO.N,Net-(D11-Pad2)*%
X302140000Y-299908000D03*
%TO.P,K11,A2*%
%TO.N,+5V*%
X294640000Y-299908000D03*
%TD*%
%TO.P,K12,11*%
%TO.N,Net-(J7-Pad4)*%
X318140000Y-279708000D03*
%TO.P,K12,12*%
%TO.N,Net-(K12-Pad12)*%
X318140000Y-284708000D03*
%TO.P,K12,14*%
%TO.N,Net-(K12-Pad14)*%
X318140000Y-274708000D03*
%TO.P,K12,21*%
%TO.N,Net-(K12-Pad21)*%
X310640000Y-279708000D03*
%TO.P,K12,22*%
%TO.N,Net-(K12-Pad22)*%
X310640000Y-284708000D03*
%TO.P,K12,24*%
%TO.N,Net-(J7-Pad3)*%
X310640000Y-274708000D03*
%TO.P,K12,A1*%
%TO.N,Net-(D12-Pad2)*%
X318140000Y-299908000D03*
%TO.P,K12,A2*%
%TO.N,+5V*%
X310640000Y-299908000D03*
%TD*%
%TO.P,K14,A2*%
%TO.N,+5V*%
X343640000Y-299908000D03*
%TO.P,K14,A1*%
%TO.N,Net-(D14-Pad2)*%
X351140000Y-299908000D03*
%TO.P,K14,24*%
%TO.N,Net-(J8-Pad3)*%
X343640000Y-274708000D03*
%TO.P,K14,22*%
%TO.N,Net-(K14-Pad22)*%
X343640000Y-284708000D03*
%TO.P,K14,21*%
%TO.N,Net-(K14-Pad21)*%
X343640000Y-279708000D03*
%TO.P,K14,14*%
%TO.N,Net-(K14-Pad14)*%
X351140000Y-274708000D03*
%TO.P,K14,12*%
%TO.N,Net-(K14-Pad12)*%
X351140000Y-284708000D03*
%TO.P,K14,11*%
%TO.N,Net-(J8-Pad4)*%
X351140000Y-279708000D03*
%TD*%
%TO.P,K15,11*%
%TO.N,Net-(J9-Pad2)*%
X368140000Y-279708000D03*
%TO.P,K15,12*%
%TO.N,Net-(K15-Pad12)*%
X368140000Y-284708000D03*
%TO.P,K15,14*%
%TO.N,Net-(K15-Pad14)*%
X368140000Y-274708000D03*
%TO.P,K15,21*%
%TO.N,Net-(K15-Pad21)*%
X360640000Y-279708000D03*
%TO.P,K15,22*%
%TO.N,Net-(K15-Pad22)*%
X360640000Y-284708000D03*
%TO.P,K15,24*%
%TO.N,Net-(J9-Pad1)*%
X360640000Y-274708000D03*
%TO.P,K15,A1*%
%TO.N,Net-(D15-Pad2)*%
X368140000Y-299908000D03*
%TO.P,K15,A2*%
%TO.N,+5V*%
X360640000Y-299908000D03*
%TD*%
%TO.P,K16,11*%
%TO.N,Net-(J9-Pad4)*%
X384140000Y-279708000D03*
%TO.P,K16,12*%
%TO.N,Net-(K16-Pad12)*%
X384140000Y-284708000D03*
%TO.P,K16,14*%
%TO.N,Net-(K16-Pad14)*%
X384140000Y-274708000D03*
%TO.P,K16,21*%
%TO.N,Net-(K16-Pad21)*%
X376640000Y-279708000D03*
%TO.P,K16,22*%
%TO.N,Net-(K16-Pad22)*%
X376640000Y-284708000D03*
%TO.P,K16,24*%
%TO.N,Net-(J9-Pad3)*%
X376640000Y-274708000D03*
%TO.P,K16,A1*%
%TO.N,Net-(D16-Pad2)*%
X384140000Y-299908000D03*
%TO.P,K16,A2*%
%TO.N,+5V*%
X376640000Y-299908000D03*
%TD*%
%TO.P,K17,11*%
%TO.N,Net-(J10-Pad2)*%
X401140000Y-279708000D03*
%TO.P,K17,12*%
%TO.N,Net-(K17-Pad12)*%
X401140000Y-284708000D03*
%TO.P,K17,14*%
%TO.N,Net-(K17-Pad14)*%
X401140000Y-274708000D03*
%TO.P,K17,21*%
%TO.N,Net-(K17-Pad21)*%
X393640000Y-279708000D03*
%TO.P,K17,22*%
%TO.N,Net-(K17-Pad22)*%
X393640000Y-284708000D03*
%TO.P,K17,24*%
%TO.N,Net-(J10-Pad1)*%
X393640000Y-274708000D03*
%TO.P,K17,A1*%
%TO.N,Net-(D17-Pad2)*%
X401140000Y-299908000D03*
%TO.P,K17,A2*%
%TO.N,+5V*%
X393640000Y-299908000D03*
%TD*%
%TO.P,K18,A2*%
%TO.N,+5V*%
X409640000Y-299908000D03*
%TO.P,K18,A1*%
%TO.N,Net-(D18-Pad2)*%
X417140000Y-299908000D03*
%TO.P,K18,24*%
%TO.N,Net-(J10-Pad3)*%
X409640000Y-274708000D03*
%TO.P,K18,22*%
%TO.N,Net-(K18-Pad22)*%
X409640000Y-284708000D03*
%TO.P,K18,21*%
%TO.N,Net-(K18-Pad21)*%
X409640000Y-279708000D03*
%TO.P,K18,14*%
%TO.N,Net-(K18-Pad14)*%
X417140000Y-274708000D03*
%TO.P,K18,12*%
%TO.N,Net-(K18-Pad12)*%
X417140000Y-284708000D03*
%TO.P,K18,11*%
%TO.N,Net-(J10-Pad4)*%
X417140000Y-279708000D03*
%TD*%
%TO.P,K20,A2*%
%TO.N,+5V*%
X442640000Y-299908000D03*
%TO.P,K20,A1*%
%TO.N,Net-(D20-Pad2)*%
X450140000Y-299908000D03*
%TO.P,K20,24*%
%TO.N,Net-(J11-Pad3)*%
X442640000Y-274708000D03*
%TO.P,K20,22*%
%TO.N,Net-(K20-Pad22)*%
X442640000Y-284708000D03*
%TO.P,K20,21*%
%TO.N,Net-(K20-Pad21)*%
X442640000Y-279708000D03*
%TO.P,K20,14*%
%TO.N,Net-(K20-Pad14)*%
X450140000Y-274708000D03*
%TO.P,K20,12*%
%TO.N,Net-(K20-Pad12)*%
X450140000Y-284708000D03*
%TO.P,K20,11*%
%TO.N,Net-(J11-Pad4)*%
X450140000Y-279708000D03*
%TD*%
D13*
%TO.P,J1,1*%
%TO.N,Net-(J1-Pad1)*%
X318140000Y-362708000D03*
D14*
%TO.P,J1,2*%
%TO.N,Net-(J1-Pad2)*%
X310640000Y-362708000D03*
%TO.P,J1,3*%
%TO.N,Net-(J1-Pad3)*%
X303140000Y-362708000D03*
%TO.P,J1,4*%
%TO.N,Net-(J1-Pad4)*%
X295640000Y-362708000D03*
%TD*%
%TO.P,J2,4*%
%TO.N,Net-(J2-Pad4)*%
X328640000Y-362708000D03*
%TO.P,J2,3*%
%TO.N,Net-(J2-Pad3)*%
X336140000Y-362708000D03*
%TO.P,J2,2*%
%TO.N,Net-(J2-Pad2)*%
X343640000Y-362708000D03*
D13*
%TO.P,J2,1*%
%TO.N,Net-(J2-Pad1)*%
X351140000Y-362708000D03*
%TD*%
%TO.P,J3,1*%
%TO.N,Net-(J3-Pad1)*%
X384140000Y-362708000D03*
D14*
%TO.P,J3,2*%
%TO.N,Net-(J3-Pad2)*%
X376640000Y-362708000D03*
%TO.P,J3,3*%
%TO.N,Net-(J3-Pad3)*%
X369140000Y-362708000D03*
%TO.P,J3,4*%
%TO.N,Net-(J3-Pad4)*%
X361640000Y-362708000D03*
%TD*%
%TO.P,J4,4*%
%TO.N,Net-(J4-Pad4)*%
X394640000Y-362708000D03*
%TO.P,J4,3*%
%TO.N,Net-(J4-Pad3)*%
X402140000Y-362708000D03*
%TO.P,J4,2*%
%TO.N,Net-(J4-Pad2)*%
X409640000Y-362708000D03*
D13*
%TO.P,J4,1*%
%TO.N,Net-(J4-Pad1)*%
X417140000Y-362708000D03*
%TD*%
%TO.P,J5,1*%
%TO.N,Net-(J5-Pad1)*%
X450140000Y-362708000D03*
D14*
%TO.P,J5,2*%
%TO.N,Net-(J5-Pad2)*%
X442640000Y-362708000D03*
%TO.P,J5,3*%
%TO.N,Net-(J5-Pad3)*%
X435140000Y-362708000D03*
%TO.P,J5,4*%
%TO.N,Net-(J5-Pad4)*%
X427640000Y-362708000D03*
%TD*%
D13*
%TO.P,J10,1*%
%TO.N,Net-(J10-Pad1)*%
X394140000Y-266708000D03*
D14*
%TO.P,J10,2*%
%TO.N,Net-(J10-Pad2)*%
X401640000Y-266708000D03*
%TO.P,J10,3*%
%TO.N,Net-(J10-Pad3)*%
X409140000Y-266708000D03*
%TO.P,J10,4*%
%TO.N,Net-(J10-Pad4)*%
X416640000Y-266708000D03*
%TD*%
%TO.P,J11,4*%
%TO.N,Net-(J11-Pad4)*%
X449640000Y-266708000D03*
%TO.P,J11,3*%
%TO.N,Net-(J11-Pad3)*%
X442140000Y-266708000D03*
%TO.P,J11,2*%
%TO.N,Net-(J11-Pad2)*%
X434640000Y-266708000D03*
D13*
%TO.P,J11,1*%
%TO.N,Net-(J11-Pad1)*%
X427140000Y-266708000D03*
%TD*%
%TO.P,J9,1*%
%TO.N,Net-(J9-Pad1)*%
X361140000Y-266708000D03*
D14*
%TO.P,J9,2*%
%TO.N,Net-(J9-Pad2)*%
X368640000Y-266708000D03*
%TO.P,J9,3*%
%TO.N,Net-(J9-Pad3)*%
X376140000Y-266708000D03*
%TO.P,J9,4*%
%TO.N,Net-(J9-Pad4)*%
X383640000Y-266708000D03*
%TD*%
%TO.P,J8,4*%
%TO.N,Net-(J8-Pad4)*%
X350640000Y-266708000D03*
%TO.P,J8,3*%
%TO.N,Net-(J8-Pad3)*%
X343140000Y-266708000D03*
%TO.P,J8,2*%
%TO.N,Net-(J8-Pad2)*%
X335640000Y-266708000D03*
D13*
%TO.P,J8,1*%
%TO.N,Net-(J8-Pad1)*%
X328140000Y-266708000D03*
%TD*%
D14*
%TO.P,J7,4*%
%TO.N,Net-(J7-Pad4)*%
X317640000Y-266708000D03*
%TO.P,J7,3*%
%TO.N,Net-(J7-Pad3)*%
X310140000Y-266708000D03*
%TO.P,J7,2*%
%TO.N,Net-(J7-Pad2)*%
X302640000Y-266708000D03*
D13*
%TO.P,J7,1*%
%TO.N,Net-(J7-Pad1)*%
X295140000Y-266708000D03*
%TD*%
D15*
%TO.N,+5V*%
X309214999Y-301333001D02*
X310640000Y-299908000D01*
X296065001Y-301333001D02*
X309214999Y-301333001D01*
X294640000Y-299908000D02*
X296065001Y-301333001D01*
X326214999Y-301333001D02*
X327640000Y-299908000D01*
X312065001Y-301333001D02*
X326214999Y-301333001D01*
X310640000Y-299908000D02*
X312065001Y-301333001D01*
X342214999Y-301333001D02*
X343640000Y-299908000D01*
X329065001Y-301333001D02*
X342214999Y-301333001D01*
X327640000Y-299908000D02*
X329065001Y-301333001D01*
X359214999Y-301333001D02*
X360640000Y-299908000D01*
X345065001Y-301333001D02*
X359214999Y-301333001D01*
X343640000Y-299908000D02*
X345065001Y-301333001D01*
X375214999Y-301333001D02*
X376640000Y-299908000D01*
X362065001Y-301333001D02*
X375214999Y-301333001D01*
X360640000Y-299908000D02*
X362065001Y-301333001D01*
X392214999Y-301333001D02*
X393640000Y-299908000D01*
X378065001Y-301333001D02*
X392214999Y-301333001D01*
X376640000Y-299908000D02*
X378065001Y-301333001D01*
X408214999Y-301333001D02*
X409640000Y-299908000D01*
X395065001Y-301333001D02*
X408214999Y-301333001D01*
X393640000Y-299908000D02*
X395065001Y-301333001D01*
X425214999Y-301333001D02*
X426640000Y-299908000D01*
X411065001Y-301333001D02*
X425214999Y-301333001D01*
X409640000Y-299908000D02*
X411065001Y-301333001D01*
X441214999Y-301333001D02*
X442640000Y-299908000D01*
X428065001Y-301333001D02*
X441214999Y-301333001D01*
X426640000Y-299908000D02*
X428065001Y-301333001D01*
X359140000Y-315708000D02*
X347140000Y-315708000D01*
X343640000Y-312208000D02*
X343640000Y-299908000D01*
X347140000Y-315708000D02*
X343640000Y-312208000D01*
X359140000Y-315708000D02*
X357140000Y-315708000D01*
X351640000Y-321208000D02*
X351640000Y-329508000D01*
X357140000Y-315708000D02*
X351640000Y-321208000D01*
X337065001Y-328082999D02*
X335640000Y-329508000D01*
X350214999Y-328082999D02*
X337065001Y-328082999D01*
X351640000Y-329508000D02*
X350214999Y-328082999D01*
X320065001Y-328082999D02*
X318640000Y-329508000D01*
X334214999Y-328082999D02*
X320065001Y-328082999D01*
X335640000Y-329508000D02*
X334214999Y-328082999D01*
X304065001Y-328082999D02*
X302640000Y-329508000D01*
X317214999Y-328082999D02*
X304065001Y-328082999D01*
X318640000Y-329508000D02*
X317214999Y-328082999D01*
X353065001Y-328082999D02*
X367214999Y-328082999D01*
X367214999Y-328082999D02*
X368640000Y-329508000D01*
X351640000Y-329508000D02*
X353065001Y-328082999D01*
X383214999Y-328082999D02*
X384640000Y-329508000D01*
X370065001Y-328082999D02*
X383214999Y-328082999D01*
X368640000Y-329508000D02*
X370065001Y-328082999D01*
X400214999Y-328082999D02*
X401640000Y-329508000D01*
X386065001Y-328082999D02*
X400214999Y-328082999D01*
X384640000Y-329508000D02*
X386065001Y-328082999D01*
X416214999Y-328082999D02*
X417640000Y-329508000D01*
X403065001Y-328082999D02*
X416214999Y-328082999D01*
X401640000Y-329508000D02*
X403065001Y-328082999D01*
X419065001Y-328082999D02*
X433214999Y-328082999D01*
X433214999Y-328082999D02*
X434640000Y-329508000D01*
X417640000Y-329508000D02*
X419065001Y-328082999D01*
X449214999Y-328082999D02*
X450640000Y-329508000D01*
X436065001Y-328082999D02*
X449214999Y-328082999D01*
X434640000Y-329508000D02*
X436065001Y-328082999D01*
D16*
%TO.N,Net-(J1-Pad1)*%
X318140000Y-355208000D02*
X318640000Y-354708000D01*
X318140000Y-362708000D02*
X318140000Y-355208000D01*
%TO.N,Net-(J1-Pad2)*%
X313615001Y-352183001D02*
X311140000Y-349708000D01*
X313615001Y-359732999D02*
X313615001Y-352183001D01*
X310640000Y-362708000D02*
X313615001Y-359732999D01*
%TO.N,Net-(J2-Pad1)*%
X351140000Y-355208000D02*
X351640000Y-354708000D01*
X351140000Y-362708000D02*
X351140000Y-355208000D01*
%TO.N,Net-(J2-Pad2)*%
X346615001Y-352183001D02*
X344140000Y-349708000D01*
X346615001Y-359732999D02*
X346615001Y-352183001D01*
X343640000Y-362708000D02*
X346615001Y-359732999D01*
%TO.N,Net-(J3-Pad1)*%
X384140000Y-355208000D02*
X384640000Y-354708000D01*
X384140000Y-362708000D02*
X384140000Y-355208000D01*
%TO.N,Net-(J3-Pad2)*%
X379615001Y-352183001D02*
X377140000Y-349708000D01*
X379615001Y-359732999D02*
X379615001Y-352183001D01*
X376640000Y-362708000D02*
X379615001Y-359732999D01*
%TO.N,Net-(J4-Pad2)*%
X412615001Y-352183001D02*
X410140000Y-349708000D01*
X412615001Y-359732999D02*
X412615001Y-352183001D01*
X409640000Y-362708000D02*
X412615001Y-359732999D01*
%TO.N,Net-(J4-Pad1)*%
X417140000Y-355208000D02*
X417640000Y-354708000D01*
X417140000Y-362708000D02*
X417140000Y-355208000D01*
%TO.N,Net-(J5-Pad2)*%
X445615001Y-352183001D02*
X443140000Y-349708000D01*
X445615001Y-359732999D02*
X445615001Y-352183001D01*
X442640000Y-362708000D02*
X445615001Y-359732999D01*
%TO.N,Net-(J5-Pad1)*%
X450140000Y-355208000D02*
X450640000Y-354708000D01*
X450140000Y-362708000D02*
X450140000Y-355208000D01*
%TO.N,Net-(J7-Pad1)*%
X295140000Y-274208000D02*
X294640000Y-274708000D01*
X295140000Y-266708000D02*
X295140000Y-274208000D01*
%TO.N,Net-(J7-Pad2)*%
X299664999Y-277232999D02*
X302140000Y-279708000D01*
X299664999Y-269683001D02*
X299664999Y-277232999D01*
X302640000Y-266708000D02*
X299664999Y-269683001D01*
%TO.N,Net-(J8-Pad2)*%
X332664999Y-277232999D02*
X335140000Y-279708000D01*
X332664999Y-269683001D02*
X332664999Y-277232999D01*
X335640000Y-266708000D02*
X332664999Y-269683001D01*
%TO.N,Net-(J8-Pad1)*%
X328140000Y-274208000D02*
X327640000Y-274708000D01*
X328140000Y-266708000D02*
X328140000Y-274208000D01*
%TO.N,Net-(J9-Pad2)*%
X365664999Y-269683001D02*
X365664999Y-277232999D01*
X365664999Y-277232999D02*
X368140000Y-279708000D01*
X368640000Y-266708000D02*
X365664999Y-269683001D01*
%TO.N,Net-(J9-Pad1)*%
X361140000Y-274208000D02*
X360640000Y-274708000D01*
X361140000Y-266708000D02*
X361140000Y-274208000D01*
%TO.N,Net-(J10-Pad2)*%
X398664999Y-277232999D02*
X401140000Y-279708000D01*
X398664999Y-269683001D02*
X398664999Y-277232999D01*
X401640000Y-266708000D02*
X398664999Y-269683001D01*
%TO.N,Net-(J10-Pad1)*%
X394140000Y-274208000D02*
X393640000Y-274708000D01*
X394140000Y-266708000D02*
X394140000Y-274208000D01*
%TO.N,Net-(J11-Pad2)*%
X431664999Y-277232999D02*
X434140000Y-279708000D01*
X431664999Y-269683001D02*
X431664999Y-277232999D01*
X434640000Y-266708000D02*
X431664999Y-269683001D01*
%TO.N,Net-(J11-Pad3)*%
X442140000Y-274208000D02*
X442640000Y-274708000D01*
X442140000Y-266708000D02*
X442140000Y-274208000D01*
%TO.N,Net-(J11-Pad4)*%
X447664999Y-268683001D02*
X447664999Y-277232999D01*
X447664999Y-277232999D02*
X450140000Y-279708000D01*
X449640000Y-266708000D02*
X447664999Y-268683001D01*
%TO.N,Net-(J5-Pad3)*%
X435140000Y-355208000D02*
X434640000Y-354708000D01*
X435140000Y-362708000D02*
X435140000Y-355208000D01*
%TO.N,Net-(J5-Pad4)*%
X429615001Y-352183001D02*
X427140000Y-349708000D01*
X429615001Y-360732999D02*
X429615001Y-352183001D01*
X427640000Y-362708000D02*
X429615001Y-360732999D01*
%TO.N,Net-(J11-Pad1)*%
X427140000Y-274208000D02*
X426640000Y-274708000D01*
X427140000Y-266708000D02*
X427140000Y-274208000D01*
%TO.N,Net-(J1-Pad3)*%
X303140000Y-355208000D02*
X302640000Y-354708000D01*
X303140000Y-362708000D02*
X303140000Y-355208000D01*
%TO.N,Net-(J1-Pad4)*%
X297615001Y-352183001D02*
X295140000Y-349708000D01*
X297615001Y-360732999D02*
X297615001Y-352183001D01*
X295640000Y-362708000D02*
X297615001Y-360732999D01*
%TO.N,Net-(J2-Pad4)*%
X330615001Y-352183001D02*
X328140000Y-349708000D01*
X330615001Y-360732999D02*
X330615001Y-352183001D01*
X328640000Y-362708000D02*
X330615001Y-360732999D01*
%TO.N,Net-(J2-Pad3)*%
X336140000Y-355208000D02*
X335640000Y-354708000D01*
X336140000Y-362708000D02*
X336140000Y-355208000D01*
%TO.N,Net-(J3-Pad3)*%
X369140000Y-355208000D02*
X368640000Y-354708000D01*
X369140000Y-362708000D02*
X369140000Y-355208000D01*
%TO.N,Net-(J3-Pad4)*%
X363615001Y-352183001D02*
X361140000Y-349708000D01*
X363615001Y-360732999D02*
X363615001Y-352183001D01*
X361640000Y-362708000D02*
X363615001Y-360732999D01*
%TO.N,Net-(J4-Pad4)*%
X396615001Y-352183001D02*
X394140000Y-349708000D01*
X396615001Y-360732999D02*
X396615001Y-352183001D01*
X394640000Y-362708000D02*
X396615001Y-360732999D01*
%TO.N,Net-(J4-Pad3)*%
X402140000Y-355208000D02*
X401640000Y-354708000D01*
X402140000Y-362708000D02*
X402140000Y-355208000D01*
%TO.N,Net-(J7-Pad4)*%
X315664999Y-277232999D02*
X318140000Y-279708000D01*
X315664999Y-268683001D02*
X315664999Y-277232999D01*
X317640000Y-266708000D02*
X315664999Y-268683001D01*
%TO.N,Net-(J7-Pad3)*%
X310140000Y-274208000D02*
X310640000Y-274708000D01*
X310140000Y-266708000D02*
X310140000Y-274208000D01*
%TO.N,Net-(J8-Pad3)*%
X343140000Y-274208000D02*
X343640000Y-274708000D01*
X343140000Y-266708000D02*
X343140000Y-274208000D01*
%TO.N,Net-(J8-Pad4)*%
X348664999Y-277232999D02*
X351140000Y-279708000D01*
X348664999Y-268683001D02*
X348664999Y-277232999D01*
X350640000Y-266708000D02*
X348664999Y-268683001D01*
%TO.N,Net-(J9-Pad4)*%
X381664999Y-277232999D02*
X384140000Y-279708000D01*
X381664999Y-268683001D02*
X381664999Y-277232999D01*
X383640000Y-266708000D02*
X381664999Y-268683001D01*
%TO.N,Net-(J9-Pad3)*%
X376140000Y-274208000D02*
X376640000Y-274708000D01*
X376140000Y-266708000D02*
X376140000Y-274208000D01*
%TO.N,Net-(J10-Pad3)*%
X409140000Y-274208000D02*
X409640000Y-274708000D01*
X409140000Y-266708000D02*
X409140000Y-274208000D01*
%TO.N,Net-(J10-Pad4)*%
X414664999Y-277232999D02*
X417140000Y-279708000D01*
X414664999Y-268683001D02*
X414664999Y-277232999D01*
X416640000Y-266708000D02*
X414664999Y-268683001D01*
%TD*%
M02*
