%TF.GenerationSoftware,KiCad,Pcbnew,(5.1.10)-1*%
%TF.CreationDate,2021-10-27T16:31:34+02:00*%
%TF.ProjectId,boneIO - relay board,626f6e65-494f-4202-9d20-72656c617920,rev?*%
%TF.SameCoordinates,Original*%
%TF.FileFunction,Legend,Top*%
%TF.FilePolarity,Positive*%
%FSLAX46Y46*%
G04 Gerber Fmt 4.6, Leading zero omitted, Abs format (unit mm)*
G04 Created by KiCad (PCBNEW (5.1.10)-1) date 2021-10-27 16:31:34*
%MOMM*%
%LPD*%
G01*
G04 APERTURE LIST*
%ADD10C,0.150000*%
%ADD11C,0.140000*%
%ADD12C,0.120000*%
%ADD13C,0.100000*%
%ADD14C,0.254000*%
G04 APERTURE END LIST*
D10*
X387619761Y-311422285D02*
X387667380Y-311279428D01*
X387667380Y-311041333D01*
X387619761Y-310946095D01*
X387572142Y-310898476D01*
X387476904Y-310850857D01*
X387381666Y-310850857D01*
X387286428Y-310898476D01*
X387238809Y-310946095D01*
X387191190Y-311041333D01*
X387143571Y-311231809D01*
X387095952Y-311327047D01*
X387048333Y-311374666D01*
X386953095Y-311422285D01*
X386857857Y-311422285D01*
X386762619Y-311374666D01*
X386715000Y-311327047D01*
X386667380Y-311231809D01*
X386667380Y-310993714D01*
X386715000Y-310850857D01*
X387667380Y-310422285D02*
X386667380Y-310422285D01*
X386667380Y-310184190D01*
X386715000Y-310041333D01*
X386810238Y-309946095D01*
X386905476Y-309898476D01*
X387095952Y-309850857D01*
X387238809Y-309850857D01*
X387429285Y-309898476D01*
X387524523Y-309946095D01*
X387619761Y-310041333D01*
X387667380Y-310184190D01*
X387667380Y-310422285D01*
X387381666Y-309469904D02*
X387381666Y-308993714D01*
X387667380Y-309565142D02*
X386667380Y-309231809D01*
X387667380Y-308898476D01*
X389170000Y-310929904D02*
X389122380Y-311025142D01*
X389122380Y-311168000D01*
X389170000Y-311310857D01*
X389265238Y-311406095D01*
X389360476Y-311453714D01*
X389550952Y-311501333D01*
X389693809Y-311501333D01*
X389884285Y-311453714D01*
X389979523Y-311406095D01*
X390074761Y-311310857D01*
X390122380Y-311168000D01*
X390122380Y-311072761D01*
X390074761Y-310929904D01*
X390027142Y-310882285D01*
X389693809Y-310882285D01*
X389693809Y-311072761D01*
X390122380Y-310453714D02*
X389122380Y-310453714D01*
X390122380Y-309882285D01*
X389122380Y-309882285D01*
X390122380Y-309406095D02*
X389122380Y-309406095D01*
X389122380Y-309168000D01*
X389170000Y-309025142D01*
X389265238Y-308929904D01*
X389360476Y-308882285D01*
X389550952Y-308834666D01*
X389693809Y-308834666D01*
X389884285Y-308882285D01*
X389979523Y-308929904D01*
X390074761Y-309025142D01*
X390122380Y-309168000D01*
X390122380Y-309406095D01*
X387594761Y-319798476D02*
X387642380Y-319655619D01*
X387642380Y-319417523D01*
X387594761Y-319322285D01*
X387547142Y-319274666D01*
X387451904Y-319227047D01*
X387356666Y-319227047D01*
X387261428Y-319274666D01*
X387213809Y-319322285D01*
X387166190Y-319417523D01*
X387118571Y-319608000D01*
X387070952Y-319703238D01*
X387023333Y-319750857D01*
X386928095Y-319798476D01*
X386832857Y-319798476D01*
X386737619Y-319750857D01*
X386690000Y-319703238D01*
X386642380Y-319608000D01*
X386642380Y-319369904D01*
X386690000Y-319227047D01*
X387547142Y-318227047D02*
X387594761Y-318274666D01*
X387642380Y-318417523D01*
X387642380Y-318512761D01*
X387594761Y-318655619D01*
X387499523Y-318750857D01*
X387404285Y-318798476D01*
X387213809Y-318846095D01*
X387070952Y-318846095D01*
X386880476Y-318798476D01*
X386785238Y-318750857D01*
X386690000Y-318655619D01*
X386642380Y-318512761D01*
X386642380Y-318417523D01*
X386690000Y-318274666D01*
X386737619Y-318227047D01*
X387642380Y-317322285D02*
X387642380Y-317798476D01*
X386642380Y-317798476D01*
X389786428Y-321458000D02*
X389786428Y-320696095D01*
X390167380Y-321077047D02*
X389405476Y-321077047D01*
X389167380Y-320315142D02*
X389167380Y-319696095D01*
X389548333Y-320029428D01*
X389548333Y-319886571D01*
X389595952Y-319791333D01*
X389643571Y-319743714D01*
X389738809Y-319696095D01*
X389976904Y-319696095D01*
X390072142Y-319743714D01*
X390119761Y-319791333D01*
X390167380Y-319886571D01*
X390167380Y-320172285D01*
X390119761Y-320267523D01*
X390072142Y-320315142D01*
X390072142Y-319267523D02*
X390119761Y-319219904D01*
X390167380Y-319267523D01*
X390119761Y-319315142D01*
X390072142Y-319267523D01*
X390167380Y-319267523D01*
X389167380Y-318886571D02*
X389167380Y-318267523D01*
X389548333Y-318600857D01*
X389548333Y-318458000D01*
X389595952Y-318362761D01*
X389643571Y-318315142D01*
X389738809Y-318267523D01*
X389976904Y-318267523D01*
X390072142Y-318315142D01*
X390119761Y-318362761D01*
X390167380Y-318458000D01*
X390167380Y-318743714D01*
X390119761Y-318838952D01*
X390072142Y-318886571D01*
X389167380Y-317981809D02*
X390167380Y-317648476D01*
X389167380Y-317315142D01*
X297411428Y-365510380D02*
X297411428Y-364510380D01*
X297792380Y-364510380D01*
X297887619Y-364558000D01*
X297935238Y-364605619D01*
X297982857Y-364700857D01*
X297982857Y-364843714D01*
X297935238Y-364938952D01*
X297887619Y-364986571D01*
X297792380Y-365034190D01*
X297411428Y-365034190D01*
X298459047Y-365510380D02*
X298649523Y-365510380D01*
X298744761Y-365462761D01*
X298792380Y-365415142D01*
X298887619Y-365272285D01*
X298935238Y-365081809D01*
X298935238Y-364700857D01*
X298887619Y-364605619D01*
X298840000Y-364558000D01*
X298744761Y-364510380D01*
X298554285Y-364510380D01*
X298459047Y-364558000D01*
X298411428Y-364605619D01*
X298363809Y-364700857D01*
X298363809Y-364938952D01*
X298411428Y-365034190D01*
X298459047Y-365081809D01*
X298554285Y-365129428D01*
X298744761Y-365129428D01*
X298840000Y-365081809D01*
X298887619Y-365034190D01*
X298935238Y-364938952D01*
X299363809Y-365415142D02*
X299411428Y-365462761D01*
X299363809Y-365510380D01*
X299316190Y-365462761D01*
X299363809Y-365415142D01*
X299363809Y-365510380D01*
X300363809Y-365510380D02*
X299792380Y-365510380D01*
X300078095Y-365510380D02*
X300078095Y-364510380D01*
X299982857Y-364653238D01*
X299887619Y-364748476D01*
X299792380Y-364796095D01*
X301316190Y-365510380D02*
X300744761Y-365510380D01*
X301030476Y-365510380D02*
X301030476Y-364510380D01*
X300935238Y-364653238D01*
X300840000Y-364748476D01*
X300744761Y-364796095D01*
X312511428Y-365510380D02*
X312511428Y-364510380D01*
X312892380Y-364510380D01*
X312987619Y-364558000D01*
X313035238Y-364605619D01*
X313082857Y-364700857D01*
X313082857Y-364843714D01*
X313035238Y-364938952D01*
X312987619Y-364986571D01*
X312892380Y-365034190D01*
X312511428Y-365034190D01*
X313559047Y-365510380D02*
X313749523Y-365510380D01*
X313844761Y-365462761D01*
X313892380Y-365415142D01*
X313987619Y-365272285D01*
X314035238Y-365081809D01*
X314035238Y-364700857D01*
X313987619Y-364605619D01*
X313940000Y-364558000D01*
X313844761Y-364510380D01*
X313654285Y-364510380D01*
X313559047Y-364558000D01*
X313511428Y-364605619D01*
X313463809Y-364700857D01*
X313463809Y-364938952D01*
X313511428Y-365034190D01*
X313559047Y-365081809D01*
X313654285Y-365129428D01*
X313844761Y-365129428D01*
X313940000Y-365081809D01*
X313987619Y-365034190D01*
X314035238Y-364938952D01*
X314463809Y-365415142D02*
X314511428Y-365462761D01*
X314463809Y-365510380D01*
X314416190Y-365462761D01*
X314463809Y-365415142D01*
X314463809Y-365510380D01*
X315463809Y-365510380D02*
X314892380Y-365510380D01*
X315178095Y-365510380D02*
X315178095Y-364510380D01*
X315082857Y-364653238D01*
X314987619Y-364748476D01*
X314892380Y-364796095D01*
X315844761Y-364605619D02*
X315892380Y-364558000D01*
X315987619Y-364510380D01*
X316225714Y-364510380D01*
X316320952Y-364558000D01*
X316368571Y-364605619D01*
X316416190Y-364700857D01*
X316416190Y-364796095D01*
X316368571Y-364938952D01*
X315797142Y-365510380D01*
X316416190Y-365510380D01*
X330411428Y-365510380D02*
X330411428Y-364510380D01*
X330792380Y-364510380D01*
X330887619Y-364558000D01*
X330935238Y-364605619D01*
X330982857Y-364700857D01*
X330982857Y-364843714D01*
X330935238Y-364938952D01*
X330887619Y-364986571D01*
X330792380Y-365034190D01*
X330411428Y-365034190D01*
X331459047Y-365510380D02*
X331649523Y-365510380D01*
X331744761Y-365462761D01*
X331792380Y-365415142D01*
X331887619Y-365272285D01*
X331935238Y-365081809D01*
X331935238Y-364700857D01*
X331887619Y-364605619D01*
X331840000Y-364558000D01*
X331744761Y-364510380D01*
X331554285Y-364510380D01*
X331459047Y-364558000D01*
X331411428Y-364605619D01*
X331363809Y-364700857D01*
X331363809Y-364938952D01*
X331411428Y-365034190D01*
X331459047Y-365081809D01*
X331554285Y-365129428D01*
X331744761Y-365129428D01*
X331840000Y-365081809D01*
X331887619Y-365034190D01*
X331935238Y-364938952D01*
X332363809Y-365415142D02*
X332411428Y-365462761D01*
X332363809Y-365510380D01*
X332316190Y-365462761D01*
X332363809Y-365415142D01*
X332363809Y-365510380D01*
X333363809Y-365510380D02*
X332792380Y-365510380D01*
X333078095Y-365510380D02*
X333078095Y-364510380D01*
X332982857Y-364653238D01*
X332887619Y-364748476D01*
X332792380Y-364796095D01*
X333697142Y-364510380D02*
X334316190Y-364510380D01*
X333982857Y-364891333D01*
X334125714Y-364891333D01*
X334220952Y-364938952D01*
X334268571Y-364986571D01*
X334316190Y-365081809D01*
X334316190Y-365319904D01*
X334268571Y-365415142D01*
X334220952Y-365462761D01*
X334125714Y-365510380D01*
X333840000Y-365510380D01*
X333744761Y-365462761D01*
X333697142Y-365415142D01*
X345511428Y-365510380D02*
X345511428Y-364510380D01*
X345892380Y-364510380D01*
X345987619Y-364558000D01*
X346035238Y-364605619D01*
X346082857Y-364700857D01*
X346082857Y-364843714D01*
X346035238Y-364938952D01*
X345987619Y-364986571D01*
X345892380Y-365034190D01*
X345511428Y-365034190D01*
X346559047Y-365510380D02*
X346749523Y-365510380D01*
X346844761Y-365462761D01*
X346892380Y-365415142D01*
X346987619Y-365272285D01*
X347035238Y-365081809D01*
X347035238Y-364700857D01*
X346987619Y-364605619D01*
X346940000Y-364558000D01*
X346844761Y-364510380D01*
X346654285Y-364510380D01*
X346559047Y-364558000D01*
X346511428Y-364605619D01*
X346463809Y-364700857D01*
X346463809Y-364938952D01*
X346511428Y-365034190D01*
X346559047Y-365081809D01*
X346654285Y-365129428D01*
X346844761Y-365129428D01*
X346940000Y-365081809D01*
X346987619Y-365034190D01*
X347035238Y-364938952D01*
X347463809Y-365415142D02*
X347511428Y-365462761D01*
X347463809Y-365510380D01*
X347416190Y-365462761D01*
X347463809Y-365415142D01*
X347463809Y-365510380D01*
X348463809Y-365510380D02*
X347892380Y-365510380D01*
X348178095Y-365510380D02*
X348178095Y-364510380D01*
X348082857Y-364653238D01*
X347987619Y-364748476D01*
X347892380Y-364796095D01*
X349320952Y-364843714D02*
X349320952Y-365510380D01*
X349082857Y-364462761D02*
X348844761Y-365177047D01*
X349463809Y-365177047D01*
X363461428Y-365510380D02*
X363461428Y-364510380D01*
X363842380Y-364510380D01*
X363937619Y-364558000D01*
X363985238Y-364605619D01*
X364032857Y-364700857D01*
X364032857Y-364843714D01*
X363985238Y-364938952D01*
X363937619Y-364986571D01*
X363842380Y-365034190D01*
X363461428Y-365034190D01*
X364509047Y-365510380D02*
X364699523Y-365510380D01*
X364794761Y-365462761D01*
X364842380Y-365415142D01*
X364937619Y-365272285D01*
X364985238Y-365081809D01*
X364985238Y-364700857D01*
X364937619Y-364605619D01*
X364890000Y-364558000D01*
X364794761Y-364510380D01*
X364604285Y-364510380D01*
X364509047Y-364558000D01*
X364461428Y-364605619D01*
X364413809Y-364700857D01*
X364413809Y-364938952D01*
X364461428Y-365034190D01*
X364509047Y-365081809D01*
X364604285Y-365129428D01*
X364794761Y-365129428D01*
X364890000Y-365081809D01*
X364937619Y-365034190D01*
X364985238Y-364938952D01*
X365413809Y-365415142D02*
X365461428Y-365462761D01*
X365413809Y-365510380D01*
X365366190Y-365462761D01*
X365413809Y-365415142D01*
X365413809Y-365510380D01*
X366413809Y-365510380D02*
X365842380Y-365510380D01*
X366128095Y-365510380D02*
X366128095Y-364510380D01*
X366032857Y-364653238D01*
X365937619Y-364748476D01*
X365842380Y-364796095D01*
X367318571Y-364510380D02*
X366842380Y-364510380D01*
X366794761Y-364986571D01*
X366842380Y-364938952D01*
X366937619Y-364891333D01*
X367175714Y-364891333D01*
X367270952Y-364938952D01*
X367318571Y-364986571D01*
X367366190Y-365081809D01*
X367366190Y-365319904D01*
X367318571Y-365415142D01*
X367270952Y-365462761D01*
X367175714Y-365510380D01*
X366937619Y-365510380D01*
X366842380Y-365462761D01*
X366794761Y-365415142D01*
X378511428Y-365510380D02*
X378511428Y-364510380D01*
X378892380Y-364510380D01*
X378987619Y-364558000D01*
X379035238Y-364605619D01*
X379082857Y-364700857D01*
X379082857Y-364843714D01*
X379035238Y-364938952D01*
X378987619Y-364986571D01*
X378892380Y-365034190D01*
X378511428Y-365034190D01*
X379559047Y-365510380D02*
X379749523Y-365510380D01*
X379844761Y-365462761D01*
X379892380Y-365415142D01*
X379987619Y-365272285D01*
X380035238Y-365081809D01*
X380035238Y-364700857D01*
X379987619Y-364605619D01*
X379940000Y-364558000D01*
X379844761Y-364510380D01*
X379654285Y-364510380D01*
X379559047Y-364558000D01*
X379511428Y-364605619D01*
X379463809Y-364700857D01*
X379463809Y-364938952D01*
X379511428Y-365034190D01*
X379559047Y-365081809D01*
X379654285Y-365129428D01*
X379844761Y-365129428D01*
X379940000Y-365081809D01*
X379987619Y-365034190D01*
X380035238Y-364938952D01*
X380463809Y-365415142D02*
X380511428Y-365462761D01*
X380463809Y-365510380D01*
X380416190Y-365462761D01*
X380463809Y-365415142D01*
X380463809Y-365510380D01*
X381463809Y-365510380D02*
X380892380Y-365510380D01*
X381178095Y-365510380D02*
X381178095Y-364510380D01*
X381082857Y-364653238D01*
X380987619Y-364748476D01*
X380892380Y-364796095D01*
X382320952Y-364510380D02*
X382130476Y-364510380D01*
X382035238Y-364558000D01*
X381987619Y-364605619D01*
X381892380Y-364748476D01*
X381844761Y-364938952D01*
X381844761Y-365319904D01*
X381892380Y-365415142D01*
X381940000Y-365462761D01*
X382035238Y-365510380D01*
X382225714Y-365510380D01*
X382320952Y-365462761D01*
X382368571Y-365415142D01*
X382416190Y-365319904D01*
X382416190Y-365081809D01*
X382368571Y-364986571D01*
X382320952Y-364938952D01*
X382225714Y-364891333D01*
X382035238Y-364891333D01*
X381940000Y-364938952D01*
X381892380Y-364986571D01*
X381844761Y-365081809D01*
X396611428Y-365510380D02*
X396611428Y-364510380D01*
X396992380Y-364510380D01*
X397087619Y-364558000D01*
X397135238Y-364605619D01*
X397182857Y-364700857D01*
X397182857Y-364843714D01*
X397135238Y-364938952D01*
X397087619Y-364986571D01*
X396992380Y-365034190D01*
X396611428Y-365034190D01*
X397659047Y-365510380D02*
X397849523Y-365510380D01*
X397944761Y-365462761D01*
X397992380Y-365415142D01*
X398087619Y-365272285D01*
X398135238Y-365081809D01*
X398135238Y-364700857D01*
X398087619Y-364605619D01*
X398040000Y-364558000D01*
X397944761Y-364510380D01*
X397754285Y-364510380D01*
X397659047Y-364558000D01*
X397611428Y-364605619D01*
X397563809Y-364700857D01*
X397563809Y-364938952D01*
X397611428Y-365034190D01*
X397659047Y-365081809D01*
X397754285Y-365129428D01*
X397944761Y-365129428D01*
X398040000Y-365081809D01*
X398087619Y-365034190D01*
X398135238Y-364938952D01*
X398563809Y-365415142D02*
X398611428Y-365462761D01*
X398563809Y-365510380D01*
X398516190Y-365462761D01*
X398563809Y-365415142D01*
X398563809Y-365510380D01*
X399563809Y-365510380D02*
X398992380Y-365510380D01*
X399278095Y-365510380D02*
X399278095Y-364510380D01*
X399182857Y-364653238D01*
X399087619Y-364748476D01*
X398992380Y-364796095D01*
X399897142Y-364510380D02*
X400563809Y-364510380D01*
X400135238Y-365510380D01*
X411461428Y-365560380D02*
X411461428Y-364560380D01*
X411842380Y-364560380D01*
X411937619Y-364608000D01*
X411985238Y-364655619D01*
X412032857Y-364750857D01*
X412032857Y-364893714D01*
X411985238Y-364988952D01*
X411937619Y-365036571D01*
X411842380Y-365084190D01*
X411461428Y-365084190D01*
X412509047Y-365560380D02*
X412699523Y-365560380D01*
X412794761Y-365512761D01*
X412842380Y-365465142D01*
X412937619Y-365322285D01*
X412985238Y-365131809D01*
X412985238Y-364750857D01*
X412937619Y-364655619D01*
X412890000Y-364608000D01*
X412794761Y-364560380D01*
X412604285Y-364560380D01*
X412509047Y-364608000D01*
X412461428Y-364655619D01*
X412413809Y-364750857D01*
X412413809Y-364988952D01*
X412461428Y-365084190D01*
X412509047Y-365131809D01*
X412604285Y-365179428D01*
X412794761Y-365179428D01*
X412890000Y-365131809D01*
X412937619Y-365084190D01*
X412985238Y-364988952D01*
X413413809Y-365465142D02*
X413461428Y-365512761D01*
X413413809Y-365560380D01*
X413366190Y-365512761D01*
X413413809Y-365465142D01*
X413413809Y-365560380D01*
X414413809Y-365560380D02*
X413842380Y-365560380D01*
X414128095Y-365560380D02*
X414128095Y-364560380D01*
X414032857Y-364703238D01*
X413937619Y-364798476D01*
X413842380Y-364846095D01*
X414985238Y-364988952D02*
X414890000Y-364941333D01*
X414842380Y-364893714D01*
X414794761Y-364798476D01*
X414794761Y-364750857D01*
X414842380Y-364655619D01*
X414890000Y-364608000D01*
X414985238Y-364560380D01*
X415175714Y-364560380D01*
X415270952Y-364608000D01*
X415318571Y-364655619D01*
X415366190Y-364750857D01*
X415366190Y-364798476D01*
X415318571Y-364893714D01*
X415270952Y-364941333D01*
X415175714Y-364988952D01*
X414985238Y-364988952D01*
X414890000Y-365036571D01*
X414842380Y-365084190D01*
X414794761Y-365179428D01*
X414794761Y-365369904D01*
X414842380Y-365465142D01*
X414890000Y-365512761D01*
X414985238Y-365560380D01*
X415175714Y-365560380D01*
X415270952Y-365512761D01*
X415318571Y-365465142D01*
X415366190Y-365369904D01*
X415366190Y-365179428D01*
X415318571Y-365084190D01*
X415270952Y-365036571D01*
X415175714Y-364988952D01*
X429461428Y-365510380D02*
X429461428Y-364510380D01*
X429842380Y-364510380D01*
X429937619Y-364558000D01*
X429985238Y-364605619D01*
X430032857Y-364700857D01*
X430032857Y-364843714D01*
X429985238Y-364938952D01*
X429937619Y-364986571D01*
X429842380Y-365034190D01*
X429461428Y-365034190D01*
X430509047Y-365510380D02*
X430699523Y-365510380D01*
X430794761Y-365462761D01*
X430842380Y-365415142D01*
X430937619Y-365272285D01*
X430985238Y-365081809D01*
X430985238Y-364700857D01*
X430937619Y-364605619D01*
X430890000Y-364558000D01*
X430794761Y-364510380D01*
X430604285Y-364510380D01*
X430509047Y-364558000D01*
X430461428Y-364605619D01*
X430413809Y-364700857D01*
X430413809Y-364938952D01*
X430461428Y-365034190D01*
X430509047Y-365081809D01*
X430604285Y-365129428D01*
X430794761Y-365129428D01*
X430890000Y-365081809D01*
X430937619Y-365034190D01*
X430985238Y-364938952D01*
X431413809Y-365415142D02*
X431461428Y-365462761D01*
X431413809Y-365510380D01*
X431366190Y-365462761D01*
X431413809Y-365415142D01*
X431413809Y-365510380D01*
X431842380Y-364605619D02*
X431890000Y-364558000D01*
X431985238Y-364510380D01*
X432223333Y-364510380D01*
X432318571Y-364558000D01*
X432366190Y-364605619D01*
X432413809Y-364700857D01*
X432413809Y-364796095D01*
X432366190Y-364938952D01*
X431794761Y-365510380D01*
X432413809Y-365510380D01*
X433366190Y-365510380D02*
X432794761Y-365510380D01*
X433080476Y-365510380D02*
X433080476Y-364510380D01*
X432985238Y-364653238D01*
X432890000Y-364748476D01*
X432794761Y-364796095D01*
X444461428Y-365510380D02*
X444461428Y-364510380D01*
X444842380Y-364510380D01*
X444937619Y-364558000D01*
X444985238Y-364605619D01*
X445032857Y-364700857D01*
X445032857Y-364843714D01*
X444985238Y-364938952D01*
X444937619Y-364986571D01*
X444842380Y-365034190D01*
X444461428Y-365034190D01*
X445509047Y-365510380D02*
X445699523Y-365510380D01*
X445794761Y-365462761D01*
X445842380Y-365415142D01*
X445937619Y-365272285D01*
X445985238Y-365081809D01*
X445985238Y-364700857D01*
X445937619Y-364605619D01*
X445890000Y-364558000D01*
X445794761Y-364510380D01*
X445604285Y-364510380D01*
X445509047Y-364558000D01*
X445461428Y-364605619D01*
X445413809Y-364700857D01*
X445413809Y-364938952D01*
X445461428Y-365034190D01*
X445509047Y-365081809D01*
X445604285Y-365129428D01*
X445794761Y-365129428D01*
X445890000Y-365081809D01*
X445937619Y-365034190D01*
X445985238Y-364938952D01*
X446413809Y-365415142D02*
X446461428Y-365462761D01*
X446413809Y-365510380D01*
X446366190Y-365462761D01*
X446413809Y-365415142D01*
X446413809Y-365510380D01*
X446842380Y-364605619D02*
X446890000Y-364558000D01*
X446985238Y-364510380D01*
X447223333Y-364510380D01*
X447318571Y-364558000D01*
X447366190Y-364605619D01*
X447413809Y-364700857D01*
X447413809Y-364796095D01*
X447366190Y-364938952D01*
X446794761Y-365510380D01*
X447413809Y-365510380D01*
X447794761Y-364605619D02*
X447842380Y-364558000D01*
X447937619Y-364510380D01*
X448175714Y-364510380D01*
X448270952Y-364558000D01*
X448318571Y-364605619D01*
X448366190Y-364700857D01*
X448366190Y-364796095D01*
X448318571Y-364938952D01*
X447747142Y-365510380D01*
X448366190Y-365510380D01*
X444011428Y-264910380D02*
X444011428Y-263910380D01*
X444392380Y-263910380D01*
X444487619Y-263958000D01*
X444535238Y-264005619D01*
X444582857Y-264100857D01*
X444582857Y-264243714D01*
X444535238Y-264338952D01*
X444487619Y-264386571D01*
X444392380Y-264434190D01*
X444011428Y-264434190D01*
X445059047Y-264910380D02*
X445249523Y-264910380D01*
X445344761Y-264862761D01*
X445392380Y-264815142D01*
X445487619Y-264672285D01*
X445535238Y-264481809D01*
X445535238Y-264100857D01*
X445487619Y-264005619D01*
X445440000Y-263958000D01*
X445344761Y-263910380D01*
X445154285Y-263910380D01*
X445059047Y-263958000D01*
X445011428Y-264005619D01*
X444963809Y-264100857D01*
X444963809Y-264338952D01*
X445011428Y-264434190D01*
X445059047Y-264481809D01*
X445154285Y-264529428D01*
X445344761Y-264529428D01*
X445440000Y-264481809D01*
X445487619Y-264434190D01*
X445535238Y-264338952D01*
X445963809Y-264815142D02*
X446011428Y-264862761D01*
X445963809Y-264910380D01*
X445916190Y-264862761D01*
X445963809Y-264815142D01*
X445963809Y-264910380D01*
X446392380Y-264005619D02*
X446440000Y-263958000D01*
X446535238Y-263910380D01*
X446773333Y-263910380D01*
X446868571Y-263958000D01*
X446916190Y-264005619D01*
X446963809Y-264100857D01*
X446963809Y-264196095D01*
X446916190Y-264338952D01*
X446344761Y-264910380D01*
X446963809Y-264910380D01*
X447297142Y-263910380D02*
X447916190Y-263910380D01*
X447582857Y-264291333D01*
X447725714Y-264291333D01*
X447820952Y-264338952D01*
X447868571Y-264386571D01*
X447916190Y-264481809D01*
X447916190Y-264719904D01*
X447868571Y-264815142D01*
X447820952Y-264862761D01*
X447725714Y-264910380D01*
X447440000Y-264910380D01*
X447344761Y-264862761D01*
X447297142Y-264815142D01*
X429161428Y-264910380D02*
X429161428Y-263910380D01*
X429542380Y-263910380D01*
X429637619Y-263958000D01*
X429685238Y-264005619D01*
X429732857Y-264100857D01*
X429732857Y-264243714D01*
X429685238Y-264338952D01*
X429637619Y-264386571D01*
X429542380Y-264434190D01*
X429161428Y-264434190D01*
X430209047Y-264910380D02*
X430399523Y-264910380D01*
X430494761Y-264862761D01*
X430542380Y-264815142D01*
X430637619Y-264672285D01*
X430685238Y-264481809D01*
X430685238Y-264100857D01*
X430637619Y-264005619D01*
X430590000Y-263958000D01*
X430494761Y-263910380D01*
X430304285Y-263910380D01*
X430209047Y-263958000D01*
X430161428Y-264005619D01*
X430113809Y-264100857D01*
X430113809Y-264338952D01*
X430161428Y-264434190D01*
X430209047Y-264481809D01*
X430304285Y-264529428D01*
X430494761Y-264529428D01*
X430590000Y-264481809D01*
X430637619Y-264434190D01*
X430685238Y-264338952D01*
X431113809Y-264815142D02*
X431161428Y-264862761D01*
X431113809Y-264910380D01*
X431066190Y-264862761D01*
X431113809Y-264815142D01*
X431113809Y-264910380D01*
X431542380Y-264005619D02*
X431590000Y-263958000D01*
X431685238Y-263910380D01*
X431923333Y-263910380D01*
X432018571Y-263958000D01*
X432066190Y-264005619D01*
X432113809Y-264100857D01*
X432113809Y-264196095D01*
X432066190Y-264338952D01*
X431494761Y-264910380D01*
X432113809Y-264910380D01*
X432970952Y-264243714D02*
X432970952Y-264910380D01*
X432732857Y-263862761D02*
X432494761Y-264577047D01*
X433113809Y-264577047D01*
X411061428Y-264910380D02*
X411061428Y-263910380D01*
X411442380Y-263910380D01*
X411537619Y-263958000D01*
X411585238Y-264005619D01*
X411632857Y-264100857D01*
X411632857Y-264243714D01*
X411585238Y-264338952D01*
X411537619Y-264386571D01*
X411442380Y-264434190D01*
X411061428Y-264434190D01*
X412109047Y-264910380D02*
X412299523Y-264910380D01*
X412394761Y-264862761D01*
X412442380Y-264815142D01*
X412537619Y-264672285D01*
X412585238Y-264481809D01*
X412585238Y-264100857D01*
X412537619Y-264005619D01*
X412490000Y-263958000D01*
X412394761Y-263910380D01*
X412204285Y-263910380D01*
X412109047Y-263958000D01*
X412061428Y-264005619D01*
X412013809Y-264100857D01*
X412013809Y-264338952D01*
X412061428Y-264434190D01*
X412109047Y-264481809D01*
X412204285Y-264529428D01*
X412394761Y-264529428D01*
X412490000Y-264481809D01*
X412537619Y-264434190D01*
X412585238Y-264338952D01*
X413013809Y-264815142D02*
X413061428Y-264862761D01*
X413013809Y-264910380D01*
X412966190Y-264862761D01*
X413013809Y-264815142D01*
X413013809Y-264910380D01*
X413442380Y-264005619D02*
X413490000Y-263958000D01*
X413585238Y-263910380D01*
X413823333Y-263910380D01*
X413918571Y-263958000D01*
X413966190Y-264005619D01*
X414013809Y-264100857D01*
X414013809Y-264196095D01*
X413966190Y-264338952D01*
X413394761Y-264910380D01*
X414013809Y-264910380D01*
X414918571Y-263910380D02*
X414442380Y-263910380D01*
X414394761Y-264386571D01*
X414442380Y-264338952D01*
X414537619Y-264291333D01*
X414775714Y-264291333D01*
X414870952Y-264338952D01*
X414918571Y-264386571D01*
X414966190Y-264481809D01*
X414966190Y-264719904D01*
X414918571Y-264815142D01*
X414870952Y-264862761D01*
X414775714Y-264910380D01*
X414537619Y-264910380D01*
X414442380Y-264862761D01*
X414394761Y-264815142D01*
X396061428Y-264910380D02*
X396061428Y-263910380D01*
X396442380Y-263910380D01*
X396537619Y-263958000D01*
X396585238Y-264005619D01*
X396632857Y-264100857D01*
X396632857Y-264243714D01*
X396585238Y-264338952D01*
X396537619Y-264386571D01*
X396442380Y-264434190D01*
X396061428Y-264434190D01*
X397109047Y-264910380D02*
X397299523Y-264910380D01*
X397394761Y-264862761D01*
X397442380Y-264815142D01*
X397537619Y-264672285D01*
X397585238Y-264481809D01*
X397585238Y-264100857D01*
X397537619Y-264005619D01*
X397490000Y-263958000D01*
X397394761Y-263910380D01*
X397204285Y-263910380D01*
X397109047Y-263958000D01*
X397061428Y-264005619D01*
X397013809Y-264100857D01*
X397013809Y-264338952D01*
X397061428Y-264434190D01*
X397109047Y-264481809D01*
X397204285Y-264529428D01*
X397394761Y-264529428D01*
X397490000Y-264481809D01*
X397537619Y-264434190D01*
X397585238Y-264338952D01*
X398013809Y-264815142D02*
X398061428Y-264862761D01*
X398013809Y-264910380D01*
X397966190Y-264862761D01*
X398013809Y-264815142D01*
X398013809Y-264910380D01*
X398442380Y-264005619D02*
X398490000Y-263958000D01*
X398585238Y-263910380D01*
X398823333Y-263910380D01*
X398918571Y-263958000D01*
X398966190Y-264005619D01*
X399013809Y-264100857D01*
X399013809Y-264196095D01*
X398966190Y-264338952D01*
X398394761Y-264910380D01*
X399013809Y-264910380D01*
X399870952Y-263910380D02*
X399680476Y-263910380D01*
X399585238Y-263958000D01*
X399537619Y-264005619D01*
X399442380Y-264148476D01*
X399394761Y-264338952D01*
X399394761Y-264719904D01*
X399442380Y-264815142D01*
X399490000Y-264862761D01*
X399585238Y-264910380D01*
X399775714Y-264910380D01*
X399870952Y-264862761D01*
X399918571Y-264815142D01*
X399966190Y-264719904D01*
X399966190Y-264481809D01*
X399918571Y-264386571D01*
X399870952Y-264338952D01*
X399775714Y-264291333D01*
X399585238Y-264291333D01*
X399490000Y-264338952D01*
X399442380Y-264386571D01*
X399394761Y-264481809D01*
X378011428Y-264910380D02*
X378011428Y-263910380D01*
X378392380Y-263910380D01*
X378487619Y-263958000D01*
X378535238Y-264005619D01*
X378582857Y-264100857D01*
X378582857Y-264243714D01*
X378535238Y-264338952D01*
X378487619Y-264386571D01*
X378392380Y-264434190D01*
X378011428Y-264434190D01*
X379059047Y-264910380D02*
X379249523Y-264910380D01*
X379344761Y-264862761D01*
X379392380Y-264815142D01*
X379487619Y-264672285D01*
X379535238Y-264481809D01*
X379535238Y-264100857D01*
X379487619Y-264005619D01*
X379440000Y-263958000D01*
X379344761Y-263910380D01*
X379154285Y-263910380D01*
X379059047Y-263958000D01*
X379011428Y-264005619D01*
X378963809Y-264100857D01*
X378963809Y-264338952D01*
X379011428Y-264434190D01*
X379059047Y-264481809D01*
X379154285Y-264529428D01*
X379344761Y-264529428D01*
X379440000Y-264481809D01*
X379487619Y-264434190D01*
X379535238Y-264338952D01*
X379963809Y-264815142D02*
X380011428Y-264862761D01*
X379963809Y-264910380D01*
X379916190Y-264862761D01*
X379963809Y-264815142D01*
X379963809Y-264910380D01*
X380392380Y-264005619D02*
X380440000Y-263958000D01*
X380535238Y-263910380D01*
X380773333Y-263910380D01*
X380868571Y-263958000D01*
X380916190Y-264005619D01*
X380963809Y-264100857D01*
X380963809Y-264196095D01*
X380916190Y-264338952D01*
X380344761Y-264910380D01*
X380963809Y-264910380D01*
X381297142Y-263910380D02*
X381963809Y-263910380D01*
X381535238Y-264910380D01*
X363111428Y-264910380D02*
X363111428Y-263910380D01*
X363492380Y-263910380D01*
X363587619Y-263958000D01*
X363635238Y-264005619D01*
X363682857Y-264100857D01*
X363682857Y-264243714D01*
X363635238Y-264338952D01*
X363587619Y-264386571D01*
X363492380Y-264434190D01*
X363111428Y-264434190D01*
X364159047Y-264910380D02*
X364349523Y-264910380D01*
X364444761Y-264862761D01*
X364492380Y-264815142D01*
X364587619Y-264672285D01*
X364635238Y-264481809D01*
X364635238Y-264100857D01*
X364587619Y-264005619D01*
X364540000Y-263958000D01*
X364444761Y-263910380D01*
X364254285Y-263910380D01*
X364159047Y-263958000D01*
X364111428Y-264005619D01*
X364063809Y-264100857D01*
X364063809Y-264338952D01*
X364111428Y-264434190D01*
X364159047Y-264481809D01*
X364254285Y-264529428D01*
X364444761Y-264529428D01*
X364540000Y-264481809D01*
X364587619Y-264434190D01*
X364635238Y-264338952D01*
X365063809Y-264815142D02*
X365111428Y-264862761D01*
X365063809Y-264910380D01*
X365016190Y-264862761D01*
X365063809Y-264815142D01*
X365063809Y-264910380D01*
X365492380Y-264005619D02*
X365540000Y-263958000D01*
X365635238Y-263910380D01*
X365873333Y-263910380D01*
X365968571Y-263958000D01*
X366016190Y-264005619D01*
X366063809Y-264100857D01*
X366063809Y-264196095D01*
X366016190Y-264338952D01*
X365444761Y-264910380D01*
X366063809Y-264910380D01*
X366635238Y-264338952D02*
X366540000Y-264291333D01*
X366492380Y-264243714D01*
X366444761Y-264148476D01*
X366444761Y-264100857D01*
X366492380Y-264005619D01*
X366540000Y-263958000D01*
X366635238Y-263910380D01*
X366825714Y-263910380D01*
X366920952Y-263958000D01*
X366968571Y-264005619D01*
X367016190Y-264100857D01*
X367016190Y-264148476D01*
X366968571Y-264243714D01*
X366920952Y-264291333D01*
X366825714Y-264338952D01*
X366635238Y-264338952D01*
X366540000Y-264386571D01*
X366492380Y-264434190D01*
X366444761Y-264529428D01*
X366444761Y-264719904D01*
X366492380Y-264815142D01*
X366540000Y-264862761D01*
X366635238Y-264910380D01*
X366825714Y-264910380D01*
X366920952Y-264862761D01*
X366968571Y-264815142D01*
X367016190Y-264719904D01*
X367016190Y-264529428D01*
X366968571Y-264434190D01*
X366920952Y-264386571D01*
X366825714Y-264338952D01*
X345061428Y-264910380D02*
X345061428Y-263910380D01*
X345442380Y-263910380D01*
X345537619Y-263958000D01*
X345585238Y-264005619D01*
X345632857Y-264100857D01*
X345632857Y-264243714D01*
X345585238Y-264338952D01*
X345537619Y-264386571D01*
X345442380Y-264434190D01*
X345061428Y-264434190D01*
X346109047Y-264910380D02*
X346299523Y-264910380D01*
X346394761Y-264862761D01*
X346442380Y-264815142D01*
X346537619Y-264672285D01*
X346585238Y-264481809D01*
X346585238Y-264100857D01*
X346537619Y-264005619D01*
X346490000Y-263958000D01*
X346394761Y-263910380D01*
X346204285Y-263910380D01*
X346109047Y-263958000D01*
X346061428Y-264005619D01*
X346013809Y-264100857D01*
X346013809Y-264338952D01*
X346061428Y-264434190D01*
X346109047Y-264481809D01*
X346204285Y-264529428D01*
X346394761Y-264529428D01*
X346490000Y-264481809D01*
X346537619Y-264434190D01*
X346585238Y-264338952D01*
X347013809Y-264815142D02*
X347061428Y-264862761D01*
X347013809Y-264910380D01*
X346966190Y-264862761D01*
X347013809Y-264815142D01*
X347013809Y-264910380D01*
X347442380Y-264005619D02*
X347490000Y-263958000D01*
X347585238Y-263910380D01*
X347823333Y-263910380D01*
X347918571Y-263958000D01*
X347966190Y-264005619D01*
X348013809Y-264100857D01*
X348013809Y-264196095D01*
X347966190Y-264338952D01*
X347394761Y-264910380D01*
X348013809Y-264910380D01*
X348490000Y-264910380D02*
X348680476Y-264910380D01*
X348775714Y-264862761D01*
X348823333Y-264815142D01*
X348918571Y-264672285D01*
X348966190Y-264481809D01*
X348966190Y-264100857D01*
X348918571Y-264005619D01*
X348870952Y-263958000D01*
X348775714Y-263910380D01*
X348585238Y-263910380D01*
X348490000Y-263958000D01*
X348442380Y-264005619D01*
X348394761Y-264100857D01*
X348394761Y-264338952D01*
X348442380Y-264434190D01*
X348490000Y-264481809D01*
X348585238Y-264529428D01*
X348775714Y-264529428D01*
X348870952Y-264481809D01*
X348918571Y-264434190D01*
X348966190Y-264338952D01*
X330011428Y-264910380D02*
X330011428Y-263910380D01*
X330392380Y-263910380D01*
X330487619Y-263958000D01*
X330535238Y-264005619D01*
X330582857Y-264100857D01*
X330582857Y-264243714D01*
X330535238Y-264338952D01*
X330487619Y-264386571D01*
X330392380Y-264434190D01*
X330011428Y-264434190D01*
X331059047Y-264910380D02*
X331249523Y-264910380D01*
X331344761Y-264862761D01*
X331392380Y-264815142D01*
X331487619Y-264672285D01*
X331535238Y-264481809D01*
X331535238Y-264100857D01*
X331487619Y-264005619D01*
X331440000Y-263958000D01*
X331344761Y-263910380D01*
X331154285Y-263910380D01*
X331059047Y-263958000D01*
X331011428Y-264005619D01*
X330963809Y-264100857D01*
X330963809Y-264338952D01*
X331011428Y-264434190D01*
X331059047Y-264481809D01*
X331154285Y-264529428D01*
X331344761Y-264529428D01*
X331440000Y-264481809D01*
X331487619Y-264434190D01*
X331535238Y-264338952D01*
X331963809Y-264815142D02*
X332011428Y-264862761D01*
X331963809Y-264910380D01*
X331916190Y-264862761D01*
X331963809Y-264815142D01*
X331963809Y-264910380D01*
X332344761Y-263910380D02*
X332963809Y-263910380D01*
X332630476Y-264291333D01*
X332773333Y-264291333D01*
X332868571Y-264338952D01*
X332916190Y-264386571D01*
X332963809Y-264481809D01*
X332963809Y-264719904D01*
X332916190Y-264815142D01*
X332868571Y-264862761D01*
X332773333Y-264910380D01*
X332487619Y-264910380D01*
X332392380Y-264862761D01*
X332344761Y-264815142D01*
X333582857Y-263910380D02*
X333678095Y-263910380D01*
X333773333Y-263958000D01*
X333820952Y-264005619D01*
X333868571Y-264100857D01*
X333916190Y-264291333D01*
X333916190Y-264529428D01*
X333868571Y-264719904D01*
X333820952Y-264815142D01*
X333773333Y-264862761D01*
X333678095Y-264910380D01*
X333582857Y-264910380D01*
X333487619Y-264862761D01*
X333440000Y-264815142D01*
X333392380Y-264719904D01*
X333344761Y-264529428D01*
X333344761Y-264291333D01*
X333392380Y-264100857D01*
X333440000Y-264005619D01*
X333487619Y-263958000D01*
X333582857Y-263910380D01*
X312061428Y-264910380D02*
X312061428Y-263910380D01*
X312442380Y-263910380D01*
X312537619Y-263958000D01*
X312585238Y-264005619D01*
X312632857Y-264100857D01*
X312632857Y-264243714D01*
X312585238Y-264338952D01*
X312537619Y-264386571D01*
X312442380Y-264434190D01*
X312061428Y-264434190D01*
X313109047Y-264910380D02*
X313299523Y-264910380D01*
X313394761Y-264862761D01*
X313442380Y-264815142D01*
X313537619Y-264672285D01*
X313585238Y-264481809D01*
X313585238Y-264100857D01*
X313537619Y-264005619D01*
X313490000Y-263958000D01*
X313394761Y-263910380D01*
X313204285Y-263910380D01*
X313109047Y-263958000D01*
X313061428Y-264005619D01*
X313013809Y-264100857D01*
X313013809Y-264338952D01*
X313061428Y-264434190D01*
X313109047Y-264481809D01*
X313204285Y-264529428D01*
X313394761Y-264529428D01*
X313490000Y-264481809D01*
X313537619Y-264434190D01*
X313585238Y-264338952D01*
X314013809Y-264815142D02*
X314061428Y-264862761D01*
X314013809Y-264910380D01*
X313966190Y-264862761D01*
X314013809Y-264815142D01*
X314013809Y-264910380D01*
X314394761Y-263910380D02*
X315013809Y-263910380D01*
X314680476Y-264291333D01*
X314823333Y-264291333D01*
X314918571Y-264338952D01*
X314966190Y-264386571D01*
X315013809Y-264481809D01*
X315013809Y-264719904D01*
X314966190Y-264815142D01*
X314918571Y-264862761D01*
X314823333Y-264910380D01*
X314537619Y-264910380D01*
X314442380Y-264862761D01*
X314394761Y-264815142D01*
X315966190Y-264910380D02*
X315394761Y-264910380D01*
X315680476Y-264910380D02*
X315680476Y-263910380D01*
X315585238Y-264053238D01*
X315490000Y-264148476D01*
X315394761Y-264196095D01*
X297011428Y-264910380D02*
X297011428Y-263910380D01*
X297392380Y-263910380D01*
X297487619Y-263958000D01*
X297535238Y-264005619D01*
X297582857Y-264100857D01*
X297582857Y-264243714D01*
X297535238Y-264338952D01*
X297487619Y-264386571D01*
X297392380Y-264434190D01*
X297011428Y-264434190D01*
X298059047Y-264910380D02*
X298249523Y-264910380D01*
X298344761Y-264862761D01*
X298392380Y-264815142D01*
X298487619Y-264672285D01*
X298535238Y-264481809D01*
X298535238Y-264100857D01*
X298487619Y-264005619D01*
X298440000Y-263958000D01*
X298344761Y-263910380D01*
X298154285Y-263910380D01*
X298059047Y-263958000D01*
X298011428Y-264005619D01*
X297963809Y-264100857D01*
X297963809Y-264338952D01*
X298011428Y-264434190D01*
X298059047Y-264481809D01*
X298154285Y-264529428D01*
X298344761Y-264529428D01*
X298440000Y-264481809D01*
X298487619Y-264434190D01*
X298535238Y-264338952D01*
X298963809Y-264815142D02*
X299011428Y-264862761D01*
X298963809Y-264910380D01*
X298916190Y-264862761D01*
X298963809Y-264815142D01*
X298963809Y-264910380D01*
X299868571Y-264243714D02*
X299868571Y-264910380D01*
X299630476Y-263862761D02*
X299392380Y-264577047D01*
X300011428Y-264577047D01*
X300344761Y-264005619D02*
X300392380Y-263958000D01*
X300487619Y-263910380D01*
X300725714Y-263910380D01*
X300820952Y-263958000D01*
X300868571Y-264005619D01*
X300916190Y-264100857D01*
X300916190Y-264196095D01*
X300868571Y-264338952D01*
X300297142Y-264910380D01*
X300916190Y-264910380D01*
X359291428Y-320949904D02*
X359291428Y-320188000D01*
X359672380Y-320568952D02*
X358910476Y-320568952D01*
X358767619Y-319759428D02*
X358720000Y-319711809D01*
X358672380Y-319616571D01*
X358672380Y-319378476D01*
X358720000Y-319283238D01*
X358767619Y-319235619D01*
X358862857Y-319188000D01*
X358958095Y-319188000D01*
X359100952Y-319235619D01*
X359672380Y-319807047D01*
X359672380Y-319188000D01*
X359005714Y-318330857D02*
X359672380Y-318330857D01*
X358624761Y-318568952D02*
X359339047Y-318807047D01*
X359339047Y-318188000D01*
X358672380Y-317949904D02*
X359672380Y-317616571D01*
X358672380Y-317283238D01*
X358640000Y-310969904D02*
X358592380Y-311065142D01*
X358592380Y-311208000D01*
X358640000Y-311350857D01*
X358735238Y-311446095D01*
X358830476Y-311493714D01*
X359020952Y-311541333D01*
X359163809Y-311541333D01*
X359354285Y-311493714D01*
X359449523Y-311446095D01*
X359544761Y-311350857D01*
X359592380Y-311208000D01*
X359592380Y-311112761D01*
X359544761Y-310969904D01*
X359497142Y-310922285D01*
X359163809Y-310922285D01*
X359163809Y-311112761D01*
X359592380Y-310493714D02*
X358592380Y-310493714D01*
X359592380Y-309922285D01*
X358592380Y-309922285D01*
X359592380Y-309446095D02*
X358592380Y-309446095D01*
X358592380Y-309208000D01*
X358640000Y-309065142D01*
X358735238Y-308969904D01*
X358830476Y-308922285D01*
X359020952Y-308874666D01*
X359163809Y-308874666D01*
X359354285Y-308922285D01*
X359449523Y-308969904D01*
X359544761Y-309065142D01*
X359592380Y-309208000D01*
X359592380Y-309446095D01*
D11*
X453995428Y-320795714D02*
X453395428Y-320795714D01*
X453624000Y-320795714D02*
X453595428Y-320738571D01*
X453595428Y-320624285D01*
X453624000Y-320567142D01*
X453652571Y-320538571D01*
X453709714Y-320510000D01*
X453881142Y-320510000D01*
X453938285Y-320538571D01*
X453966857Y-320567142D01*
X453995428Y-320624285D01*
X453995428Y-320738571D01*
X453966857Y-320795714D01*
X453995428Y-320167142D02*
X453966857Y-320224285D01*
X453938285Y-320252857D01*
X453881142Y-320281428D01*
X453709714Y-320281428D01*
X453652571Y-320252857D01*
X453624000Y-320224285D01*
X453595428Y-320167142D01*
X453595428Y-320081428D01*
X453624000Y-320024285D01*
X453652571Y-319995714D01*
X453709714Y-319967142D01*
X453881142Y-319967142D01*
X453938285Y-319995714D01*
X453966857Y-320024285D01*
X453995428Y-320081428D01*
X453995428Y-320167142D01*
X453595428Y-319710000D02*
X453995428Y-319710000D01*
X453652571Y-319710000D02*
X453624000Y-319681428D01*
X453595428Y-319624285D01*
X453595428Y-319538571D01*
X453624000Y-319481428D01*
X453681142Y-319452857D01*
X453995428Y-319452857D01*
X453966857Y-318938571D02*
X453995428Y-318995714D01*
X453995428Y-319110000D01*
X453966857Y-319167142D01*
X453909714Y-319195714D01*
X453681142Y-319195714D01*
X453624000Y-319167142D01*
X453595428Y-319110000D01*
X453595428Y-318995714D01*
X453624000Y-318938571D01*
X453681142Y-318910000D01*
X453738285Y-318910000D01*
X453795428Y-319195714D01*
X453995428Y-318652857D02*
X453395428Y-318652857D01*
X453395428Y-318252857D02*
X453395428Y-318138571D01*
X453424000Y-318081428D01*
X453481142Y-318024285D01*
X453595428Y-317995714D01*
X453795428Y-317995714D01*
X453909714Y-318024285D01*
X453966857Y-318081428D01*
X453995428Y-318138571D01*
X453995428Y-318252857D01*
X453966857Y-318310000D01*
X453909714Y-318367142D01*
X453795428Y-318395714D01*
X453595428Y-318395714D01*
X453481142Y-318367142D01*
X453424000Y-318310000D01*
X453395428Y-318252857D01*
X453766857Y-317281428D02*
X453766857Y-316824285D01*
X453995428Y-316081428D02*
X453595428Y-316081428D01*
X453709714Y-316081428D02*
X453652571Y-316052857D01*
X453624000Y-316024285D01*
X453595428Y-315967142D01*
X453595428Y-315910000D01*
X453966857Y-315481428D02*
X453995428Y-315538571D01*
X453995428Y-315652857D01*
X453966857Y-315710000D01*
X453909714Y-315738571D01*
X453681142Y-315738571D01*
X453624000Y-315710000D01*
X453595428Y-315652857D01*
X453595428Y-315538571D01*
X453624000Y-315481428D01*
X453681142Y-315452857D01*
X453738285Y-315452857D01*
X453795428Y-315738571D01*
X453995428Y-315110000D02*
X453966857Y-315167142D01*
X453909714Y-315195714D01*
X453395428Y-315195714D01*
X453995428Y-314624285D02*
X453681142Y-314624285D01*
X453624000Y-314652857D01*
X453595428Y-314710000D01*
X453595428Y-314824285D01*
X453624000Y-314881428D01*
X453966857Y-314624285D02*
X453995428Y-314681428D01*
X453995428Y-314824285D01*
X453966857Y-314881428D01*
X453909714Y-314910000D01*
X453852571Y-314910000D01*
X453795428Y-314881428D01*
X453766857Y-314824285D01*
X453766857Y-314681428D01*
X453738285Y-314624285D01*
X453595428Y-314395714D02*
X453995428Y-314252857D01*
X453595428Y-314110000D02*
X453995428Y-314252857D01*
X454138285Y-314310000D01*
X454166857Y-314338571D01*
X454195428Y-314395714D01*
X453995428Y-313424285D02*
X453395428Y-313424285D01*
X453624000Y-313424285D02*
X453595428Y-313367142D01*
X453595428Y-313252857D01*
X453624000Y-313195714D01*
X453652571Y-313167142D01*
X453709714Y-313138571D01*
X453881142Y-313138571D01*
X453938285Y-313167142D01*
X453966857Y-313195714D01*
X453995428Y-313252857D01*
X453995428Y-313367142D01*
X453966857Y-313424285D01*
X453995428Y-312795714D02*
X453966857Y-312852857D01*
X453938285Y-312881428D01*
X453881142Y-312910000D01*
X453709714Y-312910000D01*
X453652571Y-312881428D01*
X453624000Y-312852857D01*
X453595428Y-312795714D01*
X453595428Y-312710000D01*
X453624000Y-312652857D01*
X453652571Y-312624285D01*
X453709714Y-312595714D01*
X453881142Y-312595714D01*
X453938285Y-312624285D01*
X453966857Y-312652857D01*
X453995428Y-312710000D01*
X453995428Y-312795714D01*
X453995428Y-312081428D02*
X453681142Y-312081428D01*
X453624000Y-312110000D01*
X453595428Y-312167142D01*
X453595428Y-312281428D01*
X453624000Y-312338571D01*
X453966857Y-312081428D02*
X453995428Y-312138571D01*
X453995428Y-312281428D01*
X453966857Y-312338571D01*
X453909714Y-312367142D01*
X453852571Y-312367142D01*
X453795428Y-312338571D01*
X453766857Y-312281428D01*
X453766857Y-312138571D01*
X453738285Y-312081428D01*
X453995428Y-311795714D02*
X453595428Y-311795714D01*
X453709714Y-311795714D02*
X453652571Y-311767142D01*
X453624000Y-311738571D01*
X453595428Y-311681428D01*
X453595428Y-311624285D01*
X453995428Y-311167142D02*
X453395428Y-311167142D01*
X453966857Y-311167142D02*
X453995428Y-311224285D01*
X453995428Y-311338571D01*
X453966857Y-311395714D01*
X453938285Y-311424285D01*
X453881142Y-311452857D01*
X453709714Y-311452857D01*
X453652571Y-311424285D01*
X453624000Y-311395714D01*
X453595428Y-311338571D01*
X453595428Y-311224285D01*
X453624000Y-311167142D01*
X453595428Y-310481428D02*
X453995428Y-310338571D01*
X453595428Y-310195714D01*
X453395428Y-309852857D02*
X453395428Y-309795714D01*
X453424000Y-309738571D01*
X453452571Y-309710000D01*
X453509714Y-309681428D01*
X453624000Y-309652857D01*
X453766857Y-309652857D01*
X453881142Y-309681428D01*
X453938285Y-309710000D01*
X453966857Y-309738571D01*
X453995428Y-309795714D01*
X453995428Y-309852857D01*
X453966857Y-309910000D01*
X453938285Y-309938571D01*
X453881142Y-309967142D01*
X453766857Y-309995714D01*
X453624000Y-309995714D01*
X453509714Y-309967142D01*
X453452571Y-309938571D01*
X453424000Y-309910000D01*
X453395428Y-309852857D01*
X453938285Y-309395714D02*
X453966857Y-309367142D01*
X453995428Y-309395714D01*
X453966857Y-309424285D01*
X453938285Y-309395714D01*
X453995428Y-309395714D01*
X453395428Y-309167142D02*
X453395428Y-308795714D01*
X453624000Y-308995714D01*
X453624000Y-308910000D01*
X453652571Y-308852857D01*
X453681142Y-308824285D01*
X453738285Y-308795714D01*
X453881142Y-308795714D01*
X453938285Y-308824285D01*
X453966857Y-308852857D01*
X453995428Y-308910000D01*
X453995428Y-309081428D01*
X453966857Y-309138571D01*
X453938285Y-309167142D01*
X454864000Y-320710000D02*
X454864000Y-320424285D01*
X455035428Y-320767142D02*
X454435428Y-320567142D01*
X455035428Y-320367142D01*
X454635428Y-319910000D02*
X455035428Y-319910000D01*
X454635428Y-320167142D02*
X454949714Y-320167142D01*
X455006857Y-320138571D01*
X455035428Y-320081428D01*
X455035428Y-319995714D01*
X455006857Y-319938571D01*
X454978285Y-319910000D01*
X454635428Y-319710000D02*
X454635428Y-319481428D01*
X454435428Y-319624285D02*
X454949714Y-319624285D01*
X455006857Y-319595714D01*
X455035428Y-319538571D01*
X455035428Y-319481428D01*
X455035428Y-319281428D02*
X454435428Y-319281428D01*
X455035428Y-319024285D02*
X454721142Y-319024285D01*
X454664000Y-319052857D01*
X454635428Y-319110000D01*
X454635428Y-319195714D01*
X454664000Y-319252857D01*
X454692571Y-319281428D01*
X455035428Y-318652857D02*
X455006857Y-318710000D01*
X454978285Y-318738571D01*
X454921142Y-318767142D01*
X454749714Y-318767142D01*
X454692571Y-318738571D01*
X454664000Y-318710000D01*
X454635428Y-318652857D01*
X454635428Y-318567142D01*
X454664000Y-318510000D01*
X454692571Y-318481428D01*
X454749714Y-318452857D01*
X454921142Y-318452857D01*
X454978285Y-318481428D01*
X455006857Y-318510000D01*
X455035428Y-318567142D01*
X455035428Y-318652857D01*
X455035428Y-318195714D02*
X454635428Y-318195714D01*
X454749714Y-318195714D02*
X454692571Y-318167142D01*
X454664000Y-318138571D01*
X454635428Y-318081428D01*
X454635428Y-318024285D01*
X454978285Y-317824285D02*
X455006857Y-317795714D01*
X455035428Y-317824285D01*
X455006857Y-317852857D01*
X454978285Y-317824285D01*
X455035428Y-317824285D01*
X454664000Y-317824285D02*
X454692571Y-317795714D01*
X454721142Y-317824285D01*
X454692571Y-317852857D01*
X454664000Y-317824285D01*
X454721142Y-317824285D01*
X455035428Y-317081428D02*
X454435428Y-317081428D01*
X454664000Y-317081428D02*
X454635428Y-317024285D01*
X454635428Y-316910000D01*
X454664000Y-316852857D01*
X454692571Y-316824285D01*
X454749714Y-316795714D01*
X454921142Y-316795714D01*
X454978285Y-316824285D01*
X455006857Y-316852857D01*
X455035428Y-316910000D01*
X455035428Y-317024285D01*
X455006857Y-317081428D01*
X455035428Y-316452857D02*
X455006857Y-316510000D01*
X454978285Y-316538571D01*
X454921142Y-316567142D01*
X454749714Y-316567142D01*
X454692571Y-316538571D01*
X454664000Y-316510000D01*
X454635428Y-316452857D01*
X454635428Y-316367142D01*
X454664000Y-316310000D01*
X454692571Y-316281428D01*
X454749714Y-316252857D01*
X454921142Y-316252857D01*
X454978285Y-316281428D01*
X455006857Y-316310000D01*
X455035428Y-316367142D01*
X455035428Y-316452857D01*
X454635428Y-315995714D02*
X455035428Y-315995714D01*
X454692571Y-315995714D02*
X454664000Y-315967142D01*
X454635428Y-315910000D01*
X454635428Y-315824285D01*
X454664000Y-315767142D01*
X454721142Y-315738571D01*
X455035428Y-315738571D01*
X455006857Y-315224285D02*
X455035428Y-315281428D01*
X455035428Y-315395714D01*
X455006857Y-315452857D01*
X454949714Y-315481428D01*
X454721142Y-315481428D01*
X454664000Y-315452857D01*
X454635428Y-315395714D01*
X454635428Y-315281428D01*
X454664000Y-315224285D01*
X454721142Y-315195714D01*
X454778285Y-315195714D01*
X454835428Y-315481428D01*
X455035428Y-314938571D02*
X454435428Y-314938571D01*
X454435428Y-314538571D02*
X454435428Y-314424285D01*
X454464000Y-314367142D01*
X454521142Y-314310000D01*
X454635428Y-314281428D01*
X454835428Y-314281428D01*
X454949714Y-314310000D01*
X455006857Y-314367142D01*
X455035428Y-314424285D01*
X455035428Y-314538571D01*
X455006857Y-314595714D01*
X454949714Y-314652857D01*
X454835428Y-314681428D01*
X454635428Y-314681428D01*
X454521142Y-314652857D01*
X454464000Y-314595714D01*
X454435428Y-314538571D01*
X454978285Y-313224285D02*
X455006857Y-313252857D01*
X455035428Y-313338571D01*
X455035428Y-313395714D01*
X455006857Y-313481428D01*
X454949714Y-313538571D01*
X454892571Y-313567142D01*
X454778285Y-313595714D01*
X454692571Y-313595714D01*
X454578285Y-313567142D01*
X454521142Y-313538571D01*
X454464000Y-313481428D01*
X454435428Y-313395714D01*
X454435428Y-313338571D01*
X454464000Y-313252857D01*
X454492571Y-313224285D01*
X455035428Y-312881428D02*
X455006857Y-312938571D01*
X454978285Y-312967142D01*
X454921142Y-312995714D01*
X454749714Y-312995714D01*
X454692571Y-312967142D01*
X454664000Y-312938571D01*
X454635428Y-312881428D01*
X454635428Y-312795714D01*
X454664000Y-312738571D01*
X454692571Y-312710000D01*
X454749714Y-312681428D01*
X454921142Y-312681428D01*
X454978285Y-312710000D01*
X455006857Y-312738571D01*
X455035428Y-312795714D01*
X455035428Y-312881428D01*
X455035428Y-312424285D02*
X454635428Y-312424285D01*
X454692571Y-312424285D02*
X454664000Y-312395714D01*
X454635428Y-312338571D01*
X454635428Y-312252857D01*
X454664000Y-312195714D01*
X454721142Y-312167142D01*
X455035428Y-312167142D01*
X454721142Y-312167142D02*
X454664000Y-312138571D01*
X454635428Y-312081428D01*
X454635428Y-311995714D01*
X454664000Y-311938571D01*
X454721142Y-311910000D01*
X455035428Y-311910000D01*
X455035428Y-311624285D02*
X454635428Y-311624285D01*
X454692571Y-311624285D02*
X454664000Y-311595714D01*
X454635428Y-311538571D01*
X454635428Y-311452857D01*
X454664000Y-311395714D01*
X454721142Y-311367142D01*
X455035428Y-311367142D01*
X454721142Y-311367142D02*
X454664000Y-311338571D01*
X454635428Y-311281428D01*
X454635428Y-311195714D01*
X454664000Y-311138571D01*
X454721142Y-311110000D01*
X455035428Y-311110000D01*
X454635428Y-310567142D02*
X455035428Y-310567142D01*
X454635428Y-310824285D02*
X454949714Y-310824285D01*
X455006857Y-310795714D01*
X455035428Y-310738571D01*
X455035428Y-310652857D01*
X455006857Y-310595714D01*
X454978285Y-310567142D01*
X454635428Y-310281428D02*
X455035428Y-310281428D01*
X454692571Y-310281428D02*
X454664000Y-310252857D01*
X454635428Y-310195714D01*
X454635428Y-310110000D01*
X454664000Y-310052857D01*
X454721142Y-310024285D01*
X455035428Y-310024285D01*
X455035428Y-309738571D02*
X454635428Y-309738571D01*
X454435428Y-309738571D02*
X454464000Y-309767142D01*
X454492571Y-309738571D01*
X454464000Y-309710000D01*
X454435428Y-309738571D01*
X454492571Y-309738571D01*
X454635428Y-309538571D02*
X454635428Y-309310000D01*
X454435428Y-309452857D02*
X454949714Y-309452857D01*
X455006857Y-309424285D01*
X455035428Y-309367142D01*
X455035428Y-309310000D01*
X454635428Y-309167142D02*
X455035428Y-309024285D01*
X454635428Y-308881428D02*
X455035428Y-309024285D01*
X455178285Y-309081428D01*
X455206857Y-309110000D01*
X455235428Y-309167142D01*
X455532571Y-317724285D02*
X455504000Y-317695714D01*
X455475428Y-317638571D01*
X455475428Y-317495714D01*
X455504000Y-317438571D01*
X455532571Y-317410000D01*
X455589714Y-317381428D01*
X455646857Y-317381428D01*
X455732571Y-317410000D01*
X456075428Y-317752857D01*
X456075428Y-317381428D01*
X455475428Y-317010000D02*
X455475428Y-316952857D01*
X455504000Y-316895714D01*
X455532571Y-316867142D01*
X455589714Y-316838571D01*
X455704000Y-316810000D01*
X455846857Y-316810000D01*
X455961142Y-316838571D01*
X456018285Y-316867142D01*
X456046857Y-316895714D01*
X456075428Y-316952857D01*
X456075428Y-317010000D01*
X456046857Y-317067142D01*
X456018285Y-317095714D01*
X455961142Y-317124285D01*
X455846857Y-317152857D01*
X455704000Y-317152857D01*
X455589714Y-317124285D01*
X455532571Y-317095714D01*
X455504000Y-317067142D01*
X455475428Y-317010000D01*
X455532571Y-316581428D02*
X455504000Y-316552857D01*
X455475428Y-316495714D01*
X455475428Y-316352857D01*
X455504000Y-316295714D01*
X455532571Y-316267142D01*
X455589714Y-316238571D01*
X455646857Y-316238571D01*
X455732571Y-316267142D01*
X456075428Y-316610000D01*
X456075428Y-316238571D01*
X456075428Y-315667142D02*
X456075428Y-316010000D01*
X456075428Y-315838571D02*
X455475428Y-315838571D01*
X455561142Y-315895714D01*
X455618285Y-315952857D01*
X455646857Y-316010000D01*
X455846857Y-315410000D02*
X455846857Y-314952857D01*
X456075428Y-314352857D02*
X456075428Y-314695714D01*
X456075428Y-314524285D02*
X455475428Y-314524285D01*
X455561142Y-314581428D01*
X455618285Y-314638571D01*
X455646857Y-314695714D01*
X455475428Y-313981428D02*
X455475428Y-313924285D01*
X455504000Y-313867142D01*
X455532571Y-313838571D01*
X455589714Y-313810000D01*
X455704000Y-313781428D01*
X455846857Y-313781428D01*
X455961142Y-313810000D01*
X456018285Y-313838571D01*
X456046857Y-313867142D01*
X456075428Y-313924285D01*
X456075428Y-313981428D01*
X456046857Y-314038571D01*
X456018285Y-314067142D01*
X455961142Y-314095714D01*
X455846857Y-314124285D01*
X455704000Y-314124285D01*
X455589714Y-314095714D01*
X455532571Y-314067142D01*
X455504000Y-314038571D01*
X455475428Y-313981428D01*
X455846857Y-313524285D02*
X455846857Y-313067142D01*
X456075428Y-312467142D02*
X456075428Y-312810000D01*
X456075428Y-312638571D02*
X455475428Y-312638571D01*
X455561142Y-312695714D01*
X455618285Y-312752857D01*
X455646857Y-312810000D01*
X455475428Y-312267142D02*
X455475428Y-311867142D01*
X456075428Y-312124285D01*
D12*
%TO.C,C4*%
X314908748Y-310808000D02*
X316331252Y-310808000D01*
X314908748Y-308988000D02*
X316331252Y-308988000D01*
%TO.C,C3*%
X414368748Y-310798000D02*
X415791252Y-310798000D01*
X414368748Y-308978000D02*
X415791252Y-308978000D01*
%TO.C,C2*%
X332816252Y-318638000D02*
X331393748Y-318638000D01*
X332816252Y-320458000D02*
X331393748Y-320458000D01*
%TO.C,C1*%
X428839420Y-311378000D02*
X429120580Y-311378000D01*
X428839420Y-310358000D02*
X429120580Y-310358000D01*
%TO.C,U1*%
X439143000Y-316293000D02*
X440643000Y-316293000D01*
X439143000Y-316293000D02*
X437643000Y-316293000D01*
X439143000Y-313073000D02*
X440643000Y-313073000D01*
X439143000Y-313073000D02*
X436218000Y-313073000D01*
%TO.C,R9*%
X428743500Y-314445742D02*
X428743500Y-314920258D01*
X427698500Y-314445742D02*
X427698500Y-314920258D01*
%TO.C,R8*%
X434331500Y-314445742D02*
X434331500Y-314920258D01*
X433286500Y-314445742D02*
X433286500Y-314920258D01*
%TO.C,R7*%
X431537500Y-314445742D02*
X431537500Y-314920258D01*
X430492500Y-314445742D02*
X430492500Y-314920258D01*
%TO.C,R6*%
X450714500Y-316223742D02*
X450714500Y-316698258D01*
X449669500Y-316223742D02*
X449669500Y-316698258D01*
%TO.C,R5*%
X450714500Y-312667742D02*
X450714500Y-313142258D01*
X449669500Y-312667742D02*
X449669500Y-313142258D01*
%TO.C,R4*%
X448047500Y-316223742D02*
X448047500Y-316698258D01*
X447002500Y-316223742D02*
X447002500Y-316698258D01*
%TO.C,R3*%
X448047500Y-312667742D02*
X448047500Y-313142258D01*
X447002500Y-312667742D02*
X447002500Y-313142258D01*
%TO.C,R2*%
X445380500Y-316223742D02*
X445380500Y-316698258D01*
X444335500Y-316223742D02*
X444335500Y-316698258D01*
%TO.C,R1*%
X445380500Y-312667742D02*
X445380500Y-313142258D01*
X444335500Y-312667742D02*
X444335500Y-313142258D01*
D13*
%TO.C,K1*%
X305265000Y-351008000D02*
X292565000Y-351008000D01*
X305265000Y-322008000D02*
X305265000Y-351008000D01*
X292565000Y-322008000D02*
X305265000Y-322008000D01*
X292565000Y-351008000D02*
X292565000Y-322008000D01*
D12*
%TO.C,J3*%
X390950000Y-317038000D02*
X390950000Y-311838000D01*
X360410000Y-317038000D02*
X390950000Y-317038000D01*
X357810000Y-311838000D02*
X390950000Y-311838000D01*
X360410000Y-317038000D02*
X360410000Y-314438000D01*
X360410000Y-314438000D02*
X357810000Y-314438000D01*
X357810000Y-314438000D02*
X357810000Y-311838000D01*
X359140000Y-317038000D02*
X357810000Y-317038000D01*
X357810000Y-317038000D02*
X357810000Y-315708000D01*
D13*
%TO.C,K2*%
X321265000Y-351008000D02*
X308565000Y-351008000D01*
X321265000Y-322008000D02*
X321265000Y-351008000D01*
X308565000Y-322008000D02*
X321265000Y-322008000D01*
X308565000Y-351008000D02*
X308565000Y-322008000D01*
%TO.C,K18*%
X407015000Y-278383000D02*
X419715000Y-278383000D01*
X407015000Y-307383000D02*
X407015000Y-278383000D01*
X419715000Y-307383000D02*
X407015000Y-307383000D01*
X419715000Y-278383000D02*
X419715000Y-307383000D01*
D12*
%TO.C,U4*%
X411425000Y-314558000D02*
X411425000Y-310698000D01*
X411425000Y-310698000D02*
X411180000Y-310698000D01*
X411425000Y-314558000D02*
X411425000Y-318418000D01*
X411425000Y-318418000D02*
X411180000Y-318418000D01*
X399655000Y-314558000D02*
X399655000Y-310698000D01*
X399655000Y-310698000D02*
X399900000Y-310698000D01*
X399655000Y-314558000D02*
X399655000Y-318418000D01*
X399655000Y-318418000D02*
X399900000Y-318418000D01*
X399900000Y-318418000D02*
X399900000Y-320233000D01*
%TO.C,U3*%
X335655000Y-314308000D02*
X335655000Y-318168000D01*
X335655000Y-318168000D02*
X335900000Y-318168000D01*
X335655000Y-314308000D02*
X335655000Y-310448000D01*
X335655000Y-310448000D02*
X335900000Y-310448000D01*
X347425000Y-314308000D02*
X347425000Y-318168000D01*
X347425000Y-318168000D02*
X347180000Y-318168000D01*
X347425000Y-314308000D02*
X347425000Y-310448000D01*
X347425000Y-310448000D02*
X347180000Y-310448000D01*
X347180000Y-310448000D02*
X347180000Y-308633000D01*
%TO.C,U2*%
X312225000Y-314558000D02*
X312225000Y-310698000D01*
X312225000Y-310698000D02*
X311980000Y-310698000D01*
X312225000Y-314558000D02*
X312225000Y-318418000D01*
X312225000Y-318418000D02*
X311980000Y-318418000D01*
X300455000Y-314558000D02*
X300455000Y-310698000D01*
X300455000Y-310698000D02*
X300700000Y-310698000D01*
X300455000Y-314558000D02*
X300455000Y-318418000D01*
X300455000Y-318418000D02*
X300700000Y-318418000D01*
X300700000Y-318418000D02*
X300700000Y-320233000D01*
D13*
%TO.C,K20*%
X440015000Y-278383000D02*
X452715000Y-278383000D01*
X440015000Y-307383000D02*
X440015000Y-278383000D01*
X452715000Y-307383000D02*
X440015000Y-307383000D01*
X452715000Y-278383000D02*
X452715000Y-307383000D01*
%TO.C,K19*%
X424015000Y-278383000D02*
X436715000Y-278383000D01*
X424015000Y-307383000D02*
X424015000Y-278383000D01*
X436715000Y-307383000D02*
X424015000Y-307383000D01*
X436715000Y-278383000D02*
X436715000Y-307383000D01*
%TO.C,K17*%
X391015000Y-278383000D02*
X403715000Y-278383000D01*
X391015000Y-307383000D02*
X391015000Y-278383000D01*
X403715000Y-307383000D02*
X391015000Y-307383000D01*
X403715000Y-278383000D02*
X403715000Y-307383000D01*
%TO.C,K13*%
X374015000Y-278383000D02*
X386715000Y-278383000D01*
X374015000Y-307383000D02*
X374015000Y-278383000D01*
X386715000Y-307383000D02*
X374015000Y-307383000D01*
X386715000Y-278383000D02*
X386715000Y-307383000D01*
%TO.C,K14*%
X358015000Y-278383000D02*
X370715000Y-278383000D01*
X358015000Y-307383000D02*
X358015000Y-278383000D01*
X370715000Y-307383000D02*
X358015000Y-307383000D01*
X370715000Y-278383000D02*
X370715000Y-307383000D01*
%TO.C,K15*%
X341015000Y-278383000D02*
X353715000Y-278383000D01*
X341015000Y-307383000D02*
X341015000Y-278383000D01*
X353715000Y-307383000D02*
X341015000Y-307383000D01*
X353715000Y-278383000D02*
X353715000Y-307383000D01*
%TO.C,K16*%
X325015000Y-278383000D02*
X337715000Y-278383000D01*
X325015000Y-307383000D02*
X325015000Y-278383000D01*
X337715000Y-307383000D02*
X325015000Y-307383000D01*
X337715000Y-278383000D02*
X337715000Y-307383000D01*
%TO.C,K12*%
X308015000Y-278383000D02*
X320715000Y-278383000D01*
X308015000Y-307383000D02*
X308015000Y-278383000D01*
X320715000Y-307383000D02*
X308015000Y-307383000D01*
X320715000Y-278383000D02*
X320715000Y-307383000D01*
%TO.C,K11*%
X292015000Y-278383000D02*
X304715000Y-278383000D01*
X292015000Y-307383000D02*
X292015000Y-278383000D01*
X304715000Y-307383000D02*
X292015000Y-307383000D01*
X304715000Y-278383000D02*
X304715000Y-307383000D01*
%TO.C,K10*%
X453265000Y-351008000D02*
X440565000Y-351008000D01*
X453265000Y-322008000D02*
X453265000Y-351008000D01*
X440565000Y-322008000D02*
X453265000Y-322008000D01*
X440565000Y-351008000D02*
X440565000Y-322008000D01*
%TO.C,K9*%
X437265000Y-351008000D02*
X424565000Y-351008000D01*
X437265000Y-322008000D02*
X437265000Y-351008000D01*
X424565000Y-322008000D02*
X437265000Y-322008000D01*
X424565000Y-351008000D02*
X424565000Y-322008000D01*
%TO.C,K8*%
X420265000Y-351008000D02*
X407565000Y-351008000D01*
X420265000Y-322008000D02*
X420265000Y-351008000D01*
X407565000Y-322008000D02*
X420265000Y-322008000D01*
X407565000Y-351008000D02*
X407565000Y-322008000D01*
%TO.C,K7*%
X404265000Y-351008000D02*
X391565000Y-351008000D01*
X404265000Y-322008000D02*
X404265000Y-351008000D01*
X391565000Y-322008000D02*
X404265000Y-322008000D01*
X391565000Y-351008000D02*
X391565000Y-322008000D01*
%TO.C,K6*%
X387265000Y-351008000D02*
X374565000Y-351008000D01*
X387265000Y-322008000D02*
X387265000Y-351008000D01*
X374565000Y-322008000D02*
X387265000Y-322008000D01*
X374565000Y-351008000D02*
X374565000Y-322008000D01*
%TO.C,K5*%
X371265000Y-351008000D02*
X358565000Y-351008000D01*
X371265000Y-322008000D02*
X371265000Y-351008000D01*
X358565000Y-322008000D02*
X371265000Y-322008000D01*
X358565000Y-351008000D02*
X358565000Y-322008000D01*
%TO.C,K4*%
X354265000Y-351008000D02*
X341565000Y-351008000D01*
X354265000Y-322008000D02*
X354265000Y-351008000D01*
X341565000Y-322008000D02*
X354265000Y-322008000D01*
X341565000Y-351008000D02*
X341565000Y-322008000D01*
%TO.C,K3*%
X338265000Y-351008000D02*
X325565000Y-351008000D01*
X338265000Y-322008000D02*
X338265000Y-351008000D01*
X325565000Y-322008000D02*
X338265000Y-322008000D01*
X325565000Y-351008000D02*
X325565000Y-322008000D01*
D12*
%TO.C,J1*%
X291830000Y-353573000D02*
X291830000Y-365793000D01*
X291830000Y-365793000D02*
X322050000Y-365793000D01*
X322050000Y-365793000D02*
X322050000Y-353573000D01*
X322050000Y-353573000D02*
X291830000Y-353573000D01*
X291830000Y-364293000D02*
X291830000Y-362493000D01*
X291830000Y-362493000D02*
X322050000Y-362493000D01*
X322050000Y-362493000D02*
X322050000Y-364293000D01*
X322050000Y-364293000D02*
X291830000Y-364293000D01*
X294690000Y-365793000D02*
X296690000Y-365793000D01*
X296690000Y-365793000D02*
X296440000Y-364293000D01*
X296440000Y-364293000D02*
X294940000Y-364293000D01*
X294940000Y-364293000D02*
X294690000Y-365793000D01*
X302190000Y-365793000D02*
X304190000Y-365793000D01*
X304190000Y-365793000D02*
X303940000Y-364293000D01*
X303940000Y-364293000D02*
X302440000Y-364293000D01*
X302440000Y-364293000D02*
X302190000Y-365793000D01*
X309690000Y-365793000D02*
X311690000Y-365793000D01*
X311690000Y-365793000D02*
X311440000Y-364293000D01*
X311440000Y-364293000D02*
X309940000Y-364293000D01*
X309940000Y-364293000D02*
X309690000Y-365793000D01*
X317190000Y-365793000D02*
X319190000Y-365793000D01*
X319190000Y-365793000D02*
X318940000Y-364293000D01*
X318940000Y-364293000D02*
X317440000Y-364293000D01*
X317440000Y-364293000D02*
X317190000Y-365793000D01*
X295990000Y-352773000D02*
X295690000Y-353373000D01*
X295690000Y-353373000D02*
X295390000Y-352773000D01*
X295390000Y-352773000D02*
X295990000Y-352773000D01*
%TO.C,J11*%
X453550000Y-275893000D02*
X453550000Y-263673000D01*
X453550000Y-263673000D02*
X423330000Y-263673000D01*
X423330000Y-263673000D02*
X423330000Y-275893000D01*
X423330000Y-275893000D02*
X453550000Y-275893000D01*
X453550000Y-265173000D02*
X453550000Y-266973000D01*
X453550000Y-266973000D02*
X423330000Y-266973000D01*
X423330000Y-266973000D02*
X423330000Y-265173000D01*
X423330000Y-265173000D02*
X453550000Y-265173000D01*
X450690000Y-263673000D02*
X448690000Y-263673000D01*
X448690000Y-263673000D02*
X448940000Y-265173000D01*
X448940000Y-265173000D02*
X450440000Y-265173000D01*
X450440000Y-265173000D02*
X450690000Y-263673000D01*
X443190000Y-263673000D02*
X441190000Y-263673000D01*
X441190000Y-263673000D02*
X441440000Y-265173000D01*
X441440000Y-265173000D02*
X442940000Y-265173000D01*
X442940000Y-265173000D02*
X443190000Y-263673000D01*
X435690000Y-263673000D02*
X433690000Y-263673000D01*
X433690000Y-263673000D02*
X433940000Y-265173000D01*
X433940000Y-265173000D02*
X435440000Y-265173000D01*
X435440000Y-265173000D02*
X435690000Y-263673000D01*
X428190000Y-263673000D02*
X426190000Y-263673000D01*
X426190000Y-263673000D02*
X426440000Y-265173000D01*
X426440000Y-265173000D02*
X427940000Y-265173000D01*
X427940000Y-265173000D02*
X428190000Y-263673000D01*
X449390000Y-276693000D02*
X449690000Y-276093000D01*
X449690000Y-276093000D02*
X449990000Y-276693000D01*
X449990000Y-276693000D02*
X449390000Y-276693000D01*
%TO.C,J10*%
X420550000Y-275868000D02*
X420550000Y-263648000D01*
X420550000Y-263648000D02*
X390330000Y-263648000D01*
X390330000Y-263648000D02*
X390330000Y-275868000D01*
X390330000Y-275868000D02*
X420550000Y-275868000D01*
X420550000Y-265148000D02*
X420550000Y-266948000D01*
X420550000Y-266948000D02*
X390330000Y-266948000D01*
X390330000Y-266948000D02*
X390330000Y-265148000D01*
X390330000Y-265148000D02*
X420550000Y-265148000D01*
X417690000Y-263648000D02*
X415690000Y-263648000D01*
X415690000Y-263648000D02*
X415940000Y-265148000D01*
X415940000Y-265148000D02*
X417440000Y-265148000D01*
X417440000Y-265148000D02*
X417690000Y-263648000D01*
X410190000Y-263648000D02*
X408190000Y-263648000D01*
X408190000Y-263648000D02*
X408440000Y-265148000D01*
X408440000Y-265148000D02*
X409940000Y-265148000D01*
X409940000Y-265148000D02*
X410190000Y-263648000D01*
X402690000Y-263648000D02*
X400690000Y-263648000D01*
X400690000Y-263648000D02*
X400940000Y-265148000D01*
X400940000Y-265148000D02*
X402440000Y-265148000D01*
X402440000Y-265148000D02*
X402690000Y-263648000D01*
X395190000Y-263648000D02*
X393190000Y-263648000D01*
X393190000Y-263648000D02*
X393440000Y-265148000D01*
X393440000Y-265148000D02*
X394940000Y-265148000D01*
X394940000Y-265148000D02*
X395190000Y-263648000D01*
X416390000Y-276668000D02*
X416690000Y-276068000D01*
X416690000Y-276068000D02*
X416990000Y-276668000D01*
X416990000Y-276668000D02*
X416390000Y-276668000D01*
%TO.C,J9*%
X354550000Y-275868000D02*
X354550000Y-263648000D01*
X354550000Y-263648000D02*
X324330000Y-263648000D01*
X324330000Y-263648000D02*
X324330000Y-275868000D01*
X324330000Y-275868000D02*
X354550000Y-275868000D01*
X354550000Y-265148000D02*
X354550000Y-266948000D01*
X354550000Y-266948000D02*
X324330000Y-266948000D01*
X324330000Y-266948000D02*
X324330000Y-265148000D01*
X324330000Y-265148000D02*
X354550000Y-265148000D01*
X351690000Y-263648000D02*
X349690000Y-263648000D01*
X349690000Y-263648000D02*
X349940000Y-265148000D01*
X349940000Y-265148000D02*
X351440000Y-265148000D01*
X351440000Y-265148000D02*
X351690000Y-263648000D01*
X344190000Y-263648000D02*
X342190000Y-263648000D01*
X342190000Y-263648000D02*
X342440000Y-265148000D01*
X342440000Y-265148000D02*
X343940000Y-265148000D01*
X343940000Y-265148000D02*
X344190000Y-263648000D01*
X336690000Y-263648000D02*
X334690000Y-263648000D01*
X334690000Y-263648000D02*
X334940000Y-265148000D01*
X334940000Y-265148000D02*
X336440000Y-265148000D01*
X336440000Y-265148000D02*
X336690000Y-263648000D01*
X329190000Y-263648000D02*
X327190000Y-263648000D01*
X327190000Y-263648000D02*
X327440000Y-265148000D01*
X327440000Y-265148000D02*
X328940000Y-265148000D01*
X328940000Y-265148000D02*
X329190000Y-263648000D01*
X350390000Y-276668000D02*
X350690000Y-276068000D01*
X350690000Y-276068000D02*
X350990000Y-276668000D01*
X350990000Y-276668000D02*
X350390000Y-276668000D01*
%TO.C,J8*%
X387550000Y-275868000D02*
X387550000Y-263648000D01*
X387550000Y-263648000D02*
X357330000Y-263648000D01*
X357330000Y-263648000D02*
X357330000Y-275868000D01*
X357330000Y-275868000D02*
X387550000Y-275868000D01*
X387550000Y-265148000D02*
X387550000Y-266948000D01*
X387550000Y-266948000D02*
X357330000Y-266948000D01*
X357330000Y-266948000D02*
X357330000Y-265148000D01*
X357330000Y-265148000D02*
X387550000Y-265148000D01*
X384690000Y-263648000D02*
X382690000Y-263648000D01*
X382690000Y-263648000D02*
X382940000Y-265148000D01*
X382940000Y-265148000D02*
X384440000Y-265148000D01*
X384440000Y-265148000D02*
X384690000Y-263648000D01*
X377190000Y-263648000D02*
X375190000Y-263648000D01*
X375190000Y-263648000D02*
X375440000Y-265148000D01*
X375440000Y-265148000D02*
X376940000Y-265148000D01*
X376940000Y-265148000D02*
X377190000Y-263648000D01*
X369690000Y-263648000D02*
X367690000Y-263648000D01*
X367690000Y-263648000D02*
X367940000Y-265148000D01*
X367940000Y-265148000D02*
X369440000Y-265148000D01*
X369440000Y-265148000D02*
X369690000Y-263648000D01*
X362190000Y-263648000D02*
X360190000Y-263648000D01*
X360190000Y-263648000D02*
X360440000Y-265148000D01*
X360440000Y-265148000D02*
X361940000Y-265148000D01*
X361940000Y-265148000D02*
X362190000Y-263648000D01*
X383390000Y-276668000D02*
X383690000Y-276068000D01*
X383690000Y-276068000D02*
X383990000Y-276668000D01*
X383990000Y-276668000D02*
X383390000Y-276668000D01*
%TO.C,J7*%
X321575000Y-275868000D02*
X321575000Y-263648000D01*
X321575000Y-263648000D02*
X291355000Y-263648000D01*
X291355000Y-263648000D02*
X291355000Y-275868000D01*
X291355000Y-275868000D02*
X321575000Y-275868000D01*
X321575000Y-265148000D02*
X321575000Y-266948000D01*
X321575000Y-266948000D02*
X291355000Y-266948000D01*
X291355000Y-266948000D02*
X291355000Y-265148000D01*
X291355000Y-265148000D02*
X321575000Y-265148000D01*
X318715000Y-263648000D02*
X316715000Y-263648000D01*
X316715000Y-263648000D02*
X316965000Y-265148000D01*
X316965000Y-265148000D02*
X318465000Y-265148000D01*
X318465000Y-265148000D02*
X318715000Y-263648000D01*
X311215000Y-263648000D02*
X309215000Y-263648000D01*
X309215000Y-263648000D02*
X309465000Y-265148000D01*
X309465000Y-265148000D02*
X310965000Y-265148000D01*
X310965000Y-265148000D02*
X311215000Y-263648000D01*
X303715000Y-263648000D02*
X301715000Y-263648000D01*
X301715000Y-263648000D02*
X301965000Y-265148000D01*
X301965000Y-265148000D02*
X303465000Y-265148000D01*
X303465000Y-265148000D02*
X303715000Y-263648000D01*
X296215000Y-263648000D02*
X294215000Y-263648000D01*
X294215000Y-263648000D02*
X294465000Y-265148000D01*
X294465000Y-265148000D02*
X295965000Y-265148000D01*
X295965000Y-265148000D02*
X296215000Y-263648000D01*
X317415000Y-276668000D02*
X317715000Y-276068000D01*
X317715000Y-276068000D02*
X318015000Y-276668000D01*
X318015000Y-276668000D02*
X317415000Y-276668000D01*
%TO.C,J6*%
X423830000Y-353573000D02*
X423830000Y-365793000D01*
X423830000Y-365793000D02*
X454050000Y-365793000D01*
X454050000Y-365793000D02*
X454050000Y-353573000D01*
X454050000Y-353573000D02*
X423830000Y-353573000D01*
X423830000Y-364293000D02*
X423830000Y-362493000D01*
X423830000Y-362493000D02*
X454050000Y-362493000D01*
X454050000Y-362493000D02*
X454050000Y-364293000D01*
X454050000Y-364293000D02*
X423830000Y-364293000D01*
X426690000Y-365793000D02*
X428690000Y-365793000D01*
X428690000Y-365793000D02*
X428440000Y-364293000D01*
X428440000Y-364293000D02*
X426940000Y-364293000D01*
X426940000Y-364293000D02*
X426690000Y-365793000D01*
X434190000Y-365793000D02*
X436190000Y-365793000D01*
X436190000Y-365793000D02*
X435940000Y-364293000D01*
X435940000Y-364293000D02*
X434440000Y-364293000D01*
X434440000Y-364293000D02*
X434190000Y-365793000D01*
X441690000Y-365793000D02*
X443690000Y-365793000D01*
X443690000Y-365793000D02*
X443440000Y-364293000D01*
X443440000Y-364293000D02*
X441940000Y-364293000D01*
X441940000Y-364293000D02*
X441690000Y-365793000D01*
X449190000Y-365793000D02*
X451190000Y-365793000D01*
X451190000Y-365793000D02*
X450940000Y-364293000D01*
X450940000Y-364293000D02*
X449440000Y-364293000D01*
X449440000Y-364293000D02*
X449190000Y-365793000D01*
X427990000Y-352773000D02*
X427690000Y-353373000D01*
X427690000Y-353373000D02*
X427390000Y-352773000D01*
X427390000Y-352773000D02*
X427990000Y-352773000D01*
%TO.C,J5*%
X390830000Y-353573000D02*
X390830000Y-365793000D01*
X390830000Y-365793000D02*
X421050000Y-365793000D01*
X421050000Y-365793000D02*
X421050000Y-353573000D01*
X421050000Y-353573000D02*
X390830000Y-353573000D01*
X390830000Y-364293000D02*
X390830000Y-362493000D01*
X390830000Y-362493000D02*
X421050000Y-362493000D01*
X421050000Y-362493000D02*
X421050000Y-364293000D01*
X421050000Y-364293000D02*
X390830000Y-364293000D01*
X393690000Y-365793000D02*
X395690000Y-365793000D01*
X395690000Y-365793000D02*
X395440000Y-364293000D01*
X395440000Y-364293000D02*
X393940000Y-364293000D01*
X393940000Y-364293000D02*
X393690000Y-365793000D01*
X401190000Y-365793000D02*
X403190000Y-365793000D01*
X403190000Y-365793000D02*
X402940000Y-364293000D01*
X402940000Y-364293000D02*
X401440000Y-364293000D01*
X401440000Y-364293000D02*
X401190000Y-365793000D01*
X408690000Y-365793000D02*
X410690000Y-365793000D01*
X410690000Y-365793000D02*
X410440000Y-364293000D01*
X410440000Y-364293000D02*
X408940000Y-364293000D01*
X408940000Y-364293000D02*
X408690000Y-365793000D01*
X416190000Y-365793000D02*
X418190000Y-365793000D01*
X418190000Y-365793000D02*
X417940000Y-364293000D01*
X417940000Y-364293000D02*
X416440000Y-364293000D01*
X416440000Y-364293000D02*
X416190000Y-365793000D01*
X394990000Y-352773000D02*
X394690000Y-353373000D01*
X394690000Y-353373000D02*
X394390000Y-352773000D01*
X394390000Y-352773000D02*
X394990000Y-352773000D01*
%TO.C,J4*%
X357830000Y-353573000D02*
X357830000Y-365793000D01*
X357830000Y-365793000D02*
X388050000Y-365793000D01*
X388050000Y-365793000D02*
X388050000Y-353573000D01*
X388050000Y-353573000D02*
X357830000Y-353573000D01*
X357830000Y-364293000D02*
X357830000Y-362493000D01*
X357830000Y-362493000D02*
X388050000Y-362493000D01*
X388050000Y-362493000D02*
X388050000Y-364293000D01*
X388050000Y-364293000D02*
X357830000Y-364293000D01*
X360690000Y-365793000D02*
X362690000Y-365793000D01*
X362690000Y-365793000D02*
X362440000Y-364293000D01*
X362440000Y-364293000D02*
X360940000Y-364293000D01*
X360940000Y-364293000D02*
X360690000Y-365793000D01*
X368190000Y-365793000D02*
X370190000Y-365793000D01*
X370190000Y-365793000D02*
X369940000Y-364293000D01*
X369940000Y-364293000D02*
X368440000Y-364293000D01*
X368440000Y-364293000D02*
X368190000Y-365793000D01*
X375690000Y-365793000D02*
X377690000Y-365793000D01*
X377690000Y-365793000D02*
X377440000Y-364293000D01*
X377440000Y-364293000D02*
X375940000Y-364293000D01*
X375940000Y-364293000D02*
X375690000Y-365793000D01*
X383190000Y-365793000D02*
X385190000Y-365793000D01*
X385190000Y-365793000D02*
X384940000Y-364293000D01*
X384940000Y-364293000D02*
X383440000Y-364293000D01*
X383440000Y-364293000D02*
X383190000Y-365793000D01*
X361990000Y-352773000D02*
X361690000Y-353373000D01*
X361690000Y-353373000D02*
X361390000Y-352773000D01*
X361390000Y-352773000D02*
X361990000Y-352773000D01*
%TO.C,J2*%
X324830000Y-353573000D02*
X324830000Y-365793000D01*
X324830000Y-365793000D02*
X355050000Y-365793000D01*
X355050000Y-365793000D02*
X355050000Y-353573000D01*
X355050000Y-353573000D02*
X324830000Y-353573000D01*
X324830000Y-364293000D02*
X324830000Y-362493000D01*
X324830000Y-362493000D02*
X355050000Y-362493000D01*
X355050000Y-362493000D02*
X355050000Y-364293000D01*
X355050000Y-364293000D02*
X324830000Y-364293000D01*
X327690000Y-365793000D02*
X329690000Y-365793000D01*
X329690000Y-365793000D02*
X329440000Y-364293000D01*
X329440000Y-364293000D02*
X327940000Y-364293000D01*
X327940000Y-364293000D02*
X327690000Y-365793000D01*
X335190000Y-365793000D02*
X337190000Y-365793000D01*
X337190000Y-365793000D02*
X336940000Y-364293000D01*
X336940000Y-364293000D02*
X335440000Y-364293000D01*
X335440000Y-364293000D02*
X335190000Y-365793000D01*
X342690000Y-365793000D02*
X344690000Y-365793000D01*
X344690000Y-365793000D02*
X344440000Y-364293000D01*
X344440000Y-364293000D02*
X342940000Y-364293000D01*
X342940000Y-364293000D02*
X342690000Y-365793000D01*
X350190000Y-365793000D02*
X352190000Y-365793000D01*
X352190000Y-365793000D02*
X351940000Y-364293000D01*
X351940000Y-364293000D02*
X350440000Y-364293000D01*
X350440000Y-364293000D02*
X350190000Y-365793000D01*
X328990000Y-352773000D02*
X328690000Y-353373000D01*
X328690000Y-353373000D02*
X328390000Y-352773000D01*
X328390000Y-352773000D02*
X328990000Y-352773000D01*
%TO.C,C4*%
D10*
X315453333Y-308405142D02*
X315405714Y-308452761D01*
X315262857Y-308500380D01*
X315167619Y-308500380D01*
X315024761Y-308452761D01*
X314929523Y-308357523D01*
X314881904Y-308262285D01*
X314834285Y-308071809D01*
X314834285Y-307928952D01*
X314881904Y-307738476D01*
X314929523Y-307643238D01*
X315024761Y-307548000D01*
X315167619Y-307500380D01*
X315262857Y-307500380D01*
X315405714Y-307548000D01*
X315453333Y-307595619D01*
X316310476Y-307833714D02*
X316310476Y-308500380D01*
X316072380Y-307452761D02*
X315834285Y-308167047D01*
X316453333Y-308167047D01*
%TO.C,C3*%
X414913333Y-308395142D02*
X414865714Y-308442761D01*
X414722857Y-308490380D01*
X414627619Y-308490380D01*
X414484761Y-308442761D01*
X414389523Y-308347523D01*
X414341904Y-308252285D01*
X414294285Y-308061809D01*
X414294285Y-307918952D01*
X414341904Y-307728476D01*
X414389523Y-307633238D01*
X414484761Y-307538000D01*
X414627619Y-307490380D01*
X414722857Y-307490380D01*
X414865714Y-307538000D01*
X414913333Y-307585619D01*
X415246666Y-307490380D02*
X415865714Y-307490380D01*
X415532380Y-307871333D01*
X415675238Y-307871333D01*
X415770476Y-307918952D01*
X415818095Y-307966571D01*
X415865714Y-308061809D01*
X415865714Y-308299904D01*
X415818095Y-308395142D01*
X415770476Y-308442761D01*
X415675238Y-308490380D01*
X415389523Y-308490380D01*
X415294285Y-308442761D01*
X415246666Y-308395142D01*
%TO.C,C2*%
X331938333Y-318215142D02*
X331890714Y-318262761D01*
X331747857Y-318310380D01*
X331652619Y-318310380D01*
X331509761Y-318262761D01*
X331414523Y-318167523D01*
X331366904Y-318072285D01*
X331319285Y-317881809D01*
X331319285Y-317738952D01*
X331366904Y-317548476D01*
X331414523Y-317453238D01*
X331509761Y-317358000D01*
X331652619Y-317310380D01*
X331747857Y-317310380D01*
X331890714Y-317358000D01*
X331938333Y-317405619D01*
X332319285Y-317405619D02*
X332366904Y-317358000D01*
X332462142Y-317310380D01*
X332700238Y-317310380D01*
X332795476Y-317358000D01*
X332843095Y-317405619D01*
X332890714Y-317500857D01*
X332890714Y-317596095D01*
X332843095Y-317738952D01*
X332271666Y-318310380D01*
X332890714Y-318310380D01*
%TO.C,C1*%
X428813333Y-309795142D02*
X428765714Y-309842761D01*
X428622857Y-309890380D01*
X428527619Y-309890380D01*
X428384761Y-309842761D01*
X428289523Y-309747523D01*
X428241904Y-309652285D01*
X428194285Y-309461809D01*
X428194285Y-309318952D01*
X428241904Y-309128476D01*
X428289523Y-309033238D01*
X428384761Y-308938000D01*
X428527619Y-308890380D01*
X428622857Y-308890380D01*
X428765714Y-308938000D01*
X428813333Y-308985619D01*
X429765714Y-309890380D02*
X429194285Y-309890380D01*
X429480000Y-309890380D02*
X429480000Y-308890380D01*
X429384761Y-309033238D01*
X429289523Y-309128476D01*
X429194285Y-309176095D01*
%TO.C,U1*%
X438381095Y-311685380D02*
X438381095Y-312494904D01*
X438428714Y-312590142D01*
X438476333Y-312637761D01*
X438571571Y-312685380D01*
X438762047Y-312685380D01*
X438857285Y-312637761D01*
X438904904Y-312590142D01*
X438952523Y-312494904D01*
X438952523Y-311685380D01*
X439952523Y-312685380D02*
X439381095Y-312685380D01*
X439666809Y-312685380D02*
X439666809Y-311685380D01*
X439571571Y-311828238D01*
X439476333Y-311923476D01*
X439381095Y-311971095D01*
%TO.C,R9*%
X430103380Y-314849666D02*
X429627190Y-315183000D01*
X430103380Y-315421095D02*
X429103380Y-315421095D01*
X429103380Y-315040142D01*
X429151000Y-314944904D01*
X429198619Y-314897285D01*
X429293857Y-314849666D01*
X429436714Y-314849666D01*
X429531952Y-314897285D01*
X429579571Y-314944904D01*
X429627190Y-315040142D01*
X429627190Y-315421095D01*
X430103380Y-314373476D02*
X430103380Y-314183000D01*
X430055761Y-314087761D01*
X430008142Y-314040142D01*
X429865285Y-313944904D01*
X429674809Y-313897285D01*
X429293857Y-313897285D01*
X429198619Y-313944904D01*
X429151000Y-313992523D01*
X429103380Y-314087761D01*
X429103380Y-314278238D01*
X429151000Y-314373476D01*
X429198619Y-314421095D01*
X429293857Y-314468714D01*
X429531952Y-314468714D01*
X429627190Y-314421095D01*
X429674809Y-314373476D01*
X429722428Y-314278238D01*
X429722428Y-314087761D01*
X429674809Y-313992523D01*
X429627190Y-313944904D01*
X429531952Y-313897285D01*
%TO.C,R8*%
X435691380Y-314849666D02*
X435215190Y-315183000D01*
X435691380Y-315421095D02*
X434691380Y-315421095D01*
X434691380Y-315040142D01*
X434739000Y-314944904D01*
X434786619Y-314897285D01*
X434881857Y-314849666D01*
X435024714Y-314849666D01*
X435119952Y-314897285D01*
X435167571Y-314944904D01*
X435215190Y-315040142D01*
X435215190Y-315421095D01*
X435119952Y-314278238D02*
X435072333Y-314373476D01*
X435024714Y-314421095D01*
X434929476Y-314468714D01*
X434881857Y-314468714D01*
X434786619Y-314421095D01*
X434739000Y-314373476D01*
X434691380Y-314278238D01*
X434691380Y-314087761D01*
X434739000Y-313992523D01*
X434786619Y-313944904D01*
X434881857Y-313897285D01*
X434929476Y-313897285D01*
X435024714Y-313944904D01*
X435072333Y-313992523D01*
X435119952Y-314087761D01*
X435119952Y-314278238D01*
X435167571Y-314373476D01*
X435215190Y-314421095D01*
X435310428Y-314468714D01*
X435500904Y-314468714D01*
X435596142Y-314421095D01*
X435643761Y-314373476D01*
X435691380Y-314278238D01*
X435691380Y-314087761D01*
X435643761Y-313992523D01*
X435596142Y-313944904D01*
X435500904Y-313897285D01*
X435310428Y-313897285D01*
X435215190Y-313944904D01*
X435167571Y-313992523D01*
X435119952Y-314087761D01*
%TO.C,R7*%
X432897380Y-314849666D02*
X432421190Y-315183000D01*
X432897380Y-315421095D02*
X431897380Y-315421095D01*
X431897380Y-315040142D01*
X431945000Y-314944904D01*
X431992619Y-314897285D01*
X432087857Y-314849666D01*
X432230714Y-314849666D01*
X432325952Y-314897285D01*
X432373571Y-314944904D01*
X432421190Y-315040142D01*
X432421190Y-315421095D01*
X431897380Y-314516333D02*
X431897380Y-313849666D01*
X432897380Y-314278238D01*
%TO.C,R6*%
X452074380Y-316627666D02*
X451598190Y-316961000D01*
X452074380Y-317199095D02*
X451074380Y-317199095D01*
X451074380Y-316818142D01*
X451122000Y-316722904D01*
X451169619Y-316675285D01*
X451264857Y-316627666D01*
X451407714Y-316627666D01*
X451502952Y-316675285D01*
X451550571Y-316722904D01*
X451598190Y-316818142D01*
X451598190Y-317199095D01*
X451074380Y-315770523D02*
X451074380Y-315961000D01*
X451122000Y-316056238D01*
X451169619Y-316103857D01*
X451312476Y-316199095D01*
X451502952Y-316246714D01*
X451883904Y-316246714D01*
X451979142Y-316199095D01*
X452026761Y-316151476D01*
X452074380Y-316056238D01*
X452074380Y-315865761D01*
X452026761Y-315770523D01*
X451979142Y-315722904D01*
X451883904Y-315675285D01*
X451645809Y-315675285D01*
X451550571Y-315722904D01*
X451502952Y-315770523D01*
X451455333Y-315865761D01*
X451455333Y-316056238D01*
X451502952Y-316151476D01*
X451550571Y-316199095D01*
X451645809Y-316246714D01*
%TO.C,R5*%
X452074380Y-313071666D02*
X451598190Y-313405000D01*
X452074380Y-313643095D02*
X451074380Y-313643095D01*
X451074380Y-313262142D01*
X451122000Y-313166904D01*
X451169619Y-313119285D01*
X451264857Y-313071666D01*
X451407714Y-313071666D01*
X451502952Y-313119285D01*
X451550571Y-313166904D01*
X451598190Y-313262142D01*
X451598190Y-313643095D01*
X451074380Y-312166904D02*
X451074380Y-312643095D01*
X451550571Y-312690714D01*
X451502952Y-312643095D01*
X451455333Y-312547857D01*
X451455333Y-312309761D01*
X451502952Y-312214523D01*
X451550571Y-312166904D01*
X451645809Y-312119285D01*
X451883904Y-312119285D01*
X451979142Y-312166904D01*
X452026761Y-312214523D01*
X452074380Y-312309761D01*
X452074380Y-312547857D01*
X452026761Y-312643095D01*
X451979142Y-312690714D01*
%TO.C,R4*%
X449407380Y-316627666D02*
X448931190Y-316961000D01*
X449407380Y-317199095D02*
X448407380Y-317199095D01*
X448407380Y-316818142D01*
X448455000Y-316722904D01*
X448502619Y-316675285D01*
X448597857Y-316627666D01*
X448740714Y-316627666D01*
X448835952Y-316675285D01*
X448883571Y-316722904D01*
X448931190Y-316818142D01*
X448931190Y-317199095D01*
X448740714Y-315770523D02*
X449407380Y-315770523D01*
X448359761Y-316008619D02*
X449074047Y-316246714D01*
X449074047Y-315627666D01*
%TO.C,R3*%
X449407380Y-313071666D02*
X448931190Y-313405000D01*
X449407380Y-313643095D02*
X448407380Y-313643095D01*
X448407380Y-313262142D01*
X448455000Y-313166904D01*
X448502619Y-313119285D01*
X448597857Y-313071666D01*
X448740714Y-313071666D01*
X448835952Y-313119285D01*
X448883571Y-313166904D01*
X448931190Y-313262142D01*
X448931190Y-313643095D01*
X448407380Y-312738333D02*
X448407380Y-312119285D01*
X448788333Y-312452619D01*
X448788333Y-312309761D01*
X448835952Y-312214523D01*
X448883571Y-312166904D01*
X448978809Y-312119285D01*
X449216904Y-312119285D01*
X449312142Y-312166904D01*
X449359761Y-312214523D01*
X449407380Y-312309761D01*
X449407380Y-312595476D01*
X449359761Y-312690714D01*
X449312142Y-312738333D01*
%TO.C,R2*%
X446740380Y-316627666D02*
X446264190Y-316961000D01*
X446740380Y-317199095D02*
X445740380Y-317199095D01*
X445740380Y-316818142D01*
X445788000Y-316722904D01*
X445835619Y-316675285D01*
X445930857Y-316627666D01*
X446073714Y-316627666D01*
X446168952Y-316675285D01*
X446216571Y-316722904D01*
X446264190Y-316818142D01*
X446264190Y-317199095D01*
X445835619Y-316246714D02*
X445788000Y-316199095D01*
X445740380Y-316103857D01*
X445740380Y-315865761D01*
X445788000Y-315770523D01*
X445835619Y-315722904D01*
X445930857Y-315675285D01*
X446026095Y-315675285D01*
X446168952Y-315722904D01*
X446740380Y-316294333D01*
X446740380Y-315675285D01*
%TO.C,R1*%
X446740380Y-313071666D02*
X446264190Y-313405000D01*
X446740380Y-313643095D02*
X445740380Y-313643095D01*
X445740380Y-313262142D01*
X445788000Y-313166904D01*
X445835619Y-313119285D01*
X445930857Y-313071666D01*
X446073714Y-313071666D01*
X446168952Y-313119285D01*
X446216571Y-313166904D01*
X446264190Y-313262142D01*
X446264190Y-313643095D01*
X446740380Y-312119285D02*
X446740380Y-312690714D01*
X446740380Y-312405000D02*
X445740380Y-312405000D01*
X445883238Y-312500238D01*
X445978476Y-312595476D01*
X446026095Y-312690714D01*
%TO.C,K1*%
D14*
X299489523Y-337445380D02*
X298219523Y-337445380D01*
X299489523Y-336719666D02*
X298763809Y-337263952D01*
X298219523Y-336719666D02*
X298945238Y-337445380D01*
X299489523Y-335510142D02*
X299489523Y-336235857D01*
X299489523Y-335873000D02*
X298219523Y-335873000D01*
X298400952Y-335993952D01*
X298521904Y-336114904D01*
X298582380Y-336235857D01*
%TO.C,J3*%
D10*
X356262380Y-314771333D02*
X356976666Y-314771333D01*
X357119523Y-314818952D01*
X357214761Y-314914190D01*
X357262380Y-315057047D01*
X357262380Y-315152285D01*
X356262380Y-314390380D02*
X356262380Y-313771333D01*
X356643333Y-314104666D01*
X356643333Y-313961809D01*
X356690952Y-313866571D01*
X356738571Y-313818952D01*
X356833809Y-313771333D01*
X357071904Y-313771333D01*
X357167142Y-313818952D01*
X357214761Y-313866571D01*
X357262380Y-313961809D01*
X357262380Y-314247523D01*
X357214761Y-314342761D01*
X357167142Y-314390380D01*
%TO.C,K2*%
D14*
X315489523Y-337445380D02*
X314219523Y-337445380D01*
X315489523Y-336719666D02*
X314763809Y-337263952D01*
X314219523Y-336719666D02*
X314945238Y-337445380D01*
X314340476Y-336235857D02*
X314280000Y-336175380D01*
X314219523Y-336054428D01*
X314219523Y-335752047D01*
X314280000Y-335631095D01*
X314340476Y-335570619D01*
X314461428Y-335510142D01*
X314582380Y-335510142D01*
X314763809Y-335570619D01*
X315489523Y-336296333D01*
X315489523Y-335510142D01*
%TO.C,K18*%
X413939523Y-294425142D02*
X412669523Y-294425142D01*
X413939523Y-293699428D02*
X413213809Y-294243714D01*
X412669523Y-293699428D02*
X413395238Y-294425142D01*
X413939523Y-292489904D02*
X413939523Y-293215619D01*
X413939523Y-292852761D02*
X412669523Y-292852761D01*
X412850952Y-292973714D01*
X412971904Y-293094666D01*
X413032380Y-293215619D01*
X413213809Y-291764190D02*
X413153333Y-291885142D01*
X413092857Y-291945619D01*
X412971904Y-292006095D01*
X412911428Y-292006095D01*
X412790476Y-291945619D01*
X412730000Y-291885142D01*
X412669523Y-291764190D01*
X412669523Y-291522285D01*
X412730000Y-291401333D01*
X412790476Y-291340857D01*
X412911428Y-291280380D01*
X412971904Y-291280380D01*
X413092857Y-291340857D01*
X413153333Y-291401333D01*
X413213809Y-291522285D01*
X413213809Y-291764190D01*
X413274285Y-291885142D01*
X413334761Y-291945619D01*
X413455714Y-292006095D01*
X413697619Y-292006095D01*
X413818571Y-291945619D01*
X413879047Y-291885142D01*
X413939523Y-291764190D01*
X413939523Y-291522285D01*
X413879047Y-291401333D01*
X413818571Y-291340857D01*
X413697619Y-291280380D01*
X413455714Y-291280380D01*
X413334761Y-291340857D01*
X413274285Y-291401333D01*
X413213809Y-291522285D01*
%TO.C,U4*%
D10*
X398272380Y-315319904D02*
X399081904Y-315319904D01*
X399177142Y-315272285D01*
X399224761Y-315224666D01*
X399272380Y-315129428D01*
X399272380Y-314938952D01*
X399224761Y-314843714D01*
X399177142Y-314796095D01*
X399081904Y-314748476D01*
X398272380Y-314748476D01*
X398605714Y-313843714D02*
X399272380Y-313843714D01*
X398224761Y-314081809D02*
X398939047Y-314319904D01*
X398939047Y-313700857D01*
%TO.C,U3*%
X347712380Y-315069904D02*
X348521904Y-315069904D01*
X348617142Y-315022285D01*
X348664761Y-314974666D01*
X348712380Y-314879428D01*
X348712380Y-314688952D01*
X348664761Y-314593714D01*
X348617142Y-314546095D01*
X348521904Y-314498476D01*
X347712380Y-314498476D01*
X347712380Y-314117523D02*
X347712380Y-313498476D01*
X348093333Y-313831809D01*
X348093333Y-313688952D01*
X348140952Y-313593714D01*
X348188571Y-313546095D01*
X348283809Y-313498476D01*
X348521904Y-313498476D01*
X348617142Y-313546095D01*
X348664761Y-313593714D01*
X348712380Y-313688952D01*
X348712380Y-313974666D01*
X348664761Y-314069904D01*
X348617142Y-314117523D01*
%TO.C,U2*%
X300492380Y-322469904D02*
X301301904Y-322469904D01*
X301397142Y-322422285D01*
X301444761Y-322374666D01*
X301492380Y-322279428D01*
X301492380Y-322088952D01*
X301444761Y-321993714D01*
X301397142Y-321946095D01*
X301301904Y-321898476D01*
X300492380Y-321898476D01*
X300587619Y-321469904D02*
X300540000Y-321422285D01*
X300492380Y-321327047D01*
X300492380Y-321088952D01*
X300540000Y-320993714D01*
X300587619Y-320946095D01*
X300682857Y-320898476D01*
X300778095Y-320898476D01*
X300920952Y-320946095D01*
X301492380Y-321517523D01*
X301492380Y-320898476D01*
%TO.C,K20*%
D14*
X446939523Y-294425142D02*
X445669523Y-294425142D01*
X446939523Y-293699428D02*
X446213809Y-294243714D01*
X445669523Y-293699428D02*
X446395238Y-294425142D01*
X445790476Y-293215619D02*
X445730000Y-293155142D01*
X445669523Y-293034190D01*
X445669523Y-292731809D01*
X445730000Y-292610857D01*
X445790476Y-292550380D01*
X445911428Y-292489904D01*
X446032380Y-292489904D01*
X446213809Y-292550380D01*
X446939523Y-293276095D01*
X446939523Y-292489904D01*
X445669523Y-291703714D02*
X445669523Y-291582761D01*
X445730000Y-291461809D01*
X445790476Y-291401333D01*
X445911428Y-291340857D01*
X446153333Y-291280380D01*
X446455714Y-291280380D01*
X446697619Y-291340857D01*
X446818571Y-291401333D01*
X446879047Y-291461809D01*
X446939523Y-291582761D01*
X446939523Y-291703714D01*
X446879047Y-291824666D01*
X446818571Y-291885142D01*
X446697619Y-291945619D01*
X446455714Y-292006095D01*
X446153333Y-292006095D01*
X445911428Y-291945619D01*
X445790476Y-291885142D01*
X445730000Y-291824666D01*
X445669523Y-291703714D01*
%TO.C,K19*%
X430939523Y-294425142D02*
X429669523Y-294425142D01*
X430939523Y-293699428D02*
X430213809Y-294243714D01*
X429669523Y-293699428D02*
X430395238Y-294425142D01*
X430939523Y-292489904D02*
X430939523Y-293215619D01*
X430939523Y-292852761D02*
X429669523Y-292852761D01*
X429850952Y-292973714D01*
X429971904Y-293094666D01*
X430032380Y-293215619D01*
X430939523Y-291885142D02*
X430939523Y-291643238D01*
X430879047Y-291522285D01*
X430818571Y-291461809D01*
X430637142Y-291340857D01*
X430395238Y-291280380D01*
X429911428Y-291280380D01*
X429790476Y-291340857D01*
X429730000Y-291401333D01*
X429669523Y-291522285D01*
X429669523Y-291764190D01*
X429730000Y-291885142D01*
X429790476Y-291945619D01*
X429911428Y-292006095D01*
X430213809Y-292006095D01*
X430334761Y-291945619D01*
X430395238Y-291885142D01*
X430455714Y-291764190D01*
X430455714Y-291522285D01*
X430395238Y-291401333D01*
X430334761Y-291340857D01*
X430213809Y-291280380D01*
%TO.C,K17*%
X397939523Y-294425142D02*
X396669523Y-294425142D01*
X397939523Y-293699428D02*
X397213809Y-294243714D01*
X396669523Y-293699428D02*
X397395238Y-294425142D01*
X397939523Y-292489904D02*
X397939523Y-293215619D01*
X397939523Y-292852761D02*
X396669523Y-292852761D01*
X396850952Y-292973714D01*
X396971904Y-293094666D01*
X397032380Y-293215619D01*
X396669523Y-292066571D02*
X396669523Y-291219904D01*
X397939523Y-291764190D01*
%TO.C,K13*%
X380939523Y-294425142D02*
X379669523Y-294425142D01*
X380939523Y-293699428D02*
X380213809Y-294243714D01*
X379669523Y-293699428D02*
X380395238Y-294425142D01*
X380939523Y-292489904D02*
X380939523Y-293215619D01*
X380939523Y-292852761D02*
X379669523Y-292852761D01*
X379850952Y-292973714D01*
X379971904Y-293094666D01*
X380032380Y-293215619D01*
X379669523Y-292066571D02*
X379669523Y-291280380D01*
X380153333Y-291703714D01*
X380153333Y-291522285D01*
X380213809Y-291401333D01*
X380274285Y-291340857D01*
X380395238Y-291280380D01*
X380697619Y-291280380D01*
X380818571Y-291340857D01*
X380879047Y-291401333D01*
X380939523Y-291522285D01*
X380939523Y-291885142D01*
X380879047Y-292006095D01*
X380818571Y-292066571D01*
%TO.C,K14*%
X364939523Y-294425142D02*
X363669523Y-294425142D01*
X364939523Y-293699428D02*
X364213809Y-294243714D01*
X363669523Y-293699428D02*
X364395238Y-294425142D01*
X364939523Y-292489904D02*
X364939523Y-293215619D01*
X364939523Y-292852761D02*
X363669523Y-292852761D01*
X363850952Y-292973714D01*
X363971904Y-293094666D01*
X364032380Y-293215619D01*
X364092857Y-291401333D02*
X364939523Y-291401333D01*
X363609047Y-291703714D02*
X364516190Y-292006095D01*
X364516190Y-291219904D01*
%TO.C,K15*%
X347939523Y-294425142D02*
X346669523Y-294425142D01*
X347939523Y-293699428D02*
X347213809Y-294243714D01*
X346669523Y-293699428D02*
X347395238Y-294425142D01*
X347939523Y-292489904D02*
X347939523Y-293215619D01*
X347939523Y-292852761D02*
X346669523Y-292852761D01*
X346850952Y-292973714D01*
X346971904Y-293094666D01*
X347032380Y-293215619D01*
X346669523Y-291340857D02*
X346669523Y-291945619D01*
X347274285Y-292006095D01*
X347213809Y-291945619D01*
X347153333Y-291824666D01*
X347153333Y-291522285D01*
X347213809Y-291401333D01*
X347274285Y-291340857D01*
X347395238Y-291280380D01*
X347697619Y-291280380D01*
X347818571Y-291340857D01*
X347879047Y-291401333D01*
X347939523Y-291522285D01*
X347939523Y-291824666D01*
X347879047Y-291945619D01*
X347818571Y-292006095D01*
%TO.C,K16*%
X331939523Y-294425142D02*
X330669523Y-294425142D01*
X331939523Y-293699428D02*
X331213809Y-294243714D01*
X330669523Y-293699428D02*
X331395238Y-294425142D01*
X331939523Y-292489904D02*
X331939523Y-293215619D01*
X331939523Y-292852761D02*
X330669523Y-292852761D01*
X330850952Y-292973714D01*
X330971904Y-293094666D01*
X331032380Y-293215619D01*
X330669523Y-291401333D02*
X330669523Y-291643238D01*
X330730000Y-291764190D01*
X330790476Y-291824666D01*
X330971904Y-291945619D01*
X331213809Y-292006095D01*
X331697619Y-292006095D01*
X331818571Y-291945619D01*
X331879047Y-291885142D01*
X331939523Y-291764190D01*
X331939523Y-291522285D01*
X331879047Y-291401333D01*
X331818571Y-291340857D01*
X331697619Y-291280380D01*
X331395238Y-291280380D01*
X331274285Y-291340857D01*
X331213809Y-291401333D01*
X331153333Y-291522285D01*
X331153333Y-291764190D01*
X331213809Y-291885142D01*
X331274285Y-291945619D01*
X331395238Y-292006095D01*
%TO.C,K12*%
X314939523Y-294425142D02*
X313669523Y-294425142D01*
X314939523Y-293699428D02*
X314213809Y-294243714D01*
X313669523Y-293699428D02*
X314395238Y-294425142D01*
X314939523Y-292489904D02*
X314939523Y-293215619D01*
X314939523Y-292852761D02*
X313669523Y-292852761D01*
X313850952Y-292973714D01*
X313971904Y-293094666D01*
X314032380Y-293215619D01*
X313790476Y-292006095D02*
X313730000Y-291945619D01*
X313669523Y-291824666D01*
X313669523Y-291522285D01*
X313730000Y-291401333D01*
X313790476Y-291340857D01*
X313911428Y-291280380D01*
X314032380Y-291280380D01*
X314213809Y-291340857D01*
X314939523Y-292066571D01*
X314939523Y-291280380D01*
%TO.C,K11*%
X298939523Y-294425142D02*
X297669523Y-294425142D01*
X298939523Y-293699428D02*
X298213809Y-294243714D01*
X297669523Y-293699428D02*
X298395238Y-294425142D01*
X298939523Y-292489904D02*
X298939523Y-293215619D01*
X298939523Y-292852761D02*
X297669523Y-292852761D01*
X297850952Y-292973714D01*
X297971904Y-293094666D01*
X298032380Y-293215619D01*
X298939523Y-291280380D02*
X298939523Y-292006095D01*
X298939523Y-291643238D02*
X297669523Y-291643238D01*
X297850952Y-291764190D01*
X297971904Y-291885142D01*
X298032380Y-292006095D01*
%TO.C,K10*%
X447489523Y-338050142D02*
X446219523Y-338050142D01*
X447489523Y-337324428D02*
X446763809Y-337868714D01*
X446219523Y-337324428D02*
X446945238Y-338050142D01*
X447489523Y-336114904D02*
X447489523Y-336840619D01*
X447489523Y-336477761D02*
X446219523Y-336477761D01*
X446400952Y-336598714D01*
X446521904Y-336719666D01*
X446582380Y-336840619D01*
X446219523Y-335328714D02*
X446219523Y-335207761D01*
X446280000Y-335086809D01*
X446340476Y-335026333D01*
X446461428Y-334965857D01*
X446703333Y-334905380D01*
X447005714Y-334905380D01*
X447247619Y-334965857D01*
X447368571Y-335026333D01*
X447429047Y-335086809D01*
X447489523Y-335207761D01*
X447489523Y-335328714D01*
X447429047Y-335449666D01*
X447368571Y-335510142D01*
X447247619Y-335570619D01*
X447005714Y-335631095D01*
X446703333Y-335631095D01*
X446461428Y-335570619D01*
X446340476Y-335510142D01*
X446280000Y-335449666D01*
X446219523Y-335328714D01*
%TO.C,K9*%
X431489523Y-337445380D02*
X430219523Y-337445380D01*
X431489523Y-336719666D02*
X430763809Y-337263952D01*
X430219523Y-336719666D02*
X430945238Y-337445380D01*
X431489523Y-336114904D02*
X431489523Y-335873000D01*
X431429047Y-335752047D01*
X431368571Y-335691571D01*
X431187142Y-335570619D01*
X430945238Y-335510142D01*
X430461428Y-335510142D01*
X430340476Y-335570619D01*
X430280000Y-335631095D01*
X430219523Y-335752047D01*
X430219523Y-335993952D01*
X430280000Y-336114904D01*
X430340476Y-336175380D01*
X430461428Y-336235857D01*
X430763809Y-336235857D01*
X430884761Y-336175380D01*
X430945238Y-336114904D01*
X431005714Y-335993952D01*
X431005714Y-335752047D01*
X430945238Y-335631095D01*
X430884761Y-335570619D01*
X430763809Y-335510142D01*
%TO.C,K8*%
X414489523Y-337445380D02*
X413219523Y-337445380D01*
X414489523Y-336719666D02*
X413763809Y-337263952D01*
X413219523Y-336719666D02*
X413945238Y-337445380D01*
X413763809Y-335993952D02*
X413703333Y-336114904D01*
X413642857Y-336175380D01*
X413521904Y-336235857D01*
X413461428Y-336235857D01*
X413340476Y-336175380D01*
X413280000Y-336114904D01*
X413219523Y-335993952D01*
X413219523Y-335752047D01*
X413280000Y-335631095D01*
X413340476Y-335570619D01*
X413461428Y-335510142D01*
X413521904Y-335510142D01*
X413642857Y-335570619D01*
X413703333Y-335631095D01*
X413763809Y-335752047D01*
X413763809Y-335993952D01*
X413824285Y-336114904D01*
X413884761Y-336175380D01*
X414005714Y-336235857D01*
X414247619Y-336235857D01*
X414368571Y-336175380D01*
X414429047Y-336114904D01*
X414489523Y-335993952D01*
X414489523Y-335752047D01*
X414429047Y-335631095D01*
X414368571Y-335570619D01*
X414247619Y-335510142D01*
X414005714Y-335510142D01*
X413884761Y-335570619D01*
X413824285Y-335631095D01*
X413763809Y-335752047D01*
%TO.C,K7*%
X398489523Y-337445380D02*
X397219523Y-337445380D01*
X398489523Y-336719666D02*
X397763809Y-337263952D01*
X397219523Y-336719666D02*
X397945238Y-337445380D01*
X397219523Y-336296333D02*
X397219523Y-335449666D01*
X398489523Y-335993952D01*
%TO.C,K6*%
X381489523Y-337445380D02*
X380219523Y-337445380D01*
X381489523Y-336719666D02*
X380763809Y-337263952D01*
X380219523Y-336719666D02*
X380945238Y-337445380D01*
X380219523Y-335631095D02*
X380219523Y-335873000D01*
X380280000Y-335993952D01*
X380340476Y-336054428D01*
X380521904Y-336175380D01*
X380763809Y-336235857D01*
X381247619Y-336235857D01*
X381368571Y-336175380D01*
X381429047Y-336114904D01*
X381489523Y-335993952D01*
X381489523Y-335752047D01*
X381429047Y-335631095D01*
X381368571Y-335570619D01*
X381247619Y-335510142D01*
X380945238Y-335510142D01*
X380824285Y-335570619D01*
X380763809Y-335631095D01*
X380703333Y-335752047D01*
X380703333Y-335993952D01*
X380763809Y-336114904D01*
X380824285Y-336175380D01*
X380945238Y-336235857D01*
%TO.C,K5*%
X365489523Y-337445380D02*
X364219523Y-337445380D01*
X365489523Y-336719666D02*
X364763809Y-337263952D01*
X364219523Y-336719666D02*
X364945238Y-337445380D01*
X364219523Y-335570619D02*
X364219523Y-336175380D01*
X364824285Y-336235857D01*
X364763809Y-336175380D01*
X364703333Y-336054428D01*
X364703333Y-335752047D01*
X364763809Y-335631095D01*
X364824285Y-335570619D01*
X364945238Y-335510142D01*
X365247619Y-335510142D01*
X365368571Y-335570619D01*
X365429047Y-335631095D01*
X365489523Y-335752047D01*
X365489523Y-336054428D01*
X365429047Y-336175380D01*
X365368571Y-336235857D01*
%TO.C,K4*%
X348489523Y-337445380D02*
X347219523Y-337445380D01*
X348489523Y-336719666D02*
X347763809Y-337263952D01*
X347219523Y-336719666D02*
X347945238Y-337445380D01*
X347642857Y-335631095D02*
X348489523Y-335631095D01*
X347159047Y-335933476D02*
X348066190Y-336235857D01*
X348066190Y-335449666D01*
%TO.C,K3*%
X332489523Y-337445380D02*
X331219523Y-337445380D01*
X332489523Y-336719666D02*
X331763809Y-337263952D01*
X331219523Y-336719666D02*
X331945238Y-337445380D01*
X331219523Y-336296333D02*
X331219523Y-335510142D01*
X331703333Y-335933476D01*
X331703333Y-335752047D01*
X331763809Y-335631095D01*
X331824285Y-335570619D01*
X331945238Y-335510142D01*
X332247619Y-335510142D01*
X332368571Y-335570619D01*
X332429047Y-335631095D01*
X332489523Y-335752047D01*
X332489523Y-336114904D01*
X332429047Y-336235857D01*
X332368571Y-336296333D01*
%TO.C,J1*%
D10*
X306606666Y-351935380D02*
X306606666Y-352649666D01*
X306559047Y-352792523D01*
X306463809Y-352887761D01*
X306320952Y-352935380D01*
X306225714Y-352935380D01*
X307606666Y-352935380D02*
X307035238Y-352935380D01*
X307320952Y-352935380D02*
X307320952Y-351935380D01*
X307225714Y-352078238D01*
X307130476Y-352173476D01*
X307035238Y-352221095D01*
%TO.C,J11*%
X437630476Y-276435380D02*
X437630476Y-277149666D01*
X437582857Y-277292523D01*
X437487619Y-277387761D01*
X437344761Y-277435380D01*
X437249523Y-277435380D01*
X438630476Y-277435380D02*
X438059047Y-277435380D01*
X438344761Y-277435380D02*
X438344761Y-276435380D01*
X438249523Y-276578238D01*
X438154285Y-276673476D01*
X438059047Y-276721095D01*
X439582857Y-277435380D02*
X439011428Y-277435380D01*
X439297142Y-277435380D02*
X439297142Y-276435380D01*
X439201904Y-276578238D01*
X439106666Y-276673476D01*
X439011428Y-276721095D01*
%TO.C,J10*%
X404630476Y-276410380D02*
X404630476Y-277124666D01*
X404582857Y-277267523D01*
X404487619Y-277362761D01*
X404344761Y-277410380D01*
X404249523Y-277410380D01*
X405630476Y-277410380D02*
X405059047Y-277410380D01*
X405344761Y-277410380D02*
X405344761Y-276410380D01*
X405249523Y-276553238D01*
X405154285Y-276648476D01*
X405059047Y-276696095D01*
X406249523Y-276410380D02*
X406344761Y-276410380D01*
X406440000Y-276458000D01*
X406487619Y-276505619D01*
X406535238Y-276600857D01*
X406582857Y-276791333D01*
X406582857Y-277029428D01*
X406535238Y-277219904D01*
X406487619Y-277315142D01*
X406440000Y-277362761D01*
X406344761Y-277410380D01*
X406249523Y-277410380D01*
X406154285Y-277362761D01*
X406106666Y-277315142D01*
X406059047Y-277219904D01*
X406011428Y-277029428D01*
X406011428Y-276791333D01*
X406059047Y-276600857D01*
X406106666Y-276505619D01*
X406154285Y-276458000D01*
X406249523Y-276410380D01*
%TO.C,J9*%
X339106666Y-276410380D02*
X339106666Y-277124666D01*
X339059047Y-277267523D01*
X338963809Y-277362761D01*
X338820952Y-277410380D01*
X338725714Y-277410380D01*
X339630476Y-277410380D02*
X339820952Y-277410380D01*
X339916190Y-277362761D01*
X339963809Y-277315142D01*
X340059047Y-277172285D01*
X340106666Y-276981809D01*
X340106666Y-276600857D01*
X340059047Y-276505619D01*
X340011428Y-276458000D01*
X339916190Y-276410380D01*
X339725714Y-276410380D01*
X339630476Y-276458000D01*
X339582857Y-276505619D01*
X339535238Y-276600857D01*
X339535238Y-276838952D01*
X339582857Y-276934190D01*
X339630476Y-276981809D01*
X339725714Y-277029428D01*
X339916190Y-277029428D01*
X340011428Y-276981809D01*
X340059047Y-276934190D01*
X340106666Y-276838952D01*
%TO.C,J8*%
X372106666Y-276410380D02*
X372106666Y-277124666D01*
X372059047Y-277267523D01*
X371963809Y-277362761D01*
X371820952Y-277410380D01*
X371725714Y-277410380D01*
X372725714Y-276838952D02*
X372630476Y-276791333D01*
X372582857Y-276743714D01*
X372535238Y-276648476D01*
X372535238Y-276600857D01*
X372582857Y-276505619D01*
X372630476Y-276458000D01*
X372725714Y-276410380D01*
X372916190Y-276410380D01*
X373011428Y-276458000D01*
X373059047Y-276505619D01*
X373106666Y-276600857D01*
X373106666Y-276648476D01*
X373059047Y-276743714D01*
X373011428Y-276791333D01*
X372916190Y-276838952D01*
X372725714Y-276838952D01*
X372630476Y-276886571D01*
X372582857Y-276934190D01*
X372535238Y-277029428D01*
X372535238Y-277219904D01*
X372582857Y-277315142D01*
X372630476Y-277362761D01*
X372725714Y-277410380D01*
X372916190Y-277410380D01*
X373011428Y-277362761D01*
X373059047Y-277315142D01*
X373106666Y-277219904D01*
X373106666Y-277029428D01*
X373059047Y-276934190D01*
X373011428Y-276886571D01*
X372916190Y-276838952D01*
%TO.C,J7*%
X306131666Y-276410380D02*
X306131666Y-277124666D01*
X306084047Y-277267523D01*
X305988809Y-277362761D01*
X305845952Y-277410380D01*
X305750714Y-277410380D01*
X306512619Y-276410380D02*
X307179285Y-276410380D01*
X306750714Y-277410380D01*
%TO.C,J6*%
X438606666Y-351935380D02*
X438606666Y-352649666D01*
X438559047Y-352792523D01*
X438463809Y-352887761D01*
X438320952Y-352935380D01*
X438225714Y-352935380D01*
X439511428Y-351935380D02*
X439320952Y-351935380D01*
X439225714Y-351983000D01*
X439178095Y-352030619D01*
X439082857Y-352173476D01*
X439035238Y-352363952D01*
X439035238Y-352744904D01*
X439082857Y-352840142D01*
X439130476Y-352887761D01*
X439225714Y-352935380D01*
X439416190Y-352935380D01*
X439511428Y-352887761D01*
X439559047Y-352840142D01*
X439606666Y-352744904D01*
X439606666Y-352506809D01*
X439559047Y-352411571D01*
X439511428Y-352363952D01*
X439416190Y-352316333D01*
X439225714Y-352316333D01*
X439130476Y-352363952D01*
X439082857Y-352411571D01*
X439035238Y-352506809D01*
%TO.C,J5*%
X405606666Y-351935380D02*
X405606666Y-352649666D01*
X405559047Y-352792523D01*
X405463809Y-352887761D01*
X405320952Y-352935380D01*
X405225714Y-352935380D01*
X406559047Y-351935380D02*
X406082857Y-351935380D01*
X406035238Y-352411571D01*
X406082857Y-352363952D01*
X406178095Y-352316333D01*
X406416190Y-352316333D01*
X406511428Y-352363952D01*
X406559047Y-352411571D01*
X406606666Y-352506809D01*
X406606666Y-352744904D01*
X406559047Y-352840142D01*
X406511428Y-352887761D01*
X406416190Y-352935380D01*
X406178095Y-352935380D01*
X406082857Y-352887761D01*
X406035238Y-352840142D01*
%TO.C,J4*%
X372606666Y-351935380D02*
X372606666Y-352649666D01*
X372559047Y-352792523D01*
X372463809Y-352887761D01*
X372320952Y-352935380D01*
X372225714Y-352935380D01*
X373511428Y-352268714D02*
X373511428Y-352935380D01*
X373273333Y-351887761D02*
X373035238Y-352602047D01*
X373654285Y-352602047D01*
%TO.C,J2*%
X339606666Y-351935380D02*
X339606666Y-352649666D01*
X339559047Y-352792523D01*
X339463809Y-352887761D01*
X339320952Y-352935380D01*
X339225714Y-352935380D01*
X340035238Y-352030619D02*
X340082857Y-351983000D01*
X340178095Y-351935380D01*
X340416190Y-351935380D01*
X340511428Y-351983000D01*
X340559047Y-352030619D01*
X340606666Y-352125857D01*
X340606666Y-352221095D01*
X340559047Y-352363952D01*
X339987619Y-352935380D01*
X340606666Y-352935380D01*
%TD*%
M02*
