%TF.GenerationSoftware,KiCad,Pcbnew,(5.1.10)-1*%
%TF.CreationDate,2021-10-27T16:31:34+02:00*%
%TF.ProjectId,boneIO - relay board,626f6e65-494f-4202-9d20-72656c617920,rev?*%
%TF.SameCoordinates,Original*%
%TF.FileFunction,Soldermask,Bot*%
%TF.FilePolarity,Negative*%
%FSLAX46Y46*%
G04 Gerber Fmt 4.6, Leading zero omitted, Abs format (unit mm)*
G04 Created by KiCad (PCBNEW (5.1.10)-1) date 2021-10-27 16:31:34*
%MOMM*%
%LPD*%
G01*
G04 APERTURE LIST*
%ADD10C,1.950000*%
%ADD11R,2.500000X2.500000*%
%ADD12O,1.700000X1.700000*%
%ADD13R,1.700000X1.700000*%
%ADD14C,0.100000*%
%ADD15C,0.250000*%
G04 APERTURE END LIST*
%TO.C,R29*%
G36*
G01*
X396475000Y-314088000D02*
X395925000Y-314088000D01*
G75*
G02*
X395725000Y-313888000I0J200000D01*
G01*
X395725000Y-313488000D01*
G75*
G02*
X395925000Y-313288000I200000J0D01*
G01*
X396475000Y-313288000D01*
G75*
G02*
X396675000Y-313488000I0J-200000D01*
G01*
X396675000Y-313888000D01*
G75*
G02*
X396475000Y-314088000I-200000J0D01*
G01*
G37*
G36*
G01*
X396475000Y-315738000D02*
X395925000Y-315738000D01*
G75*
G02*
X395725000Y-315538000I0J200000D01*
G01*
X395725000Y-315138000D01*
G75*
G02*
X395925000Y-314938000I200000J0D01*
G01*
X396475000Y-314938000D01*
G75*
G02*
X396675000Y-315138000I0J-200000D01*
G01*
X396675000Y-315538000D01*
G75*
G02*
X396475000Y-315738000I-200000J0D01*
G01*
G37*
%TD*%
%TO.C,R28*%
G36*
G01*
X399155000Y-314103000D02*
X398605000Y-314103000D01*
G75*
G02*
X398405000Y-313903000I0J200000D01*
G01*
X398405000Y-313503000D01*
G75*
G02*
X398605000Y-313303000I200000J0D01*
G01*
X399155000Y-313303000D01*
G75*
G02*
X399355000Y-313503000I0J-200000D01*
G01*
X399355000Y-313903000D01*
G75*
G02*
X399155000Y-314103000I-200000J0D01*
G01*
G37*
G36*
G01*
X399155000Y-315753000D02*
X398605000Y-315753000D01*
G75*
G02*
X398405000Y-315553000I0J200000D01*
G01*
X398405000Y-315153000D01*
G75*
G02*
X398605000Y-314953000I200000J0D01*
G01*
X399155000Y-314953000D01*
G75*
G02*
X399355000Y-315153000I0J-200000D01*
G01*
X399355000Y-315553000D01*
G75*
G02*
X399155000Y-315753000I-200000J0D01*
G01*
G37*
%TD*%
%TO.C,R27*%
G36*
G01*
X401875000Y-314118000D02*
X401325000Y-314118000D01*
G75*
G02*
X401125000Y-313918000I0J200000D01*
G01*
X401125000Y-313518000D01*
G75*
G02*
X401325000Y-313318000I200000J0D01*
G01*
X401875000Y-313318000D01*
G75*
G02*
X402075000Y-313518000I0J-200000D01*
G01*
X402075000Y-313918000D01*
G75*
G02*
X401875000Y-314118000I-200000J0D01*
G01*
G37*
G36*
G01*
X401875000Y-315768000D02*
X401325000Y-315768000D01*
G75*
G02*
X401125000Y-315568000I0J200000D01*
G01*
X401125000Y-315168000D01*
G75*
G02*
X401325000Y-314968000I200000J0D01*
G01*
X401875000Y-314968000D01*
G75*
G02*
X402075000Y-315168000I0J-200000D01*
G01*
X402075000Y-315568000D01*
G75*
G02*
X401875000Y-315768000I-200000J0D01*
G01*
G37*
%TD*%
%TO.C,R26*%
G36*
G01*
X404615000Y-314023000D02*
X404065000Y-314023000D01*
G75*
G02*
X403865000Y-313823000I0J200000D01*
G01*
X403865000Y-313423000D01*
G75*
G02*
X404065000Y-313223000I200000J0D01*
G01*
X404615000Y-313223000D01*
G75*
G02*
X404815000Y-313423000I0J-200000D01*
G01*
X404815000Y-313823000D01*
G75*
G02*
X404615000Y-314023000I-200000J0D01*
G01*
G37*
G36*
G01*
X404615000Y-315673000D02*
X404065000Y-315673000D01*
G75*
G02*
X403865000Y-315473000I0J200000D01*
G01*
X403865000Y-315073000D01*
G75*
G02*
X404065000Y-314873000I200000J0D01*
G01*
X404615000Y-314873000D01*
G75*
G02*
X404815000Y-315073000I0J-200000D01*
G01*
X404815000Y-315473000D01*
G75*
G02*
X404615000Y-315673000I-200000J0D01*
G01*
G37*
%TD*%
%TO.C,R25*%
G36*
G01*
X407215000Y-314023000D02*
X406665000Y-314023000D01*
G75*
G02*
X406465000Y-313823000I0J200000D01*
G01*
X406465000Y-313423000D01*
G75*
G02*
X406665000Y-313223000I200000J0D01*
G01*
X407215000Y-313223000D01*
G75*
G02*
X407415000Y-313423000I0J-200000D01*
G01*
X407415000Y-313823000D01*
G75*
G02*
X407215000Y-314023000I-200000J0D01*
G01*
G37*
G36*
G01*
X407215000Y-315673000D02*
X406665000Y-315673000D01*
G75*
G02*
X406465000Y-315473000I0J200000D01*
G01*
X406465000Y-315073000D01*
G75*
G02*
X406665000Y-314873000I200000J0D01*
G01*
X407215000Y-314873000D01*
G75*
G02*
X407415000Y-315073000I0J-200000D01*
G01*
X407415000Y-315473000D01*
G75*
G02*
X407215000Y-315673000I-200000J0D01*
G01*
G37*
%TD*%
%TO.C,R24*%
G36*
G01*
X409895000Y-314023000D02*
X409345000Y-314023000D01*
G75*
G02*
X409145000Y-313823000I0J200000D01*
G01*
X409145000Y-313423000D01*
G75*
G02*
X409345000Y-313223000I200000J0D01*
G01*
X409895000Y-313223000D01*
G75*
G02*
X410095000Y-313423000I0J-200000D01*
G01*
X410095000Y-313823000D01*
G75*
G02*
X409895000Y-314023000I-200000J0D01*
G01*
G37*
G36*
G01*
X409895000Y-315673000D02*
X409345000Y-315673000D01*
G75*
G02*
X409145000Y-315473000I0J200000D01*
G01*
X409145000Y-315073000D01*
G75*
G02*
X409345000Y-314873000I200000J0D01*
G01*
X409895000Y-314873000D01*
G75*
G02*
X410095000Y-315073000I0J-200000D01*
G01*
X410095000Y-315473000D01*
G75*
G02*
X409895000Y-315673000I-200000J0D01*
G01*
G37*
%TD*%
%TO.C,R23*%
G36*
G01*
X412525000Y-314023000D02*
X411975000Y-314023000D01*
G75*
G02*
X411775000Y-313823000I0J200000D01*
G01*
X411775000Y-313423000D01*
G75*
G02*
X411975000Y-313223000I200000J0D01*
G01*
X412525000Y-313223000D01*
G75*
G02*
X412725000Y-313423000I0J-200000D01*
G01*
X412725000Y-313823000D01*
G75*
G02*
X412525000Y-314023000I-200000J0D01*
G01*
G37*
G36*
G01*
X412525000Y-315673000D02*
X411975000Y-315673000D01*
G75*
G02*
X411775000Y-315473000I0J200000D01*
G01*
X411775000Y-315073000D01*
G75*
G02*
X411975000Y-314873000I200000J0D01*
G01*
X412525000Y-314873000D01*
G75*
G02*
X412725000Y-315073000I0J-200000D01*
G01*
X412725000Y-315473000D01*
G75*
G02*
X412525000Y-315673000I-200000J0D01*
G01*
G37*
%TD*%
%TO.C,R22*%
G36*
G01*
X415195000Y-314023000D02*
X414645000Y-314023000D01*
G75*
G02*
X414445000Y-313823000I0J200000D01*
G01*
X414445000Y-313423000D01*
G75*
G02*
X414645000Y-313223000I200000J0D01*
G01*
X415195000Y-313223000D01*
G75*
G02*
X415395000Y-313423000I0J-200000D01*
G01*
X415395000Y-313823000D01*
G75*
G02*
X415195000Y-314023000I-200000J0D01*
G01*
G37*
G36*
G01*
X415195000Y-315673000D02*
X414645000Y-315673000D01*
G75*
G02*
X414445000Y-315473000I0J200000D01*
G01*
X414445000Y-315073000D01*
G75*
G02*
X414645000Y-314873000I200000J0D01*
G01*
X415195000Y-314873000D01*
G75*
G02*
X415395000Y-315073000I0J-200000D01*
G01*
X415395000Y-315473000D01*
G75*
G02*
X415195000Y-315673000I-200000J0D01*
G01*
G37*
%TD*%
%TO.C,R21*%
G36*
G01*
X348505000Y-314843000D02*
X349055000Y-314843000D01*
G75*
G02*
X349255000Y-315043000I0J-200000D01*
G01*
X349255000Y-315443000D01*
G75*
G02*
X349055000Y-315643000I-200000J0D01*
G01*
X348505000Y-315643000D01*
G75*
G02*
X348305000Y-315443000I0J200000D01*
G01*
X348305000Y-315043000D01*
G75*
G02*
X348505000Y-314843000I200000J0D01*
G01*
G37*
G36*
G01*
X348505000Y-313193000D02*
X349055000Y-313193000D01*
G75*
G02*
X349255000Y-313393000I0J-200000D01*
G01*
X349255000Y-313793000D01*
G75*
G02*
X349055000Y-313993000I-200000J0D01*
G01*
X348505000Y-313993000D01*
G75*
G02*
X348305000Y-313793000I0J200000D01*
G01*
X348305000Y-313393000D01*
G75*
G02*
X348505000Y-313193000I200000J0D01*
G01*
G37*
%TD*%
%TO.C,R20*%
G36*
G01*
X345765000Y-314843000D02*
X346315000Y-314843000D01*
G75*
G02*
X346515000Y-315043000I0J-200000D01*
G01*
X346515000Y-315443000D01*
G75*
G02*
X346315000Y-315643000I-200000J0D01*
G01*
X345765000Y-315643000D01*
G75*
G02*
X345565000Y-315443000I0J200000D01*
G01*
X345565000Y-315043000D01*
G75*
G02*
X345765000Y-314843000I200000J0D01*
G01*
G37*
G36*
G01*
X345765000Y-313193000D02*
X346315000Y-313193000D01*
G75*
G02*
X346515000Y-313393000I0J-200000D01*
G01*
X346515000Y-313793000D01*
G75*
G02*
X346315000Y-313993000I-200000J0D01*
G01*
X345765000Y-313993000D01*
G75*
G02*
X345565000Y-313793000I0J200000D01*
G01*
X345565000Y-313393000D01*
G75*
G02*
X345765000Y-313193000I200000J0D01*
G01*
G37*
%TD*%
%TO.C,R19*%
G36*
G01*
X343075000Y-314848000D02*
X343625000Y-314848000D01*
G75*
G02*
X343825000Y-315048000I0J-200000D01*
G01*
X343825000Y-315448000D01*
G75*
G02*
X343625000Y-315648000I-200000J0D01*
G01*
X343075000Y-315648000D01*
G75*
G02*
X342875000Y-315448000I0J200000D01*
G01*
X342875000Y-315048000D01*
G75*
G02*
X343075000Y-314848000I200000J0D01*
G01*
G37*
G36*
G01*
X343075000Y-313198000D02*
X343625000Y-313198000D01*
G75*
G02*
X343825000Y-313398000I0J-200000D01*
G01*
X343825000Y-313798000D01*
G75*
G02*
X343625000Y-313998000I-200000J0D01*
G01*
X343075000Y-313998000D01*
G75*
G02*
X342875000Y-313798000I0J200000D01*
G01*
X342875000Y-313398000D01*
G75*
G02*
X343075000Y-313198000I200000J0D01*
G01*
G37*
%TD*%
%TO.C,R18*%
G36*
G01*
X340385000Y-314843000D02*
X340935000Y-314843000D01*
G75*
G02*
X341135000Y-315043000I0J-200000D01*
G01*
X341135000Y-315443000D01*
G75*
G02*
X340935000Y-315643000I-200000J0D01*
G01*
X340385000Y-315643000D01*
G75*
G02*
X340185000Y-315443000I0J200000D01*
G01*
X340185000Y-315043000D01*
G75*
G02*
X340385000Y-314843000I200000J0D01*
G01*
G37*
G36*
G01*
X340385000Y-313193000D02*
X340935000Y-313193000D01*
G75*
G02*
X341135000Y-313393000I0J-200000D01*
G01*
X341135000Y-313793000D01*
G75*
G02*
X340935000Y-313993000I-200000J0D01*
G01*
X340385000Y-313993000D01*
G75*
G02*
X340185000Y-313793000I0J200000D01*
G01*
X340185000Y-313393000D01*
G75*
G02*
X340385000Y-313193000I200000J0D01*
G01*
G37*
%TD*%
%TO.C,R17*%
G36*
G01*
X337625000Y-314808000D02*
X338175000Y-314808000D01*
G75*
G02*
X338375000Y-315008000I0J-200000D01*
G01*
X338375000Y-315408000D01*
G75*
G02*
X338175000Y-315608000I-200000J0D01*
G01*
X337625000Y-315608000D01*
G75*
G02*
X337425000Y-315408000I0J200000D01*
G01*
X337425000Y-315008000D01*
G75*
G02*
X337625000Y-314808000I200000J0D01*
G01*
G37*
G36*
G01*
X337625000Y-313158000D02*
X338175000Y-313158000D01*
G75*
G02*
X338375000Y-313358000I0J-200000D01*
G01*
X338375000Y-313758000D01*
G75*
G02*
X338175000Y-313958000I-200000J0D01*
G01*
X337625000Y-313958000D01*
G75*
G02*
X337425000Y-313758000I0J200000D01*
G01*
X337425000Y-313358000D01*
G75*
G02*
X337625000Y-313158000I200000J0D01*
G01*
G37*
%TD*%
%TO.C,R16*%
G36*
G01*
X334895000Y-314823000D02*
X335445000Y-314823000D01*
G75*
G02*
X335645000Y-315023000I0J-200000D01*
G01*
X335645000Y-315423000D01*
G75*
G02*
X335445000Y-315623000I-200000J0D01*
G01*
X334895000Y-315623000D01*
G75*
G02*
X334695000Y-315423000I0J200000D01*
G01*
X334695000Y-315023000D01*
G75*
G02*
X334895000Y-314823000I200000J0D01*
G01*
G37*
G36*
G01*
X334895000Y-313173000D02*
X335445000Y-313173000D01*
G75*
G02*
X335645000Y-313373000I0J-200000D01*
G01*
X335645000Y-313773000D01*
G75*
G02*
X335445000Y-313973000I-200000J0D01*
G01*
X334895000Y-313973000D01*
G75*
G02*
X334695000Y-313773000I0J200000D01*
G01*
X334695000Y-313373000D01*
G75*
G02*
X334895000Y-313173000I200000J0D01*
G01*
G37*
%TD*%
%TO.C,R15*%
G36*
G01*
X299685000Y-313963000D02*
X299135000Y-313963000D01*
G75*
G02*
X298935000Y-313763000I0J200000D01*
G01*
X298935000Y-313363000D01*
G75*
G02*
X299135000Y-313163000I200000J0D01*
G01*
X299685000Y-313163000D01*
G75*
G02*
X299885000Y-313363000I0J-200000D01*
G01*
X299885000Y-313763000D01*
G75*
G02*
X299685000Y-313963000I-200000J0D01*
G01*
G37*
G36*
G01*
X299685000Y-315613000D02*
X299135000Y-315613000D01*
G75*
G02*
X298935000Y-315413000I0J200000D01*
G01*
X298935000Y-315013000D01*
G75*
G02*
X299135000Y-314813000I200000J0D01*
G01*
X299685000Y-314813000D01*
G75*
G02*
X299885000Y-315013000I0J-200000D01*
G01*
X299885000Y-315413000D01*
G75*
G02*
X299685000Y-315613000I-200000J0D01*
G01*
G37*
%TD*%
%TO.C,R14*%
G36*
G01*
X302375000Y-313963000D02*
X301825000Y-313963000D01*
G75*
G02*
X301625000Y-313763000I0J200000D01*
G01*
X301625000Y-313363000D01*
G75*
G02*
X301825000Y-313163000I200000J0D01*
G01*
X302375000Y-313163000D01*
G75*
G02*
X302575000Y-313363000I0J-200000D01*
G01*
X302575000Y-313763000D01*
G75*
G02*
X302375000Y-313963000I-200000J0D01*
G01*
G37*
G36*
G01*
X302375000Y-315613000D02*
X301825000Y-315613000D01*
G75*
G02*
X301625000Y-315413000I0J200000D01*
G01*
X301625000Y-315013000D01*
G75*
G02*
X301825000Y-314813000I200000J0D01*
G01*
X302375000Y-314813000D01*
G75*
G02*
X302575000Y-315013000I0J-200000D01*
G01*
X302575000Y-315413000D01*
G75*
G02*
X302375000Y-315613000I-200000J0D01*
G01*
G37*
%TD*%
%TO.C,R13*%
G36*
G01*
X305065000Y-313963000D02*
X304515000Y-313963000D01*
G75*
G02*
X304315000Y-313763000I0J200000D01*
G01*
X304315000Y-313363000D01*
G75*
G02*
X304515000Y-313163000I200000J0D01*
G01*
X305065000Y-313163000D01*
G75*
G02*
X305265000Y-313363000I0J-200000D01*
G01*
X305265000Y-313763000D01*
G75*
G02*
X305065000Y-313963000I-200000J0D01*
G01*
G37*
G36*
G01*
X305065000Y-315613000D02*
X304515000Y-315613000D01*
G75*
G02*
X304315000Y-315413000I0J200000D01*
G01*
X304315000Y-315013000D01*
G75*
G02*
X304515000Y-314813000I200000J0D01*
G01*
X305065000Y-314813000D01*
G75*
G02*
X305265000Y-315013000I0J-200000D01*
G01*
X305265000Y-315413000D01*
G75*
G02*
X305065000Y-315613000I-200000J0D01*
G01*
G37*
%TD*%
%TO.C,R12*%
G36*
G01*
X307755000Y-313963000D02*
X307205000Y-313963000D01*
G75*
G02*
X307005000Y-313763000I0J200000D01*
G01*
X307005000Y-313363000D01*
G75*
G02*
X307205000Y-313163000I200000J0D01*
G01*
X307755000Y-313163000D01*
G75*
G02*
X307955000Y-313363000I0J-200000D01*
G01*
X307955000Y-313763000D01*
G75*
G02*
X307755000Y-313963000I-200000J0D01*
G01*
G37*
G36*
G01*
X307755000Y-315613000D02*
X307205000Y-315613000D01*
G75*
G02*
X307005000Y-315413000I0J200000D01*
G01*
X307005000Y-315013000D01*
G75*
G02*
X307205000Y-314813000I200000J0D01*
G01*
X307755000Y-314813000D01*
G75*
G02*
X307955000Y-315013000I0J-200000D01*
G01*
X307955000Y-315413000D01*
G75*
G02*
X307755000Y-315613000I-200000J0D01*
G01*
G37*
%TD*%
%TO.C,R11*%
G36*
G01*
X310445000Y-313963000D02*
X309895000Y-313963000D01*
G75*
G02*
X309695000Y-313763000I0J200000D01*
G01*
X309695000Y-313363000D01*
G75*
G02*
X309895000Y-313163000I200000J0D01*
G01*
X310445000Y-313163000D01*
G75*
G02*
X310645000Y-313363000I0J-200000D01*
G01*
X310645000Y-313763000D01*
G75*
G02*
X310445000Y-313963000I-200000J0D01*
G01*
G37*
G36*
G01*
X310445000Y-315613000D02*
X309895000Y-315613000D01*
G75*
G02*
X309695000Y-315413000I0J200000D01*
G01*
X309695000Y-315013000D01*
G75*
G02*
X309895000Y-314813000I200000J0D01*
G01*
X310445000Y-314813000D01*
G75*
G02*
X310645000Y-315013000I0J-200000D01*
G01*
X310645000Y-315413000D01*
G75*
G02*
X310445000Y-315613000I-200000J0D01*
G01*
G37*
%TD*%
%TO.C,R10*%
G36*
G01*
X313085000Y-313963000D02*
X312535000Y-313963000D01*
G75*
G02*
X312335000Y-313763000I0J200000D01*
G01*
X312335000Y-313363000D01*
G75*
G02*
X312535000Y-313163000I200000J0D01*
G01*
X313085000Y-313163000D01*
G75*
G02*
X313285000Y-313363000I0J-200000D01*
G01*
X313285000Y-313763000D01*
G75*
G02*
X313085000Y-313963000I-200000J0D01*
G01*
G37*
G36*
G01*
X313085000Y-315613000D02*
X312535000Y-315613000D01*
G75*
G02*
X312335000Y-315413000I0J200000D01*
G01*
X312335000Y-315013000D01*
G75*
G02*
X312535000Y-314813000I200000J0D01*
G01*
X313085000Y-314813000D01*
G75*
G02*
X313285000Y-315013000I0J-200000D01*
G01*
X313285000Y-315413000D01*
G75*
G02*
X313085000Y-315613000I-200000J0D01*
G01*
G37*
%TD*%
D10*
%TO.C,K1*%
X302665000Y-324508000D03*
X295165000Y-324508000D03*
D11*
X302665000Y-349708000D03*
D10*
X302665000Y-339708000D03*
X302665000Y-344708000D03*
X295165000Y-349708000D03*
X295165000Y-339708000D03*
D11*
X295165000Y-344708000D03*
%TD*%
D12*
%TO.C,J3*%
X389620000Y-313168000D03*
X389620000Y-315708000D03*
X387080000Y-313168000D03*
X387080000Y-315708000D03*
X384540000Y-313168000D03*
X384540000Y-315708000D03*
X382000000Y-313168000D03*
X382000000Y-315708000D03*
X379460000Y-313168000D03*
X379460000Y-315708000D03*
X376920000Y-313168000D03*
X376920000Y-315708000D03*
X374380000Y-313168000D03*
X374380000Y-315708000D03*
X371840000Y-313168000D03*
X371840000Y-315708000D03*
X369300000Y-313168000D03*
X369300000Y-315708000D03*
X366760000Y-313168000D03*
X366760000Y-315708000D03*
X364220000Y-313168000D03*
X364220000Y-315708000D03*
X361680000Y-313168000D03*
X361680000Y-315708000D03*
X359140000Y-313168000D03*
D13*
X359140000Y-315708000D03*
%TD*%
D10*
%TO.C,K2*%
X318665000Y-324508000D03*
X311165000Y-324508000D03*
D11*
X318665000Y-349708000D03*
D10*
X318665000Y-339708000D03*
X318665000Y-344708000D03*
X311165000Y-349708000D03*
X311165000Y-339708000D03*
D11*
X311165000Y-344708000D03*
%TD*%
D10*
%TO.C,K18*%
X409615000Y-304883000D03*
X417115000Y-304883000D03*
D14*
G36*
X410865000Y-278433000D02*
G01*
X410865000Y-280933000D01*
X408365000Y-280933000D01*
X408365000Y-278433000D01*
X410865000Y-278433000D01*
G37*
D10*
X409615000Y-289683000D03*
X409615000Y-284683000D03*
X417115000Y-279683000D03*
X417115000Y-289683000D03*
D14*
G36*
X418365000Y-283433000D02*
G01*
X418365000Y-285933000D01*
X415865000Y-285933000D01*
X415865000Y-283433000D01*
X418365000Y-283433000D01*
G37*
%TD*%
D10*
%TO.C,K20*%
X442615000Y-304883000D03*
X450115000Y-304883000D03*
D14*
G36*
X443865000Y-278433000D02*
G01*
X443865000Y-280933000D01*
X441365000Y-280933000D01*
X441365000Y-278433000D01*
X443865000Y-278433000D01*
G37*
D10*
X442615000Y-289683000D03*
X442615000Y-284683000D03*
X450115000Y-279683000D03*
X450115000Y-289683000D03*
D14*
G36*
X451365000Y-283433000D02*
G01*
X451365000Y-285933000D01*
X448865000Y-285933000D01*
X448865000Y-283433000D01*
X451365000Y-283433000D01*
G37*
%TD*%
D10*
%TO.C,K19*%
X426615000Y-304883000D03*
X434115000Y-304883000D03*
D14*
G36*
X427865000Y-278433000D02*
G01*
X427865000Y-280933000D01*
X425365000Y-280933000D01*
X425365000Y-278433000D01*
X427865000Y-278433000D01*
G37*
D10*
X426615000Y-289683000D03*
X426615000Y-284683000D03*
X434115000Y-279683000D03*
X434115000Y-289683000D03*
D14*
G36*
X435365000Y-283433000D02*
G01*
X435365000Y-285933000D01*
X432865000Y-285933000D01*
X432865000Y-283433000D01*
X435365000Y-283433000D01*
G37*
%TD*%
D10*
%TO.C,K17*%
X393615000Y-304883000D03*
X401115000Y-304883000D03*
D14*
G36*
X394865000Y-278433000D02*
G01*
X394865000Y-280933000D01*
X392365000Y-280933000D01*
X392365000Y-278433000D01*
X394865000Y-278433000D01*
G37*
D10*
X393615000Y-289683000D03*
X393615000Y-284683000D03*
X401115000Y-279683000D03*
X401115000Y-289683000D03*
D14*
G36*
X402365000Y-283433000D02*
G01*
X402365000Y-285933000D01*
X399865000Y-285933000D01*
X399865000Y-283433000D01*
X402365000Y-283433000D01*
G37*
%TD*%
D10*
%TO.C,K13*%
X376615000Y-304883000D03*
X384115000Y-304883000D03*
D14*
G36*
X377865000Y-278433000D02*
G01*
X377865000Y-280933000D01*
X375365000Y-280933000D01*
X375365000Y-278433000D01*
X377865000Y-278433000D01*
G37*
D10*
X376615000Y-289683000D03*
X376615000Y-284683000D03*
X384115000Y-279683000D03*
X384115000Y-289683000D03*
D14*
G36*
X385365000Y-283433000D02*
G01*
X385365000Y-285933000D01*
X382865000Y-285933000D01*
X382865000Y-283433000D01*
X385365000Y-283433000D01*
G37*
%TD*%
D10*
%TO.C,K14*%
X360615000Y-304883000D03*
X368115000Y-304883000D03*
D14*
G36*
X361865000Y-278433000D02*
G01*
X361865000Y-280933000D01*
X359365000Y-280933000D01*
X359365000Y-278433000D01*
X361865000Y-278433000D01*
G37*
D10*
X360615000Y-289683000D03*
X360615000Y-284683000D03*
X368115000Y-279683000D03*
X368115000Y-289683000D03*
D14*
G36*
X369365000Y-283433000D02*
G01*
X369365000Y-285933000D01*
X366865000Y-285933000D01*
X366865000Y-283433000D01*
X369365000Y-283433000D01*
G37*
%TD*%
D10*
%TO.C,K15*%
X343615000Y-304883000D03*
X351115000Y-304883000D03*
D14*
G36*
X344865000Y-278433000D02*
G01*
X344865000Y-280933000D01*
X342365000Y-280933000D01*
X342365000Y-278433000D01*
X344865000Y-278433000D01*
G37*
D10*
X343615000Y-289683000D03*
X343615000Y-284683000D03*
X351115000Y-279683000D03*
X351115000Y-289683000D03*
D14*
G36*
X352365000Y-283433000D02*
G01*
X352365000Y-285933000D01*
X349865000Y-285933000D01*
X349865000Y-283433000D01*
X352365000Y-283433000D01*
G37*
%TD*%
D10*
%TO.C,K16*%
X327615000Y-304883000D03*
X335115000Y-304883000D03*
D14*
G36*
X328865000Y-278433000D02*
G01*
X328865000Y-280933000D01*
X326365000Y-280933000D01*
X326365000Y-278433000D01*
X328865000Y-278433000D01*
G37*
D10*
X327615000Y-289683000D03*
X327615000Y-284683000D03*
X335115000Y-279683000D03*
X335115000Y-289683000D03*
D14*
G36*
X336365000Y-283433000D02*
G01*
X336365000Y-285933000D01*
X333865000Y-285933000D01*
X333865000Y-283433000D01*
X336365000Y-283433000D01*
G37*
%TD*%
D10*
%TO.C,K12*%
X310615000Y-304883000D03*
X318115000Y-304883000D03*
D14*
G36*
X311865000Y-278433000D02*
G01*
X311865000Y-280933000D01*
X309365000Y-280933000D01*
X309365000Y-278433000D01*
X311865000Y-278433000D01*
G37*
D10*
X310615000Y-289683000D03*
X310615000Y-284683000D03*
X318115000Y-279683000D03*
X318115000Y-289683000D03*
D14*
G36*
X319365000Y-283433000D02*
G01*
X319365000Y-285933000D01*
X316865000Y-285933000D01*
X316865000Y-283433000D01*
X319365000Y-283433000D01*
G37*
%TD*%
D10*
%TO.C,K11*%
X294615000Y-304883000D03*
X302115000Y-304883000D03*
D14*
G36*
X295865000Y-278433000D02*
G01*
X295865000Y-280933000D01*
X293365000Y-280933000D01*
X293365000Y-278433000D01*
X295865000Y-278433000D01*
G37*
D10*
X294615000Y-289683000D03*
X294615000Y-284683000D03*
X302115000Y-279683000D03*
X302115000Y-289683000D03*
D14*
G36*
X303365000Y-283433000D02*
G01*
X303365000Y-285933000D01*
X300865000Y-285933000D01*
X300865000Y-283433000D01*
X303365000Y-283433000D01*
G37*
%TD*%
D10*
%TO.C,K10*%
X450665000Y-324508000D03*
X443165000Y-324508000D03*
D11*
X450665000Y-349708000D03*
D10*
X450665000Y-339708000D03*
X450665000Y-344708000D03*
X443165000Y-349708000D03*
X443165000Y-339708000D03*
D11*
X443165000Y-344708000D03*
%TD*%
D10*
%TO.C,K9*%
X434665000Y-324508000D03*
X427165000Y-324508000D03*
D14*
G36*
X433415000Y-350958000D02*
G01*
X433415000Y-348458000D01*
X435915000Y-348458000D01*
X435915000Y-350958000D01*
X433415000Y-350958000D01*
G37*
D10*
X434665000Y-339708000D03*
X434665000Y-344708000D03*
X427165000Y-349708000D03*
X427165000Y-339708000D03*
D14*
G36*
X425915000Y-345958000D02*
G01*
X425915000Y-343458000D01*
X428415000Y-343458000D01*
X428415000Y-345958000D01*
X425915000Y-345958000D01*
G37*
%TD*%
D10*
%TO.C,K8*%
X417665000Y-324508000D03*
X410165000Y-324508000D03*
D14*
G36*
X416415000Y-350958000D02*
G01*
X416415000Y-348458000D01*
X418915000Y-348458000D01*
X418915000Y-350958000D01*
X416415000Y-350958000D01*
G37*
D10*
X417665000Y-339708000D03*
X417665000Y-344708000D03*
X410165000Y-349708000D03*
X410165000Y-339708000D03*
D14*
G36*
X408915000Y-345958000D02*
G01*
X408915000Y-343458000D01*
X411415000Y-343458000D01*
X411415000Y-345958000D01*
X408915000Y-345958000D01*
G37*
%TD*%
D10*
%TO.C,K7*%
X401665000Y-324508000D03*
X394165000Y-324508000D03*
D14*
G36*
X400415000Y-350958000D02*
G01*
X400415000Y-348458000D01*
X402915000Y-348458000D01*
X402915000Y-350958000D01*
X400415000Y-350958000D01*
G37*
D10*
X401665000Y-339708000D03*
X401665000Y-344708000D03*
X394165000Y-349708000D03*
X394165000Y-339708000D03*
D14*
G36*
X392915000Y-345958000D02*
G01*
X392915000Y-343458000D01*
X395415000Y-343458000D01*
X395415000Y-345958000D01*
X392915000Y-345958000D01*
G37*
%TD*%
D10*
%TO.C,K6*%
X384665000Y-324508000D03*
X377165000Y-324508000D03*
D14*
G36*
X383415000Y-350958000D02*
G01*
X383415000Y-348458000D01*
X385915000Y-348458000D01*
X385915000Y-350958000D01*
X383415000Y-350958000D01*
G37*
D10*
X384665000Y-339708000D03*
X384665000Y-344708000D03*
X377165000Y-349708000D03*
X377165000Y-339708000D03*
D11*
X377165000Y-344708000D03*
%TD*%
D10*
%TO.C,K5*%
X368665000Y-324508000D03*
X361165000Y-324508000D03*
D11*
X368665000Y-349708000D03*
D10*
X368665000Y-339708000D03*
X368665000Y-344708000D03*
X361165000Y-349708000D03*
X361165000Y-339708000D03*
D11*
X361165000Y-344708000D03*
%TD*%
D10*
%TO.C,K4*%
X351665000Y-324508000D03*
X344165000Y-324508000D03*
D11*
X351665000Y-349708000D03*
D10*
X351665000Y-339708000D03*
X351665000Y-344708000D03*
X344165000Y-349708000D03*
X344165000Y-339708000D03*
D11*
X344165000Y-344708000D03*
%TD*%
D10*
%TO.C,K3*%
X335665000Y-324508000D03*
X328165000Y-324508000D03*
D11*
X335665000Y-349708000D03*
D10*
X335665000Y-339708000D03*
X335665000Y-344708000D03*
X328165000Y-349708000D03*
X328165000Y-339708000D03*
D11*
X328165000Y-344708000D03*
%TD*%
%TO.C,J1*%
G36*
G01*
X316940000Y-356958000D02*
X316940000Y-354408000D01*
G75*
G02*
X317565000Y-353783000I625000J0D01*
G01*
X318815000Y-353783000D01*
G75*
G02*
X319440000Y-354408000I0J-625000D01*
G01*
X319440000Y-356958000D01*
G75*
G02*
X318815000Y-357583000I-625000J0D01*
G01*
X317565000Y-357583000D01*
G75*
G02*
X316940000Y-356958000I0J625000D01*
G01*
G37*
G36*
G01*
X309440000Y-356958000D02*
X309440000Y-354408000D01*
G75*
G02*
X310065000Y-353783000I625000J0D01*
G01*
X311315000Y-353783000D01*
G75*
G02*
X311940000Y-354408000I0J-625000D01*
G01*
X311940000Y-356958000D01*
G75*
G02*
X311315000Y-357583000I-625000J0D01*
G01*
X310065000Y-357583000D01*
G75*
G02*
X309440000Y-356958000I0J625000D01*
G01*
G37*
G36*
G01*
X301940000Y-357270500D02*
X301940000Y-354095500D01*
G75*
G02*
X302252500Y-353783000I312500J0D01*
G01*
X304127500Y-353783000D01*
G75*
G02*
X304440000Y-354095500I0J-312500D01*
G01*
X304440000Y-357270500D01*
G75*
G02*
X304127500Y-357583000I-312500J0D01*
G01*
X302252500Y-357583000D01*
G75*
G02*
X301940000Y-357270500I0J312500D01*
G01*
G37*
G36*
G01*
X294440000Y-357270500D02*
X294440000Y-354095500D01*
G75*
G02*
X294752500Y-353783000I312500J0D01*
G01*
X296627500Y-353783000D01*
G75*
G02*
X296940000Y-354095500I0J-312500D01*
G01*
X296940000Y-357270500D01*
G75*
G02*
X296627500Y-357583000I-312500J0D01*
G01*
X294752500Y-357583000D01*
G75*
G02*
X294440000Y-357270500I0J312500D01*
G01*
G37*
%TD*%
%TO.C,J11*%
G36*
G01*
X428440000Y-272508000D02*
X428440000Y-275058000D01*
G75*
G02*
X427815000Y-275683000I-625000J0D01*
G01*
X426565000Y-275683000D01*
G75*
G02*
X425940000Y-275058000I0J625000D01*
G01*
X425940000Y-272508000D01*
G75*
G02*
X426565000Y-271883000I625000J0D01*
G01*
X427815000Y-271883000D01*
G75*
G02*
X428440000Y-272508000I0J-625000D01*
G01*
G37*
G36*
G01*
X435940000Y-272508000D02*
X435940000Y-275058000D01*
G75*
G02*
X435315000Y-275683000I-625000J0D01*
G01*
X434065000Y-275683000D01*
G75*
G02*
X433440000Y-275058000I0J625000D01*
G01*
X433440000Y-272508000D01*
G75*
G02*
X434065000Y-271883000I625000J0D01*
G01*
X435315000Y-271883000D01*
G75*
G02*
X435940000Y-272508000I0J-625000D01*
G01*
G37*
G36*
G01*
X443440000Y-272508000D02*
X443440000Y-275058000D01*
G75*
G02*
X442815000Y-275683000I-625000J0D01*
G01*
X441565000Y-275683000D01*
G75*
G02*
X440940000Y-275058000I0J625000D01*
G01*
X440940000Y-272508000D01*
G75*
G02*
X441565000Y-271883000I625000J0D01*
G01*
X442815000Y-271883000D01*
G75*
G02*
X443440000Y-272508000I0J-625000D01*
G01*
G37*
G36*
G01*
X450940000Y-272195500D02*
X450940000Y-275370500D01*
G75*
G02*
X450627500Y-275683000I-312500J0D01*
G01*
X448752500Y-275683000D01*
G75*
G02*
X448440000Y-275370500I0J312500D01*
G01*
X448440000Y-272195500D01*
G75*
G02*
X448752500Y-271883000I312500J0D01*
G01*
X450627500Y-271883000D01*
G75*
G02*
X450940000Y-272195500I0J-312500D01*
G01*
G37*
%TD*%
%TO.C,J10*%
G36*
G01*
X395440000Y-272483000D02*
X395440000Y-275033000D01*
G75*
G02*
X394815000Y-275658000I-625000J0D01*
G01*
X393565000Y-275658000D01*
G75*
G02*
X392940000Y-275033000I0J625000D01*
G01*
X392940000Y-272483000D01*
G75*
G02*
X393565000Y-271858000I625000J0D01*
G01*
X394815000Y-271858000D01*
G75*
G02*
X395440000Y-272483000I0J-625000D01*
G01*
G37*
G36*
G01*
X402940000Y-272483000D02*
X402940000Y-275033000D01*
G75*
G02*
X402315000Y-275658000I-625000J0D01*
G01*
X401065000Y-275658000D01*
G75*
G02*
X400440000Y-275033000I0J625000D01*
G01*
X400440000Y-272483000D01*
G75*
G02*
X401065000Y-271858000I625000J0D01*
G01*
X402315000Y-271858000D01*
G75*
G02*
X402940000Y-272483000I0J-625000D01*
G01*
G37*
G36*
G01*
X410440000Y-272483000D02*
X410440000Y-275033000D01*
G75*
G02*
X409815000Y-275658000I-625000J0D01*
G01*
X408565000Y-275658000D01*
G75*
G02*
X407940000Y-275033000I0J625000D01*
G01*
X407940000Y-272483000D01*
G75*
G02*
X408565000Y-271858000I625000J0D01*
G01*
X409815000Y-271858000D01*
G75*
G02*
X410440000Y-272483000I0J-625000D01*
G01*
G37*
G36*
G01*
X417940000Y-272170500D02*
X417940000Y-275345500D01*
G75*
G02*
X417627500Y-275658000I-312500J0D01*
G01*
X415752500Y-275658000D01*
G75*
G02*
X415440000Y-275345500I0J312500D01*
G01*
X415440000Y-272170500D01*
G75*
G02*
X415752500Y-271858000I312500J0D01*
G01*
X417627500Y-271858000D01*
G75*
G02*
X417940000Y-272170500I0J-312500D01*
G01*
G37*
%TD*%
%TO.C,J9*%
G36*
G01*
X329440000Y-272483000D02*
X329440000Y-275033000D01*
G75*
G02*
X328815000Y-275658000I-625000J0D01*
G01*
X327565000Y-275658000D01*
G75*
G02*
X326940000Y-275033000I0J625000D01*
G01*
X326940000Y-272483000D01*
G75*
G02*
X327565000Y-271858000I625000J0D01*
G01*
X328815000Y-271858000D01*
G75*
G02*
X329440000Y-272483000I0J-625000D01*
G01*
G37*
G36*
G01*
X336940000Y-272483000D02*
X336940000Y-275033000D01*
G75*
G02*
X336315000Y-275658000I-625000J0D01*
G01*
X335065000Y-275658000D01*
G75*
G02*
X334440000Y-275033000I0J625000D01*
G01*
X334440000Y-272483000D01*
G75*
G02*
X335065000Y-271858000I625000J0D01*
G01*
X336315000Y-271858000D01*
G75*
G02*
X336940000Y-272483000I0J-625000D01*
G01*
G37*
G36*
G01*
X344440000Y-272483000D02*
X344440000Y-275033000D01*
G75*
G02*
X343815000Y-275658000I-625000J0D01*
G01*
X342565000Y-275658000D01*
G75*
G02*
X341940000Y-275033000I0J625000D01*
G01*
X341940000Y-272483000D01*
G75*
G02*
X342565000Y-271858000I625000J0D01*
G01*
X343815000Y-271858000D01*
G75*
G02*
X344440000Y-272483000I0J-625000D01*
G01*
G37*
G36*
G01*
X351940000Y-272170500D02*
X351940000Y-275345500D01*
G75*
G02*
X351627500Y-275658000I-312500J0D01*
G01*
X349752500Y-275658000D01*
G75*
G02*
X349440000Y-275345500I0J312500D01*
G01*
X349440000Y-272170500D01*
G75*
G02*
X349752500Y-271858000I312500J0D01*
G01*
X351627500Y-271858000D01*
G75*
G02*
X351940000Y-272170500I0J-312500D01*
G01*
G37*
%TD*%
%TO.C,J8*%
G36*
G01*
X362440000Y-272483000D02*
X362440000Y-275033000D01*
G75*
G02*
X361815000Y-275658000I-625000J0D01*
G01*
X360565000Y-275658000D01*
G75*
G02*
X359940000Y-275033000I0J625000D01*
G01*
X359940000Y-272483000D01*
G75*
G02*
X360565000Y-271858000I625000J0D01*
G01*
X361815000Y-271858000D01*
G75*
G02*
X362440000Y-272483000I0J-625000D01*
G01*
G37*
G36*
G01*
X369940000Y-272483000D02*
X369940000Y-275033000D01*
G75*
G02*
X369315000Y-275658000I-625000J0D01*
G01*
X368065000Y-275658000D01*
G75*
G02*
X367440000Y-275033000I0J625000D01*
G01*
X367440000Y-272483000D01*
G75*
G02*
X368065000Y-271858000I625000J0D01*
G01*
X369315000Y-271858000D01*
G75*
G02*
X369940000Y-272483000I0J-625000D01*
G01*
G37*
G36*
G01*
X377440000Y-272483000D02*
X377440000Y-275033000D01*
G75*
G02*
X376815000Y-275658000I-625000J0D01*
G01*
X375565000Y-275658000D01*
G75*
G02*
X374940000Y-275033000I0J625000D01*
G01*
X374940000Y-272483000D01*
G75*
G02*
X375565000Y-271858000I625000J0D01*
G01*
X376815000Y-271858000D01*
G75*
G02*
X377440000Y-272483000I0J-625000D01*
G01*
G37*
G36*
G01*
X384940000Y-272170500D02*
X384940000Y-275345500D01*
G75*
G02*
X384627500Y-275658000I-312500J0D01*
G01*
X382752500Y-275658000D01*
G75*
G02*
X382440000Y-275345500I0J312500D01*
G01*
X382440000Y-272170500D01*
G75*
G02*
X382752500Y-271858000I312500J0D01*
G01*
X384627500Y-271858000D01*
G75*
G02*
X384940000Y-272170500I0J-312500D01*
G01*
G37*
%TD*%
%TO.C,J7*%
G36*
G01*
X296465000Y-272483000D02*
X296465000Y-275033000D01*
G75*
G02*
X295840000Y-275658000I-625000J0D01*
G01*
X294590000Y-275658000D01*
G75*
G02*
X293965000Y-275033000I0J625000D01*
G01*
X293965000Y-272483000D01*
G75*
G02*
X294590000Y-271858000I625000J0D01*
G01*
X295840000Y-271858000D01*
G75*
G02*
X296465000Y-272483000I0J-625000D01*
G01*
G37*
G36*
G01*
X303965000Y-272483000D02*
X303965000Y-275033000D01*
G75*
G02*
X303340000Y-275658000I-625000J0D01*
G01*
X302090000Y-275658000D01*
G75*
G02*
X301465000Y-275033000I0J625000D01*
G01*
X301465000Y-272483000D01*
G75*
G02*
X302090000Y-271858000I625000J0D01*
G01*
X303340000Y-271858000D01*
G75*
G02*
X303965000Y-272483000I0J-625000D01*
G01*
G37*
G36*
G01*
X311465000Y-272483000D02*
X311465000Y-275033000D01*
G75*
G02*
X310840000Y-275658000I-625000J0D01*
G01*
X309590000Y-275658000D01*
G75*
G02*
X308965000Y-275033000I0J625000D01*
G01*
X308965000Y-272483000D01*
G75*
G02*
X309590000Y-271858000I625000J0D01*
G01*
X310840000Y-271858000D01*
G75*
G02*
X311465000Y-272483000I0J-625000D01*
G01*
G37*
G36*
G01*
X318965000Y-272170500D02*
X318965000Y-275345500D01*
G75*
G02*
X318652500Y-275658000I-312500J0D01*
G01*
X316777500Y-275658000D01*
G75*
G02*
X316465000Y-275345500I0J312500D01*
G01*
X316465000Y-272170500D01*
G75*
G02*
X316777500Y-271858000I312500J0D01*
G01*
X318652500Y-271858000D01*
G75*
G02*
X318965000Y-272170500I0J-312500D01*
G01*
G37*
%TD*%
%TO.C,J6*%
G36*
G01*
X448940000Y-356958000D02*
X448940000Y-354408000D01*
G75*
G02*
X449565000Y-353783000I625000J0D01*
G01*
X450815000Y-353783000D01*
G75*
G02*
X451440000Y-354408000I0J-625000D01*
G01*
X451440000Y-356958000D01*
G75*
G02*
X450815000Y-357583000I-625000J0D01*
G01*
X449565000Y-357583000D01*
G75*
G02*
X448940000Y-356958000I0J625000D01*
G01*
G37*
G36*
G01*
X441440000Y-356958000D02*
X441440000Y-354408000D01*
G75*
G02*
X442065000Y-353783000I625000J0D01*
G01*
X443315000Y-353783000D01*
G75*
G02*
X443940000Y-354408000I0J-625000D01*
G01*
X443940000Y-356958000D01*
G75*
G02*
X443315000Y-357583000I-625000J0D01*
G01*
X442065000Y-357583000D01*
G75*
G02*
X441440000Y-356958000I0J625000D01*
G01*
G37*
G36*
G01*
X433940000Y-356958000D02*
X433940000Y-354408000D01*
G75*
G02*
X434565000Y-353783000I625000J0D01*
G01*
X435815000Y-353783000D01*
G75*
G02*
X436440000Y-354408000I0J-625000D01*
G01*
X436440000Y-356958000D01*
G75*
G02*
X435815000Y-357583000I-625000J0D01*
G01*
X434565000Y-357583000D01*
G75*
G02*
X433940000Y-356958000I0J625000D01*
G01*
G37*
G36*
G01*
X426440000Y-357270500D02*
X426440000Y-354095500D01*
G75*
G02*
X426752500Y-353783000I312500J0D01*
G01*
X428627500Y-353783000D01*
G75*
G02*
X428940000Y-354095500I0J-312500D01*
G01*
X428940000Y-357270500D01*
G75*
G02*
X428627500Y-357583000I-312500J0D01*
G01*
X426752500Y-357583000D01*
G75*
G02*
X426440000Y-357270500I0J312500D01*
G01*
G37*
%TD*%
%TO.C,J5*%
G36*
G01*
X415940000Y-356958000D02*
X415940000Y-354408000D01*
G75*
G02*
X416565000Y-353783000I625000J0D01*
G01*
X417815000Y-353783000D01*
G75*
G02*
X418440000Y-354408000I0J-625000D01*
G01*
X418440000Y-356958000D01*
G75*
G02*
X417815000Y-357583000I-625000J0D01*
G01*
X416565000Y-357583000D01*
G75*
G02*
X415940000Y-356958000I0J625000D01*
G01*
G37*
G36*
G01*
X408440000Y-357270500D02*
X408440000Y-354095500D01*
G75*
G02*
X408752500Y-353783000I312500J0D01*
G01*
X410627500Y-353783000D01*
G75*
G02*
X410940000Y-354095500I0J-312500D01*
G01*
X410940000Y-357270500D01*
G75*
G02*
X410627500Y-357583000I-312500J0D01*
G01*
X408752500Y-357583000D01*
G75*
G02*
X408440000Y-357270500I0J312500D01*
G01*
G37*
G36*
G01*
X400940000Y-356958000D02*
X400940000Y-354408000D01*
G75*
G02*
X401565000Y-353783000I625000J0D01*
G01*
X402815000Y-353783000D01*
G75*
G02*
X403440000Y-354408000I0J-625000D01*
G01*
X403440000Y-356958000D01*
G75*
G02*
X402815000Y-357583000I-625000J0D01*
G01*
X401565000Y-357583000D01*
G75*
G02*
X400940000Y-356958000I0J625000D01*
G01*
G37*
G36*
G01*
X393440000Y-357270500D02*
X393440000Y-354095500D01*
G75*
G02*
X393752500Y-353783000I312500J0D01*
G01*
X395627500Y-353783000D01*
G75*
G02*
X395940000Y-354095500I0J-312500D01*
G01*
X395940000Y-357270500D01*
G75*
G02*
X395627500Y-357583000I-312500J0D01*
G01*
X393752500Y-357583000D01*
G75*
G02*
X393440000Y-357270500I0J312500D01*
G01*
G37*
%TD*%
%TO.C,J4*%
G36*
G01*
X382940000Y-356958000D02*
X382940000Y-354408000D01*
G75*
G02*
X383565000Y-353783000I625000J0D01*
G01*
X384815000Y-353783000D01*
G75*
G02*
X385440000Y-354408000I0J-625000D01*
G01*
X385440000Y-356958000D01*
G75*
G02*
X384815000Y-357583000I-625000J0D01*
G01*
X383565000Y-357583000D01*
G75*
G02*
X382940000Y-356958000I0J625000D01*
G01*
G37*
G36*
G01*
X375440000Y-356958000D02*
X375440000Y-354408000D01*
G75*
G02*
X376065000Y-353783000I625000J0D01*
G01*
X377315000Y-353783000D01*
G75*
G02*
X377940000Y-354408000I0J-625000D01*
G01*
X377940000Y-356958000D01*
G75*
G02*
X377315000Y-357583000I-625000J0D01*
G01*
X376065000Y-357583000D01*
G75*
G02*
X375440000Y-356958000I0J625000D01*
G01*
G37*
G36*
G01*
X367940000Y-356958000D02*
X367940000Y-354408000D01*
G75*
G02*
X368565000Y-353783000I625000J0D01*
G01*
X369815000Y-353783000D01*
G75*
G02*
X370440000Y-354408000I0J-625000D01*
G01*
X370440000Y-356958000D01*
G75*
G02*
X369815000Y-357583000I-625000J0D01*
G01*
X368565000Y-357583000D01*
G75*
G02*
X367940000Y-356958000I0J625000D01*
G01*
G37*
G36*
G01*
X360440000Y-357270500D02*
X360440000Y-354095500D01*
G75*
G02*
X360752500Y-353783000I312500J0D01*
G01*
X362627500Y-353783000D01*
G75*
G02*
X362940000Y-354095500I0J-312500D01*
G01*
X362940000Y-357270500D01*
G75*
G02*
X362627500Y-357583000I-312500J0D01*
G01*
X360752500Y-357583000D01*
G75*
G02*
X360440000Y-357270500I0J312500D01*
G01*
G37*
%TD*%
%TO.C,J2*%
G36*
G01*
X349940000Y-356958000D02*
X349940000Y-354408000D01*
G75*
G02*
X350565000Y-353783000I625000J0D01*
G01*
X351815000Y-353783000D01*
G75*
G02*
X352440000Y-354408000I0J-625000D01*
G01*
X352440000Y-356958000D01*
G75*
G02*
X351815000Y-357583000I-625000J0D01*
G01*
X350565000Y-357583000D01*
G75*
G02*
X349940000Y-356958000I0J625000D01*
G01*
G37*
G36*
G01*
X342440000Y-356958000D02*
X342440000Y-354408000D01*
G75*
G02*
X343065000Y-353783000I625000J0D01*
G01*
X344315000Y-353783000D01*
G75*
G02*
X344940000Y-354408000I0J-625000D01*
G01*
X344940000Y-356958000D01*
G75*
G02*
X344315000Y-357583000I-625000J0D01*
G01*
X343065000Y-357583000D01*
G75*
G02*
X342440000Y-356958000I0J625000D01*
G01*
G37*
G36*
G01*
X334940000Y-356958000D02*
X334940000Y-354408000D01*
G75*
G02*
X335565000Y-353783000I625000J0D01*
G01*
X336815000Y-353783000D01*
G75*
G02*
X337440000Y-354408000I0J-625000D01*
G01*
X337440000Y-356958000D01*
G75*
G02*
X336815000Y-357583000I-625000J0D01*
G01*
X335565000Y-357583000D01*
G75*
G02*
X334940000Y-356958000I0J625000D01*
G01*
G37*
G36*
G01*
X327440000Y-357270500D02*
X327440000Y-354095500D01*
G75*
G02*
X327752500Y-353783000I312500J0D01*
G01*
X329627500Y-353783000D01*
G75*
G02*
X329940000Y-354095500I0J-312500D01*
G01*
X329940000Y-357270500D01*
G75*
G02*
X329627500Y-357583000I-312500J0D01*
G01*
X327752500Y-357583000D01*
G75*
G02*
X327440000Y-357270500I0J312500D01*
G01*
G37*
%TD*%
D15*
X296285000Y-345833000D02*
X293630000Y-345833000D01*
X293605614Y-345835402D01*
X293582165Y-345842515D01*
X293560554Y-345854066D01*
X293541612Y-345869612D01*
X293091612Y-346319612D01*
X293076066Y-346338554D01*
X293064515Y-346360165D01*
X293057402Y-346383614D01*
X293055000Y-346408000D01*
X293055000Y-353618000D01*
X293057402Y-353642386D01*
X293064515Y-353665835D01*
X293076066Y-353687446D01*
X293091612Y-353706388D01*
X293901612Y-354516388D01*
X293920554Y-354531934D01*
X293942165Y-354543485D01*
X293965614Y-354550598D01*
X293988596Y-354552992D01*
X294757931Y-354561636D01*
X294811939Y-356811937D01*
X293732013Y-356803012D01*
X293324353Y-356793306D01*
X293104893Y-356747585D01*
X292970312Y-356697117D01*
X292721321Y-356512679D01*
X292238241Y-356039458D01*
X291438936Y-355230162D01*
X291438388Y-355229612D01*
X291094335Y-354885559D01*
X290949742Y-354695781D01*
X290842038Y-354426521D01*
X290805000Y-354130216D01*
X290805000Y-345781241D01*
X290859609Y-345526398D01*
X290948272Y-345322473D01*
X291113762Y-345111014D01*
X292371304Y-343853472D01*
X292533373Y-343736422D01*
X292648499Y-343683287D01*
X292841888Y-343609615D01*
X293019323Y-343583000D01*
X296285000Y-343583000D01*
X296285000Y-345833000D01*
D14*
G36*
X296285000Y-345833000D02*
G01*
X293630000Y-345833000D01*
X293605614Y-345835402D01*
X293582165Y-345842515D01*
X293560554Y-345854066D01*
X293541612Y-345869612D01*
X293091612Y-346319612D01*
X293076066Y-346338554D01*
X293064515Y-346360165D01*
X293057402Y-346383614D01*
X293055000Y-346408000D01*
X293055000Y-353618000D01*
X293057402Y-353642386D01*
X293064515Y-353665835D01*
X293076066Y-353687446D01*
X293091612Y-353706388D01*
X293901612Y-354516388D01*
X293920554Y-354531934D01*
X293942165Y-354543485D01*
X293965614Y-354550598D01*
X293988596Y-354552992D01*
X294757931Y-354561636D01*
X294811939Y-356811937D01*
X293732013Y-356803012D01*
X293324353Y-356793306D01*
X293104893Y-356747585D01*
X292970312Y-356697117D01*
X292721321Y-356512679D01*
X292238241Y-356039458D01*
X291438936Y-355230162D01*
X291438388Y-355229612D01*
X291094335Y-354885559D01*
X290949742Y-354695781D01*
X290842038Y-354426521D01*
X290805000Y-354130216D01*
X290805000Y-345781241D01*
X290859609Y-345526398D01*
X290948272Y-345322473D01*
X291113762Y-345111014D01*
X292371304Y-343853472D01*
X292533373Y-343736422D01*
X292648499Y-343683287D01*
X292841888Y-343609615D01*
X293019323Y-343583000D01*
X296285000Y-343583000D01*
X296285000Y-345833000D01*
G37*
D15*
X303794499Y-350833000D02*
X301230000Y-350833000D01*
X301205614Y-350835402D01*
X301182165Y-350842515D01*
X301160554Y-350854066D01*
X301141612Y-350869612D01*
X301031612Y-350979612D01*
X301016066Y-350998554D01*
X301004515Y-351020165D01*
X300997402Y-351043614D01*
X300995000Y-351068000D01*
X300995000Y-353348000D01*
X300997402Y-353372386D01*
X301004515Y-353395835D01*
X301016066Y-353417446D01*
X301031612Y-353436388D01*
X302041612Y-354446388D01*
X302060554Y-354461934D01*
X302082165Y-354473485D01*
X302105614Y-354480598D01*
X302134804Y-354482908D01*
X302263989Y-354477939D01*
X302245965Y-356803000D01*
X301587784Y-356803000D01*
X301521351Y-356794696D01*
X301438745Y-356776339D01*
X301324965Y-356747894D01*
X301250298Y-356723005D01*
X301066154Y-356621726D01*
X300978988Y-356560709D01*
X300826949Y-356418173D01*
X299072403Y-354663627D01*
X298978075Y-354550434D01*
X298924667Y-354479222D01*
X298890254Y-354419000D01*
X298853070Y-354344632D01*
X298818636Y-354267156D01*
X298811268Y-354237683D01*
X298809472Y-354231239D01*
X298772157Y-354109966D01*
X298753819Y-353990765D01*
X298745000Y-353920216D01*
X298745000Y-350552454D01*
X298754198Y-350423685D01*
X298790619Y-350223369D01*
X298853220Y-350071338D01*
X298924424Y-349937830D01*
X299052655Y-349782121D01*
X299818388Y-349016388D01*
X299821025Y-349013671D01*
X299971755Y-348853520D01*
X300141418Y-348737435D01*
X300325533Y-348654583D01*
X300486617Y-348600889D01*
X300656560Y-348583000D01*
X303785499Y-348583000D01*
X303794499Y-350833000D01*
D14*
G36*
X303794499Y-350833000D02*
G01*
X301230000Y-350833000D01*
X301205614Y-350835402D01*
X301182165Y-350842515D01*
X301160554Y-350854066D01*
X301141612Y-350869612D01*
X301031612Y-350979612D01*
X301016066Y-350998554D01*
X301004515Y-351020165D01*
X300997402Y-351043614D01*
X300995000Y-351068000D01*
X300995000Y-353348000D01*
X300997402Y-353372386D01*
X301004515Y-353395835D01*
X301016066Y-353417446D01*
X301031612Y-353436388D01*
X302041612Y-354446388D01*
X302060554Y-354461934D01*
X302082165Y-354473485D01*
X302105614Y-354480598D01*
X302134804Y-354482908D01*
X302263989Y-354477939D01*
X302245965Y-356803000D01*
X301587784Y-356803000D01*
X301521351Y-356794696D01*
X301438745Y-356776339D01*
X301324965Y-356747894D01*
X301250298Y-356723005D01*
X301066154Y-356621726D01*
X300978988Y-356560709D01*
X300826949Y-356418173D01*
X299072403Y-354663627D01*
X298978075Y-354550434D01*
X298924667Y-354479222D01*
X298890254Y-354419000D01*
X298853070Y-354344632D01*
X298818636Y-354267156D01*
X298811268Y-354237683D01*
X298809472Y-354231239D01*
X298772157Y-354109966D01*
X298753819Y-353990765D01*
X298745000Y-353920216D01*
X298745000Y-350552454D01*
X298754198Y-350423685D01*
X298790619Y-350223369D01*
X298853220Y-350071338D01*
X298924424Y-349937830D01*
X299052655Y-349782121D01*
X299818388Y-349016388D01*
X299821025Y-349013671D01*
X299971755Y-348853520D01*
X300141418Y-348737435D01*
X300325533Y-348654583D01*
X300486617Y-348600889D01*
X300656560Y-348583000D01*
X303785499Y-348583000D01*
X303794499Y-350833000D01*
G37*
D15*
X312305000Y-345813000D02*
X309650000Y-345813000D01*
X309625614Y-345815402D01*
X309602165Y-345822515D01*
X309580554Y-345834066D01*
X309561612Y-345849612D01*
X309111612Y-346299612D01*
X309096066Y-346318554D01*
X309084515Y-346340165D01*
X309077402Y-346363614D01*
X309075000Y-346388000D01*
X309075000Y-353598000D01*
X309077402Y-353622386D01*
X309084515Y-353645835D01*
X309096066Y-353667446D01*
X309111612Y-353686388D01*
X309921612Y-354496388D01*
X309940554Y-354511934D01*
X309962165Y-354523485D01*
X309985614Y-354530598D01*
X310008596Y-354532992D01*
X310777931Y-354541636D01*
X310831939Y-356791937D01*
X309752013Y-356783012D01*
X309344353Y-356773306D01*
X309124893Y-356727585D01*
X308990312Y-356677117D01*
X308741321Y-356492679D01*
X308258241Y-356019458D01*
X307458936Y-355210162D01*
X307458388Y-355209612D01*
X307114335Y-354865559D01*
X306969742Y-354675781D01*
X306862038Y-354406521D01*
X306825000Y-354110216D01*
X306825000Y-345761241D01*
X306879609Y-345506398D01*
X306968272Y-345302473D01*
X307133762Y-345091014D01*
X308391304Y-343833472D01*
X308553373Y-343716422D01*
X308668499Y-343663287D01*
X308861888Y-343589615D01*
X309039323Y-343563000D01*
X312305000Y-343563000D01*
X312305000Y-345813000D01*
D14*
G36*
X312305000Y-345813000D02*
G01*
X309650000Y-345813000D01*
X309625614Y-345815402D01*
X309602165Y-345822515D01*
X309580554Y-345834066D01*
X309561612Y-345849612D01*
X309111612Y-346299612D01*
X309096066Y-346318554D01*
X309084515Y-346340165D01*
X309077402Y-346363614D01*
X309075000Y-346388000D01*
X309075000Y-353598000D01*
X309077402Y-353622386D01*
X309084515Y-353645835D01*
X309096066Y-353667446D01*
X309111612Y-353686388D01*
X309921612Y-354496388D01*
X309940554Y-354511934D01*
X309962165Y-354523485D01*
X309985614Y-354530598D01*
X310008596Y-354532992D01*
X310777931Y-354541636D01*
X310831939Y-356791937D01*
X309752013Y-356783012D01*
X309344353Y-356773306D01*
X309124893Y-356727585D01*
X308990312Y-356677117D01*
X308741321Y-356492679D01*
X308258241Y-356019458D01*
X307458936Y-355210162D01*
X307458388Y-355209612D01*
X307114335Y-354865559D01*
X306969742Y-354675781D01*
X306862038Y-354406521D01*
X306825000Y-354110216D01*
X306825000Y-345761241D01*
X306879609Y-345506398D01*
X306968272Y-345302473D01*
X307133762Y-345091014D01*
X308391304Y-343833472D01*
X308553373Y-343716422D01*
X308668499Y-343663287D01*
X308861888Y-343589615D01*
X309039323Y-343563000D01*
X312305000Y-343563000D01*
X312305000Y-345813000D01*
G37*
D15*
X329285000Y-345843000D02*
X326630000Y-345843000D01*
X326605614Y-345845402D01*
X326582165Y-345852515D01*
X326560554Y-345864066D01*
X326541612Y-345879612D01*
X326091612Y-346329612D01*
X326076066Y-346348554D01*
X326064515Y-346370165D01*
X326057402Y-346393614D01*
X326055000Y-346418000D01*
X326055000Y-353628000D01*
X326057402Y-353652386D01*
X326064515Y-353675835D01*
X326076066Y-353697446D01*
X326091612Y-353716388D01*
X326901612Y-354526388D01*
X326920554Y-354541934D01*
X326942165Y-354553485D01*
X326965614Y-354560598D01*
X326988596Y-354562992D01*
X327757931Y-354571636D01*
X327811939Y-356821937D01*
X326732013Y-356813012D01*
X326324353Y-356803306D01*
X326104893Y-356757585D01*
X325970312Y-356707117D01*
X325721321Y-356522679D01*
X325238241Y-356049458D01*
X324438936Y-355240162D01*
X324438388Y-355239612D01*
X324094335Y-354895559D01*
X323949742Y-354705781D01*
X323842038Y-354436521D01*
X323805000Y-354140216D01*
X323805000Y-345791241D01*
X323859609Y-345536398D01*
X323948272Y-345332473D01*
X324113762Y-345121014D01*
X325371304Y-343863472D01*
X325533373Y-343746422D01*
X325648499Y-343693287D01*
X325841888Y-343619615D01*
X326019323Y-343593000D01*
X329285000Y-343593000D01*
X329285000Y-345843000D01*
D14*
G36*
X329285000Y-345843000D02*
G01*
X326630000Y-345843000D01*
X326605614Y-345845402D01*
X326582165Y-345852515D01*
X326560554Y-345864066D01*
X326541612Y-345879612D01*
X326091612Y-346329612D01*
X326076066Y-346348554D01*
X326064515Y-346370165D01*
X326057402Y-346393614D01*
X326055000Y-346418000D01*
X326055000Y-353628000D01*
X326057402Y-353652386D01*
X326064515Y-353675835D01*
X326076066Y-353697446D01*
X326091612Y-353716388D01*
X326901612Y-354526388D01*
X326920554Y-354541934D01*
X326942165Y-354553485D01*
X326965614Y-354560598D01*
X326988596Y-354562992D01*
X327757931Y-354571636D01*
X327811939Y-356821937D01*
X326732013Y-356813012D01*
X326324353Y-356803306D01*
X326104893Y-356757585D01*
X325970312Y-356707117D01*
X325721321Y-356522679D01*
X325238241Y-356049458D01*
X324438936Y-355240162D01*
X324438388Y-355239612D01*
X324094335Y-354895559D01*
X323949742Y-354705781D01*
X323842038Y-354436521D01*
X323805000Y-354140216D01*
X323805000Y-345791241D01*
X323859609Y-345536398D01*
X323948272Y-345332473D01*
X324113762Y-345121014D01*
X325371304Y-343863472D01*
X325533373Y-343746422D01*
X325648499Y-343693287D01*
X325841888Y-343619615D01*
X326019323Y-343593000D01*
X329285000Y-343593000D01*
X329285000Y-345843000D01*
G37*
D15*
X345305000Y-345863000D02*
X342650000Y-345863000D01*
X342625614Y-345865402D01*
X342602165Y-345872515D01*
X342580554Y-345884066D01*
X342561612Y-345899612D01*
X342111612Y-346349612D01*
X342096066Y-346368554D01*
X342084515Y-346390165D01*
X342077402Y-346413614D01*
X342075000Y-346438000D01*
X342075000Y-353648000D01*
X342077402Y-353672386D01*
X342084515Y-353695835D01*
X342096066Y-353717446D01*
X342111612Y-353736388D01*
X342921612Y-354546388D01*
X342940554Y-354561934D01*
X342962165Y-354573485D01*
X342985614Y-354580598D01*
X343008596Y-354582992D01*
X343777931Y-354591636D01*
X343831939Y-356841937D01*
X342752013Y-356833012D01*
X342344353Y-356823306D01*
X342124893Y-356777585D01*
X341990312Y-356727117D01*
X341741321Y-356542679D01*
X341258241Y-356069458D01*
X340458936Y-355260162D01*
X340458388Y-355259612D01*
X340114335Y-354915559D01*
X339969742Y-354725781D01*
X339862038Y-354456521D01*
X339825000Y-354160216D01*
X339825000Y-345811241D01*
X339879609Y-345556398D01*
X339968272Y-345352473D01*
X340133762Y-345141014D01*
X341391304Y-343883472D01*
X341553373Y-343766422D01*
X341668499Y-343713287D01*
X341861888Y-343639615D01*
X342039323Y-343613000D01*
X345305000Y-343613000D01*
X345305000Y-345863000D01*
D14*
G36*
X345305000Y-345863000D02*
G01*
X342650000Y-345863000D01*
X342625614Y-345865402D01*
X342602165Y-345872515D01*
X342580554Y-345884066D01*
X342561612Y-345899612D01*
X342111612Y-346349612D01*
X342096066Y-346368554D01*
X342084515Y-346390165D01*
X342077402Y-346413614D01*
X342075000Y-346438000D01*
X342075000Y-353648000D01*
X342077402Y-353672386D01*
X342084515Y-353695835D01*
X342096066Y-353717446D01*
X342111612Y-353736388D01*
X342921612Y-354546388D01*
X342940554Y-354561934D01*
X342962165Y-354573485D01*
X342985614Y-354580598D01*
X343008596Y-354582992D01*
X343777931Y-354591636D01*
X343831939Y-356841937D01*
X342752013Y-356833012D01*
X342344353Y-356823306D01*
X342124893Y-356777585D01*
X341990312Y-356727117D01*
X341741321Y-356542679D01*
X341258241Y-356069458D01*
X340458936Y-355260162D01*
X340458388Y-355259612D01*
X340114335Y-354915559D01*
X339969742Y-354725781D01*
X339862038Y-354456521D01*
X339825000Y-354160216D01*
X339825000Y-345811241D01*
X339879609Y-345556398D01*
X339968272Y-345352473D01*
X340133762Y-345141014D01*
X341391304Y-343883472D01*
X341553373Y-343766422D01*
X341668499Y-343713287D01*
X341861888Y-343639615D01*
X342039323Y-343613000D01*
X345305000Y-343613000D01*
X345305000Y-345863000D01*
G37*
D15*
X362245000Y-345873000D02*
X359590000Y-345873000D01*
X359565614Y-345875402D01*
X359542165Y-345882515D01*
X359520554Y-345894066D01*
X359501612Y-345909612D01*
X359051612Y-346359612D01*
X359036066Y-346378554D01*
X359024515Y-346400165D01*
X359017402Y-346423614D01*
X359015000Y-346448000D01*
X359015000Y-353658000D01*
X359017402Y-353682386D01*
X359024515Y-353705835D01*
X359036066Y-353727446D01*
X359051612Y-353746388D01*
X359861612Y-354556388D01*
X359880554Y-354571934D01*
X359902165Y-354583485D01*
X359925614Y-354590598D01*
X359948596Y-354592992D01*
X360717931Y-354601636D01*
X360771939Y-356851937D01*
X359692013Y-356843012D01*
X359284353Y-356833306D01*
X359064893Y-356787585D01*
X358930312Y-356737117D01*
X358681321Y-356552679D01*
X358198241Y-356079458D01*
X357398936Y-355270162D01*
X357398388Y-355269612D01*
X357054335Y-354925559D01*
X356909742Y-354735781D01*
X356802038Y-354466521D01*
X356765000Y-354170216D01*
X356765000Y-345821241D01*
X356819609Y-345566398D01*
X356908272Y-345362473D01*
X357073762Y-345151014D01*
X358331304Y-343893472D01*
X358493373Y-343776422D01*
X358608499Y-343723287D01*
X358801888Y-343649615D01*
X358979323Y-343623000D01*
X362245000Y-343623000D01*
X362245000Y-345873000D01*
D14*
G36*
X362245000Y-345873000D02*
G01*
X359590000Y-345873000D01*
X359565614Y-345875402D01*
X359542165Y-345882515D01*
X359520554Y-345894066D01*
X359501612Y-345909612D01*
X359051612Y-346359612D01*
X359036066Y-346378554D01*
X359024515Y-346400165D01*
X359017402Y-346423614D01*
X359015000Y-346448000D01*
X359015000Y-353658000D01*
X359017402Y-353682386D01*
X359024515Y-353705835D01*
X359036066Y-353727446D01*
X359051612Y-353746388D01*
X359861612Y-354556388D01*
X359880554Y-354571934D01*
X359902165Y-354583485D01*
X359925614Y-354590598D01*
X359948596Y-354592992D01*
X360717931Y-354601636D01*
X360771939Y-356851937D01*
X359692013Y-356843012D01*
X359284353Y-356833306D01*
X359064893Y-356787585D01*
X358930312Y-356737117D01*
X358681321Y-356552679D01*
X358198241Y-356079458D01*
X357398936Y-355270162D01*
X357398388Y-355269612D01*
X357054335Y-354925559D01*
X356909742Y-354735781D01*
X356802038Y-354466521D01*
X356765000Y-354170216D01*
X356765000Y-345821241D01*
X356819609Y-345566398D01*
X356908272Y-345362473D01*
X357073762Y-345151014D01*
X358331304Y-343893472D01*
X358493373Y-343776422D01*
X358608499Y-343723287D01*
X358801888Y-343649615D01*
X358979323Y-343623000D01*
X362245000Y-343623000D01*
X362245000Y-345873000D01*
G37*
D15*
X378305000Y-345863000D02*
X375650000Y-345863000D01*
X375625614Y-345865402D01*
X375602165Y-345872515D01*
X375580554Y-345884066D01*
X375561612Y-345899612D01*
X375111612Y-346349612D01*
X375096066Y-346368554D01*
X375084515Y-346390165D01*
X375077402Y-346413614D01*
X375075000Y-346438000D01*
X375075000Y-353648000D01*
X375077402Y-353672386D01*
X375084515Y-353695835D01*
X375096066Y-353717446D01*
X375111612Y-353736388D01*
X375921612Y-354546388D01*
X375940554Y-354561934D01*
X375962165Y-354573485D01*
X375985614Y-354580598D01*
X376008596Y-354582992D01*
X376777931Y-354591636D01*
X376831939Y-356841937D01*
X375752013Y-356833012D01*
X375344353Y-356823306D01*
X375124893Y-356777585D01*
X374990312Y-356727117D01*
X374741321Y-356542679D01*
X374258241Y-356069458D01*
X373458936Y-355260162D01*
X373458388Y-355259612D01*
X373114335Y-354915559D01*
X372969742Y-354725781D01*
X372862038Y-354456521D01*
X372825000Y-354160216D01*
X372825000Y-345811241D01*
X372879609Y-345556398D01*
X372968272Y-345352473D01*
X373133762Y-345141014D01*
X374391304Y-343883472D01*
X374553373Y-343766422D01*
X374668499Y-343713287D01*
X374861888Y-343639615D01*
X375039323Y-343613000D01*
X378305000Y-343613000D01*
X378305000Y-345863000D01*
D14*
G36*
X378305000Y-345863000D02*
G01*
X375650000Y-345863000D01*
X375625614Y-345865402D01*
X375602165Y-345872515D01*
X375580554Y-345884066D01*
X375561612Y-345899612D01*
X375111612Y-346349612D01*
X375096066Y-346368554D01*
X375084515Y-346390165D01*
X375077402Y-346413614D01*
X375075000Y-346438000D01*
X375075000Y-353648000D01*
X375077402Y-353672386D01*
X375084515Y-353695835D01*
X375096066Y-353717446D01*
X375111612Y-353736388D01*
X375921612Y-354546388D01*
X375940554Y-354561934D01*
X375962165Y-354573485D01*
X375985614Y-354580598D01*
X376008596Y-354582992D01*
X376777931Y-354591636D01*
X376831939Y-356841937D01*
X375752013Y-356833012D01*
X375344353Y-356823306D01*
X375124893Y-356777585D01*
X374990312Y-356727117D01*
X374741321Y-356542679D01*
X374258241Y-356069458D01*
X373458936Y-355260162D01*
X373458388Y-355259612D01*
X373114335Y-354915559D01*
X372969742Y-354725781D01*
X372862038Y-354456521D01*
X372825000Y-354160216D01*
X372825000Y-345811241D01*
X372879609Y-345556398D01*
X372968272Y-345352473D01*
X373133762Y-345141014D01*
X374391304Y-343883472D01*
X374553373Y-343766422D01*
X374668499Y-343713287D01*
X374861888Y-343639615D01*
X375039323Y-343613000D01*
X378305000Y-343613000D01*
X378305000Y-345863000D01*
G37*
D15*
X395255000Y-345853000D02*
X392600000Y-345853000D01*
X392575614Y-345855402D01*
X392552165Y-345862515D01*
X392530554Y-345874066D01*
X392511612Y-345889612D01*
X392061612Y-346339612D01*
X392046066Y-346358554D01*
X392034515Y-346380165D01*
X392027402Y-346403614D01*
X392025000Y-346428000D01*
X392025000Y-353638000D01*
X392027402Y-353662386D01*
X392034515Y-353685835D01*
X392046066Y-353707446D01*
X392061612Y-353726388D01*
X392871612Y-354536388D01*
X392890554Y-354551934D01*
X392912165Y-354563485D01*
X392935614Y-354570598D01*
X392958596Y-354572992D01*
X393727931Y-354581636D01*
X393781939Y-356831937D01*
X392702013Y-356823012D01*
X392294353Y-356813306D01*
X392074893Y-356767585D01*
X391940312Y-356717117D01*
X391691321Y-356532679D01*
X391208241Y-356059458D01*
X390408936Y-355250162D01*
X390408388Y-355249612D01*
X390064335Y-354905559D01*
X389919742Y-354715781D01*
X389812038Y-354446521D01*
X389775000Y-354150216D01*
X389775000Y-345801241D01*
X389829609Y-345546398D01*
X389918272Y-345342473D01*
X390083762Y-345131014D01*
X391341304Y-343873472D01*
X391503373Y-343756422D01*
X391618499Y-343703287D01*
X391811888Y-343629615D01*
X391989323Y-343603000D01*
X395255000Y-343603000D01*
X395255000Y-345853000D01*
D14*
G36*
X395255000Y-345853000D02*
G01*
X392600000Y-345853000D01*
X392575614Y-345855402D01*
X392552165Y-345862515D01*
X392530554Y-345874066D01*
X392511612Y-345889612D01*
X392061612Y-346339612D01*
X392046066Y-346358554D01*
X392034515Y-346380165D01*
X392027402Y-346403614D01*
X392025000Y-346428000D01*
X392025000Y-353638000D01*
X392027402Y-353662386D01*
X392034515Y-353685835D01*
X392046066Y-353707446D01*
X392061612Y-353726388D01*
X392871612Y-354536388D01*
X392890554Y-354551934D01*
X392912165Y-354563485D01*
X392935614Y-354570598D01*
X392958596Y-354572992D01*
X393727931Y-354581636D01*
X393781939Y-356831937D01*
X392702013Y-356823012D01*
X392294353Y-356813306D01*
X392074893Y-356767585D01*
X391940312Y-356717117D01*
X391691321Y-356532679D01*
X391208241Y-356059458D01*
X390408936Y-355250162D01*
X390408388Y-355249612D01*
X390064335Y-354905559D01*
X389919742Y-354715781D01*
X389812038Y-354446521D01*
X389775000Y-354150216D01*
X389775000Y-345801241D01*
X389829609Y-345546398D01*
X389918272Y-345342473D01*
X390083762Y-345131014D01*
X391341304Y-343873472D01*
X391503373Y-343756422D01*
X391618499Y-343703287D01*
X391811888Y-343629615D01*
X391989323Y-343603000D01*
X395255000Y-343603000D01*
X395255000Y-345853000D01*
G37*
D15*
X411295000Y-345853000D02*
X408640000Y-345853000D01*
X408615614Y-345855402D01*
X408592165Y-345862515D01*
X408570554Y-345874066D01*
X408551612Y-345889612D01*
X408101612Y-346339612D01*
X408086066Y-346358554D01*
X408074515Y-346380165D01*
X408067402Y-346403614D01*
X408065000Y-346428000D01*
X408065000Y-353638000D01*
X408067402Y-353662386D01*
X408074515Y-353685835D01*
X408086066Y-353707446D01*
X408101612Y-353726388D01*
X408911612Y-354536388D01*
X408930554Y-354551934D01*
X408952165Y-354563485D01*
X408975614Y-354570598D01*
X408998596Y-354572992D01*
X409767931Y-354581636D01*
X409821939Y-356831937D01*
X408742013Y-356823012D01*
X408334353Y-356813306D01*
X408114893Y-356767585D01*
X407980312Y-356717117D01*
X407731321Y-356532679D01*
X407248241Y-356059458D01*
X406448936Y-355250162D01*
X406448388Y-355249612D01*
X406104335Y-354905559D01*
X405959742Y-354715781D01*
X405852038Y-354446521D01*
X405815000Y-354150216D01*
X405815000Y-345801241D01*
X405869609Y-345546398D01*
X405958272Y-345342473D01*
X406123762Y-345131014D01*
X407381304Y-343873472D01*
X407543373Y-343756422D01*
X407658499Y-343703287D01*
X407851888Y-343629615D01*
X408029323Y-343603000D01*
X411295000Y-343603000D01*
X411295000Y-345853000D01*
D14*
G36*
X411295000Y-345853000D02*
G01*
X408640000Y-345853000D01*
X408615614Y-345855402D01*
X408592165Y-345862515D01*
X408570554Y-345874066D01*
X408551612Y-345889612D01*
X408101612Y-346339612D01*
X408086066Y-346358554D01*
X408074515Y-346380165D01*
X408067402Y-346403614D01*
X408065000Y-346428000D01*
X408065000Y-353638000D01*
X408067402Y-353662386D01*
X408074515Y-353685835D01*
X408086066Y-353707446D01*
X408101612Y-353726388D01*
X408911612Y-354536388D01*
X408930554Y-354551934D01*
X408952165Y-354563485D01*
X408975614Y-354570598D01*
X408998596Y-354572992D01*
X409767931Y-354581636D01*
X409821939Y-356831937D01*
X408742013Y-356823012D01*
X408334353Y-356813306D01*
X408114893Y-356767585D01*
X407980312Y-356717117D01*
X407731321Y-356532679D01*
X407248241Y-356059458D01*
X406448936Y-355250162D01*
X406448388Y-355249612D01*
X406104335Y-354905559D01*
X405959742Y-354715781D01*
X405852038Y-354446521D01*
X405815000Y-354150216D01*
X405815000Y-345801241D01*
X405869609Y-345546398D01*
X405958272Y-345342473D01*
X406123762Y-345131014D01*
X407381304Y-343873472D01*
X407543373Y-343756422D01*
X407658499Y-343703287D01*
X407851888Y-343629615D01*
X408029323Y-343603000D01*
X411295000Y-343603000D01*
X411295000Y-345853000D01*
G37*
D15*
X428215000Y-345823000D02*
X425560000Y-345823000D01*
X425535614Y-345825402D01*
X425512165Y-345832515D01*
X425490554Y-345844066D01*
X425471612Y-345859612D01*
X425021612Y-346309612D01*
X425006066Y-346328554D01*
X424994515Y-346350165D01*
X424987402Y-346373614D01*
X424985000Y-346398000D01*
X424985000Y-353608000D01*
X424987402Y-353632386D01*
X424994515Y-353655835D01*
X425006066Y-353677446D01*
X425021612Y-353696388D01*
X425831612Y-354506388D01*
X425850554Y-354521934D01*
X425872165Y-354533485D01*
X425895614Y-354540598D01*
X425918596Y-354542992D01*
X426687931Y-354551636D01*
X426741939Y-356801937D01*
X425662013Y-356793012D01*
X425254353Y-356783306D01*
X425034893Y-356737585D01*
X424900312Y-356687117D01*
X424651321Y-356502679D01*
X424168241Y-356029458D01*
X423368936Y-355220162D01*
X423368388Y-355219612D01*
X423024335Y-354875559D01*
X422879742Y-354685781D01*
X422772038Y-354416521D01*
X422735000Y-354120216D01*
X422735000Y-345771241D01*
X422789609Y-345516398D01*
X422878272Y-345312473D01*
X423043762Y-345101014D01*
X424301304Y-343843472D01*
X424463373Y-343726422D01*
X424578499Y-343673287D01*
X424771888Y-343599615D01*
X424949323Y-343573000D01*
X428215000Y-343573000D01*
X428215000Y-345823000D01*
D14*
G36*
X428215000Y-345823000D02*
G01*
X425560000Y-345823000D01*
X425535614Y-345825402D01*
X425512165Y-345832515D01*
X425490554Y-345844066D01*
X425471612Y-345859612D01*
X425021612Y-346309612D01*
X425006066Y-346328554D01*
X424994515Y-346350165D01*
X424987402Y-346373614D01*
X424985000Y-346398000D01*
X424985000Y-353608000D01*
X424987402Y-353632386D01*
X424994515Y-353655835D01*
X425006066Y-353677446D01*
X425021612Y-353696388D01*
X425831612Y-354506388D01*
X425850554Y-354521934D01*
X425872165Y-354533485D01*
X425895614Y-354540598D01*
X425918596Y-354542992D01*
X426687931Y-354551636D01*
X426741939Y-356801937D01*
X425662013Y-356793012D01*
X425254353Y-356783306D01*
X425034893Y-356737585D01*
X424900312Y-356687117D01*
X424651321Y-356502679D01*
X424168241Y-356029458D01*
X423368936Y-355220162D01*
X423368388Y-355219612D01*
X423024335Y-354875559D01*
X422879742Y-354685781D01*
X422772038Y-354416521D01*
X422735000Y-354120216D01*
X422735000Y-345771241D01*
X422789609Y-345516398D01*
X422878272Y-345312473D01*
X423043762Y-345101014D01*
X424301304Y-343843472D01*
X424463373Y-343726422D01*
X424578499Y-343673287D01*
X424771888Y-343599615D01*
X424949323Y-343573000D01*
X428215000Y-343573000D01*
X428215000Y-345823000D01*
G37*
D15*
X444265000Y-345903000D02*
X441610000Y-345903000D01*
X441585614Y-345905402D01*
X441562165Y-345912515D01*
X441540554Y-345924066D01*
X441521612Y-345939612D01*
X441071612Y-346389612D01*
X441056066Y-346408554D01*
X441044515Y-346430165D01*
X441037402Y-346453614D01*
X441035000Y-346478000D01*
X441035000Y-353688000D01*
X441037402Y-353712386D01*
X441044515Y-353735835D01*
X441056066Y-353757446D01*
X441071612Y-353776388D01*
X441881612Y-354586388D01*
X441900554Y-354601934D01*
X441922165Y-354613485D01*
X441945614Y-354620598D01*
X441968596Y-354622992D01*
X442737931Y-354631636D01*
X442791939Y-356881937D01*
X441712013Y-356873012D01*
X441304353Y-356863306D01*
X441084893Y-356817585D01*
X440950312Y-356767117D01*
X440701321Y-356582679D01*
X440218241Y-356109458D01*
X439418936Y-355300162D01*
X439418388Y-355299612D01*
X439074335Y-354955559D01*
X438929742Y-354765781D01*
X438822038Y-354496521D01*
X438785000Y-354200216D01*
X438785000Y-345851241D01*
X438839609Y-345596398D01*
X438928272Y-345392473D01*
X439093762Y-345181014D01*
X440351304Y-343923472D01*
X440513373Y-343806422D01*
X440628499Y-343753287D01*
X440821888Y-343679615D01*
X440999323Y-343653000D01*
X444265000Y-343653000D01*
X444265000Y-345903000D01*
D14*
G36*
X444265000Y-345903000D02*
G01*
X441610000Y-345903000D01*
X441585614Y-345905402D01*
X441562165Y-345912515D01*
X441540554Y-345924066D01*
X441521612Y-345939612D01*
X441071612Y-346389612D01*
X441056066Y-346408554D01*
X441044515Y-346430165D01*
X441037402Y-346453614D01*
X441035000Y-346478000D01*
X441035000Y-353688000D01*
X441037402Y-353712386D01*
X441044515Y-353735835D01*
X441056066Y-353757446D01*
X441071612Y-353776388D01*
X441881612Y-354586388D01*
X441900554Y-354601934D01*
X441922165Y-354613485D01*
X441945614Y-354620598D01*
X441968596Y-354622992D01*
X442737931Y-354631636D01*
X442791939Y-356881937D01*
X441712013Y-356873012D01*
X441304353Y-356863306D01*
X441084893Y-356817585D01*
X440950312Y-356767117D01*
X440701321Y-356582679D01*
X440218241Y-356109458D01*
X439418936Y-355300162D01*
X439418388Y-355299612D01*
X439074335Y-354955559D01*
X438929742Y-354765781D01*
X438822038Y-354496521D01*
X438785000Y-354200216D01*
X438785000Y-345851241D01*
X438839609Y-345596398D01*
X438928272Y-345392473D01*
X439093762Y-345181014D01*
X440351304Y-343923472D01*
X440513373Y-343806422D01*
X440628499Y-343753287D01*
X440821888Y-343679615D01*
X440999323Y-343653000D01*
X444265000Y-343653000D01*
X444265000Y-345903000D01*
G37*
D15*
X319744499Y-350873000D02*
X317180000Y-350873000D01*
X317155614Y-350875402D01*
X317132165Y-350882515D01*
X317110554Y-350894066D01*
X317091612Y-350909612D01*
X316981612Y-351019612D01*
X316966066Y-351038554D01*
X316954515Y-351060165D01*
X316947402Y-351083614D01*
X316945000Y-351108000D01*
X316945000Y-353388000D01*
X316947402Y-353412386D01*
X316954515Y-353435835D01*
X316966066Y-353457446D01*
X316981612Y-353476388D01*
X317991612Y-354486388D01*
X318010554Y-354501934D01*
X318032165Y-354513485D01*
X318055614Y-354520598D01*
X318084804Y-354522908D01*
X318213989Y-354517939D01*
X318195965Y-356843000D01*
X317537784Y-356843000D01*
X317471351Y-356834696D01*
X317388745Y-356816339D01*
X317274965Y-356787894D01*
X317200298Y-356763005D01*
X317016154Y-356661726D01*
X316928988Y-356600709D01*
X316776949Y-356458173D01*
X315022403Y-354703627D01*
X314928076Y-354590434D01*
X314874667Y-354519222D01*
X314840254Y-354459000D01*
X314803070Y-354384632D01*
X314768636Y-354307156D01*
X314761268Y-354277683D01*
X314759472Y-354271239D01*
X314722157Y-354149966D01*
X314703819Y-354030765D01*
X314695000Y-353960216D01*
X314695000Y-350592454D01*
X314704198Y-350463685D01*
X314740619Y-350263369D01*
X314803220Y-350111338D01*
X314874424Y-349977830D01*
X315002655Y-349822121D01*
X315768388Y-349056388D01*
X315771025Y-349053671D01*
X315921755Y-348893520D01*
X316091418Y-348777435D01*
X316275533Y-348694583D01*
X316436617Y-348640889D01*
X316606560Y-348623000D01*
X319735499Y-348623000D01*
X319744499Y-350873000D01*
D14*
G36*
X319744499Y-350873000D02*
G01*
X317180000Y-350873000D01*
X317155614Y-350875402D01*
X317132165Y-350882515D01*
X317110554Y-350894066D01*
X317091612Y-350909612D01*
X316981612Y-351019612D01*
X316966066Y-351038554D01*
X316954515Y-351060165D01*
X316947402Y-351083614D01*
X316945000Y-351108000D01*
X316945000Y-353388000D01*
X316947402Y-353412386D01*
X316954515Y-353435835D01*
X316966066Y-353457446D01*
X316981612Y-353476388D01*
X317991612Y-354486388D01*
X318010554Y-354501934D01*
X318032165Y-354513485D01*
X318055614Y-354520598D01*
X318084804Y-354522908D01*
X318213989Y-354517939D01*
X318195965Y-356843000D01*
X317537784Y-356843000D01*
X317471351Y-356834696D01*
X317388745Y-356816339D01*
X317274965Y-356787894D01*
X317200298Y-356763005D01*
X317016154Y-356661726D01*
X316928988Y-356600709D01*
X316776949Y-356458173D01*
X315022403Y-354703627D01*
X314928076Y-354590434D01*
X314874667Y-354519222D01*
X314840254Y-354459000D01*
X314803070Y-354384632D01*
X314768636Y-354307156D01*
X314761268Y-354277683D01*
X314759472Y-354271239D01*
X314722157Y-354149966D01*
X314703819Y-354030765D01*
X314695000Y-353960216D01*
X314695000Y-350592454D01*
X314704198Y-350463685D01*
X314740619Y-350263369D01*
X314803220Y-350111338D01*
X314874424Y-349977830D01*
X315002655Y-349822121D01*
X315768388Y-349056388D01*
X315771025Y-349053671D01*
X315921755Y-348893520D01*
X316091418Y-348777435D01*
X316275533Y-348694583D01*
X316436617Y-348640889D01*
X316606560Y-348623000D01*
X319735499Y-348623000D01*
X319744499Y-350873000D01*
G37*
D15*
X336774499Y-350823000D02*
X334210000Y-350823000D01*
X334185614Y-350825402D01*
X334162165Y-350832515D01*
X334140554Y-350844066D01*
X334121612Y-350859612D01*
X334011612Y-350969612D01*
X333996066Y-350988554D01*
X333984515Y-351010165D01*
X333977402Y-351033614D01*
X333975000Y-351058000D01*
X333975000Y-353338000D01*
X333977402Y-353362386D01*
X333984515Y-353385835D01*
X333996066Y-353407446D01*
X334011612Y-353426388D01*
X335021612Y-354436388D01*
X335040554Y-354451934D01*
X335062165Y-354463485D01*
X335085614Y-354470598D01*
X335114804Y-354472908D01*
X335243989Y-354467939D01*
X335225965Y-356793000D01*
X334567784Y-356793000D01*
X334501351Y-356784696D01*
X334418745Y-356766339D01*
X334304965Y-356737894D01*
X334230298Y-356713005D01*
X334046154Y-356611726D01*
X333958988Y-356550709D01*
X333806949Y-356408173D01*
X332052403Y-354653627D01*
X331958076Y-354540434D01*
X331904667Y-354469222D01*
X331870254Y-354409000D01*
X331833070Y-354334632D01*
X331798636Y-354257156D01*
X331791268Y-354227683D01*
X331789472Y-354221239D01*
X331752157Y-354099966D01*
X331733819Y-353980765D01*
X331725000Y-353910216D01*
X331725000Y-350542454D01*
X331734198Y-350413685D01*
X331770619Y-350213369D01*
X331833220Y-350061338D01*
X331904424Y-349927830D01*
X332032655Y-349772121D01*
X332798388Y-349006388D01*
X332801025Y-349003671D01*
X332951755Y-348843520D01*
X333121418Y-348727435D01*
X333305533Y-348644583D01*
X333466617Y-348590889D01*
X333636560Y-348573000D01*
X336765499Y-348573000D01*
X336774499Y-350823000D01*
D14*
G36*
X336774499Y-350823000D02*
G01*
X334210000Y-350823000D01*
X334185614Y-350825402D01*
X334162165Y-350832515D01*
X334140554Y-350844066D01*
X334121612Y-350859612D01*
X334011612Y-350969612D01*
X333996066Y-350988554D01*
X333984515Y-351010165D01*
X333977402Y-351033614D01*
X333975000Y-351058000D01*
X333975000Y-353338000D01*
X333977402Y-353362386D01*
X333984515Y-353385835D01*
X333996066Y-353407446D01*
X334011612Y-353426388D01*
X335021612Y-354436388D01*
X335040554Y-354451934D01*
X335062165Y-354463485D01*
X335085614Y-354470598D01*
X335114804Y-354472908D01*
X335243989Y-354467939D01*
X335225965Y-356793000D01*
X334567784Y-356793000D01*
X334501351Y-356784696D01*
X334418745Y-356766339D01*
X334304965Y-356737894D01*
X334230298Y-356713005D01*
X334046154Y-356611726D01*
X333958988Y-356550709D01*
X333806949Y-356408173D01*
X332052403Y-354653627D01*
X331958076Y-354540434D01*
X331904667Y-354469222D01*
X331870254Y-354409000D01*
X331833070Y-354334632D01*
X331798636Y-354257156D01*
X331791268Y-354227683D01*
X331789472Y-354221239D01*
X331752157Y-354099966D01*
X331733819Y-353980765D01*
X331725000Y-353910216D01*
X331725000Y-350542454D01*
X331734198Y-350413685D01*
X331770619Y-350213369D01*
X331833220Y-350061338D01*
X331904424Y-349927830D01*
X332032655Y-349772121D01*
X332798388Y-349006388D01*
X332801025Y-349003671D01*
X332951755Y-348843520D01*
X333121418Y-348727435D01*
X333305533Y-348644583D01*
X333466617Y-348590889D01*
X333636560Y-348573000D01*
X336765499Y-348573000D01*
X336774499Y-350823000D01*
G37*
D15*
X352764499Y-350823000D02*
X350200000Y-350823000D01*
X350175614Y-350825402D01*
X350152165Y-350832515D01*
X350130554Y-350844066D01*
X350111612Y-350859612D01*
X350001612Y-350969612D01*
X349986066Y-350988554D01*
X349974515Y-351010165D01*
X349967402Y-351033614D01*
X349965000Y-351058000D01*
X349965000Y-353338000D01*
X349967402Y-353362386D01*
X349974515Y-353385835D01*
X349986066Y-353407446D01*
X350001612Y-353426388D01*
X351011612Y-354436388D01*
X351030554Y-354451934D01*
X351052165Y-354463485D01*
X351075614Y-354470598D01*
X351104804Y-354472908D01*
X351233989Y-354467939D01*
X351215965Y-356793000D01*
X350557784Y-356793000D01*
X350491351Y-356784696D01*
X350408745Y-356766339D01*
X350294965Y-356737894D01*
X350220298Y-356713005D01*
X350036154Y-356611726D01*
X349948988Y-356550709D01*
X349796949Y-356408173D01*
X348042403Y-354653627D01*
X347948076Y-354540434D01*
X347894667Y-354469222D01*
X347860254Y-354409000D01*
X347823070Y-354334632D01*
X347788636Y-354257156D01*
X347781268Y-354227683D01*
X347779472Y-354221239D01*
X347742157Y-354099966D01*
X347723819Y-353980765D01*
X347715000Y-353910216D01*
X347715000Y-350542454D01*
X347724198Y-350413685D01*
X347760619Y-350213369D01*
X347823220Y-350061338D01*
X347894424Y-349927830D01*
X348022655Y-349772121D01*
X348788388Y-349006388D01*
X348791025Y-349003671D01*
X348941755Y-348843520D01*
X349111418Y-348727435D01*
X349295533Y-348644583D01*
X349456617Y-348590889D01*
X349626560Y-348573000D01*
X352755499Y-348573000D01*
X352764499Y-350823000D01*
D14*
G36*
X352764499Y-350823000D02*
G01*
X350200000Y-350823000D01*
X350175614Y-350825402D01*
X350152165Y-350832515D01*
X350130554Y-350844066D01*
X350111612Y-350859612D01*
X350001612Y-350969612D01*
X349986066Y-350988554D01*
X349974515Y-351010165D01*
X349967402Y-351033614D01*
X349965000Y-351058000D01*
X349965000Y-353338000D01*
X349967402Y-353362386D01*
X349974515Y-353385835D01*
X349986066Y-353407446D01*
X350001612Y-353426388D01*
X351011612Y-354436388D01*
X351030554Y-354451934D01*
X351052165Y-354463485D01*
X351075614Y-354470598D01*
X351104804Y-354472908D01*
X351233989Y-354467939D01*
X351215965Y-356793000D01*
X350557784Y-356793000D01*
X350491351Y-356784696D01*
X350408745Y-356766339D01*
X350294965Y-356737894D01*
X350220298Y-356713005D01*
X350036154Y-356611726D01*
X349948988Y-356550709D01*
X349796949Y-356408173D01*
X348042403Y-354653627D01*
X347948076Y-354540434D01*
X347894667Y-354469222D01*
X347860254Y-354409000D01*
X347823070Y-354334632D01*
X347788636Y-354257156D01*
X347781268Y-354227683D01*
X347779472Y-354221239D01*
X347742157Y-354099966D01*
X347723819Y-353980765D01*
X347715000Y-353910216D01*
X347715000Y-350542454D01*
X347724198Y-350413685D01*
X347760619Y-350213369D01*
X347823220Y-350061338D01*
X347894424Y-349927830D01*
X348022655Y-349772121D01*
X348788388Y-349006388D01*
X348791025Y-349003671D01*
X348941755Y-348843520D01*
X349111418Y-348727435D01*
X349295533Y-348644583D01*
X349456617Y-348590889D01*
X349626560Y-348573000D01*
X352755499Y-348573000D01*
X352764499Y-350823000D01*
G37*
D15*
X369794499Y-350833000D02*
X367230000Y-350833000D01*
X367205614Y-350835402D01*
X367182165Y-350842515D01*
X367160554Y-350854066D01*
X367141612Y-350869612D01*
X367031612Y-350979612D01*
X367016066Y-350998554D01*
X367004515Y-351020165D01*
X366997402Y-351043614D01*
X366995000Y-351068000D01*
X366995000Y-353348000D01*
X366997402Y-353372386D01*
X367004515Y-353395835D01*
X367016066Y-353417446D01*
X367031612Y-353436388D01*
X368041612Y-354446388D01*
X368060554Y-354461934D01*
X368082165Y-354473485D01*
X368105614Y-354480598D01*
X368134804Y-354482908D01*
X368263989Y-354477939D01*
X368245965Y-356803000D01*
X367587784Y-356803000D01*
X367521351Y-356794696D01*
X367438745Y-356776339D01*
X367324965Y-356747894D01*
X367250298Y-356723005D01*
X367066154Y-356621726D01*
X366978988Y-356560709D01*
X366826949Y-356418173D01*
X365072403Y-354663627D01*
X364978075Y-354550434D01*
X364924667Y-354479222D01*
X364890254Y-354419000D01*
X364853070Y-354344632D01*
X364818636Y-354267156D01*
X364811268Y-354237683D01*
X364809472Y-354231239D01*
X364772157Y-354109966D01*
X364753819Y-353990765D01*
X364745000Y-353920216D01*
X364745000Y-350552454D01*
X364754198Y-350423685D01*
X364790619Y-350223369D01*
X364853220Y-350071338D01*
X364924424Y-349937830D01*
X365052655Y-349782121D01*
X365818388Y-349016388D01*
X365821025Y-349013671D01*
X365971755Y-348853520D01*
X366141418Y-348737435D01*
X366325533Y-348654583D01*
X366486617Y-348600889D01*
X366656560Y-348583000D01*
X369785499Y-348583000D01*
X369794499Y-350833000D01*
D14*
G36*
X369794499Y-350833000D02*
G01*
X367230000Y-350833000D01*
X367205614Y-350835402D01*
X367182165Y-350842515D01*
X367160554Y-350854066D01*
X367141612Y-350869612D01*
X367031612Y-350979612D01*
X367016066Y-350998554D01*
X367004515Y-351020165D01*
X366997402Y-351043614D01*
X366995000Y-351068000D01*
X366995000Y-353348000D01*
X366997402Y-353372386D01*
X367004515Y-353395835D01*
X367016066Y-353417446D01*
X367031612Y-353436388D01*
X368041612Y-354446388D01*
X368060554Y-354461934D01*
X368082165Y-354473485D01*
X368105614Y-354480598D01*
X368134804Y-354482908D01*
X368263989Y-354477939D01*
X368245965Y-356803000D01*
X367587784Y-356803000D01*
X367521351Y-356794696D01*
X367438745Y-356776339D01*
X367324965Y-356747894D01*
X367250298Y-356723005D01*
X367066154Y-356621726D01*
X366978988Y-356560709D01*
X366826949Y-356418173D01*
X365072403Y-354663627D01*
X364978075Y-354550434D01*
X364924667Y-354479222D01*
X364890254Y-354419000D01*
X364853070Y-354344632D01*
X364818636Y-354267156D01*
X364811268Y-354237683D01*
X364809472Y-354231239D01*
X364772157Y-354109966D01*
X364753819Y-353990765D01*
X364745000Y-353920216D01*
X364745000Y-350552454D01*
X364754198Y-350423685D01*
X364790619Y-350223369D01*
X364853220Y-350071338D01*
X364924424Y-349937830D01*
X365052655Y-349782121D01*
X365818388Y-349016388D01*
X365821025Y-349013671D01*
X365971755Y-348853520D01*
X366141418Y-348737435D01*
X366325533Y-348654583D01*
X366486617Y-348600889D01*
X366656560Y-348583000D01*
X369785499Y-348583000D01*
X369794499Y-350833000D01*
G37*
D15*
X385734499Y-350833000D02*
X383170000Y-350833000D01*
X383145614Y-350835402D01*
X383122165Y-350842515D01*
X383100554Y-350854066D01*
X383081612Y-350869612D01*
X382971612Y-350979612D01*
X382956066Y-350998554D01*
X382944515Y-351020165D01*
X382937402Y-351043614D01*
X382935000Y-351068000D01*
X382935000Y-353348000D01*
X382937402Y-353372386D01*
X382944515Y-353395835D01*
X382956066Y-353417446D01*
X382971612Y-353436388D01*
X383981612Y-354446388D01*
X384000554Y-354461934D01*
X384022165Y-354473485D01*
X384045614Y-354480598D01*
X384074804Y-354482908D01*
X384203989Y-354477939D01*
X384185965Y-356803000D01*
X383527784Y-356803000D01*
X383461351Y-356794696D01*
X383378745Y-356776339D01*
X383264965Y-356747894D01*
X383190298Y-356723005D01*
X383006154Y-356621726D01*
X382918988Y-356560709D01*
X382766949Y-356418173D01*
X381012403Y-354663627D01*
X380918075Y-354550434D01*
X380864667Y-354479222D01*
X380830254Y-354419000D01*
X380793070Y-354344632D01*
X380758636Y-354267156D01*
X380751268Y-354237683D01*
X380749472Y-354231239D01*
X380712157Y-354109966D01*
X380693819Y-353990765D01*
X380685000Y-353920216D01*
X380685000Y-350552454D01*
X380694198Y-350423685D01*
X380730619Y-350223369D01*
X380793220Y-350071338D01*
X380864424Y-349937830D01*
X380992655Y-349782121D01*
X381758388Y-349016388D01*
X381761025Y-349013671D01*
X381911755Y-348853520D01*
X382081418Y-348737435D01*
X382265533Y-348654583D01*
X382426617Y-348600889D01*
X382596560Y-348583000D01*
X385725499Y-348583000D01*
X385734499Y-350833000D01*
D14*
G36*
X385734499Y-350833000D02*
G01*
X383170000Y-350833000D01*
X383145614Y-350835402D01*
X383122165Y-350842515D01*
X383100554Y-350854066D01*
X383081612Y-350869612D01*
X382971612Y-350979612D01*
X382956066Y-350998554D01*
X382944515Y-351020165D01*
X382937402Y-351043614D01*
X382935000Y-351068000D01*
X382935000Y-353348000D01*
X382937402Y-353372386D01*
X382944515Y-353395835D01*
X382956066Y-353417446D01*
X382971612Y-353436388D01*
X383981612Y-354446388D01*
X384000554Y-354461934D01*
X384022165Y-354473485D01*
X384045614Y-354480598D01*
X384074804Y-354482908D01*
X384203989Y-354477939D01*
X384185965Y-356803000D01*
X383527784Y-356803000D01*
X383461351Y-356794696D01*
X383378745Y-356776339D01*
X383264965Y-356747894D01*
X383190298Y-356723005D01*
X383006154Y-356621726D01*
X382918988Y-356560709D01*
X382766949Y-356418173D01*
X381012403Y-354663627D01*
X380918075Y-354550434D01*
X380864667Y-354479222D01*
X380830254Y-354419000D01*
X380793070Y-354344632D01*
X380758636Y-354267156D01*
X380751268Y-354237683D01*
X380749472Y-354231239D01*
X380712157Y-354109966D01*
X380693819Y-353990765D01*
X380685000Y-353920216D01*
X380685000Y-350552454D01*
X380694198Y-350423685D01*
X380730619Y-350223369D01*
X380793220Y-350071338D01*
X380864424Y-349937830D01*
X380992655Y-349782121D01*
X381758388Y-349016388D01*
X381761025Y-349013671D01*
X381911755Y-348853520D01*
X382081418Y-348737435D01*
X382265533Y-348654583D01*
X382426617Y-348600889D01*
X382596560Y-348583000D01*
X385725499Y-348583000D01*
X385734499Y-350833000D01*
G37*
D15*
X402814499Y-350823000D02*
X400250000Y-350823000D01*
X400225614Y-350825402D01*
X400202165Y-350832515D01*
X400180554Y-350844066D01*
X400161612Y-350859612D01*
X400051612Y-350969612D01*
X400036066Y-350988554D01*
X400024515Y-351010165D01*
X400017402Y-351033614D01*
X400015000Y-351058000D01*
X400015000Y-353338000D01*
X400017402Y-353362386D01*
X400024515Y-353385835D01*
X400036066Y-353407446D01*
X400051612Y-353426388D01*
X401061612Y-354436388D01*
X401080554Y-354451934D01*
X401102165Y-354463485D01*
X401125614Y-354470598D01*
X401154804Y-354472908D01*
X401283989Y-354467939D01*
X401265965Y-356793000D01*
X400607784Y-356793000D01*
X400541351Y-356784696D01*
X400458745Y-356766339D01*
X400344965Y-356737894D01*
X400270298Y-356713005D01*
X400086154Y-356611726D01*
X399998988Y-356550709D01*
X399846949Y-356408173D01*
X398092403Y-354653627D01*
X397998076Y-354540434D01*
X397944667Y-354469222D01*
X397910254Y-354409000D01*
X397873070Y-354334632D01*
X397838636Y-354257156D01*
X397831268Y-354227683D01*
X397829472Y-354221239D01*
X397792157Y-354099966D01*
X397773819Y-353980765D01*
X397765000Y-353910216D01*
X397765000Y-350542454D01*
X397774198Y-350413685D01*
X397810619Y-350213369D01*
X397873220Y-350061338D01*
X397944424Y-349927830D01*
X398072655Y-349772121D01*
X398838388Y-349006388D01*
X398841025Y-349003671D01*
X398991755Y-348843520D01*
X399161418Y-348727435D01*
X399345533Y-348644583D01*
X399506617Y-348590889D01*
X399676560Y-348573000D01*
X402805499Y-348573000D01*
X402814499Y-350823000D01*
D14*
G36*
X402814499Y-350823000D02*
G01*
X400250000Y-350823000D01*
X400225614Y-350825402D01*
X400202165Y-350832515D01*
X400180554Y-350844066D01*
X400161612Y-350859612D01*
X400051612Y-350969612D01*
X400036066Y-350988554D01*
X400024515Y-351010165D01*
X400017402Y-351033614D01*
X400015000Y-351058000D01*
X400015000Y-353338000D01*
X400017402Y-353362386D01*
X400024515Y-353385835D01*
X400036066Y-353407446D01*
X400051612Y-353426388D01*
X401061612Y-354436388D01*
X401080554Y-354451934D01*
X401102165Y-354463485D01*
X401125614Y-354470598D01*
X401154804Y-354472908D01*
X401283989Y-354467939D01*
X401265965Y-356793000D01*
X400607784Y-356793000D01*
X400541351Y-356784696D01*
X400458745Y-356766339D01*
X400344965Y-356737894D01*
X400270298Y-356713005D01*
X400086154Y-356611726D01*
X399998988Y-356550709D01*
X399846949Y-356408173D01*
X398092403Y-354653627D01*
X397998076Y-354540434D01*
X397944667Y-354469222D01*
X397910254Y-354409000D01*
X397873070Y-354334632D01*
X397838636Y-354257156D01*
X397831268Y-354227683D01*
X397829472Y-354221239D01*
X397792157Y-354099966D01*
X397773819Y-353980765D01*
X397765000Y-353910216D01*
X397765000Y-350542454D01*
X397774198Y-350413685D01*
X397810619Y-350213369D01*
X397873220Y-350061338D01*
X397944424Y-349927830D01*
X398072655Y-349772121D01*
X398838388Y-349006388D01*
X398841025Y-349003671D01*
X398991755Y-348843520D01*
X399161418Y-348727435D01*
X399345533Y-348644583D01*
X399506617Y-348590889D01*
X399676560Y-348573000D01*
X402805499Y-348573000D01*
X402814499Y-350823000D01*
G37*
D15*
X418794499Y-350853000D02*
X416230000Y-350853000D01*
X416205614Y-350855402D01*
X416182165Y-350862515D01*
X416160554Y-350874066D01*
X416141612Y-350889612D01*
X416031612Y-350999612D01*
X416016066Y-351018554D01*
X416004515Y-351040165D01*
X415997402Y-351063614D01*
X415995000Y-351088000D01*
X415995000Y-353368000D01*
X415997402Y-353392386D01*
X416004515Y-353415835D01*
X416016066Y-353437446D01*
X416031612Y-353456388D01*
X417041612Y-354466388D01*
X417060554Y-354481934D01*
X417082165Y-354493485D01*
X417105614Y-354500598D01*
X417134804Y-354502908D01*
X417263989Y-354497939D01*
X417245965Y-356823000D01*
X416587784Y-356823000D01*
X416521351Y-356814696D01*
X416438745Y-356796339D01*
X416324965Y-356767894D01*
X416250298Y-356743005D01*
X416066154Y-356641726D01*
X415978988Y-356580709D01*
X415826949Y-356438173D01*
X414072403Y-354683627D01*
X413978076Y-354570434D01*
X413924667Y-354499222D01*
X413890254Y-354439000D01*
X413853070Y-354364632D01*
X413818636Y-354287156D01*
X413811268Y-354257683D01*
X413809472Y-354251239D01*
X413772157Y-354129966D01*
X413753819Y-354010765D01*
X413745000Y-353940216D01*
X413745000Y-350572454D01*
X413754198Y-350443685D01*
X413790619Y-350243369D01*
X413853220Y-350091338D01*
X413924424Y-349957830D01*
X414052655Y-349802121D01*
X414818388Y-349036388D01*
X414821025Y-349033671D01*
X414971755Y-348873520D01*
X415141418Y-348757435D01*
X415325533Y-348674583D01*
X415486617Y-348620889D01*
X415656560Y-348603000D01*
X418785499Y-348603000D01*
X418794499Y-350853000D01*
D14*
G36*
X418794499Y-350853000D02*
G01*
X416230000Y-350853000D01*
X416205614Y-350855402D01*
X416182165Y-350862515D01*
X416160554Y-350874066D01*
X416141612Y-350889612D01*
X416031612Y-350999612D01*
X416016066Y-351018554D01*
X416004515Y-351040165D01*
X415997402Y-351063614D01*
X415995000Y-351088000D01*
X415995000Y-353368000D01*
X415997402Y-353392386D01*
X416004515Y-353415835D01*
X416016066Y-353437446D01*
X416031612Y-353456388D01*
X417041612Y-354466388D01*
X417060554Y-354481934D01*
X417082165Y-354493485D01*
X417105614Y-354500598D01*
X417134804Y-354502908D01*
X417263989Y-354497939D01*
X417245965Y-356823000D01*
X416587784Y-356823000D01*
X416521351Y-356814696D01*
X416438745Y-356796339D01*
X416324965Y-356767894D01*
X416250298Y-356743005D01*
X416066154Y-356641726D01*
X415978988Y-356580709D01*
X415826949Y-356438173D01*
X414072403Y-354683627D01*
X413978076Y-354570434D01*
X413924667Y-354499222D01*
X413890254Y-354439000D01*
X413853070Y-354364632D01*
X413818636Y-354287156D01*
X413811268Y-354257683D01*
X413809472Y-354251239D01*
X413772157Y-354129966D01*
X413753819Y-354010765D01*
X413745000Y-353940216D01*
X413745000Y-350572454D01*
X413754198Y-350443685D01*
X413790619Y-350243369D01*
X413853220Y-350091338D01*
X413924424Y-349957830D01*
X414052655Y-349802121D01*
X414818388Y-349036388D01*
X414821025Y-349033671D01*
X414971755Y-348873520D01*
X415141418Y-348757435D01*
X415325533Y-348674583D01*
X415486617Y-348620889D01*
X415656560Y-348603000D01*
X418785499Y-348603000D01*
X418794499Y-350853000D01*
G37*
D15*
X435824499Y-350863000D02*
X433260000Y-350863000D01*
X433235614Y-350865402D01*
X433212165Y-350872515D01*
X433190554Y-350884066D01*
X433171612Y-350899612D01*
X433061612Y-351009612D01*
X433046066Y-351028554D01*
X433034515Y-351050165D01*
X433027402Y-351073614D01*
X433025000Y-351098000D01*
X433025000Y-353378000D01*
X433027402Y-353402386D01*
X433034515Y-353425835D01*
X433046066Y-353447446D01*
X433061612Y-353466388D01*
X434071612Y-354476388D01*
X434090554Y-354491934D01*
X434112165Y-354503485D01*
X434135614Y-354510598D01*
X434164804Y-354512908D01*
X434293989Y-354507939D01*
X434275965Y-356833000D01*
X433617784Y-356833000D01*
X433551351Y-356824696D01*
X433468745Y-356806339D01*
X433354965Y-356777894D01*
X433280298Y-356753005D01*
X433096154Y-356651726D01*
X433008988Y-356590709D01*
X432856949Y-356448173D01*
X431102403Y-354693627D01*
X431008075Y-354580434D01*
X430954667Y-354509222D01*
X430920254Y-354449000D01*
X430883070Y-354374632D01*
X430848636Y-354297156D01*
X430841268Y-354267683D01*
X430839472Y-354261239D01*
X430802157Y-354139966D01*
X430783819Y-354020765D01*
X430775000Y-353950216D01*
X430775000Y-350582454D01*
X430784198Y-350453685D01*
X430820619Y-350253369D01*
X430883220Y-350101338D01*
X430954424Y-349967830D01*
X431082655Y-349812121D01*
X431848388Y-349046388D01*
X431851025Y-349043671D01*
X432001755Y-348883520D01*
X432171418Y-348767435D01*
X432355533Y-348684583D01*
X432516617Y-348630889D01*
X432686560Y-348613000D01*
X435815499Y-348613000D01*
X435824499Y-350863000D01*
D14*
G36*
X435824499Y-350863000D02*
G01*
X433260000Y-350863000D01*
X433235614Y-350865402D01*
X433212165Y-350872515D01*
X433190554Y-350884066D01*
X433171612Y-350899612D01*
X433061612Y-351009612D01*
X433046066Y-351028554D01*
X433034515Y-351050165D01*
X433027402Y-351073614D01*
X433025000Y-351098000D01*
X433025000Y-353378000D01*
X433027402Y-353402386D01*
X433034515Y-353425835D01*
X433046066Y-353447446D01*
X433061612Y-353466388D01*
X434071612Y-354476388D01*
X434090554Y-354491934D01*
X434112165Y-354503485D01*
X434135614Y-354510598D01*
X434164804Y-354512908D01*
X434293989Y-354507939D01*
X434275965Y-356833000D01*
X433617784Y-356833000D01*
X433551351Y-356824696D01*
X433468745Y-356806339D01*
X433354965Y-356777894D01*
X433280298Y-356753005D01*
X433096154Y-356651726D01*
X433008988Y-356590709D01*
X432856949Y-356448173D01*
X431102403Y-354693627D01*
X431008075Y-354580434D01*
X430954667Y-354509222D01*
X430920254Y-354449000D01*
X430883070Y-354374632D01*
X430848636Y-354297156D01*
X430841268Y-354267683D01*
X430839472Y-354261239D01*
X430802157Y-354139966D01*
X430783819Y-354020765D01*
X430775000Y-353950216D01*
X430775000Y-350582454D01*
X430784198Y-350453685D01*
X430820619Y-350253369D01*
X430883220Y-350101338D01*
X430954424Y-349967830D01*
X431082655Y-349812121D01*
X431848388Y-349046388D01*
X431851025Y-349043671D01*
X432001755Y-348883520D01*
X432171418Y-348767435D01*
X432355533Y-348684583D01*
X432516617Y-348630889D01*
X432686560Y-348613000D01*
X435815499Y-348613000D01*
X435824499Y-350863000D01*
G37*
D15*
X451774499Y-350853000D02*
X449210000Y-350853000D01*
X449185614Y-350855402D01*
X449162165Y-350862515D01*
X449140554Y-350874066D01*
X449121612Y-350889612D01*
X449011612Y-350999612D01*
X448996066Y-351018554D01*
X448984515Y-351040165D01*
X448977402Y-351063614D01*
X448975000Y-351088000D01*
X448975000Y-353368000D01*
X448977402Y-353392386D01*
X448984515Y-353415835D01*
X448996066Y-353437446D01*
X449011612Y-353456388D01*
X450021612Y-354466388D01*
X450040554Y-354481934D01*
X450062165Y-354493485D01*
X450085614Y-354500598D01*
X450114804Y-354502908D01*
X450243989Y-354497939D01*
X450225965Y-356823000D01*
X449567784Y-356823000D01*
X449501351Y-356814696D01*
X449418745Y-356796339D01*
X449304965Y-356767894D01*
X449230298Y-356743005D01*
X449046154Y-356641726D01*
X448958988Y-356580709D01*
X448806949Y-356438173D01*
X447052403Y-354683627D01*
X446958076Y-354570434D01*
X446904667Y-354499222D01*
X446870254Y-354439000D01*
X446833070Y-354364632D01*
X446798636Y-354287156D01*
X446791268Y-354257683D01*
X446789472Y-354251239D01*
X446752157Y-354129966D01*
X446733819Y-354010765D01*
X446725000Y-353940216D01*
X446725000Y-350572454D01*
X446734198Y-350443685D01*
X446770619Y-350243369D01*
X446833220Y-350091338D01*
X446904424Y-349957830D01*
X447032655Y-349802121D01*
X447798388Y-349036388D01*
X447801025Y-349033671D01*
X447951755Y-348873520D01*
X448121418Y-348757435D01*
X448305533Y-348674583D01*
X448466617Y-348620889D01*
X448636560Y-348603000D01*
X451765499Y-348603000D01*
X451774499Y-350853000D01*
D14*
G36*
X451774499Y-350853000D02*
G01*
X449210000Y-350853000D01*
X449185614Y-350855402D01*
X449162165Y-350862515D01*
X449140554Y-350874066D01*
X449121612Y-350889612D01*
X449011612Y-350999612D01*
X448996066Y-351018554D01*
X448984515Y-351040165D01*
X448977402Y-351063614D01*
X448975000Y-351088000D01*
X448975000Y-353368000D01*
X448977402Y-353392386D01*
X448984515Y-353415835D01*
X448996066Y-353437446D01*
X449011612Y-353456388D01*
X450021612Y-354466388D01*
X450040554Y-354481934D01*
X450062165Y-354493485D01*
X450085614Y-354500598D01*
X450114804Y-354502908D01*
X450243989Y-354497939D01*
X450225965Y-356823000D01*
X449567784Y-356823000D01*
X449501351Y-356814696D01*
X449418745Y-356796339D01*
X449304965Y-356767894D01*
X449230298Y-356743005D01*
X449046154Y-356641726D01*
X448958988Y-356580709D01*
X448806949Y-356438173D01*
X447052403Y-354683627D01*
X446958076Y-354570434D01*
X446904667Y-354499222D01*
X446870254Y-354439000D01*
X446833070Y-354364632D01*
X446798636Y-354287156D01*
X446791268Y-354257683D01*
X446789472Y-354251239D01*
X446752157Y-354129966D01*
X446733819Y-354010765D01*
X446725000Y-353940216D01*
X446725000Y-350572454D01*
X446734198Y-350443685D01*
X446770619Y-350243369D01*
X446833220Y-350091338D01*
X446904424Y-349957830D01*
X447032655Y-349802121D01*
X447798388Y-349036388D01*
X447801025Y-349033671D01*
X447951755Y-348873520D01*
X448121418Y-348757435D01*
X448305533Y-348674583D01*
X448466617Y-348620889D01*
X448636560Y-348603000D01*
X451765499Y-348603000D01*
X451774499Y-350853000D01*
G37*
D15*
X303547987Y-272582988D02*
X303955647Y-272592694D01*
X304175107Y-272638415D01*
X304309688Y-272688883D01*
X304558679Y-272873321D01*
X305041759Y-273346542D01*
X305841064Y-274155838D01*
X305841612Y-274156388D01*
X306185665Y-274500441D01*
X306330258Y-274690219D01*
X306437962Y-274959479D01*
X306475000Y-275255784D01*
X306475000Y-283604759D01*
X306420391Y-283859602D01*
X306331728Y-284063527D01*
X306166238Y-284274986D01*
X304908696Y-285532528D01*
X304746627Y-285649578D01*
X304631501Y-285702713D01*
X304438112Y-285776385D01*
X304260677Y-285803000D01*
X300995000Y-285803000D01*
X300995000Y-283553000D01*
X303650000Y-283553000D01*
X303674386Y-283550598D01*
X303697835Y-283543485D01*
X303719446Y-283531934D01*
X303738388Y-283516388D01*
X304188388Y-283066388D01*
X304203934Y-283047446D01*
X304215485Y-283025835D01*
X304222598Y-283002386D01*
X304225000Y-282978000D01*
X304225000Y-275768000D01*
X304222598Y-275743614D01*
X304215485Y-275720165D01*
X304203934Y-275698554D01*
X304188388Y-275679612D01*
X303378388Y-274869612D01*
X303359446Y-274854066D01*
X303337835Y-274842515D01*
X303314386Y-274835402D01*
X303291404Y-274833008D01*
X302522069Y-274824364D01*
X302468061Y-272574063D01*
X303547987Y-272582988D01*
D14*
G36*
X303547987Y-272582988D02*
G01*
X303955647Y-272592694D01*
X304175107Y-272638415D01*
X304309688Y-272688883D01*
X304558679Y-272873321D01*
X305041759Y-273346542D01*
X305841064Y-274155838D01*
X305841612Y-274156388D01*
X306185665Y-274500441D01*
X306330258Y-274690219D01*
X306437962Y-274959479D01*
X306475000Y-275255784D01*
X306475000Y-283604759D01*
X306420391Y-283859602D01*
X306331728Y-284063527D01*
X306166238Y-284274986D01*
X304908696Y-285532528D01*
X304746627Y-285649578D01*
X304631501Y-285702713D01*
X304438112Y-285776385D01*
X304260677Y-285803000D01*
X300995000Y-285803000D01*
X300995000Y-283553000D01*
X303650000Y-283553000D01*
X303674386Y-283550598D01*
X303697835Y-283543485D01*
X303719446Y-283531934D01*
X303738388Y-283516388D01*
X304188388Y-283066388D01*
X304203934Y-283047446D01*
X304215485Y-283025835D01*
X304222598Y-283002386D01*
X304225000Y-282978000D01*
X304225000Y-275768000D01*
X304222598Y-275743614D01*
X304215485Y-275720165D01*
X304203934Y-275698554D01*
X304188388Y-275679612D01*
X303378388Y-274869612D01*
X303359446Y-274854066D01*
X303337835Y-274842515D01*
X303314386Y-274835402D01*
X303291404Y-274833008D01*
X302522069Y-274824364D01*
X302468061Y-272574063D01*
X303547987Y-272582988D01*
G37*
D15*
X319557987Y-272592988D02*
X319965647Y-272602694D01*
X320185107Y-272648415D01*
X320319688Y-272698883D01*
X320568679Y-272883321D01*
X321051759Y-273356542D01*
X321851064Y-274165838D01*
X321851612Y-274166388D01*
X322195665Y-274510441D01*
X322340258Y-274700219D01*
X322447962Y-274969479D01*
X322485000Y-275265784D01*
X322485000Y-283614759D01*
X322430391Y-283869602D01*
X322341728Y-284073527D01*
X322176238Y-284284986D01*
X320918696Y-285542528D01*
X320756627Y-285659578D01*
X320641501Y-285712713D01*
X320448112Y-285786385D01*
X320270677Y-285813000D01*
X317005000Y-285813000D01*
X317005000Y-283563000D01*
X319660000Y-283563000D01*
X319684386Y-283560598D01*
X319707835Y-283553485D01*
X319729446Y-283541934D01*
X319748388Y-283526388D01*
X320198388Y-283076388D01*
X320213934Y-283057446D01*
X320225485Y-283035835D01*
X320232598Y-283012386D01*
X320235000Y-282988000D01*
X320235000Y-275778000D01*
X320232598Y-275753614D01*
X320225485Y-275730165D01*
X320213934Y-275708554D01*
X320198388Y-275689612D01*
X319388388Y-274879612D01*
X319369446Y-274864066D01*
X319347835Y-274852515D01*
X319324386Y-274845402D01*
X319301404Y-274843008D01*
X318532069Y-274834364D01*
X318478061Y-272584063D01*
X319557987Y-272592988D01*
D14*
G36*
X319557987Y-272592988D02*
G01*
X319965647Y-272602694D01*
X320185107Y-272648415D01*
X320319688Y-272698883D01*
X320568679Y-272883321D01*
X321051759Y-273356542D01*
X321851064Y-274165838D01*
X321851612Y-274166388D01*
X322195665Y-274510441D01*
X322340258Y-274700219D01*
X322447962Y-274969479D01*
X322485000Y-275265784D01*
X322485000Y-283614759D01*
X322430391Y-283869602D01*
X322341728Y-284073527D01*
X322176238Y-284284986D01*
X320918696Y-285542528D01*
X320756627Y-285659578D01*
X320641501Y-285712713D01*
X320448112Y-285786385D01*
X320270677Y-285813000D01*
X317005000Y-285813000D01*
X317005000Y-283563000D01*
X319660000Y-283563000D01*
X319684386Y-283560598D01*
X319707835Y-283553485D01*
X319729446Y-283541934D01*
X319748388Y-283526388D01*
X320198388Y-283076388D01*
X320213934Y-283057446D01*
X320225485Y-283035835D01*
X320232598Y-283012386D01*
X320235000Y-282988000D01*
X320235000Y-275778000D01*
X320232598Y-275753614D01*
X320225485Y-275730165D01*
X320213934Y-275708554D01*
X320198388Y-275689612D01*
X319388388Y-274879612D01*
X319369446Y-274864066D01*
X319347835Y-274852515D01*
X319324386Y-274845402D01*
X319301404Y-274843008D01*
X318532069Y-274834364D01*
X318478061Y-272584063D01*
X319557987Y-272592988D01*
G37*
D15*
X336567987Y-272612988D02*
X336975647Y-272622694D01*
X337195107Y-272668415D01*
X337329688Y-272718883D01*
X337578679Y-272903321D01*
X338061759Y-273376542D01*
X338861064Y-274185838D01*
X338861612Y-274186388D01*
X339205665Y-274530441D01*
X339350258Y-274720219D01*
X339457962Y-274989479D01*
X339495000Y-275285784D01*
X339495000Y-283634759D01*
X339440391Y-283889602D01*
X339351728Y-284093527D01*
X339186238Y-284304986D01*
X337928696Y-285562528D01*
X337766627Y-285679578D01*
X337651501Y-285732713D01*
X337458112Y-285806385D01*
X337280677Y-285833000D01*
X334015000Y-285833000D01*
X334015000Y-283583000D01*
X336670000Y-283583000D01*
X336694386Y-283580598D01*
X336717835Y-283573485D01*
X336739446Y-283561934D01*
X336758388Y-283546388D01*
X337208388Y-283096388D01*
X337223934Y-283077446D01*
X337235485Y-283055835D01*
X337242598Y-283032386D01*
X337245000Y-283008000D01*
X337245000Y-275798000D01*
X337242598Y-275773614D01*
X337235485Y-275750165D01*
X337223934Y-275728554D01*
X337208388Y-275709612D01*
X336398388Y-274899612D01*
X336379446Y-274884066D01*
X336357835Y-274872515D01*
X336334386Y-274865402D01*
X336311404Y-274863008D01*
X335542069Y-274854364D01*
X335488061Y-272604063D01*
X336567987Y-272612988D01*
D14*
G36*
X336567987Y-272612988D02*
G01*
X336975647Y-272622694D01*
X337195107Y-272668415D01*
X337329688Y-272718883D01*
X337578679Y-272903321D01*
X338061759Y-273376542D01*
X338861064Y-274185838D01*
X338861612Y-274186388D01*
X339205665Y-274530441D01*
X339350258Y-274720219D01*
X339457962Y-274989479D01*
X339495000Y-275285784D01*
X339495000Y-283634759D01*
X339440391Y-283889602D01*
X339351728Y-284093527D01*
X339186238Y-284304986D01*
X337928696Y-285562528D01*
X337766627Y-285679578D01*
X337651501Y-285732713D01*
X337458112Y-285806385D01*
X337280677Y-285833000D01*
X334015000Y-285833000D01*
X334015000Y-283583000D01*
X336670000Y-283583000D01*
X336694386Y-283580598D01*
X336717835Y-283573485D01*
X336739446Y-283561934D01*
X336758388Y-283546388D01*
X337208388Y-283096388D01*
X337223934Y-283077446D01*
X337235485Y-283055835D01*
X337242598Y-283032386D01*
X337245000Y-283008000D01*
X337245000Y-275798000D01*
X337242598Y-275773614D01*
X337235485Y-275750165D01*
X337223934Y-275728554D01*
X337208388Y-275709612D01*
X336398388Y-274899612D01*
X336379446Y-274884066D01*
X336357835Y-274872515D01*
X336334386Y-274865402D01*
X336311404Y-274863008D01*
X335542069Y-274854364D01*
X335488061Y-272604063D01*
X336567987Y-272612988D01*
G37*
D15*
X352597987Y-272602988D02*
X353005647Y-272612694D01*
X353225107Y-272658415D01*
X353359688Y-272708883D01*
X353608679Y-272893321D01*
X354091759Y-273366542D01*
X354891064Y-274175838D01*
X354891612Y-274176388D01*
X355235665Y-274520441D01*
X355380258Y-274710219D01*
X355487962Y-274979479D01*
X355525000Y-275275784D01*
X355525000Y-283624759D01*
X355470391Y-283879602D01*
X355381728Y-284083527D01*
X355216238Y-284294986D01*
X353958696Y-285552528D01*
X353796627Y-285669578D01*
X353681501Y-285722713D01*
X353488112Y-285796385D01*
X353310677Y-285823000D01*
X350045000Y-285823000D01*
X350045000Y-283573000D01*
X352700000Y-283573000D01*
X352724386Y-283570598D01*
X352747835Y-283563485D01*
X352769446Y-283551934D01*
X352788388Y-283536388D01*
X353238388Y-283086388D01*
X353253934Y-283067446D01*
X353265485Y-283045835D01*
X353272598Y-283022386D01*
X353275000Y-282998000D01*
X353275000Y-275788000D01*
X353272598Y-275763614D01*
X353265485Y-275740165D01*
X353253934Y-275718554D01*
X353238388Y-275699612D01*
X352428388Y-274889612D01*
X352409446Y-274874066D01*
X352387835Y-274862515D01*
X352364386Y-274855402D01*
X352341404Y-274853008D01*
X351572069Y-274844364D01*
X351518061Y-272594063D01*
X352597987Y-272602988D01*
D14*
G36*
X352597987Y-272602988D02*
G01*
X353005647Y-272612694D01*
X353225107Y-272658415D01*
X353359688Y-272708883D01*
X353608679Y-272893321D01*
X354091759Y-273366542D01*
X354891064Y-274175838D01*
X354891612Y-274176388D01*
X355235665Y-274520441D01*
X355380258Y-274710219D01*
X355487962Y-274979479D01*
X355525000Y-275275784D01*
X355525000Y-283624759D01*
X355470391Y-283879602D01*
X355381728Y-284083527D01*
X355216238Y-284294986D01*
X353958696Y-285552528D01*
X353796627Y-285669578D01*
X353681501Y-285722713D01*
X353488112Y-285796385D01*
X353310677Y-285823000D01*
X350045000Y-285823000D01*
X350045000Y-283573000D01*
X352700000Y-283573000D01*
X352724386Y-283570598D01*
X352747835Y-283563485D01*
X352769446Y-283551934D01*
X352788388Y-283536388D01*
X353238388Y-283086388D01*
X353253934Y-283067446D01*
X353265485Y-283045835D01*
X353272598Y-283022386D01*
X353275000Y-282998000D01*
X353275000Y-275788000D01*
X353272598Y-275763614D01*
X353265485Y-275740165D01*
X353253934Y-275718554D01*
X353238388Y-275699612D01*
X352428388Y-274889612D01*
X352409446Y-274874066D01*
X352387835Y-274862515D01*
X352364386Y-274855402D01*
X352341404Y-274853008D01*
X351572069Y-274844364D01*
X351518061Y-272594063D01*
X352597987Y-272602988D01*
G37*
D15*
X369577987Y-272612988D02*
X369985647Y-272622694D01*
X370205107Y-272668415D01*
X370339688Y-272718883D01*
X370588679Y-272903321D01*
X371071759Y-273376542D01*
X371871064Y-274185838D01*
X371871612Y-274186388D01*
X372215665Y-274530441D01*
X372360258Y-274720219D01*
X372467962Y-274989479D01*
X372505000Y-275285784D01*
X372505000Y-283634759D01*
X372450391Y-283889602D01*
X372361728Y-284093527D01*
X372196238Y-284304986D01*
X370938696Y-285562528D01*
X370776627Y-285679578D01*
X370661501Y-285732713D01*
X370468112Y-285806385D01*
X370290677Y-285833000D01*
X367025000Y-285833000D01*
X367025000Y-283583000D01*
X369680000Y-283583000D01*
X369704386Y-283580598D01*
X369727835Y-283573485D01*
X369749446Y-283561934D01*
X369768388Y-283546388D01*
X370218388Y-283096388D01*
X370233934Y-283077446D01*
X370245485Y-283055835D01*
X370252598Y-283032386D01*
X370255000Y-283008000D01*
X370255000Y-275798000D01*
X370252598Y-275773614D01*
X370245485Y-275750165D01*
X370233934Y-275728554D01*
X370218388Y-275709612D01*
X369408388Y-274899612D01*
X369389446Y-274884066D01*
X369367835Y-274872515D01*
X369344386Y-274865402D01*
X369321404Y-274863008D01*
X368552069Y-274854364D01*
X368498061Y-272604063D01*
X369577987Y-272612988D01*
D14*
G36*
X369577987Y-272612988D02*
G01*
X369985647Y-272622694D01*
X370205107Y-272668415D01*
X370339688Y-272718883D01*
X370588679Y-272903321D01*
X371071759Y-273376542D01*
X371871064Y-274185838D01*
X371871612Y-274186388D01*
X372215665Y-274530441D01*
X372360258Y-274720219D01*
X372467962Y-274989479D01*
X372505000Y-275285784D01*
X372505000Y-283634759D01*
X372450391Y-283889602D01*
X372361728Y-284093527D01*
X372196238Y-284304986D01*
X370938696Y-285562528D01*
X370776627Y-285679578D01*
X370661501Y-285732713D01*
X370468112Y-285806385D01*
X370290677Y-285833000D01*
X367025000Y-285833000D01*
X367025000Y-283583000D01*
X369680000Y-283583000D01*
X369704386Y-283580598D01*
X369727835Y-283573485D01*
X369749446Y-283561934D01*
X369768388Y-283546388D01*
X370218388Y-283096388D01*
X370233934Y-283077446D01*
X370245485Y-283055835D01*
X370252598Y-283032386D01*
X370255000Y-283008000D01*
X370255000Y-275798000D01*
X370252598Y-275773614D01*
X370245485Y-275750165D01*
X370233934Y-275728554D01*
X370218388Y-275709612D01*
X369408388Y-274899612D01*
X369389446Y-274884066D01*
X369367835Y-274872515D01*
X369344386Y-274865402D01*
X369321404Y-274863008D01*
X368552069Y-274854364D01*
X368498061Y-272604063D01*
X369577987Y-272612988D01*
G37*
D15*
X385607987Y-272592988D02*
X386015647Y-272602694D01*
X386235107Y-272648415D01*
X386369688Y-272698883D01*
X386618679Y-272883321D01*
X387101759Y-273356542D01*
X387901064Y-274165838D01*
X387901612Y-274166388D01*
X388245665Y-274510441D01*
X388390258Y-274700219D01*
X388497962Y-274969479D01*
X388535000Y-275265784D01*
X388535000Y-283614759D01*
X388480391Y-283869602D01*
X388391728Y-284073527D01*
X388226238Y-284284986D01*
X386968696Y-285542528D01*
X386806627Y-285659578D01*
X386691501Y-285712713D01*
X386498112Y-285786385D01*
X386320677Y-285813000D01*
X383055000Y-285813000D01*
X383055000Y-283563000D01*
X385710000Y-283563000D01*
X385734386Y-283560598D01*
X385757835Y-283553485D01*
X385779446Y-283541934D01*
X385798388Y-283526388D01*
X386248388Y-283076388D01*
X386263934Y-283057446D01*
X386275485Y-283035835D01*
X386282598Y-283012386D01*
X386285000Y-282988000D01*
X386285000Y-275778000D01*
X386282598Y-275753614D01*
X386275485Y-275730165D01*
X386263934Y-275708554D01*
X386248388Y-275689612D01*
X385438388Y-274879612D01*
X385419446Y-274864066D01*
X385397835Y-274852515D01*
X385374386Y-274845402D01*
X385351404Y-274843008D01*
X384582069Y-274834364D01*
X384528061Y-272584063D01*
X385607987Y-272592988D01*
D14*
G36*
X385607987Y-272592988D02*
G01*
X386015647Y-272602694D01*
X386235107Y-272648415D01*
X386369688Y-272698883D01*
X386618679Y-272883321D01*
X387101759Y-273356542D01*
X387901064Y-274165838D01*
X387901612Y-274166388D01*
X388245665Y-274510441D01*
X388390258Y-274700219D01*
X388497962Y-274969479D01*
X388535000Y-275265784D01*
X388535000Y-283614759D01*
X388480391Y-283869602D01*
X388391728Y-284073527D01*
X388226238Y-284284986D01*
X386968696Y-285542528D01*
X386806627Y-285659578D01*
X386691501Y-285712713D01*
X386498112Y-285786385D01*
X386320677Y-285813000D01*
X383055000Y-285813000D01*
X383055000Y-283563000D01*
X385710000Y-283563000D01*
X385734386Y-283560598D01*
X385757835Y-283553485D01*
X385779446Y-283541934D01*
X385798388Y-283526388D01*
X386248388Y-283076388D01*
X386263934Y-283057446D01*
X386275485Y-283035835D01*
X386282598Y-283012386D01*
X386285000Y-282988000D01*
X386285000Y-275778000D01*
X386282598Y-275753614D01*
X386275485Y-275730165D01*
X386263934Y-275708554D01*
X386248388Y-275689612D01*
X385438388Y-274879612D01*
X385419446Y-274864066D01*
X385397835Y-274852515D01*
X385374386Y-274845402D01*
X385351404Y-274843008D01*
X384582069Y-274834364D01*
X384528061Y-272584063D01*
X385607987Y-272592988D01*
G37*
D15*
X402547987Y-272622988D02*
X402955647Y-272632694D01*
X403175107Y-272678415D01*
X403309688Y-272728883D01*
X403558679Y-272913321D01*
X404041759Y-273386542D01*
X404841064Y-274195838D01*
X404841612Y-274196388D01*
X405185665Y-274540441D01*
X405330258Y-274730219D01*
X405437962Y-274999479D01*
X405475000Y-275295784D01*
X405475000Y-283644759D01*
X405420391Y-283899602D01*
X405331728Y-284103527D01*
X405166238Y-284314986D01*
X403908696Y-285572528D01*
X403746627Y-285689578D01*
X403631501Y-285742713D01*
X403438112Y-285816385D01*
X403260677Y-285843000D01*
X399995000Y-285843000D01*
X399995000Y-283593000D01*
X402650000Y-283593000D01*
X402674386Y-283590598D01*
X402697835Y-283583485D01*
X402719446Y-283571934D01*
X402738388Y-283556388D01*
X403188388Y-283106388D01*
X403203934Y-283087446D01*
X403215485Y-283065835D01*
X403222598Y-283042386D01*
X403225000Y-283018000D01*
X403225000Y-275808000D01*
X403222598Y-275783614D01*
X403215485Y-275760165D01*
X403203934Y-275738554D01*
X403188388Y-275719612D01*
X402378388Y-274909612D01*
X402359446Y-274894066D01*
X402337835Y-274882515D01*
X402314386Y-274875402D01*
X402291404Y-274873008D01*
X401522069Y-274864364D01*
X401468061Y-272614063D01*
X402547987Y-272622988D01*
D14*
G36*
X402547987Y-272622988D02*
G01*
X402955647Y-272632694D01*
X403175107Y-272678415D01*
X403309688Y-272728883D01*
X403558679Y-272913321D01*
X404041759Y-273386542D01*
X404841064Y-274195838D01*
X404841612Y-274196388D01*
X405185665Y-274540441D01*
X405330258Y-274730219D01*
X405437962Y-274999479D01*
X405475000Y-275295784D01*
X405475000Y-283644759D01*
X405420391Y-283899602D01*
X405331728Y-284103527D01*
X405166238Y-284314986D01*
X403908696Y-285572528D01*
X403746627Y-285689578D01*
X403631501Y-285742713D01*
X403438112Y-285816385D01*
X403260677Y-285843000D01*
X399995000Y-285843000D01*
X399995000Y-283593000D01*
X402650000Y-283593000D01*
X402674386Y-283590598D01*
X402697835Y-283583485D01*
X402719446Y-283571934D01*
X402738388Y-283556388D01*
X403188388Y-283106388D01*
X403203934Y-283087446D01*
X403215485Y-283065835D01*
X403222598Y-283042386D01*
X403225000Y-283018000D01*
X403225000Y-275808000D01*
X403222598Y-275783614D01*
X403215485Y-275760165D01*
X403203934Y-275738554D01*
X403188388Y-275719612D01*
X402378388Y-274909612D01*
X402359446Y-274894066D01*
X402337835Y-274882515D01*
X402314386Y-274875402D01*
X402291404Y-274873008D01*
X401522069Y-274864364D01*
X401468061Y-272614063D01*
X402547987Y-272622988D01*
G37*
D15*
X418587987Y-272602988D02*
X418995647Y-272612694D01*
X419215107Y-272658415D01*
X419349688Y-272708883D01*
X419598679Y-272893321D01*
X420081759Y-273366542D01*
X420881064Y-274175838D01*
X420881612Y-274176388D01*
X421225665Y-274520441D01*
X421370258Y-274710219D01*
X421477962Y-274979479D01*
X421515000Y-275275784D01*
X421515000Y-283624759D01*
X421460391Y-283879602D01*
X421371728Y-284083527D01*
X421206238Y-284294986D01*
X419948696Y-285552528D01*
X419786627Y-285669578D01*
X419671501Y-285722713D01*
X419478112Y-285796385D01*
X419300677Y-285823000D01*
X416035000Y-285823000D01*
X416035000Y-283573000D01*
X418690000Y-283573000D01*
X418714386Y-283570598D01*
X418737835Y-283563485D01*
X418759446Y-283551934D01*
X418778388Y-283536388D01*
X419228388Y-283086388D01*
X419243934Y-283067446D01*
X419255485Y-283045835D01*
X419262598Y-283022386D01*
X419265000Y-282998000D01*
X419265000Y-275788000D01*
X419262598Y-275763614D01*
X419255485Y-275740165D01*
X419243934Y-275718554D01*
X419228388Y-275699612D01*
X418418388Y-274889612D01*
X418399446Y-274874066D01*
X418377835Y-274862515D01*
X418354386Y-274855402D01*
X418331404Y-274853008D01*
X417562069Y-274844364D01*
X417508061Y-272594063D01*
X418587987Y-272602988D01*
D14*
G36*
X418587987Y-272602988D02*
G01*
X418995647Y-272612694D01*
X419215107Y-272658415D01*
X419349688Y-272708883D01*
X419598679Y-272893321D01*
X420081759Y-273366542D01*
X420881064Y-274175838D01*
X420881612Y-274176388D01*
X421225665Y-274520441D01*
X421370258Y-274710219D01*
X421477962Y-274979479D01*
X421515000Y-275275784D01*
X421515000Y-283624759D01*
X421460391Y-283879602D01*
X421371728Y-284083527D01*
X421206238Y-284294986D01*
X419948696Y-285552528D01*
X419786627Y-285669578D01*
X419671501Y-285722713D01*
X419478112Y-285796385D01*
X419300677Y-285823000D01*
X416035000Y-285823000D01*
X416035000Y-283573000D01*
X418690000Y-283573000D01*
X418714386Y-283570598D01*
X418737835Y-283563485D01*
X418759446Y-283551934D01*
X418778388Y-283536388D01*
X419228388Y-283086388D01*
X419243934Y-283067446D01*
X419255485Y-283045835D01*
X419262598Y-283022386D01*
X419265000Y-282998000D01*
X419265000Y-275788000D01*
X419262598Y-275763614D01*
X419255485Y-275740165D01*
X419243934Y-275718554D01*
X419228388Y-275699612D01*
X418418388Y-274889612D01*
X418399446Y-274874066D01*
X418377835Y-274862515D01*
X418354386Y-274855402D01*
X418331404Y-274853008D01*
X417562069Y-274844364D01*
X417508061Y-272594063D01*
X418587987Y-272602988D01*
G37*
D15*
X435577987Y-272612988D02*
X435985647Y-272622694D01*
X436205107Y-272668415D01*
X436339688Y-272718883D01*
X436588679Y-272903321D01*
X437071759Y-273376542D01*
X437871064Y-274185838D01*
X437871612Y-274186388D01*
X438215665Y-274530441D01*
X438360258Y-274720219D01*
X438467962Y-274989479D01*
X438505000Y-275285784D01*
X438505000Y-283634759D01*
X438450391Y-283889602D01*
X438361728Y-284093527D01*
X438196238Y-284304986D01*
X436938696Y-285562528D01*
X436776627Y-285679578D01*
X436661501Y-285732713D01*
X436468112Y-285806385D01*
X436290677Y-285833000D01*
X433025000Y-285833000D01*
X433025000Y-283583000D01*
X435680000Y-283583000D01*
X435704386Y-283580598D01*
X435727835Y-283573485D01*
X435749446Y-283561934D01*
X435768388Y-283546388D01*
X436218388Y-283096388D01*
X436233934Y-283077446D01*
X436245485Y-283055835D01*
X436252598Y-283032386D01*
X436255000Y-283008000D01*
X436255000Y-275798000D01*
X436252598Y-275773614D01*
X436245485Y-275750165D01*
X436233934Y-275728554D01*
X436218388Y-275709612D01*
X435408388Y-274899612D01*
X435389446Y-274884066D01*
X435367835Y-274872515D01*
X435344386Y-274865402D01*
X435321404Y-274863008D01*
X434552069Y-274854364D01*
X434498061Y-272604063D01*
X435577987Y-272612988D01*
D14*
G36*
X435577987Y-272612988D02*
G01*
X435985647Y-272622694D01*
X436205107Y-272668415D01*
X436339688Y-272718883D01*
X436588679Y-272903321D01*
X437071759Y-273376542D01*
X437871064Y-274185838D01*
X437871612Y-274186388D01*
X438215665Y-274530441D01*
X438360258Y-274720219D01*
X438467962Y-274989479D01*
X438505000Y-275285784D01*
X438505000Y-283634759D01*
X438450391Y-283889602D01*
X438361728Y-284093527D01*
X438196238Y-284304986D01*
X436938696Y-285562528D01*
X436776627Y-285679578D01*
X436661501Y-285732713D01*
X436468112Y-285806385D01*
X436290677Y-285833000D01*
X433025000Y-285833000D01*
X433025000Y-283583000D01*
X435680000Y-283583000D01*
X435704386Y-283580598D01*
X435727835Y-283573485D01*
X435749446Y-283561934D01*
X435768388Y-283546388D01*
X436218388Y-283096388D01*
X436233934Y-283077446D01*
X436245485Y-283055835D01*
X436252598Y-283032386D01*
X436255000Y-283008000D01*
X436255000Y-275798000D01*
X436252598Y-275773614D01*
X436245485Y-275750165D01*
X436233934Y-275728554D01*
X436218388Y-275709612D01*
X435408388Y-274899612D01*
X435389446Y-274884066D01*
X435367835Y-274872515D01*
X435344386Y-274865402D01*
X435321404Y-274863008D01*
X434552069Y-274854364D01*
X434498061Y-272604063D01*
X435577987Y-272612988D01*
G37*
D15*
X451667987Y-272582988D02*
X452075647Y-272592694D01*
X452295107Y-272638415D01*
X452429688Y-272688883D01*
X452678679Y-272873321D01*
X453161759Y-273346542D01*
X453961064Y-274155838D01*
X453961612Y-274156388D01*
X454305665Y-274500441D01*
X454450258Y-274690219D01*
X454557962Y-274959479D01*
X454595000Y-275255784D01*
X454595000Y-283604759D01*
X454540391Y-283859602D01*
X454451728Y-284063527D01*
X454286238Y-284274986D01*
X453028696Y-285532528D01*
X452866627Y-285649578D01*
X452751501Y-285702713D01*
X452558112Y-285776385D01*
X452380677Y-285803000D01*
X449115000Y-285803000D01*
X449115000Y-283553000D01*
X451770000Y-283553000D01*
X451794386Y-283550598D01*
X451817835Y-283543485D01*
X451839446Y-283531934D01*
X451858388Y-283516388D01*
X452308388Y-283066388D01*
X452323934Y-283047446D01*
X452335485Y-283025835D01*
X452342598Y-283002386D01*
X452345000Y-282978000D01*
X452345000Y-275768000D01*
X452342598Y-275743614D01*
X452335485Y-275720165D01*
X452323934Y-275698554D01*
X452308388Y-275679612D01*
X451498388Y-274869612D01*
X451479446Y-274854066D01*
X451457835Y-274842515D01*
X451434386Y-274835402D01*
X451411404Y-274833008D01*
X450642069Y-274824364D01*
X450588061Y-272574063D01*
X451667987Y-272582988D01*
D14*
G36*
X451667987Y-272582988D02*
G01*
X452075647Y-272592694D01*
X452295107Y-272638415D01*
X452429688Y-272688883D01*
X452678679Y-272873321D01*
X453161759Y-273346542D01*
X453961064Y-274155838D01*
X453961612Y-274156388D01*
X454305665Y-274500441D01*
X454450258Y-274690219D01*
X454557962Y-274959479D01*
X454595000Y-275255784D01*
X454595000Y-283604759D01*
X454540391Y-283859602D01*
X454451728Y-284063527D01*
X454286238Y-284274986D01*
X453028696Y-285532528D01*
X452866627Y-285649578D01*
X452751501Y-285702713D01*
X452558112Y-285776385D01*
X452380677Y-285803000D01*
X449115000Y-285803000D01*
X449115000Y-283553000D01*
X451770000Y-283553000D01*
X451794386Y-283550598D01*
X451817835Y-283543485D01*
X451839446Y-283531934D01*
X451858388Y-283516388D01*
X452308388Y-283066388D01*
X452323934Y-283047446D01*
X452335485Y-283025835D01*
X452342598Y-283002386D01*
X452345000Y-282978000D01*
X452345000Y-275768000D01*
X452342598Y-275743614D01*
X452335485Y-275720165D01*
X452323934Y-275698554D01*
X452308388Y-275679612D01*
X451498388Y-274869612D01*
X451479446Y-274854066D01*
X451457835Y-274842515D01*
X451434386Y-274835402D01*
X451411404Y-274833008D01*
X450642069Y-274824364D01*
X450588061Y-272574063D01*
X451667987Y-272582988D01*
G37*
D15*
X295778649Y-272571304D02*
X295861255Y-272589661D01*
X295975035Y-272618106D01*
X296049702Y-272642995D01*
X296233846Y-272744274D01*
X296321012Y-272805291D01*
X296473051Y-272947827D01*
X298227597Y-274702373D01*
X298321925Y-274815566D01*
X298375333Y-274886778D01*
X298409746Y-274947000D01*
X298446930Y-275021368D01*
X298481364Y-275098844D01*
X298488732Y-275128317D01*
X298490528Y-275134761D01*
X298527843Y-275256034D01*
X298546181Y-275375235D01*
X298555000Y-275445784D01*
X298555000Y-278813546D01*
X298545802Y-278942315D01*
X298509381Y-279142631D01*
X298446780Y-279294662D01*
X298375576Y-279428170D01*
X298247345Y-279583879D01*
X297481612Y-280349612D01*
X297478975Y-280352329D01*
X297328245Y-280512480D01*
X297158582Y-280628565D01*
X296974467Y-280711417D01*
X296813383Y-280765111D01*
X296643441Y-280783000D01*
X293514501Y-280783000D01*
X293505501Y-278533000D01*
X296070000Y-278533000D01*
X296094386Y-278530598D01*
X296117835Y-278523485D01*
X296139446Y-278511934D01*
X296158388Y-278496388D01*
X296268388Y-278386388D01*
X296283934Y-278367446D01*
X296295485Y-278345835D01*
X296302598Y-278322386D01*
X296305000Y-278298000D01*
X296305000Y-276018000D01*
X296302598Y-275993614D01*
X296295485Y-275970165D01*
X296283934Y-275948554D01*
X296268388Y-275929612D01*
X295258388Y-274919612D01*
X295239446Y-274904066D01*
X295217835Y-274892515D01*
X295194386Y-274885402D01*
X295165196Y-274883092D01*
X295036011Y-274888061D01*
X295054035Y-272563000D01*
X295712216Y-272563000D01*
X295778649Y-272571304D01*
D14*
G36*
X295778649Y-272571304D02*
G01*
X295861255Y-272589661D01*
X295975035Y-272618106D01*
X296049702Y-272642995D01*
X296233846Y-272744274D01*
X296321012Y-272805291D01*
X296473051Y-272947827D01*
X298227597Y-274702373D01*
X298321925Y-274815566D01*
X298375333Y-274886778D01*
X298409746Y-274947000D01*
X298446930Y-275021368D01*
X298481364Y-275098844D01*
X298488732Y-275128317D01*
X298490528Y-275134761D01*
X298527843Y-275256034D01*
X298546181Y-275375235D01*
X298555000Y-275445784D01*
X298555000Y-278813546D01*
X298545802Y-278942315D01*
X298509381Y-279142631D01*
X298446780Y-279294662D01*
X298375576Y-279428170D01*
X298247345Y-279583879D01*
X297481612Y-280349612D01*
X297478975Y-280352329D01*
X297328245Y-280512480D01*
X297158582Y-280628565D01*
X296974467Y-280711417D01*
X296813383Y-280765111D01*
X296643441Y-280783000D01*
X293514501Y-280783000D01*
X293505501Y-278533000D01*
X296070000Y-278533000D01*
X296094386Y-278530598D01*
X296117835Y-278523485D01*
X296139446Y-278511934D01*
X296158388Y-278496388D01*
X296268388Y-278386388D01*
X296283934Y-278367446D01*
X296295485Y-278345835D01*
X296302598Y-278322386D01*
X296305000Y-278298000D01*
X296305000Y-276018000D01*
X296302598Y-275993614D01*
X296295485Y-275970165D01*
X296283934Y-275948554D01*
X296268388Y-275929612D01*
X295258388Y-274919612D01*
X295239446Y-274904066D01*
X295217835Y-274892515D01*
X295194386Y-274885402D01*
X295165196Y-274883092D01*
X295036011Y-274888061D01*
X295054035Y-272563000D01*
X295712216Y-272563000D01*
X295778649Y-272571304D01*
G37*
D15*
X311848649Y-272571304D02*
X311931255Y-272589661D01*
X312045035Y-272618106D01*
X312119702Y-272642995D01*
X312303846Y-272744274D01*
X312391012Y-272805291D01*
X312543051Y-272947827D01*
X314297597Y-274702373D01*
X314391925Y-274815566D01*
X314445333Y-274886778D01*
X314479746Y-274947000D01*
X314516930Y-275021368D01*
X314551364Y-275098844D01*
X314558732Y-275128317D01*
X314560528Y-275134761D01*
X314597843Y-275256034D01*
X314616181Y-275375235D01*
X314625000Y-275445784D01*
X314625000Y-278813546D01*
X314615802Y-278942315D01*
X314579381Y-279142631D01*
X314516780Y-279294662D01*
X314445576Y-279428170D01*
X314317345Y-279583879D01*
X313551612Y-280349612D01*
X313548975Y-280352329D01*
X313398245Y-280512480D01*
X313228582Y-280628565D01*
X313044467Y-280711417D01*
X312883383Y-280765111D01*
X312713441Y-280783000D01*
X309584501Y-280783000D01*
X309575501Y-278533000D01*
X312140000Y-278533000D01*
X312164386Y-278530598D01*
X312187835Y-278523485D01*
X312209446Y-278511934D01*
X312228388Y-278496388D01*
X312338388Y-278386388D01*
X312353934Y-278367446D01*
X312365485Y-278345835D01*
X312372598Y-278322386D01*
X312375000Y-278298000D01*
X312375000Y-276018000D01*
X312372598Y-275993614D01*
X312365485Y-275970165D01*
X312353934Y-275948554D01*
X312338388Y-275929612D01*
X311328388Y-274919612D01*
X311309446Y-274904066D01*
X311287835Y-274892515D01*
X311264386Y-274885402D01*
X311235196Y-274883092D01*
X311106011Y-274888061D01*
X311124035Y-272563000D01*
X311782216Y-272563000D01*
X311848649Y-272571304D01*
D14*
G36*
X311848649Y-272571304D02*
G01*
X311931255Y-272589661D01*
X312045035Y-272618106D01*
X312119702Y-272642995D01*
X312303846Y-272744274D01*
X312391012Y-272805291D01*
X312543051Y-272947827D01*
X314297597Y-274702373D01*
X314391925Y-274815566D01*
X314445333Y-274886778D01*
X314479746Y-274947000D01*
X314516930Y-275021368D01*
X314551364Y-275098844D01*
X314558732Y-275128317D01*
X314560528Y-275134761D01*
X314597843Y-275256034D01*
X314616181Y-275375235D01*
X314625000Y-275445784D01*
X314625000Y-278813546D01*
X314615802Y-278942315D01*
X314579381Y-279142631D01*
X314516780Y-279294662D01*
X314445576Y-279428170D01*
X314317345Y-279583879D01*
X313551612Y-280349612D01*
X313548975Y-280352329D01*
X313398245Y-280512480D01*
X313228582Y-280628565D01*
X313044467Y-280711417D01*
X312883383Y-280765111D01*
X312713441Y-280783000D01*
X309584501Y-280783000D01*
X309575501Y-278533000D01*
X312140000Y-278533000D01*
X312164386Y-278530598D01*
X312187835Y-278523485D01*
X312209446Y-278511934D01*
X312228388Y-278496388D01*
X312338388Y-278386388D01*
X312353934Y-278367446D01*
X312365485Y-278345835D01*
X312372598Y-278322386D01*
X312375000Y-278298000D01*
X312375000Y-276018000D01*
X312372598Y-275993614D01*
X312365485Y-275970165D01*
X312353934Y-275948554D01*
X312338388Y-275929612D01*
X311328388Y-274919612D01*
X311309446Y-274904066D01*
X311287835Y-274892515D01*
X311264386Y-274885402D01*
X311235196Y-274883092D01*
X311106011Y-274888061D01*
X311124035Y-272563000D01*
X311782216Y-272563000D01*
X311848649Y-272571304D01*
G37*
D15*
X328798649Y-272581304D02*
X328881255Y-272599661D01*
X328995035Y-272628106D01*
X329069702Y-272652995D01*
X329253846Y-272754274D01*
X329341012Y-272815291D01*
X329493051Y-272957827D01*
X331247597Y-274712373D01*
X331341924Y-274825566D01*
X331395333Y-274896778D01*
X331429746Y-274957000D01*
X331466930Y-275031368D01*
X331501364Y-275108844D01*
X331508732Y-275138317D01*
X331510528Y-275144761D01*
X331547843Y-275266034D01*
X331566181Y-275385235D01*
X331575000Y-275455784D01*
X331575000Y-278823546D01*
X331565802Y-278952315D01*
X331529381Y-279152631D01*
X331466780Y-279304662D01*
X331395576Y-279438170D01*
X331267345Y-279593879D01*
X330501612Y-280359612D01*
X330498975Y-280362329D01*
X330348245Y-280522480D01*
X330178582Y-280638565D01*
X329994467Y-280721417D01*
X329833383Y-280775111D01*
X329663441Y-280793000D01*
X326534501Y-280793000D01*
X326525501Y-278543000D01*
X329090000Y-278543000D01*
X329114386Y-278540598D01*
X329137835Y-278533485D01*
X329159446Y-278521934D01*
X329178388Y-278506388D01*
X329288388Y-278396388D01*
X329303934Y-278377446D01*
X329315485Y-278355835D01*
X329322598Y-278332386D01*
X329325000Y-278308000D01*
X329325000Y-276028000D01*
X329322598Y-276003614D01*
X329315485Y-275980165D01*
X329303934Y-275958554D01*
X329288388Y-275939612D01*
X328278388Y-274929612D01*
X328259446Y-274914066D01*
X328237835Y-274902515D01*
X328214386Y-274895402D01*
X328185196Y-274893092D01*
X328056011Y-274898061D01*
X328074035Y-272573000D01*
X328732216Y-272573000D01*
X328798649Y-272581304D01*
D14*
G36*
X328798649Y-272581304D02*
G01*
X328881255Y-272599661D01*
X328995035Y-272628106D01*
X329069702Y-272652995D01*
X329253846Y-272754274D01*
X329341012Y-272815291D01*
X329493051Y-272957827D01*
X331247597Y-274712373D01*
X331341924Y-274825566D01*
X331395333Y-274896778D01*
X331429746Y-274957000D01*
X331466930Y-275031368D01*
X331501364Y-275108844D01*
X331508732Y-275138317D01*
X331510528Y-275144761D01*
X331547843Y-275266034D01*
X331566181Y-275385235D01*
X331575000Y-275455784D01*
X331575000Y-278823546D01*
X331565802Y-278952315D01*
X331529381Y-279152631D01*
X331466780Y-279304662D01*
X331395576Y-279438170D01*
X331267345Y-279593879D01*
X330501612Y-280359612D01*
X330498975Y-280362329D01*
X330348245Y-280522480D01*
X330178582Y-280638565D01*
X329994467Y-280721417D01*
X329833383Y-280775111D01*
X329663441Y-280793000D01*
X326534501Y-280793000D01*
X326525501Y-278543000D01*
X329090000Y-278543000D01*
X329114386Y-278540598D01*
X329137835Y-278533485D01*
X329159446Y-278521934D01*
X329178388Y-278506388D01*
X329288388Y-278396388D01*
X329303934Y-278377446D01*
X329315485Y-278355835D01*
X329322598Y-278332386D01*
X329325000Y-278308000D01*
X329325000Y-276028000D01*
X329322598Y-276003614D01*
X329315485Y-275980165D01*
X329303934Y-275958554D01*
X329288388Y-275939612D01*
X328278388Y-274929612D01*
X328259446Y-274914066D01*
X328237835Y-274902515D01*
X328214386Y-274895402D01*
X328185196Y-274893092D01*
X328056011Y-274898061D01*
X328074035Y-272573000D01*
X328732216Y-272573000D01*
X328798649Y-272581304D01*
G37*
D15*
X344878649Y-272581304D02*
X344961255Y-272599661D01*
X345075035Y-272628106D01*
X345149702Y-272652995D01*
X345333846Y-272754274D01*
X345421012Y-272815291D01*
X345573051Y-272957827D01*
X347327597Y-274712373D01*
X347421924Y-274825566D01*
X347475333Y-274896778D01*
X347509746Y-274957000D01*
X347546930Y-275031368D01*
X347581364Y-275108844D01*
X347588732Y-275138317D01*
X347590528Y-275144761D01*
X347627843Y-275266034D01*
X347646181Y-275385235D01*
X347655000Y-275455784D01*
X347655000Y-278823546D01*
X347645802Y-278952315D01*
X347609381Y-279152631D01*
X347546780Y-279304662D01*
X347475576Y-279438170D01*
X347347345Y-279593879D01*
X346581612Y-280359612D01*
X346578975Y-280362329D01*
X346428245Y-280522480D01*
X346258582Y-280638565D01*
X346074467Y-280721417D01*
X345913383Y-280775111D01*
X345743441Y-280793000D01*
X342614501Y-280793000D01*
X342605501Y-278543000D01*
X345170000Y-278543000D01*
X345194386Y-278540598D01*
X345217835Y-278533485D01*
X345239446Y-278521934D01*
X345258388Y-278506388D01*
X345368388Y-278396388D01*
X345383934Y-278377446D01*
X345395485Y-278355835D01*
X345402598Y-278332386D01*
X345405000Y-278308000D01*
X345405000Y-276028000D01*
X345402598Y-276003614D01*
X345395485Y-275980165D01*
X345383934Y-275958554D01*
X345368388Y-275939612D01*
X344358388Y-274929612D01*
X344339446Y-274914066D01*
X344317835Y-274902515D01*
X344294386Y-274895402D01*
X344265196Y-274893092D01*
X344136011Y-274898061D01*
X344154035Y-272573000D01*
X344812216Y-272573000D01*
X344878649Y-272581304D01*
D14*
G36*
X344878649Y-272581304D02*
G01*
X344961255Y-272599661D01*
X345075035Y-272628106D01*
X345149702Y-272652995D01*
X345333846Y-272754274D01*
X345421012Y-272815291D01*
X345573051Y-272957827D01*
X347327597Y-274712373D01*
X347421924Y-274825566D01*
X347475333Y-274896778D01*
X347509746Y-274957000D01*
X347546930Y-275031368D01*
X347581364Y-275108844D01*
X347588732Y-275138317D01*
X347590528Y-275144761D01*
X347627843Y-275266034D01*
X347646181Y-275385235D01*
X347655000Y-275455784D01*
X347655000Y-278823546D01*
X347645802Y-278952315D01*
X347609381Y-279152631D01*
X347546780Y-279304662D01*
X347475576Y-279438170D01*
X347347345Y-279593879D01*
X346581612Y-280359612D01*
X346578975Y-280362329D01*
X346428245Y-280522480D01*
X346258582Y-280638565D01*
X346074467Y-280721417D01*
X345913383Y-280775111D01*
X345743441Y-280793000D01*
X342614501Y-280793000D01*
X342605501Y-278543000D01*
X345170000Y-278543000D01*
X345194386Y-278540598D01*
X345217835Y-278533485D01*
X345239446Y-278521934D01*
X345258388Y-278506388D01*
X345368388Y-278396388D01*
X345383934Y-278377446D01*
X345395485Y-278355835D01*
X345402598Y-278332386D01*
X345405000Y-278308000D01*
X345405000Y-276028000D01*
X345402598Y-276003614D01*
X345395485Y-275980165D01*
X345383934Y-275958554D01*
X345368388Y-275939612D01*
X344358388Y-274929612D01*
X344339446Y-274914066D01*
X344317835Y-274902515D01*
X344294386Y-274895402D01*
X344265196Y-274893092D01*
X344136011Y-274898061D01*
X344154035Y-272573000D01*
X344812216Y-272573000D01*
X344878649Y-272581304D01*
G37*
D15*
X361778649Y-272571304D02*
X361861255Y-272589661D01*
X361975035Y-272618106D01*
X362049702Y-272642995D01*
X362233846Y-272744274D01*
X362321012Y-272805291D01*
X362473051Y-272947827D01*
X364227597Y-274702373D01*
X364321925Y-274815566D01*
X364375333Y-274886778D01*
X364409746Y-274947000D01*
X364446930Y-275021368D01*
X364481364Y-275098844D01*
X364488732Y-275128317D01*
X364490528Y-275134761D01*
X364527843Y-275256034D01*
X364546181Y-275375235D01*
X364555000Y-275445784D01*
X364555000Y-278813546D01*
X364545802Y-278942315D01*
X364509381Y-279142631D01*
X364446780Y-279294662D01*
X364375576Y-279428170D01*
X364247345Y-279583879D01*
X363481612Y-280349612D01*
X363478975Y-280352329D01*
X363328245Y-280512480D01*
X363158582Y-280628565D01*
X362974467Y-280711417D01*
X362813383Y-280765111D01*
X362643441Y-280783000D01*
X359514501Y-280783000D01*
X359505501Y-278533000D01*
X362070000Y-278533000D01*
X362094386Y-278530598D01*
X362117835Y-278523485D01*
X362139446Y-278511934D01*
X362158388Y-278496388D01*
X362268388Y-278386388D01*
X362283934Y-278367446D01*
X362295485Y-278345835D01*
X362302598Y-278322386D01*
X362305000Y-278298000D01*
X362305000Y-276018000D01*
X362302598Y-275993614D01*
X362295485Y-275970165D01*
X362283934Y-275948554D01*
X362268388Y-275929612D01*
X361258388Y-274919612D01*
X361239446Y-274904066D01*
X361217835Y-274892515D01*
X361194386Y-274885402D01*
X361165196Y-274883092D01*
X361036011Y-274888061D01*
X361054035Y-272563000D01*
X361712216Y-272563000D01*
X361778649Y-272571304D01*
D14*
G36*
X361778649Y-272571304D02*
G01*
X361861255Y-272589661D01*
X361975035Y-272618106D01*
X362049702Y-272642995D01*
X362233846Y-272744274D01*
X362321012Y-272805291D01*
X362473051Y-272947827D01*
X364227597Y-274702373D01*
X364321925Y-274815566D01*
X364375333Y-274886778D01*
X364409746Y-274947000D01*
X364446930Y-275021368D01*
X364481364Y-275098844D01*
X364488732Y-275128317D01*
X364490528Y-275134761D01*
X364527843Y-275256034D01*
X364546181Y-275375235D01*
X364555000Y-275445784D01*
X364555000Y-278813546D01*
X364545802Y-278942315D01*
X364509381Y-279142631D01*
X364446780Y-279294662D01*
X364375576Y-279428170D01*
X364247345Y-279583879D01*
X363481612Y-280349612D01*
X363478975Y-280352329D01*
X363328245Y-280512480D01*
X363158582Y-280628565D01*
X362974467Y-280711417D01*
X362813383Y-280765111D01*
X362643441Y-280783000D01*
X359514501Y-280783000D01*
X359505501Y-278533000D01*
X362070000Y-278533000D01*
X362094386Y-278530598D01*
X362117835Y-278523485D01*
X362139446Y-278511934D01*
X362158388Y-278496388D01*
X362268388Y-278386388D01*
X362283934Y-278367446D01*
X362295485Y-278345835D01*
X362302598Y-278322386D01*
X362305000Y-278298000D01*
X362305000Y-276018000D01*
X362302598Y-275993614D01*
X362295485Y-275970165D01*
X362283934Y-275948554D01*
X362268388Y-275929612D01*
X361258388Y-274919612D01*
X361239446Y-274904066D01*
X361217835Y-274892515D01*
X361194386Y-274885402D01*
X361165196Y-274883092D01*
X361036011Y-274888061D01*
X361054035Y-272563000D01*
X361712216Y-272563000D01*
X361778649Y-272571304D01*
G37*
D15*
X377868649Y-272611304D02*
X377951255Y-272629661D01*
X378065035Y-272658106D01*
X378139702Y-272682995D01*
X378323846Y-272784274D01*
X378411012Y-272845291D01*
X378563051Y-272987827D01*
X380317597Y-274742373D01*
X380411924Y-274855566D01*
X380465333Y-274926778D01*
X380499746Y-274987000D01*
X380536930Y-275061368D01*
X380571364Y-275138844D01*
X380578732Y-275168317D01*
X380580528Y-275174761D01*
X380617843Y-275296034D01*
X380636181Y-275415235D01*
X380645000Y-275485784D01*
X380645000Y-278853546D01*
X380635802Y-278982315D01*
X380599381Y-279182631D01*
X380536780Y-279334662D01*
X380465576Y-279468170D01*
X380337345Y-279623879D01*
X379571612Y-280389612D01*
X379568975Y-280392329D01*
X379418245Y-280552480D01*
X379248582Y-280668565D01*
X379064467Y-280751417D01*
X378903383Y-280805111D01*
X378733441Y-280823000D01*
X375604501Y-280823000D01*
X375595501Y-278573000D01*
X378160000Y-278573000D01*
X378184386Y-278570598D01*
X378207835Y-278563485D01*
X378229446Y-278551934D01*
X378248388Y-278536388D01*
X378358388Y-278426388D01*
X378373934Y-278407446D01*
X378385485Y-278385835D01*
X378392598Y-278362386D01*
X378395000Y-278338000D01*
X378395000Y-276058000D01*
X378392598Y-276033614D01*
X378385485Y-276010165D01*
X378373934Y-275988554D01*
X378358388Y-275969612D01*
X377348388Y-274959612D01*
X377329446Y-274944066D01*
X377307835Y-274932515D01*
X377284386Y-274925402D01*
X377255196Y-274923092D01*
X377126011Y-274928061D01*
X377144035Y-272603000D01*
X377802216Y-272603000D01*
X377868649Y-272611304D01*
D14*
G36*
X377868649Y-272611304D02*
G01*
X377951255Y-272629661D01*
X378065035Y-272658106D01*
X378139702Y-272682995D01*
X378323846Y-272784274D01*
X378411012Y-272845291D01*
X378563051Y-272987827D01*
X380317597Y-274742373D01*
X380411924Y-274855566D01*
X380465333Y-274926778D01*
X380499746Y-274987000D01*
X380536930Y-275061368D01*
X380571364Y-275138844D01*
X380578732Y-275168317D01*
X380580528Y-275174761D01*
X380617843Y-275296034D01*
X380636181Y-275415235D01*
X380645000Y-275485784D01*
X380645000Y-278853546D01*
X380635802Y-278982315D01*
X380599381Y-279182631D01*
X380536780Y-279334662D01*
X380465576Y-279468170D01*
X380337345Y-279623879D01*
X379571612Y-280389612D01*
X379568975Y-280392329D01*
X379418245Y-280552480D01*
X379248582Y-280668565D01*
X379064467Y-280751417D01*
X378903383Y-280805111D01*
X378733441Y-280823000D01*
X375604501Y-280823000D01*
X375595501Y-278573000D01*
X378160000Y-278573000D01*
X378184386Y-278570598D01*
X378207835Y-278563485D01*
X378229446Y-278551934D01*
X378248388Y-278536388D01*
X378358388Y-278426388D01*
X378373934Y-278407446D01*
X378385485Y-278385835D01*
X378392598Y-278362386D01*
X378395000Y-278338000D01*
X378395000Y-276058000D01*
X378392598Y-276033614D01*
X378385485Y-276010165D01*
X378373934Y-275988554D01*
X378358388Y-275969612D01*
X377348388Y-274959612D01*
X377329446Y-274944066D01*
X377307835Y-274932515D01*
X377284386Y-274925402D01*
X377255196Y-274923092D01*
X377126011Y-274928061D01*
X377144035Y-272603000D01*
X377802216Y-272603000D01*
X377868649Y-272611304D01*
G37*
D15*
X394788649Y-272581304D02*
X394871255Y-272599661D01*
X394985035Y-272628106D01*
X395059702Y-272652995D01*
X395243846Y-272754274D01*
X395331012Y-272815291D01*
X395483051Y-272957827D01*
X397237597Y-274712373D01*
X397331924Y-274825566D01*
X397385333Y-274896778D01*
X397419746Y-274957000D01*
X397456930Y-275031368D01*
X397491364Y-275108844D01*
X397498732Y-275138317D01*
X397500528Y-275144761D01*
X397537843Y-275266034D01*
X397556181Y-275385235D01*
X397565000Y-275455784D01*
X397565000Y-278823546D01*
X397555802Y-278952315D01*
X397519381Y-279152631D01*
X397456780Y-279304662D01*
X397385576Y-279438170D01*
X397257345Y-279593879D01*
X396491612Y-280359612D01*
X396488975Y-280362329D01*
X396338245Y-280522480D01*
X396168582Y-280638565D01*
X395984467Y-280721417D01*
X395823383Y-280775111D01*
X395653441Y-280793000D01*
X392524501Y-280793000D01*
X392515501Y-278543000D01*
X395080000Y-278543000D01*
X395104386Y-278540598D01*
X395127835Y-278533485D01*
X395149446Y-278521934D01*
X395168388Y-278506388D01*
X395278388Y-278396388D01*
X395293934Y-278377446D01*
X395305485Y-278355835D01*
X395312598Y-278332386D01*
X395315000Y-278308000D01*
X395315000Y-276028000D01*
X395312598Y-276003614D01*
X395305485Y-275980165D01*
X395293934Y-275958554D01*
X395278388Y-275939612D01*
X394268388Y-274929612D01*
X394249446Y-274914066D01*
X394227835Y-274902515D01*
X394204386Y-274895402D01*
X394175196Y-274893092D01*
X394046011Y-274898061D01*
X394064035Y-272573000D01*
X394722216Y-272573000D01*
X394788649Y-272581304D01*
D14*
G36*
X394788649Y-272581304D02*
G01*
X394871255Y-272599661D01*
X394985035Y-272628106D01*
X395059702Y-272652995D01*
X395243846Y-272754274D01*
X395331012Y-272815291D01*
X395483051Y-272957827D01*
X397237597Y-274712373D01*
X397331924Y-274825566D01*
X397385333Y-274896778D01*
X397419746Y-274957000D01*
X397456930Y-275031368D01*
X397491364Y-275108844D01*
X397498732Y-275138317D01*
X397500528Y-275144761D01*
X397537843Y-275266034D01*
X397556181Y-275385235D01*
X397565000Y-275455784D01*
X397565000Y-278823546D01*
X397555802Y-278952315D01*
X397519381Y-279152631D01*
X397456780Y-279304662D01*
X397385576Y-279438170D01*
X397257345Y-279593879D01*
X396491612Y-280359612D01*
X396488975Y-280362329D01*
X396338245Y-280522480D01*
X396168582Y-280638565D01*
X395984467Y-280721417D01*
X395823383Y-280775111D01*
X395653441Y-280793000D01*
X392524501Y-280793000D01*
X392515501Y-278543000D01*
X395080000Y-278543000D01*
X395104386Y-278540598D01*
X395127835Y-278533485D01*
X395149446Y-278521934D01*
X395168388Y-278506388D01*
X395278388Y-278396388D01*
X395293934Y-278377446D01*
X395305485Y-278355835D01*
X395312598Y-278332386D01*
X395315000Y-278308000D01*
X395315000Y-276028000D01*
X395312598Y-276003614D01*
X395305485Y-275980165D01*
X395293934Y-275958554D01*
X395278388Y-275939612D01*
X394268388Y-274929612D01*
X394249446Y-274914066D01*
X394227835Y-274902515D01*
X394204386Y-274895402D01*
X394175196Y-274893092D01*
X394046011Y-274898061D01*
X394064035Y-272573000D01*
X394722216Y-272573000D01*
X394788649Y-272581304D01*
G37*
D15*
X410868649Y-272591304D02*
X410951255Y-272609661D01*
X411065035Y-272638106D01*
X411139702Y-272662995D01*
X411323846Y-272764274D01*
X411411012Y-272825291D01*
X411563051Y-272967827D01*
X413317597Y-274722373D01*
X413411925Y-274835566D01*
X413465333Y-274906778D01*
X413499746Y-274967000D01*
X413536930Y-275041368D01*
X413571364Y-275118844D01*
X413578732Y-275148317D01*
X413580528Y-275154761D01*
X413617843Y-275276034D01*
X413636181Y-275395235D01*
X413645000Y-275465784D01*
X413645000Y-278833546D01*
X413635802Y-278962315D01*
X413599381Y-279162631D01*
X413536780Y-279314662D01*
X413465576Y-279448170D01*
X413337345Y-279603879D01*
X412571612Y-280369612D01*
X412568975Y-280372329D01*
X412418245Y-280532480D01*
X412248582Y-280648565D01*
X412064467Y-280731417D01*
X411903383Y-280785111D01*
X411733441Y-280803000D01*
X408604501Y-280803000D01*
X408595501Y-278553000D01*
X411160000Y-278553000D01*
X411184386Y-278550598D01*
X411207835Y-278543485D01*
X411229446Y-278531934D01*
X411248388Y-278516388D01*
X411358388Y-278406388D01*
X411373934Y-278387446D01*
X411385485Y-278365835D01*
X411392598Y-278342386D01*
X411395000Y-278318000D01*
X411395000Y-276038000D01*
X411392598Y-276013614D01*
X411385485Y-275990165D01*
X411373934Y-275968554D01*
X411358388Y-275949612D01*
X410348388Y-274939612D01*
X410329446Y-274924066D01*
X410307835Y-274912515D01*
X410284386Y-274905402D01*
X410255196Y-274903092D01*
X410126011Y-274908061D01*
X410144035Y-272583000D01*
X410802216Y-272583000D01*
X410868649Y-272591304D01*
D14*
G36*
X410868649Y-272591304D02*
G01*
X410951255Y-272609661D01*
X411065035Y-272638106D01*
X411139702Y-272662995D01*
X411323846Y-272764274D01*
X411411012Y-272825291D01*
X411563051Y-272967827D01*
X413317597Y-274722373D01*
X413411925Y-274835566D01*
X413465333Y-274906778D01*
X413499746Y-274967000D01*
X413536930Y-275041368D01*
X413571364Y-275118844D01*
X413578732Y-275148317D01*
X413580528Y-275154761D01*
X413617843Y-275276034D01*
X413636181Y-275395235D01*
X413645000Y-275465784D01*
X413645000Y-278833546D01*
X413635802Y-278962315D01*
X413599381Y-279162631D01*
X413536780Y-279314662D01*
X413465576Y-279448170D01*
X413337345Y-279603879D01*
X412571612Y-280369612D01*
X412568975Y-280372329D01*
X412418245Y-280532480D01*
X412248582Y-280648565D01*
X412064467Y-280731417D01*
X411903383Y-280785111D01*
X411733441Y-280803000D01*
X408604501Y-280803000D01*
X408595501Y-278553000D01*
X411160000Y-278553000D01*
X411184386Y-278550598D01*
X411207835Y-278543485D01*
X411229446Y-278531934D01*
X411248388Y-278516388D01*
X411358388Y-278406388D01*
X411373934Y-278387446D01*
X411385485Y-278365835D01*
X411392598Y-278342386D01*
X411395000Y-278318000D01*
X411395000Y-276038000D01*
X411392598Y-276013614D01*
X411385485Y-275990165D01*
X411373934Y-275968554D01*
X411358388Y-275949612D01*
X410348388Y-274939612D01*
X410329446Y-274924066D01*
X410307835Y-274912515D01*
X410284386Y-274905402D01*
X410255196Y-274903092D01*
X410126011Y-274908061D01*
X410144035Y-272583000D01*
X410802216Y-272583000D01*
X410868649Y-272591304D01*
G37*
D15*
X427788649Y-272591304D02*
X427871255Y-272609661D01*
X427985035Y-272638106D01*
X428059702Y-272662995D01*
X428243846Y-272764274D01*
X428331012Y-272825291D01*
X428483051Y-272967827D01*
X430237597Y-274722373D01*
X430331925Y-274835566D01*
X430385333Y-274906778D01*
X430419746Y-274967000D01*
X430456930Y-275041368D01*
X430491364Y-275118844D01*
X430498732Y-275148317D01*
X430500528Y-275154761D01*
X430537843Y-275276034D01*
X430556181Y-275395235D01*
X430565000Y-275465784D01*
X430565000Y-278833546D01*
X430555802Y-278962315D01*
X430519381Y-279162631D01*
X430456780Y-279314662D01*
X430385576Y-279448170D01*
X430257345Y-279603879D01*
X429491612Y-280369612D01*
X429488975Y-280372329D01*
X429338245Y-280532480D01*
X429168582Y-280648565D01*
X428984467Y-280731417D01*
X428823383Y-280785111D01*
X428653441Y-280803000D01*
X425524501Y-280803000D01*
X425515501Y-278553000D01*
X428080000Y-278553000D01*
X428104386Y-278550598D01*
X428127835Y-278543485D01*
X428149446Y-278531934D01*
X428168388Y-278516388D01*
X428278388Y-278406388D01*
X428293934Y-278387446D01*
X428305485Y-278365835D01*
X428312598Y-278342386D01*
X428315000Y-278318000D01*
X428315000Y-276038000D01*
X428312598Y-276013614D01*
X428305485Y-275990165D01*
X428293934Y-275968554D01*
X428278388Y-275949612D01*
X427268388Y-274939612D01*
X427249446Y-274924066D01*
X427227835Y-274912515D01*
X427204386Y-274905402D01*
X427175196Y-274903092D01*
X427046011Y-274908061D01*
X427064035Y-272583000D01*
X427722216Y-272583000D01*
X427788649Y-272591304D01*
D14*
G36*
X427788649Y-272591304D02*
G01*
X427871255Y-272609661D01*
X427985035Y-272638106D01*
X428059702Y-272662995D01*
X428243846Y-272764274D01*
X428331012Y-272825291D01*
X428483051Y-272967827D01*
X430237597Y-274722373D01*
X430331925Y-274835566D01*
X430385333Y-274906778D01*
X430419746Y-274967000D01*
X430456930Y-275041368D01*
X430491364Y-275118844D01*
X430498732Y-275148317D01*
X430500528Y-275154761D01*
X430537843Y-275276034D01*
X430556181Y-275395235D01*
X430565000Y-275465784D01*
X430565000Y-278833546D01*
X430555802Y-278962315D01*
X430519381Y-279162631D01*
X430456780Y-279314662D01*
X430385576Y-279448170D01*
X430257345Y-279603879D01*
X429491612Y-280369612D01*
X429488975Y-280372329D01*
X429338245Y-280532480D01*
X429168582Y-280648565D01*
X428984467Y-280731417D01*
X428823383Y-280785111D01*
X428653441Y-280803000D01*
X425524501Y-280803000D01*
X425515501Y-278553000D01*
X428080000Y-278553000D01*
X428104386Y-278550598D01*
X428127835Y-278543485D01*
X428149446Y-278531934D01*
X428168388Y-278516388D01*
X428278388Y-278406388D01*
X428293934Y-278387446D01*
X428305485Y-278365835D01*
X428312598Y-278342386D01*
X428315000Y-278318000D01*
X428315000Y-276038000D01*
X428312598Y-276013614D01*
X428305485Y-275990165D01*
X428293934Y-275968554D01*
X428278388Y-275949612D01*
X427268388Y-274939612D01*
X427249446Y-274924066D01*
X427227835Y-274912515D01*
X427204386Y-274905402D01*
X427175196Y-274903092D01*
X427046011Y-274908061D01*
X427064035Y-272583000D01*
X427722216Y-272583000D01*
X427788649Y-272591304D01*
G37*
D15*
X443838649Y-272591304D02*
X443921255Y-272609661D01*
X444035035Y-272638106D01*
X444109702Y-272662995D01*
X444293846Y-272764274D01*
X444381012Y-272825291D01*
X444533051Y-272967827D01*
X446287597Y-274722373D01*
X446381925Y-274835566D01*
X446435333Y-274906778D01*
X446469746Y-274967000D01*
X446506930Y-275041368D01*
X446541364Y-275118844D01*
X446548732Y-275148317D01*
X446550528Y-275154761D01*
X446587843Y-275276034D01*
X446606181Y-275395235D01*
X446615000Y-275465784D01*
X446615000Y-278833546D01*
X446605802Y-278962315D01*
X446569381Y-279162631D01*
X446506780Y-279314662D01*
X446435576Y-279448170D01*
X446307345Y-279603879D01*
X445541612Y-280369612D01*
X445538975Y-280372329D01*
X445388245Y-280532480D01*
X445218582Y-280648565D01*
X445034467Y-280731417D01*
X444873383Y-280785111D01*
X444703441Y-280803000D01*
X441574501Y-280803000D01*
X441565501Y-278553000D01*
X444130000Y-278553000D01*
X444154386Y-278550598D01*
X444177835Y-278543485D01*
X444199446Y-278531934D01*
X444218388Y-278516388D01*
X444328388Y-278406388D01*
X444343934Y-278387446D01*
X444355485Y-278365835D01*
X444362598Y-278342386D01*
X444365000Y-278318000D01*
X444365000Y-276038000D01*
X444362598Y-276013614D01*
X444355485Y-275990165D01*
X444343934Y-275968554D01*
X444328388Y-275949612D01*
X443318388Y-274939612D01*
X443299446Y-274924066D01*
X443277835Y-274912515D01*
X443254386Y-274905402D01*
X443225196Y-274903092D01*
X443096011Y-274908061D01*
X443114035Y-272583000D01*
X443772216Y-272583000D01*
X443838649Y-272591304D01*
D14*
G36*
X443838649Y-272591304D02*
G01*
X443921255Y-272609661D01*
X444035035Y-272638106D01*
X444109702Y-272662995D01*
X444293846Y-272764274D01*
X444381012Y-272825291D01*
X444533051Y-272967827D01*
X446287597Y-274722373D01*
X446381925Y-274835566D01*
X446435333Y-274906778D01*
X446469746Y-274967000D01*
X446506930Y-275041368D01*
X446541364Y-275118844D01*
X446548732Y-275148317D01*
X446550528Y-275154761D01*
X446587843Y-275276034D01*
X446606181Y-275395235D01*
X446615000Y-275465784D01*
X446615000Y-278833546D01*
X446605802Y-278962315D01*
X446569381Y-279162631D01*
X446506780Y-279314662D01*
X446435576Y-279448170D01*
X446307345Y-279603879D01*
X445541612Y-280369612D01*
X445538975Y-280372329D01*
X445388245Y-280532480D01*
X445218582Y-280648565D01*
X445034467Y-280731417D01*
X444873383Y-280785111D01*
X444703441Y-280803000D01*
X441574501Y-280803000D01*
X441565501Y-278553000D01*
X444130000Y-278553000D01*
X444154386Y-278550598D01*
X444177835Y-278543485D01*
X444199446Y-278531934D01*
X444218388Y-278516388D01*
X444328388Y-278406388D01*
X444343934Y-278387446D01*
X444355485Y-278365835D01*
X444362598Y-278342386D01*
X444365000Y-278318000D01*
X444365000Y-276038000D01*
X444362598Y-276013614D01*
X444355485Y-275990165D01*
X444343934Y-275968554D01*
X444328388Y-275949612D01*
X443318388Y-274939612D01*
X443299446Y-274924066D01*
X443277835Y-274912515D01*
X443254386Y-274905402D01*
X443225196Y-274903092D01*
X443096011Y-274908061D01*
X443114035Y-272583000D01*
X443772216Y-272583000D01*
X443838649Y-272591304D01*
G37*
M02*
