%TF.GenerationSoftware,KiCad,Pcbnew,(5.1.10)-1*%
%TF.CreationDate,2021-10-27T16:31:34+02:00*%
%TF.ProjectId,boneIO - relay board,626f6e65-494f-4202-9d20-72656c617920,rev?*%
%TF.SameCoordinates,Original*%
%TF.FileFunction,Profile,NP*%
%FSLAX46Y46*%
G04 Gerber Fmt 4.6, Leading zero omitted, Abs format (unit mm)*
G04 Created by KiCad (PCBNEW (5.1.10)-1) date 2021-10-27 16:31:34*
%MOMM*%
%LPD*%
G01*
G04 APERTURE LIST*
%TA.AperFunction,Profile*%
%ADD10C,0.150000*%
%TD*%
%TA.AperFunction,Profile*%
%ADD11C,0.100000*%
%TD*%
G04 APERTURE END LIST*
D10*
X424030000Y-294998000D02*
X452732000Y-294998000D01*
X452732000Y-294998000D02*
X452732000Y-296776000D01*
X424030000Y-296776000D02*
X424030000Y-294998000D01*
X452732000Y-296776000D02*
X424030000Y-296776000D01*
X391010000Y-294998000D02*
X419712000Y-294998000D01*
X419712000Y-294998000D02*
X419712000Y-296776000D01*
X391010000Y-296776000D02*
X391010000Y-294998000D01*
X419712000Y-296776000D02*
X391010000Y-296776000D01*
X357990000Y-294998000D02*
X386692000Y-294998000D01*
X386692000Y-294998000D02*
X386692000Y-296776000D01*
X357990000Y-296776000D02*
X357990000Y-294998000D01*
X386692000Y-296776000D02*
X357990000Y-296776000D01*
X324970000Y-294998000D02*
X353672000Y-294998000D01*
X353672000Y-294998000D02*
X353672000Y-296776000D01*
X324970000Y-296776000D02*
X324970000Y-294998000D01*
X353672000Y-296776000D02*
X324970000Y-296776000D01*
X292077000Y-294998000D02*
X320779000Y-294998000D01*
X320779000Y-294998000D02*
X320779000Y-296776000D01*
X292077000Y-296776000D02*
X292077000Y-294998000D01*
X320779000Y-296776000D02*
X292077000Y-296776000D01*
X424538000Y-332971000D02*
X453240000Y-332971000D01*
X453240000Y-332971000D02*
X453240000Y-334749000D01*
X424538000Y-334749000D02*
X424538000Y-332971000D01*
X453240000Y-334749000D02*
X424538000Y-334749000D01*
X391518000Y-333098000D02*
X420220000Y-333098000D01*
X420220000Y-333098000D02*
X420220000Y-334876000D01*
X391518000Y-334876000D02*
X391518000Y-333098000D01*
X420220000Y-334876000D02*
X391518000Y-334876000D01*
X358498000Y-333225000D02*
X387200000Y-333225000D01*
X387200000Y-333225000D02*
X387200000Y-335003000D01*
X358498000Y-335003000D02*
X358498000Y-333225000D01*
X387200000Y-335003000D02*
X358498000Y-335003000D01*
X325605000Y-333352000D02*
X354307000Y-333352000D01*
X354307000Y-333352000D02*
X354307000Y-335130000D01*
X325605000Y-335130000D02*
X325605000Y-333352000D01*
X354307000Y-335130000D02*
X325605000Y-335130000D01*
X292585000Y-335257000D02*
X292585000Y-333479000D01*
X321287000Y-335257000D02*
X292585000Y-335257000D01*
X321287000Y-333479000D02*
X321287000Y-335257000D01*
X292585000Y-333479000D02*
X321287000Y-333479000D01*
D11*
X288140000Y-365708000D02*
X457140000Y-365708000D01*
X457140000Y-365708000D02*
X457140000Y-263708000D01*
X288140000Y-263708000D02*
X288140000Y-365708000D01*
X288140000Y-263708000D02*
X457140000Y-263708000D01*
M02*
