%TF.GenerationSoftware,KiCad,Pcbnew,(5.1.10)-1*%
%TF.CreationDate,2021-10-27T16:31:34+02:00*%
%TF.ProjectId,boneIO - relay board,626f6e65-494f-4202-9d20-72656c617920,rev?*%
%TF.SameCoordinates,Original*%
%TF.FileFunction,Soldermask,Top*%
%TF.FilePolarity,Negative*%
%FSLAX46Y46*%
G04 Gerber Fmt 4.6, Leading zero omitted, Abs format (unit mm)*
G04 Created by KiCad (PCBNEW (5.1.10)-1) date 2021-10-27 16:31:34*
%MOMM*%
%LPD*%
G01*
G04 APERTURE LIST*
%ADD10C,1.950000*%
%ADD11R,2.500000X2.500000*%
%ADD12O,1.700000X1.700000*%
%ADD13R,1.700000X1.700000*%
%ADD14C,0.100000*%
G04 APERTURE END LIST*
%TO.C,C4*%
G36*
G01*
X316520000Y-310548001D02*
X316520000Y-309247999D01*
G75*
G02*
X316769999Y-308998000I249999J0D01*
G01*
X317420001Y-308998000D01*
G75*
G02*
X317670000Y-309247999I0J-249999D01*
G01*
X317670000Y-310548001D01*
G75*
G02*
X317420001Y-310798000I-249999J0D01*
G01*
X316769999Y-310798000D01*
G75*
G02*
X316520000Y-310548001I0J249999D01*
G01*
G37*
G36*
G01*
X313570000Y-310548001D02*
X313570000Y-309247999D01*
G75*
G02*
X313819999Y-308998000I249999J0D01*
G01*
X314470001Y-308998000D01*
G75*
G02*
X314720000Y-309247999I0J-249999D01*
G01*
X314720000Y-310548001D01*
G75*
G02*
X314470001Y-310798000I-249999J0D01*
G01*
X313819999Y-310798000D01*
G75*
G02*
X313570000Y-310548001I0J249999D01*
G01*
G37*
%TD*%
%TO.C,C3*%
G36*
G01*
X415980000Y-310538001D02*
X415980000Y-309237999D01*
G75*
G02*
X416229999Y-308988000I249999J0D01*
G01*
X416880001Y-308988000D01*
G75*
G02*
X417130000Y-309237999I0J-249999D01*
G01*
X417130000Y-310538001D01*
G75*
G02*
X416880001Y-310788000I-249999J0D01*
G01*
X416229999Y-310788000D01*
G75*
G02*
X415980000Y-310538001I0J249999D01*
G01*
G37*
G36*
G01*
X413030000Y-310538001D02*
X413030000Y-309237999D01*
G75*
G02*
X413279999Y-308988000I249999J0D01*
G01*
X413930001Y-308988000D01*
G75*
G02*
X414180000Y-309237999I0J-249999D01*
G01*
X414180000Y-310538001D01*
G75*
G02*
X413930001Y-310788000I-249999J0D01*
G01*
X413279999Y-310788000D01*
G75*
G02*
X413030000Y-310538001I0J249999D01*
G01*
G37*
%TD*%
%TO.C,C2*%
G36*
G01*
X331205000Y-318897999D02*
X331205000Y-320198001D01*
G75*
G02*
X330955001Y-320448000I-249999J0D01*
G01*
X330304999Y-320448000D01*
G75*
G02*
X330055000Y-320198001I0J249999D01*
G01*
X330055000Y-318897999D01*
G75*
G02*
X330304999Y-318648000I249999J0D01*
G01*
X330955001Y-318648000D01*
G75*
G02*
X331205000Y-318897999I0J-249999D01*
G01*
G37*
G36*
G01*
X334155000Y-318897999D02*
X334155000Y-320198001D01*
G75*
G02*
X333905001Y-320448000I-249999J0D01*
G01*
X333254999Y-320448000D01*
G75*
G02*
X333005000Y-320198001I0J249999D01*
G01*
X333005000Y-318897999D01*
G75*
G02*
X333254999Y-318648000I249999J0D01*
G01*
X333905001Y-318648000D01*
G75*
G02*
X334155000Y-318897999I0J-249999D01*
G01*
G37*
%TD*%
%TO.C,C1*%
G36*
G01*
X429305000Y-311118000D02*
X429305000Y-310618000D01*
G75*
G02*
X429530000Y-310393000I225000J0D01*
G01*
X429980000Y-310393000D01*
G75*
G02*
X430205000Y-310618000I0J-225000D01*
G01*
X430205000Y-311118000D01*
G75*
G02*
X429980000Y-311343000I-225000J0D01*
G01*
X429530000Y-311343000D01*
G75*
G02*
X429305000Y-311118000I0J225000D01*
G01*
G37*
G36*
G01*
X427755000Y-311118000D02*
X427755000Y-310618000D01*
G75*
G02*
X427980000Y-310393000I225000J0D01*
G01*
X428430000Y-310393000D01*
G75*
G02*
X428655000Y-310618000I0J-225000D01*
G01*
X428655000Y-311118000D01*
G75*
G02*
X428430000Y-311343000I-225000J0D01*
G01*
X427980000Y-311343000D01*
G75*
G02*
X427755000Y-311118000I0J225000D01*
G01*
G37*
%TD*%
%TO.C,U1*%
G36*
G01*
X440443000Y-313808000D02*
X440443000Y-313608000D01*
G75*
G02*
X440543000Y-313508000I100000J0D01*
G01*
X441968000Y-313508000D01*
G75*
G02*
X442068000Y-313608000I0J-100000D01*
G01*
X442068000Y-313808000D01*
G75*
G02*
X441968000Y-313908000I-100000J0D01*
G01*
X440543000Y-313908000D01*
G75*
G02*
X440443000Y-313808000I0J100000D01*
G01*
G37*
G36*
G01*
X440443000Y-314458000D02*
X440443000Y-314258000D01*
G75*
G02*
X440543000Y-314158000I100000J0D01*
G01*
X441968000Y-314158000D01*
G75*
G02*
X442068000Y-314258000I0J-100000D01*
G01*
X442068000Y-314458000D01*
G75*
G02*
X441968000Y-314558000I-100000J0D01*
G01*
X440543000Y-314558000D01*
G75*
G02*
X440443000Y-314458000I0J100000D01*
G01*
G37*
G36*
G01*
X440443000Y-315108000D02*
X440443000Y-314908000D01*
G75*
G02*
X440543000Y-314808000I100000J0D01*
G01*
X441968000Y-314808000D01*
G75*
G02*
X442068000Y-314908000I0J-100000D01*
G01*
X442068000Y-315108000D01*
G75*
G02*
X441968000Y-315208000I-100000J0D01*
G01*
X440543000Y-315208000D01*
G75*
G02*
X440443000Y-315108000I0J100000D01*
G01*
G37*
G36*
G01*
X440443000Y-315758000D02*
X440443000Y-315558000D01*
G75*
G02*
X440543000Y-315458000I100000J0D01*
G01*
X441968000Y-315458000D01*
G75*
G02*
X442068000Y-315558000I0J-100000D01*
G01*
X442068000Y-315758000D01*
G75*
G02*
X441968000Y-315858000I-100000J0D01*
G01*
X440543000Y-315858000D01*
G75*
G02*
X440443000Y-315758000I0J100000D01*
G01*
G37*
G36*
G01*
X436218000Y-315758000D02*
X436218000Y-315558000D01*
G75*
G02*
X436318000Y-315458000I100000J0D01*
G01*
X437743000Y-315458000D01*
G75*
G02*
X437843000Y-315558000I0J-100000D01*
G01*
X437843000Y-315758000D01*
G75*
G02*
X437743000Y-315858000I-100000J0D01*
G01*
X436318000Y-315858000D01*
G75*
G02*
X436218000Y-315758000I0J100000D01*
G01*
G37*
G36*
G01*
X436218000Y-315108000D02*
X436218000Y-314908000D01*
G75*
G02*
X436318000Y-314808000I100000J0D01*
G01*
X437743000Y-314808000D01*
G75*
G02*
X437843000Y-314908000I0J-100000D01*
G01*
X437843000Y-315108000D01*
G75*
G02*
X437743000Y-315208000I-100000J0D01*
G01*
X436318000Y-315208000D01*
G75*
G02*
X436218000Y-315108000I0J100000D01*
G01*
G37*
G36*
G01*
X436218000Y-314458000D02*
X436218000Y-314258000D01*
G75*
G02*
X436318000Y-314158000I100000J0D01*
G01*
X437743000Y-314158000D01*
G75*
G02*
X437843000Y-314258000I0J-100000D01*
G01*
X437843000Y-314458000D01*
G75*
G02*
X437743000Y-314558000I-100000J0D01*
G01*
X436318000Y-314558000D01*
G75*
G02*
X436218000Y-314458000I0J100000D01*
G01*
G37*
G36*
G01*
X436218000Y-313808000D02*
X436218000Y-313608000D01*
G75*
G02*
X436318000Y-313508000I100000J0D01*
G01*
X437743000Y-313508000D01*
G75*
G02*
X437843000Y-313608000I0J-100000D01*
G01*
X437843000Y-313808000D01*
G75*
G02*
X437743000Y-313908000I-100000J0D01*
G01*
X436318000Y-313908000D01*
G75*
G02*
X436218000Y-313808000I0J100000D01*
G01*
G37*
%TD*%
%TO.C,R9*%
G36*
G01*
X427946000Y-315108000D02*
X428496000Y-315108000D01*
G75*
G02*
X428696000Y-315308000I0J-200000D01*
G01*
X428696000Y-315708000D01*
G75*
G02*
X428496000Y-315908000I-200000J0D01*
G01*
X427946000Y-315908000D01*
G75*
G02*
X427746000Y-315708000I0J200000D01*
G01*
X427746000Y-315308000D01*
G75*
G02*
X427946000Y-315108000I200000J0D01*
G01*
G37*
G36*
G01*
X427946000Y-313458000D02*
X428496000Y-313458000D01*
G75*
G02*
X428696000Y-313658000I0J-200000D01*
G01*
X428696000Y-314058000D01*
G75*
G02*
X428496000Y-314258000I-200000J0D01*
G01*
X427946000Y-314258000D01*
G75*
G02*
X427746000Y-314058000I0J200000D01*
G01*
X427746000Y-313658000D01*
G75*
G02*
X427946000Y-313458000I200000J0D01*
G01*
G37*
%TD*%
%TO.C,R8*%
G36*
G01*
X433534000Y-315108000D02*
X434084000Y-315108000D01*
G75*
G02*
X434284000Y-315308000I0J-200000D01*
G01*
X434284000Y-315708000D01*
G75*
G02*
X434084000Y-315908000I-200000J0D01*
G01*
X433534000Y-315908000D01*
G75*
G02*
X433334000Y-315708000I0J200000D01*
G01*
X433334000Y-315308000D01*
G75*
G02*
X433534000Y-315108000I200000J0D01*
G01*
G37*
G36*
G01*
X433534000Y-313458000D02*
X434084000Y-313458000D01*
G75*
G02*
X434284000Y-313658000I0J-200000D01*
G01*
X434284000Y-314058000D01*
G75*
G02*
X434084000Y-314258000I-200000J0D01*
G01*
X433534000Y-314258000D01*
G75*
G02*
X433334000Y-314058000I0J200000D01*
G01*
X433334000Y-313658000D01*
G75*
G02*
X433534000Y-313458000I200000J0D01*
G01*
G37*
%TD*%
%TO.C,R7*%
G36*
G01*
X430740000Y-315108000D02*
X431290000Y-315108000D01*
G75*
G02*
X431490000Y-315308000I0J-200000D01*
G01*
X431490000Y-315708000D01*
G75*
G02*
X431290000Y-315908000I-200000J0D01*
G01*
X430740000Y-315908000D01*
G75*
G02*
X430540000Y-315708000I0J200000D01*
G01*
X430540000Y-315308000D01*
G75*
G02*
X430740000Y-315108000I200000J0D01*
G01*
G37*
G36*
G01*
X430740000Y-313458000D02*
X431290000Y-313458000D01*
G75*
G02*
X431490000Y-313658000I0J-200000D01*
G01*
X431490000Y-314058000D01*
G75*
G02*
X431290000Y-314258000I-200000J0D01*
G01*
X430740000Y-314258000D01*
G75*
G02*
X430540000Y-314058000I0J200000D01*
G01*
X430540000Y-313658000D01*
G75*
G02*
X430740000Y-313458000I200000J0D01*
G01*
G37*
%TD*%
%TO.C,R6*%
G36*
G01*
X449917000Y-316886000D02*
X450467000Y-316886000D01*
G75*
G02*
X450667000Y-317086000I0J-200000D01*
G01*
X450667000Y-317486000D01*
G75*
G02*
X450467000Y-317686000I-200000J0D01*
G01*
X449917000Y-317686000D01*
G75*
G02*
X449717000Y-317486000I0J200000D01*
G01*
X449717000Y-317086000D01*
G75*
G02*
X449917000Y-316886000I200000J0D01*
G01*
G37*
G36*
G01*
X449917000Y-315236000D02*
X450467000Y-315236000D01*
G75*
G02*
X450667000Y-315436000I0J-200000D01*
G01*
X450667000Y-315836000D01*
G75*
G02*
X450467000Y-316036000I-200000J0D01*
G01*
X449917000Y-316036000D01*
G75*
G02*
X449717000Y-315836000I0J200000D01*
G01*
X449717000Y-315436000D01*
G75*
G02*
X449917000Y-315236000I200000J0D01*
G01*
G37*
%TD*%
%TO.C,R5*%
G36*
G01*
X449917000Y-313330000D02*
X450467000Y-313330000D01*
G75*
G02*
X450667000Y-313530000I0J-200000D01*
G01*
X450667000Y-313930000D01*
G75*
G02*
X450467000Y-314130000I-200000J0D01*
G01*
X449917000Y-314130000D01*
G75*
G02*
X449717000Y-313930000I0J200000D01*
G01*
X449717000Y-313530000D01*
G75*
G02*
X449917000Y-313330000I200000J0D01*
G01*
G37*
G36*
G01*
X449917000Y-311680000D02*
X450467000Y-311680000D01*
G75*
G02*
X450667000Y-311880000I0J-200000D01*
G01*
X450667000Y-312280000D01*
G75*
G02*
X450467000Y-312480000I-200000J0D01*
G01*
X449917000Y-312480000D01*
G75*
G02*
X449717000Y-312280000I0J200000D01*
G01*
X449717000Y-311880000D01*
G75*
G02*
X449917000Y-311680000I200000J0D01*
G01*
G37*
%TD*%
%TO.C,R4*%
G36*
G01*
X447250000Y-316886000D02*
X447800000Y-316886000D01*
G75*
G02*
X448000000Y-317086000I0J-200000D01*
G01*
X448000000Y-317486000D01*
G75*
G02*
X447800000Y-317686000I-200000J0D01*
G01*
X447250000Y-317686000D01*
G75*
G02*
X447050000Y-317486000I0J200000D01*
G01*
X447050000Y-317086000D01*
G75*
G02*
X447250000Y-316886000I200000J0D01*
G01*
G37*
G36*
G01*
X447250000Y-315236000D02*
X447800000Y-315236000D01*
G75*
G02*
X448000000Y-315436000I0J-200000D01*
G01*
X448000000Y-315836000D01*
G75*
G02*
X447800000Y-316036000I-200000J0D01*
G01*
X447250000Y-316036000D01*
G75*
G02*
X447050000Y-315836000I0J200000D01*
G01*
X447050000Y-315436000D01*
G75*
G02*
X447250000Y-315236000I200000J0D01*
G01*
G37*
%TD*%
%TO.C,R3*%
G36*
G01*
X447250000Y-313330000D02*
X447800000Y-313330000D01*
G75*
G02*
X448000000Y-313530000I0J-200000D01*
G01*
X448000000Y-313930000D01*
G75*
G02*
X447800000Y-314130000I-200000J0D01*
G01*
X447250000Y-314130000D01*
G75*
G02*
X447050000Y-313930000I0J200000D01*
G01*
X447050000Y-313530000D01*
G75*
G02*
X447250000Y-313330000I200000J0D01*
G01*
G37*
G36*
G01*
X447250000Y-311680000D02*
X447800000Y-311680000D01*
G75*
G02*
X448000000Y-311880000I0J-200000D01*
G01*
X448000000Y-312280000D01*
G75*
G02*
X447800000Y-312480000I-200000J0D01*
G01*
X447250000Y-312480000D01*
G75*
G02*
X447050000Y-312280000I0J200000D01*
G01*
X447050000Y-311880000D01*
G75*
G02*
X447250000Y-311680000I200000J0D01*
G01*
G37*
%TD*%
%TO.C,R2*%
G36*
G01*
X444583000Y-316886000D02*
X445133000Y-316886000D01*
G75*
G02*
X445333000Y-317086000I0J-200000D01*
G01*
X445333000Y-317486000D01*
G75*
G02*
X445133000Y-317686000I-200000J0D01*
G01*
X444583000Y-317686000D01*
G75*
G02*
X444383000Y-317486000I0J200000D01*
G01*
X444383000Y-317086000D01*
G75*
G02*
X444583000Y-316886000I200000J0D01*
G01*
G37*
G36*
G01*
X444583000Y-315236000D02*
X445133000Y-315236000D01*
G75*
G02*
X445333000Y-315436000I0J-200000D01*
G01*
X445333000Y-315836000D01*
G75*
G02*
X445133000Y-316036000I-200000J0D01*
G01*
X444583000Y-316036000D01*
G75*
G02*
X444383000Y-315836000I0J200000D01*
G01*
X444383000Y-315436000D01*
G75*
G02*
X444583000Y-315236000I200000J0D01*
G01*
G37*
%TD*%
%TO.C,R1*%
G36*
G01*
X444583000Y-313330000D02*
X445133000Y-313330000D01*
G75*
G02*
X445333000Y-313530000I0J-200000D01*
G01*
X445333000Y-313930000D01*
G75*
G02*
X445133000Y-314130000I-200000J0D01*
G01*
X444583000Y-314130000D01*
G75*
G02*
X444383000Y-313930000I0J200000D01*
G01*
X444383000Y-313530000D01*
G75*
G02*
X444583000Y-313330000I200000J0D01*
G01*
G37*
G36*
G01*
X444583000Y-311680000D02*
X445133000Y-311680000D01*
G75*
G02*
X445333000Y-311880000I0J-200000D01*
G01*
X445333000Y-312280000D01*
G75*
G02*
X445133000Y-312480000I-200000J0D01*
G01*
X444583000Y-312480000D01*
G75*
G02*
X444383000Y-312280000I0J200000D01*
G01*
X444383000Y-311880000D01*
G75*
G02*
X444583000Y-311680000I200000J0D01*
G01*
G37*
%TD*%
D10*
%TO.C,K1*%
X302665000Y-324508000D03*
X295165000Y-324508000D03*
D11*
X302665000Y-349708000D03*
D10*
X302665000Y-339708000D03*
X302665000Y-344708000D03*
X295165000Y-349708000D03*
X295165000Y-339708000D03*
D11*
X295165000Y-344708000D03*
%TD*%
D12*
%TO.C,J3*%
X389620000Y-313168000D03*
X389620000Y-315708000D03*
X387080000Y-313168000D03*
X387080000Y-315708000D03*
X384540000Y-313168000D03*
X384540000Y-315708000D03*
X382000000Y-313168000D03*
X382000000Y-315708000D03*
X379460000Y-313168000D03*
X379460000Y-315708000D03*
X376920000Y-313168000D03*
X376920000Y-315708000D03*
X374380000Y-313168000D03*
X374380000Y-315708000D03*
X371840000Y-313168000D03*
X371840000Y-315708000D03*
X369300000Y-313168000D03*
X369300000Y-315708000D03*
X366760000Y-313168000D03*
X366760000Y-315708000D03*
X364220000Y-313168000D03*
X364220000Y-315708000D03*
X361680000Y-313168000D03*
X361680000Y-315708000D03*
X359140000Y-313168000D03*
D13*
X359140000Y-315708000D03*
%TD*%
D10*
%TO.C,K2*%
X318665000Y-324508000D03*
X311165000Y-324508000D03*
D11*
X318665000Y-349708000D03*
D10*
X318665000Y-339708000D03*
X318665000Y-344708000D03*
X311165000Y-349708000D03*
X311165000Y-339708000D03*
D11*
X311165000Y-344708000D03*
%TD*%
D10*
%TO.C,K18*%
X409615000Y-304883000D03*
X417115000Y-304883000D03*
D14*
G36*
X410865000Y-278433000D02*
G01*
X410865000Y-280933000D01*
X408365000Y-280933000D01*
X408365000Y-278433000D01*
X410865000Y-278433000D01*
G37*
D10*
X409615000Y-289683000D03*
X409615000Y-284683000D03*
X417115000Y-279683000D03*
X417115000Y-289683000D03*
D14*
G36*
X418365000Y-283433000D02*
G01*
X418365000Y-285933000D01*
X415865000Y-285933000D01*
X415865000Y-283433000D01*
X418365000Y-283433000D01*
G37*
%TD*%
%TO.C,U4*%
G36*
G01*
X400610000Y-310933000D02*
X400310000Y-310933000D01*
G75*
G02*
X400160000Y-310783000I0J150000D01*
G01*
X400160000Y-309033000D01*
G75*
G02*
X400310000Y-308883000I150000J0D01*
G01*
X400610000Y-308883000D01*
G75*
G02*
X400760000Y-309033000I0J-150000D01*
G01*
X400760000Y-310783000D01*
G75*
G02*
X400610000Y-310933000I-150000J0D01*
G01*
G37*
G36*
G01*
X401880000Y-310933000D02*
X401580000Y-310933000D01*
G75*
G02*
X401430000Y-310783000I0J150000D01*
G01*
X401430000Y-309033000D01*
G75*
G02*
X401580000Y-308883000I150000J0D01*
G01*
X401880000Y-308883000D01*
G75*
G02*
X402030000Y-309033000I0J-150000D01*
G01*
X402030000Y-310783000D01*
G75*
G02*
X401880000Y-310933000I-150000J0D01*
G01*
G37*
G36*
G01*
X403150000Y-310933000D02*
X402850000Y-310933000D01*
G75*
G02*
X402700000Y-310783000I0J150000D01*
G01*
X402700000Y-309033000D01*
G75*
G02*
X402850000Y-308883000I150000J0D01*
G01*
X403150000Y-308883000D01*
G75*
G02*
X403300000Y-309033000I0J-150000D01*
G01*
X403300000Y-310783000D01*
G75*
G02*
X403150000Y-310933000I-150000J0D01*
G01*
G37*
G36*
G01*
X404420000Y-310933000D02*
X404120000Y-310933000D01*
G75*
G02*
X403970000Y-310783000I0J150000D01*
G01*
X403970000Y-309033000D01*
G75*
G02*
X404120000Y-308883000I150000J0D01*
G01*
X404420000Y-308883000D01*
G75*
G02*
X404570000Y-309033000I0J-150000D01*
G01*
X404570000Y-310783000D01*
G75*
G02*
X404420000Y-310933000I-150000J0D01*
G01*
G37*
G36*
G01*
X405690000Y-310933000D02*
X405390000Y-310933000D01*
G75*
G02*
X405240000Y-310783000I0J150000D01*
G01*
X405240000Y-309033000D01*
G75*
G02*
X405390000Y-308883000I150000J0D01*
G01*
X405690000Y-308883000D01*
G75*
G02*
X405840000Y-309033000I0J-150000D01*
G01*
X405840000Y-310783000D01*
G75*
G02*
X405690000Y-310933000I-150000J0D01*
G01*
G37*
G36*
G01*
X406960000Y-310933000D02*
X406660000Y-310933000D01*
G75*
G02*
X406510000Y-310783000I0J150000D01*
G01*
X406510000Y-309033000D01*
G75*
G02*
X406660000Y-308883000I150000J0D01*
G01*
X406960000Y-308883000D01*
G75*
G02*
X407110000Y-309033000I0J-150000D01*
G01*
X407110000Y-310783000D01*
G75*
G02*
X406960000Y-310933000I-150000J0D01*
G01*
G37*
G36*
G01*
X408230000Y-310933000D02*
X407930000Y-310933000D01*
G75*
G02*
X407780000Y-310783000I0J150000D01*
G01*
X407780000Y-309033000D01*
G75*
G02*
X407930000Y-308883000I150000J0D01*
G01*
X408230000Y-308883000D01*
G75*
G02*
X408380000Y-309033000I0J-150000D01*
G01*
X408380000Y-310783000D01*
G75*
G02*
X408230000Y-310933000I-150000J0D01*
G01*
G37*
G36*
G01*
X409500000Y-310933000D02*
X409200000Y-310933000D01*
G75*
G02*
X409050000Y-310783000I0J150000D01*
G01*
X409050000Y-309033000D01*
G75*
G02*
X409200000Y-308883000I150000J0D01*
G01*
X409500000Y-308883000D01*
G75*
G02*
X409650000Y-309033000I0J-150000D01*
G01*
X409650000Y-310783000D01*
G75*
G02*
X409500000Y-310933000I-150000J0D01*
G01*
G37*
G36*
G01*
X410770000Y-310933000D02*
X410470000Y-310933000D01*
G75*
G02*
X410320000Y-310783000I0J150000D01*
G01*
X410320000Y-309033000D01*
G75*
G02*
X410470000Y-308883000I150000J0D01*
G01*
X410770000Y-308883000D01*
G75*
G02*
X410920000Y-309033000I0J-150000D01*
G01*
X410920000Y-310783000D01*
G75*
G02*
X410770000Y-310933000I-150000J0D01*
G01*
G37*
G36*
G01*
X410770000Y-320233000D02*
X410470000Y-320233000D01*
G75*
G02*
X410320000Y-320083000I0J150000D01*
G01*
X410320000Y-318333000D01*
G75*
G02*
X410470000Y-318183000I150000J0D01*
G01*
X410770000Y-318183000D01*
G75*
G02*
X410920000Y-318333000I0J-150000D01*
G01*
X410920000Y-320083000D01*
G75*
G02*
X410770000Y-320233000I-150000J0D01*
G01*
G37*
G36*
G01*
X409500000Y-320233000D02*
X409200000Y-320233000D01*
G75*
G02*
X409050000Y-320083000I0J150000D01*
G01*
X409050000Y-318333000D01*
G75*
G02*
X409200000Y-318183000I150000J0D01*
G01*
X409500000Y-318183000D01*
G75*
G02*
X409650000Y-318333000I0J-150000D01*
G01*
X409650000Y-320083000D01*
G75*
G02*
X409500000Y-320233000I-150000J0D01*
G01*
G37*
G36*
G01*
X408230000Y-320233000D02*
X407930000Y-320233000D01*
G75*
G02*
X407780000Y-320083000I0J150000D01*
G01*
X407780000Y-318333000D01*
G75*
G02*
X407930000Y-318183000I150000J0D01*
G01*
X408230000Y-318183000D01*
G75*
G02*
X408380000Y-318333000I0J-150000D01*
G01*
X408380000Y-320083000D01*
G75*
G02*
X408230000Y-320233000I-150000J0D01*
G01*
G37*
G36*
G01*
X406960000Y-320233000D02*
X406660000Y-320233000D01*
G75*
G02*
X406510000Y-320083000I0J150000D01*
G01*
X406510000Y-318333000D01*
G75*
G02*
X406660000Y-318183000I150000J0D01*
G01*
X406960000Y-318183000D01*
G75*
G02*
X407110000Y-318333000I0J-150000D01*
G01*
X407110000Y-320083000D01*
G75*
G02*
X406960000Y-320233000I-150000J0D01*
G01*
G37*
G36*
G01*
X405690000Y-320233000D02*
X405390000Y-320233000D01*
G75*
G02*
X405240000Y-320083000I0J150000D01*
G01*
X405240000Y-318333000D01*
G75*
G02*
X405390000Y-318183000I150000J0D01*
G01*
X405690000Y-318183000D01*
G75*
G02*
X405840000Y-318333000I0J-150000D01*
G01*
X405840000Y-320083000D01*
G75*
G02*
X405690000Y-320233000I-150000J0D01*
G01*
G37*
G36*
G01*
X404420000Y-320233000D02*
X404120000Y-320233000D01*
G75*
G02*
X403970000Y-320083000I0J150000D01*
G01*
X403970000Y-318333000D01*
G75*
G02*
X404120000Y-318183000I150000J0D01*
G01*
X404420000Y-318183000D01*
G75*
G02*
X404570000Y-318333000I0J-150000D01*
G01*
X404570000Y-320083000D01*
G75*
G02*
X404420000Y-320233000I-150000J0D01*
G01*
G37*
G36*
G01*
X403150000Y-320233000D02*
X402850000Y-320233000D01*
G75*
G02*
X402700000Y-320083000I0J150000D01*
G01*
X402700000Y-318333000D01*
G75*
G02*
X402850000Y-318183000I150000J0D01*
G01*
X403150000Y-318183000D01*
G75*
G02*
X403300000Y-318333000I0J-150000D01*
G01*
X403300000Y-320083000D01*
G75*
G02*
X403150000Y-320233000I-150000J0D01*
G01*
G37*
G36*
G01*
X401880000Y-320233000D02*
X401580000Y-320233000D01*
G75*
G02*
X401430000Y-320083000I0J150000D01*
G01*
X401430000Y-318333000D01*
G75*
G02*
X401580000Y-318183000I150000J0D01*
G01*
X401880000Y-318183000D01*
G75*
G02*
X402030000Y-318333000I0J-150000D01*
G01*
X402030000Y-320083000D01*
G75*
G02*
X401880000Y-320233000I-150000J0D01*
G01*
G37*
G36*
G01*
X400610000Y-320233000D02*
X400310000Y-320233000D01*
G75*
G02*
X400160000Y-320083000I0J150000D01*
G01*
X400160000Y-318333000D01*
G75*
G02*
X400310000Y-318183000I150000J0D01*
G01*
X400610000Y-318183000D01*
G75*
G02*
X400760000Y-318333000I0J-150000D01*
G01*
X400760000Y-320083000D01*
G75*
G02*
X400610000Y-320233000I-150000J0D01*
G01*
G37*
%TD*%
%TO.C,U3*%
G36*
G01*
X346470000Y-317933000D02*
X346770000Y-317933000D01*
G75*
G02*
X346920000Y-318083000I0J-150000D01*
G01*
X346920000Y-319833000D01*
G75*
G02*
X346770000Y-319983000I-150000J0D01*
G01*
X346470000Y-319983000D01*
G75*
G02*
X346320000Y-319833000I0J150000D01*
G01*
X346320000Y-318083000D01*
G75*
G02*
X346470000Y-317933000I150000J0D01*
G01*
G37*
G36*
G01*
X345200000Y-317933000D02*
X345500000Y-317933000D01*
G75*
G02*
X345650000Y-318083000I0J-150000D01*
G01*
X345650000Y-319833000D01*
G75*
G02*
X345500000Y-319983000I-150000J0D01*
G01*
X345200000Y-319983000D01*
G75*
G02*
X345050000Y-319833000I0J150000D01*
G01*
X345050000Y-318083000D01*
G75*
G02*
X345200000Y-317933000I150000J0D01*
G01*
G37*
G36*
G01*
X343930000Y-317933000D02*
X344230000Y-317933000D01*
G75*
G02*
X344380000Y-318083000I0J-150000D01*
G01*
X344380000Y-319833000D01*
G75*
G02*
X344230000Y-319983000I-150000J0D01*
G01*
X343930000Y-319983000D01*
G75*
G02*
X343780000Y-319833000I0J150000D01*
G01*
X343780000Y-318083000D01*
G75*
G02*
X343930000Y-317933000I150000J0D01*
G01*
G37*
G36*
G01*
X342660000Y-317933000D02*
X342960000Y-317933000D01*
G75*
G02*
X343110000Y-318083000I0J-150000D01*
G01*
X343110000Y-319833000D01*
G75*
G02*
X342960000Y-319983000I-150000J0D01*
G01*
X342660000Y-319983000D01*
G75*
G02*
X342510000Y-319833000I0J150000D01*
G01*
X342510000Y-318083000D01*
G75*
G02*
X342660000Y-317933000I150000J0D01*
G01*
G37*
G36*
G01*
X341390000Y-317933000D02*
X341690000Y-317933000D01*
G75*
G02*
X341840000Y-318083000I0J-150000D01*
G01*
X341840000Y-319833000D01*
G75*
G02*
X341690000Y-319983000I-150000J0D01*
G01*
X341390000Y-319983000D01*
G75*
G02*
X341240000Y-319833000I0J150000D01*
G01*
X341240000Y-318083000D01*
G75*
G02*
X341390000Y-317933000I150000J0D01*
G01*
G37*
G36*
G01*
X340120000Y-317933000D02*
X340420000Y-317933000D01*
G75*
G02*
X340570000Y-318083000I0J-150000D01*
G01*
X340570000Y-319833000D01*
G75*
G02*
X340420000Y-319983000I-150000J0D01*
G01*
X340120000Y-319983000D01*
G75*
G02*
X339970000Y-319833000I0J150000D01*
G01*
X339970000Y-318083000D01*
G75*
G02*
X340120000Y-317933000I150000J0D01*
G01*
G37*
G36*
G01*
X338850000Y-317933000D02*
X339150000Y-317933000D01*
G75*
G02*
X339300000Y-318083000I0J-150000D01*
G01*
X339300000Y-319833000D01*
G75*
G02*
X339150000Y-319983000I-150000J0D01*
G01*
X338850000Y-319983000D01*
G75*
G02*
X338700000Y-319833000I0J150000D01*
G01*
X338700000Y-318083000D01*
G75*
G02*
X338850000Y-317933000I150000J0D01*
G01*
G37*
G36*
G01*
X337580000Y-317933000D02*
X337880000Y-317933000D01*
G75*
G02*
X338030000Y-318083000I0J-150000D01*
G01*
X338030000Y-319833000D01*
G75*
G02*
X337880000Y-319983000I-150000J0D01*
G01*
X337580000Y-319983000D01*
G75*
G02*
X337430000Y-319833000I0J150000D01*
G01*
X337430000Y-318083000D01*
G75*
G02*
X337580000Y-317933000I150000J0D01*
G01*
G37*
G36*
G01*
X336310000Y-317933000D02*
X336610000Y-317933000D01*
G75*
G02*
X336760000Y-318083000I0J-150000D01*
G01*
X336760000Y-319833000D01*
G75*
G02*
X336610000Y-319983000I-150000J0D01*
G01*
X336310000Y-319983000D01*
G75*
G02*
X336160000Y-319833000I0J150000D01*
G01*
X336160000Y-318083000D01*
G75*
G02*
X336310000Y-317933000I150000J0D01*
G01*
G37*
G36*
G01*
X336310000Y-308633000D02*
X336610000Y-308633000D01*
G75*
G02*
X336760000Y-308783000I0J-150000D01*
G01*
X336760000Y-310533000D01*
G75*
G02*
X336610000Y-310683000I-150000J0D01*
G01*
X336310000Y-310683000D01*
G75*
G02*
X336160000Y-310533000I0J150000D01*
G01*
X336160000Y-308783000D01*
G75*
G02*
X336310000Y-308633000I150000J0D01*
G01*
G37*
G36*
G01*
X337580000Y-308633000D02*
X337880000Y-308633000D01*
G75*
G02*
X338030000Y-308783000I0J-150000D01*
G01*
X338030000Y-310533000D01*
G75*
G02*
X337880000Y-310683000I-150000J0D01*
G01*
X337580000Y-310683000D01*
G75*
G02*
X337430000Y-310533000I0J150000D01*
G01*
X337430000Y-308783000D01*
G75*
G02*
X337580000Y-308633000I150000J0D01*
G01*
G37*
G36*
G01*
X338850000Y-308633000D02*
X339150000Y-308633000D01*
G75*
G02*
X339300000Y-308783000I0J-150000D01*
G01*
X339300000Y-310533000D01*
G75*
G02*
X339150000Y-310683000I-150000J0D01*
G01*
X338850000Y-310683000D01*
G75*
G02*
X338700000Y-310533000I0J150000D01*
G01*
X338700000Y-308783000D01*
G75*
G02*
X338850000Y-308633000I150000J0D01*
G01*
G37*
G36*
G01*
X340120000Y-308633000D02*
X340420000Y-308633000D01*
G75*
G02*
X340570000Y-308783000I0J-150000D01*
G01*
X340570000Y-310533000D01*
G75*
G02*
X340420000Y-310683000I-150000J0D01*
G01*
X340120000Y-310683000D01*
G75*
G02*
X339970000Y-310533000I0J150000D01*
G01*
X339970000Y-308783000D01*
G75*
G02*
X340120000Y-308633000I150000J0D01*
G01*
G37*
G36*
G01*
X341390000Y-308633000D02*
X341690000Y-308633000D01*
G75*
G02*
X341840000Y-308783000I0J-150000D01*
G01*
X341840000Y-310533000D01*
G75*
G02*
X341690000Y-310683000I-150000J0D01*
G01*
X341390000Y-310683000D01*
G75*
G02*
X341240000Y-310533000I0J150000D01*
G01*
X341240000Y-308783000D01*
G75*
G02*
X341390000Y-308633000I150000J0D01*
G01*
G37*
G36*
G01*
X342660000Y-308633000D02*
X342960000Y-308633000D01*
G75*
G02*
X343110000Y-308783000I0J-150000D01*
G01*
X343110000Y-310533000D01*
G75*
G02*
X342960000Y-310683000I-150000J0D01*
G01*
X342660000Y-310683000D01*
G75*
G02*
X342510000Y-310533000I0J150000D01*
G01*
X342510000Y-308783000D01*
G75*
G02*
X342660000Y-308633000I150000J0D01*
G01*
G37*
G36*
G01*
X343930000Y-308633000D02*
X344230000Y-308633000D01*
G75*
G02*
X344380000Y-308783000I0J-150000D01*
G01*
X344380000Y-310533000D01*
G75*
G02*
X344230000Y-310683000I-150000J0D01*
G01*
X343930000Y-310683000D01*
G75*
G02*
X343780000Y-310533000I0J150000D01*
G01*
X343780000Y-308783000D01*
G75*
G02*
X343930000Y-308633000I150000J0D01*
G01*
G37*
G36*
G01*
X345200000Y-308633000D02*
X345500000Y-308633000D01*
G75*
G02*
X345650000Y-308783000I0J-150000D01*
G01*
X345650000Y-310533000D01*
G75*
G02*
X345500000Y-310683000I-150000J0D01*
G01*
X345200000Y-310683000D01*
G75*
G02*
X345050000Y-310533000I0J150000D01*
G01*
X345050000Y-308783000D01*
G75*
G02*
X345200000Y-308633000I150000J0D01*
G01*
G37*
G36*
G01*
X346470000Y-308633000D02*
X346770000Y-308633000D01*
G75*
G02*
X346920000Y-308783000I0J-150000D01*
G01*
X346920000Y-310533000D01*
G75*
G02*
X346770000Y-310683000I-150000J0D01*
G01*
X346470000Y-310683000D01*
G75*
G02*
X346320000Y-310533000I0J150000D01*
G01*
X346320000Y-308783000D01*
G75*
G02*
X346470000Y-308633000I150000J0D01*
G01*
G37*
%TD*%
%TO.C,U2*%
G36*
G01*
X301410000Y-310933000D02*
X301110000Y-310933000D01*
G75*
G02*
X300960000Y-310783000I0J150000D01*
G01*
X300960000Y-309033000D01*
G75*
G02*
X301110000Y-308883000I150000J0D01*
G01*
X301410000Y-308883000D01*
G75*
G02*
X301560000Y-309033000I0J-150000D01*
G01*
X301560000Y-310783000D01*
G75*
G02*
X301410000Y-310933000I-150000J0D01*
G01*
G37*
G36*
G01*
X302680000Y-310933000D02*
X302380000Y-310933000D01*
G75*
G02*
X302230000Y-310783000I0J150000D01*
G01*
X302230000Y-309033000D01*
G75*
G02*
X302380000Y-308883000I150000J0D01*
G01*
X302680000Y-308883000D01*
G75*
G02*
X302830000Y-309033000I0J-150000D01*
G01*
X302830000Y-310783000D01*
G75*
G02*
X302680000Y-310933000I-150000J0D01*
G01*
G37*
G36*
G01*
X303950000Y-310933000D02*
X303650000Y-310933000D01*
G75*
G02*
X303500000Y-310783000I0J150000D01*
G01*
X303500000Y-309033000D01*
G75*
G02*
X303650000Y-308883000I150000J0D01*
G01*
X303950000Y-308883000D01*
G75*
G02*
X304100000Y-309033000I0J-150000D01*
G01*
X304100000Y-310783000D01*
G75*
G02*
X303950000Y-310933000I-150000J0D01*
G01*
G37*
G36*
G01*
X305220000Y-310933000D02*
X304920000Y-310933000D01*
G75*
G02*
X304770000Y-310783000I0J150000D01*
G01*
X304770000Y-309033000D01*
G75*
G02*
X304920000Y-308883000I150000J0D01*
G01*
X305220000Y-308883000D01*
G75*
G02*
X305370000Y-309033000I0J-150000D01*
G01*
X305370000Y-310783000D01*
G75*
G02*
X305220000Y-310933000I-150000J0D01*
G01*
G37*
G36*
G01*
X306490000Y-310933000D02*
X306190000Y-310933000D01*
G75*
G02*
X306040000Y-310783000I0J150000D01*
G01*
X306040000Y-309033000D01*
G75*
G02*
X306190000Y-308883000I150000J0D01*
G01*
X306490000Y-308883000D01*
G75*
G02*
X306640000Y-309033000I0J-150000D01*
G01*
X306640000Y-310783000D01*
G75*
G02*
X306490000Y-310933000I-150000J0D01*
G01*
G37*
G36*
G01*
X307760000Y-310933000D02*
X307460000Y-310933000D01*
G75*
G02*
X307310000Y-310783000I0J150000D01*
G01*
X307310000Y-309033000D01*
G75*
G02*
X307460000Y-308883000I150000J0D01*
G01*
X307760000Y-308883000D01*
G75*
G02*
X307910000Y-309033000I0J-150000D01*
G01*
X307910000Y-310783000D01*
G75*
G02*
X307760000Y-310933000I-150000J0D01*
G01*
G37*
G36*
G01*
X309030000Y-310933000D02*
X308730000Y-310933000D01*
G75*
G02*
X308580000Y-310783000I0J150000D01*
G01*
X308580000Y-309033000D01*
G75*
G02*
X308730000Y-308883000I150000J0D01*
G01*
X309030000Y-308883000D01*
G75*
G02*
X309180000Y-309033000I0J-150000D01*
G01*
X309180000Y-310783000D01*
G75*
G02*
X309030000Y-310933000I-150000J0D01*
G01*
G37*
G36*
G01*
X310300000Y-310933000D02*
X310000000Y-310933000D01*
G75*
G02*
X309850000Y-310783000I0J150000D01*
G01*
X309850000Y-309033000D01*
G75*
G02*
X310000000Y-308883000I150000J0D01*
G01*
X310300000Y-308883000D01*
G75*
G02*
X310450000Y-309033000I0J-150000D01*
G01*
X310450000Y-310783000D01*
G75*
G02*
X310300000Y-310933000I-150000J0D01*
G01*
G37*
G36*
G01*
X311570000Y-310933000D02*
X311270000Y-310933000D01*
G75*
G02*
X311120000Y-310783000I0J150000D01*
G01*
X311120000Y-309033000D01*
G75*
G02*
X311270000Y-308883000I150000J0D01*
G01*
X311570000Y-308883000D01*
G75*
G02*
X311720000Y-309033000I0J-150000D01*
G01*
X311720000Y-310783000D01*
G75*
G02*
X311570000Y-310933000I-150000J0D01*
G01*
G37*
G36*
G01*
X311570000Y-320233000D02*
X311270000Y-320233000D01*
G75*
G02*
X311120000Y-320083000I0J150000D01*
G01*
X311120000Y-318333000D01*
G75*
G02*
X311270000Y-318183000I150000J0D01*
G01*
X311570000Y-318183000D01*
G75*
G02*
X311720000Y-318333000I0J-150000D01*
G01*
X311720000Y-320083000D01*
G75*
G02*
X311570000Y-320233000I-150000J0D01*
G01*
G37*
G36*
G01*
X310300000Y-320233000D02*
X310000000Y-320233000D01*
G75*
G02*
X309850000Y-320083000I0J150000D01*
G01*
X309850000Y-318333000D01*
G75*
G02*
X310000000Y-318183000I150000J0D01*
G01*
X310300000Y-318183000D01*
G75*
G02*
X310450000Y-318333000I0J-150000D01*
G01*
X310450000Y-320083000D01*
G75*
G02*
X310300000Y-320233000I-150000J0D01*
G01*
G37*
G36*
G01*
X309030000Y-320233000D02*
X308730000Y-320233000D01*
G75*
G02*
X308580000Y-320083000I0J150000D01*
G01*
X308580000Y-318333000D01*
G75*
G02*
X308730000Y-318183000I150000J0D01*
G01*
X309030000Y-318183000D01*
G75*
G02*
X309180000Y-318333000I0J-150000D01*
G01*
X309180000Y-320083000D01*
G75*
G02*
X309030000Y-320233000I-150000J0D01*
G01*
G37*
G36*
G01*
X307760000Y-320233000D02*
X307460000Y-320233000D01*
G75*
G02*
X307310000Y-320083000I0J150000D01*
G01*
X307310000Y-318333000D01*
G75*
G02*
X307460000Y-318183000I150000J0D01*
G01*
X307760000Y-318183000D01*
G75*
G02*
X307910000Y-318333000I0J-150000D01*
G01*
X307910000Y-320083000D01*
G75*
G02*
X307760000Y-320233000I-150000J0D01*
G01*
G37*
G36*
G01*
X306490000Y-320233000D02*
X306190000Y-320233000D01*
G75*
G02*
X306040000Y-320083000I0J150000D01*
G01*
X306040000Y-318333000D01*
G75*
G02*
X306190000Y-318183000I150000J0D01*
G01*
X306490000Y-318183000D01*
G75*
G02*
X306640000Y-318333000I0J-150000D01*
G01*
X306640000Y-320083000D01*
G75*
G02*
X306490000Y-320233000I-150000J0D01*
G01*
G37*
G36*
G01*
X305220000Y-320233000D02*
X304920000Y-320233000D01*
G75*
G02*
X304770000Y-320083000I0J150000D01*
G01*
X304770000Y-318333000D01*
G75*
G02*
X304920000Y-318183000I150000J0D01*
G01*
X305220000Y-318183000D01*
G75*
G02*
X305370000Y-318333000I0J-150000D01*
G01*
X305370000Y-320083000D01*
G75*
G02*
X305220000Y-320233000I-150000J0D01*
G01*
G37*
G36*
G01*
X303950000Y-320233000D02*
X303650000Y-320233000D01*
G75*
G02*
X303500000Y-320083000I0J150000D01*
G01*
X303500000Y-318333000D01*
G75*
G02*
X303650000Y-318183000I150000J0D01*
G01*
X303950000Y-318183000D01*
G75*
G02*
X304100000Y-318333000I0J-150000D01*
G01*
X304100000Y-320083000D01*
G75*
G02*
X303950000Y-320233000I-150000J0D01*
G01*
G37*
G36*
G01*
X302680000Y-320233000D02*
X302380000Y-320233000D01*
G75*
G02*
X302230000Y-320083000I0J150000D01*
G01*
X302230000Y-318333000D01*
G75*
G02*
X302380000Y-318183000I150000J0D01*
G01*
X302680000Y-318183000D01*
G75*
G02*
X302830000Y-318333000I0J-150000D01*
G01*
X302830000Y-320083000D01*
G75*
G02*
X302680000Y-320233000I-150000J0D01*
G01*
G37*
G36*
G01*
X301410000Y-320233000D02*
X301110000Y-320233000D01*
G75*
G02*
X300960000Y-320083000I0J150000D01*
G01*
X300960000Y-318333000D01*
G75*
G02*
X301110000Y-318183000I150000J0D01*
G01*
X301410000Y-318183000D01*
G75*
G02*
X301560000Y-318333000I0J-150000D01*
G01*
X301560000Y-320083000D01*
G75*
G02*
X301410000Y-320233000I-150000J0D01*
G01*
G37*
%TD*%
D10*
%TO.C,K20*%
X442615000Y-304883000D03*
X450115000Y-304883000D03*
D14*
G36*
X443865000Y-278433000D02*
G01*
X443865000Y-280933000D01*
X441365000Y-280933000D01*
X441365000Y-278433000D01*
X443865000Y-278433000D01*
G37*
D10*
X442615000Y-289683000D03*
X442615000Y-284683000D03*
X450115000Y-279683000D03*
X450115000Y-289683000D03*
D14*
G36*
X451365000Y-283433000D02*
G01*
X451365000Y-285933000D01*
X448865000Y-285933000D01*
X448865000Y-283433000D01*
X451365000Y-283433000D01*
G37*
%TD*%
D10*
%TO.C,K19*%
X426615000Y-304883000D03*
X434115000Y-304883000D03*
D14*
G36*
X427865000Y-278433000D02*
G01*
X427865000Y-280933000D01*
X425365000Y-280933000D01*
X425365000Y-278433000D01*
X427865000Y-278433000D01*
G37*
D10*
X426615000Y-289683000D03*
X426615000Y-284683000D03*
X434115000Y-279683000D03*
X434115000Y-289683000D03*
D14*
G36*
X435365000Y-283433000D02*
G01*
X435365000Y-285933000D01*
X432865000Y-285933000D01*
X432865000Y-283433000D01*
X435365000Y-283433000D01*
G37*
%TD*%
D10*
%TO.C,K17*%
X393615000Y-304883000D03*
X401115000Y-304883000D03*
D14*
G36*
X394865000Y-278433000D02*
G01*
X394865000Y-280933000D01*
X392365000Y-280933000D01*
X392365000Y-278433000D01*
X394865000Y-278433000D01*
G37*
D10*
X393615000Y-289683000D03*
X393615000Y-284683000D03*
X401115000Y-279683000D03*
X401115000Y-289683000D03*
D14*
G36*
X402365000Y-283433000D02*
G01*
X402365000Y-285933000D01*
X399865000Y-285933000D01*
X399865000Y-283433000D01*
X402365000Y-283433000D01*
G37*
%TD*%
D10*
%TO.C,K13*%
X376615000Y-304883000D03*
X384115000Y-304883000D03*
D14*
G36*
X377865000Y-278433000D02*
G01*
X377865000Y-280933000D01*
X375365000Y-280933000D01*
X375365000Y-278433000D01*
X377865000Y-278433000D01*
G37*
D10*
X376615000Y-289683000D03*
X376615000Y-284683000D03*
X384115000Y-279683000D03*
X384115000Y-289683000D03*
D14*
G36*
X385365000Y-283433000D02*
G01*
X385365000Y-285933000D01*
X382865000Y-285933000D01*
X382865000Y-283433000D01*
X385365000Y-283433000D01*
G37*
%TD*%
D10*
%TO.C,K14*%
X360615000Y-304883000D03*
X368115000Y-304883000D03*
D14*
G36*
X361865000Y-278433000D02*
G01*
X361865000Y-280933000D01*
X359365000Y-280933000D01*
X359365000Y-278433000D01*
X361865000Y-278433000D01*
G37*
D10*
X360615000Y-289683000D03*
X360615000Y-284683000D03*
X368115000Y-279683000D03*
X368115000Y-289683000D03*
D14*
G36*
X369365000Y-283433000D02*
G01*
X369365000Y-285933000D01*
X366865000Y-285933000D01*
X366865000Y-283433000D01*
X369365000Y-283433000D01*
G37*
%TD*%
D10*
%TO.C,K15*%
X343615000Y-304883000D03*
X351115000Y-304883000D03*
D14*
G36*
X344865000Y-278433000D02*
G01*
X344865000Y-280933000D01*
X342365000Y-280933000D01*
X342365000Y-278433000D01*
X344865000Y-278433000D01*
G37*
D10*
X343615000Y-289683000D03*
X343615000Y-284683000D03*
X351115000Y-279683000D03*
X351115000Y-289683000D03*
D14*
G36*
X352365000Y-283433000D02*
G01*
X352365000Y-285933000D01*
X349865000Y-285933000D01*
X349865000Y-283433000D01*
X352365000Y-283433000D01*
G37*
%TD*%
D10*
%TO.C,K16*%
X327615000Y-304883000D03*
X335115000Y-304883000D03*
D14*
G36*
X328865000Y-278433000D02*
G01*
X328865000Y-280933000D01*
X326365000Y-280933000D01*
X326365000Y-278433000D01*
X328865000Y-278433000D01*
G37*
D10*
X327615000Y-289683000D03*
X327615000Y-284683000D03*
X335115000Y-279683000D03*
X335115000Y-289683000D03*
D14*
G36*
X336365000Y-283433000D02*
G01*
X336365000Y-285933000D01*
X333865000Y-285933000D01*
X333865000Y-283433000D01*
X336365000Y-283433000D01*
G37*
%TD*%
D10*
%TO.C,K12*%
X310615000Y-304883000D03*
X318115000Y-304883000D03*
D14*
G36*
X311865000Y-278433000D02*
G01*
X311865000Y-280933000D01*
X309365000Y-280933000D01*
X309365000Y-278433000D01*
X311865000Y-278433000D01*
G37*
D10*
X310615000Y-289683000D03*
X310615000Y-284683000D03*
X318115000Y-279683000D03*
X318115000Y-289683000D03*
D14*
G36*
X319365000Y-283433000D02*
G01*
X319365000Y-285933000D01*
X316865000Y-285933000D01*
X316865000Y-283433000D01*
X319365000Y-283433000D01*
G37*
%TD*%
D10*
%TO.C,K11*%
X294615000Y-304883000D03*
X302115000Y-304883000D03*
D14*
G36*
X295865000Y-278433000D02*
G01*
X295865000Y-280933000D01*
X293365000Y-280933000D01*
X293365000Y-278433000D01*
X295865000Y-278433000D01*
G37*
D10*
X294615000Y-289683000D03*
X294615000Y-284683000D03*
X302115000Y-279683000D03*
X302115000Y-289683000D03*
D14*
G36*
X303365000Y-283433000D02*
G01*
X303365000Y-285933000D01*
X300865000Y-285933000D01*
X300865000Y-283433000D01*
X303365000Y-283433000D01*
G37*
%TD*%
D10*
%TO.C,K10*%
X450665000Y-324508000D03*
X443165000Y-324508000D03*
D11*
X450665000Y-349708000D03*
D10*
X450665000Y-339708000D03*
X450665000Y-344708000D03*
X443165000Y-349708000D03*
X443165000Y-339708000D03*
D11*
X443165000Y-344708000D03*
%TD*%
D10*
%TO.C,K9*%
X434665000Y-324508000D03*
X427165000Y-324508000D03*
D14*
G36*
X433415000Y-350958000D02*
G01*
X433415000Y-348458000D01*
X435915000Y-348458000D01*
X435915000Y-350958000D01*
X433415000Y-350958000D01*
G37*
D10*
X434665000Y-339708000D03*
X434665000Y-344708000D03*
X427165000Y-349708000D03*
X427165000Y-339708000D03*
D14*
G36*
X425915000Y-345958000D02*
G01*
X425915000Y-343458000D01*
X428415000Y-343458000D01*
X428415000Y-345958000D01*
X425915000Y-345958000D01*
G37*
%TD*%
D10*
%TO.C,K8*%
X417665000Y-324508000D03*
X410165000Y-324508000D03*
D14*
G36*
X416415000Y-350958000D02*
G01*
X416415000Y-348458000D01*
X418915000Y-348458000D01*
X418915000Y-350958000D01*
X416415000Y-350958000D01*
G37*
D10*
X417665000Y-339708000D03*
X417665000Y-344708000D03*
X410165000Y-349708000D03*
X410165000Y-339708000D03*
D14*
G36*
X408915000Y-345958000D02*
G01*
X408915000Y-343458000D01*
X411415000Y-343458000D01*
X411415000Y-345958000D01*
X408915000Y-345958000D01*
G37*
%TD*%
D10*
%TO.C,K7*%
X401665000Y-324508000D03*
X394165000Y-324508000D03*
D14*
G36*
X400415000Y-350958000D02*
G01*
X400415000Y-348458000D01*
X402915000Y-348458000D01*
X402915000Y-350958000D01*
X400415000Y-350958000D01*
G37*
D10*
X401665000Y-339708000D03*
X401665000Y-344708000D03*
X394165000Y-349708000D03*
X394165000Y-339708000D03*
D14*
G36*
X392915000Y-345958000D02*
G01*
X392915000Y-343458000D01*
X395415000Y-343458000D01*
X395415000Y-345958000D01*
X392915000Y-345958000D01*
G37*
%TD*%
D10*
%TO.C,K6*%
X384665000Y-324508000D03*
X377165000Y-324508000D03*
D14*
G36*
X383415000Y-350958000D02*
G01*
X383415000Y-348458000D01*
X385915000Y-348458000D01*
X385915000Y-350958000D01*
X383415000Y-350958000D01*
G37*
D10*
X384665000Y-339708000D03*
X384665000Y-344708000D03*
X377165000Y-349708000D03*
X377165000Y-339708000D03*
D11*
X377165000Y-344708000D03*
%TD*%
D10*
%TO.C,K5*%
X368665000Y-324508000D03*
X361165000Y-324508000D03*
D11*
X368665000Y-349708000D03*
D10*
X368665000Y-339708000D03*
X368665000Y-344708000D03*
X361165000Y-349708000D03*
X361165000Y-339708000D03*
D11*
X361165000Y-344708000D03*
%TD*%
D10*
%TO.C,K4*%
X351665000Y-324508000D03*
X344165000Y-324508000D03*
D11*
X351665000Y-349708000D03*
D10*
X351665000Y-339708000D03*
X351665000Y-344708000D03*
X344165000Y-349708000D03*
X344165000Y-339708000D03*
D11*
X344165000Y-344708000D03*
%TD*%
D10*
%TO.C,K3*%
X335665000Y-324508000D03*
X328165000Y-324508000D03*
D11*
X335665000Y-349708000D03*
D10*
X335665000Y-339708000D03*
X335665000Y-344708000D03*
X328165000Y-349708000D03*
X328165000Y-339708000D03*
D11*
X328165000Y-344708000D03*
%TD*%
%TO.C,J1*%
G36*
G01*
X316940000Y-356958000D02*
X316940000Y-354408000D01*
G75*
G02*
X317565000Y-353783000I625000J0D01*
G01*
X318815000Y-353783000D01*
G75*
G02*
X319440000Y-354408000I0J-625000D01*
G01*
X319440000Y-356958000D01*
G75*
G02*
X318815000Y-357583000I-625000J0D01*
G01*
X317565000Y-357583000D01*
G75*
G02*
X316940000Y-356958000I0J625000D01*
G01*
G37*
G36*
G01*
X309440000Y-356958000D02*
X309440000Y-354408000D01*
G75*
G02*
X310065000Y-353783000I625000J0D01*
G01*
X311315000Y-353783000D01*
G75*
G02*
X311940000Y-354408000I0J-625000D01*
G01*
X311940000Y-356958000D01*
G75*
G02*
X311315000Y-357583000I-625000J0D01*
G01*
X310065000Y-357583000D01*
G75*
G02*
X309440000Y-356958000I0J625000D01*
G01*
G37*
G36*
G01*
X301940000Y-357270500D02*
X301940000Y-354095500D01*
G75*
G02*
X302252500Y-353783000I312500J0D01*
G01*
X304127500Y-353783000D01*
G75*
G02*
X304440000Y-354095500I0J-312500D01*
G01*
X304440000Y-357270500D01*
G75*
G02*
X304127500Y-357583000I-312500J0D01*
G01*
X302252500Y-357583000D01*
G75*
G02*
X301940000Y-357270500I0J312500D01*
G01*
G37*
G36*
G01*
X294440000Y-357270500D02*
X294440000Y-354095500D01*
G75*
G02*
X294752500Y-353783000I312500J0D01*
G01*
X296627500Y-353783000D01*
G75*
G02*
X296940000Y-354095500I0J-312500D01*
G01*
X296940000Y-357270500D01*
G75*
G02*
X296627500Y-357583000I-312500J0D01*
G01*
X294752500Y-357583000D01*
G75*
G02*
X294440000Y-357270500I0J312500D01*
G01*
G37*
%TD*%
%TO.C,J11*%
G36*
G01*
X428440000Y-272508000D02*
X428440000Y-275058000D01*
G75*
G02*
X427815000Y-275683000I-625000J0D01*
G01*
X426565000Y-275683000D01*
G75*
G02*
X425940000Y-275058000I0J625000D01*
G01*
X425940000Y-272508000D01*
G75*
G02*
X426565000Y-271883000I625000J0D01*
G01*
X427815000Y-271883000D01*
G75*
G02*
X428440000Y-272508000I0J-625000D01*
G01*
G37*
G36*
G01*
X435940000Y-272508000D02*
X435940000Y-275058000D01*
G75*
G02*
X435315000Y-275683000I-625000J0D01*
G01*
X434065000Y-275683000D01*
G75*
G02*
X433440000Y-275058000I0J625000D01*
G01*
X433440000Y-272508000D01*
G75*
G02*
X434065000Y-271883000I625000J0D01*
G01*
X435315000Y-271883000D01*
G75*
G02*
X435940000Y-272508000I0J-625000D01*
G01*
G37*
G36*
G01*
X443440000Y-272508000D02*
X443440000Y-275058000D01*
G75*
G02*
X442815000Y-275683000I-625000J0D01*
G01*
X441565000Y-275683000D01*
G75*
G02*
X440940000Y-275058000I0J625000D01*
G01*
X440940000Y-272508000D01*
G75*
G02*
X441565000Y-271883000I625000J0D01*
G01*
X442815000Y-271883000D01*
G75*
G02*
X443440000Y-272508000I0J-625000D01*
G01*
G37*
G36*
G01*
X450940000Y-272195500D02*
X450940000Y-275370500D01*
G75*
G02*
X450627500Y-275683000I-312500J0D01*
G01*
X448752500Y-275683000D01*
G75*
G02*
X448440000Y-275370500I0J312500D01*
G01*
X448440000Y-272195500D01*
G75*
G02*
X448752500Y-271883000I312500J0D01*
G01*
X450627500Y-271883000D01*
G75*
G02*
X450940000Y-272195500I0J-312500D01*
G01*
G37*
%TD*%
%TO.C,J10*%
G36*
G01*
X395440000Y-272483000D02*
X395440000Y-275033000D01*
G75*
G02*
X394815000Y-275658000I-625000J0D01*
G01*
X393565000Y-275658000D01*
G75*
G02*
X392940000Y-275033000I0J625000D01*
G01*
X392940000Y-272483000D01*
G75*
G02*
X393565000Y-271858000I625000J0D01*
G01*
X394815000Y-271858000D01*
G75*
G02*
X395440000Y-272483000I0J-625000D01*
G01*
G37*
G36*
G01*
X402940000Y-272483000D02*
X402940000Y-275033000D01*
G75*
G02*
X402315000Y-275658000I-625000J0D01*
G01*
X401065000Y-275658000D01*
G75*
G02*
X400440000Y-275033000I0J625000D01*
G01*
X400440000Y-272483000D01*
G75*
G02*
X401065000Y-271858000I625000J0D01*
G01*
X402315000Y-271858000D01*
G75*
G02*
X402940000Y-272483000I0J-625000D01*
G01*
G37*
G36*
G01*
X410440000Y-272483000D02*
X410440000Y-275033000D01*
G75*
G02*
X409815000Y-275658000I-625000J0D01*
G01*
X408565000Y-275658000D01*
G75*
G02*
X407940000Y-275033000I0J625000D01*
G01*
X407940000Y-272483000D01*
G75*
G02*
X408565000Y-271858000I625000J0D01*
G01*
X409815000Y-271858000D01*
G75*
G02*
X410440000Y-272483000I0J-625000D01*
G01*
G37*
G36*
G01*
X417940000Y-272170500D02*
X417940000Y-275345500D01*
G75*
G02*
X417627500Y-275658000I-312500J0D01*
G01*
X415752500Y-275658000D01*
G75*
G02*
X415440000Y-275345500I0J312500D01*
G01*
X415440000Y-272170500D01*
G75*
G02*
X415752500Y-271858000I312500J0D01*
G01*
X417627500Y-271858000D01*
G75*
G02*
X417940000Y-272170500I0J-312500D01*
G01*
G37*
%TD*%
%TO.C,J9*%
G36*
G01*
X329440000Y-272483000D02*
X329440000Y-275033000D01*
G75*
G02*
X328815000Y-275658000I-625000J0D01*
G01*
X327565000Y-275658000D01*
G75*
G02*
X326940000Y-275033000I0J625000D01*
G01*
X326940000Y-272483000D01*
G75*
G02*
X327565000Y-271858000I625000J0D01*
G01*
X328815000Y-271858000D01*
G75*
G02*
X329440000Y-272483000I0J-625000D01*
G01*
G37*
G36*
G01*
X336940000Y-272483000D02*
X336940000Y-275033000D01*
G75*
G02*
X336315000Y-275658000I-625000J0D01*
G01*
X335065000Y-275658000D01*
G75*
G02*
X334440000Y-275033000I0J625000D01*
G01*
X334440000Y-272483000D01*
G75*
G02*
X335065000Y-271858000I625000J0D01*
G01*
X336315000Y-271858000D01*
G75*
G02*
X336940000Y-272483000I0J-625000D01*
G01*
G37*
G36*
G01*
X344440000Y-272483000D02*
X344440000Y-275033000D01*
G75*
G02*
X343815000Y-275658000I-625000J0D01*
G01*
X342565000Y-275658000D01*
G75*
G02*
X341940000Y-275033000I0J625000D01*
G01*
X341940000Y-272483000D01*
G75*
G02*
X342565000Y-271858000I625000J0D01*
G01*
X343815000Y-271858000D01*
G75*
G02*
X344440000Y-272483000I0J-625000D01*
G01*
G37*
G36*
G01*
X351940000Y-272170500D02*
X351940000Y-275345500D01*
G75*
G02*
X351627500Y-275658000I-312500J0D01*
G01*
X349752500Y-275658000D01*
G75*
G02*
X349440000Y-275345500I0J312500D01*
G01*
X349440000Y-272170500D01*
G75*
G02*
X349752500Y-271858000I312500J0D01*
G01*
X351627500Y-271858000D01*
G75*
G02*
X351940000Y-272170500I0J-312500D01*
G01*
G37*
%TD*%
%TO.C,J8*%
G36*
G01*
X362440000Y-272483000D02*
X362440000Y-275033000D01*
G75*
G02*
X361815000Y-275658000I-625000J0D01*
G01*
X360565000Y-275658000D01*
G75*
G02*
X359940000Y-275033000I0J625000D01*
G01*
X359940000Y-272483000D01*
G75*
G02*
X360565000Y-271858000I625000J0D01*
G01*
X361815000Y-271858000D01*
G75*
G02*
X362440000Y-272483000I0J-625000D01*
G01*
G37*
G36*
G01*
X369940000Y-272483000D02*
X369940000Y-275033000D01*
G75*
G02*
X369315000Y-275658000I-625000J0D01*
G01*
X368065000Y-275658000D01*
G75*
G02*
X367440000Y-275033000I0J625000D01*
G01*
X367440000Y-272483000D01*
G75*
G02*
X368065000Y-271858000I625000J0D01*
G01*
X369315000Y-271858000D01*
G75*
G02*
X369940000Y-272483000I0J-625000D01*
G01*
G37*
G36*
G01*
X377440000Y-272483000D02*
X377440000Y-275033000D01*
G75*
G02*
X376815000Y-275658000I-625000J0D01*
G01*
X375565000Y-275658000D01*
G75*
G02*
X374940000Y-275033000I0J625000D01*
G01*
X374940000Y-272483000D01*
G75*
G02*
X375565000Y-271858000I625000J0D01*
G01*
X376815000Y-271858000D01*
G75*
G02*
X377440000Y-272483000I0J-625000D01*
G01*
G37*
G36*
G01*
X384940000Y-272170500D02*
X384940000Y-275345500D01*
G75*
G02*
X384627500Y-275658000I-312500J0D01*
G01*
X382752500Y-275658000D01*
G75*
G02*
X382440000Y-275345500I0J312500D01*
G01*
X382440000Y-272170500D01*
G75*
G02*
X382752500Y-271858000I312500J0D01*
G01*
X384627500Y-271858000D01*
G75*
G02*
X384940000Y-272170500I0J-312500D01*
G01*
G37*
%TD*%
%TO.C,J7*%
G36*
G01*
X296465000Y-272483000D02*
X296465000Y-275033000D01*
G75*
G02*
X295840000Y-275658000I-625000J0D01*
G01*
X294590000Y-275658000D01*
G75*
G02*
X293965000Y-275033000I0J625000D01*
G01*
X293965000Y-272483000D01*
G75*
G02*
X294590000Y-271858000I625000J0D01*
G01*
X295840000Y-271858000D01*
G75*
G02*
X296465000Y-272483000I0J-625000D01*
G01*
G37*
G36*
G01*
X303965000Y-272483000D02*
X303965000Y-275033000D01*
G75*
G02*
X303340000Y-275658000I-625000J0D01*
G01*
X302090000Y-275658000D01*
G75*
G02*
X301465000Y-275033000I0J625000D01*
G01*
X301465000Y-272483000D01*
G75*
G02*
X302090000Y-271858000I625000J0D01*
G01*
X303340000Y-271858000D01*
G75*
G02*
X303965000Y-272483000I0J-625000D01*
G01*
G37*
G36*
G01*
X311465000Y-272483000D02*
X311465000Y-275033000D01*
G75*
G02*
X310840000Y-275658000I-625000J0D01*
G01*
X309590000Y-275658000D01*
G75*
G02*
X308965000Y-275033000I0J625000D01*
G01*
X308965000Y-272483000D01*
G75*
G02*
X309590000Y-271858000I625000J0D01*
G01*
X310840000Y-271858000D01*
G75*
G02*
X311465000Y-272483000I0J-625000D01*
G01*
G37*
G36*
G01*
X318965000Y-272170500D02*
X318965000Y-275345500D01*
G75*
G02*
X318652500Y-275658000I-312500J0D01*
G01*
X316777500Y-275658000D01*
G75*
G02*
X316465000Y-275345500I0J312500D01*
G01*
X316465000Y-272170500D01*
G75*
G02*
X316777500Y-271858000I312500J0D01*
G01*
X318652500Y-271858000D01*
G75*
G02*
X318965000Y-272170500I0J-312500D01*
G01*
G37*
%TD*%
%TO.C,J6*%
G36*
G01*
X448940000Y-356958000D02*
X448940000Y-354408000D01*
G75*
G02*
X449565000Y-353783000I625000J0D01*
G01*
X450815000Y-353783000D01*
G75*
G02*
X451440000Y-354408000I0J-625000D01*
G01*
X451440000Y-356958000D01*
G75*
G02*
X450815000Y-357583000I-625000J0D01*
G01*
X449565000Y-357583000D01*
G75*
G02*
X448940000Y-356958000I0J625000D01*
G01*
G37*
G36*
G01*
X441440000Y-356958000D02*
X441440000Y-354408000D01*
G75*
G02*
X442065000Y-353783000I625000J0D01*
G01*
X443315000Y-353783000D01*
G75*
G02*
X443940000Y-354408000I0J-625000D01*
G01*
X443940000Y-356958000D01*
G75*
G02*
X443315000Y-357583000I-625000J0D01*
G01*
X442065000Y-357583000D01*
G75*
G02*
X441440000Y-356958000I0J625000D01*
G01*
G37*
G36*
G01*
X433940000Y-356958000D02*
X433940000Y-354408000D01*
G75*
G02*
X434565000Y-353783000I625000J0D01*
G01*
X435815000Y-353783000D01*
G75*
G02*
X436440000Y-354408000I0J-625000D01*
G01*
X436440000Y-356958000D01*
G75*
G02*
X435815000Y-357583000I-625000J0D01*
G01*
X434565000Y-357583000D01*
G75*
G02*
X433940000Y-356958000I0J625000D01*
G01*
G37*
G36*
G01*
X426440000Y-357270500D02*
X426440000Y-354095500D01*
G75*
G02*
X426752500Y-353783000I312500J0D01*
G01*
X428627500Y-353783000D01*
G75*
G02*
X428940000Y-354095500I0J-312500D01*
G01*
X428940000Y-357270500D01*
G75*
G02*
X428627500Y-357583000I-312500J0D01*
G01*
X426752500Y-357583000D01*
G75*
G02*
X426440000Y-357270500I0J312500D01*
G01*
G37*
%TD*%
%TO.C,J5*%
G36*
G01*
X415940000Y-356958000D02*
X415940000Y-354408000D01*
G75*
G02*
X416565000Y-353783000I625000J0D01*
G01*
X417815000Y-353783000D01*
G75*
G02*
X418440000Y-354408000I0J-625000D01*
G01*
X418440000Y-356958000D01*
G75*
G02*
X417815000Y-357583000I-625000J0D01*
G01*
X416565000Y-357583000D01*
G75*
G02*
X415940000Y-356958000I0J625000D01*
G01*
G37*
G36*
G01*
X408440000Y-357270500D02*
X408440000Y-354095500D01*
G75*
G02*
X408752500Y-353783000I312500J0D01*
G01*
X410627500Y-353783000D01*
G75*
G02*
X410940000Y-354095500I0J-312500D01*
G01*
X410940000Y-357270500D01*
G75*
G02*
X410627500Y-357583000I-312500J0D01*
G01*
X408752500Y-357583000D01*
G75*
G02*
X408440000Y-357270500I0J312500D01*
G01*
G37*
G36*
G01*
X400940000Y-356958000D02*
X400940000Y-354408000D01*
G75*
G02*
X401565000Y-353783000I625000J0D01*
G01*
X402815000Y-353783000D01*
G75*
G02*
X403440000Y-354408000I0J-625000D01*
G01*
X403440000Y-356958000D01*
G75*
G02*
X402815000Y-357583000I-625000J0D01*
G01*
X401565000Y-357583000D01*
G75*
G02*
X400940000Y-356958000I0J625000D01*
G01*
G37*
G36*
G01*
X393440000Y-357270500D02*
X393440000Y-354095500D01*
G75*
G02*
X393752500Y-353783000I312500J0D01*
G01*
X395627500Y-353783000D01*
G75*
G02*
X395940000Y-354095500I0J-312500D01*
G01*
X395940000Y-357270500D01*
G75*
G02*
X395627500Y-357583000I-312500J0D01*
G01*
X393752500Y-357583000D01*
G75*
G02*
X393440000Y-357270500I0J312500D01*
G01*
G37*
%TD*%
%TO.C,J4*%
G36*
G01*
X382940000Y-356958000D02*
X382940000Y-354408000D01*
G75*
G02*
X383565000Y-353783000I625000J0D01*
G01*
X384815000Y-353783000D01*
G75*
G02*
X385440000Y-354408000I0J-625000D01*
G01*
X385440000Y-356958000D01*
G75*
G02*
X384815000Y-357583000I-625000J0D01*
G01*
X383565000Y-357583000D01*
G75*
G02*
X382940000Y-356958000I0J625000D01*
G01*
G37*
G36*
G01*
X375440000Y-356958000D02*
X375440000Y-354408000D01*
G75*
G02*
X376065000Y-353783000I625000J0D01*
G01*
X377315000Y-353783000D01*
G75*
G02*
X377940000Y-354408000I0J-625000D01*
G01*
X377940000Y-356958000D01*
G75*
G02*
X377315000Y-357583000I-625000J0D01*
G01*
X376065000Y-357583000D01*
G75*
G02*
X375440000Y-356958000I0J625000D01*
G01*
G37*
G36*
G01*
X367940000Y-356958000D02*
X367940000Y-354408000D01*
G75*
G02*
X368565000Y-353783000I625000J0D01*
G01*
X369815000Y-353783000D01*
G75*
G02*
X370440000Y-354408000I0J-625000D01*
G01*
X370440000Y-356958000D01*
G75*
G02*
X369815000Y-357583000I-625000J0D01*
G01*
X368565000Y-357583000D01*
G75*
G02*
X367940000Y-356958000I0J625000D01*
G01*
G37*
G36*
G01*
X360440000Y-357270500D02*
X360440000Y-354095500D01*
G75*
G02*
X360752500Y-353783000I312500J0D01*
G01*
X362627500Y-353783000D01*
G75*
G02*
X362940000Y-354095500I0J-312500D01*
G01*
X362940000Y-357270500D01*
G75*
G02*
X362627500Y-357583000I-312500J0D01*
G01*
X360752500Y-357583000D01*
G75*
G02*
X360440000Y-357270500I0J312500D01*
G01*
G37*
%TD*%
%TO.C,J2*%
G36*
G01*
X349940000Y-356958000D02*
X349940000Y-354408000D01*
G75*
G02*
X350565000Y-353783000I625000J0D01*
G01*
X351815000Y-353783000D01*
G75*
G02*
X352440000Y-354408000I0J-625000D01*
G01*
X352440000Y-356958000D01*
G75*
G02*
X351815000Y-357583000I-625000J0D01*
G01*
X350565000Y-357583000D01*
G75*
G02*
X349940000Y-356958000I0J625000D01*
G01*
G37*
G36*
G01*
X342440000Y-356958000D02*
X342440000Y-354408000D01*
G75*
G02*
X343065000Y-353783000I625000J0D01*
G01*
X344315000Y-353783000D01*
G75*
G02*
X344940000Y-354408000I0J-625000D01*
G01*
X344940000Y-356958000D01*
G75*
G02*
X344315000Y-357583000I-625000J0D01*
G01*
X343065000Y-357583000D01*
G75*
G02*
X342440000Y-356958000I0J625000D01*
G01*
G37*
G36*
G01*
X334940000Y-356958000D02*
X334940000Y-354408000D01*
G75*
G02*
X335565000Y-353783000I625000J0D01*
G01*
X336815000Y-353783000D01*
G75*
G02*
X337440000Y-354408000I0J-625000D01*
G01*
X337440000Y-356958000D01*
G75*
G02*
X336815000Y-357583000I-625000J0D01*
G01*
X335565000Y-357583000D01*
G75*
G02*
X334940000Y-356958000I0J625000D01*
G01*
G37*
G36*
G01*
X327440000Y-357270500D02*
X327440000Y-354095500D01*
G75*
G02*
X327752500Y-353783000I312500J0D01*
G01*
X329627500Y-353783000D01*
G75*
G02*
X329940000Y-354095500I0J-312500D01*
G01*
X329940000Y-357270500D01*
G75*
G02*
X329627500Y-357583000I-312500J0D01*
G01*
X327752500Y-357583000D01*
G75*
G02*
X327440000Y-357270500I0J312500D01*
G01*
G37*
%TD*%
M02*
