M48
; DRILL file {KiCad (5.1.10)-1} date 10/27/21 16:31:32
; FORMAT={-:-/ absolute / inch / decimal}
; #@! TF.CreationDate,2021-10-27T16:31:32+02:00
; #@! TF.GenerationSoftware,Kicad,Pcbnew,(5.1.10)-1
; #@! TF.FileFunction,Plated,1,2,PTH
FMAT,2
INCH
T1C0.0157
T2C0.0197
T3C0.0394
T4C0.0512
T5C0.0551
%
G90
G05
T1
X11.4091Y-11.7759
X11.4091Y-11.8468
X11.4091Y-11.9275
X11.4091Y-11.9983
X11.4091Y-12.0791
X11.4091Y-11.7091
X11.415Y-12.6735
X11.415Y-12.7444
X11.415Y-12.8251
X11.415Y-12.896
X11.415Y-12.9767
X11.415Y-13.0594
X11.7161Y-12.2306
X11.7161Y-12.3015
X11.7161Y-12.3822
X11.7161Y-12.4531
X11.7161Y-12.5338
X11.8606Y-12.4877
X11.9106Y-12.4877
X11.9606Y-12.4889
X12.0106Y-12.4873
X12.0627Y-12.4905
X12.1118Y-12.5014
X12.5697Y-12.2649
X12.5713Y-12.5511
X12.6504Y-12.2649
X12.652Y-12.5511
X12.7213Y-12.2649
X12.7228Y-12.5511
X12.802Y-12.2649
X12.8035Y-12.5511
X12.8846Y-12.2645
X12.8862Y-12.5507
X13.2965Y-12.2731
X13.3465Y-12.2731
X13.3965Y-12.2735
X13.4465Y-12.2739
X13.4983Y-12.2733
X13.5473Y-12.2523
X13.9665Y-12.3716
X13.9673Y-12.318
X14.026Y-12.3188
X14.0264Y-12.3712
X14.2083Y-12.6302
X14.2791Y-12.6302
X14.3598Y-12.6302
X14.4307Y-12.6302
X14.5114Y-12.6302
X15.4291Y-12.4483
X15.4299Y-12.3948
X15.4886Y-12.3956
X15.489Y-12.448
X15.7657Y-12.5007
X15.8165Y-12.5031
X15.8669Y-12.5035
X15.9161Y-12.5023
X15.9657Y-12.6417
X16.0165Y-12.6413
X16.065Y-12.6401
X16.1157Y-12.6393
X16.2283Y-12.6078
X16.2291Y-12.5543
X16.2878Y-12.555
X16.2882Y-12.6074
X16.4858Y-12.2385
X16.4858Y-12.3094
X16.4858Y-12.3901
X16.4858Y-12.4609
X16.4858Y-12.5417
X16.6173Y-12.2401
X16.6173Y-12.3109
X16.6173Y-12.3917
X16.6173Y-12.4625
X16.6173Y-12.5432
X16.7453Y-12.2448
X16.7453Y-12.3157
X16.7453Y-12.3964
X16.7453Y-12.4672
X16.7453Y-12.548
X16.8587Y-12.3031
X16.9691Y-12.4641
X17.0241Y-12.4241
X17.0902Y-12.592
X17.0933Y-12.2023
X17.1697Y-12.592
X17.1728Y-12.2023
X17.2406Y-12.592
X17.2437Y-12.2023
X17.3213Y-12.592
X17.3244Y-12.2023
X17.3921Y-12.592
X17.3953Y-12.2023
X17.4541Y-12.4441
X17.4728Y-12.592
X17.4741Y-12.3891
X17.476Y-12.2023
X17.6191Y-12.3891
X17.7241Y-12.3891
X17.9228Y-11.7141
X17.9228Y-11.7936
X17.9228Y-11.8645
X17.9228Y-11.9452
X17.9228Y-12.0161
X17.9228Y-12.0968
X17.9307Y-13.0436
X17.9327Y-12.6637
X17.9327Y-12.7346
X17.9327Y-12.8153
X17.9327Y-12.8861
X17.9327Y-12.9669
T2
X12.3091Y-12.2015
X13.1945Y-12.5574
X16.215Y-12.2003
T3
X14.1394Y-12.3294
X14.1394Y-12.4294
X14.2394Y-12.3294
X14.2394Y-12.4294
X14.3394Y-12.3294
X14.3394Y-12.4294
X14.4394Y-12.3294
X14.4394Y-12.4294
X14.5394Y-12.3294
X14.5394Y-12.4294
X14.6394Y-12.3294
X14.6394Y-12.4294
X14.7394Y-12.3294
X14.7394Y-12.4294
X14.8394Y-12.3294
X14.8394Y-12.4294
X14.9394Y-12.3294
X14.9394Y-12.4294
X15.0394Y-12.3294
X15.0394Y-12.4294
X15.1394Y-12.3294
X15.1394Y-12.4294
X15.2394Y-12.3294
X15.2394Y-12.4294
X15.3394Y-12.3294
X15.3394Y-12.4294
T4
X11.599Y-11.0111
X11.599Y-11.208
X11.599Y-11.4048
X11.599Y-12.0033
X11.6207Y-12.7759
X11.6207Y-13.3743
X11.6207Y-13.5712
X11.6207Y-13.768
X11.8943Y-11.0111
X11.8943Y-11.208
X11.8943Y-11.4048
X11.8943Y-12.0033
X11.9159Y-12.7759
X11.9159Y-13.3743
X11.9159Y-13.5712
X11.9159Y-13.768
X12.2289Y-11.0111
X12.2289Y-11.208
X12.2289Y-11.4048
X12.2289Y-12.0033
X12.2506Y-12.7759
X12.2506Y-13.3743
X12.2506Y-13.5712
X12.2506Y-13.768
X12.5242Y-11.0111
X12.5242Y-11.208
X12.5242Y-11.4048
X12.5242Y-12.0033
X12.5459Y-12.7759
X12.5459Y-13.3743
X12.5459Y-13.5712
X12.5459Y-13.768
X12.8982Y-11.0111
X12.8982Y-11.208
X12.8982Y-11.4048
X12.8982Y-12.0033
X12.9199Y-12.7759
X12.9199Y-13.3743
X12.9199Y-13.5712
X12.9199Y-13.768
X13.1935Y-11.0111
X13.1935Y-11.208
X13.1935Y-11.4048
X13.1935Y-12.0033
X13.2152Y-12.7759
X13.2152Y-13.3743
X13.2152Y-13.5712
X13.2152Y-13.768
X13.5281Y-11.0111
X13.5281Y-11.208
X13.5281Y-11.4048
X13.5281Y-12.0033
X13.5498Y-12.7759
X13.5498Y-13.3743
X13.5498Y-13.5712
X13.5498Y-13.768
X13.8234Y-11.0111
X13.8234Y-11.208
X13.8234Y-11.4048
X13.8234Y-12.0033
X13.8451Y-12.7759
X13.8451Y-13.3743
X13.8451Y-13.5712
X13.8451Y-13.768
X14.1974Y-11.0111
X14.1974Y-11.208
X14.1974Y-11.4048
X14.1974Y-12.0033
X14.2191Y-12.7759
X14.2191Y-13.3743
X14.2191Y-13.5712
X14.2191Y-13.768
X14.4927Y-11.0111
X14.4927Y-11.208
X14.4927Y-11.4048
X14.4927Y-12.0033
X14.5144Y-12.7759
X14.5144Y-13.3743
X14.5144Y-13.5712
X14.5144Y-13.768
X14.8274Y-11.0111
X14.8274Y-11.208
X14.8274Y-11.4048
X14.8274Y-12.0033
X14.849Y-12.7759
X14.849Y-13.3743
X14.849Y-13.5712
X14.849Y-13.768
X15.1226Y-11.0111
X15.1226Y-11.208
X15.1226Y-11.4048
X15.1226Y-12.0033
X15.1443Y-12.7759
X15.1443Y-13.3743
X15.1443Y-13.5712
X15.1443Y-13.768
X15.4967Y-11.0111
X15.4967Y-11.208
X15.4967Y-11.4048
X15.4967Y-12.0033
X15.5183Y-12.7759
X15.5183Y-13.3743
X15.5183Y-13.5712
X15.5183Y-13.768
X15.7919Y-11.0111
X15.7919Y-11.208
X15.7919Y-11.4048
X15.7919Y-12.0033
X15.8136Y-12.7759
X15.8136Y-13.3743
X15.8136Y-13.5712
X15.8136Y-13.768
X16.1266Y-11.0111
X16.1266Y-11.208
X16.1266Y-11.4048
X16.1266Y-12.0033
X16.1482Y-12.7759
X16.1482Y-13.3743
X16.1482Y-13.5712
X16.1482Y-13.768
X16.4219Y-11.0111
X16.4219Y-11.208
X16.4219Y-11.4048
X16.4219Y-12.0033
X16.4435Y-12.7759
X16.4435Y-13.3743
X16.4435Y-13.5712
X16.4435Y-13.768
X16.7959Y-11.0111
X16.7959Y-11.208
X16.7959Y-11.4048
X16.7959Y-12.0033
X16.8175Y-12.7759
X16.8175Y-13.3743
X16.8175Y-13.5712
X16.8175Y-13.768
X17.0911Y-11.0111
X17.0911Y-11.208
X17.0911Y-11.4048
X17.0911Y-12.0033
X17.1128Y-12.7759
X17.1128Y-13.3743
X17.1128Y-13.5712
X17.1128Y-13.768
X17.4258Y-11.0111
X17.4258Y-11.208
X17.4258Y-11.4048
X17.4258Y-12.0033
X17.4474Y-12.7759
X17.4474Y-13.3743
X17.4474Y-13.5712
X17.4474Y-13.768
X17.7211Y-11.0111
X17.7211Y-11.208
X17.7211Y-11.4048
X17.7211Y-12.0033
X17.7427Y-12.7759
X17.7427Y-13.3743
X17.7427Y-13.5712
X17.7427Y-13.768
T5
X11.6226Y-10.7779
X11.6413Y-14.0033
X11.9179Y-10.7779
X11.9366Y-14.0033
X12.2132Y-10.7779
X12.2319Y-14.0033
X12.5085Y-10.7779
X12.5272Y-14.0033
X12.9209Y-10.7779
X12.9406Y-14.0033
X13.2161Y-10.7779
X13.2358Y-14.0033
X13.5114Y-10.7779
X13.5311Y-14.0033
X13.8067Y-10.7779
X13.8264Y-14.0033
X14.2201Y-10.7779
X14.2398Y-14.0033
X14.5154Y-10.7779
X14.535Y-14.0033
X14.8106Y-10.7779
X14.8303Y-14.0033
X15.1059Y-10.7779
X15.1256Y-14.0033
X15.5193Y-10.7779
X15.539Y-14.0033
X15.8146Y-10.7779
X15.8343Y-14.0033
X16.1098Y-10.7779
X16.1295Y-14.0033
X16.4051Y-10.7779
X16.4248Y-14.0033
X16.8185Y-10.7789
X16.8382Y-14.0033
X17.1138Y-10.7789
X17.1335Y-14.0033
X17.4091Y-10.7789
X17.4287Y-14.0033
X17.7043Y-10.7789
X17.724Y-14.0033
T0
M30
