%TF.GenerationSoftware,KiCad,Pcbnew,(5.1.6)-1*%
%TF.CreationDate,2020-09-13T22:12:47+02:00*%
%TF.ProjectId,boneIO - relay board,626f6e65-494f-4202-9d20-72656c617920,rev?*%
%TF.SameCoordinates,Original*%
%TF.FileFunction,Legend,Top*%
%TF.FilePolarity,Positive*%
%FSLAX46Y46*%
G04 Gerber Fmt 4.6, Leading zero omitted, Abs format (unit mm)*
G04 Created by KiCad (PCBNEW (5.1.6)-1) date 2020-09-13 22:12:48*
%MOMM*%
%LPD*%
G01*
G04 APERTURE LIST*
%ADD10C,0.150000*%
%ADD11C,0.120000*%
%ADD12C,0.100000*%
%ADD13C,0.254000*%
G04 APERTURE END LIST*
D10*
X297211428Y-357660380D02*
X297211428Y-356660380D01*
X297592380Y-356660380D01*
X297687619Y-356708000D01*
X297735238Y-356755619D01*
X297782857Y-356850857D01*
X297782857Y-356993714D01*
X297735238Y-357088952D01*
X297687619Y-357136571D01*
X297592380Y-357184190D01*
X297211428Y-357184190D01*
X298259047Y-357660380D02*
X298449523Y-357660380D01*
X298544761Y-357612761D01*
X298592380Y-357565142D01*
X298687619Y-357422285D01*
X298735238Y-357231809D01*
X298735238Y-356850857D01*
X298687619Y-356755619D01*
X298640000Y-356708000D01*
X298544761Y-356660380D01*
X298354285Y-356660380D01*
X298259047Y-356708000D01*
X298211428Y-356755619D01*
X298163809Y-356850857D01*
X298163809Y-357088952D01*
X298211428Y-357184190D01*
X298259047Y-357231809D01*
X298354285Y-357279428D01*
X298544761Y-357279428D01*
X298640000Y-357231809D01*
X298687619Y-357184190D01*
X298735238Y-357088952D01*
X299163809Y-357565142D02*
X299211428Y-357612761D01*
X299163809Y-357660380D01*
X299116190Y-357612761D01*
X299163809Y-357565142D01*
X299163809Y-357660380D01*
X300163809Y-357660380D02*
X299592380Y-357660380D01*
X299878095Y-357660380D02*
X299878095Y-356660380D01*
X299782857Y-356803238D01*
X299687619Y-356898476D01*
X299592380Y-356946095D01*
X301116190Y-357660380D02*
X300544761Y-357660380D01*
X300830476Y-357660380D02*
X300830476Y-356660380D01*
X300735238Y-356803238D01*
X300640000Y-356898476D01*
X300544761Y-356946095D01*
X313211428Y-357660380D02*
X313211428Y-356660380D01*
X313592380Y-356660380D01*
X313687619Y-356708000D01*
X313735238Y-356755619D01*
X313782857Y-356850857D01*
X313782857Y-356993714D01*
X313735238Y-357088952D01*
X313687619Y-357136571D01*
X313592380Y-357184190D01*
X313211428Y-357184190D01*
X314259047Y-357660380D02*
X314449523Y-357660380D01*
X314544761Y-357612761D01*
X314592380Y-357565142D01*
X314687619Y-357422285D01*
X314735238Y-357231809D01*
X314735238Y-356850857D01*
X314687619Y-356755619D01*
X314640000Y-356708000D01*
X314544761Y-356660380D01*
X314354285Y-356660380D01*
X314259047Y-356708000D01*
X314211428Y-356755619D01*
X314163809Y-356850857D01*
X314163809Y-357088952D01*
X314211428Y-357184190D01*
X314259047Y-357231809D01*
X314354285Y-357279428D01*
X314544761Y-357279428D01*
X314640000Y-357231809D01*
X314687619Y-357184190D01*
X314735238Y-357088952D01*
X315163809Y-357565142D02*
X315211428Y-357612761D01*
X315163809Y-357660380D01*
X315116190Y-357612761D01*
X315163809Y-357565142D01*
X315163809Y-357660380D01*
X316163809Y-357660380D02*
X315592380Y-357660380D01*
X315878095Y-357660380D02*
X315878095Y-356660380D01*
X315782857Y-356803238D01*
X315687619Y-356898476D01*
X315592380Y-356946095D01*
X316544761Y-356755619D02*
X316592380Y-356708000D01*
X316687619Y-356660380D01*
X316925714Y-356660380D01*
X317020952Y-356708000D01*
X317068571Y-356755619D01*
X317116190Y-356850857D01*
X317116190Y-356946095D01*
X317068571Y-357088952D01*
X316497142Y-357660380D01*
X317116190Y-357660380D01*
X329711428Y-357660380D02*
X329711428Y-356660380D01*
X330092380Y-356660380D01*
X330187619Y-356708000D01*
X330235238Y-356755619D01*
X330282857Y-356850857D01*
X330282857Y-356993714D01*
X330235238Y-357088952D01*
X330187619Y-357136571D01*
X330092380Y-357184190D01*
X329711428Y-357184190D01*
X330759047Y-357660380D02*
X330949523Y-357660380D01*
X331044761Y-357612761D01*
X331092380Y-357565142D01*
X331187619Y-357422285D01*
X331235238Y-357231809D01*
X331235238Y-356850857D01*
X331187619Y-356755619D01*
X331140000Y-356708000D01*
X331044761Y-356660380D01*
X330854285Y-356660380D01*
X330759047Y-356708000D01*
X330711428Y-356755619D01*
X330663809Y-356850857D01*
X330663809Y-357088952D01*
X330711428Y-357184190D01*
X330759047Y-357231809D01*
X330854285Y-357279428D01*
X331044761Y-357279428D01*
X331140000Y-357231809D01*
X331187619Y-357184190D01*
X331235238Y-357088952D01*
X331663809Y-357565142D02*
X331711428Y-357612761D01*
X331663809Y-357660380D01*
X331616190Y-357612761D01*
X331663809Y-357565142D01*
X331663809Y-357660380D01*
X332663809Y-357660380D02*
X332092380Y-357660380D01*
X332378095Y-357660380D02*
X332378095Y-356660380D01*
X332282857Y-356803238D01*
X332187619Y-356898476D01*
X332092380Y-356946095D01*
X332997142Y-356660380D02*
X333616190Y-356660380D01*
X333282857Y-357041333D01*
X333425714Y-357041333D01*
X333520952Y-357088952D01*
X333568571Y-357136571D01*
X333616190Y-357231809D01*
X333616190Y-357469904D01*
X333568571Y-357565142D01*
X333520952Y-357612761D01*
X333425714Y-357660380D01*
X333140000Y-357660380D01*
X333044761Y-357612761D01*
X332997142Y-357565142D01*
X345711428Y-357660380D02*
X345711428Y-356660380D01*
X346092380Y-356660380D01*
X346187619Y-356708000D01*
X346235238Y-356755619D01*
X346282857Y-356850857D01*
X346282857Y-356993714D01*
X346235238Y-357088952D01*
X346187619Y-357136571D01*
X346092380Y-357184190D01*
X345711428Y-357184190D01*
X346759047Y-357660380D02*
X346949523Y-357660380D01*
X347044761Y-357612761D01*
X347092380Y-357565142D01*
X347187619Y-357422285D01*
X347235238Y-357231809D01*
X347235238Y-356850857D01*
X347187619Y-356755619D01*
X347140000Y-356708000D01*
X347044761Y-356660380D01*
X346854285Y-356660380D01*
X346759047Y-356708000D01*
X346711428Y-356755619D01*
X346663809Y-356850857D01*
X346663809Y-357088952D01*
X346711428Y-357184190D01*
X346759047Y-357231809D01*
X346854285Y-357279428D01*
X347044761Y-357279428D01*
X347140000Y-357231809D01*
X347187619Y-357184190D01*
X347235238Y-357088952D01*
X347663809Y-357565142D02*
X347711428Y-357612761D01*
X347663809Y-357660380D01*
X347616190Y-357612761D01*
X347663809Y-357565142D01*
X347663809Y-357660380D01*
X348663809Y-357660380D02*
X348092380Y-357660380D01*
X348378095Y-357660380D02*
X348378095Y-356660380D01*
X348282857Y-356803238D01*
X348187619Y-356898476D01*
X348092380Y-356946095D01*
X349520952Y-356993714D02*
X349520952Y-357660380D01*
X349282857Y-356612761D02*
X349044761Y-357327047D01*
X349663809Y-357327047D01*
X363211428Y-357660380D02*
X363211428Y-356660380D01*
X363592380Y-356660380D01*
X363687619Y-356708000D01*
X363735238Y-356755619D01*
X363782857Y-356850857D01*
X363782857Y-356993714D01*
X363735238Y-357088952D01*
X363687619Y-357136571D01*
X363592380Y-357184190D01*
X363211428Y-357184190D01*
X364259047Y-357660380D02*
X364449523Y-357660380D01*
X364544761Y-357612761D01*
X364592380Y-357565142D01*
X364687619Y-357422285D01*
X364735238Y-357231809D01*
X364735238Y-356850857D01*
X364687619Y-356755619D01*
X364640000Y-356708000D01*
X364544761Y-356660380D01*
X364354285Y-356660380D01*
X364259047Y-356708000D01*
X364211428Y-356755619D01*
X364163809Y-356850857D01*
X364163809Y-357088952D01*
X364211428Y-357184190D01*
X364259047Y-357231809D01*
X364354285Y-357279428D01*
X364544761Y-357279428D01*
X364640000Y-357231809D01*
X364687619Y-357184190D01*
X364735238Y-357088952D01*
X365163809Y-357565142D02*
X365211428Y-357612761D01*
X365163809Y-357660380D01*
X365116190Y-357612761D01*
X365163809Y-357565142D01*
X365163809Y-357660380D01*
X366163809Y-357660380D02*
X365592380Y-357660380D01*
X365878095Y-357660380D02*
X365878095Y-356660380D01*
X365782857Y-356803238D01*
X365687619Y-356898476D01*
X365592380Y-356946095D01*
X367068571Y-356660380D02*
X366592380Y-356660380D01*
X366544761Y-357136571D01*
X366592380Y-357088952D01*
X366687619Y-357041333D01*
X366925714Y-357041333D01*
X367020952Y-357088952D01*
X367068571Y-357136571D01*
X367116190Y-357231809D01*
X367116190Y-357469904D01*
X367068571Y-357565142D01*
X367020952Y-357612761D01*
X366925714Y-357660380D01*
X366687619Y-357660380D01*
X366592380Y-357612761D01*
X366544761Y-357565142D01*
X379211428Y-357660380D02*
X379211428Y-356660380D01*
X379592380Y-356660380D01*
X379687619Y-356708000D01*
X379735238Y-356755619D01*
X379782857Y-356850857D01*
X379782857Y-356993714D01*
X379735238Y-357088952D01*
X379687619Y-357136571D01*
X379592380Y-357184190D01*
X379211428Y-357184190D01*
X380259047Y-357660380D02*
X380449523Y-357660380D01*
X380544761Y-357612761D01*
X380592380Y-357565142D01*
X380687619Y-357422285D01*
X380735238Y-357231809D01*
X380735238Y-356850857D01*
X380687619Y-356755619D01*
X380640000Y-356708000D01*
X380544761Y-356660380D01*
X380354285Y-356660380D01*
X380259047Y-356708000D01*
X380211428Y-356755619D01*
X380163809Y-356850857D01*
X380163809Y-357088952D01*
X380211428Y-357184190D01*
X380259047Y-357231809D01*
X380354285Y-357279428D01*
X380544761Y-357279428D01*
X380640000Y-357231809D01*
X380687619Y-357184190D01*
X380735238Y-357088952D01*
X381163809Y-357565142D02*
X381211428Y-357612761D01*
X381163809Y-357660380D01*
X381116190Y-357612761D01*
X381163809Y-357565142D01*
X381163809Y-357660380D01*
X382163809Y-357660380D02*
X381592380Y-357660380D01*
X381878095Y-357660380D02*
X381878095Y-356660380D01*
X381782857Y-356803238D01*
X381687619Y-356898476D01*
X381592380Y-356946095D01*
X383020952Y-356660380D02*
X382830476Y-356660380D01*
X382735238Y-356708000D01*
X382687619Y-356755619D01*
X382592380Y-356898476D01*
X382544761Y-357088952D01*
X382544761Y-357469904D01*
X382592380Y-357565142D01*
X382640000Y-357612761D01*
X382735238Y-357660380D01*
X382925714Y-357660380D01*
X383020952Y-357612761D01*
X383068571Y-357565142D01*
X383116190Y-357469904D01*
X383116190Y-357231809D01*
X383068571Y-357136571D01*
X383020952Y-357088952D01*
X382925714Y-357041333D01*
X382735238Y-357041333D01*
X382640000Y-357088952D01*
X382592380Y-357136571D01*
X382544761Y-357231809D01*
X395711428Y-357660380D02*
X395711428Y-356660380D01*
X396092380Y-356660380D01*
X396187619Y-356708000D01*
X396235238Y-356755619D01*
X396282857Y-356850857D01*
X396282857Y-356993714D01*
X396235238Y-357088952D01*
X396187619Y-357136571D01*
X396092380Y-357184190D01*
X395711428Y-357184190D01*
X396759047Y-357660380D02*
X396949523Y-357660380D01*
X397044761Y-357612761D01*
X397092380Y-357565142D01*
X397187619Y-357422285D01*
X397235238Y-357231809D01*
X397235238Y-356850857D01*
X397187619Y-356755619D01*
X397140000Y-356708000D01*
X397044761Y-356660380D01*
X396854285Y-356660380D01*
X396759047Y-356708000D01*
X396711428Y-356755619D01*
X396663809Y-356850857D01*
X396663809Y-357088952D01*
X396711428Y-357184190D01*
X396759047Y-357231809D01*
X396854285Y-357279428D01*
X397044761Y-357279428D01*
X397140000Y-357231809D01*
X397187619Y-357184190D01*
X397235238Y-357088952D01*
X397663809Y-357565142D02*
X397711428Y-357612761D01*
X397663809Y-357660380D01*
X397616190Y-357612761D01*
X397663809Y-357565142D01*
X397663809Y-357660380D01*
X398663809Y-357660380D02*
X398092380Y-357660380D01*
X398378095Y-357660380D02*
X398378095Y-356660380D01*
X398282857Y-356803238D01*
X398187619Y-356898476D01*
X398092380Y-356946095D01*
X398997142Y-356660380D02*
X399663809Y-356660380D01*
X399235238Y-357660380D01*
X412211428Y-357660380D02*
X412211428Y-356660380D01*
X412592380Y-356660380D01*
X412687619Y-356708000D01*
X412735238Y-356755619D01*
X412782857Y-356850857D01*
X412782857Y-356993714D01*
X412735238Y-357088952D01*
X412687619Y-357136571D01*
X412592380Y-357184190D01*
X412211428Y-357184190D01*
X413259047Y-357660380D02*
X413449523Y-357660380D01*
X413544761Y-357612761D01*
X413592380Y-357565142D01*
X413687619Y-357422285D01*
X413735238Y-357231809D01*
X413735238Y-356850857D01*
X413687619Y-356755619D01*
X413640000Y-356708000D01*
X413544761Y-356660380D01*
X413354285Y-356660380D01*
X413259047Y-356708000D01*
X413211428Y-356755619D01*
X413163809Y-356850857D01*
X413163809Y-357088952D01*
X413211428Y-357184190D01*
X413259047Y-357231809D01*
X413354285Y-357279428D01*
X413544761Y-357279428D01*
X413640000Y-357231809D01*
X413687619Y-357184190D01*
X413735238Y-357088952D01*
X414163809Y-357565142D02*
X414211428Y-357612761D01*
X414163809Y-357660380D01*
X414116190Y-357612761D01*
X414163809Y-357565142D01*
X414163809Y-357660380D01*
X415163809Y-357660380D02*
X414592380Y-357660380D01*
X414878095Y-357660380D02*
X414878095Y-356660380D01*
X414782857Y-356803238D01*
X414687619Y-356898476D01*
X414592380Y-356946095D01*
X415735238Y-357088952D02*
X415640000Y-357041333D01*
X415592380Y-356993714D01*
X415544761Y-356898476D01*
X415544761Y-356850857D01*
X415592380Y-356755619D01*
X415640000Y-356708000D01*
X415735238Y-356660380D01*
X415925714Y-356660380D01*
X416020952Y-356708000D01*
X416068571Y-356755619D01*
X416116190Y-356850857D01*
X416116190Y-356898476D01*
X416068571Y-356993714D01*
X416020952Y-357041333D01*
X415925714Y-357088952D01*
X415735238Y-357088952D01*
X415640000Y-357136571D01*
X415592380Y-357184190D01*
X415544761Y-357279428D01*
X415544761Y-357469904D01*
X415592380Y-357565142D01*
X415640000Y-357612761D01*
X415735238Y-357660380D01*
X415925714Y-357660380D01*
X416020952Y-357612761D01*
X416068571Y-357565142D01*
X416116190Y-357469904D01*
X416116190Y-357279428D01*
X416068571Y-357184190D01*
X416020952Y-357136571D01*
X415925714Y-357088952D01*
X429211428Y-357660380D02*
X429211428Y-356660380D01*
X429592380Y-356660380D01*
X429687619Y-356708000D01*
X429735238Y-356755619D01*
X429782857Y-356850857D01*
X429782857Y-356993714D01*
X429735238Y-357088952D01*
X429687619Y-357136571D01*
X429592380Y-357184190D01*
X429211428Y-357184190D01*
X430259047Y-357660380D02*
X430449523Y-357660380D01*
X430544761Y-357612761D01*
X430592380Y-357565142D01*
X430687619Y-357422285D01*
X430735238Y-357231809D01*
X430735238Y-356850857D01*
X430687619Y-356755619D01*
X430640000Y-356708000D01*
X430544761Y-356660380D01*
X430354285Y-356660380D01*
X430259047Y-356708000D01*
X430211428Y-356755619D01*
X430163809Y-356850857D01*
X430163809Y-357088952D01*
X430211428Y-357184190D01*
X430259047Y-357231809D01*
X430354285Y-357279428D01*
X430544761Y-357279428D01*
X430640000Y-357231809D01*
X430687619Y-357184190D01*
X430735238Y-357088952D01*
X431163809Y-357565142D02*
X431211428Y-357612761D01*
X431163809Y-357660380D01*
X431116190Y-357612761D01*
X431163809Y-357565142D01*
X431163809Y-357660380D01*
X431592380Y-356755619D02*
X431640000Y-356708000D01*
X431735238Y-356660380D01*
X431973333Y-356660380D01*
X432068571Y-356708000D01*
X432116190Y-356755619D01*
X432163809Y-356850857D01*
X432163809Y-356946095D01*
X432116190Y-357088952D01*
X431544761Y-357660380D01*
X432163809Y-357660380D01*
X433116190Y-357660380D02*
X432544761Y-357660380D01*
X432830476Y-357660380D02*
X432830476Y-356660380D01*
X432735238Y-356803238D01*
X432640000Y-356898476D01*
X432544761Y-356946095D01*
X445211428Y-357660380D02*
X445211428Y-356660380D01*
X445592380Y-356660380D01*
X445687619Y-356708000D01*
X445735238Y-356755619D01*
X445782857Y-356850857D01*
X445782857Y-356993714D01*
X445735238Y-357088952D01*
X445687619Y-357136571D01*
X445592380Y-357184190D01*
X445211428Y-357184190D01*
X446259047Y-357660380D02*
X446449523Y-357660380D01*
X446544761Y-357612761D01*
X446592380Y-357565142D01*
X446687619Y-357422285D01*
X446735238Y-357231809D01*
X446735238Y-356850857D01*
X446687619Y-356755619D01*
X446640000Y-356708000D01*
X446544761Y-356660380D01*
X446354285Y-356660380D01*
X446259047Y-356708000D01*
X446211428Y-356755619D01*
X446163809Y-356850857D01*
X446163809Y-357088952D01*
X446211428Y-357184190D01*
X446259047Y-357231809D01*
X446354285Y-357279428D01*
X446544761Y-357279428D01*
X446640000Y-357231809D01*
X446687619Y-357184190D01*
X446735238Y-357088952D01*
X447163809Y-357565142D02*
X447211428Y-357612761D01*
X447163809Y-357660380D01*
X447116190Y-357612761D01*
X447163809Y-357565142D01*
X447163809Y-357660380D01*
X447592380Y-356755619D02*
X447640000Y-356708000D01*
X447735238Y-356660380D01*
X447973333Y-356660380D01*
X448068571Y-356708000D01*
X448116190Y-356755619D01*
X448163809Y-356850857D01*
X448163809Y-356946095D01*
X448116190Y-357088952D01*
X447544761Y-357660380D01*
X448163809Y-357660380D01*
X448544761Y-356755619D02*
X448592380Y-356708000D01*
X448687619Y-356660380D01*
X448925714Y-356660380D01*
X449020952Y-356708000D01*
X449068571Y-356755619D01*
X449116190Y-356850857D01*
X449116190Y-356946095D01*
X449068571Y-357088952D01*
X448497142Y-357660380D01*
X449116190Y-357660380D01*
X444711428Y-272660380D02*
X444711428Y-271660380D01*
X445092380Y-271660380D01*
X445187619Y-271708000D01*
X445235238Y-271755619D01*
X445282857Y-271850857D01*
X445282857Y-271993714D01*
X445235238Y-272088952D01*
X445187619Y-272136571D01*
X445092380Y-272184190D01*
X444711428Y-272184190D01*
X445759047Y-272660380D02*
X445949523Y-272660380D01*
X446044761Y-272612761D01*
X446092380Y-272565142D01*
X446187619Y-272422285D01*
X446235238Y-272231809D01*
X446235238Y-271850857D01*
X446187619Y-271755619D01*
X446140000Y-271708000D01*
X446044761Y-271660380D01*
X445854285Y-271660380D01*
X445759047Y-271708000D01*
X445711428Y-271755619D01*
X445663809Y-271850857D01*
X445663809Y-272088952D01*
X445711428Y-272184190D01*
X445759047Y-272231809D01*
X445854285Y-272279428D01*
X446044761Y-272279428D01*
X446140000Y-272231809D01*
X446187619Y-272184190D01*
X446235238Y-272088952D01*
X446663809Y-272565142D02*
X446711428Y-272612761D01*
X446663809Y-272660380D01*
X446616190Y-272612761D01*
X446663809Y-272565142D01*
X446663809Y-272660380D01*
X447092380Y-271755619D02*
X447140000Y-271708000D01*
X447235238Y-271660380D01*
X447473333Y-271660380D01*
X447568571Y-271708000D01*
X447616190Y-271755619D01*
X447663809Y-271850857D01*
X447663809Y-271946095D01*
X447616190Y-272088952D01*
X447044761Y-272660380D01*
X447663809Y-272660380D01*
X447997142Y-271660380D02*
X448616190Y-271660380D01*
X448282857Y-272041333D01*
X448425714Y-272041333D01*
X448520952Y-272088952D01*
X448568571Y-272136571D01*
X448616190Y-272231809D01*
X448616190Y-272469904D01*
X448568571Y-272565142D01*
X448520952Y-272612761D01*
X448425714Y-272660380D01*
X448140000Y-272660380D01*
X448044761Y-272612761D01*
X447997142Y-272565142D01*
X428711428Y-272660380D02*
X428711428Y-271660380D01*
X429092380Y-271660380D01*
X429187619Y-271708000D01*
X429235238Y-271755619D01*
X429282857Y-271850857D01*
X429282857Y-271993714D01*
X429235238Y-272088952D01*
X429187619Y-272136571D01*
X429092380Y-272184190D01*
X428711428Y-272184190D01*
X429759047Y-272660380D02*
X429949523Y-272660380D01*
X430044761Y-272612761D01*
X430092380Y-272565142D01*
X430187619Y-272422285D01*
X430235238Y-272231809D01*
X430235238Y-271850857D01*
X430187619Y-271755619D01*
X430140000Y-271708000D01*
X430044761Y-271660380D01*
X429854285Y-271660380D01*
X429759047Y-271708000D01*
X429711428Y-271755619D01*
X429663809Y-271850857D01*
X429663809Y-272088952D01*
X429711428Y-272184190D01*
X429759047Y-272231809D01*
X429854285Y-272279428D01*
X430044761Y-272279428D01*
X430140000Y-272231809D01*
X430187619Y-272184190D01*
X430235238Y-272088952D01*
X430663809Y-272565142D02*
X430711428Y-272612761D01*
X430663809Y-272660380D01*
X430616190Y-272612761D01*
X430663809Y-272565142D01*
X430663809Y-272660380D01*
X431092380Y-271755619D02*
X431140000Y-271708000D01*
X431235238Y-271660380D01*
X431473333Y-271660380D01*
X431568571Y-271708000D01*
X431616190Y-271755619D01*
X431663809Y-271850857D01*
X431663809Y-271946095D01*
X431616190Y-272088952D01*
X431044761Y-272660380D01*
X431663809Y-272660380D01*
X432520952Y-271993714D02*
X432520952Y-272660380D01*
X432282857Y-271612761D02*
X432044761Y-272327047D01*
X432663809Y-272327047D01*
X411211428Y-272660380D02*
X411211428Y-271660380D01*
X411592380Y-271660380D01*
X411687619Y-271708000D01*
X411735238Y-271755619D01*
X411782857Y-271850857D01*
X411782857Y-271993714D01*
X411735238Y-272088952D01*
X411687619Y-272136571D01*
X411592380Y-272184190D01*
X411211428Y-272184190D01*
X412259047Y-272660380D02*
X412449523Y-272660380D01*
X412544761Y-272612761D01*
X412592380Y-272565142D01*
X412687619Y-272422285D01*
X412735238Y-272231809D01*
X412735238Y-271850857D01*
X412687619Y-271755619D01*
X412640000Y-271708000D01*
X412544761Y-271660380D01*
X412354285Y-271660380D01*
X412259047Y-271708000D01*
X412211428Y-271755619D01*
X412163809Y-271850857D01*
X412163809Y-272088952D01*
X412211428Y-272184190D01*
X412259047Y-272231809D01*
X412354285Y-272279428D01*
X412544761Y-272279428D01*
X412640000Y-272231809D01*
X412687619Y-272184190D01*
X412735238Y-272088952D01*
X413163809Y-272565142D02*
X413211428Y-272612761D01*
X413163809Y-272660380D01*
X413116190Y-272612761D01*
X413163809Y-272565142D01*
X413163809Y-272660380D01*
X413592380Y-271755619D02*
X413640000Y-271708000D01*
X413735238Y-271660380D01*
X413973333Y-271660380D01*
X414068571Y-271708000D01*
X414116190Y-271755619D01*
X414163809Y-271850857D01*
X414163809Y-271946095D01*
X414116190Y-272088952D01*
X413544761Y-272660380D01*
X414163809Y-272660380D01*
X415068571Y-271660380D02*
X414592380Y-271660380D01*
X414544761Y-272136571D01*
X414592380Y-272088952D01*
X414687619Y-272041333D01*
X414925714Y-272041333D01*
X415020952Y-272088952D01*
X415068571Y-272136571D01*
X415116190Y-272231809D01*
X415116190Y-272469904D01*
X415068571Y-272565142D01*
X415020952Y-272612761D01*
X414925714Y-272660380D01*
X414687619Y-272660380D01*
X414592380Y-272612761D01*
X414544761Y-272565142D01*
X395211428Y-272660380D02*
X395211428Y-271660380D01*
X395592380Y-271660380D01*
X395687619Y-271708000D01*
X395735238Y-271755619D01*
X395782857Y-271850857D01*
X395782857Y-271993714D01*
X395735238Y-272088952D01*
X395687619Y-272136571D01*
X395592380Y-272184190D01*
X395211428Y-272184190D01*
X396259047Y-272660380D02*
X396449523Y-272660380D01*
X396544761Y-272612761D01*
X396592380Y-272565142D01*
X396687619Y-272422285D01*
X396735238Y-272231809D01*
X396735238Y-271850857D01*
X396687619Y-271755619D01*
X396640000Y-271708000D01*
X396544761Y-271660380D01*
X396354285Y-271660380D01*
X396259047Y-271708000D01*
X396211428Y-271755619D01*
X396163809Y-271850857D01*
X396163809Y-272088952D01*
X396211428Y-272184190D01*
X396259047Y-272231809D01*
X396354285Y-272279428D01*
X396544761Y-272279428D01*
X396640000Y-272231809D01*
X396687619Y-272184190D01*
X396735238Y-272088952D01*
X397163809Y-272565142D02*
X397211428Y-272612761D01*
X397163809Y-272660380D01*
X397116190Y-272612761D01*
X397163809Y-272565142D01*
X397163809Y-272660380D01*
X397592380Y-271755619D02*
X397640000Y-271708000D01*
X397735238Y-271660380D01*
X397973333Y-271660380D01*
X398068571Y-271708000D01*
X398116190Y-271755619D01*
X398163809Y-271850857D01*
X398163809Y-271946095D01*
X398116190Y-272088952D01*
X397544761Y-272660380D01*
X398163809Y-272660380D01*
X399020952Y-271660380D02*
X398830476Y-271660380D01*
X398735238Y-271708000D01*
X398687619Y-271755619D01*
X398592380Y-271898476D01*
X398544761Y-272088952D01*
X398544761Y-272469904D01*
X398592380Y-272565142D01*
X398640000Y-272612761D01*
X398735238Y-272660380D01*
X398925714Y-272660380D01*
X399020952Y-272612761D01*
X399068571Y-272565142D01*
X399116190Y-272469904D01*
X399116190Y-272231809D01*
X399068571Y-272136571D01*
X399020952Y-272088952D01*
X398925714Y-272041333D01*
X398735238Y-272041333D01*
X398640000Y-272088952D01*
X398592380Y-272136571D01*
X398544761Y-272231809D01*
X378211428Y-272660380D02*
X378211428Y-271660380D01*
X378592380Y-271660380D01*
X378687619Y-271708000D01*
X378735238Y-271755619D01*
X378782857Y-271850857D01*
X378782857Y-271993714D01*
X378735238Y-272088952D01*
X378687619Y-272136571D01*
X378592380Y-272184190D01*
X378211428Y-272184190D01*
X379259047Y-272660380D02*
X379449523Y-272660380D01*
X379544761Y-272612761D01*
X379592380Y-272565142D01*
X379687619Y-272422285D01*
X379735238Y-272231809D01*
X379735238Y-271850857D01*
X379687619Y-271755619D01*
X379640000Y-271708000D01*
X379544761Y-271660380D01*
X379354285Y-271660380D01*
X379259047Y-271708000D01*
X379211428Y-271755619D01*
X379163809Y-271850857D01*
X379163809Y-272088952D01*
X379211428Y-272184190D01*
X379259047Y-272231809D01*
X379354285Y-272279428D01*
X379544761Y-272279428D01*
X379640000Y-272231809D01*
X379687619Y-272184190D01*
X379735238Y-272088952D01*
X380163809Y-272565142D02*
X380211428Y-272612761D01*
X380163809Y-272660380D01*
X380116190Y-272612761D01*
X380163809Y-272565142D01*
X380163809Y-272660380D01*
X380592380Y-271755619D02*
X380640000Y-271708000D01*
X380735238Y-271660380D01*
X380973333Y-271660380D01*
X381068571Y-271708000D01*
X381116190Y-271755619D01*
X381163809Y-271850857D01*
X381163809Y-271946095D01*
X381116190Y-272088952D01*
X380544761Y-272660380D01*
X381163809Y-272660380D01*
X381497142Y-271660380D02*
X382163809Y-271660380D01*
X381735238Y-272660380D01*
X362211428Y-272660380D02*
X362211428Y-271660380D01*
X362592380Y-271660380D01*
X362687619Y-271708000D01*
X362735238Y-271755619D01*
X362782857Y-271850857D01*
X362782857Y-271993714D01*
X362735238Y-272088952D01*
X362687619Y-272136571D01*
X362592380Y-272184190D01*
X362211428Y-272184190D01*
X363259047Y-272660380D02*
X363449523Y-272660380D01*
X363544761Y-272612761D01*
X363592380Y-272565142D01*
X363687619Y-272422285D01*
X363735238Y-272231809D01*
X363735238Y-271850857D01*
X363687619Y-271755619D01*
X363640000Y-271708000D01*
X363544761Y-271660380D01*
X363354285Y-271660380D01*
X363259047Y-271708000D01*
X363211428Y-271755619D01*
X363163809Y-271850857D01*
X363163809Y-272088952D01*
X363211428Y-272184190D01*
X363259047Y-272231809D01*
X363354285Y-272279428D01*
X363544761Y-272279428D01*
X363640000Y-272231809D01*
X363687619Y-272184190D01*
X363735238Y-272088952D01*
X364163809Y-272565142D02*
X364211428Y-272612761D01*
X364163809Y-272660380D01*
X364116190Y-272612761D01*
X364163809Y-272565142D01*
X364163809Y-272660380D01*
X364592380Y-271755619D02*
X364640000Y-271708000D01*
X364735238Y-271660380D01*
X364973333Y-271660380D01*
X365068571Y-271708000D01*
X365116190Y-271755619D01*
X365163809Y-271850857D01*
X365163809Y-271946095D01*
X365116190Y-272088952D01*
X364544761Y-272660380D01*
X365163809Y-272660380D01*
X365735238Y-272088952D02*
X365640000Y-272041333D01*
X365592380Y-271993714D01*
X365544761Y-271898476D01*
X365544761Y-271850857D01*
X365592380Y-271755619D01*
X365640000Y-271708000D01*
X365735238Y-271660380D01*
X365925714Y-271660380D01*
X366020952Y-271708000D01*
X366068571Y-271755619D01*
X366116190Y-271850857D01*
X366116190Y-271898476D01*
X366068571Y-271993714D01*
X366020952Y-272041333D01*
X365925714Y-272088952D01*
X365735238Y-272088952D01*
X365640000Y-272136571D01*
X365592380Y-272184190D01*
X365544761Y-272279428D01*
X365544761Y-272469904D01*
X365592380Y-272565142D01*
X365640000Y-272612761D01*
X365735238Y-272660380D01*
X365925714Y-272660380D01*
X366020952Y-272612761D01*
X366068571Y-272565142D01*
X366116190Y-272469904D01*
X366116190Y-272279428D01*
X366068571Y-272184190D01*
X366020952Y-272136571D01*
X365925714Y-272088952D01*
X345711428Y-272660380D02*
X345711428Y-271660380D01*
X346092380Y-271660380D01*
X346187619Y-271708000D01*
X346235238Y-271755619D01*
X346282857Y-271850857D01*
X346282857Y-271993714D01*
X346235238Y-272088952D01*
X346187619Y-272136571D01*
X346092380Y-272184190D01*
X345711428Y-272184190D01*
X346759047Y-272660380D02*
X346949523Y-272660380D01*
X347044761Y-272612761D01*
X347092380Y-272565142D01*
X347187619Y-272422285D01*
X347235238Y-272231809D01*
X347235238Y-271850857D01*
X347187619Y-271755619D01*
X347140000Y-271708000D01*
X347044761Y-271660380D01*
X346854285Y-271660380D01*
X346759047Y-271708000D01*
X346711428Y-271755619D01*
X346663809Y-271850857D01*
X346663809Y-272088952D01*
X346711428Y-272184190D01*
X346759047Y-272231809D01*
X346854285Y-272279428D01*
X347044761Y-272279428D01*
X347140000Y-272231809D01*
X347187619Y-272184190D01*
X347235238Y-272088952D01*
X347663809Y-272565142D02*
X347711428Y-272612761D01*
X347663809Y-272660380D01*
X347616190Y-272612761D01*
X347663809Y-272565142D01*
X347663809Y-272660380D01*
X348092380Y-271755619D02*
X348140000Y-271708000D01*
X348235238Y-271660380D01*
X348473333Y-271660380D01*
X348568571Y-271708000D01*
X348616190Y-271755619D01*
X348663809Y-271850857D01*
X348663809Y-271946095D01*
X348616190Y-272088952D01*
X348044761Y-272660380D01*
X348663809Y-272660380D01*
X349140000Y-272660380D02*
X349330476Y-272660380D01*
X349425714Y-272612761D01*
X349473333Y-272565142D01*
X349568571Y-272422285D01*
X349616190Y-272231809D01*
X349616190Y-271850857D01*
X349568571Y-271755619D01*
X349520952Y-271708000D01*
X349425714Y-271660380D01*
X349235238Y-271660380D01*
X349140000Y-271708000D01*
X349092380Y-271755619D01*
X349044761Y-271850857D01*
X349044761Y-272088952D01*
X349092380Y-272184190D01*
X349140000Y-272231809D01*
X349235238Y-272279428D01*
X349425714Y-272279428D01*
X349520952Y-272231809D01*
X349568571Y-272184190D01*
X349616190Y-272088952D01*
X329211428Y-272660380D02*
X329211428Y-271660380D01*
X329592380Y-271660380D01*
X329687619Y-271708000D01*
X329735238Y-271755619D01*
X329782857Y-271850857D01*
X329782857Y-271993714D01*
X329735238Y-272088952D01*
X329687619Y-272136571D01*
X329592380Y-272184190D01*
X329211428Y-272184190D01*
X330259047Y-272660380D02*
X330449523Y-272660380D01*
X330544761Y-272612761D01*
X330592380Y-272565142D01*
X330687619Y-272422285D01*
X330735238Y-272231809D01*
X330735238Y-271850857D01*
X330687619Y-271755619D01*
X330640000Y-271708000D01*
X330544761Y-271660380D01*
X330354285Y-271660380D01*
X330259047Y-271708000D01*
X330211428Y-271755619D01*
X330163809Y-271850857D01*
X330163809Y-272088952D01*
X330211428Y-272184190D01*
X330259047Y-272231809D01*
X330354285Y-272279428D01*
X330544761Y-272279428D01*
X330640000Y-272231809D01*
X330687619Y-272184190D01*
X330735238Y-272088952D01*
X331163809Y-272565142D02*
X331211428Y-272612761D01*
X331163809Y-272660380D01*
X331116190Y-272612761D01*
X331163809Y-272565142D01*
X331163809Y-272660380D01*
X331544761Y-271660380D02*
X332163809Y-271660380D01*
X331830476Y-272041333D01*
X331973333Y-272041333D01*
X332068571Y-272088952D01*
X332116190Y-272136571D01*
X332163809Y-272231809D01*
X332163809Y-272469904D01*
X332116190Y-272565142D01*
X332068571Y-272612761D01*
X331973333Y-272660380D01*
X331687619Y-272660380D01*
X331592380Y-272612761D01*
X331544761Y-272565142D01*
X332782857Y-271660380D02*
X332878095Y-271660380D01*
X332973333Y-271708000D01*
X333020952Y-271755619D01*
X333068571Y-271850857D01*
X333116190Y-272041333D01*
X333116190Y-272279428D01*
X333068571Y-272469904D01*
X333020952Y-272565142D01*
X332973333Y-272612761D01*
X332878095Y-272660380D01*
X332782857Y-272660380D01*
X332687619Y-272612761D01*
X332640000Y-272565142D01*
X332592380Y-272469904D01*
X332544761Y-272279428D01*
X332544761Y-272041333D01*
X332592380Y-271850857D01*
X332640000Y-271755619D01*
X332687619Y-271708000D01*
X332782857Y-271660380D01*
X312211428Y-272660380D02*
X312211428Y-271660380D01*
X312592380Y-271660380D01*
X312687619Y-271708000D01*
X312735238Y-271755619D01*
X312782857Y-271850857D01*
X312782857Y-271993714D01*
X312735238Y-272088952D01*
X312687619Y-272136571D01*
X312592380Y-272184190D01*
X312211428Y-272184190D01*
X313259047Y-272660380D02*
X313449523Y-272660380D01*
X313544761Y-272612761D01*
X313592380Y-272565142D01*
X313687619Y-272422285D01*
X313735238Y-272231809D01*
X313735238Y-271850857D01*
X313687619Y-271755619D01*
X313640000Y-271708000D01*
X313544761Y-271660380D01*
X313354285Y-271660380D01*
X313259047Y-271708000D01*
X313211428Y-271755619D01*
X313163809Y-271850857D01*
X313163809Y-272088952D01*
X313211428Y-272184190D01*
X313259047Y-272231809D01*
X313354285Y-272279428D01*
X313544761Y-272279428D01*
X313640000Y-272231809D01*
X313687619Y-272184190D01*
X313735238Y-272088952D01*
X314163809Y-272565142D02*
X314211428Y-272612761D01*
X314163809Y-272660380D01*
X314116190Y-272612761D01*
X314163809Y-272565142D01*
X314163809Y-272660380D01*
X314544761Y-271660380D02*
X315163809Y-271660380D01*
X314830476Y-272041333D01*
X314973333Y-272041333D01*
X315068571Y-272088952D01*
X315116190Y-272136571D01*
X315163809Y-272231809D01*
X315163809Y-272469904D01*
X315116190Y-272565142D01*
X315068571Y-272612761D01*
X314973333Y-272660380D01*
X314687619Y-272660380D01*
X314592380Y-272612761D01*
X314544761Y-272565142D01*
X316116190Y-272660380D02*
X315544761Y-272660380D01*
X315830476Y-272660380D02*
X315830476Y-271660380D01*
X315735238Y-271803238D01*
X315640000Y-271898476D01*
X315544761Y-271946095D01*
X296211428Y-272660380D02*
X296211428Y-271660380D01*
X296592380Y-271660380D01*
X296687619Y-271708000D01*
X296735238Y-271755619D01*
X296782857Y-271850857D01*
X296782857Y-271993714D01*
X296735238Y-272088952D01*
X296687619Y-272136571D01*
X296592380Y-272184190D01*
X296211428Y-272184190D01*
X297259047Y-272660380D02*
X297449523Y-272660380D01*
X297544761Y-272612761D01*
X297592380Y-272565142D01*
X297687619Y-272422285D01*
X297735238Y-272231809D01*
X297735238Y-271850857D01*
X297687619Y-271755619D01*
X297640000Y-271708000D01*
X297544761Y-271660380D01*
X297354285Y-271660380D01*
X297259047Y-271708000D01*
X297211428Y-271755619D01*
X297163809Y-271850857D01*
X297163809Y-272088952D01*
X297211428Y-272184190D01*
X297259047Y-272231809D01*
X297354285Y-272279428D01*
X297544761Y-272279428D01*
X297640000Y-272231809D01*
X297687619Y-272184190D01*
X297735238Y-272088952D01*
X298163809Y-272565142D02*
X298211428Y-272612761D01*
X298163809Y-272660380D01*
X298116190Y-272612761D01*
X298163809Y-272565142D01*
X298163809Y-272660380D01*
X299068571Y-271993714D02*
X299068571Y-272660380D01*
X298830476Y-271612761D02*
X298592380Y-272327047D01*
X299211428Y-272327047D01*
X299544761Y-271755619D02*
X299592380Y-271708000D01*
X299687619Y-271660380D01*
X299925714Y-271660380D01*
X300020952Y-271708000D01*
X300068571Y-271755619D01*
X300116190Y-271850857D01*
X300116190Y-271946095D01*
X300068571Y-272088952D01*
X299497142Y-272660380D01*
X300116190Y-272660380D01*
X359211428Y-319993714D02*
X359211428Y-319231809D01*
X359592380Y-319612761D02*
X358830476Y-319612761D01*
X358592380Y-318279428D02*
X358592380Y-318755619D01*
X359068571Y-318803238D01*
X359020952Y-318755619D01*
X358973333Y-318660380D01*
X358973333Y-318422285D01*
X359020952Y-318327047D01*
X359068571Y-318279428D01*
X359163809Y-318231809D01*
X359401904Y-318231809D01*
X359497142Y-318279428D01*
X359544761Y-318327047D01*
X359592380Y-318422285D01*
X359592380Y-318660380D01*
X359544761Y-318755619D01*
X359497142Y-318803238D01*
X358592380Y-317946095D02*
X359592380Y-317612761D01*
X358592380Y-317279428D01*
X358640000Y-310969904D02*
X358592380Y-311065142D01*
X358592380Y-311208000D01*
X358640000Y-311350857D01*
X358735238Y-311446095D01*
X358830476Y-311493714D01*
X359020952Y-311541333D01*
X359163809Y-311541333D01*
X359354285Y-311493714D01*
X359449523Y-311446095D01*
X359544761Y-311350857D01*
X359592380Y-311208000D01*
X359592380Y-311112761D01*
X359544761Y-310969904D01*
X359497142Y-310922285D01*
X359163809Y-310922285D01*
X359163809Y-311112761D01*
X359592380Y-310493714D02*
X358592380Y-310493714D01*
X359592380Y-309922285D01*
X358592380Y-309922285D01*
X359592380Y-309446095D02*
X358592380Y-309446095D01*
X358592380Y-309208000D01*
X358640000Y-309065142D01*
X358735238Y-308969904D01*
X358830476Y-308922285D01*
X359020952Y-308874666D01*
X359163809Y-308874666D01*
X359354285Y-308922285D01*
X359449523Y-308969904D01*
X359544761Y-309065142D01*
X359592380Y-309208000D01*
X359592380Y-309446095D01*
X389663809Y-313835380D02*
X389663809Y-312835380D01*
X389663809Y-313216333D02*
X389759047Y-313168714D01*
X389949523Y-313168714D01*
X390044761Y-313216333D01*
X390092380Y-313263952D01*
X390140000Y-313359190D01*
X390140000Y-313644904D01*
X390092380Y-313740142D01*
X390044761Y-313787761D01*
X389949523Y-313835380D01*
X389759047Y-313835380D01*
X389663809Y-313787761D01*
X390711428Y-313835380D02*
X390616190Y-313787761D01*
X390568571Y-313740142D01*
X390520952Y-313644904D01*
X390520952Y-313359190D01*
X390568571Y-313263952D01*
X390616190Y-313216333D01*
X390711428Y-313168714D01*
X390854285Y-313168714D01*
X390949523Y-313216333D01*
X390997142Y-313263952D01*
X391044761Y-313359190D01*
X391044761Y-313644904D01*
X390997142Y-313740142D01*
X390949523Y-313787761D01*
X390854285Y-313835380D01*
X390711428Y-313835380D01*
X391473333Y-313168714D02*
X391473333Y-313835380D01*
X391473333Y-313263952D02*
X391520952Y-313216333D01*
X391616190Y-313168714D01*
X391759047Y-313168714D01*
X391854285Y-313216333D01*
X391901904Y-313311571D01*
X391901904Y-313835380D01*
X392759047Y-313787761D02*
X392663809Y-313835380D01*
X392473333Y-313835380D01*
X392378095Y-313787761D01*
X392330476Y-313692523D01*
X392330476Y-313311571D01*
X392378095Y-313216333D01*
X392473333Y-313168714D01*
X392663809Y-313168714D01*
X392759047Y-313216333D01*
X392806666Y-313311571D01*
X392806666Y-313406809D01*
X392330476Y-313502047D01*
X393235238Y-313835380D02*
X393235238Y-312835380D01*
X393901904Y-312835380D02*
X394092380Y-312835380D01*
X394187619Y-312883000D01*
X394282857Y-312978238D01*
X394330476Y-313168714D01*
X394330476Y-313502047D01*
X394282857Y-313692523D01*
X394187619Y-313787761D01*
X394092380Y-313835380D01*
X393901904Y-313835380D01*
X393806666Y-313787761D01*
X393711428Y-313692523D01*
X393663809Y-313502047D01*
X393663809Y-313168714D01*
X393711428Y-312978238D01*
X393806666Y-312883000D01*
X393901904Y-312835380D01*
X395520952Y-313454428D02*
X396282857Y-313454428D01*
X397520952Y-313835380D02*
X397520952Y-313168714D01*
X397520952Y-313359190D02*
X397568571Y-313263952D01*
X397616190Y-313216333D01*
X397711428Y-313168714D01*
X397806666Y-313168714D01*
X398520952Y-313787761D02*
X398425714Y-313835380D01*
X398235238Y-313835380D01*
X398140000Y-313787761D01*
X398092380Y-313692523D01*
X398092380Y-313311571D01*
X398140000Y-313216333D01*
X398235238Y-313168714D01*
X398425714Y-313168714D01*
X398520952Y-313216333D01*
X398568571Y-313311571D01*
X398568571Y-313406809D01*
X398092380Y-313502047D01*
X399140000Y-313835380D02*
X399044761Y-313787761D01*
X398997142Y-313692523D01*
X398997142Y-312835380D01*
X399949523Y-313835380D02*
X399949523Y-313311571D01*
X399901904Y-313216333D01*
X399806666Y-313168714D01*
X399616190Y-313168714D01*
X399520952Y-313216333D01*
X399949523Y-313787761D02*
X399854285Y-313835380D01*
X399616190Y-313835380D01*
X399520952Y-313787761D01*
X399473333Y-313692523D01*
X399473333Y-313597285D01*
X399520952Y-313502047D01*
X399616190Y-313454428D01*
X399854285Y-313454428D01*
X399949523Y-313406809D01*
X400330476Y-313168714D02*
X400568571Y-313835380D01*
X400806666Y-313168714D02*
X400568571Y-313835380D01*
X400473333Y-314073476D01*
X400425714Y-314121095D01*
X400330476Y-314168714D01*
X401949523Y-313835380D02*
X401949523Y-312835380D01*
X401949523Y-313216333D02*
X402044761Y-313168714D01*
X402235238Y-313168714D01*
X402330476Y-313216333D01*
X402378095Y-313263952D01*
X402425714Y-313359190D01*
X402425714Y-313644904D01*
X402378095Y-313740142D01*
X402330476Y-313787761D01*
X402235238Y-313835380D01*
X402044761Y-313835380D01*
X401949523Y-313787761D01*
X402997142Y-313835380D02*
X402901904Y-313787761D01*
X402854285Y-313740142D01*
X402806666Y-313644904D01*
X402806666Y-313359190D01*
X402854285Y-313263952D01*
X402901904Y-313216333D01*
X402997142Y-313168714D01*
X403140000Y-313168714D01*
X403235238Y-313216333D01*
X403282857Y-313263952D01*
X403330476Y-313359190D01*
X403330476Y-313644904D01*
X403282857Y-313740142D01*
X403235238Y-313787761D01*
X403140000Y-313835380D01*
X402997142Y-313835380D01*
X404187619Y-313835380D02*
X404187619Y-313311571D01*
X404140000Y-313216333D01*
X404044761Y-313168714D01*
X403854285Y-313168714D01*
X403759047Y-313216333D01*
X404187619Y-313787761D02*
X404092380Y-313835380D01*
X403854285Y-313835380D01*
X403759047Y-313787761D01*
X403711428Y-313692523D01*
X403711428Y-313597285D01*
X403759047Y-313502047D01*
X403854285Y-313454428D01*
X404092380Y-313454428D01*
X404187619Y-313406809D01*
X404663809Y-313835380D02*
X404663809Y-313168714D01*
X404663809Y-313359190D02*
X404711428Y-313263952D01*
X404759047Y-313216333D01*
X404854285Y-313168714D01*
X404949523Y-313168714D01*
X405711428Y-313835380D02*
X405711428Y-312835380D01*
X405711428Y-313787761D02*
X405616190Y-313835380D01*
X405425714Y-313835380D01*
X405330476Y-313787761D01*
X405282857Y-313740142D01*
X405235238Y-313644904D01*
X405235238Y-313359190D01*
X405282857Y-313263952D01*
X405330476Y-313216333D01*
X405425714Y-313168714D01*
X405616190Y-313168714D01*
X405711428Y-313216333D01*
X406854285Y-313168714D02*
X407092380Y-313835380D01*
X407330476Y-313168714D01*
X407901904Y-312835380D02*
X407997142Y-312835380D01*
X408092380Y-312883000D01*
X408140000Y-312930619D01*
X408187619Y-313025857D01*
X408235238Y-313216333D01*
X408235238Y-313454428D01*
X408187619Y-313644904D01*
X408140000Y-313740142D01*
X408092380Y-313787761D01*
X407997142Y-313835380D01*
X407901904Y-313835380D01*
X407806666Y-313787761D01*
X407759047Y-313740142D01*
X407711428Y-313644904D01*
X407663809Y-313454428D01*
X407663809Y-313216333D01*
X407711428Y-313025857D01*
X407759047Y-312930619D01*
X407806666Y-312883000D01*
X407901904Y-312835380D01*
X408663809Y-313740142D02*
X408711428Y-313787761D01*
X408663809Y-313835380D01*
X408616190Y-313787761D01*
X408663809Y-313740142D01*
X408663809Y-313835380D01*
X409663809Y-313835380D02*
X409092380Y-313835380D01*
X409378095Y-313835380D02*
X409378095Y-312835380D01*
X409282857Y-312978238D01*
X409187619Y-313073476D01*
X409092380Y-313121095D01*
X390925714Y-315199666D02*
X391401904Y-315199666D01*
X390830476Y-315485380D02*
X391163809Y-314485380D01*
X391497142Y-315485380D01*
X392259047Y-314818714D02*
X392259047Y-315485380D01*
X391830476Y-314818714D02*
X391830476Y-315342523D01*
X391878095Y-315437761D01*
X391973333Y-315485380D01*
X392116190Y-315485380D01*
X392211428Y-315437761D01*
X392259047Y-315390142D01*
X392592380Y-314818714D02*
X392973333Y-314818714D01*
X392735238Y-314485380D02*
X392735238Y-315342523D01*
X392782857Y-315437761D01*
X392878095Y-315485380D01*
X392973333Y-315485380D01*
X393306666Y-315485380D02*
X393306666Y-314485380D01*
X393735238Y-315485380D02*
X393735238Y-314961571D01*
X393687619Y-314866333D01*
X393592380Y-314818714D01*
X393449523Y-314818714D01*
X393354285Y-314866333D01*
X393306666Y-314913952D01*
X394354285Y-315485380D02*
X394259047Y-315437761D01*
X394211428Y-315390142D01*
X394163809Y-315294904D01*
X394163809Y-315009190D01*
X394211428Y-314913952D01*
X394259047Y-314866333D01*
X394354285Y-314818714D01*
X394497142Y-314818714D01*
X394592380Y-314866333D01*
X394640000Y-314913952D01*
X394687619Y-315009190D01*
X394687619Y-315294904D01*
X394640000Y-315390142D01*
X394592380Y-315437761D01*
X394497142Y-315485380D01*
X394354285Y-315485380D01*
X395116190Y-315485380D02*
X395116190Y-314818714D01*
X395116190Y-315009190D02*
X395163809Y-314913952D01*
X395211428Y-314866333D01*
X395306666Y-314818714D01*
X395401904Y-314818714D01*
X395735238Y-315390142D02*
X395782857Y-315437761D01*
X395735238Y-315485380D01*
X395687619Y-315437761D01*
X395735238Y-315390142D01*
X395735238Y-315485380D01*
X395735238Y-314866333D02*
X395782857Y-314913952D01*
X395735238Y-314961571D01*
X395687619Y-314913952D01*
X395735238Y-314866333D01*
X395735238Y-314961571D01*
X396973333Y-315485380D02*
X396973333Y-314485380D01*
X397306666Y-315199666D01*
X397640000Y-314485380D01*
X397640000Y-315485380D01*
X398544761Y-315485380D02*
X398544761Y-314961571D01*
X398497142Y-314866333D01*
X398401904Y-314818714D01*
X398211428Y-314818714D01*
X398116190Y-314866333D01*
X398544761Y-315437761D02*
X398449523Y-315485380D01*
X398211428Y-315485380D01*
X398116190Y-315437761D01*
X398068571Y-315342523D01*
X398068571Y-315247285D01*
X398116190Y-315152047D01*
X398211428Y-315104428D01*
X398449523Y-315104428D01*
X398544761Y-315056809D01*
X399449523Y-315437761D02*
X399354285Y-315485380D01*
X399163809Y-315485380D01*
X399068571Y-315437761D01*
X399020952Y-315390142D01*
X398973333Y-315294904D01*
X398973333Y-315009190D01*
X399020952Y-314913952D01*
X399068571Y-314866333D01*
X399163809Y-314818714D01*
X399354285Y-314818714D01*
X399449523Y-314866333D01*
X399878095Y-315485380D02*
X399878095Y-314818714D01*
X399878095Y-314485380D02*
X399830476Y-314533000D01*
X399878095Y-314580619D01*
X399925714Y-314533000D01*
X399878095Y-314485380D01*
X399878095Y-314580619D01*
X400735238Y-315437761D02*
X400640000Y-315485380D01*
X400449523Y-315485380D01*
X400354285Y-315437761D01*
X400306666Y-315342523D01*
X400306666Y-314961571D01*
X400354285Y-314866333D01*
X400449523Y-314818714D01*
X400640000Y-314818714D01*
X400735238Y-314866333D01*
X400782857Y-314961571D01*
X400782857Y-315056809D01*
X400306666Y-315152047D01*
X401211428Y-314818714D02*
X401211428Y-315675857D01*
X401163809Y-315771095D01*
X401068571Y-315818714D01*
X401020952Y-315818714D01*
X401211428Y-314485380D02*
X401163809Y-314533000D01*
X401211428Y-314580619D01*
X401259047Y-314533000D01*
X401211428Y-314485380D01*
X401211428Y-314580619D01*
X402449523Y-315485380D02*
X402449523Y-314485380D01*
X403020952Y-315485380D02*
X402592380Y-314913952D01*
X403020952Y-314485380D02*
X402449523Y-315056809D01*
X403449523Y-315485380D02*
X403449523Y-314818714D01*
X403449523Y-315009190D02*
X403497142Y-314913952D01*
X403544761Y-314866333D01*
X403640000Y-314818714D01*
X403735238Y-314818714D01*
X404497142Y-315485380D02*
X404497142Y-314961571D01*
X404449523Y-314866333D01*
X404354285Y-314818714D01*
X404163809Y-314818714D01*
X404068571Y-314866333D01*
X404497142Y-315437761D02*
X404401904Y-315485380D01*
X404163809Y-315485380D01*
X404068571Y-315437761D01*
X404020952Y-315342523D01*
X404020952Y-315247285D01*
X404068571Y-315152047D01*
X404163809Y-315104428D01*
X404401904Y-315104428D01*
X404497142Y-315056809D01*
X404925714Y-315437761D02*
X405020952Y-315485380D01*
X405211428Y-315485380D01*
X405306666Y-315437761D01*
X405354285Y-315342523D01*
X405354285Y-315294904D01*
X405306666Y-315199666D01*
X405211428Y-315152047D01*
X405068571Y-315152047D01*
X404973333Y-315104428D01*
X404925714Y-315009190D01*
X404925714Y-314961571D01*
X404973333Y-314866333D01*
X405068571Y-314818714D01*
X405211428Y-314818714D01*
X405306666Y-314866333D01*
X406211428Y-314818714D02*
X406211428Y-315485380D01*
X405782857Y-314818714D02*
X405782857Y-315342523D01*
X405830476Y-315437761D01*
X405925714Y-315485380D01*
X406068571Y-315485380D01*
X406163809Y-315437761D01*
X406211428Y-315390142D01*
X406640000Y-315437761D02*
X406735238Y-315485380D01*
X406925714Y-315485380D01*
X407020952Y-315437761D01*
X407068571Y-315342523D01*
X407068571Y-315294904D01*
X407020952Y-315199666D01*
X406925714Y-315152047D01*
X406782857Y-315152047D01*
X406687619Y-315104428D01*
X406640000Y-315009190D01*
X406640000Y-314961571D01*
X406687619Y-314866333D01*
X406782857Y-314818714D01*
X406925714Y-314818714D01*
X407020952Y-314866333D01*
X407497142Y-315485380D02*
X407497142Y-314485380D01*
X407592380Y-315104428D02*
X407878095Y-315485380D01*
X407878095Y-314818714D02*
X407497142Y-315199666D01*
X408306666Y-315485380D02*
X408306666Y-314818714D01*
X408306666Y-314485380D02*
X408259047Y-314533000D01*
X408306666Y-314580619D01*
X408354285Y-314533000D01*
X408306666Y-314485380D01*
X408306666Y-314580619D01*
D11*
%TO.C,Q13*%
X330440000Y-303952000D02*
X331900000Y-303952000D01*
X330440000Y-307112000D02*
X332600000Y-307112000D01*
X330440000Y-307112000D02*
X330440000Y-306182000D01*
X330440000Y-303952000D02*
X330440000Y-304882000D01*
D12*
%TO.C,K1*%
X292540000Y-356008000D02*
X292540000Y-327008000D01*
X292540000Y-327008000D02*
X305240000Y-327008000D01*
X305240000Y-327008000D02*
X305240000Y-356008000D01*
X305240000Y-356008000D02*
X292540000Y-356008000D01*
%TO.C,K5*%
X358540000Y-356008000D02*
X358540000Y-327008000D01*
X358540000Y-327008000D02*
X371240000Y-327008000D01*
X371240000Y-327008000D02*
X371240000Y-356008000D01*
X371240000Y-356008000D02*
X358540000Y-356008000D01*
%TO.C,K2*%
X321240000Y-356008000D02*
X308540000Y-356008000D01*
X321240000Y-327008000D02*
X321240000Y-356008000D01*
X308540000Y-327008000D02*
X321240000Y-327008000D01*
X308540000Y-356008000D02*
X308540000Y-327008000D01*
%TO.C,K3*%
X325540000Y-356008000D02*
X325540000Y-327008000D01*
X325540000Y-327008000D02*
X338240000Y-327008000D01*
X338240000Y-327008000D02*
X338240000Y-356008000D01*
X338240000Y-356008000D02*
X325540000Y-356008000D01*
%TO.C,K4*%
X341540000Y-356008000D02*
X341540000Y-327008000D01*
X341540000Y-327008000D02*
X354240000Y-327008000D01*
X354240000Y-327008000D02*
X354240000Y-356008000D01*
X354240000Y-356008000D02*
X341540000Y-356008000D01*
%TO.C,K6*%
X374540000Y-356008000D02*
X374540000Y-327008000D01*
X374540000Y-327008000D02*
X387240000Y-327008000D01*
X387240000Y-327008000D02*
X387240000Y-356008000D01*
X387240000Y-356008000D02*
X374540000Y-356008000D01*
%TO.C,K7*%
X404240000Y-356008000D02*
X391540000Y-356008000D01*
X404240000Y-327008000D02*
X404240000Y-356008000D01*
X391540000Y-327008000D02*
X404240000Y-327008000D01*
X391540000Y-356008000D02*
X391540000Y-327008000D01*
%TO.C,K8*%
X420240000Y-356008000D02*
X407540000Y-356008000D01*
X420240000Y-327008000D02*
X420240000Y-356008000D01*
X407540000Y-327008000D02*
X420240000Y-327008000D01*
X407540000Y-356008000D02*
X407540000Y-327008000D01*
%TO.C,K10*%
X453240000Y-356008000D02*
X440540000Y-356008000D01*
X453240000Y-327008000D02*
X453240000Y-356008000D01*
X440540000Y-327008000D02*
X453240000Y-327008000D01*
X440540000Y-356008000D02*
X440540000Y-327008000D01*
%TO.C,K9*%
X437240000Y-356008000D02*
X424540000Y-356008000D01*
X437240000Y-327008000D02*
X437240000Y-356008000D01*
X424540000Y-327008000D02*
X437240000Y-327008000D01*
X424540000Y-356008000D02*
X424540000Y-327008000D01*
%TO.C,K19*%
X436740000Y-273408000D02*
X436740000Y-302408000D01*
X436740000Y-302408000D02*
X424040000Y-302408000D01*
X424040000Y-302408000D02*
X424040000Y-273408000D01*
X424040000Y-273408000D02*
X436740000Y-273408000D01*
%TO.C,K13*%
X337740000Y-273408000D02*
X337740000Y-302408000D01*
X337740000Y-302408000D02*
X325040000Y-302408000D01*
X325040000Y-302408000D02*
X325040000Y-273408000D01*
X325040000Y-273408000D02*
X337740000Y-273408000D01*
D11*
%TO.C,D1*%
X303887000Y-325121000D02*
X303887000Y-321236000D01*
X301617000Y-325121000D02*
X303887000Y-325121000D01*
X301617000Y-321236000D02*
X301617000Y-325121000D01*
%TO.C,D2*%
X317365000Y-321236000D02*
X317365000Y-325121000D01*
X317365000Y-325121000D02*
X319635000Y-325121000D01*
X319635000Y-325121000D02*
X319635000Y-321236000D01*
%TO.C,D3*%
X336907000Y-325121000D02*
X336907000Y-321236000D01*
X334637000Y-325121000D02*
X336907000Y-325121000D01*
X334637000Y-321236000D02*
X334637000Y-325121000D01*
%TO.C,D4*%
X352655000Y-325121000D02*
X352655000Y-321236000D01*
X350385000Y-325121000D02*
X352655000Y-325121000D01*
X350385000Y-321236000D02*
X350385000Y-325121000D01*
%TO.C,D5*%
X367657000Y-321236000D02*
X367657000Y-325121000D01*
X367657000Y-325121000D02*
X369927000Y-325121000D01*
X369927000Y-325121000D02*
X369927000Y-321236000D01*
%TO.C,D6*%
X385675000Y-325121000D02*
X385675000Y-321236000D01*
X383405000Y-325121000D02*
X385675000Y-325121000D01*
X383405000Y-321236000D02*
X383405000Y-325121000D01*
%TO.C,D7*%
X402947000Y-325121000D02*
X402947000Y-321236000D01*
X400677000Y-325121000D02*
X402947000Y-325121000D01*
X400677000Y-321236000D02*
X400677000Y-325121000D01*
%TO.C,D8*%
X416425000Y-321236000D02*
X416425000Y-325121000D01*
X416425000Y-325121000D02*
X418695000Y-325121000D01*
X418695000Y-325121000D02*
X418695000Y-321236000D01*
%TO.C,D9*%
X435967000Y-325121000D02*
X435967000Y-321236000D01*
X433697000Y-325121000D02*
X435967000Y-325121000D01*
X433697000Y-321236000D02*
X433697000Y-325121000D01*
%TO.C,D10*%
X451715000Y-325121000D02*
X451715000Y-321236000D01*
X449445000Y-325121000D02*
X451715000Y-325121000D01*
X449445000Y-321236000D02*
X449445000Y-325121000D01*
%TO.C,D11*%
X294235000Y-307640000D02*
X294235000Y-303755000D01*
X294235000Y-303755000D02*
X291965000Y-303755000D01*
X291965000Y-303755000D02*
X291965000Y-307640000D01*
%TO.C,D12*%
X309983000Y-307640000D02*
X309983000Y-303755000D01*
X309983000Y-303755000D02*
X307713000Y-303755000D01*
X307713000Y-303755000D02*
X307713000Y-307640000D01*
%TO.C,D13*%
X327255000Y-307640000D02*
X327255000Y-303755000D01*
X327255000Y-303755000D02*
X324985000Y-303755000D01*
X324985000Y-303755000D02*
X324985000Y-307640000D01*
%TO.C,D14*%
X343003000Y-307640000D02*
X343003000Y-303755000D01*
X343003000Y-303755000D02*
X340733000Y-303755000D01*
X340733000Y-303755000D02*
X340733000Y-307640000D01*
%TO.C,D15*%
X360275000Y-307640000D02*
X360275000Y-303755000D01*
X360275000Y-303755000D02*
X358005000Y-303755000D01*
X358005000Y-303755000D02*
X358005000Y-307640000D01*
%TO.C,D16*%
X376023000Y-307640000D02*
X376023000Y-303755000D01*
X376023000Y-303755000D02*
X373753000Y-303755000D01*
X373753000Y-303755000D02*
X373753000Y-307640000D01*
%TO.C,D17*%
X391025000Y-303755000D02*
X391025000Y-307640000D01*
X393295000Y-303755000D02*
X391025000Y-303755000D01*
X393295000Y-307640000D02*
X393295000Y-303755000D01*
%TO.C,D18*%
X406773000Y-303755000D02*
X406773000Y-307640000D01*
X409043000Y-303755000D02*
X406773000Y-303755000D01*
X409043000Y-307640000D02*
X409043000Y-303755000D01*
%TO.C,D19*%
X424045000Y-303755000D02*
X424045000Y-307640000D01*
X426315000Y-303755000D02*
X424045000Y-303755000D01*
X426315000Y-307640000D02*
X426315000Y-303755000D01*
%TO.C,D20*%
X442063000Y-307640000D02*
X442063000Y-303755000D01*
X442063000Y-303755000D02*
X439793000Y-303755000D01*
X439793000Y-303755000D02*
X439793000Y-307640000D01*
%TO.C,J6*%
X385870000Y-317038000D02*
X385870000Y-311838000D01*
X360410000Y-317038000D02*
X385870000Y-317038000D01*
X357810000Y-311838000D02*
X385870000Y-311838000D01*
X360410000Y-317038000D02*
X360410000Y-314438000D01*
X360410000Y-314438000D02*
X357810000Y-314438000D01*
X357810000Y-314438000D02*
X357810000Y-311838000D01*
X359140000Y-317038000D02*
X357810000Y-317038000D01*
X357810000Y-317038000D02*
X357810000Y-315708000D01*
D12*
%TO.C,K11*%
X292040000Y-273408000D02*
X304740000Y-273408000D01*
X292040000Y-302408000D02*
X292040000Y-273408000D01*
X304740000Y-302408000D02*
X292040000Y-302408000D01*
X304740000Y-273408000D02*
X304740000Y-302408000D01*
%TO.C,K12*%
X308040000Y-273408000D02*
X320740000Y-273408000D01*
X308040000Y-302408000D02*
X308040000Y-273408000D01*
X320740000Y-302408000D02*
X308040000Y-302408000D01*
X320740000Y-273408000D02*
X320740000Y-302408000D01*
%TO.C,K14*%
X353740000Y-273408000D02*
X353740000Y-302408000D01*
X353740000Y-302408000D02*
X341040000Y-302408000D01*
X341040000Y-302408000D02*
X341040000Y-273408000D01*
X341040000Y-273408000D02*
X353740000Y-273408000D01*
%TO.C,K15*%
X358040000Y-273408000D02*
X370740000Y-273408000D01*
X358040000Y-302408000D02*
X358040000Y-273408000D01*
X370740000Y-302408000D02*
X358040000Y-302408000D01*
X370740000Y-273408000D02*
X370740000Y-302408000D01*
%TO.C,K16*%
X374040000Y-273408000D02*
X386740000Y-273408000D01*
X374040000Y-302408000D02*
X374040000Y-273408000D01*
X386740000Y-302408000D02*
X374040000Y-302408000D01*
X386740000Y-273408000D02*
X386740000Y-302408000D01*
%TO.C,K17*%
X391040000Y-273408000D02*
X403740000Y-273408000D01*
X391040000Y-302408000D02*
X391040000Y-273408000D01*
X403740000Y-302408000D02*
X391040000Y-302408000D01*
X403740000Y-273408000D02*
X403740000Y-302408000D01*
%TO.C,K18*%
X419740000Y-273408000D02*
X419740000Y-302408000D01*
X419740000Y-302408000D02*
X407040000Y-302408000D01*
X407040000Y-302408000D02*
X407040000Y-273408000D01*
X407040000Y-273408000D02*
X419740000Y-273408000D01*
%TO.C,K20*%
X452740000Y-273408000D02*
X452740000Y-302408000D01*
X452740000Y-302408000D02*
X440040000Y-302408000D01*
X440040000Y-302408000D02*
X440040000Y-273408000D01*
X440040000Y-273408000D02*
X452740000Y-273408000D01*
D11*
%TO.C,Q1*%
X298940000Y-324924000D02*
X297480000Y-324924000D01*
X298940000Y-321764000D02*
X296780000Y-321764000D01*
X298940000Y-321764000D02*
X298940000Y-322694000D01*
X298940000Y-324924000D02*
X298940000Y-323994000D01*
%TO.C,Q2*%
X314688000Y-324924000D02*
X314688000Y-323994000D01*
X314688000Y-321764000D02*
X314688000Y-322694000D01*
X314688000Y-321764000D02*
X312528000Y-321764000D01*
X314688000Y-324924000D02*
X313228000Y-324924000D01*
%TO.C,Q3*%
X331960000Y-324924000D02*
X331960000Y-323994000D01*
X331960000Y-321764000D02*
X331960000Y-322694000D01*
X331960000Y-321764000D02*
X329800000Y-321764000D01*
X331960000Y-324924000D02*
X330500000Y-324924000D01*
%TO.C,Q4*%
X347708000Y-324924000D02*
X347708000Y-323994000D01*
X347708000Y-321764000D02*
X347708000Y-322694000D01*
X347708000Y-321764000D02*
X345548000Y-321764000D01*
X347708000Y-324924000D02*
X346248000Y-324924000D01*
%TO.C,Q5*%
X364980000Y-324924000D02*
X364980000Y-323994000D01*
X364980000Y-321764000D02*
X364980000Y-322694000D01*
X364980000Y-321764000D02*
X362820000Y-321764000D01*
X364980000Y-324924000D02*
X363520000Y-324924000D01*
%TO.C,Q6*%
X380728000Y-324924000D02*
X380728000Y-323994000D01*
X380728000Y-321764000D02*
X380728000Y-322694000D01*
X380728000Y-321764000D02*
X378568000Y-321764000D01*
X380728000Y-324924000D02*
X379268000Y-324924000D01*
%TO.C,Q7*%
X398000000Y-324924000D02*
X396540000Y-324924000D01*
X398000000Y-321764000D02*
X395840000Y-321764000D01*
X398000000Y-321764000D02*
X398000000Y-322694000D01*
X398000000Y-324924000D02*
X398000000Y-323994000D01*
%TO.C,Q8*%
X413748000Y-324924000D02*
X413748000Y-323994000D01*
X413748000Y-321764000D02*
X413748000Y-322694000D01*
X413748000Y-321764000D02*
X411588000Y-321764000D01*
X413748000Y-324924000D02*
X412288000Y-324924000D01*
%TO.C,Q9*%
X431020000Y-324924000D02*
X431020000Y-323994000D01*
X431020000Y-321764000D02*
X431020000Y-322694000D01*
X431020000Y-321764000D02*
X428860000Y-321764000D01*
X431020000Y-324924000D02*
X429560000Y-324924000D01*
%TO.C,Q10*%
X446768000Y-324924000D02*
X446768000Y-323994000D01*
X446768000Y-321764000D02*
X446768000Y-322694000D01*
X446768000Y-321764000D02*
X444608000Y-321764000D01*
X446768000Y-324924000D02*
X445308000Y-324924000D01*
%TO.C,Q11*%
X297420000Y-303952000D02*
X298880000Y-303952000D01*
X297420000Y-307112000D02*
X299580000Y-307112000D01*
X297420000Y-307112000D02*
X297420000Y-306182000D01*
X297420000Y-303952000D02*
X297420000Y-304882000D01*
%TO.C,Q12*%
X313168000Y-303952000D02*
X314628000Y-303952000D01*
X313168000Y-307112000D02*
X315328000Y-307112000D01*
X313168000Y-307112000D02*
X313168000Y-306182000D01*
X313168000Y-303952000D02*
X313168000Y-304882000D01*
%TO.C,Q14*%
X346188000Y-303952000D02*
X347648000Y-303952000D01*
X346188000Y-307112000D02*
X348348000Y-307112000D01*
X346188000Y-307112000D02*
X346188000Y-306182000D01*
X346188000Y-303952000D02*
X346188000Y-304882000D01*
%TO.C,Q15*%
X363460000Y-303952000D02*
X364920000Y-303952000D01*
X363460000Y-307112000D02*
X365620000Y-307112000D01*
X363460000Y-307112000D02*
X363460000Y-306182000D01*
X363460000Y-303952000D02*
X363460000Y-304882000D01*
%TO.C,Q16*%
X379208000Y-303952000D02*
X379208000Y-304882000D01*
X379208000Y-307112000D02*
X379208000Y-306182000D01*
X379208000Y-307112000D02*
X381368000Y-307112000D01*
X379208000Y-303952000D02*
X380668000Y-303952000D01*
%TO.C,Q17*%
X396480000Y-303952000D02*
X397940000Y-303952000D01*
X396480000Y-307112000D02*
X398640000Y-307112000D01*
X396480000Y-307112000D02*
X396480000Y-306182000D01*
X396480000Y-303952000D02*
X396480000Y-304882000D01*
%TO.C,Q18*%
X412228000Y-303952000D02*
X413688000Y-303952000D01*
X412228000Y-307112000D02*
X414388000Y-307112000D01*
X412228000Y-307112000D02*
X412228000Y-306182000D01*
X412228000Y-303952000D02*
X412228000Y-304882000D01*
%TO.C,Q19*%
X429500000Y-303952000D02*
X430960000Y-303952000D01*
X429500000Y-307112000D02*
X431660000Y-307112000D01*
X429500000Y-307112000D02*
X429500000Y-306182000D01*
X429500000Y-303952000D02*
X429500000Y-304882000D01*
%TO.C,Q20*%
X445248000Y-303952000D02*
X445248000Y-304882000D01*
X445248000Y-307112000D02*
X445248000Y-306182000D01*
X445248000Y-307112000D02*
X447408000Y-307112000D01*
X445248000Y-303952000D02*
X446708000Y-303952000D01*
%TO.C,R1*%
X292190000Y-323438064D02*
X292190000Y-322233936D01*
X294010000Y-323438064D02*
X294010000Y-322233936D01*
%TO.C,R2*%
X307938000Y-323438064D02*
X307938000Y-322233936D01*
X309758000Y-323438064D02*
X309758000Y-322233936D01*
%TO.C,R3*%
X325210000Y-323438064D02*
X325210000Y-322233936D01*
X327030000Y-323438064D02*
X327030000Y-322233936D01*
%TO.C,R4*%
X342778000Y-323438064D02*
X342778000Y-322233936D01*
X340958000Y-323438064D02*
X340958000Y-322233936D01*
%TO.C,R5*%
X360050000Y-323438064D02*
X360050000Y-322233936D01*
X358230000Y-323438064D02*
X358230000Y-322233936D01*
%TO.C,R6*%
X373978000Y-323438064D02*
X373978000Y-322233936D01*
X375798000Y-323438064D02*
X375798000Y-322233936D01*
%TO.C,R7*%
X393070000Y-323438064D02*
X393070000Y-322233936D01*
X391250000Y-323438064D02*
X391250000Y-322233936D01*
%TO.C,R8*%
X406998000Y-323438064D02*
X406998000Y-322233936D01*
X408818000Y-323438064D02*
X408818000Y-322233936D01*
%TO.C,R9*%
X426090000Y-323438064D02*
X426090000Y-322233936D01*
X424270000Y-323438064D02*
X424270000Y-322233936D01*
%TO.C,R10*%
X440018000Y-323438064D02*
X440018000Y-322233936D01*
X441838000Y-323438064D02*
X441838000Y-322233936D01*
%TO.C,R11*%
X301842000Y-305437936D02*
X301842000Y-306642064D01*
X303662000Y-305437936D02*
X303662000Y-306642064D01*
%TO.C,R12*%
X317590000Y-305437936D02*
X317590000Y-306642064D01*
X319410000Y-305437936D02*
X319410000Y-306642064D01*
%TO.C,R13*%
X336682000Y-305437936D02*
X336682000Y-306642064D01*
X334862000Y-305437936D02*
X334862000Y-306642064D01*
%TO.C,R14*%
X352430000Y-305437936D02*
X352430000Y-306642064D01*
X350610000Y-305437936D02*
X350610000Y-306642064D01*
%TO.C,R15*%
X367882000Y-305437936D02*
X367882000Y-306642064D01*
X369702000Y-305437936D02*
X369702000Y-306642064D01*
%TO.C,R16*%
X383630000Y-305437936D02*
X383630000Y-306642064D01*
X385450000Y-305437936D02*
X385450000Y-306642064D01*
%TO.C,R17*%
X402722000Y-305437936D02*
X402722000Y-306642064D01*
X400902000Y-305437936D02*
X400902000Y-306642064D01*
%TO.C,R18*%
X418470000Y-305437936D02*
X418470000Y-306642064D01*
X416650000Y-305437936D02*
X416650000Y-306642064D01*
%TO.C,R19*%
X433922000Y-305437936D02*
X433922000Y-306642064D01*
X435742000Y-305437936D02*
X435742000Y-306642064D01*
%TO.C,R20*%
X449670000Y-305437936D02*
X449670000Y-306642064D01*
X451490000Y-305437936D02*
X451490000Y-306642064D01*
%TO.C,J1*%
X312320000Y-362708000D02*
G75*
G03*
X312320000Y-362708000I-1680000J0D01*
G01*
X304820000Y-362708000D02*
G75*
G03*
X304820000Y-362708000I-1680000J0D01*
G01*
X297320000Y-362708000D02*
G75*
G03*
X297320000Y-362708000I-1680000J0D01*
G01*
X321950000Y-360208000D02*
X291830000Y-360208000D01*
X321950000Y-365208000D02*
X291830000Y-365208000D01*
X321950000Y-367268000D02*
X291830000Y-367268000D01*
X321950000Y-358148000D02*
X291830000Y-358148000D01*
X321950000Y-367268000D02*
X321950000Y-358148000D01*
X291830000Y-367268000D02*
X291830000Y-358148000D01*
X309365000Y-363777000D02*
X309459000Y-363684000D01*
X311650000Y-361492000D02*
X311709000Y-361434000D01*
X309570000Y-363983000D02*
X309629000Y-363924000D01*
X311820000Y-361732000D02*
X311914000Y-361639000D01*
X301865000Y-363777000D02*
X301959000Y-363684000D01*
X304150000Y-361492000D02*
X304209000Y-361434000D01*
X302070000Y-363983000D02*
X302129000Y-363924000D01*
X304320000Y-361732000D02*
X304414000Y-361639000D01*
X294365000Y-363777000D02*
X294459000Y-363684000D01*
X296650000Y-361492000D02*
X296709000Y-361434000D01*
X294570000Y-363983000D02*
X294629000Y-363924000D01*
X296820000Y-361732000D02*
X296914000Y-361639000D01*
X322190000Y-360148000D02*
X322190000Y-357908000D01*
X322190000Y-357908000D02*
X320190000Y-357908000D01*
X317351288Y-361224648D02*
G75*
G02*
X318140000Y-361028000I788712J-1483352D01*
G01*
X316656047Y-363497088D02*
G75*
G02*
X316656000Y-361919000I1483953J789088D01*
G01*
X318929088Y-364191953D02*
G75*
G02*
X317351000Y-364192000I-789088J1483953D01*
G01*
X319623953Y-361918912D02*
G75*
G02*
X319624000Y-363497000I-1483953J-789088D01*
G01*
X318110617Y-361027550D02*
G75*
G02*
X318929000Y-361224000I29383J-1680450D01*
G01*
%TO.C,J2*%
X355190000Y-357908000D02*
X353190000Y-357908000D01*
X355190000Y-360148000D02*
X355190000Y-357908000D01*
X329820000Y-361732000D02*
X329914000Y-361639000D01*
X327570000Y-363983000D02*
X327629000Y-363924000D01*
X329650000Y-361492000D02*
X329709000Y-361434000D01*
X327365000Y-363777000D02*
X327459000Y-363684000D01*
X337320000Y-361732000D02*
X337414000Y-361639000D01*
X335070000Y-363983000D02*
X335129000Y-363924000D01*
X337150000Y-361492000D02*
X337209000Y-361434000D01*
X334865000Y-363777000D02*
X334959000Y-363684000D01*
X344820000Y-361732000D02*
X344914000Y-361639000D01*
X342570000Y-363983000D02*
X342629000Y-363924000D01*
X344650000Y-361492000D02*
X344709000Y-361434000D01*
X342365000Y-363777000D02*
X342459000Y-363684000D01*
X324830000Y-367268000D02*
X324830000Y-358148000D01*
X354950000Y-367268000D02*
X354950000Y-358148000D01*
X354950000Y-358148000D02*
X324830000Y-358148000D01*
X354950000Y-367268000D02*
X324830000Y-367268000D01*
X354950000Y-365208000D02*
X324830000Y-365208000D01*
X354950000Y-360208000D02*
X324830000Y-360208000D01*
X330320000Y-362708000D02*
G75*
G03*
X330320000Y-362708000I-1680000J0D01*
G01*
X337820000Y-362708000D02*
G75*
G03*
X337820000Y-362708000I-1680000J0D01*
G01*
X345320000Y-362708000D02*
G75*
G03*
X345320000Y-362708000I-1680000J0D01*
G01*
X351110617Y-361027550D02*
G75*
G02*
X351929000Y-361224000I29383J-1680450D01*
G01*
X352623953Y-361918912D02*
G75*
G02*
X352624000Y-363497000I-1483953J-789088D01*
G01*
X351929088Y-364191953D02*
G75*
G02*
X350351000Y-364192000I-789088J1483953D01*
G01*
X349656047Y-363497088D02*
G75*
G02*
X349656000Y-361919000I1483953J789088D01*
G01*
X350351288Y-361224648D02*
G75*
G02*
X351140000Y-361028000I788712J-1483352D01*
G01*
%TO.C,J3*%
X378320000Y-362708000D02*
G75*
G03*
X378320000Y-362708000I-1680000J0D01*
G01*
X370820000Y-362708000D02*
G75*
G03*
X370820000Y-362708000I-1680000J0D01*
G01*
X363320000Y-362708000D02*
G75*
G03*
X363320000Y-362708000I-1680000J0D01*
G01*
X387950000Y-360208000D02*
X357830000Y-360208000D01*
X387950000Y-365208000D02*
X357830000Y-365208000D01*
X387950000Y-367268000D02*
X357830000Y-367268000D01*
X387950000Y-358148000D02*
X357830000Y-358148000D01*
X387950000Y-367268000D02*
X387950000Y-358148000D01*
X357830000Y-367268000D02*
X357830000Y-358148000D01*
X375365000Y-363777000D02*
X375459000Y-363684000D01*
X377650000Y-361492000D02*
X377709000Y-361434000D01*
X375570000Y-363983000D02*
X375629000Y-363924000D01*
X377820000Y-361732000D02*
X377914000Y-361639000D01*
X367865000Y-363777000D02*
X367959000Y-363684000D01*
X370150000Y-361492000D02*
X370209000Y-361434000D01*
X368070000Y-363983000D02*
X368129000Y-363924000D01*
X370320000Y-361732000D02*
X370414000Y-361639000D01*
X360365000Y-363777000D02*
X360459000Y-363684000D01*
X362650000Y-361492000D02*
X362709000Y-361434000D01*
X360570000Y-363983000D02*
X360629000Y-363924000D01*
X362820000Y-361732000D02*
X362914000Y-361639000D01*
X388190000Y-360148000D02*
X388190000Y-357908000D01*
X388190000Y-357908000D02*
X386190000Y-357908000D01*
X383351288Y-361224648D02*
G75*
G02*
X384140000Y-361028000I788712J-1483352D01*
G01*
X382656047Y-363497088D02*
G75*
G02*
X382656000Y-361919000I1483953J789088D01*
G01*
X384929088Y-364191953D02*
G75*
G02*
X383351000Y-364192000I-789088J1483953D01*
G01*
X385623953Y-361918912D02*
G75*
G02*
X385624000Y-363497000I-1483953J-789088D01*
G01*
X384110617Y-361027550D02*
G75*
G02*
X384929000Y-361224000I29383J-1680450D01*
G01*
%TO.C,J4*%
X421190000Y-357908000D02*
X419190000Y-357908000D01*
X421190000Y-360148000D02*
X421190000Y-357908000D01*
X395820000Y-361732000D02*
X395914000Y-361639000D01*
X393570000Y-363983000D02*
X393629000Y-363924000D01*
X395650000Y-361492000D02*
X395709000Y-361434000D01*
X393365000Y-363777000D02*
X393459000Y-363684000D01*
X403320000Y-361732000D02*
X403414000Y-361639000D01*
X401070000Y-363983000D02*
X401129000Y-363924000D01*
X403150000Y-361492000D02*
X403209000Y-361434000D01*
X400865000Y-363777000D02*
X400959000Y-363684000D01*
X410820000Y-361732000D02*
X410914000Y-361639000D01*
X408570000Y-363983000D02*
X408629000Y-363924000D01*
X410650000Y-361492000D02*
X410709000Y-361434000D01*
X408365000Y-363777000D02*
X408459000Y-363684000D01*
X390830000Y-367268000D02*
X390830000Y-358148000D01*
X420950000Y-367268000D02*
X420950000Y-358148000D01*
X420950000Y-358148000D02*
X390830000Y-358148000D01*
X420950000Y-367268000D02*
X390830000Y-367268000D01*
X420950000Y-365208000D02*
X390830000Y-365208000D01*
X420950000Y-360208000D02*
X390830000Y-360208000D01*
X396320000Y-362708000D02*
G75*
G03*
X396320000Y-362708000I-1680000J0D01*
G01*
X403820000Y-362708000D02*
G75*
G03*
X403820000Y-362708000I-1680000J0D01*
G01*
X411320000Y-362708000D02*
G75*
G03*
X411320000Y-362708000I-1680000J0D01*
G01*
X417110617Y-361027550D02*
G75*
G02*
X417929000Y-361224000I29383J-1680450D01*
G01*
X418623953Y-361918912D02*
G75*
G02*
X418624000Y-363497000I-1483953J-789088D01*
G01*
X417929088Y-364191953D02*
G75*
G02*
X416351000Y-364192000I-789088J1483953D01*
G01*
X415656047Y-363497088D02*
G75*
G02*
X415656000Y-361919000I1483953J789088D01*
G01*
X416351288Y-361224648D02*
G75*
G02*
X417140000Y-361028000I788712J-1483352D01*
G01*
%TO.C,J5*%
X444320000Y-362708000D02*
G75*
G03*
X444320000Y-362708000I-1680000J0D01*
G01*
X436820000Y-362708000D02*
G75*
G03*
X436820000Y-362708000I-1680000J0D01*
G01*
X429320000Y-362708000D02*
G75*
G03*
X429320000Y-362708000I-1680000J0D01*
G01*
X453950000Y-360208000D02*
X423830000Y-360208000D01*
X453950000Y-365208000D02*
X423830000Y-365208000D01*
X453950000Y-367268000D02*
X423830000Y-367268000D01*
X453950000Y-358148000D02*
X423830000Y-358148000D01*
X453950000Y-367268000D02*
X453950000Y-358148000D01*
X423830000Y-367268000D02*
X423830000Y-358148000D01*
X441365000Y-363777000D02*
X441459000Y-363684000D01*
X443650000Y-361492000D02*
X443709000Y-361434000D01*
X441570000Y-363983000D02*
X441629000Y-363924000D01*
X443820000Y-361732000D02*
X443914000Y-361639000D01*
X433865000Y-363777000D02*
X433959000Y-363684000D01*
X436150000Y-361492000D02*
X436209000Y-361434000D01*
X434070000Y-363983000D02*
X434129000Y-363924000D01*
X436320000Y-361732000D02*
X436414000Y-361639000D01*
X426365000Y-363777000D02*
X426459000Y-363684000D01*
X428650000Y-361492000D02*
X428709000Y-361434000D01*
X426570000Y-363983000D02*
X426629000Y-363924000D01*
X428820000Y-361732000D02*
X428914000Y-361639000D01*
X454190000Y-360148000D02*
X454190000Y-357908000D01*
X454190000Y-357908000D02*
X452190000Y-357908000D01*
X449351288Y-361224648D02*
G75*
G02*
X450140000Y-361028000I788712J-1483352D01*
G01*
X448656047Y-363497088D02*
G75*
G02*
X448656000Y-361919000I1483953J789088D01*
G01*
X450929088Y-364191953D02*
G75*
G02*
X449351000Y-364192000I-789088J1483953D01*
G01*
X451623953Y-361918912D02*
G75*
G02*
X451624000Y-363497000I-1483953J-789088D01*
G01*
X450110617Y-361027550D02*
G75*
G02*
X450929000Y-361224000I29383J-1680450D01*
G01*
%TO.C,J10*%
X403320000Y-266708000D02*
G75*
G03*
X403320000Y-266708000I-1680000J0D01*
G01*
X410820000Y-266708000D02*
G75*
G03*
X410820000Y-266708000I-1680000J0D01*
G01*
X418320000Y-266708000D02*
G75*
G03*
X418320000Y-266708000I-1680000J0D01*
G01*
X390330000Y-269208000D02*
X420450000Y-269208000D01*
X390330000Y-264208000D02*
X420450000Y-264208000D01*
X390330000Y-262148000D02*
X420450000Y-262148000D01*
X390330000Y-271268000D02*
X420450000Y-271268000D01*
X390330000Y-262148000D02*
X390330000Y-271268000D01*
X420450000Y-262148000D02*
X420450000Y-271268000D01*
X402915000Y-265639000D02*
X402821000Y-265732000D01*
X400630000Y-267924000D02*
X400571000Y-267982000D01*
X402710000Y-265433000D02*
X402651000Y-265492000D01*
X400460000Y-267684000D02*
X400366000Y-267777000D01*
X410415000Y-265639000D02*
X410321000Y-265732000D01*
X408130000Y-267924000D02*
X408071000Y-267982000D01*
X410210000Y-265433000D02*
X410151000Y-265492000D01*
X407960000Y-267684000D02*
X407866000Y-267777000D01*
X417915000Y-265639000D02*
X417821000Y-265732000D01*
X415630000Y-267924000D02*
X415571000Y-267982000D01*
X417710000Y-265433000D02*
X417651000Y-265492000D01*
X415460000Y-267684000D02*
X415366000Y-267777000D01*
X390090000Y-269268000D02*
X390090000Y-271508000D01*
X390090000Y-271508000D02*
X392090000Y-271508000D01*
X394928712Y-268191352D02*
G75*
G02*
X394140000Y-268388000I-788712J1483352D01*
G01*
X395623953Y-265918912D02*
G75*
G02*
X395624000Y-267497000I-1483953J-789088D01*
G01*
X393350912Y-265224047D02*
G75*
G02*
X394929000Y-265224000I789088J-1483953D01*
G01*
X392656047Y-267497088D02*
G75*
G02*
X392656000Y-265919000I1483953J789088D01*
G01*
X394169383Y-268388450D02*
G75*
G02*
X393351000Y-268192000I-29383J1680450D01*
G01*
%TO.C,J11*%
X423090000Y-271508000D02*
X425090000Y-271508000D01*
X423090000Y-269268000D02*
X423090000Y-271508000D01*
X448460000Y-267684000D02*
X448366000Y-267777000D01*
X450710000Y-265433000D02*
X450651000Y-265492000D01*
X448630000Y-267924000D02*
X448571000Y-267982000D01*
X450915000Y-265639000D02*
X450821000Y-265732000D01*
X440960000Y-267684000D02*
X440866000Y-267777000D01*
X443210000Y-265433000D02*
X443151000Y-265492000D01*
X441130000Y-267924000D02*
X441071000Y-267982000D01*
X443415000Y-265639000D02*
X443321000Y-265732000D01*
X433460000Y-267684000D02*
X433366000Y-267777000D01*
X435710000Y-265433000D02*
X435651000Y-265492000D01*
X433630000Y-267924000D02*
X433571000Y-267982000D01*
X435915000Y-265639000D02*
X435821000Y-265732000D01*
X453450000Y-262148000D02*
X453450000Y-271268000D01*
X423330000Y-262148000D02*
X423330000Y-271268000D01*
X423330000Y-271268000D02*
X453450000Y-271268000D01*
X423330000Y-262148000D02*
X453450000Y-262148000D01*
X423330000Y-264208000D02*
X453450000Y-264208000D01*
X423330000Y-269208000D02*
X453450000Y-269208000D01*
X451320000Y-266708000D02*
G75*
G03*
X451320000Y-266708000I-1680000J0D01*
G01*
X443820000Y-266708000D02*
G75*
G03*
X443820000Y-266708000I-1680000J0D01*
G01*
X436320000Y-266708000D02*
G75*
G03*
X436320000Y-266708000I-1680000J0D01*
G01*
X427169383Y-268388450D02*
G75*
G02*
X426351000Y-268192000I-29383J1680450D01*
G01*
X425656047Y-267497088D02*
G75*
G02*
X425656000Y-265919000I1483953J789088D01*
G01*
X426350912Y-265224047D02*
G75*
G02*
X427929000Y-265224000I789088J-1483953D01*
G01*
X428623953Y-265918912D02*
G75*
G02*
X428624000Y-267497000I-1483953J-789088D01*
G01*
X427928712Y-268191352D02*
G75*
G02*
X427140000Y-268388000I-788712J1483352D01*
G01*
%TO.C,J9*%
X370320000Y-266708000D02*
G75*
G03*
X370320000Y-266708000I-1680000J0D01*
G01*
X377820000Y-266708000D02*
G75*
G03*
X377820000Y-266708000I-1680000J0D01*
G01*
X385320000Y-266708000D02*
G75*
G03*
X385320000Y-266708000I-1680000J0D01*
G01*
X357330000Y-269208000D02*
X387450000Y-269208000D01*
X357330000Y-264208000D02*
X387450000Y-264208000D01*
X357330000Y-262148000D02*
X387450000Y-262148000D01*
X357330000Y-271268000D02*
X387450000Y-271268000D01*
X357330000Y-262148000D02*
X357330000Y-271268000D01*
X387450000Y-262148000D02*
X387450000Y-271268000D01*
X369915000Y-265639000D02*
X369821000Y-265732000D01*
X367630000Y-267924000D02*
X367571000Y-267982000D01*
X369710000Y-265433000D02*
X369651000Y-265492000D01*
X367460000Y-267684000D02*
X367366000Y-267777000D01*
X377415000Y-265639000D02*
X377321000Y-265732000D01*
X375130000Y-267924000D02*
X375071000Y-267982000D01*
X377210000Y-265433000D02*
X377151000Y-265492000D01*
X374960000Y-267684000D02*
X374866000Y-267777000D01*
X384915000Y-265639000D02*
X384821000Y-265732000D01*
X382630000Y-267924000D02*
X382571000Y-267982000D01*
X384710000Y-265433000D02*
X384651000Y-265492000D01*
X382460000Y-267684000D02*
X382366000Y-267777000D01*
X357090000Y-269268000D02*
X357090000Y-271508000D01*
X357090000Y-271508000D02*
X359090000Y-271508000D01*
X361928712Y-268191352D02*
G75*
G02*
X361140000Y-268388000I-788712J1483352D01*
G01*
X362623953Y-265918912D02*
G75*
G02*
X362624000Y-267497000I-1483953J-789088D01*
G01*
X360350912Y-265224047D02*
G75*
G02*
X361929000Y-265224000I789088J-1483953D01*
G01*
X359656047Y-267497088D02*
G75*
G02*
X359656000Y-265919000I1483953J789088D01*
G01*
X361169383Y-268388450D02*
G75*
G02*
X360351000Y-268192000I-29383J1680450D01*
G01*
%TO.C,J8*%
X324090000Y-271508000D02*
X326090000Y-271508000D01*
X324090000Y-269268000D02*
X324090000Y-271508000D01*
X349460000Y-267684000D02*
X349366000Y-267777000D01*
X351710000Y-265433000D02*
X351651000Y-265492000D01*
X349630000Y-267924000D02*
X349571000Y-267982000D01*
X351915000Y-265639000D02*
X351821000Y-265732000D01*
X341960000Y-267684000D02*
X341866000Y-267777000D01*
X344210000Y-265433000D02*
X344151000Y-265492000D01*
X342130000Y-267924000D02*
X342071000Y-267982000D01*
X344415000Y-265639000D02*
X344321000Y-265732000D01*
X334460000Y-267684000D02*
X334366000Y-267777000D01*
X336710000Y-265433000D02*
X336651000Y-265492000D01*
X334630000Y-267924000D02*
X334571000Y-267982000D01*
X336915000Y-265639000D02*
X336821000Y-265732000D01*
X354450000Y-262148000D02*
X354450000Y-271268000D01*
X324330000Y-262148000D02*
X324330000Y-271268000D01*
X324330000Y-271268000D02*
X354450000Y-271268000D01*
X324330000Y-262148000D02*
X354450000Y-262148000D01*
X324330000Y-264208000D02*
X354450000Y-264208000D01*
X324330000Y-269208000D02*
X354450000Y-269208000D01*
X352320000Y-266708000D02*
G75*
G03*
X352320000Y-266708000I-1680000J0D01*
G01*
X344820000Y-266708000D02*
G75*
G03*
X344820000Y-266708000I-1680000J0D01*
G01*
X337320000Y-266708000D02*
G75*
G03*
X337320000Y-266708000I-1680000J0D01*
G01*
X328169383Y-268388450D02*
G75*
G02*
X327351000Y-268192000I-29383J1680450D01*
G01*
X326656047Y-267497088D02*
G75*
G02*
X326656000Y-265919000I1483953J789088D01*
G01*
X327350912Y-265224047D02*
G75*
G02*
X328929000Y-265224000I789088J-1483953D01*
G01*
X329623953Y-265918912D02*
G75*
G02*
X329624000Y-267497000I-1483953J-789088D01*
G01*
X328928712Y-268191352D02*
G75*
G02*
X328140000Y-268388000I-788712J1483352D01*
G01*
%TO.C,J7*%
X291090000Y-271508000D02*
X293090000Y-271508000D01*
X291090000Y-269268000D02*
X291090000Y-271508000D01*
X316460000Y-267684000D02*
X316366000Y-267777000D01*
X318710000Y-265433000D02*
X318651000Y-265492000D01*
X316630000Y-267924000D02*
X316571000Y-267982000D01*
X318915000Y-265639000D02*
X318821000Y-265732000D01*
X308960000Y-267684000D02*
X308866000Y-267777000D01*
X311210000Y-265433000D02*
X311151000Y-265492000D01*
X309130000Y-267924000D02*
X309071000Y-267982000D01*
X311415000Y-265639000D02*
X311321000Y-265732000D01*
X301460000Y-267684000D02*
X301366000Y-267777000D01*
X303710000Y-265433000D02*
X303651000Y-265492000D01*
X301630000Y-267924000D02*
X301571000Y-267982000D01*
X303915000Y-265639000D02*
X303821000Y-265732000D01*
X321450000Y-262148000D02*
X321450000Y-271268000D01*
X291330000Y-262148000D02*
X291330000Y-271268000D01*
X291330000Y-271268000D02*
X321450000Y-271268000D01*
X291330000Y-262148000D02*
X321450000Y-262148000D01*
X291330000Y-264208000D02*
X321450000Y-264208000D01*
X291330000Y-269208000D02*
X321450000Y-269208000D01*
X319320000Y-266708000D02*
G75*
G03*
X319320000Y-266708000I-1680000J0D01*
G01*
X311820000Y-266708000D02*
G75*
G03*
X311820000Y-266708000I-1680000J0D01*
G01*
X304320000Y-266708000D02*
G75*
G03*
X304320000Y-266708000I-1680000J0D01*
G01*
X295169383Y-268388450D02*
G75*
G02*
X294351000Y-268192000I-29383J1680450D01*
G01*
X293656047Y-267497088D02*
G75*
G02*
X293656000Y-265919000I1483953J789088D01*
G01*
X294350912Y-265224047D02*
G75*
G02*
X295929000Y-265224000I789088J-1483953D01*
G01*
X296623953Y-265918912D02*
G75*
G02*
X296624000Y-267497000I-1483953J-789088D01*
G01*
X295928712Y-268191352D02*
G75*
G02*
X295140000Y-268388000I-788712J1483352D01*
G01*
%TO.C,Q13*%
D10*
X330628571Y-308579619D02*
X330533333Y-308532000D01*
X330438095Y-308436761D01*
X330295238Y-308293904D01*
X330200000Y-308246285D01*
X330104761Y-308246285D01*
X330152380Y-308484380D02*
X330057142Y-308436761D01*
X329961904Y-308341523D01*
X329914285Y-308151047D01*
X329914285Y-307817714D01*
X329961904Y-307627238D01*
X330057142Y-307532000D01*
X330152380Y-307484380D01*
X330342857Y-307484380D01*
X330438095Y-307532000D01*
X330533333Y-307627238D01*
X330580952Y-307817714D01*
X330580952Y-308151047D01*
X330533333Y-308341523D01*
X330438095Y-308436761D01*
X330342857Y-308484380D01*
X330152380Y-308484380D01*
X331533333Y-308484380D02*
X330961904Y-308484380D01*
X331247619Y-308484380D02*
X331247619Y-307484380D01*
X331152380Y-307627238D01*
X331057142Y-307722476D01*
X330961904Y-307770095D01*
X331866666Y-307484380D02*
X332485714Y-307484380D01*
X332152380Y-307865333D01*
X332295238Y-307865333D01*
X332390476Y-307912952D01*
X332438095Y-307960571D01*
X332485714Y-308055809D01*
X332485714Y-308293904D01*
X332438095Y-308389142D01*
X332390476Y-308436761D01*
X332295238Y-308484380D01*
X332009523Y-308484380D01*
X331914285Y-308436761D01*
X331866666Y-308389142D01*
%TO.C,K1*%
D13*
X299464523Y-342445380D02*
X298194523Y-342445380D01*
X299464523Y-341719666D02*
X298738809Y-342263952D01*
X298194523Y-341719666D02*
X298920238Y-342445380D01*
X299464523Y-340510142D02*
X299464523Y-341235857D01*
X299464523Y-340873000D02*
X298194523Y-340873000D01*
X298375952Y-340993952D01*
X298496904Y-341114904D01*
X298557380Y-341235857D01*
%TO.C,K5*%
X365464523Y-342445380D02*
X364194523Y-342445380D01*
X365464523Y-341719666D02*
X364738809Y-342263952D01*
X364194523Y-341719666D02*
X364920238Y-342445380D01*
X364194523Y-340570619D02*
X364194523Y-341175380D01*
X364799285Y-341235857D01*
X364738809Y-341175380D01*
X364678333Y-341054428D01*
X364678333Y-340752047D01*
X364738809Y-340631095D01*
X364799285Y-340570619D01*
X364920238Y-340510142D01*
X365222619Y-340510142D01*
X365343571Y-340570619D01*
X365404047Y-340631095D01*
X365464523Y-340752047D01*
X365464523Y-341054428D01*
X365404047Y-341175380D01*
X365343571Y-341235857D01*
%TO.C,K2*%
X315464523Y-342445380D02*
X314194523Y-342445380D01*
X315464523Y-341719666D02*
X314738809Y-342263952D01*
X314194523Y-341719666D02*
X314920238Y-342445380D01*
X314315476Y-341235857D02*
X314255000Y-341175380D01*
X314194523Y-341054428D01*
X314194523Y-340752047D01*
X314255000Y-340631095D01*
X314315476Y-340570619D01*
X314436428Y-340510142D01*
X314557380Y-340510142D01*
X314738809Y-340570619D01*
X315464523Y-341296333D01*
X315464523Y-340510142D01*
%TO.C,K3*%
X332464523Y-342445380D02*
X331194523Y-342445380D01*
X332464523Y-341719666D02*
X331738809Y-342263952D01*
X331194523Y-341719666D02*
X331920238Y-342445380D01*
X331194523Y-341296333D02*
X331194523Y-340510142D01*
X331678333Y-340933476D01*
X331678333Y-340752047D01*
X331738809Y-340631095D01*
X331799285Y-340570619D01*
X331920238Y-340510142D01*
X332222619Y-340510142D01*
X332343571Y-340570619D01*
X332404047Y-340631095D01*
X332464523Y-340752047D01*
X332464523Y-341114904D01*
X332404047Y-341235857D01*
X332343571Y-341296333D01*
%TO.C,K4*%
X348464523Y-342445380D02*
X347194523Y-342445380D01*
X348464523Y-341719666D02*
X347738809Y-342263952D01*
X347194523Y-341719666D02*
X347920238Y-342445380D01*
X347617857Y-340631095D02*
X348464523Y-340631095D01*
X347134047Y-340933476D02*
X348041190Y-341235857D01*
X348041190Y-340449666D01*
%TO.C,K6*%
X381464523Y-342445380D02*
X380194523Y-342445380D01*
X381464523Y-341719666D02*
X380738809Y-342263952D01*
X380194523Y-341719666D02*
X380920238Y-342445380D01*
X380194523Y-340631095D02*
X380194523Y-340873000D01*
X380255000Y-340993952D01*
X380315476Y-341054428D01*
X380496904Y-341175380D01*
X380738809Y-341235857D01*
X381222619Y-341235857D01*
X381343571Y-341175380D01*
X381404047Y-341114904D01*
X381464523Y-340993952D01*
X381464523Y-340752047D01*
X381404047Y-340631095D01*
X381343571Y-340570619D01*
X381222619Y-340510142D01*
X380920238Y-340510142D01*
X380799285Y-340570619D01*
X380738809Y-340631095D01*
X380678333Y-340752047D01*
X380678333Y-340993952D01*
X380738809Y-341114904D01*
X380799285Y-341175380D01*
X380920238Y-341235857D01*
%TO.C,K7*%
X398464523Y-342445380D02*
X397194523Y-342445380D01*
X398464523Y-341719666D02*
X397738809Y-342263952D01*
X397194523Y-341719666D02*
X397920238Y-342445380D01*
X397194523Y-341296333D02*
X397194523Y-340449666D01*
X398464523Y-340993952D01*
%TO.C,K8*%
X414464523Y-342445380D02*
X413194523Y-342445380D01*
X414464523Y-341719666D02*
X413738809Y-342263952D01*
X413194523Y-341719666D02*
X413920238Y-342445380D01*
X413738809Y-340993952D02*
X413678333Y-341114904D01*
X413617857Y-341175380D01*
X413496904Y-341235857D01*
X413436428Y-341235857D01*
X413315476Y-341175380D01*
X413255000Y-341114904D01*
X413194523Y-340993952D01*
X413194523Y-340752047D01*
X413255000Y-340631095D01*
X413315476Y-340570619D01*
X413436428Y-340510142D01*
X413496904Y-340510142D01*
X413617857Y-340570619D01*
X413678333Y-340631095D01*
X413738809Y-340752047D01*
X413738809Y-340993952D01*
X413799285Y-341114904D01*
X413859761Y-341175380D01*
X413980714Y-341235857D01*
X414222619Y-341235857D01*
X414343571Y-341175380D01*
X414404047Y-341114904D01*
X414464523Y-340993952D01*
X414464523Y-340752047D01*
X414404047Y-340631095D01*
X414343571Y-340570619D01*
X414222619Y-340510142D01*
X413980714Y-340510142D01*
X413859761Y-340570619D01*
X413799285Y-340631095D01*
X413738809Y-340752047D01*
%TO.C,K10*%
X447464523Y-343050142D02*
X446194523Y-343050142D01*
X447464523Y-342324428D02*
X446738809Y-342868714D01*
X446194523Y-342324428D02*
X446920238Y-343050142D01*
X447464523Y-341114904D02*
X447464523Y-341840619D01*
X447464523Y-341477761D02*
X446194523Y-341477761D01*
X446375952Y-341598714D01*
X446496904Y-341719666D01*
X446557380Y-341840619D01*
X446194523Y-340328714D02*
X446194523Y-340207761D01*
X446255000Y-340086809D01*
X446315476Y-340026333D01*
X446436428Y-339965857D01*
X446678333Y-339905380D01*
X446980714Y-339905380D01*
X447222619Y-339965857D01*
X447343571Y-340026333D01*
X447404047Y-340086809D01*
X447464523Y-340207761D01*
X447464523Y-340328714D01*
X447404047Y-340449666D01*
X447343571Y-340510142D01*
X447222619Y-340570619D01*
X446980714Y-340631095D01*
X446678333Y-340631095D01*
X446436428Y-340570619D01*
X446315476Y-340510142D01*
X446255000Y-340449666D01*
X446194523Y-340328714D01*
%TO.C,K9*%
X431464523Y-342445380D02*
X430194523Y-342445380D01*
X431464523Y-341719666D02*
X430738809Y-342263952D01*
X430194523Y-341719666D02*
X430920238Y-342445380D01*
X431464523Y-341114904D02*
X431464523Y-340873000D01*
X431404047Y-340752047D01*
X431343571Y-340691571D01*
X431162142Y-340570619D01*
X430920238Y-340510142D01*
X430436428Y-340510142D01*
X430315476Y-340570619D01*
X430255000Y-340631095D01*
X430194523Y-340752047D01*
X430194523Y-340993952D01*
X430255000Y-341114904D01*
X430315476Y-341175380D01*
X430436428Y-341235857D01*
X430738809Y-341235857D01*
X430859761Y-341175380D01*
X430920238Y-341114904D01*
X430980714Y-340993952D01*
X430980714Y-340752047D01*
X430920238Y-340631095D01*
X430859761Y-340570619D01*
X430738809Y-340510142D01*
%TO.C,K19*%
X430964523Y-289450142D02*
X429694523Y-289450142D01*
X430964523Y-288724428D02*
X430238809Y-289268714D01*
X429694523Y-288724428D02*
X430420238Y-289450142D01*
X430964523Y-287514904D02*
X430964523Y-288240619D01*
X430964523Y-287877761D02*
X429694523Y-287877761D01*
X429875952Y-287998714D01*
X429996904Y-288119666D01*
X430057380Y-288240619D01*
X430964523Y-286910142D02*
X430964523Y-286668238D01*
X430904047Y-286547285D01*
X430843571Y-286486809D01*
X430662142Y-286365857D01*
X430420238Y-286305380D01*
X429936428Y-286305380D01*
X429815476Y-286365857D01*
X429755000Y-286426333D01*
X429694523Y-286547285D01*
X429694523Y-286789190D01*
X429755000Y-286910142D01*
X429815476Y-286970619D01*
X429936428Y-287031095D01*
X430238809Y-287031095D01*
X430359761Y-286970619D01*
X430420238Y-286910142D01*
X430480714Y-286789190D01*
X430480714Y-286547285D01*
X430420238Y-286426333D01*
X430359761Y-286365857D01*
X430238809Y-286305380D01*
%TO.C,K13*%
X331964523Y-289450142D02*
X330694523Y-289450142D01*
X331964523Y-288724428D02*
X331238809Y-289268714D01*
X330694523Y-288724428D02*
X331420238Y-289450142D01*
X331964523Y-287514904D02*
X331964523Y-288240619D01*
X331964523Y-287877761D02*
X330694523Y-287877761D01*
X330875952Y-287998714D01*
X330996904Y-288119666D01*
X331057380Y-288240619D01*
X330694523Y-287091571D02*
X330694523Y-286305380D01*
X331178333Y-286728714D01*
X331178333Y-286547285D01*
X331238809Y-286426333D01*
X331299285Y-286365857D01*
X331420238Y-286305380D01*
X331722619Y-286305380D01*
X331843571Y-286365857D01*
X331904047Y-286426333D01*
X331964523Y-286547285D01*
X331964523Y-286910142D01*
X331904047Y-287031095D01*
X331843571Y-287091571D01*
%TO.C,D1*%
D10*
X301384380Y-323574095D02*
X300384380Y-323574095D01*
X300384380Y-323336000D01*
X300432000Y-323193142D01*
X300527238Y-323097904D01*
X300622476Y-323050285D01*
X300812952Y-323002666D01*
X300955809Y-323002666D01*
X301146285Y-323050285D01*
X301241523Y-323097904D01*
X301336761Y-323193142D01*
X301384380Y-323336000D01*
X301384380Y-323574095D01*
X301384380Y-322050285D02*
X301384380Y-322621714D01*
X301384380Y-322336000D02*
X300384380Y-322336000D01*
X300527238Y-322431238D01*
X300622476Y-322526476D01*
X300670095Y-322621714D01*
%TO.C,D2*%
X317132380Y-323574095D02*
X316132380Y-323574095D01*
X316132380Y-323336000D01*
X316180000Y-323193142D01*
X316275238Y-323097904D01*
X316370476Y-323050285D01*
X316560952Y-323002666D01*
X316703809Y-323002666D01*
X316894285Y-323050285D01*
X316989523Y-323097904D01*
X317084761Y-323193142D01*
X317132380Y-323336000D01*
X317132380Y-323574095D01*
X316227619Y-322621714D02*
X316180000Y-322574095D01*
X316132380Y-322478857D01*
X316132380Y-322240761D01*
X316180000Y-322145523D01*
X316227619Y-322097904D01*
X316322857Y-322050285D01*
X316418095Y-322050285D01*
X316560952Y-322097904D01*
X317132380Y-322669333D01*
X317132380Y-322050285D01*
%TO.C,D3*%
X334404380Y-323574095D02*
X333404380Y-323574095D01*
X333404380Y-323336000D01*
X333452000Y-323193142D01*
X333547238Y-323097904D01*
X333642476Y-323050285D01*
X333832952Y-323002666D01*
X333975809Y-323002666D01*
X334166285Y-323050285D01*
X334261523Y-323097904D01*
X334356761Y-323193142D01*
X334404380Y-323336000D01*
X334404380Y-323574095D01*
X333404380Y-322669333D02*
X333404380Y-322050285D01*
X333785333Y-322383619D01*
X333785333Y-322240761D01*
X333832952Y-322145523D01*
X333880571Y-322097904D01*
X333975809Y-322050285D01*
X334213904Y-322050285D01*
X334309142Y-322097904D01*
X334356761Y-322145523D01*
X334404380Y-322240761D01*
X334404380Y-322526476D01*
X334356761Y-322621714D01*
X334309142Y-322669333D01*
%TO.C,D4*%
X350152380Y-323574095D02*
X349152380Y-323574095D01*
X349152380Y-323336000D01*
X349200000Y-323193142D01*
X349295238Y-323097904D01*
X349390476Y-323050285D01*
X349580952Y-323002666D01*
X349723809Y-323002666D01*
X349914285Y-323050285D01*
X350009523Y-323097904D01*
X350104761Y-323193142D01*
X350152380Y-323336000D01*
X350152380Y-323574095D01*
X349485714Y-322145523D02*
X350152380Y-322145523D01*
X349104761Y-322383619D02*
X349819047Y-322621714D01*
X349819047Y-322002666D01*
%TO.C,D5*%
X367424380Y-323574095D02*
X366424380Y-323574095D01*
X366424380Y-323336000D01*
X366472000Y-323193142D01*
X366567238Y-323097904D01*
X366662476Y-323050285D01*
X366852952Y-323002666D01*
X366995809Y-323002666D01*
X367186285Y-323050285D01*
X367281523Y-323097904D01*
X367376761Y-323193142D01*
X367424380Y-323336000D01*
X367424380Y-323574095D01*
X366424380Y-322097904D02*
X366424380Y-322574095D01*
X366900571Y-322621714D01*
X366852952Y-322574095D01*
X366805333Y-322478857D01*
X366805333Y-322240761D01*
X366852952Y-322145523D01*
X366900571Y-322097904D01*
X366995809Y-322050285D01*
X367233904Y-322050285D01*
X367329142Y-322097904D01*
X367376761Y-322145523D01*
X367424380Y-322240761D01*
X367424380Y-322478857D01*
X367376761Y-322574095D01*
X367329142Y-322621714D01*
%TO.C,D6*%
X383172380Y-323574095D02*
X382172380Y-323574095D01*
X382172380Y-323336000D01*
X382220000Y-323193142D01*
X382315238Y-323097904D01*
X382410476Y-323050285D01*
X382600952Y-323002666D01*
X382743809Y-323002666D01*
X382934285Y-323050285D01*
X383029523Y-323097904D01*
X383124761Y-323193142D01*
X383172380Y-323336000D01*
X383172380Y-323574095D01*
X382172380Y-322145523D02*
X382172380Y-322336000D01*
X382220000Y-322431238D01*
X382267619Y-322478857D01*
X382410476Y-322574095D01*
X382600952Y-322621714D01*
X382981904Y-322621714D01*
X383077142Y-322574095D01*
X383124761Y-322526476D01*
X383172380Y-322431238D01*
X383172380Y-322240761D01*
X383124761Y-322145523D01*
X383077142Y-322097904D01*
X382981904Y-322050285D01*
X382743809Y-322050285D01*
X382648571Y-322097904D01*
X382600952Y-322145523D01*
X382553333Y-322240761D01*
X382553333Y-322431238D01*
X382600952Y-322526476D01*
X382648571Y-322574095D01*
X382743809Y-322621714D01*
%TO.C,D7*%
X400444380Y-323574095D02*
X399444380Y-323574095D01*
X399444380Y-323336000D01*
X399492000Y-323193142D01*
X399587238Y-323097904D01*
X399682476Y-323050285D01*
X399872952Y-323002666D01*
X400015809Y-323002666D01*
X400206285Y-323050285D01*
X400301523Y-323097904D01*
X400396761Y-323193142D01*
X400444380Y-323336000D01*
X400444380Y-323574095D01*
X399444380Y-322669333D02*
X399444380Y-322002666D01*
X400444380Y-322431238D01*
%TO.C,D8*%
X416192380Y-323574095D02*
X415192380Y-323574095D01*
X415192380Y-323336000D01*
X415240000Y-323193142D01*
X415335238Y-323097904D01*
X415430476Y-323050285D01*
X415620952Y-323002666D01*
X415763809Y-323002666D01*
X415954285Y-323050285D01*
X416049523Y-323097904D01*
X416144761Y-323193142D01*
X416192380Y-323336000D01*
X416192380Y-323574095D01*
X415620952Y-322431238D02*
X415573333Y-322526476D01*
X415525714Y-322574095D01*
X415430476Y-322621714D01*
X415382857Y-322621714D01*
X415287619Y-322574095D01*
X415240000Y-322526476D01*
X415192380Y-322431238D01*
X415192380Y-322240761D01*
X415240000Y-322145523D01*
X415287619Y-322097904D01*
X415382857Y-322050285D01*
X415430476Y-322050285D01*
X415525714Y-322097904D01*
X415573333Y-322145523D01*
X415620952Y-322240761D01*
X415620952Y-322431238D01*
X415668571Y-322526476D01*
X415716190Y-322574095D01*
X415811428Y-322621714D01*
X416001904Y-322621714D01*
X416097142Y-322574095D01*
X416144761Y-322526476D01*
X416192380Y-322431238D01*
X416192380Y-322240761D01*
X416144761Y-322145523D01*
X416097142Y-322097904D01*
X416001904Y-322050285D01*
X415811428Y-322050285D01*
X415716190Y-322097904D01*
X415668571Y-322145523D01*
X415620952Y-322240761D01*
%TO.C,D9*%
X433464380Y-323574095D02*
X432464380Y-323574095D01*
X432464380Y-323336000D01*
X432512000Y-323193142D01*
X432607238Y-323097904D01*
X432702476Y-323050285D01*
X432892952Y-323002666D01*
X433035809Y-323002666D01*
X433226285Y-323050285D01*
X433321523Y-323097904D01*
X433416761Y-323193142D01*
X433464380Y-323336000D01*
X433464380Y-323574095D01*
X433464380Y-322526476D02*
X433464380Y-322336000D01*
X433416761Y-322240761D01*
X433369142Y-322193142D01*
X433226285Y-322097904D01*
X433035809Y-322050285D01*
X432654857Y-322050285D01*
X432559619Y-322097904D01*
X432512000Y-322145523D01*
X432464380Y-322240761D01*
X432464380Y-322431238D01*
X432512000Y-322526476D01*
X432559619Y-322574095D01*
X432654857Y-322621714D01*
X432892952Y-322621714D01*
X432988190Y-322574095D01*
X433035809Y-322526476D01*
X433083428Y-322431238D01*
X433083428Y-322240761D01*
X433035809Y-322145523D01*
X432988190Y-322097904D01*
X432892952Y-322050285D01*
%TO.C,D10*%
X449212380Y-324050285D02*
X448212380Y-324050285D01*
X448212380Y-323812190D01*
X448260000Y-323669333D01*
X448355238Y-323574095D01*
X448450476Y-323526476D01*
X448640952Y-323478857D01*
X448783809Y-323478857D01*
X448974285Y-323526476D01*
X449069523Y-323574095D01*
X449164761Y-323669333D01*
X449212380Y-323812190D01*
X449212380Y-324050285D01*
X449212380Y-322526476D02*
X449212380Y-323097904D01*
X449212380Y-322812190D02*
X448212380Y-322812190D01*
X448355238Y-322907428D01*
X448450476Y-323002666D01*
X448498095Y-323097904D01*
X448212380Y-321907428D02*
X448212380Y-321812190D01*
X448260000Y-321716952D01*
X448307619Y-321669333D01*
X448402857Y-321621714D01*
X448593333Y-321574095D01*
X448831428Y-321574095D01*
X449021904Y-321621714D01*
X449117142Y-321669333D01*
X449164761Y-321716952D01*
X449212380Y-321812190D01*
X449212380Y-321907428D01*
X449164761Y-322002666D01*
X449117142Y-322050285D01*
X449021904Y-322097904D01*
X448831428Y-322145523D01*
X448593333Y-322145523D01*
X448402857Y-322097904D01*
X448307619Y-322050285D01*
X448260000Y-322002666D01*
X448212380Y-321907428D01*
%TO.C,D11*%
X295372380Y-307254285D02*
X294372380Y-307254285D01*
X294372380Y-307016190D01*
X294420000Y-306873333D01*
X294515238Y-306778095D01*
X294610476Y-306730476D01*
X294800952Y-306682857D01*
X294943809Y-306682857D01*
X295134285Y-306730476D01*
X295229523Y-306778095D01*
X295324761Y-306873333D01*
X295372380Y-307016190D01*
X295372380Y-307254285D01*
X295372380Y-305730476D02*
X295372380Y-306301904D01*
X295372380Y-306016190D02*
X294372380Y-306016190D01*
X294515238Y-306111428D01*
X294610476Y-306206666D01*
X294658095Y-306301904D01*
X295372380Y-304778095D02*
X295372380Y-305349523D01*
X295372380Y-305063809D02*
X294372380Y-305063809D01*
X294515238Y-305159047D01*
X294610476Y-305254285D01*
X294658095Y-305349523D01*
%TO.C,D12*%
X311120380Y-307254285D02*
X310120380Y-307254285D01*
X310120380Y-307016190D01*
X310168000Y-306873333D01*
X310263238Y-306778095D01*
X310358476Y-306730476D01*
X310548952Y-306682857D01*
X310691809Y-306682857D01*
X310882285Y-306730476D01*
X310977523Y-306778095D01*
X311072761Y-306873333D01*
X311120380Y-307016190D01*
X311120380Y-307254285D01*
X311120380Y-305730476D02*
X311120380Y-306301904D01*
X311120380Y-306016190D02*
X310120380Y-306016190D01*
X310263238Y-306111428D01*
X310358476Y-306206666D01*
X310406095Y-306301904D01*
X310215619Y-305349523D02*
X310168000Y-305301904D01*
X310120380Y-305206666D01*
X310120380Y-304968571D01*
X310168000Y-304873333D01*
X310215619Y-304825714D01*
X310310857Y-304778095D01*
X310406095Y-304778095D01*
X310548952Y-304825714D01*
X311120380Y-305397142D01*
X311120380Y-304778095D01*
%TO.C,D13*%
X328392380Y-307254285D02*
X327392380Y-307254285D01*
X327392380Y-307016190D01*
X327440000Y-306873333D01*
X327535238Y-306778095D01*
X327630476Y-306730476D01*
X327820952Y-306682857D01*
X327963809Y-306682857D01*
X328154285Y-306730476D01*
X328249523Y-306778095D01*
X328344761Y-306873333D01*
X328392380Y-307016190D01*
X328392380Y-307254285D01*
X328392380Y-305730476D02*
X328392380Y-306301904D01*
X328392380Y-306016190D02*
X327392380Y-306016190D01*
X327535238Y-306111428D01*
X327630476Y-306206666D01*
X327678095Y-306301904D01*
X327392380Y-305397142D02*
X327392380Y-304778095D01*
X327773333Y-305111428D01*
X327773333Y-304968571D01*
X327820952Y-304873333D01*
X327868571Y-304825714D01*
X327963809Y-304778095D01*
X328201904Y-304778095D01*
X328297142Y-304825714D01*
X328344761Y-304873333D01*
X328392380Y-304968571D01*
X328392380Y-305254285D01*
X328344761Y-305349523D01*
X328297142Y-305397142D01*
%TO.C,D14*%
X344140380Y-307254285D02*
X343140380Y-307254285D01*
X343140380Y-307016190D01*
X343188000Y-306873333D01*
X343283238Y-306778095D01*
X343378476Y-306730476D01*
X343568952Y-306682857D01*
X343711809Y-306682857D01*
X343902285Y-306730476D01*
X343997523Y-306778095D01*
X344092761Y-306873333D01*
X344140380Y-307016190D01*
X344140380Y-307254285D01*
X344140380Y-305730476D02*
X344140380Y-306301904D01*
X344140380Y-306016190D02*
X343140380Y-306016190D01*
X343283238Y-306111428D01*
X343378476Y-306206666D01*
X343426095Y-306301904D01*
X343473714Y-304873333D02*
X344140380Y-304873333D01*
X343092761Y-305111428D02*
X343807047Y-305349523D01*
X343807047Y-304730476D01*
%TO.C,D15*%
X361412380Y-307254285D02*
X360412380Y-307254285D01*
X360412380Y-307016190D01*
X360460000Y-306873333D01*
X360555238Y-306778095D01*
X360650476Y-306730476D01*
X360840952Y-306682857D01*
X360983809Y-306682857D01*
X361174285Y-306730476D01*
X361269523Y-306778095D01*
X361364761Y-306873333D01*
X361412380Y-307016190D01*
X361412380Y-307254285D01*
X361412380Y-305730476D02*
X361412380Y-306301904D01*
X361412380Y-306016190D02*
X360412380Y-306016190D01*
X360555238Y-306111428D01*
X360650476Y-306206666D01*
X360698095Y-306301904D01*
X360412380Y-304825714D02*
X360412380Y-305301904D01*
X360888571Y-305349523D01*
X360840952Y-305301904D01*
X360793333Y-305206666D01*
X360793333Y-304968571D01*
X360840952Y-304873333D01*
X360888571Y-304825714D01*
X360983809Y-304778095D01*
X361221904Y-304778095D01*
X361317142Y-304825714D01*
X361364761Y-304873333D01*
X361412380Y-304968571D01*
X361412380Y-305206666D01*
X361364761Y-305301904D01*
X361317142Y-305349523D01*
%TO.C,D16*%
X377160380Y-307254285D02*
X376160380Y-307254285D01*
X376160380Y-307016190D01*
X376208000Y-306873333D01*
X376303238Y-306778095D01*
X376398476Y-306730476D01*
X376588952Y-306682857D01*
X376731809Y-306682857D01*
X376922285Y-306730476D01*
X377017523Y-306778095D01*
X377112761Y-306873333D01*
X377160380Y-307016190D01*
X377160380Y-307254285D01*
X377160380Y-305730476D02*
X377160380Y-306301904D01*
X377160380Y-306016190D02*
X376160380Y-306016190D01*
X376303238Y-306111428D01*
X376398476Y-306206666D01*
X376446095Y-306301904D01*
X376160380Y-304873333D02*
X376160380Y-305063809D01*
X376208000Y-305159047D01*
X376255619Y-305206666D01*
X376398476Y-305301904D01*
X376588952Y-305349523D01*
X376969904Y-305349523D01*
X377065142Y-305301904D01*
X377112761Y-305254285D01*
X377160380Y-305159047D01*
X377160380Y-304968571D01*
X377112761Y-304873333D01*
X377065142Y-304825714D01*
X376969904Y-304778095D01*
X376731809Y-304778095D01*
X376636571Y-304825714D01*
X376588952Y-304873333D01*
X376541333Y-304968571D01*
X376541333Y-305159047D01*
X376588952Y-305254285D01*
X376636571Y-305301904D01*
X376731809Y-305349523D01*
%TO.C,D17*%
X394432380Y-307254285D02*
X393432380Y-307254285D01*
X393432380Y-307016190D01*
X393480000Y-306873333D01*
X393575238Y-306778095D01*
X393670476Y-306730476D01*
X393860952Y-306682857D01*
X394003809Y-306682857D01*
X394194285Y-306730476D01*
X394289523Y-306778095D01*
X394384761Y-306873333D01*
X394432380Y-307016190D01*
X394432380Y-307254285D01*
X394432380Y-305730476D02*
X394432380Y-306301904D01*
X394432380Y-306016190D02*
X393432380Y-306016190D01*
X393575238Y-306111428D01*
X393670476Y-306206666D01*
X393718095Y-306301904D01*
X393432380Y-305397142D02*
X393432380Y-304730476D01*
X394432380Y-305159047D01*
%TO.C,D18*%
X410180380Y-307254285D02*
X409180380Y-307254285D01*
X409180380Y-307016190D01*
X409228000Y-306873333D01*
X409323238Y-306778095D01*
X409418476Y-306730476D01*
X409608952Y-306682857D01*
X409751809Y-306682857D01*
X409942285Y-306730476D01*
X410037523Y-306778095D01*
X410132761Y-306873333D01*
X410180380Y-307016190D01*
X410180380Y-307254285D01*
X410180380Y-305730476D02*
X410180380Y-306301904D01*
X410180380Y-306016190D02*
X409180380Y-306016190D01*
X409323238Y-306111428D01*
X409418476Y-306206666D01*
X409466095Y-306301904D01*
X409608952Y-305159047D02*
X409561333Y-305254285D01*
X409513714Y-305301904D01*
X409418476Y-305349523D01*
X409370857Y-305349523D01*
X409275619Y-305301904D01*
X409228000Y-305254285D01*
X409180380Y-305159047D01*
X409180380Y-304968571D01*
X409228000Y-304873333D01*
X409275619Y-304825714D01*
X409370857Y-304778095D01*
X409418476Y-304778095D01*
X409513714Y-304825714D01*
X409561333Y-304873333D01*
X409608952Y-304968571D01*
X409608952Y-305159047D01*
X409656571Y-305254285D01*
X409704190Y-305301904D01*
X409799428Y-305349523D01*
X409989904Y-305349523D01*
X410085142Y-305301904D01*
X410132761Y-305254285D01*
X410180380Y-305159047D01*
X410180380Y-304968571D01*
X410132761Y-304873333D01*
X410085142Y-304825714D01*
X409989904Y-304778095D01*
X409799428Y-304778095D01*
X409704190Y-304825714D01*
X409656571Y-304873333D01*
X409608952Y-304968571D01*
%TO.C,D19*%
X427452380Y-307254285D02*
X426452380Y-307254285D01*
X426452380Y-307016190D01*
X426500000Y-306873333D01*
X426595238Y-306778095D01*
X426690476Y-306730476D01*
X426880952Y-306682857D01*
X427023809Y-306682857D01*
X427214285Y-306730476D01*
X427309523Y-306778095D01*
X427404761Y-306873333D01*
X427452380Y-307016190D01*
X427452380Y-307254285D01*
X427452380Y-305730476D02*
X427452380Y-306301904D01*
X427452380Y-306016190D02*
X426452380Y-306016190D01*
X426595238Y-306111428D01*
X426690476Y-306206666D01*
X426738095Y-306301904D01*
X427452380Y-305254285D02*
X427452380Y-305063809D01*
X427404761Y-304968571D01*
X427357142Y-304920952D01*
X427214285Y-304825714D01*
X427023809Y-304778095D01*
X426642857Y-304778095D01*
X426547619Y-304825714D01*
X426500000Y-304873333D01*
X426452380Y-304968571D01*
X426452380Y-305159047D01*
X426500000Y-305254285D01*
X426547619Y-305301904D01*
X426642857Y-305349523D01*
X426880952Y-305349523D01*
X426976190Y-305301904D01*
X427023809Y-305254285D01*
X427071428Y-305159047D01*
X427071428Y-304968571D01*
X427023809Y-304873333D01*
X426976190Y-304825714D01*
X426880952Y-304778095D01*
%TO.C,D20*%
X443200380Y-307254285D02*
X442200380Y-307254285D01*
X442200380Y-307016190D01*
X442248000Y-306873333D01*
X442343238Y-306778095D01*
X442438476Y-306730476D01*
X442628952Y-306682857D01*
X442771809Y-306682857D01*
X442962285Y-306730476D01*
X443057523Y-306778095D01*
X443152761Y-306873333D01*
X443200380Y-307016190D01*
X443200380Y-307254285D01*
X442295619Y-306301904D02*
X442248000Y-306254285D01*
X442200380Y-306159047D01*
X442200380Y-305920952D01*
X442248000Y-305825714D01*
X442295619Y-305778095D01*
X442390857Y-305730476D01*
X442486095Y-305730476D01*
X442628952Y-305778095D01*
X443200380Y-306349523D01*
X443200380Y-305730476D01*
X442200380Y-305111428D02*
X442200380Y-305016190D01*
X442248000Y-304920952D01*
X442295619Y-304873333D01*
X442390857Y-304825714D01*
X442581333Y-304778095D01*
X442819428Y-304778095D01*
X443009904Y-304825714D01*
X443105142Y-304873333D01*
X443152761Y-304920952D01*
X443200380Y-305016190D01*
X443200380Y-305111428D01*
X443152761Y-305206666D01*
X443105142Y-305254285D01*
X443009904Y-305301904D01*
X442819428Y-305349523D01*
X442581333Y-305349523D01*
X442390857Y-305301904D01*
X442295619Y-305254285D01*
X442248000Y-305206666D01*
X442200380Y-305111428D01*
%TO.C,J6*%
X356262380Y-314771333D02*
X356976666Y-314771333D01*
X357119523Y-314818952D01*
X357214761Y-314914190D01*
X357262380Y-315057047D01*
X357262380Y-315152285D01*
X356262380Y-313866571D02*
X356262380Y-314057047D01*
X356310000Y-314152285D01*
X356357619Y-314199904D01*
X356500476Y-314295142D01*
X356690952Y-314342761D01*
X357071904Y-314342761D01*
X357167142Y-314295142D01*
X357214761Y-314247523D01*
X357262380Y-314152285D01*
X357262380Y-313961809D01*
X357214761Y-313866571D01*
X357167142Y-313818952D01*
X357071904Y-313771333D01*
X356833809Y-313771333D01*
X356738571Y-313818952D01*
X356690952Y-313866571D01*
X356643333Y-313961809D01*
X356643333Y-314152285D01*
X356690952Y-314247523D01*
X356738571Y-314295142D01*
X356833809Y-314342761D01*
%TO.C,K11*%
D13*
X298964523Y-289450142D02*
X297694523Y-289450142D01*
X298964523Y-288724428D02*
X298238809Y-289268714D01*
X297694523Y-288724428D02*
X298420238Y-289450142D01*
X298964523Y-287514904D02*
X298964523Y-288240619D01*
X298964523Y-287877761D02*
X297694523Y-287877761D01*
X297875952Y-287998714D01*
X297996904Y-288119666D01*
X298057380Y-288240619D01*
X298964523Y-286305380D02*
X298964523Y-287031095D01*
X298964523Y-286668238D02*
X297694523Y-286668238D01*
X297875952Y-286789190D01*
X297996904Y-286910142D01*
X298057380Y-287031095D01*
%TO.C,K12*%
X314964523Y-289450142D02*
X313694523Y-289450142D01*
X314964523Y-288724428D02*
X314238809Y-289268714D01*
X313694523Y-288724428D02*
X314420238Y-289450142D01*
X314964523Y-287514904D02*
X314964523Y-288240619D01*
X314964523Y-287877761D02*
X313694523Y-287877761D01*
X313875952Y-287998714D01*
X313996904Y-288119666D01*
X314057380Y-288240619D01*
X313815476Y-287031095D02*
X313755000Y-286970619D01*
X313694523Y-286849666D01*
X313694523Y-286547285D01*
X313755000Y-286426333D01*
X313815476Y-286365857D01*
X313936428Y-286305380D01*
X314057380Y-286305380D01*
X314238809Y-286365857D01*
X314964523Y-287091571D01*
X314964523Y-286305380D01*
%TO.C,K14*%
X347964523Y-289450142D02*
X346694523Y-289450142D01*
X347964523Y-288724428D02*
X347238809Y-289268714D01*
X346694523Y-288724428D02*
X347420238Y-289450142D01*
X347964523Y-287514904D02*
X347964523Y-288240619D01*
X347964523Y-287877761D02*
X346694523Y-287877761D01*
X346875952Y-287998714D01*
X346996904Y-288119666D01*
X347057380Y-288240619D01*
X347117857Y-286426333D02*
X347964523Y-286426333D01*
X346634047Y-286728714D02*
X347541190Y-287031095D01*
X347541190Y-286244904D01*
%TO.C,K15*%
X364964523Y-289450142D02*
X363694523Y-289450142D01*
X364964523Y-288724428D02*
X364238809Y-289268714D01*
X363694523Y-288724428D02*
X364420238Y-289450142D01*
X364964523Y-287514904D02*
X364964523Y-288240619D01*
X364964523Y-287877761D02*
X363694523Y-287877761D01*
X363875952Y-287998714D01*
X363996904Y-288119666D01*
X364057380Y-288240619D01*
X363694523Y-286365857D02*
X363694523Y-286970619D01*
X364299285Y-287031095D01*
X364238809Y-286970619D01*
X364178333Y-286849666D01*
X364178333Y-286547285D01*
X364238809Y-286426333D01*
X364299285Y-286365857D01*
X364420238Y-286305380D01*
X364722619Y-286305380D01*
X364843571Y-286365857D01*
X364904047Y-286426333D01*
X364964523Y-286547285D01*
X364964523Y-286849666D01*
X364904047Y-286970619D01*
X364843571Y-287031095D01*
%TO.C,K16*%
X380964523Y-289450142D02*
X379694523Y-289450142D01*
X380964523Y-288724428D02*
X380238809Y-289268714D01*
X379694523Y-288724428D02*
X380420238Y-289450142D01*
X380964523Y-287514904D02*
X380964523Y-288240619D01*
X380964523Y-287877761D02*
X379694523Y-287877761D01*
X379875952Y-287998714D01*
X379996904Y-288119666D01*
X380057380Y-288240619D01*
X379694523Y-286426333D02*
X379694523Y-286668238D01*
X379755000Y-286789190D01*
X379815476Y-286849666D01*
X379996904Y-286970619D01*
X380238809Y-287031095D01*
X380722619Y-287031095D01*
X380843571Y-286970619D01*
X380904047Y-286910142D01*
X380964523Y-286789190D01*
X380964523Y-286547285D01*
X380904047Y-286426333D01*
X380843571Y-286365857D01*
X380722619Y-286305380D01*
X380420238Y-286305380D01*
X380299285Y-286365857D01*
X380238809Y-286426333D01*
X380178333Y-286547285D01*
X380178333Y-286789190D01*
X380238809Y-286910142D01*
X380299285Y-286970619D01*
X380420238Y-287031095D01*
%TO.C,K17*%
X397964523Y-289450142D02*
X396694523Y-289450142D01*
X397964523Y-288724428D02*
X397238809Y-289268714D01*
X396694523Y-288724428D02*
X397420238Y-289450142D01*
X397964523Y-287514904D02*
X397964523Y-288240619D01*
X397964523Y-287877761D02*
X396694523Y-287877761D01*
X396875952Y-287998714D01*
X396996904Y-288119666D01*
X397057380Y-288240619D01*
X396694523Y-287091571D02*
X396694523Y-286244904D01*
X397964523Y-286789190D01*
%TO.C,K18*%
X413964523Y-289450142D02*
X412694523Y-289450142D01*
X413964523Y-288724428D02*
X413238809Y-289268714D01*
X412694523Y-288724428D02*
X413420238Y-289450142D01*
X413964523Y-287514904D02*
X413964523Y-288240619D01*
X413964523Y-287877761D02*
X412694523Y-287877761D01*
X412875952Y-287998714D01*
X412996904Y-288119666D01*
X413057380Y-288240619D01*
X413238809Y-286789190D02*
X413178333Y-286910142D01*
X413117857Y-286970619D01*
X412996904Y-287031095D01*
X412936428Y-287031095D01*
X412815476Y-286970619D01*
X412755000Y-286910142D01*
X412694523Y-286789190D01*
X412694523Y-286547285D01*
X412755000Y-286426333D01*
X412815476Y-286365857D01*
X412936428Y-286305380D01*
X412996904Y-286305380D01*
X413117857Y-286365857D01*
X413178333Y-286426333D01*
X413238809Y-286547285D01*
X413238809Y-286789190D01*
X413299285Y-286910142D01*
X413359761Y-286970619D01*
X413480714Y-287031095D01*
X413722619Y-287031095D01*
X413843571Y-286970619D01*
X413904047Y-286910142D01*
X413964523Y-286789190D01*
X413964523Y-286547285D01*
X413904047Y-286426333D01*
X413843571Y-286365857D01*
X413722619Y-286305380D01*
X413480714Y-286305380D01*
X413359761Y-286365857D01*
X413299285Y-286426333D01*
X413238809Y-286547285D01*
%TO.C,K20*%
X446964523Y-289450142D02*
X445694523Y-289450142D01*
X446964523Y-288724428D02*
X446238809Y-289268714D01*
X445694523Y-288724428D02*
X446420238Y-289450142D01*
X445815476Y-288240619D02*
X445755000Y-288180142D01*
X445694523Y-288059190D01*
X445694523Y-287756809D01*
X445755000Y-287635857D01*
X445815476Y-287575380D01*
X445936428Y-287514904D01*
X446057380Y-287514904D01*
X446238809Y-287575380D01*
X446964523Y-288301095D01*
X446964523Y-287514904D01*
X445694523Y-286728714D02*
X445694523Y-286607761D01*
X445755000Y-286486809D01*
X445815476Y-286426333D01*
X445936428Y-286365857D01*
X446178333Y-286305380D01*
X446480714Y-286305380D01*
X446722619Y-286365857D01*
X446843571Y-286426333D01*
X446904047Y-286486809D01*
X446964523Y-286607761D01*
X446964523Y-286728714D01*
X446904047Y-286849666D01*
X446843571Y-286910142D01*
X446722619Y-286970619D01*
X446480714Y-287031095D01*
X446178333Y-287031095D01*
X445936428Y-286970619D01*
X445815476Y-286910142D01*
X445755000Y-286849666D01*
X445694523Y-286728714D01*
%TO.C,Q1*%
D10*
X298084761Y-321391619D02*
X297989523Y-321344000D01*
X297894285Y-321248761D01*
X297751428Y-321105904D01*
X297656190Y-321058285D01*
X297560952Y-321058285D01*
X297608571Y-321296380D02*
X297513333Y-321248761D01*
X297418095Y-321153523D01*
X297370476Y-320963047D01*
X297370476Y-320629714D01*
X297418095Y-320439238D01*
X297513333Y-320344000D01*
X297608571Y-320296380D01*
X297799047Y-320296380D01*
X297894285Y-320344000D01*
X297989523Y-320439238D01*
X298037142Y-320629714D01*
X298037142Y-320963047D01*
X297989523Y-321153523D01*
X297894285Y-321248761D01*
X297799047Y-321296380D01*
X297608571Y-321296380D01*
X298989523Y-321296380D02*
X298418095Y-321296380D01*
X298703809Y-321296380D02*
X298703809Y-320296380D01*
X298608571Y-320439238D01*
X298513333Y-320534476D01*
X298418095Y-320582095D01*
%TO.C,Q2*%
X313832761Y-321391619D02*
X313737523Y-321344000D01*
X313642285Y-321248761D01*
X313499428Y-321105904D01*
X313404190Y-321058285D01*
X313308952Y-321058285D01*
X313356571Y-321296380D02*
X313261333Y-321248761D01*
X313166095Y-321153523D01*
X313118476Y-320963047D01*
X313118476Y-320629714D01*
X313166095Y-320439238D01*
X313261333Y-320344000D01*
X313356571Y-320296380D01*
X313547047Y-320296380D01*
X313642285Y-320344000D01*
X313737523Y-320439238D01*
X313785142Y-320629714D01*
X313785142Y-320963047D01*
X313737523Y-321153523D01*
X313642285Y-321248761D01*
X313547047Y-321296380D01*
X313356571Y-321296380D01*
X314166095Y-320391619D02*
X314213714Y-320344000D01*
X314308952Y-320296380D01*
X314547047Y-320296380D01*
X314642285Y-320344000D01*
X314689904Y-320391619D01*
X314737523Y-320486857D01*
X314737523Y-320582095D01*
X314689904Y-320724952D01*
X314118476Y-321296380D01*
X314737523Y-321296380D01*
%TO.C,Q3*%
X331104761Y-321391619D02*
X331009523Y-321344000D01*
X330914285Y-321248761D01*
X330771428Y-321105904D01*
X330676190Y-321058285D01*
X330580952Y-321058285D01*
X330628571Y-321296380D02*
X330533333Y-321248761D01*
X330438095Y-321153523D01*
X330390476Y-320963047D01*
X330390476Y-320629714D01*
X330438095Y-320439238D01*
X330533333Y-320344000D01*
X330628571Y-320296380D01*
X330819047Y-320296380D01*
X330914285Y-320344000D01*
X331009523Y-320439238D01*
X331057142Y-320629714D01*
X331057142Y-320963047D01*
X331009523Y-321153523D01*
X330914285Y-321248761D01*
X330819047Y-321296380D01*
X330628571Y-321296380D01*
X331390476Y-320296380D02*
X332009523Y-320296380D01*
X331676190Y-320677333D01*
X331819047Y-320677333D01*
X331914285Y-320724952D01*
X331961904Y-320772571D01*
X332009523Y-320867809D01*
X332009523Y-321105904D01*
X331961904Y-321201142D01*
X331914285Y-321248761D01*
X331819047Y-321296380D01*
X331533333Y-321296380D01*
X331438095Y-321248761D01*
X331390476Y-321201142D01*
%TO.C,Q4*%
X346852761Y-321391619D02*
X346757523Y-321344000D01*
X346662285Y-321248761D01*
X346519428Y-321105904D01*
X346424190Y-321058285D01*
X346328952Y-321058285D01*
X346376571Y-321296380D02*
X346281333Y-321248761D01*
X346186095Y-321153523D01*
X346138476Y-320963047D01*
X346138476Y-320629714D01*
X346186095Y-320439238D01*
X346281333Y-320344000D01*
X346376571Y-320296380D01*
X346567047Y-320296380D01*
X346662285Y-320344000D01*
X346757523Y-320439238D01*
X346805142Y-320629714D01*
X346805142Y-320963047D01*
X346757523Y-321153523D01*
X346662285Y-321248761D01*
X346567047Y-321296380D01*
X346376571Y-321296380D01*
X347662285Y-320629714D02*
X347662285Y-321296380D01*
X347424190Y-320248761D02*
X347186095Y-320963047D01*
X347805142Y-320963047D01*
%TO.C,Q5*%
X364124761Y-321391619D02*
X364029523Y-321344000D01*
X363934285Y-321248761D01*
X363791428Y-321105904D01*
X363696190Y-321058285D01*
X363600952Y-321058285D01*
X363648571Y-321296380D02*
X363553333Y-321248761D01*
X363458095Y-321153523D01*
X363410476Y-320963047D01*
X363410476Y-320629714D01*
X363458095Y-320439238D01*
X363553333Y-320344000D01*
X363648571Y-320296380D01*
X363839047Y-320296380D01*
X363934285Y-320344000D01*
X364029523Y-320439238D01*
X364077142Y-320629714D01*
X364077142Y-320963047D01*
X364029523Y-321153523D01*
X363934285Y-321248761D01*
X363839047Y-321296380D01*
X363648571Y-321296380D01*
X364981904Y-320296380D02*
X364505714Y-320296380D01*
X364458095Y-320772571D01*
X364505714Y-320724952D01*
X364600952Y-320677333D01*
X364839047Y-320677333D01*
X364934285Y-320724952D01*
X364981904Y-320772571D01*
X365029523Y-320867809D01*
X365029523Y-321105904D01*
X364981904Y-321201142D01*
X364934285Y-321248761D01*
X364839047Y-321296380D01*
X364600952Y-321296380D01*
X364505714Y-321248761D01*
X364458095Y-321201142D01*
%TO.C,Q6*%
X379872761Y-321391619D02*
X379777523Y-321344000D01*
X379682285Y-321248761D01*
X379539428Y-321105904D01*
X379444190Y-321058285D01*
X379348952Y-321058285D01*
X379396571Y-321296380D02*
X379301333Y-321248761D01*
X379206095Y-321153523D01*
X379158476Y-320963047D01*
X379158476Y-320629714D01*
X379206095Y-320439238D01*
X379301333Y-320344000D01*
X379396571Y-320296380D01*
X379587047Y-320296380D01*
X379682285Y-320344000D01*
X379777523Y-320439238D01*
X379825142Y-320629714D01*
X379825142Y-320963047D01*
X379777523Y-321153523D01*
X379682285Y-321248761D01*
X379587047Y-321296380D01*
X379396571Y-321296380D01*
X380682285Y-320296380D02*
X380491809Y-320296380D01*
X380396571Y-320344000D01*
X380348952Y-320391619D01*
X380253714Y-320534476D01*
X380206095Y-320724952D01*
X380206095Y-321105904D01*
X380253714Y-321201142D01*
X380301333Y-321248761D01*
X380396571Y-321296380D01*
X380587047Y-321296380D01*
X380682285Y-321248761D01*
X380729904Y-321201142D01*
X380777523Y-321105904D01*
X380777523Y-320867809D01*
X380729904Y-320772571D01*
X380682285Y-320724952D01*
X380587047Y-320677333D01*
X380396571Y-320677333D01*
X380301333Y-320724952D01*
X380253714Y-320772571D01*
X380206095Y-320867809D01*
%TO.C,Q7*%
X397144761Y-321391619D02*
X397049523Y-321344000D01*
X396954285Y-321248761D01*
X396811428Y-321105904D01*
X396716190Y-321058285D01*
X396620952Y-321058285D01*
X396668571Y-321296380D02*
X396573333Y-321248761D01*
X396478095Y-321153523D01*
X396430476Y-320963047D01*
X396430476Y-320629714D01*
X396478095Y-320439238D01*
X396573333Y-320344000D01*
X396668571Y-320296380D01*
X396859047Y-320296380D01*
X396954285Y-320344000D01*
X397049523Y-320439238D01*
X397097142Y-320629714D01*
X397097142Y-320963047D01*
X397049523Y-321153523D01*
X396954285Y-321248761D01*
X396859047Y-321296380D01*
X396668571Y-321296380D01*
X397430476Y-320296380D02*
X398097142Y-320296380D01*
X397668571Y-321296380D01*
%TO.C,Q8*%
X412892761Y-321391619D02*
X412797523Y-321344000D01*
X412702285Y-321248761D01*
X412559428Y-321105904D01*
X412464190Y-321058285D01*
X412368952Y-321058285D01*
X412416571Y-321296380D02*
X412321333Y-321248761D01*
X412226095Y-321153523D01*
X412178476Y-320963047D01*
X412178476Y-320629714D01*
X412226095Y-320439238D01*
X412321333Y-320344000D01*
X412416571Y-320296380D01*
X412607047Y-320296380D01*
X412702285Y-320344000D01*
X412797523Y-320439238D01*
X412845142Y-320629714D01*
X412845142Y-320963047D01*
X412797523Y-321153523D01*
X412702285Y-321248761D01*
X412607047Y-321296380D01*
X412416571Y-321296380D01*
X413416571Y-320724952D02*
X413321333Y-320677333D01*
X413273714Y-320629714D01*
X413226095Y-320534476D01*
X413226095Y-320486857D01*
X413273714Y-320391619D01*
X413321333Y-320344000D01*
X413416571Y-320296380D01*
X413607047Y-320296380D01*
X413702285Y-320344000D01*
X413749904Y-320391619D01*
X413797523Y-320486857D01*
X413797523Y-320534476D01*
X413749904Y-320629714D01*
X413702285Y-320677333D01*
X413607047Y-320724952D01*
X413416571Y-320724952D01*
X413321333Y-320772571D01*
X413273714Y-320820190D01*
X413226095Y-320915428D01*
X413226095Y-321105904D01*
X413273714Y-321201142D01*
X413321333Y-321248761D01*
X413416571Y-321296380D01*
X413607047Y-321296380D01*
X413702285Y-321248761D01*
X413749904Y-321201142D01*
X413797523Y-321105904D01*
X413797523Y-320915428D01*
X413749904Y-320820190D01*
X413702285Y-320772571D01*
X413607047Y-320724952D01*
%TO.C,Q9*%
X430164761Y-321391619D02*
X430069523Y-321344000D01*
X429974285Y-321248761D01*
X429831428Y-321105904D01*
X429736190Y-321058285D01*
X429640952Y-321058285D01*
X429688571Y-321296380D02*
X429593333Y-321248761D01*
X429498095Y-321153523D01*
X429450476Y-320963047D01*
X429450476Y-320629714D01*
X429498095Y-320439238D01*
X429593333Y-320344000D01*
X429688571Y-320296380D01*
X429879047Y-320296380D01*
X429974285Y-320344000D01*
X430069523Y-320439238D01*
X430117142Y-320629714D01*
X430117142Y-320963047D01*
X430069523Y-321153523D01*
X429974285Y-321248761D01*
X429879047Y-321296380D01*
X429688571Y-321296380D01*
X430593333Y-321296380D02*
X430783809Y-321296380D01*
X430879047Y-321248761D01*
X430926666Y-321201142D01*
X431021904Y-321058285D01*
X431069523Y-320867809D01*
X431069523Y-320486857D01*
X431021904Y-320391619D01*
X430974285Y-320344000D01*
X430879047Y-320296380D01*
X430688571Y-320296380D01*
X430593333Y-320344000D01*
X430545714Y-320391619D01*
X430498095Y-320486857D01*
X430498095Y-320724952D01*
X430545714Y-320820190D01*
X430593333Y-320867809D01*
X430688571Y-320915428D01*
X430879047Y-320915428D01*
X430974285Y-320867809D01*
X431021904Y-320820190D01*
X431069523Y-320724952D01*
%TO.C,Q10*%
X445436571Y-321391619D02*
X445341333Y-321344000D01*
X445246095Y-321248761D01*
X445103238Y-321105904D01*
X445008000Y-321058285D01*
X444912761Y-321058285D01*
X444960380Y-321296380D02*
X444865142Y-321248761D01*
X444769904Y-321153523D01*
X444722285Y-320963047D01*
X444722285Y-320629714D01*
X444769904Y-320439238D01*
X444865142Y-320344000D01*
X444960380Y-320296380D01*
X445150857Y-320296380D01*
X445246095Y-320344000D01*
X445341333Y-320439238D01*
X445388952Y-320629714D01*
X445388952Y-320963047D01*
X445341333Y-321153523D01*
X445246095Y-321248761D01*
X445150857Y-321296380D01*
X444960380Y-321296380D01*
X446341333Y-321296380D02*
X445769904Y-321296380D01*
X446055619Y-321296380D02*
X446055619Y-320296380D01*
X445960380Y-320439238D01*
X445865142Y-320534476D01*
X445769904Y-320582095D01*
X446960380Y-320296380D02*
X447055619Y-320296380D01*
X447150857Y-320344000D01*
X447198476Y-320391619D01*
X447246095Y-320486857D01*
X447293714Y-320677333D01*
X447293714Y-320915428D01*
X447246095Y-321105904D01*
X447198476Y-321201142D01*
X447150857Y-321248761D01*
X447055619Y-321296380D01*
X446960380Y-321296380D01*
X446865142Y-321248761D01*
X446817523Y-321201142D01*
X446769904Y-321105904D01*
X446722285Y-320915428D01*
X446722285Y-320677333D01*
X446769904Y-320486857D01*
X446817523Y-320391619D01*
X446865142Y-320344000D01*
X446960380Y-320296380D01*
%TO.C,Q11*%
X297608571Y-308579619D02*
X297513333Y-308532000D01*
X297418095Y-308436761D01*
X297275238Y-308293904D01*
X297180000Y-308246285D01*
X297084761Y-308246285D01*
X297132380Y-308484380D02*
X297037142Y-308436761D01*
X296941904Y-308341523D01*
X296894285Y-308151047D01*
X296894285Y-307817714D01*
X296941904Y-307627238D01*
X297037142Y-307532000D01*
X297132380Y-307484380D01*
X297322857Y-307484380D01*
X297418095Y-307532000D01*
X297513333Y-307627238D01*
X297560952Y-307817714D01*
X297560952Y-308151047D01*
X297513333Y-308341523D01*
X297418095Y-308436761D01*
X297322857Y-308484380D01*
X297132380Y-308484380D01*
X298513333Y-308484380D02*
X297941904Y-308484380D01*
X298227619Y-308484380D02*
X298227619Y-307484380D01*
X298132380Y-307627238D01*
X298037142Y-307722476D01*
X297941904Y-307770095D01*
X299465714Y-308484380D02*
X298894285Y-308484380D01*
X299180000Y-308484380D02*
X299180000Y-307484380D01*
X299084761Y-307627238D01*
X298989523Y-307722476D01*
X298894285Y-307770095D01*
%TO.C,Q12*%
X313356571Y-308579619D02*
X313261333Y-308532000D01*
X313166095Y-308436761D01*
X313023238Y-308293904D01*
X312928000Y-308246285D01*
X312832761Y-308246285D01*
X312880380Y-308484380D02*
X312785142Y-308436761D01*
X312689904Y-308341523D01*
X312642285Y-308151047D01*
X312642285Y-307817714D01*
X312689904Y-307627238D01*
X312785142Y-307532000D01*
X312880380Y-307484380D01*
X313070857Y-307484380D01*
X313166095Y-307532000D01*
X313261333Y-307627238D01*
X313308952Y-307817714D01*
X313308952Y-308151047D01*
X313261333Y-308341523D01*
X313166095Y-308436761D01*
X313070857Y-308484380D01*
X312880380Y-308484380D01*
X314261333Y-308484380D02*
X313689904Y-308484380D01*
X313975619Y-308484380D02*
X313975619Y-307484380D01*
X313880380Y-307627238D01*
X313785142Y-307722476D01*
X313689904Y-307770095D01*
X314642285Y-307579619D02*
X314689904Y-307532000D01*
X314785142Y-307484380D01*
X315023238Y-307484380D01*
X315118476Y-307532000D01*
X315166095Y-307579619D01*
X315213714Y-307674857D01*
X315213714Y-307770095D01*
X315166095Y-307912952D01*
X314594666Y-308484380D01*
X315213714Y-308484380D01*
%TO.C,Q14*%
X346376571Y-308579619D02*
X346281333Y-308532000D01*
X346186095Y-308436761D01*
X346043238Y-308293904D01*
X345948000Y-308246285D01*
X345852761Y-308246285D01*
X345900380Y-308484380D02*
X345805142Y-308436761D01*
X345709904Y-308341523D01*
X345662285Y-308151047D01*
X345662285Y-307817714D01*
X345709904Y-307627238D01*
X345805142Y-307532000D01*
X345900380Y-307484380D01*
X346090857Y-307484380D01*
X346186095Y-307532000D01*
X346281333Y-307627238D01*
X346328952Y-307817714D01*
X346328952Y-308151047D01*
X346281333Y-308341523D01*
X346186095Y-308436761D01*
X346090857Y-308484380D01*
X345900380Y-308484380D01*
X347281333Y-308484380D02*
X346709904Y-308484380D01*
X346995619Y-308484380D02*
X346995619Y-307484380D01*
X346900380Y-307627238D01*
X346805142Y-307722476D01*
X346709904Y-307770095D01*
X348138476Y-307817714D02*
X348138476Y-308484380D01*
X347900380Y-307436761D02*
X347662285Y-308151047D01*
X348281333Y-308151047D01*
%TO.C,Q15*%
X363648571Y-308579619D02*
X363553333Y-308532000D01*
X363458095Y-308436761D01*
X363315238Y-308293904D01*
X363220000Y-308246285D01*
X363124761Y-308246285D01*
X363172380Y-308484380D02*
X363077142Y-308436761D01*
X362981904Y-308341523D01*
X362934285Y-308151047D01*
X362934285Y-307817714D01*
X362981904Y-307627238D01*
X363077142Y-307532000D01*
X363172380Y-307484380D01*
X363362857Y-307484380D01*
X363458095Y-307532000D01*
X363553333Y-307627238D01*
X363600952Y-307817714D01*
X363600952Y-308151047D01*
X363553333Y-308341523D01*
X363458095Y-308436761D01*
X363362857Y-308484380D01*
X363172380Y-308484380D01*
X364553333Y-308484380D02*
X363981904Y-308484380D01*
X364267619Y-308484380D02*
X364267619Y-307484380D01*
X364172380Y-307627238D01*
X364077142Y-307722476D01*
X363981904Y-307770095D01*
X365458095Y-307484380D02*
X364981904Y-307484380D01*
X364934285Y-307960571D01*
X364981904Y-307912952D01*
X365077142Y-307865333D01*
X365315238Y-307865333D01*
X365410476Y-307912952D01*
X365458095Y-307960571D01*
X365505714Y-308055809D01*
X365505714Y-308293904D01*
X365458095Y-308389142D01*
X365410476Y-308436761D01*
X365315238Y-308484380D01*
X365077142Y-308484380D01*
X364981904Y-308436761D01*
X364934285Y-308389142D01*
%TO.C,Q16*%
X379396571Y-308579619D02*
X379301333Y-308532000D01*
X379206095Y-308436761D01*
X379063238Y-308293904D01*
X378968000Y-308246285D01*
X378872761Y-308246285D01*
X378920380Y-308484380D02*
X378825142Y-308436761D01*
X378729904Y-308341523D01*
X378682285Y-308151047D01*
X378682285Y-307817714D01*
X378729904Y-307627238D01*
X378825142Y-307532000D01*
X378920380Y-307484380D01*
X379110857Y-307484380D01*
X379206095Y-307532000D01*
X379301333Y-307627238D01*
X379348952Y-307817714D01*
X379348952Y-308151047D01*
X379301333Y-308341523D01*
X379206095Y-308436761D01*
X379110857Y-308484380D01*
X378920380Y-308484380D01*
X380301333Y-308484380D02*
X379729904Y-308484380D01*
X380015619Y-308484380D02*
X380015619Y-307484380D01*
X379920380Y-307627238D01*
X379825142Y-307722476D01*
X379729904Y-307770095D01*
X381158476Y-307484380D02*
X380968000Y-307484380D01*
X380872761Y-307532000D01*
X380825142Y-307579619D01*
X380729904Y-307722476D01*
X380682285Y-307912952D01*
X380682285Y-308293904D01*
X380729904Y-308389142D01*
X380777523Y-308436761D01*
X380872761Y-308484380D01*
X381063238Y-308484380D01*
X381158476Y-308436761D01*
X381206095Y-308389142D01*
X381253714Y-308293904D01*
X381253714Y-308055809D01*
X381206095Y-307960571D01*
X381158476Y-307912952D01*
X381063238Y-307865333D01*
X380872761Y-307865333D01*
X380777523Y-307912952D01*
X380729904Y-307960571D01*
X380682285Y-308055809D01*
%TO.C,Q17*%
X396668571Y-308579619D02*
X396573333Y-308532000D01*
X396478095Y-308436761D01*
X396335238Y-308293904D01*
X396240000Y-308246285D01*
X396144761Y-308246285D01*
X396192380Y-308484380D02*
X396097142Y-308436761D01*
X396001904Y-308341523D01*
X395954285Y-308151047D01*
X395954285Y-307817714D01*
X396001904Y-307627238D01*
X396097142Y-307532000D01*
X396192380Y-307484380D01*
X396382857Y-307484380D01*
X396478095Y-307532000D01*
X396573333Y-307627238D01*
X396620952Y-307817714D01*
X396620952Y-308151047D01*
X396573333Y-308341523D01*
X396478095Y-308436761D01*
X396382857Y-308484380D01*
X396192380Y-308484380D01*
X397573333Y-308484380D02*
X397001904Y-308484380D01*
X397287619Y-308484380D02*
X397287619Y-307484380D01*
X397192380Y-307627238D01*
X397097142Y-307722476D01*
X397001904Y-307770095D01*
X397906666Y-307484380D02*
X398573333Y-307484380D01*
X398144761Y-308484380D01*
%TO.C,Q18*%
X412416571Y-308579619D02*
X412321333Y-308532000D01*
X412226095Y-308436761D01*
X412083238Y-308293904D01*
X411988000Y-308246285D01*
X411892761Y-308246285D01*
X411940380Y-308484380D02*
X411845142Y-308436761D01*
X411749904Y-308341523D01*
X411702285Y-308151047D01*
X411702285Y-307817714D01*
X411749904Y-307627238D01*
X411845142Y-307532000D01*
X411940380Y-307484380D01*
X412130857Y-307484380D01*
X412226095Y-307532000D01*
X412321333Y-307627238D01*
X412368952Y-307817714D01*
X412368952Y-308151047D01*
X412321333Y-308341523D01*
X412226095Y-308436761D01*
X412130857Y-308484380D01*
X411940380Y-308484380D01*
X413321333Y-308484380D02*
X412749904Y-308484380D01*
X413035619Y-308484380D02*
X413035619Y-307484380D01*
X412940380Y-307627238D01*
X412845142Y-307722476D01*
X412749904Y-307770095D01*
X413892761Y-307912952D02*
X413797523Y-307865333D01*
X413749904Y-307817714D01*
X413702285Y-307722476D01*
X413702285Y-307674857D01*
X413749904Y-307579619D01*
X413797523Y-307532000D01*
X413892761Y-307484380D01*
X414083238Y-307484380D01*
X414178476Y-307532000D01*
X414226095Y-307579619D01*
X414273714Y-307674857D01*
X414273714Y-307722476D01*
X414226095Y-307817714D01*
X414178476Y-307865333D01*
X414083238Y-307912952D01*
X413892761Y-307912952D01*
X413797523Y-307960571D01*
X413749904Y-308008190D01*
X413702285Y-308103428D01*
X413702285Y-308293904D01*
X413749904Y-308389142D01*
X413797523Y-308436761D01*
X413892761Y-308484380D01*
X414083238Y-308484380D01*
X414178476Y-308436761D01*
X414226095Y-308389142D01*
X414273714Y-308293904D01*
X414273714Y-308103428D01*
X414226095Y-308008190D01*
X414178476Y-307960571D01*
X414083238Y-307912952D01*
%TO.C,Q19*%
X429688571Y-308579619D02*
X429593333Y-308532000D01*
X429498095Y-308436761D01*
X429355238Y-308293904D01*
X429260000Y-308246285D01*
X429164761Y-308246285D01*
X429212380Y-308484380D02*
X429117142Y-308436761D01*
X429021904Y-308341523D01*
X428974285Y-308151047D01*
X428974285Y-307817714D01*
X429021904Y-307627238D01*
X429117142Y-307532000D01*
X429212380Y-307484380D01*
X429402857Y-307484380D01*
X429498095Y-307532000D01*
X429593333Y-307627238D01*
X429640952Y-307817714D01*
X429640952Y-308151047D01*
X429593333Y-308341523D01*
X429498095Y-308436761D01*
X429402857Y-308484380D01*
X429212380Y-308484380D01*
X430593333Y-308484380D02*
X430021904Y-308484380D01*
X430307619Y-308484380D02*
X430307619Y-307484380D01*
X430212380Y-307627238D01*
X430117142Y-307722476D01*
X430021904Y-307770095D01*
X431069523Y-308484380D02*
X431260000Y-308484380D01*
X431355238Y-308436761D01*
X431402857Y-308389142D01*
X431498095Y-308246285D01*
X431545714Y-308055809D01*
X431545714Y-307674857D01*
X431498095Y-307579619D01*
X431450476Y-307532000D01*
X431355238Y-307484380D01*
X431164761Y-307484380D01*
X431069523Y-307532000D01*
X431021904Y-307579619D01*
X430974285Y-307674857D01*
X430974285Y-307912952D01*
X431021904Y-308008190D01*
X431069523Y-308055809D01*
X431164761Y-308103428D01*
X431355238Y-308103428D01*
X431450476Y-308055809D01*
X431498095Y-308008190D01*
X431545714Y-307912952D01*
%TO.C,Q20*%
X445436571Y-308579619D02*
X445341333Y-308532000D01*
X445246095Y-308436761D01*
X445103238Y-308293904D01*
X445008000Y-308246285D01*
X444912761Y-308246285D01*
X444960380Y-308484380D02*
X444865142Y-308436761D01*
X444769904Y-308341523D01*
X444722285Y-308151047D01*
X444722285Y-307817714D01*
X444769904Y-307627238D01*
X444865142Y-307532000D01*
X444960380Y-307484380D01*
X445150857Y-307484380D01*
X445246095Y-307532000D01*
X445341333Y-307627238D01*
X445388952Y-307817714D01*
X445388952Y-308151047D01*
X445341333Y-308341523D01*
X445246095Y-308436761D01*
X445150857Y-308484380D01*
X444960380Y-308484380D01*
X445769904Y-307579619D02*
X445817523Y-307532000D01*
X445912761Y-307484380D01*
X446150857Y-307484380D01*
X446246095Y-307532000D01*
X446293714Y-307579619D01*
X446341333Y-307674857D01*
X446341333Y-307770095D01*
X446293714Y-307912952D01*
X445722285Y-308484380D01*
X446341333Y-308484380D01*
X446960380Y-307484380D02*
X447055619Y-307484380D01*
X447150857Y-307532000D01*
X447198476Y-307579619D01*
X447246095Y-307674857D01*
X447293714Y-307865333D01*
X447293714Y-308103428D01*
X447246095Y-308293904D01*
X447198476Y-308389142D01*
X447150857Y-308436761D01*
X447055619Y-308484380D01*
X446960380Y-308484380D01*
X446865142Y-308436761D01*
X446817523Y-308389142D01*
X446769904Y-308293904D01*
X446722285Y-308103428D01*
X446722285Y-307865333D01*
X446769904Y-307674857D01*
X446817523Y-307579619D01*
X446865142Y-307532000D01*
X446960380Y-307484380D01*
%TO.C,R1*%
X291732380Y-323002666D02*
X291256190Y-323336000D01*
X291732380Y-323574095D02*
X290732380Y-323574095D01*
X290732380Y-323193142D01*
X290780000Y-323097904D01*
X290827619Y-323050285D01*
X290922857Y-323002666D01*
X291065714Y-323002666D01*
X291160952Y-323050285D01*
X291208571Y-323097904D01*
X291256190Y-323193142D01*
X291256190Y-323574095D01*
X291732380Y-322050285D02*
X291732380Y-322621714D01*
X291732380Y-322336000D02*
X290732380Y-322336000D01*
X290875238Y-322431238D01*
X290970476Y-322526476D01*
X291018095Y-322621714D01*
%TO.C,R2*%
X307480380Y-323002666D02*
X307004190Y-323336000D01*
X307480380Y-323574095D02*
X306480380Y-323574095D01*
X306480380Y-323193142D01*
X306528000Y-323097904D01*
X306575619Y-323050285D01*
X306670857Y-323002666D01*
X306813714Y-323002666D01*
X306908952Y-323050285D01*
X306956571Y-323097904D01*
X307004190Y-323193142D01*
X307004190Y-323574095D01*
X306575619Y-322621714D02*
X306528000Y-322574095D01*
X306480380Y-322478857D01*
X306480380Y-322240761D01*
X306528000Y-322145523D01*
X306575619Y-322097904D01*
X306670857Y-322050285D01*
X306766095Y-322050285D01*
X306908952Y-322097904D01*
X307480380Y-322669333D01*
X307480380Y-322050285D01*
%TO.C,R3*%
X324752380Y-323002666D02*
X324276190Y-323336000D01*
X324752380Y-323574095D02*
X323752380Y-323574095D01*
X323752380Y-323193142D01*
X323800000Y-323097904D01*
X323847619Y-323050285D01*
X323942857Y-323002666D01*
X324085714Y-323002666D01*
X324180952Y-323050285D01*
X324228571Y-323097904D01*
X324276190Y-323193142D01*
X324276190Y-323574095D01*
X323752380Y-322669333D02*
X323752380Y-322050285D01*
X324133333Y-322383619D01*
X324133333Y-322240761D01*
X324180952Y-322145523D01*
X324228571Y-322097904D01*
X324323809Y-322050285D01*
X324561904Y-322050285D01*
X324657142Y-322097904D01*
X324704761Y-322145523D01*
X324752380Y-322240761D01*
X324752380Y-322526476D01*
X324704761Y-322621714D01*
X324657142Y-322669333D01*
%TO.C,R4*%
X340500380Y-323002666D02*
X340024190Y-323336000D01*
X340500380Y-323574095D02*
X339500380Y-323574095D01*
X339500380Y-323193142D01*
X339548000Y-323097904D01*
X339595619Y-323050285D01*
X339690857Y-323002666D01*
X339833714Y-323002666D01*
X339928952Y-323050285D01*
X339976571Y-323097904D01*
X340024190Y-323193142D01*
X340024190Y-323574095D01*
X339833714Y-322145523D02*
X340500380Y-322145523D01*
X339452761Y-322383619D02*
X340167047Y-322621714D01*
X340167047Y-322002666D01*
%TO.C,R5*%
X357772380Y-323002666D02*
X357296190Y-323336000D01*
X357772380Y-323574095D02*
X356772380Y-323574095D01*
X356772380Y-323193142D01*
X356820000Y-323097904D01*
X356867619Y-323050285D01*
X356962857Y-323002666D01*
X357105714Y-323002666D01*
X357200952Y-323050285D01*
X357248571Y-323097904D01*
X357296190Y-323193142D01*
X357296190Y-323574095D01*
X356772380Y-322097904D02*
X356772380Y-322574095D01*
X357248571Y-322621714D01*
X357200952Y-322574095D01*
X357153333Y-322478857D01*
X357153333Y-322240761D01*
X357200952Y-322145523D01*
X357248571Y-322097904D01*
X357343809Y-322050285D01*
X357581904Y-322050285D01*
X357677142Y-322097904D01*
X357724761Y-322145523D01*
X357772380Y-322240761D01*
X357772380Y-322478857D01*
X357724761Y-322574095D01*
X357677142Y-322621714D01*
%TO.C,R6*%
X373520380Y-323002666D02*
X373044190Y-323336000D01*
X373520380Y-323574095D02*
X372520380Y-323574095D01*
X372520380Y-323193142D01*
X372568000Y-323097904D01*
X372615619Y-323050285D01*
X372710857Y-323002666D01*
X372853714Y-323002666D01*
X372948952Y-323050285D01*
X372996571Y-323097904D01*
X373044190Y-323193142D01*
X373044190Y-323574095D01*
X372520380Y-322145523D02*
X372520380Y-322336000D01*
X372568000Y-322431238D01*
X372615619Y-322478857D01*
X372758476Y-322574095D01*
X372948952Y-322621714D01*
X373329904Y-322621714D01*
X373425142Y-322574095D01*
X373472761Y-322526476D01*
X373520380Y-322431238D01*
X373520380Y-322240761D01*
X373472761Y-322145523D01*
X373425142Y-322097904D01*
X373329904Y-322050285D01*
X373091809Y-322050285D01*
X372996571Y-322097904D01*
X372948952Y-322145523D01*
X372901333Y-322240761D01*
X372901333Y-322431238D01*
X372948952Y-322526476D01*
X372996571Y-322574095D01*
X373091809Y-322621714D01*
%TO.C,R7*%
X390792380Y-323002666D02*
X390316190Y-323336000D01*
X390792380Y-323574095D02*
X389792380Y-323574095D01*
X389792380Y-323193142D01*
X389840000Y-323097904D01*
X389887619Y-323050285D01*
X389982857Y-323002666D01*
X390125714Y-323002666D01*
X390220952Y-323050285D01*
X390268571Y-323097904D01*
X390316190Y-323193142D01*
X390316190Y-323574095D01*
X389792380Y-322669333D02*
X389792380Y-322002666D01*
X390792380Y-322431238D01*
%TO.C,R8*%
X406540380Y-323002666D02*
X406064190Y-323336000D01*
X406540380Y-323574095D02*
X405540380Y-323574095D01*
X405540380Y-323193142D01*
X405588000Y-323097904D01*
X405635619Y-323050285D01*
X405730857Y-323002666D01*
X405873714Y-323002666D01*
X405968952Y-323050285D01*
X406016571Y-323097904D01*
X406064190Y-323193142D01*
X406064190Y-323574095D01*
X405968952Y-322431238D02*
X405921333Y-322526476D01*
X405873714Y-322574095D01*
X405778476Y-322621714D01*
X405730857Y-322621714D01*
X405635619Y-322574095D01*
X405588000Y-322526476D01*
X405540380Y-322431238D01*
X405540380Y-322240761D01*
X405588000Y-322145523D01*
X405635619Y-322097904D01*
X405730857Y-322050285D01*
X405778476Y-322050285D01*
X405873714Y-322097904D01*
X405921333Y-322145523D01*
X405968952Y-322240761D01*
X405968952Y-322431238D01*
X406016571Y-322526476D01*
X406064190Y-322574095D01*
X406159428Y-322621714D01*
X406349904Y-322621714D01*
X406445142Y-322574095D01*
X406492761Y-322526476D01*
X406540380Y-322431238D01*
X406540380Y-322240761D01*
X406492761Y-322145523D01*
X406445142Y-322097904D01*
X406349904Y-322050285D01*
X406159428Y-322050285D01*
X406064190Y-322097904D01*
X406016571Y-322145523D01*
X405968952Y-322240761D01*
%TO.C,R9*%
X423812380Y-323002666D02*
X423336190Y-323336000D01*
X423812380Y-323574095D02*
X422812380Y-323574095D01*
X422812380Y-323193142D01*
X422860000Y-323097904D01*
X422907619Y-323050285D01*
X423002857Y-323002666D01*
X423145714Y-323002666D01*
X423240952Y-323050285D01*
X423288571Y-323097904D01*
X423336190Y-323193142D01*
X423336190Y-323574095D01*
X423812380Y-322526476D02*
X423812380Y-322336000D01*
X423764761Y-322240761D01*
X423717142Y-322193142D01*
X423574285Y-322097904D01*
X423383809Y-322050285D01*
X423002857Y-322050285D01*
X422907619Y-322097904D01*
X422860000Y-322145523D01*
X422812380Y-322240761D01*
X422812380Y-322431238D01*
X422860000Y-322526476D01*
X422907619Y-322574095D01*
X423002857Y-322621714D01*
X423240952Y-322621714D01*
X423336190Y-322574095D01*
X423383809Y-322526476D01*
X423431428Y-322431238D01*
X423431428Y-322240761D01*
X423383809Y-322145523D01*
X423336190Y-322097904D01*
X423240952Y-322050285D01*
%TO.C,R10*%
X439560380Y-323478857D02*
X439084190Y-323812190D01*
X439560380Y-324050285D02*
X438560380Y-324050285D01*
X438560380Y-323669333D01*
X438608000Y-323574095D01*
X438655619Y-323526476D01*
X438750857Y-323478857D01*
X438893714Y-323478857D01*
X438988952Y-323526476D01*
X439036571Y-323574095D01*
X439084190Y-323669333D01*
X439084190Y-324050285D01*
X439560380Y-322526476D02*
X439560380Y-323097904D01*
X439560380Y-322812190D02*
X438560380Y-322812190D01*
X438703238Y-322907428D01*
X438798476Y-323002666D01*
X438846095Y-323097904D01*
X438560380Y-321907428D02*
X438560380Y-321812190D01*
X438608000Y-321716952D01*
X438655619Y-321669333D01*
X438750857Y-321621714D01*
X438941333Y-321574095D01*
X439179428Y-321574095D01*
X439369904Y-321621714D01*
X439465142Y-321669333D01*
X439512761Y-321716952D01*
X439560380Y-321812190D01*
X439560380Y-321907428D01*
X439512761Y-322002666D01*
X439465142Y-322050285D01*
X439369904Y-322097904D01*
X439179428Y-322145523D01*
X438941333Y-322145523D01*
X438750857Y-322097904D01*
X438655619Y-322050285D01*
X438608000Y-322002666D01*
X438560380Y-321907428D01*
%TO.C,R11*%
X305024380Y-306682857D02*
X304548190Y-307016190D01*
X305024380Y-307254285D02*
X304024380Y-307254285D01*
X304024380Y-306873333D01*
X304072000Y-306778095D01*
X304119619Y-306730476D01*
X304214857Y-306682857D01*
X304357714Y-306682857D01*
X304452952Y-306730476D01*
X304500571Y-306778095D01*
X304548190Y-306873333D01*
X304548190Y-307254285D01*
X305024380Y-305730476D02*
X305024380Y-306301904D01*
X305024380Y-306016190D02*
X304024380Y-306016190D01*
X304167238Y-306111428D01*
X304262476Y-306206666D01*
X304310095Y-306301904D01*
X305024380Y-304778095D02*
X305024380Y-305349523D01*
X305024380Y-305063809D02*
X304024380Y-305063809D01*
X304167238Y-305159047D01*
X304262476Y-305254285D01*
X304310095Y-305349523D01*
%TO.C,R12*%
X320772380Y-306682857D02*
X320296190Y-307016190D01*
X320772380Y-307254285D02*
X319772380Y-307254285D01*
X319772380Y-306873333D01*
X319820000Y-306778095D01*
X319867619Y-306730476D01*
X319962857Y-306682857D01*
X320105714Y-306682857D01*
X320200952Y-306730476D01*
X320248571Y-306778095D01*
X320296190Y-306873333D01*
X320296190Y-307254285D01*
X320772380Y-305730476D02*
X320772380Y-306301904D01*
X320772380Y-306016190D02*
X319772380Y-306016190D01*
X319915238Y-306111428D01*
X320010476Y-306206666D01*
X320058095Y-306301904D01*
X319867619Y-305349523D02*
X319820000Y-305301904D01*
X319772380Y-305206666D01*
X319772380Y-304968571D01*
X319820000Y-304873333D01*
X319867619Y-304825714D01*
X319962857Y-304778095D01*
X320058095Y-304778095D01*
X320200952Y-304825714D01*
X320772380Y-305397142D01*
X320772380Y-304778095D01*
%TO.C,R13*%
X338044380Y-306682857D02*
X337568190Y-307016190D01*
X338044380Y-307254285D02*
X337044380Y-307254285D01*
X337044380Y-306873333D01*
X337092000Y-306778095D01*
X337139619Y-306730476D01*
X337234857Y-306682857D01*
X337377714Y-306682857D01*
X337472952Y-306730476D01*
X337520571Y-306778095D01*
X337568190Y-306873333D01*
X337568190Y-307254285D01*
X338044380Y-305730476D02*
X338044380Y-306301904D01*
X338044380Y-306016190D02*
X337044380Y-306016190D01*
X337187238Y-306111428D01*
X337282476Y-306206666D01*
X337330095Y-306301904D01*
X337044380Y-305397142D02*
X337044380Y-304778095D01*
X337425333Y-305111428D01*
X337425333Y-304968571D01*
X337472952Y-304873333D01*
X337520571Y-304825714D01*
X337615809Y-304778095D01*
X337853904Y-304778095D01*
X337949142Y-304825714D01*
X337996761Y-304873333D01*
X338044380Y-304968571D01*
X338044380Y-305254285D01*
X337996761Y-305349523D01*
X337949142Y-305397142D01*
%TO.C,R14*%
X353792380Y-306682857D02*
X353316190Y-307016190D01*
X353792380Y-307254285D02*
X352792380Y-307254285D01*
X352792380Y-306873333D01*
X352840000Y-306778095D01*
X352887619Y-306730476D01*
X352982857Y-306682857D01*
X353125714Y-306682857D01*
X353220952Y-306730476D01*
X353268571Y-306778095D01*
X353316190Y-306873333D01*
X353316190Y-307254285D01*
X353792380Y-305730476D02*
X353792380Y-306301904D01*
X353792380Y-306016190D02*
X352792380Y-306016190D01*
X352935238Y-306111428D01*
X353030476Y-306206666D01*
X353078095Y-306301904D01*
X353125714Y-304873333D02*
X353792380Y-304873333D01*
X352744761Y-305111428D02*
X353459047Y-305349523D01*
X353459047Y-304730476D01*
%TO.C,R15*%
X371064380Y-306682857D02*
X370588190Y-307016190D01*
X371064380Y-307254285D02*
X370064380Y-307254285D01*
X370064380Y-306873333D01*
X370112000Y-306778095D01*
X370159619Y-306730476D01*
X370254857Y-306682857D01*
X370397714Y-306682857D01*
X370492952Y-306730476D01*
X370540571Y-306778095D01*
X370588190Y-306873333D01*
X370588190Y-307254285D01*
X371064380Y-305730476D02*
X371064380Y-306301904D01*
X371064380Y-306016190D02*
X370064380Y-306016190D01*
X370207238Y-306111428D01*
X370302476Y-306206666D01*
X370350095Y-306301904D01*
X370064380Y-304825714D02*
X370064380Y-305301904D01*
X370540571Y-305349523D01*
X370492952Y-305301904D01*
X370445333Y-305206666D01*
X370445333Y-304968571D01*
X370492952Y-304873333D01*
X370540571Y-304825714D01*
X370635809Y-304778095D01*
X370873904Y-304778095D01*
X370969142Y-304825714D01*
X371016761Y-304873333D01*
X371064380Y-304968571D01*
X371064380Y-305206666D01*
X371016761Y-305301904D01*
X370969142Y-305349523D01*
%TO.C,R16*%
X386812380Y-306682857D02*
X386336190Y-307016190D01*
X386812380Y-307254285D02*
X385812380Y-307254285D01*
X385812380Y-306873333D01*
X385860000Y-306778095D01*
X385907619Y-306730476D01*
X386002857Y-306682857D01*
X386145714Y-306682857D01*
X386240952Y-306730476D01*
X386288571Y-306778095D01*
X386336190Y-306873333D01*
X386336190Y-307254285D01*
X386812380Y-305730476D02*
X386812380Y-306301904D01*
X386812380Y-306016190D02*
X385812380Y-306016190D01*
X385955238Y-306111428D01*
X386050476Y-306206666D01*
X386098095Y-306301904D01*
X385812380Y-304873333D02*
X385812380Y-305063809D01*
X385860000Y-305159047D01*
X385907619Y-305206666D01*
X386050476Y-305301904D01*
X386240952Y-305349523D01*
X386621904Y-305349523D01*
X386717142Y-305301904D01*
X386764761Y-305254285D01*
X386812380Y-305159047D01*
X386812380Y-304968571D01*
X386764761Y-304873333D01*
X386717142Y-304825714D01*
X386621904Y-304778095D01*
X386383809Y-304778095D01*
X386288571Y-304825714D01*
X386240952Y-304873333D01*
X386193333Y-304968571D01*
X386193333Y-305159047D01*
X386240952Y-305254285D01*
X386288571Y-305301904D01*
X386383809Y-305349523D01*
%TO.C,R17*%
X404084380Y-306682857D02*
X403608190Y-307016190D01*
X404084380Y-307254285D02*
X403084380Y-307254285D01*
X403084380Y-306873333D01*
X403132000Y-306778095D01*
X403179619Y-306730476D01*
X403274857Y-306682857D01*
X403417714Y-306682857D01*
X403512952Y-306730476D01*
X403560571Y-306778095D01*
X403608190Y-306873333D01*
X403608190Y-307254285D01*
X404084380Y-305730476D02*
X404084380Y-306301904D01*
X404084380Y-306016190D02*
X403084380Y-306016190D01*
X403227238Y-306111428D01*
X403322476Y-306206666D01*
X403370095Y-306301904D01*
X403084380Y-305397142D02*
X403084380Y-304730476D01*
X404084380Y-305159047D01*
%TO.C,R18*%
X419832380Y-306682857D02*
X419356190Y-307016190D01*
X419832380Y-307254285D02*
X418832380Y-307254285D01*
X418832380Y-306873333D01*
X418880000Y-306778095D01*
X418927619Y-306730476D01*
X419022857Y-306682857D01*
X419165714Y-306682857D01*
X419260952Y-306730476D01*
X419308571Y-306778095D01*
X419356190Y-306873333D01*
X419356190Y-307254285D01*
X419832380Y-305730476D02*
X419832380Y-306301904D01*
X419832380Y-306016190D02*
X418832380Y-306016190D01*
X418975238Y-306111428D01*
X419070476Y-306206666D01*
X419118095Y-306301904D01*
X419260952Y-305159047D02*
X419213333Y-305254285D01*
X419165714Y-305301904D01*
X419070476Y-305349523D01*
X419022857Y-305349523D01*
X418927619Y-305301904D01*
X418880000Y-305254285D01*
X418832380Y-305159047D01*
X418832380Y-304968571D01*
X418880000Y-304873333D01*
X418927619Y-304825714D01*
X419022857Y-304778095D01*
X419070476Y-304778095D01*
X419165714Y-304825714D01*
X419213333Y-304873333D01*
X419260952Y-304968571D01*
X419260952Y-305159047D01*
X419308571Y-305254285D01*
X419356190Y-305301904D01*
X419451428Y-305349523D01*
X419641904Y-305349523D01*
X419737142Y-305301904D01*
X419784761Y-305254285D01*
X419832380Y-305159047D01*
X419832380Y-304968571D01*
X419784761Y-304873333D01*
X419737142Y-304825714D01*
X419641904Y-304778095D01*
X419451428Y-304778095D01*
X419356190Y-304825714D01*
X419308571Y-304873333D01*
X419260952Y-304968571D01*
%TO.C,R19*%
X437104380Y-306682857D02*
X436628190Y-307016190D01*
X437104380Y-307254285D02*
X436104380Y-307254285D01*
X436104380Y-306873333D01*
X436152000Y-306778095D01*
X436199619Y-306730476D01*
X436294857Y-306682857D01*
X436437714Y-306682857D01*
X436532952Y-306730476D01*
X436580571Y-306778095D01*
X436628190Y-306873333D01*
X436628190Y-307254285D01*
X437104380Y-305730476D02*
X437104380Y-306301904D01*
X437104380Y-306016190D02*
X436104380Y-306016190D01*
X436247238Y-306111428D01*
X436342476Y-306206666D01*
X436390095Y-306301904D01*
X437104380Y-305254285D02*
X437104380Y-305063809D01*
X437056761Y-304968571D01*
X437009142Y-304920952D01*
X436866285Y-304825714D01*
X436675809Y-304778095D01*
X436294857Y-304778095D01*
X436199619Y-304825714D01*
X436152000Y-304873333D01*
X436104380Y-304968571D01*
X436104380Y-305159047D01*
X436152000Y-305254285D01*
X436199619Y-305301904D01*
X436294857Y-305349523D01*
X436532952Y-305349523D01*
X436628190Y-305301904D01*
X436675809Y-305254285D01*
X436723428Y-305159047D01*
X436723428Y-304968571D01*
X436675809Y-304873333D01*
X436628190Y-304825714D01*
X436532952Y-304778095D01*
%TO.C,R20*%
X452852380Y-306682857D02*
X452376190Y-307016190D01*
X452852380Y-307254285D02*
X451852380Y-307254285D01*
X451852380Y-306873333D01*
X451900000Y-306778095D01*
X451947619Y-306730476D01*
X452042857Y-306682857D01*
X452185714Y-306682857D01*
X452280952Y-306730476D01*
X452328571Y-306778095D01*
X452376190Y-306873333D01*
X452376190Y-307254285D01*
X451947619Y-306301904D02*
X451900000Y-306254285D01*
X451852380Y-306159047D01*
X451852380Y-305920952D01*
X451900000Y-305825714D01*
X451947619Y-305778095D01*
X452042857Y-305730476D01*
X452138095Y-305730476D01*
X452280952Y-305778095D01*
X452852380Y-306349523D01*
X452852380Y-305730476D01*
X451852380Y-305111428D02*
X451852380Y-305016190D01*
X451900000Y-304920952D01*
X451947619Y-304873333D01*
X452042857Y-304825714D01*
X452233333Y-304778095D01*
X452471428Y-304778095D01*
X452661904Y-304825714D01*
X452757142Y-304873333D01*
X452804761Y-304920952D01*
X452852380Y-305016190D01*
X452852380Y-305111428D01*
X452804761Y-305206666D01*
X452757142Y-305254285D01*
X452661904Y-305301904D01*
X452471428Y-305349523D01*
X452233333Y-305349523D01*
X452042857Y-305301904D01*
X451947619Y-305254285D01*
X451900000Y-305206666D01*
X451852380Y-305111428D01*
%TO.C,J1*%
X306556666Y-362160380D02*
X306556666Y-362874666D01*
X306509047Y-363017523D01*
X306413809Y-363112761D01*
X306270952Y-363160380D01*
X306175714Y-363160380D01*
X307556666Y-363160380D02*
X306985238Y-363160380D01*
X307270952Y-363160380D02*
X307270952Y-362160380D01*
X307175714Y-362303238D01*
X307080476Y-362398476D01*
X306985238Y-362446095D01*
%TO.C,J2*%
X339556666Y-362160380D02*
X339556666Y-362874666D01*
X339509047Y-363017523D01*
X339413809Y-363112761D01*
X339270952Y-363160380D01*
X339175714Y-363160380D01*
X339985238Y-362255619D02*
X340032857Y-362208000D01*
X340128095Y-362160380D01*
X340366190Y-362160380D01*
X340461428Y-362208000D01*
X340509047Y-362255619D01*
X340556666Y-362350857D01*
X340556666Y-362446095D01*
X340509047Y-362588952D01*
X339937619Y-363160380D01*
X340556666Y-363160380D01*
%TO.C,J3*%
X372556666Y-362160380D02*
X372556666Y-362874666D01*
X372509047Y-363017523D01*
X372413809Y-363112761D01*
X372270952Y-363160380D01*
X372175714Y-363160380D01*
X372937619Y-362160380D02*
X373556666Y-362160380D01*
X373223333Y-362541333D01*
X373366190Y-362541333D01*
X373461428Y-362588952D01*
X373509047Y-362636571D01*
X373556666Y-362731809D01*
X373556666Y-362969904D01*
X373509047Y-363065142D01*
X373461428Y-363112761D01*
X373366190Y-363160380D01*
X373080476Y-363160380D01*
X372985238Y-363112761D01*
X372937619Y-363065142D01*
%TO.C,J4*%
X405556666Y-362160380D02*
X405556666Y-362874666D01*
X405509047Y-363017523D01*
X405413809Y-363112761D01*
X405270952Y-363160380D01*
X405175714Y-363160380D01*
X406461428Y-362493714D02*
X406461428Y-363160380D01*
X406223333Y-362112761D02*
X405985238Y-362827047D01*
X406604285Y-362827047D01*
%TO.C,J5*%
X438630666Y-362160380D02*
X438630666Y-362874666D01*
X438583047Y-363017523D01*
X438487809Y-363112761D01*
X438344952Y-363160380D01*
X438249714Y-363160380D01*
X439583047Y-362160380D02*
X439106857Y-362160380D01*
X439059238Y-362636571D01*
X439106857Y-362588952D01*
X439202095Y-362541333D01*
X439440190Y-362541333D01*
X439535428Y-362588952D01*
X439583047Y-362636571D01*
X439630666Y-362731809D01*
X439630666Y-362969904D01*
X439583047Y-363065142D01*
X439535428Y-363112761D01*
X439440190Y-363160380D01*
X439202095Y-363160380D01*
X439106857Y-363112761D01*
X439059238Y-363065142D01*
%TO.C,J10*%
X404580476Y-266160380D02*
X404580476Y-266874666D01*
X404532857Y-267017523D01*
X404437619Y-267112761D01*
X404294761Y-267160380D01*
X404199523Y-267160380D01*
X405580476Y-267160380D02*
X405009047Y-267160380D01*
X405294761Y-267160380D02*
X405294761Y-266160380D01*
X405199523Y-266303238D01*
X405104285Y-266398476D01*
X405009047Y-266446095D01*
X406199523Y-266160380D02*
X406294761Y-266160380D01*
X406390000Y-266208000D01*
X406437619Y-266255619D01*
X406485238Y-266350857D01*
X406532857Y-266541333D01*
X406532857Y-266779428D01*
X406485238Y-266969904D01*
X406437619Y-267065142D01*
X406390000Y-267112761D01*
X406294761Y-267160380D01*
X406199523Y-267160380D01*
X406104285Y-267112761D01*
X406056666Y-267065142D01*
X406009047Y-266969904D01*
X405961428Y-266779428D01*
X405961428Y-266541333D01*
X406009047Y-266350857D01*
X406056666Y-266255619D01*
X406104285Y-266208000D01*
X406199523Y-266160380D01*
%TO.C,J11*%
X437506476Y-266160380D02*
X437506476Y-266874666D01*
X437458857Y-267017523D01*
X437363619Y-267112761D01*
X437220761Y-267160380D01*
X437125523Y-267160380D01*
X438506476Y-267160380D02*
X437935047Y-267160380D01*
X438220761Y-267160380D02*
X438220761Y-266160380D01*
X438125523Y-266303238D01*
X438030285Y-266398476D01*
X437935047Y-266446095D01*
X439458857Y-267160380D02*
X438887428Y-267160380D01*
X439173142Y-267160380D02*
X439173142Y-266160380D01*
X439077904Y-266303238D01*
X438982666Y-266398476D01*
X438887428Y-266446095D01*
%TO.C,J9*%
X372056666Y-266160380D02*
X372056666Y-266874666D01*
X372009047Y-267017523D01*
X371913809Y-267112761D01*
X371770952Y-267160380D01*
X371675714Y-267160380D01*
X372580476Y-267160380D02*
X372770952Y-267160380D01*
X372866190Y-267112761D01*
X372913809Y-267065142D01*
X373009047Y-266922285D01*
X373056666Y-266731809D01*
X373056666Y-266350857D01*
X373009047Y-266255619D01*
X372961428Y-266208000D01*
X372866190Y-266160380D01*
X372675714Y-266160380D01*
X372580476Y-266208000D01*
X372532857Y-266255619D01*
X372485238Y-266350857D01*
X372485238Y-266588952D01*
X372532857Y-266684190D01*
X372580476Y-266731809D01*
X372675714Y-266779428D01*
X372866190Y-266779428D01*
X372961428Y-266731809D01*
X373009047Y-266684190D01*
X373056666Y-266588952D01*
%TO.C,J8*%
X339056666Y-266160380D02*
X339056666Y-266874666D01*
X339009047Y-267017523D01*
X338913809Y-267112761D01*
X338770952Y-267160380D01*
X338675714Y-267160380D01*
X339675714Y-266588952D02*
X339580476Y-266541333D01*
X339532857Y-266493714D01*
X339485238Y-266398476D01*
X339485238Y-266350857D01*
X339532857Y-266255619D01*
X339580476Y-266208000D01*
X339675714Y-266160380D01*
X339866190Y-266160380D01*
X339961428Y-266208000D01*
X340009047Y-266255619D01*
X340056666Y-266350857D01*
X340056666Y-266398476D01*
X340009047Y-266493714D01*
X339961428Y-266541333D01*
X339866190Y-266588952D01*
X339675714Y-266588952D01*
X339580476Y-266636571D01*
X339532857Y-266684190D01*
X339485238Y-266779428D01*
X339485238Y-266969904D01*
X339532857Y-267065142D01*
X339580476Y-267112761D01*
X339675714Y-267160380D01*
X339866190Y-267160380D01*
X339961428Y-267112761D01*
X340009047Y-267065142D01*
X340056666Y-266969904D01*
X340056666Y-266779428D01*
X340009047Y-266684190D01*
X339961428Y-266636571D01*
X339866190Y-266588952D01*
%TO.C,J7*%
X306056666Y-266160380D02*
X306056666Y-266874666D01*
X306009047Y-267017523D01*
X305913809Y-267112761D01*
X305770952Y-267160380D01*
X305675714Y-267160380D01*
X306437619Y-266160380D02*
X307104285Y-266160380D01*
X306675714Y-267160380D01*
%TO.C,H1*%
X322378095Y-309860380D02*
X322378095Y-308860380D01*
X322378095Y-309336571D02*
X322949523Y-309336571D01*
X322949523Y-309860380D02*
X322949523Y-308860380D01*
X323949523Y-309860380D02*
X323378095Y-309860380D01*
X323663809Y-309860380D02*
X323663809Y-308860380D01*
X323568571Y-309003238D01*
X323473333Y-309098476D01*
X323378095Y-309146095D01*
%TO.C,H2*%
X421378095Y-309860380D02*
X421378095Y-308860380D01*
X421378095Y-309336571D02*
X421949523Y-309336571D01*
X421949523Y-309860380D02*
X421949523Y-308860380D01*
X422378095Y-308955619D02*
X422425714Y-308908000D01*
X422520952Y-308860380D01*
X422759047Y-308860380D01*
X422854285Y-308908000D01*
X422901904Y-308955619D01*
X422949523Y-309050857D01*
X422949523Y-309146095D01*
X422901904Y-309288952D01*
X422330476Y-309860380D01*
X422949523Y-309860380D01*
%TD*%
M02*
