M48
; DRILL file {KiCad (5.1.6)-1} date 09/13/20 22:13:19
; FORMAT={-:-/ absolute / inch / decimal}
; #@! TF.CreationDate,2020-09-13T22:13:19+02:00
; #@! TF.GenerationSoftware,Kicad,Pcbnew,(5.1.6)-1
; #@! TF.FileFunction,Plated,1,2,PTH
FMAT,2
INCH
T1C0.0394
T2C0.0512
%
G90
G05
T1
X14.1394Y-12.3294
X14.1394Y-12.4294
X14.2394Y-12.3294
X14.2394Y-12.4294
X14.3394Y-12.3294
X14.3394Y-12.4294
X14.4394Y-12.3294
X14.4394Y-12.4294
X14.5394Y-12.3294
X14.5394Y-12.4294
X14.6394Y-12.3294
X14.6394Y-12.4294
X14.7394Y-12.3294
X14.7394Y-12.4294
X14.8394Y-12.3294
X14.8394Y-12.4294
X14.9394Y-12.3294
X14.9394Y-12.4294
X15.0394Y-12.3294
X15.0394Y-12.4294
X15.1394Y-12.3294
X15.1394Y-12.4294
T2
X12.2496Y-12.9728
X12.2496Y-13.5712
X12.2496Y-13.768
X12.2496Y-13.9649
X12.5449Y-12.9728
X12.5449Y-13.5712
X12.5449Y-13.768
X12.5449Y-13.9649
X14.2181Y-12.9728
X14.2181Y-13.5712
X14.2181Y-13.768
X14.2181Y-13.9649
X14.5134Y-12.9728
X14.5134Y-13.5712
X14.5134Y-13.768
X14.5134Y-13.9649
X15.5173Y-12.9728
X15.5173Y-13.5712
X15.5173Y-13.768
X15.5173Y-13.9649
X15.8126Y-12.9728
X15.8126Y-13.5712
X15.8126Y-13.768
X15.8126Y-13.9649
X17.4268Y-10.8153
X17.4268Y-11.0121
X17.4268Y-11.209
X17.4268Y-11.8074
X17.722Y-10.8153
X17.722Y-11.0121
X17.722Y-11.209
X17.722Y-11.8074
X16.1276Y-10.8153
X16.1276Y-11.0121
X16.1276Y-11.209
X16.1276Y-11.8074
X16.4228Y-10.8153
X16.4228Y-11.0121
X16.4228Y-11.209
X16.4228Y-11.8074
X16.8165Y-10.5003
X17.1118Y-10.5003
X17.4071Y-10.5003
X17.7024Y-10.5003
X15.537Y-14.2798
X15.8323Y-14.2798
X16.1276Y-14.2798
X16.4228Y-14.2798
X11.6394Y-14.2798
X11.9346Y-14.2798
X12.2299Y-14.2798
X12.5252Y-14.2798
X12.8992Y-10.8153
X12.8992Y-11.0121
X12.8992Y-11.209
X12.8992Y-11.8074
X13.1945Y-10.8153
X13.1945Y-11.0121
X13.1945Y-11.209
X13.1945Y-11.8074
X15.4976Y-10.8153
X15.4976Y-11.0121
X15.4976Y-11.209
X15.4976Y-11.8074
X15.7929Y-10.8153
X15.7929Y-11.0121
X15.7929Y-11.209
X15.7929Y-11.8074
X11.6Y-10.8153
X11.6Y-11.0121
X11.6Y-11.209
X11.6Y-11.8074
X11.8953Y-10.8153
X11.8953Y-11.0121
X11.8953Y-11.209
X11.8953Y-11.8074
X16.8165Y-12.9728
X16.8165Y-13.5712
X16.8165Y-13.768
X16.8165Y-13.9649
X17.1118Y-12.9728
X17.1118Y-13.5712
X17.1118Y-13.768
X17.1118Y-13.9649
X14.1984Y-10.8153
X14.1984Y-11.0121
X14.1984Y-11.209
X14.1984Y-11.8074
X14.4937Y-10.8153
X14.4937Y-11.0121
X14.4937Y-11.209
X14.4937Y-11.8074
X14.848Y-12.9728
X14.848Y-13.5712
X14.848Y-13.768
X14.848Y-13.9649
X15.1433Y-12.9728
X15.1433Y-13.5712
X15.1433Y-13.768
X15.1433Y-13.9649
X16.8362Y-14.2798
X17.1315Y-14.2798
X17.4268Y-14.2798
X17.722Y-14.2798
X11.6197Y-10.5003
X11.915Y-10.5003
X12.2102Y-10.5003
X12.5055Y-10.5003
X16.1472Y-12.9728
X16.1472Y-13.5712
X16.1472Y-13.768
X16.1472Y-13.9649
X16.4425Y-12.9728
X16.4425Y-13.5712
X16.4425Y-13.768
X16.4425Y-13.9649
X12.2299Y-10.8153
X12.2299Y-11.0121
X12.2299Y-11.209
X12.2299Y-11.8074
X12.5252Y-10.8153
X12.5252Y-11.0121
X12.5252Y-11.209
X12.5252Y-11.8074
X14.2181Y-10.5003
X14.5134Y-10.5003
X14.8087Y-10.5003
X15.1039Y-10.5003
X11.6197Y-12.9728
X11.6197Y-13.5712
X11.6197Y-13.768
X11.6197Y-13.9649
X11.915Y-12.9728
X11.915Y-13.5712
X11.915Y-13.768
X11.915Y-13.9649
X16.7969Y-10.8153
X16.7969Y-11.0121
X16.7969Y-11.209
X16.7969Y-11.8074
X17.0921Y-10.8153
X17.0921Y-11.0121
X17.0921Y-11.209
X17.0921Y-11.8074
X14.8283Y-10.8153
X14.8283Y-11.0121
X14.8283Y-11.209
X14.8283Y-11.8074
X15.1236Y-10.8153
X15.1236Y-11.0121
X15.1236Y-11.209
X15.1236Y-11.8074
X13.5291Y-10.8153
X13.5291Y-11.0121
X13.5291Y-11.209
X13.5291Y-11.8074
X13.8244Y-10.8153
X13.8244Y-11.0121
X13.8244Y-11.209
X13.8244Y-11.8074
X13.5488Y-12.9728
X13.5488Y-13.5712
X13.5488Y-13.768
X13.5488Y-13.9649
X13.8441Y-12.9728
X13.8441Y-13.5712
X13.8441Y-13.768
X13.8441Y-13.9649
X12.9386Y-14.2798
X13.2339Y-14.2798
X13.5291Y-14.2798
X13.8244Y-14.2798
X17.4465Y-12.9728
X17.4465Y-13.5712
X17.4465Y-13.768
X17.4465Y-13.9649
X17.7417Y-12.9728
X17.7417Y-13.5712
X17.7417Y-13.768
X17.7417Y-13.9649
X12.9189Y-12.9728
X12.9189Y-13.5712
X12.9189Y-13.768
X12.9189Y-13.9649
X13.2142Y-12.9728
X13.2142Y-13.5712
X13.2142Y-13.768
X13.2142Y-13.9649
X15.5173Y-10.5003
X15.8126Y-10.5003
X16.1079Y-10.5003
X16.4031Y-10.5003
X12.9189Y-10.5003
X13.2142Y-10.5003
X13.5094Y-10.5003
X13.8047Y-10.5003
X14.2378Y-14.2798
X14.5331Y-14.2798
X14.8283Y-14.2798
X15.1236Y-14.2798
T0
M30
